<svg id="Layer_1" data-name="Layer 1" xmlns="http://www.w3.org/2000/svg" viewBox="0 0 102.06 102.95"><defs><style>.cls-1{fill:#1f3b84;}.cls-2{fill:#e03123;}</style></defs><path class="cls-1" d="M50.66,0,53,.17c1.15.08,2.3.13,3.45.24.29,0,.78.23.79.38.05.43-.44.4-.73.46-1.47.29-2.94.61-4.42.81a5.11,5.11,0,0,1-3.44-.94c-.42-.28-.36-.64.09-.86l.49-.2L50.66,0" transform="translate(0)"/><path class="cls-2" d="M74.51,50.33A2.72,2.72,0,0,1,73,53q-7,3.33-14,6.61a2.41,2.41,0,0,1-3.33-1.34q-2.55-5.76-5.08-11.51l-1.26-2.84a2.47,2.47,0,0,1,1.41-3.49l13.83-5.7a2.7,2.7,0,0,1,3.79,1.47q2.94,6.57,5.82,13.18a7.77,7.77,0,0,1,.29.94" transform="translate(0)"/><path class="cls-1" d="M55.36,16.27a3.33,3.33,0,0,1,3,1.62q3.12,5.43,6.23,10.88A2.14,2.14,0,0,1,63.49,32L49.37,37.7A2.56,2.56,0,0,1,46,36.31q-2.72-6-5.4-12A2.34,2.34,0,0,1,42,21l12.47-4.48c.32-.11.66-.18.9-.24" transform="translate(0)"/><path class="cls-1" d="M46.68,87.22a3.33,3.33,0,0,1-3-1.64q-3.1-5.42-6.2-10.83a2.13,2.13,0,0,1,1.13-3.27L52.66,65.8a2.56,2.56,0,0,1,3.43,1.4q2.7,6,5.38,11.92A2.34,2.34,0,0,1,60,82.51L47.62,87a9,9,0,0,1-.94.25" transform="translate(0)"/><path class="cls-1" d="M43.29,38.48a2.69,2.69,0,0,1-1.6,2.62l-12,5.82c-.54.26-1.07.53-1.62.78a2.13,2.13,0,0,1-3.09-1.33c-1.31-4-2.6-8-3.88-12.06a3.18,3.18,0,0,1,1.52-3.69q6-3.18,11.91-6.32a2.32,2.32,0,0,1,3.33,1.17q2.64,6.09,5.24,12.17a7.66,7.66,0,0,1,.24.84" transform="translate(0)"/><path class="cls-1" d="M58.76,65a2.72,2.72,0,0,1,1.62-2.64L71,57.27l3-1.43a2.17,2.17,0,0,1,3.24,1.39q1.9,5.93,3.8,11.85a3.2,3.2,0,0,1-1.55,3.83L67.63,79.16A2.34,2.34,0,0,1,64.21,78Q61.61,72,59,66a9.6,9.6,0,0,1-.28-.93" transform="translate(0)"/><path class="cls-1" d="M82.32,28.38a3,3,0,0,1,2.8,1.56,100.55,100.55,0,0,1,5,11.25,2.88,2.88,0,0,1-1.33,3.55c-3,1.62-5.93,3.21-8.9,4.8a2.19,2.19,0,0,1-3.22-1.18q-2.68-6.73-5.85-13.27a2.19,2.19,0,0,1,1.36-3.21l9.4-3.31a7.2,7.2,0,0,1,.78-.19" transform="translate(0)"/><path class="cls-1" d="M19.74,75.11a2.94,2.94,0,0,1-2.82-1.59,99.89,99.89,0,0,1-5-11.21,2.89,2.89,0,0,1,1.33-3.56q4.43-2.41,8.89-4.79a2.18,2.18,0,0,1,3.22,1.16c1.8,4.49,3.74,8.92,5.86,13.27a2.2,2.2,0,0,1-1.35,3.22l-9.4,3.31a7.2,7.2,0,0,1-.78.19" transform="translate(0)"/><path class="cls-1" d="M71.86,12.42a4.2,4.2,0,0,1,3.52,1.82q3,4.46,6,8.94a2.91,2.91,0,0,1,.44,1.2,1.72,1.72,0,0,1-1.26,1.85c-3.32,1.08-6.63,2.17-10,3.22A3,3,0,0,1,67.09,28q-3.18-5.37-6.34-10.76l0-.07a1.73,1.73,0,0,1,1.23-2.74c1.33-.29,2.67-.55,4-.82l5.24-1.07c.22,0,.45-.07.69-.11" transform="translate(0)"/><path class="cls-1" d="M95.26,59.77a4.23,4.23,0,0,1-1.67,3.45Q89.82,66,86,68.74a3,3,0,0,1-.88.44,1.67,1.67,0,0,1-2.09-1.33c-.64-2-1.26-4.1-1.89-6.14s-1.21-3.93-1.8-5.89a3,3,0,0,1,1.41-3.59q4.38-2.52,8.77-5a1.88,1.88,0,0,1,3,1.22l2.64,10.69c0,.22.07.44.11.65" transform="translate(0)"/><path class="cls-1" d="M47.19,4.72a3.9,3.9,0,0,1,3.29,1.56l3.68,5.1a1.79,1.79,0,0,1-.94,3L40.84,18.75a2.67,2.67,0,0,1-3.51-1.47Q36,14.52,34.76,11.74a2.3,2.3,0,0,1,1.47-3.42l10.09-3.4a8.58,8.58,0,0,1,.87-.2" transform="translate(0)"/><path class="cls-1" d="M81.09,74.86a1.81,1.81,0,0,1,1.78,1.49c.44,2,.81,4,1.26,6a4.09,4.09,0,0,1-.24,2.88,3.56,3.56,0,0,1-1.5,1.57l-9.23,5.14a2.31,2.31,0,0,1-3.58-1.24l-2.32-5.55a2.69,2.69,0,0,1,1.26-3.63L80.1,75.25a8.48,8.48,0,0,1,1-.39" transform="translate(0)"/><path class="cls-1" d="M96.57,70.15c.07,1.51.13,3,.19,4.53A1.88,1.88,0,0,1,96,76.36c-2.54,2.09-5,4.22-7.58,6.29-1.07.88-2.18.41-2.44-1-.39-2-.73-4-1.12-6a4.63,4.63,0,0,1,.16-2.78,4.08,4.08,0,0,1,1.26-1.67l7.62-5.87c.1-.07.19-.15.29-.21a1.21,1.21,0,0,1,2,.89c.15,1.2.21,2.42.32,3.63,0,.18,0,.36,0,.54Z" transform="translate(0)"/><path class="cls-1" d="M59.87,12.62a4,4,0,0,1-3.29-1.55q-2-2.65-4.06-5.34c-.92-1.21-.44-2.31,1.08-2.53,2.61-.38,5.21-.79,7.83-1.15A21.68,21.68,0,0,1,64,1.9a1.15,1.15,0,0,1,.71.31c1.38,1.38,2.74,2.77,4.1,4.16.6.61,1.18,1.24,1.76,1.87a4.36,4.36,0,0,1,.44.51,1.21,1.21,0,0,1-.8,2.06c-1.25.25-2.51.46-3.76.68l-5.89,1-.67.08" transform="translate(0)"/><path class="cls-1" d="M17.28,29a4,4,0,0,1-1.49,3.18c-2.59,2-5.2,4-7.8,6-1,.79-2,.38-2.15-.9-.21-2.63-.36-5.27-.52-7.9a4.43,4.43,0,0,1,.07-1.21,1.48,1.48,0,0,1,.42-.79q3.26-2.78,6.53-5.51c.43-.36.85-.72,1.3-1.05a1.37,1.37,0,0,1,2.35.94c.41,2.26.83,4.51,1.24,6.77,0,.13,0,.26.05.45" transform="translate(0)"/><path class="cls-1" d="M94,41.52a2.14,2.14,0,0,1-2-1.43c-.56-1.37-1.06-2.77-1.66-4.12-1-2.2-2-4.37-3-6.55a2.17,2.17,0,0,1-.06-2.07,2,2,0,0,1,1.18-1c1-.31,2-.62,3-.88a3,3,0,0,1,3.34,1.44,76.82,76.82,0,0,1,4,9.15,3,3,0,0,1-1.21,3.48q-1.29.82-2.61,1.59a7,7,0,0,1-1,.36" transform="translate(0)"/><path class="cls-1" d="M86.63,24.42a3.55,3.55,0,0,1-3-1.55l-5.92-8.81a1,1,0,0,1,.2-1.58,4,4,0,0,1,3.72-.94,6.23,6.23,0,0,1,3,1.68c1.24,1.26,2.5,2.51,3.75,3.75a26.58,26.58,0,0,1,3.52,4.6.88.88,0,0,1-.17,1.25,3.1,3.1,0,0,1-1.11.64c-1.2.35-2.41.62-3.61.92a1.75,1.75,0,0,1-.33,0" transform="translate(0)"/><path class="cls-1" d="M15.41,79.07a3.52,3.52,0,0,1,3,1.52c2,3,4,5.94,6,8.92A1,1,0,0,1,24.13,91a4,4,0,0,1-3.68.92,6.38,6.38,0,0,1-3-1.68C16.23,89,15,87.75,13.69,86.49a27,27,0,0,1-3.49-4.56.85.85,0,0,1,.14-1.22A3.18,3.18,0,0,1,11.48,80c1.18-.34,2.38-.61,3.57-.91.11,0,.24,0,.36-.05" transform="translate(0)"/><path class="cls-1" d="M7.86,57.06A3.56,3.56,0,0,1,6.3,60.14L4.14,61.58A2.12,2.12,0,0,1,.86,60.29a48.19,48.19,0,0,1-.65-4.93C.07,53.78,0,52.18,0,50.6a4.51,4.51,0,0,1,.32-1.74A13.82,13.82,0,0,1,2.66,45.2,2.29,2.29,0,0,1,2.87,45a1.23,1.23,0,0,1,2.2.53c.31,1,.52,2,.76,3q1,3.93,1.91,7.86c.06.24.09.5.12.7" transform="translate(0)"/><path class="cls-1" d="M102,50c0,1,.12,2,.1,3a4.16,4.16,0,0,1-.28,1.57,13.68,13.68,0,0,1-2.41,3.83l-.06.06a1.4,1.4,0,0,1-1.38.57,1.43,1.43,0,0,1-1-1.2c-.24-.93-.46-1.86-.69-2.79q-.94-3.91-1.9-7.82a3.52,3.52,0,0,1,1.46-3.82c.76-.51,1.53-1,2.28-1.52a1.74,1.74,0,0,1,1.87-.11,2.85,2.85,0,0,1,1.51,2.49c.21,1.92.41,3.85.61,5.77H102" transform="translate(0)"/><path class="cls-1" d="M43.51.55a6.2,6.2,0,0,1,3.36,1.22A.66.66,0,0,1,47,2.86a3.66,3.66,0,0,1-1.19.76q-5.19,1.82-10.4,3.56a2,2,0,0,1-1.06,0,4.33,4.33,0,0,1-2.46-1.71,1.09,1.09,0,0,1,0-1.41A2.86,2.86,0,0,1,33.65,3L43,.63c.18,0,.36-.05.55-.08" transform="translate(0)"/><path class="cls-1" d="M58.57,103a6.23,6.23,0,0,1-3.39-1.24.66.66,0,0,1-.1-1.08,3.33,3.33,0,0,1,1.16-.74q5.2-1.83,10.44-3.58a1.87,1.87,0,0,1,1,0A4.33,4.33,0,0,1,70.19,98a1.09,1.09,0,0,1,0,1.41,3,3,0,0,1-1.75,1.1l-9.23,2.31-.6.12" transform="translate(0)"/><path class="cls-1" d="M74.52,97.81a3.34,3.34,0,0,1-2.74-1.89,2,2,0,0,1,.12-1.16,2.75,2.75,0,0,1,1.34-1.35l9.44-5.19a1.76,1.76,0,0,1,2.41.69,1.17,1.17,0,0,1,0,1.16,5,5,0,0,1-1.77,2.06q-4,2.69-8,5.34a4.86,4.86,0,0,1-.77.34" transform="translate(0)"/><path class="cls-1" d="M18.73,15.51A1.87,1.87,0,0,1,17,14.62a1.23,1.23,0,0,1,.11-1.51,8.1,8.1,0,0,1,1.65-1.75c2.62-1.81,5.3-3.55,8-5.32a1.66,1.66,0,0,1,1.46-.23,3.6,3.6,0,0,1,2,1.47,1.38,1.38,0,0,1,0,1.45,3.2,3.2,0,0,1-1.35,1.35l-9.45,5.19a3.29,3.29,0,0,1-.64.24" transform="translate(0)"/><path class="cls-1" d="M78.47,10.11A12.08,12.08,0,0,1,73.93,9a2.42,2.42,0,0,1-.75-.56c-1-1.06-2-2.14-3-3.23-.22-.24-.59-.52-.35-.88s.64-.1.94,0,.85.43,1.27.66l6.18,3.38a3.94,3.94,0,0,1,.9.66.8.8,0,0,1,.24.66c-.09.18-.41.27-.63.38a.61.61,0,0,1-.27,0" transform="translate(0)"/><path class="cls-1" d="M101.54,59.76c-.07.45-.11.76-.18,1.07q-.93,3.86-1.89,7.71a4.12,4.12,0,0,1-.36,1,.52.52,0,0,1-.41.26c-.13,0-.28-.21-.32-.37a3.87,3.87,0,0,1-.13-.84c-.12-1.36-.26-2.71-.33-4.07a3.75,3.75,0,0,1,.24-1.36,12.39,12.39,0,0,1,2-3.54,1.22,1.22,0,0,1,.15-.17c.24-.22.51-.55.84-.33s.3.51.39.68" transform="translate(0)"/><path class="cls-1" d="M86.77,87.63a5.44,5.44,0,0,1,1.76-3.29c1.14-.92,2.33-1.79,3.5-2.66.24-.18.53-.5.81-.22.1.1,0,.58-.21.78-1.06,1.37-2.14,2.71-3.23,4a18.73,18.73,0,0,1-1.26,1.4,2.16,2.16,0,0,1-.75.47c-.34.14-.59-.05-.62-.52" transform="translate(0)"/></svg>