<?xml version="1.0" encoding="utf-8"?>
<!-- Generator: Adobe Illustrator 16.0.4, SVG Export Plug-In . SVG Version: 6.00 Build 0)  -->
<!DOCTYPE svg PUBLIC "-//W3C//DTD SVG 1.1//EN" "http://www.w3.org/Graphics/SVG/1.1/DTD/svg11.dtd">
<svg version="1.1" id="Layer_1" xmlns="http://www.w3.org/2000/svg" xmlns:xlink="http://www.w3.org/1999/xlink" x="0px" y="0px"
	 width="283.352px" height="102.947px" viewBox="0 0 283.352 102.947" enable-background="new 0 0 283.352 102.947"
	 xml:space="preserve">
<g>
	<g>
		<g>
			<path fill="#19458D" d="M50.662,0c0.775,0.06,1.551,0.121,2.326,0.175c1.151,0.075,2.308,0.121,3.453,0.231
				c0.29,0.028,0.783,0.229,0.794,0.385c0.041,0.434-0.44,0.403-0.732,0.46c-1.469,0.291-2.938,0.607-4.422,0.805
				c-1.249,0.164-2.397-0.265-3.441-0.94c-0.421-0.274-0.36-0.637,0.095-0.856c0.159-0.072,0.326-0.132,0.489-0.197
				C49.703,0.041,50.183,0.021,50.662,0"/>
			<path fill="#E53D2F" d="M74.505,50.33c-0.021,1.276-0.464,2.183-1.497,2.675c-4.646,2.221-9.302,4.422-13.966,6.612
				c-1.338,0.629-2.722,0.058-3.337-1.342c-1.697-3.834-3.385-7.672-5.074-11.51c-0.417-0.943-0.844-1.887-1.259-2.832
				c-0.658-1.493-0.106-2.869,1.403-3.49c4.609-1.903,9.217-3.801,13.829-5.7c1.646-0.678,3.068-0.159,3.791,1.463
				c1.963,4.386,3.893,8.787,5.823,13.188C74.367,49.731,74.437,50.105,74.505,50.33"/>
			<path fill="#19458D" d="M55.359,16.271c1.353,0.05,2.385,0.498,3.027,1.621c2.083,3.622,4.161,7.249,6.231,10.879
				c0.757,1.33,0.295,2.665-1.123,3.238c-4.704,1.903-9.412,3.8-14.122,5.688c-1.396,0.559-2.779-0.013-3.403-1.385
				c-1.806-3.983-3.606-7.966-5.399-11.953c-0.658-1.459-0.076-2.833,1.416-3.369c4.157-1.497,8.312-2.99,12.471-4.477
				C54.778,16.396,55.118,16.333,55.359,16.271"/>
			<path fill="#19458D" d="M46.683,87.222c-1.365-0.056-2.388-0.52-3.031-1.639c-2.071-3.612-4.144-7.224-6.206-10.838
				c-0.773-1.361-0.314-2.688,1.129-3.27c4.691-1.898,9.386-3.785,14.081-5.67c1.42-0.566,2.796-0.003,3.434,1.399
				c1.799,3.969,3.592,7.939,5.381,11.911c0.671,1.484,0.097,2.847-1.428,3.396c-4.142,1.491-8.282,2.98-12.426,4.462
				C47.281,87.094,46.926,87.162,46.683,87.222"/>
			<path fill="#19458D" d="M43.289,38.484c-0.021,1.276-0.544,2.105-1.598,2.612c-4.02,1.938-8.034,3.882-12.053,5.82
				c-0.539,0.264-1.072,0.532-1.616,0.78c-1.338,0.615-2.641,0.068-3.093-1.33c-1.306-4.015-2.6-8.033-3.88-12.054
				c-0.446-1.396,0.223-2.998,1.524-3.691c3.964-2.119,7.931-4.226,11.903-6.321c1.313-0.692,2.744-0.189,3.335,1.173
				c1.756,4.053,3.494,8.111,5.232,12.171C43.172,37.942,43.229,38.271,43.289,38.484"/>
			<path fill="#19458D" d="M58.76,65.019c0.033-1.312,0.568-2.129,1.621-2.636c3.536-1.698,7.063-3.41,10.597-5.114
				c0.985-0.478,1.966-0.957,2.954-1.427c1.455-0.691,2.74-0.146,3.237,1.391c1.271,3.946,2.537,7.896,3.801,11.845
				c0.48,1.502-0.162,3.091-1.551,3.833c-3.926,2.086-7.855,4.171-11.787,6.253c-1.382,0.729-2.804,0.226-3.423-1.206
				c-1.728-4.001-3.448-8.001-5.162-12.008C58.901,65.61,58.826,65.238,58.76,65.019"/>
			<path fill="#19458D" d="M82.319,28.381c1.286,0.026,2.244,0.485,2.799,1.557c1.887,3.649,3.54,7.404,4.968,11.255
				c0.503,1.358-0.062,2.858-1.337,3.552c-2.961,1.611-5.925,3.21-8.9,4.798c-1.305,0.695-2.665,0.195-3.214-1.178
				c-1.793-4.494-3.742-8.918-5.855-13.271c-0.668-1.378-0.101-2.693,1.356-3.212c3.13-1.109,6.266-2.212,9.404-3.31
				C81.819,28.472,82.119,28.429,82.319,28.381"/>
			<path fill="#19458D" d="M19.743,75.112c-1.309-0.023-2.268-0.498-2.827-1.589c-1.872-3.64-3.527-7.377-4.947-11.213
				c-0.503-1.36,0.049-2.857,1.326-3.556c2.958-1.611,5.926-3.212,8.896-4.798c1.307-0.698,2.672-0.205,3.22,1.161
				c1.795,4.496,3.74,8.922,5.856,13.274c0.67,1.378,0.107,2.699-1.344,3.214c-3.132,1.111-6.268,2.216-9.405,3.313
				C20.24,75.02,19.942,75.064,19.743,75.112"/>
			<path fill="#19458D" d="M71.857,12.42c1.442,0.072,2.682,0.568,3.521,1.817c1.995,2.973,3.983,5.951,5.95,8.945
				c0.229,0.347,0.394,0.783,0.442,1.196c0.104,0.837-0.4,1.562-1.267,1.847c-3.314,1.088-6.63,2.17-9.958,3.22
				c-1.325,0.417-2.72-0.202-3.458-1.453c-2.117-3.584-4.23-7.176-6.343-10.763c-0.015-0.025-0.032-0.052-0.046-0.074
				c-0.702-1.246-0.179-2.439,1.227-2.739c1.332-0.287,2.671-0.547,4.007-0.818c1.747-0.355,3.494-0.716,5.24-1.069
				C71.395,12.483,71.616,12.458,71.857,12.42"/>
			<path fill="#19458D" d="M95.257,59.77c-0.072,1.399-0.511,2.605-1.664,3.455c-2.513,1.846-5.034,3.684-7.558,5.511
				c-0.262,0.188-0.562,0.365-0.871,0.446c-0.973,0.259-1.767-0.258-2.099-1.335c-0.633-2.046-1.259-4.093-1.887-6.141
				c-0.602-1.963-1.207-3.922-1.801-5.886c-0.435-1.426,0.12-2.85,1.408-3.594c2.922-1.68,5.847-3.354,8.778-5.02
				c1.298-0.736,2.585-0.198,2.941,1.224c0.885,3.562,1.764,7.125,2.641,10.69C95.198,59.339,95.223,59.562,95.257,59.77"/>
			<path fill="#19458D" d="M47.191,4.718c1.396,0.046,2.499,0.478,3.286,1.562c1.229,1.7,2.461,3.399,3.688,5.102
				c0.94,1.311,0.567,2.51-0.945,3.036c-4.126,1.446-8.254,2.893-12.382,4.334c-1.498,0.524-2.842-0.04-3.511-1.47
				c-0.86-1.847-1.72-3.693-2.57-5.542c-0.709-1.545-0.132-2.879,1.476-3.425c3.363-1.133,6.728-2.267,10.093-3.393
				C46.633,4.821,46.961,4.771,47.191,4.718"/>
			<path fill="#19458D" d="M81.091,74.86c0.877,0.025,1.575,0.562,1.778,1.494c0.437,1.993,0.811,3.998,1.264,5.982
				c0.229,1.004,0.223,1.955-0.248,2.885c-0.339,0.674-0.826,1.202-1.493,1.569c-3.078,1.707-6.148,3.427-9.228,5.136
				c-1.543,0.857-2.9,0.383-3.582-1.237c-0.774-1.849-1.553-3.702-2.324-5.553c-0.624-1.494-0.152-2.86,1.261-3.625
				c3.858-2.093,7.716-4.186,11.578-6.264C80.408,75.081,80.76,74.988,81.091,74.86"/>
			<path fill="#19458D" d="M96.573,70.149c0.062,1.512,0.125,3.022,0.19,4.533c0.03,0.684-0.175,1.227-0.73,1.68
				c-2.539,2.084-5.037,4.216-7.582,6.287c-1.072,0.876-2.184,0.412-2.446-0.976c-0.385-2.019-0.721-4.043-1.11-6.059
				c-0.182-0.947-0.231-1.866,0.156-2.779c0.281-0.661,0.686-1.222,1.259-1.663c2.543-1.958,5.082-3.917,7.623-5.875
				c0.093-0.072,0.19-0.146,0.291-0.212c0.933-0.584,1.853-0.198,1.992,0.896c0.152,1.201,0.218,2.42,0.319,3.629
				c0.015,0.176,0.016,0.359,0.021,0.538H96.573L96.573,70.149z"/>
			<path fill="#19458D" d="M59.872,12.62c-1.305-0.015-2.453-0.466-3.293-1.555c-1.362-1.767-2.712-3.548-4.059-5.33
				c-0.917-1.212-0.438-2.312,1.078-2.534c2.611-0.381,5.216-0.787,7.829-1.146c0.844-0.117,1.704-0.146,2.558-0.155
				c0.235-0.003,0.53,0.142,0.702,0.312c1.383,1.374,2.747,2.766,4.106,4.158c0.597,0.611,1.176,1.243,1.76,1.867
				c0.152,0.164,0.312,0.328,0.439,0.51c0.653,0.918,0.306,1.839-0.804,2.062c-1.248,0.252-2.505,0.461-3.758,0.684
				c-1.962,0.351-3.922,0.7-5.886,1.045C60.337,12.573,60.127,12.59,59.872,12.62"/>
			<path fill="#19458D" d="M17.283,29.026c-0.045,1.243-0.453,2.374-1.496,3.188c-2.592,2.018-5.193,4.02-7.802,6.019
				c-1.03,0.787-2.042,0.376-2.144-0.906C5.634,34.695,5.48,32.06,5.32,29.427c-0.024-0.401-0.02-0.819,0.065-1.211
				c0.059-0.28,0.21-0.604,0.424-0.789c2.166-1.851,4.352-3.677,6.532-5.51c0.426-0.357,0.847-0.718,1.293-1.05
				c1.067-0.796,2.115-0.371,2.354,0.945c0.414,2.253,0.828,4.509,1.239,6.765C17.253,28.708,17.263,28.844,17.283,29.026"/>
			<path fill="#19458D" d="M93.967,41.519c-0.908-0.034-1.623-0.521-1.99-1.425c-0.557-1.373-1.055-2.771-1.66-4.125
				c-0.98-2.197-2.021-4.372-3.051-6.551c-0.325-0.689-0.425-1.369-0.057-2.065c0.259-0.49,0.667-0.818,1.184-0.978
				c0.999-0.311,2.002-0.619,3.018-0.88c1.274-0.334,2.731,0.271,3.344,1.444c1.545,2.959,2.89,6.018,4.041,9.153
				c0.46,1.253-0.091,2.753-1.217,3.479c-0.856,0.551-1.729,1.078-2.612,1.584C94.663,41.328,94.302,41.4,93.967,41.519"/>
			<path fill="#19458D" d="M86.627,24.424c-1.239-0.041-2.293-0.487-3.015-1.558c-1.977-2.932-3.949-5.87-5.921-8.805
				c-0.417-0.624-0.384-1.099,0.199-1.577c1.081-0.891,2.3-1.332,3.716-0.949c1.135,0.305,2.142,0.828,2.976,1.681
				c1.236,1.269,2.494,2.513,3.753,3.757c1.387,1.37,2.46,2.977,3.517,4.595c0.292,0.447,0.248,0.895-0.171,1.254
				c-0.324,0.272-0.708,0.523-1.111,0.643c-1.193,0.346-2.405,0.618-3.612,0.918C86.854,24.406,86.748,24.41,86.627,24.424"/>
			<path fill="#19458D" d="M15.41,79.073c1.238,0.034,2.29,0.464,3.001,1.518c2.007,2.966,4.001,5.941,5.996,8.915
				c0.38,0.566,0.312,1.06-0.277,1.53c-1.08,0.866-2.288,1.301-3.684,0.923c-1.134-0.309-2.143-0.826-2.976-1.68
				c-1.245-1.279-2.517-2.53-3.784-3.789c-1.373-1.361-2.438-2.958-3.485-4.562c-0.286-0.438-0.259-0.867,0.141-1.217
				c0.329-0.291,0.727-0.558,1.139-0.679c1.179-0.346,2.377-0.614,3.568-0.91C15.165,79.094,15.287,79.086,15.41,79.073"/>
			<path fill="#19458D" d="M7.861,57.058c-0.03,1.315-0.489,2.354-1.557,3.077c-0.719,0.485-1.446,0.966-2.169,1.445
				c-1.24,0.826-2.995,0.191-3.276-1.293c-0.312-1.625-0.505-3.282-0.652-4.931C0.065,53.775,0.017,52.185,0,50.596
				c-0.007-0.581,0.103-1.201,0.324-1.734c0.559-1.353,1.38-2.551,2.33-3.664c0.066-0.078,0.142-0.156,0.217-0.227
				c0.854-0.812,1.847-0.599,2.198,0.529c0.308,0.986,0.518,1.999,0.762,3.002c0.638,2.616,1.274,5.236,1.906,7.855
				C7.8,56.602,7.827,56.856,7.861,57.058"/>
			<path fill="#19458D" d="M101.945,49.976c0.042,0.99,0.123,1.979,0.108,2.966c-0.005,0.526-0.085,1.086-0.28,1.567
				c-0.565,1.418-1.423,2.67-2.415,3.825c-0.019,0.021-0.039,0.042-0.06,0.066c-0.379,0.391-0.798,0.718-1.381,0.574
				c-0.616-0.149-0.875-0.652-1.021-1.203c-0.243-0.932-0.458-1.864-0.685-2.795c-0.63-2.606-1.259-5.214-1.899-7.817
				c-0.363-1.484,0.189-2.96,1.458-3.816c0.759-0.512,1.53-1.001,2.279-1.525c0.611-0.427,1.221-0.411,1.866-0.103
				c1.047,0.5,1.395,1.431,1.513,2.488c0.213,1.92,0.408,3.844,0.612,5.764C102.009,49.969,101.977,49.974,101.945,49.976"/>
			<path fill="#19458D" d="M43.513,0.547c1.234,0.073,2.354,0.497,3.354,1.229c0.404,0.296,0.47,0.745,0.105,1.083
				c-0.341,0.316-0.759,0.604-1.195,0.759c-3.459,1.211-6.928,2.396-10.4,3.561c-0.321,0.111-0.725,0.102-1.056,0.021
				c-1.027-0.252-1.83-0.872-2.462-1.708c-0.337-0.447-0.313-0.926,0.036-1.415c0.432-0.603,1.057-0.921,1.752-1.1
				c3.105-0.785,6.211-1.562,9.317-2.342C43.14,0.591,43.32,0.577,43.513,0.547"/>
			<path fill="#19458D" d="M58.571,102.947c-1.267-0.079-2.389-0.498-3.388-1.234c-0.4-0.297-0.462-0.741-0.1-1.083
				c0.33-0.312,0.731-0.596,1.152-0.741c3.472-1.217,6.955-2.407,10.442-3.576c0.321-0.107,0.722-0.098,1.057-0.014
				c1.028,0.249,1.829,0.87,2.459,1.709c0.336,0.443,0.311,0.926-0.042,1.411c-0.434,0.604-1.055,0.923-1.753,1.1
				c-3.074,0.775-6.151,1.546-9.229,2.314C58.967,102.881,58.761,102.913,58.571,102.947"/>
			<path fill="#19458D" d="M74.525,97.809c-1.001-0.009-2.467-0.941-2.74-1.889c-0.101-0.349-0.018-0.803,0.12-1.155
				c0.239-0.624,0.76-1.033,1.335-1.352c3.145-1.738,6.294-3.468,9.445-5.196c0.88-0.482,1.896-0.179,2.405,0.689
				c0.228,0.389,0.195,0.776,0.019,1.165c-0.392,0.852-0.999,1.539-1.769,2.055c-2.674,1.793-5.361,3.568-8.052,5.341
				C75.061,97.62,74.78,97.698,74.525,97.809"/>
			<path fill="#19458D" d="M18.735,15.515c-0.826,0.005-1.355-0.319-1.739-0.892c-0.354-0.527-0.22-1.077,0.118-1.511
				c0.493-0.632,0.998-1.308,1.643-1.753c2.623-1.815,5.304-3.545,7.958-5.317c0.459-0.309,0.938-0.386,1.453-0.229
				c0.836,0.244,1.492,0.746,1.98,1.465c0.322,0.476,0.254,0.966,0.02,1.453c-0.294,0.603-0.772,1.026-1.349,1.345
				c-3.145,1.734-6.293,3.465-9.443,5.192C19.143,15.395,18.879,15.459,18.735,15.515"/>
			<path fill="#19458D" d="M78.472,10.11c-1.578-0.113-3.115-0.406-4.545-1.106c-0.275-0.134-0.537-0.336-0.75-0.561
				c-1.008-1.066-2-2.146-2.986-3.233c-0.223-0.242-0.59-0.523-0.353-0.878c0.244-0.363,0.641-0.104,0.938,0.022
				c0.44,0.185,0.856,0.426,1.277,0.656c2.062,1.122,4.126,2.246,6.18,3.384c0.324,0.177,0.643,0.396,0.899,0.657
				c0.154,0.161,0.305,0.497,0.236,0.654c-0.087,0.188-0.405,0.275-0.631,0.388C78.665,10.129,78.562,10.105,78.472,10.11"/>
			<path fill="#19458D" d="M101.542,59.764c-0.075,0.442-0.11,0.758-0.184,1.062c-0.624,2.572-1.249,5.146-1.886,7.716
				c-0.081,0.33-0.207,0.658-0.364,0.959c-0.067,0.131-0.283,0.283-0.406,0.263c-0.129-0.019-0.279-0.218-0.322-0.369
				c-0.084-0.271-0.108-0.56-0.133-0.843c-0.12-1.357-0.26-2.716-0.329-4.076c-0.023-0.446,0.093-0.926,0.24-1.355
				c0.449-1.298,1.158-2.462,2.001-3.542c0.047-0.06,0.093-0.118,0.146-0.168c0.244-0.22,0.513-0.545,0.845-0.328
				C101.369,59.229,101.447,59.585,101.542,59.764"/>
			<path fill="#19458D" d="M86.773,87.631c0.242-1.203,0.689-2.423,1.753-3.288c1.145-0.92,2.33-1.788,3.507-2.663
				c0.235-0.18,0.525-0.502,0.808-0.219c0.099,0.101-0.051,0.577-0.212,0.781c-1.055,1.363-2.14,2.703-3.229,4.037
				c-0.395,0.485-0.814,0.96-1.256,1.4c-0.207,0.206-0.482,0.358-0.755,0.472C87.046,88.294,86.8,88.103,86.773,87.631"/>
			<path fill="#19458D" d="M150.773,38.107l-2.33,5.608c-0.172,0.498-0.527,1.398-1.089,2.763l-0.555,1.41L128.366,2.993h-11.6
				v54.92h7.381l-0.002-46.075l19.263,46.075h6.938l18.424-44.736l0.755-1.855v46.592h7.384V2.993h-11.757L150.773,38.107z"/>
		</g>
		<path fill="#19458D" d="M204.074,2.991l-20.12,54.922h7.825l4.121-11.341h26.189l4.162,11.341h7.75L213.482,2.991H204.074z
			 M198.111,40.677l10.793-30.102l10.935,30.102H198.111z"/>
		<g>
			<path fill="#19458D" d="M279.135,6.699c-2.349-2.495-6.552-3.705-12.849-3.705h-25.204v54.922h7.384V36.797l14.81-0.003
				l2.345-0.038c6.548,0,10.918-1.151,13.357-3.524c2.449-2.376,3.64-6.631,3.64-13.005C282.616,13.603,281.481,9.177,279.135,6.699
				 M273.254,28.638c-1.563,1.139-5.306,1.717-11.131,1.717h-13.657V9.434h15.57l2.325,0.041c5.031,0,6.907,0.986,7.596,1.815
				c0.708,0.855,1.553,3.183,1.553,9.408C275.51,24.876,274.751,27.547,273.254,28.638"/>
		</g>
		<path fill="#19458D" d="M134.194,94.83h-14.347l-2.07,6.381h-6.673l11.06-33.247h9.473l11.228,33.247h-6.55L134.194,94.83z
			 M132.732,90.18l-5.747-17.32l-5.65,17.32H132.732z"/>
		<path fill="#19458D" d="M134.194,94.83h-14.347l-2.07,6.381h-6.673l11.06-33.247h9.473l11.228,33.247h-6.55L134.194,94.83z
			 M132.732,90.18l-5.747-17.32l-5.65,17.32H132.732z"/>
		<g>
			<path fill="#19458D" d="M167.269,89.351h6.334v1.143c0,4.63-0.842,7.622-2.532,8.978c-1.688,1.354-5.425,2.033-11.205,2.033
				c-6.562,0-10.594-1.071-12.106-3.216c-1.507-2.142-2.264-7.874-2.264-17.194c0-5.489,1.022-9.1,3.066-10.827
				c2.048-1.73,6.327-2.594,12.838-2.594c4.742,0,7.908,0.71,9.5,2.132c1.589,1.418,2.389,4.241,2.389,8.461l0.021,0.757h-6.332
				v-0.853c0-2.176-0.409-3.567-1.229-4.177c-0.819-0.61-2.693-0.915-5.617-0.915c-3.911,0-6.261,0.479-7.049,1.438
				c-0.788,0.959-1.182,3.799-1.182,8.525c0,6.363,0.353,10.133,1.06,11.303c0.709,1.167,2.993,1.755,6.857,1.755
				c3.133,0,5.166-0.328,6.101-0.976c0.934-0.646,1.399-2.079,1.399-4.289L167.269,89.351z"/>
			<path fill="#19458D" d="M167.269,89.351h6.334v1.143c0,4.63-0.842,7.622-2.532,8.978c-1.688,1.354-5.425,2.033-11.205,2.033
				c-6.562,0-10.594-1.071-12.106-3.216c-1.507-2.142-2.264-7.874-2.264-17.194c0-5.489,1.022-9.1,3.066-10.827
				c2.048-1.73,6.327-2.594,12.838-2.594c4.742,0,7.908,0.71,9.5,2.132c1.589,1.418,2.389,4.241,2.389,8.461l0.021,0.757h-6.332
				v-0.853c0-2.176-0.409-3.567-1.229-4.177c-0.819-0.61-2.693-0.915-5.617-0.915c-3.911,0-6.261,0.479-7.049,1.438
				c-0.788,0.959-1.182,3.799-1.182,8.525c0,6.363,0.353,10.133,1.06,11.303c0.709,1.167,2.993,1.755,6.857,1.755
				c3.133,0,5.166-0.328,6.101-0.976c0.934-0.646,1.399-2.079,1.399-4.289L167.269,89.351z"/>
		</g>
		<polygon fill="#19458D" points="191.82,73.618 191.82,101.211 185.512,101.211 185.512,73.618 175.916,73.618 175.916,67.965 
			201.759,67.965 201.759,73.618 		"/>
		<polygon fill="#19458D" points="191.82,73.618 191.82,101.211 185.512,101.211 185.512,73.618 175.916,73.618 175.916,67.965 
			201.759,67.965 201.759,73.618 		"/>
		<rect x="205.948" y="67.965" fill="#19458D" width="6.306" height="33.247"/>
		<rect x="205.948" y="67.965" fill="#19458D" width="6.306" height="33.247"/>
		<g>
			<path fill="#19458D" d="M232.958,67.674c6.038,0,9.929,1.002,11.667,3.008c1.737,2.005,2.604,6.491,2.604,13.458
				c0,7.615-0.874,12.411-2.619,14.394s-5.97,2.973-12.677,2.973c-6.04,0-9.948-0.979-11.719-2.936
				c-1.766-1.958-2.65-6.264-2.65-12.92c0-7.925,0.865-12.905,2.604-14.932C221.907,68.688,226.171,67.674,232.958,67.674
				 M232.47,73.08c-4.239,0-6.714,0.542-7.43,1.633c-0.715,1.086-1.069,4.856-1.069,11.301c0,4.773,0.417,7.647,1.255,8.623
				c0.835,0.975,3.298,1.463,7.39,1.463c3.915,0,6.264-0.551,7.041-1.646c0.78-1.096,1.169-4.42,1.169-9.976
				c0-5.569-0.371-8.859-1.108-9.874C238.977,73.586,236.562,73.08,232.47,73.08"/>
			<path fill="#19458D" d="M232.958,67.674c6.038,0,9.929,1.002,11.667,3.008c1.737,2.005,2.604,6.491,2.604,13.458
				c0,7.615-0.874,12.411-2.619,14.394s-5.97,2.973-12.677,2.973c-6.04,0-9.948-0.979-11.719-2.936
				c-1.766-1.958-2.65-6.264-2.65-12.92c0-7.925,0.865-12.905,2.604-14.932C221.907,68.688,226.171,67.674,232.958,67.674
				 M232.47,73.08c-4.239,0-6.714,0.542-7.43,1.633c-0.715,1.086-1.069,4.856-1.069,11.301c0,4.773,0.417,7.647,1.255,8.623
				c0.835,0.975,3.298,1.463,7.39,1.463c3.915,0,6.264-0.551,7.041-1.646c0.78-1.096,1.169-4.42,1.169-9.976
				c0-5.569-0.371-8.859-1.108-9.874C238.977,73.586,236.562,73.08,232.47,73.08"/>
			<path fill="#19458D" d="M283.352,67.965v33.247h-10.692l-9.497-18.241c-0.474-0.907-1.213-2.504-2.22-4.774l-1.069-2.389
				l-1.047-2.387h-0.244l0.096,2.192l0.076,2.168l0.045,4.36v19.069h-6.309V67.965h10.695l8.646,16.858
				c0.762,1.491,1.647,3.301,2.653,5.427l1.267,2.703l1.269,2.729h0.219l-0.073-2.144l-0.07-2.144l-0.05-4.287V67.965H283.352z"/>
			<path fill="#19458D" d="M283.352,67.965v33.247h-10.692l-9.497-18.241c-0.474-0.907-1.213-2.504-2.22-4.774l-1.069-2.389
				l-1.047-2.387h-0.244l0.096,2.192l0.076,2.168l0.045,4.36v19.069h-6.309V67.965h10.695l8.646,16.858
				c0.762,1.491,1.647,3.301,2.653,5.427l1.267,2.703l1.269,2.729h0.219l-0.073-2.144l-0.07-2.144l-0.05-4.287V67.965H283.352z"/>
		</g>
	</g>
</g>
</svg>
