
<svg version="1.1" xmlns="http://www.w3.org/2000/svg" width="100" height="100" viewBox="0 0 100 100">
<title>abduction-kidnapping</title>
<path fill="param(fill) #000" stroke="param(outline) #000" stroke-width="param(outline-width) 1" d="M93.75 0c-3.443 0.022-6.228 2.807-6.25 6.248v33.335l-10.013 10.093c-0.347 0.647-1.019 1.079-1.791 1.079-0.62 0-1.175-0.279-1.547-0.717l-0.002-0.003c-0.458-0.469-0.741-1.111-0.741-1.82s0.283-1.35 0.741-1.82l-0 0 8.449-8.597c0.787-0.806 1.272-1.909 1.272-3.125s-0.485-2.319-1.273-3.126l0.001 0.001c-0.78-0.799-1.868-1.295-3.071-1.295s-2.291 0.496-3.071 1.294l-0.001 0.001-16.391 16.677c-2.35 2.401-3.801 5.691-3.801 9.319 0 0.277 0.008 0.552 0.025 0.825l-0.002-0.038h-0.035v14.583h-12.5v-14.583h-0.035c0.015-0.235 0.023-0.511 0.023-0.788 0-3.629-1.45-6.918-3.803-9.322l0.002 0.002-16.391-16.677c-0.78-0.799-1.868-1.295-3.071-1.295s-2.291 0.496-3.071 1.294l-0.001 0.001c-0.787 0.806-1.272 1.909-1.272 3.125s0.485 2.319 1.273 3.126l-0.001-0.001 8.449 8.597c0.458 0.469 0.741 1.111 0.741 1.82s-0.283 1.35-0.741 1.82l0-0c-0.454 0.466-1.088 0.754-1.789 0.754s-1.334-0.288-1.788-0.753l-0-0-9.776-10.452v-33.333c-0.022-3.443-2.807-6.228-6.248-6.25h-0.002c-3.443 0.022-6.228 2.807-6.25 6.248v36.25c0 0.003 0 0.006 0 0.009 0 1.72 0.688 3.278 1.804 4.416l-0.001-0.001 23.197 23.562v2.433c-2.301 0-4.167 1.866-4.167 4.167s1.866 4.167 4.167 4.167v0 6.25c-2.301 0-4.167 1.866-4.167 4.167s1.866 4.167 4.167 4.167v0 4.167h18.75v-4.167h12.5v4.167h18.75v-4.167c2.301 0 4.167-1.866 4.167-4.167s-1.866-4.167-4.167-4.167v0-6.25c2.301 0 4.167-1.866 4.167-4.167s-1.866-4.167-4.167-4.167v0-2.432l4.392-4.468 18.804-19.095c1.115-1.137 1.803-2.695 1.803-4.415 0-0.003 0-0.006 0-0.010v0-36.248c-0.022-3.443-2.807-6.228-6.248-6.25h-0.002zM56.25 87.5h-12.5v-6.25h12.5z"></path>
</svg>
