
<svg version="1.1" xmlns="http://www.w3.org/2000/svg" width="100" height="100" viewBox="0 0 100 100">
<title>about</title>
<path fill="param(fill) #000" stroke="param(outline) #000" stroke-width="param(outline-width) 1" d="M90.476 0h-80.952c-0 0-0 0-0 0-5.26 0-9.524 4.264-9.524 9.524 0 0 0 0 0 0v0 80.952c0 5.26 4.264 9.524 9.524 9.524v0h80.952c5.26 0 9.524-4.264 9.524-9.524v0-80.952c0-0 0-0 0-0 0-5.26-4.264-9.524-9.524-9.524-0 0-0 0-0 0v0zM57.143 83.333h-9.524c-2.63-0-4.762-2.132-4.762-4.762v0-35.714h9.524c2.63 0 4.762 2.132 4.762 4.762v0zM50 30.952c-3.945 0-7.143-3.198-7.143-7.143s3.198-7.143 7.143-7.143c3.945 0 7.143 3.198 7.143 7.143v0c0 3.945-3.198 7.143-7.143 7.143v0z"></path>
</svg>
