
<svg version="1.1" xmlns="http://www.w3.org/2000/svg" width="109" height="100" viewBox="0 0 109 100">
<title>add-document</title>
<path fill="param(fill) #000" stroke="param(outline) #000" stroke-width="param(outline-width) 1" d="M106.955 0h-63.909c-1.189 0.040-2.137 1.014-2.137 2.208 0 0.023 0 0.045 0.001 0.067l-0-0.003v56.818h13.636c6.276 0 11.364 5.088 11.364 11.364s-5.088 11.364-11.364 11.364v0h-13.636v11.364c-0.001 0.019-0.001 0.042-0.001 0.064 0 1.195 0.948 2.168 2.134 2.208l0.004 0h45.591v-14.136c0.009-3.486 2.832-6.309 6.317-6.318h14.137v-72.727c0.001-0.019 0.001-0.042 0.001-0.064 0-1.195-0.948-2.168-2.134-2.208l-0.004-0zM95.455 52.273h-40.909c-1.255 0-2.273-1.018-2.273-2.273s1.018-2.273 2.273-2.273v0h40.909c1.255 0 2.273 1.018 2.273 2.273s-1.018 2.273-2.273 2.273v0zM95.455 38.636h-40.909c-1.255 0-2.273-1.018-2.273-2.273s1.018-2.273 2.273-2.273v0h40.909c1.255 0 2.273 1.018 2.273 2.273s-1.018 2.273-2.273 2.273v0zM95.455 25h-40.909c-1.255 0-2.273-1.018-2.273-2.273s1.018-2.273 2.273-2.273v0h40.909c1.255 0 2.273 1.018 2.273 2.273s-1.018 2.273-2.273 2.273v0z"></path>
<path fill="param(fill) #000" stroke="param(outline) #000" stroke-width="param(outline-width) 1" d="M94.955 79.545c-0.979 0.001-1.771 0.794-1.773 1.773v14.136l15.909-15.909h-14.136z"></path>
<path fill="param(fill) #000" stroke="param(outline) #000" stroke-width="param(outline-width) 1" d="M54.545 65.909h-20.455v-20.455c0-2.51-2.035-4.545-4.545-4.545s-4.545 2.035-4.545 4.545v0 20.455h-20.455c-2.51 0-4.545 2.035-4.545 4.545s2.035 4.545 4.545 4.545v0h20.455v20.455c0 2.51 2.035 4.545 4.545 4.545s4.545-2.035 4.545-4.545v0-20.455h20.455c2.51 0 4.545-2.035 4.545-4.545s-2.035-4.545-4.545-4.545v0z"></path>
</svg>
