
<svg version="1.1" xmlns="http://www.w3.org/2000/svg" width="100" height="100" viewBox="0 0 100 100">
<title>add</title>
<path fill="param(fill) #000" stroke="param(outline) #000" stroke-width="param(outline-width) 1" d="M91.667 41.658l-33.344 0.007-0.007-33.334c-0.001-4.601-3.731-8.331-8.333-8.331-0 0-0 0-0.001 0h-0.001c-4.602 0.001-8.332 3.731-8.332 8.333 0 0.001 0 0.001 0 0.002v-0l0.007 33.333-33.325 0.007c-4.602 0.001-8.332 3.731-8.332 8.333s3.731 8.333 8.333 8.333c0 0 0.001 0 0.001 0l33.326-0.007 0.007 33.334c0.001 4.601 3.731 8.331 8.333 8.331 0 0 0 0 0.001 0h0.002c4.601-0.001 8.331-3.731 8.331-8.333 0-0.001 0-0.002 0-0.002v0l-0.007-33.333 33.342-0.006c4.602-0.001 8.332-3.731 8.332-8.333s-3.731-8.333-8.333-8.333c-0 0-0.001 0-0.001 0h0z"></path>
</svg>
