
<svg version="1.1" xmlns="http://www.w3.org/2000/svg" width="145" height="100" viewBox="0 0 145 100">
<title>advocacy</title>
<path fill="param(fill) #000" stroke="param(outline) #000" stroke-width="param(outline-width) 1" d="M96.748 0.724l-52.668 28.024c-1.057 0.594-1.759 1.708-1.759 2.987 0 0.015 0 0.029 0 0.044v-0.002 36.447c-0 0.013-0 0.027-0 0.042 0 1.278 0.702 2.392 1.742 2.978l0.017 0.009 52.668 28.024c0.825 0.416 1.798 0.66 2.829 0.66 3.529 0 6.389-2.861 6.389-6.389 0-0.115-0.003-0.23-0.009-0.344l0.001 0.016v-86.438c0.005-0.098 0.008-0.213 0.008-0.328 0-3.529-2.861-6.389-6.389-6.389-1.030 0-2.004 0.244-2.865 0.677l0.037-0.017z"></path>
<path fill="param(fill) #000" stroke="param(outline) #000" stroke-width="param(outline-width) 1" d="M33.23 30.303h-24.137c0 0 0 0-0 0-5.022 0-9.093 4.071-9.093 9.093v0 21.209c0 5.022 4.071 9.093 9.093 9.093h2.926v19.697c0 4.184 3.392 7.576 7.576 7.576s7.576-3.392 7.576-7.576v0-19.697h6.060c1.674 0 3.031-1.357 3.031-3.031v0-33.332c0-1.674-1.357-3.031-3.031-3.031v0z"></path>
<path fill="param(fill) #000" stroke="param(outline) #000" stroke-width="param(outline-width) 1" d="M140.806 45.455h-21.212c-2.51 0-4.545 2.035-4.545 4.545s2.035 4.545 4.545 4.545v0h21.212c2.51 0 4.545-2.035 4.545-4.545s-2.035-4.545-4.545-4.545v0z"></path>
<path fill="param(fill) #000" stroke="param(outline) #000" stroke-width="param(outline-width) 1" d="M121.678 32.724l18.37-10.606c1.368-0.801 2.273-2.263 2.273-3.937 0-2.51-2.035-4.546-4.546-4.546-0.837 0-1.621 0.226-2.294 0.621l0.021-0.012-18.37 10.606c-1.368 0.801-2.273 2.263-2.273 3.937 0 2.51 2.035 4.546 4.546 4.546 0.837 0 1.621-0.226 2.294-0.621l-0.021 0.012z"></path>
<path fill="param(fill) #000" stroke="param(outline) #000" stroke-width="param(outline-width) 1" d="M140.048 77.882l-18.37-10.606c-0.652-0.383-1.436-0.609-2.273-0.609-2.51 0-4.546 2.035-4.546 4.546 0 1.674 0.904 3.136 2.251 3.925l0.021 0.012 18.37 10.606c0.652 0.383 1.436 0.609 2.273 0.609 2.51 0 4.546-2.035 4.546-4.546 0-1.674-0.904-3.136-2.251-3.925l-0.021-0.012z"></path>
</svg>
