
<svg version="1.1" xmlns="http://www.w3.org/2000/svg" width="100" height="100" viewBox="0 0 100 100">
<title>affected-population</title>
<path fill="param(fill) #000" stroke="param(outline) #000" stroke-width="param(outline-width) 1" d="M16.018 77.925l-14.813 14.979c-0.747 0.753-1.209 1.79-1.209 2.935 0 2.301 1.865 4.166 4.166 4.166 1.161 0 2.211-0.475 2.967-1.241l0-0 14.813-14.979c0.747-0.753 1.209-1.79 1.209-2.935 0-2.301-1.865-4.166-4.166-4.166-1.161 0-2.211 0.475-2.967 1.241l-0 0z"></path>
<path fill="param(fill) #000" stroke="param(outline) #000" stroke-width="param(outline-width) 1" d="M80.852 23.146c0.002 0 0.003 0 0.005 0 1.141 0 2.174-0.46 2.925-1.204l14.98-14.812c0.764-0.756 1.237-1.804 1.237-2.963 0-2.301-1.866-4.167-4.167-4.167-1.142 0-2.177 0.46-2.93 1.204l0-0-14.98 14.812c-0.764 0.756-1.237 1.804-1.237 2.963 0 2.301 1.865 4.167 4.166 4.167v0z"></path>
<path fill="param(fill) #000" stroke="param(outline) #000" stroke-width="param(outline-width) 1" d="M83.957 77.941c-0.754-0.757-1.798-1.225-2.951-1.225-2.301 0-4.166 1.865-4.166 4.166 0 1.141 0.458 2.174 1.201 2.927l-0-0 14.833 14.958c0.755 0.761 1.802 1.233 2.958 1.233 2.301 0 4.166-1.865 4.166-4.166 0-1.144-0.461-2.181-1.208-2.934l0 0z"></path>
<path fill="param(fill) #000" stroke="param(outline) #000" stroke-width="param(outline-width) 1" d="M16.19 21.959c0.753 0.747 1.789 1.208 2.934 1.208 2.301 0 4.166-1.865 4.166-4.166 0-1.157-0.471-2.203-1.232-2.958l-14.958-14.834c-0.753-0.747-1.789-1.208-2.934-1.208-2.301 0-4.166 1.865-4.166 4.166 0 1.157 0.471 2.203 1.232 2.958l0 0z"></path>
<path fill="param(fill) #000" stroke="param(outline) #000" stroke-width="param(outline-width) 1" d="M49.999 20.834c-15.44 0-27.083 10.747-27.083 25 0 2.301 1.865 4.167 4.167 4.167s4.167-1.865 4.167-4.167v0c-0.002-0.088-0.003-0.191-0.003-0.295 0-5.945 3.343-11.109 8.252-13.715l0.084-0.041v64.050c0 2.301 1.865 4.167 4.167 4.167s4.167-1.865 4.167-4.167v0-31.25h4.167v31.25c0 2.301 1.865 4.167 4.167 4.167s4.167-1.865 4.167-4.167v0-64.051c4.993 2.647 8.336 7.811 8.336 13.756 0 0.104-0.001 0.207-0.003 0.311l0-0.016c0 2.301 1.865 4.167 4.167 4.167s4.167-1.865 4.167-4.167v0c0-14.253-11.643-25-27.083-25z"></path>
<path fill="param(fill) #000" stroke="param(outline) #000" stroke-width="param(outline-width) 1" d="M58.333 8.334c0 4.602-3.731 8.333-8.333 8.333s-8.333-3.731-8.333-8.333c0-4.602 3.731-8.333 8.333-8.333s8.333 3.731 8.333 8.333z"></path>
</svg>
