
<svg version="1.1" xmlns="http://www.w3.org/2000/svg" width="88" height="100" viewBox="0 0 88 100">
<title>agile</title>
<path fill="param(fill) #000" stroke="param(outline) #000" stroke-width="param(outline-width) 1" d="M82.292 89.583c-13.255-0.086-23.967-10.851-23.967-24.118 0-0.232 0.003-0.462 0.010-0.692l-0.001 0.034v-47.034l5.711 5.711c0.943 0.947 2.248 1.532 3.689 1.532 2.876 0 5.208-2.332 5.208-5.208 0-1.442-0.586-2.746-1.532-3.689l-14.592-14.594c-0.942-0.943-2.244-1.526-3.682-1.526s-2.74 0.583-3.682 1.526l-14.594 14.594c-0.938 0.942-1.518 2.241-1.518 3.676 0 2.876 2.332 5.208 5.208 5.208 1.435 0 2.734-0.58 3.676-1.519l5.692-5.691v36.124c-6.116-5.033-14.028-8.085-22.653-8.085-0.093 0-0.185 0-0.278 0.001l0.014-0h-7.207l5.692-5.693c0.938-0.942 1.518-2.241 1.518-3.676 0-2.876-2.332-5.208-5.208-5.208-1.435 0-2.734 0.58-3.676 1.519l-14.593 14.593c-0.943 0.942-1.526 2.244-1.526 3.682s0.583 2.74 1.526 3.682l14.594 14.592c0.942 0.938 2.241 1.518 3.676 1.518 2.876 0 5.208-2.332 5.208-5.208 0-1.435-0.58-2.734-1.519-3.676l-5.711-5.711h7.227c0.168-0.004 0.365-0.007 0.564-0.007 11.007 0 20.315 7.279 23.372 17.286l0.046 0.173 0.041-0.010c3.644 15.191 17.11 26.308 33.173 26.308 0.034 0 0.068-0 0.102-0h-0.005c2.876 0 5.208-2.332 5.208-5.208s-2.332-5.208-5.208-5.208v0z"></path>
</svg>
