
<svg version="1.1" xmlns="http://www.w3.org/2000/svg" width="88" height="100" viewBox="0 0 88 100">
<title>agriculture</title>
<path fill="param(fill) #000" stroke="param(outline) #000" stroke-width="param(outline-width) 1" d="M10.417 43.75h2.083v-6.25c0-5.753-4.664-10.417-10.417-10.417v0h-2.083v6.25c0 5.753 4.664 10.417 10.417 10.417v0z"></path>
<path fill="param(fill) #000" stroke="param(outline) #000" stroke-width="param(outline-width) 1" d="M10.417 62.5h2.083v-6.25c0-5.753-4.664-10.417-10.417-10.417v0h-2.083v6.25c0 5.753 4.664 10.417 10.417 10.417v0z"></path>
<path fill="param(fill) #000" stroke="param(outline) #000" stroke-width="param(outline-width) 1" d="M12.5 75c0-5.753-4.664-10.417-10.417-10.417v0h-2.083v6.25c0 5.753 4.664 10.417 10.417 10.417v0h2.083z"></path>
<path fill="param(fill) #000" stroke="param(outline) #000" stroke-width="param(outline-width) 1" d="M18.75 37.5v6.25h2.083c5.753 0 10.417-4.664 10.417-10.417v0-6.25h-2.083c-5.753 0-10.417 4.664-10.417 10.417v0z"></path>
<path fill="param(fill) #000" stroke="param(outline) #000" stroke-width="param(outline-width) 1" d="M18.75 56.25v6.25h2.083c5.753 0 10.417-4.664 10.417-10.417v0-6.25h-2.083c-5.753 0-10.417 4.664-10.417 10.417v0z"></path>
<path fill="param(fill) #000" stroke="param(outline) #000" stroke-width="param(outline-width) 1" d="M18.75 75v6.25h2.083c5.753 0 10.417-4.664 10.417-10.417v0-6.25h-2.083c-5.753 0-10.417 4.664-10.417 10.417v0z"></path>
<path fill="param(fill) #000" stroke="param(outline) #000" stroke-width="param(outline-width) 1" d="M12.5 96.875c0 1.726 1.399 3.125 3.125 3.125s3.125-1.399 3.125-3.125v0-11.458h-6.25z"></path>
<path fill="param(fill) #000" stroke="param(outline) #000" stroke-width="param(outline-width) 1" d="M3.125 22.917c1.726 0 3.125-1.399 3.125-3.125v0-8.333c0-1.726-1.399-3.125-3.125-3.125s-3.125 1.399-3.125 3.125v0 8.333c0 1.726 1.399 3.125 3.125 3.125v0z"></path>
<path fill="param(fill) #000" stroke="param(outline) #000" stroke-width="param(outline-width) 1" d="M28.125 8.333c-1.726 0-3.125 1.399-3.125 3.125v0 8.333c0 1.726 1.399 3.125 3.125 3.125s3.125-1.399 3.125-3.125v0-8.333c0-1.726-1.399-3.125-3.125-3.125v0z"></path>
<path fill="param(fill) #000" stroke="param(outline) #000" stroke-width="param(outline-width) 1" d="M15.625 29.167c1.726 0 3.125-1.399 3.125-3.125v0-22.917c0-1.726-1.399-3.125-3.125-3.125s-3.125 1.399-3.125 3.125v0 22.917c0 1.726 1.399 3.125 3.125 3.125v0z"></path>
<path fill="param(fill) #000" stroke="param(outline) #000" stroke-width="param(outline-width) 1" d="M58.912 44.211l2.012 0.539 1.618-6.037c0.225-0.809 0.355-1.737 0.355-2.696 0-4.794-3.239-8.832-7.647-10.045l-0.073-0.017-2.012-0.539-1.618 6.037c-0.225 0.809-0.355 1.737-0.355 2.696 0 4.794 3.239 8.832 7.648 10.044l0.073 0.017z"></path>
<path fill="param(fill) #000" stroke="param(outline) #000" stroke-width="param(outline-width) 1" d="M54.059 62.322l2.012 0.539 1.618-6.037c0.225-0.809 0.355-1.737 0.355-2.696 0-4.794-3.239-8.832-7.648-10.045l-0.073-0.017-2.012-0.539-1.617 6.037c-0.225 0.809-0.355 1.737-0.355 2.696 0 4.794 3.239 8.832 7.647 10.045l0.073 0.017z"></path>
<path fill="param(fill) #000" stroke="param(outline) #000" stroke-width="param(outline-width) 1" d="M51.218 80.973l1.618-6.037c0.225-0.809 0.355-1.737 0.355-2.696 0-4.794-3.239-8.832-7.648-10.045l-0.073-0.017-2.012-0.539-1.618 6.037c-0.225 0.809-0.355 1.737-0.355 2.696 0 4.794 3.239 8.832 7.648 10.045l0.073 0.017z"></path>
<path fill="param(fill) #000" stroke="param(outline) #000" stroke-width="param(outline-width) 1" d="M68.579 40.331l-1.618 6.038 2.012 0.539c0.809 0.225 1.737 0.355 2.696 0.355 4.794 0 8.832-3.239 10.045-7.648l0.017-0.073 1.618-6.037-2.012-0.539c-0.809-0.225-1.737-0.355-2.696-0.355-4.794 0-8.832 3.239-10.044 7.647l-0.017 0.073z"></path>
<path fill="param(fill) #000" stroke="param(outline) #000" stroke-width="param(outline-width) 1" d="M63.726 58.442l-1.618 6.037 2.012 0.539c0.809 0.225 1.737 0.355 2.696 0.355 4.794 0 8.832-3.239 10.045-7.648l0.017-0.073 1.618-6.037-2.012-0.539c-0.809-0.225-1.737-0.355-2.696-0.355-4.794 0-8.832 3.239-10.044 7.647l-0.017 0.073z"></path>
<path fill="param(fill) #000" stroke="param(outline) #000" stroke-width="param(outline-width) 1" d="M58.873 76.553l-1.618 6.037 2.012 0.539c0.809 0.225 1.737 0.355 2.696 0.355 4.794 0 8.832-3.239 10.044-7.647l0.017-0.073 1.618-6.037-2.012-0.539c-0.809-0.225-1.737-0.355-2.696-0.355-4.794 0-8.832 3.239-10.045 7.647l-0.017 0.073z"></path>
<path fill="param(fill) #000" stroke="param(outline) #000" stroke-width="param(outline-width) 1" d="M47.174 96.065c-0.068 0.243-0.107 0.521-0.107 0.809 0 1.726 1.399 3.125 3.125 3.125 1.438 0 2.65-0.972 3.013-2.294l0.005-0.022 2.966-11.068-6.037-1.617z"></path>
<path fill="param(fill) #000" stroke="param(outline) #000" stroke-width="param(outline-width) 1" d="M57.26 22.201c0.243 0.068 0.521 0.106 0.809 0.106 1.438 0 2.65-0.972 3.013-2.294l0.005-0.022 2.157-8.050c0.070-0.247 0.111-0.531 0.111-0.825 0-1.726-1.399-3.125-3.125-3.125-1.444 0-2.659 0.979-3.018 2.31l-0.005 0.022-2.157 8.049c-0.068 0.243-0.106 0.521-0.106 0.809 0 1.438 0.972 2.65 2.294 3.013l0.022 0.005z"></path>
<path fill="param(fill) #000" stroke="param(outline) #000" stroke-width="param(outline-width) 1" d="M85.183 14.585c-0.243-0.068-0.521-0.107-0.809-0.107-1.438 0-2.649 0.971-3.013 2.294l-0.005 0.022-2.157 8.050c-0.068 0.243-0.106 0.521-0.106 0.809 0 1.726 1.399 3.125 3.125 3.125 1.438 0 2.65-0.972 3.013-2.294l0.005-0.022 2.157-8.049c0.068-0.243 0.107-0.521 0.107-0.809 0-1.438-0.972-2.65-2.294-3.013l-0.022-0.005z"></path>
<path fill="param(fill) #000" stroke="param(outline) #000" stroke-width="param(outline-width) 1" d="M67.717 31.473c0.243 0.068 0.521 0.107 0.809 0.107 1.438 0 2.65-0.972 3.013-2.294l0.005-0.022 5.931-22.136c0.070-0.247 0.111-0.531 0.111-0.825 0-1.726-1.399-3.125-3.125-3.125-1.444 0-2.659 0.979-3.018 2.31l-0.005 0.022-5.931 22.136c-0.068 0.243-0.106 0.521-0.106 0.809 0 1.438 0.971 2.65 2.294 3.013l0.022 0.005z"></path>
</svg>
