
<svg version="1.1" xmlns="http://www.w3.org/2000/svg" width="100" height="100" viewBox="0 0 100 100">
<title>airport-military</title>
<path fill="param(fill) #000" stroke="param(outline) #000" stroke-width="param(outline-width) 1" d="M95.833 54.167c-2.301 0-4.167 1.866-4.167 4.167v0 6.25l-25-18.75v-9.418c-0.016-2.856-2.336-5.166-5.194-5.166-1.185 0-2.278 0.397-3.152 1.065l0.013-0.009v-10.16c0 0 0 0 0-0 0-0.832-0.163-1.626-0.458-2.352l0.015 0.042-5.607-18.286c-0.371-0.916-1.253-1.549-2.283-1.549s-1.912 0.634-2.277 1.533l-0.006 0.016-5.607 18.286c-0.28 0.684-0.443 1.478-0.443 2.31 0 0 0 0 0 0v0 10.16c-0.862-0.659-1.954-1.056-3.139-1.056-2.859 0-5.178 2.309-5.194 5.164v9.419l-25 18.75v-6.25c0-2.301-1.865-4.167-4.167-4.167s-4.167 1.865-4.167 4.167v0 29.167c0 2.301 1.865 4.167 4.167 4.167s4.167-1.865 4.167-4.167v0-4.167l33.333-8.333v10.417l-9.269 7.94c-0.704 0.704-1.14 1.677-1.14 2.752 0 2.149 1.742 3.892 3.892 3.892 0 0 0 0 0 0v0l14.827-2.083 14.874 2.083c0 0 0 0 0 0 2.149 0 3.892-1.742 3.892-3.892 0-1.075-0.436-2.048-1.14-2.752v0l-9.269-7.94v-10.417l33.333 8.333v4.167c0 2.301 1.865 4.167 4.167 4.167s4.167-1.865 4.167-4.167v0-29.167c-0-2.301-1.866-4.167-4.167-4.167v0z"></path>
</svg>
