
<svg version="1.1" xmlns="http://www.w3.org/2000/svg" width="100" height="100" viewBox="0 0 100 100">
<title>airport</title>
<path fill="param(fill) #000" stroke="param(outline) #000" stroke-width="param(outline-width) 1" d="M96.667 50.729c-0.020-0.021-38.333-21.563-38.333-21.563v-20.833c0-4.602-3.731-8.333-8.333-8.333s-8.333 3.731-8.333 8.333v0 20.833l-39 22.020c-1.619 1.122-2.666 2.97-2.667 5.063v0c0 0.003 0 0.005 0 0.008 0 3.447 2.794 6.242 6.242 6.242 0.003 0 0.006 0 0.009 0h-0c0.008 0 0.019 0 0.029 0 0.676 0 1.325-0.114 1.929-0.325l-0.041 0.013 33.5-10.104v31.25l-12.625 8.979c-0.362 0.226-0.671 0.496-0.933 0.807l-0.005 0.006c-0.634 0.71-1.021 1.651-1.021 2.684 0 0.009 0 0.017 0 0.026v-0.001c0.007 2.298 1.868 4.16 4.166 4.167h0.001c0.001 0 0.002 0 0.003 0 0.22 0 0.435-0.023 0.643-0.067l-0.020 0.004 18.125-5.958 17.25 5.729c0.443 0.185 0.959 0.292 1.499 0.292 0 0 0.001 0 0.001 0h-0c2.298-0.007 4.16-1.868 4.167-4.166v-0.001c0-0.001 0-0.002 0-0.004 0-0.945-0.321-1.814-0.861-2.506l0.007 0.009c-0.297-0.412-0.664-0.753-1.088-1.011l-0.016-0.009-12.625-8.979v-31.25l33.271 10.021c0.637 0.248 1.374 0.393 2.145 0.396h0.001c0.001 0 0.003 0 0.004 0 3.449 0 6.246-2.796 6.246-6.246 0-2.384-1.336-4.456-3.3-5.509l-0.033-0.016z"></path>
</svg>
