
<svg version="1.1" xmlns="http://www.w3.org/2000/svg" width="100" height="100" viewBox="0 0 100 100">
<title>airport-not-affected</title>
<path fill="param(fill) #000" stroke="param(outline) #000" stroke-width="param(outline-width) 1" d="M99.975 60.138c-0.009-0.128-0.007-0.257-0.027-0.384-0.035-0.178-0.074-0.326-0.122-0.472l0.008 0.028c-0.031-0.111-0.051-0.225-0.091-0.333-0.065-0.158-0.126-0.285-0.193-0.409l0.011 0.022c-0.055-0.113-0.101-0.23-0.167-0.338-0.070-0.115-0.159-0.218-0.24-0.326-0.080-0.106-0.151-0.218-0.241-0.316-0.111-0.115-0.228-0.222-0.351-0.322l-0.007-0.006c-0.081-0.070-0.152-0.149-0.239-0.213-0.183-0.135-0.391-0.262-0.61-0.369l-0.024-0.011c-0.026-0.013-0.047-0.032-0.073-0.044l-0.007-0.003-30.934-14.977v-16.667c0-3.452-2.798-6.25-6.25-6.25s-6.25 2.798-6.25 6.25v0 16.667l-30.941 14.98c-0.044 0.021-0.079 0.051-0.122 0.073-0.224 0.111-0.415 0.228-0.595 0.358l0.012-0.008c-0.1 0.074-0.182 0.163-0.274 0.244-0.117 0.097-0.223 0.194-0.323 0.296l-0.001 0.001c-0.085 0.1-0.17 0.21-0.249 0.325l-0.009 0.014c-0.075 0.102-0.158 0.196-0.223 0.304-0.070 0.114-0.12 0.239-0.178 0.359s-0.125 0.238-0.172 0.365c-0.043 0.116-0.065 0.238-0.098 0.358-0.036 0.109-0.073 0.249-0.102 0.393l-0.004 0.026c-0.022 0.135-0.020 0.274-0.029 0.411-0.013 0.118-0.021 0.255-0.022 0.394v0.001c0.013 0.208 0.039 0.4 0.078 0.587l-0.005-0.027c0.015 0.084 0.013 0.167 0.033 0.251l0.004 0.012c0.009 0.038 0.027 0.075 0.037 0.113 0.067 0.249 0.144 0.462 0.237 0.666l-0.011-0.026c0.009 0.018 0.011 0.038 0.020 0.056 0.014 0.029 0.038 0.049 0.052 0.078 0.167 0.338 0.363 0.629 0.591 0.89l-0.004-0.005c0.016 0.019 0.029 0.041 0.046 0.059 0.232 0.249 0.491 0.467 0.774 0.652l0.016 0.010c0.057 0.038 0.111 0.077 0.17 0.111 0.261 0.158 0.563 0.296 0.88 0.396l0.030 0.008c0.059 0.018 0.119 0.031 0.179 0.046 0.309 0.088 0.664 0.141 1.030 0.146h0.003l0.004-0 0.003 0c0.328-0.001 0.646-0.040 0.951-0.112l-0.028 0.006 0.029-0.004 28.212-6.14v31.25s-7.663 6.829-7.937 7.104c-0.249 0.298-0.4 0.686-0.4 1.108 0 0.043 0.002 0.085 0.005 0.126l-0-0.006c-0.001 0.018-0.002 0.040-0.002 0.062 0 0.111 0.016 0.219 0.045 0.321l-0.002-0.008c0.021 0.104 0.042 0.188 0.063 0.271 0.090 0.283 0.233 0.526 0.418 0.73l-0.001-0.002c0.104 0.104 0.208 0.208 0.333 0.313 0 0 0 0 0.001 0 0.012 0 0.021 0.009 0.021 0.021 0 0 0 0 0 0v0c0.162 0.108 0.348 0.2 0.546 0.266l0.017 0.005c0.192 0.064 0.414 0.102 0.644 0.104h0.001c0.135-0.004 0.264-0.019 0.389-0.044l-0.015 0.002c0.083-0.021 0.188-0.042 0.271-0.063l0.125-0.042 11.729-4.021 11.855 4.062c0.193 0.066 0.415 0.104 0.646 0.104s0.453-0.038 0.66-0.108l-0.014 0.004c0.111-0.030 0.208-0.073 0.296-0.128l-0.005 0.003c0.492-0.25 0.864-0.676 1.037-1.193l0.004-0.015c0.021-0.083 0.042-0.167 0.063-0.271 0.028-0.094 0.043-0.201 0.043-0.313 0-0.022-0.001-0.043-0.002-0.065l0 0.003c0.004-0.044 0.007-0.096 0.007-0.148 0-0.414-0.152-0.793-0.404-1.083l0.002 0.002c-0.255-0.255-7.937-7.104-7.937-7.104v-31.25l28.213 6.14c0.035 0.008 0.070 0.006 0.105 0.013 0.213 0.049 0.462 0.083 0.717 0.093l0.008 0c0.021 0 0.042-0.004 0.064-0.004 0.025 0 0.053 0.001 0.082 0.001 0.236 0 0.467-0.020 0.692-0.058l-0.024 0.003c0.027-0.005 0.053-0.015 0.080-0.021 0.267-0.049 0.501-0.115 0.725-0.199l-0.029 0.010c0.030-0.011 0.056-0.029 0.086-0.041 0.244-0.097 0.451-0.201 0.648-0.321l-0.018 0.010c0.040-0.024 0.074-0.058 0.113-0.083 0.195-0.126 0.365-0.256 0.524-0.398l-0.004 0.004c0.077-0.070 0.14-0.155 0.212-0.231 0.112-0.111 0.217-0.229 0.316-0.352l0.006-0.008c0.12-0.165 0.234-0.353 0.333-0.55l0.011-0.024c0.023-0.045 0.055-0.082 0.077-0.128l0.002-0.006c0.059-0.133 0.119-0.298 0.168-0.467l0.007-0.029c0.033-0.103 0.080-0.203 0.105-0.306l0.004-0.012c0.022-0.095 0.022-0.189 0.037-0.283 0.032-0.15 0.056-0.331 0.068-0.515l0.001-0.012c-0.001-0.15-0.009-0.296-0.026-0.441l0.002 0.018z"></path>
<path fill="param(fill) #000" stroke="param(outline) #000" stroke-width="param(outline-width) 1" d="M41.667 20.833c0-11.506-9.327-20.833-20.833-20.833s-20.833 9.327-20.833 20.833c0 11.506 9.327 20.833 20.833 20.833v0c11.504-0.004 20.829-9.329 20.833-20.833v-0zM32.604 16.167l-14.583 12.5c-0.362 0.31-0.836 0.499-1.354 0.5h-0c-0.576-0.002-1.097-0.232-1.48-0.605l-6.25-6.25c-0.379-0.379-0.613-0.902-0.613-1.479 0-1.155 0.937-2.092 2.092-2.092 0.578 0 1.101 0.234 1.479 0.613v0l4.875 4.896 13.125-11.25c0.36-0.306 0.831-0.493 1.345-0.493 1.151 0 2.083 0.933 2.083 2.083 0 0.628-0.278 1.192-0.718 1.574l-0.003 0.002z"></path>
</svg>
