
<svg version="1.1" xmlns="http://www.w3.org/2000/svg" width="117" height="100" viewBox="0 0 117 100">
<title>alert</title>
<path fill="param(fill) #000" stroke="param(outline) #000" stroke-width="param(outline-width) 1" d="M116.235 91.221l-50.11-86.832c-1.548-2.643-4.374-4.389-7.608-4.389s-6.059 1.747-7.585 4.348l-0.022 0.041-50.11 86.832c-0.495 0.841-0.788 1.852-0.788 2.932 0 3.229 2.618 5.847 5.847 5.847 0.004 0 0.009 0 0.013 0h105.291c0.004 0 0.008 0 0.013 0 3.229 0 5.847-2.618 5.847-5.847 0-1.080-0.293-2.091-0.803-2.959l0.015 0.027zM58.517 82.931c-2.693 0-4.877-2.183-4.877-4.877s2.183-4.877 4.877-4.877c2.693 0 4.877 2.183 4.877 4.877v0c-0.008 2.69-2.187 4.869-4.876 4.877h-0.001zM63.394 60.985c0 2.693-2.183 4.877-4.877 4.877s-4.877-2.183-4.877-4.877v0-26.823c0-2.693 2.183-4.877 4.877-4.877s4.877 2.183 4.877 4.877v0z"></path>
</svg>
