
<svg version="1.1" xmlns="http://www.w3.org/2000/svg" width="100" height="100" viewBox="0 0 100 100">
<title>analysis</title>
<path fill="param(fill) #000" stroke="param(outline) #000" stroke-width="param(outline-width) 1" d="M17.458 70.417l-14.958 14.958c-1.544 1.55-2.499 3.689-2.499 6.050 0 4.735 3.839 8.574 8.574 8.574 2.361 0 4.5-0.955 6.050-2.499l14.958-14.958c-4.744-3.365-8.76-7.381-12.021-11.971l-0.104-0.154z"></path>
<path fill="param(fill) #000" stroke="param(outline) #000" stroke-width="param(outline-width) 1" d="M45.833 41.667h-8.333c-1.149 0.004-2.080 0.934-2.083 2.083v10.292c2.809 5.111 7.121 9.099 12.334 11.434l0.166 0.066v-21.792c-0.004-1.149-0.934-2.080-2.083-2.083h-0z"></path>
<path fill="param(fill) #000" stroke="param(outline) #000" stroke-width="param(outline-width) 1" d="M79.167 29.167h-8.333c-1.149 0.004-2.080 0.934-2.083 2.083v34.292c5.379-2.401 9.691-6.389 12.432-11.365l0.068-0.135v-22.792c-0.004-1.149-0.934-2.080-2.083-2.083h-0z"></path>
<path fill="param(fill) #000" stroke="param(outline) #000" stroke-width="param(outline-width) 1" d="M62.5 35.417h-8.333c-1.149 0.004-2.080 0.934-2.083 2.083v29.459c1.877 0.476 4.031 0.75 6.25 0.75s4.373-0.273 6.432-0.789l-0.182 0.039v-29.458c-0.004-1.149-0.934-2.080-2.083-2.083h-0z"></path>
<path fill="param(fill) #000" stroke="param(outline) #000" stroke-width="param(outline-width) 1" d="M58.333 0c-23.012 0-41.667 18.655-41.667 41.667s18.655 41.667 41.667 41.667c23.012 0 41.667-18.655 41.667-41.667v0c0-0.003 0-0.007 0-0.011 0-23.006-18.65-41.655-41.655-41.655-0.004 0-0.008 0-0.012 0h0.001zM81.25 62.875c-5.724 6.161-13.872 10.004-22.917 10.004-17.246 0-31.229-13.97-31.25-31.21v-0.002c0-0.011 0-0.024 0-0.038 0-17.259 13.991-31.25 31.25-31.25s31.25 13.991 31.25 31.25c0 8.214-3.169 15.688-8.351 21.265l0.018-0.019z"></path>
</svg>
