
<svg version="1.1" xmlns="http://www.w3.org/2000/svg" width="100" height="100" viewBox="0 0 100 100">
<title>arrest-detention</title>
<path fill="param(fill) #000" stroke="param(outline) #000" stroke-width="param(outline-width) 1" d="M35.417 52.271h-0v-3.312c-0.009-2.873-2.335-5.2-5.208-5.208h-10.417c-2.873 0.009-5.2 2.335-5.208 5.208v3.293h-0c-8.678 4.051-14.585 12.704-14.585 22.736 0 13.815 11.199 25.014 25.014 25.014 9.088 0 17.044-4.847 21.425-12.096l0.063-0.112c-1.737-3.759-2.75-8.157-2.75-12.792s1.013-9.033 2.83-12.986l-0.080 0.194c-2.63-4.346-6.414-7.761-10.929-9.873l-0.154-0.065zM25 89.583c-8.054 0-14.583-6.529-14.583-14.583s6.529-14.583 14.583-14.583c8.054 0 14.583 6.529 14.583 14.583v0c-0.009 8.050-6.533 14.574-14.582 14.583h-0.001z"></path>
<path fill="param(fill) #000" stroke="param(outline) #000" stroke-width="param(outline-width) 1" d="M25 37.5c2.298-0.007 4.16-1.868 4.167-4.166v-6.251c0-2.301-1.866-4.167-4.167-4.167s-4.167 1.866-4.167 4.167v0 6.25c0.007 2.298 1.868 4.16 4.166 4.167h0.001z"></path>
<path fill="param(fill) #000" stroke="param(outline) #000" stroke-width="param(outline-width) 1" d="M34.082 17.567l4.305-4.299c0.751-0.743 1.216-1.774 1.216-2.914 0-2.264-1.836-4.1-4.1-4.1-1.142 0-2.174 0.467-2.917 1.219l-0 0-4.305 4.299c-0.731 0.74-1.182 1.758-1.182 2.88 0 2.264 1.836 4.1 4.1 4.1 1.125 0 2.144-0.453 2.885-1.186l-0 0z"></path>
<path fill="param(fill) #000" stroke="param(outline) #000" stroke-width="param(outline-width) 1" d="M70.833 27.083v6.25c0 2.301 1.866 4.167 4.167 4.167s4.167-1.866 4.167-4.167v0-6.25c0-2.301-1.866-4.167-4.167-4.167s-4.167 1.866-4.167 4.167v0z"></path>
<path fill="param(fill) #000" stroke="param(outline) #000" stroke-width="param(outline-width) 1" d="M65.956 17.555c0.74 0.745 1.764 1.206 2.897 1.206 2.255 0 4.082-1.828 4.082-4.082 0-1.131-0.46-2.154-1.203-2.893l-4.343-4.339c-0.742-0.739-1.765-1.195-2.895-1.195-1.126 0-2.147 0.454-2.888 1.188l0-0c-0.735 0.74-1.189 1.759-1.189 2.885 0 1.129 0.457 2.152 1.197 2.892l-0-0z"></path>
<path fill="param(fill) #000" stroke="param(outline) #000" stroke-width="param(outline-width) 1" d="M56.25 4.167c0-0 0-0 0-0 0-2.301-1.865-4.167-4.167-4.167-0 0-0 0-0 0h-4.167c-2.301 0-4.167 1.866-4.167 4.167s1.866 4.167 4.167 4.167v0h4.167c2.301-0 4.167-1.866 4.167-4.167v0z"></path>
<path fill="param(fill) #000" stroke="param(outline) #000" stroke-width="param(outline-width) 1" d="M85.417 52.25h-0v-3.292c-0.009-2.873-2.335-5.2-5.208-5.208h-10.417c-2.873 0.009-5.2 2.335-5.208 5.208v3.293h-0c-8.677 4.047-14.583 12.697-14.583 22.726 0 13.807 11.193 25 25 25s25-11.193 25-25c0-10.029-5.906-18.679-14.43-22.662l-0.154-0.064zM75 89.583c-8.054 0-14.583-6.529-14.583-14.583s6.529-14.583 14.583-14.583c8.054 0 14.583 6.529 14.583 14.583v0c-0.009 8.050-6.533 14.574-14.582 14.583h-0.001z"></path>
</svg>
