
<svg version="1.1" xmlns="http://www.w3.org/2000/svg" width="100" height="100" viewBox="0 0 100 100">
<title>assault</title>
<path fill="param(fill) #000" stroke="param(outline) #000" stroke-width="param(outline-width) 1" d="M26.032 85.417c-1.726 0-3.125 1.399-3.125 3.125v0 8.331c0 1.726 1.399 3.125 3.125 3.125s3.125-1.399 3.125-3.125v0-8.331c0-1.726-1.399-3.125-3.125-3.125v0z"></path>
<path fill="param(fill) #000" stroke="param(outline) #000" stroke-width="param(outline-width) 1" d="M48.954 70.84h-8.331c-0 0-0 0-0 0-1.726 0-3.125 1.399-3.125 3.125 0 0 0 0 0 0v0c0 1.726 1.399 3.125 3.125 3.125v0h8.331c1.726 0 3.125-1.399 3.125-3.125v0 0c0-0 0-0 0-0 0-1.726-1.399-3.125-3.125-3.125-0 0-0 0-0 0v0z"></path>
<path fill="param(fill) #000" stroke="param(outline) #000" stroke-width="param(outline-width) 1" d="M26.046 47.919c-1.726 0-3.125 1.399-3.125 3.125v0 8.331c0 1.726 1.399 3.125 3.125 3.125s3.125-1.399 3.125-3.125v0-8.331c0-1.726-1.399-3.125-3.125-3.125v0z"></path>
<path fill="param(fill) #000" stroke="param(outline) #000" stroke-width="param(outline-width) 1" d="M14.581 73.951c0-1.726-1.399-3.125-3.125-3.125v0h-8.331c-1.726 0-3.125 1.399-3.125 3.125s1.399 3.125 3.125 3.125v0h8.331c0 0 0 0 0 0 1.726 0 3.125-1.399 3.125-3.125 0-0 0-0 0-0v0z"></path>
<path fill="param(fill) #000" stroke="param(outline) #000" stroke-width="param(outline-width) 1" d="M38.666 82.159c-0.566-0.566-1.347-0.915-2.21-0.915-1.726 0-3.125 1.399-3.125 3.125 0 0.863 0.35 1.644 0.915 2.21l6.257 6.256c0.566 0.569 1.35 0.921 2.215 0.921 1.726 0 3.125-1.399 3.125-3.125 0-0.866-0.352-1.649-0.92-2.215l-0-0z"></path>
<path fill="param(fill) #000" stroke="param(outline) #000" stroke-width="param(outline-width) 1" d="M38.659 65.758l6.256-6.257c0.564-0.565 0.913-1.345 0.913-2.207 0-1.726-1.399-3.125-3.125-3.125-0.862 0-1.642 0.349-2.207 0.913l-6.256 6.256c-0.566 0.566-0.915 1.347-0.915 2.21 0 1.726 1.399 3.125 3.125 3.125 0.863 0 1.644-0.35 2.21-0.915v0z"></path>
<path fill="param(fill) #000" stroke="param(outline) #000" stroke-width="param(outline-width) 1" d="M13.419 65.757c0.565 0.561 1.343 0.908 2.203 0.908 1.726 0 3.125-1.399 3.125-3.125 0-0.86-0.347-1.638-0.909-2.203l-6.256-6.255c-0.565-0.564-1.346-0.913-2.207-0.913-1.726 0-3.125 1.399-3.125 3.125 0 0.862 0.349 1.642 0.913 2.207l-0-0z"></path>
<path fill="param(fill) #000" stroke="param(outline) #000" stroke-width="param(outline-width) 1" d="M13.419 82.159l-6.257 6.257c-0.564 0.565-0.913 1.345-0.913 2.207 0 1.726 1.399 3.125 3.125 3.125 0.862 0 1.642-0.349 2.207-0.913l6.256-6.256c0.566-0.566 0.915-1.347 0.915-2.21 0-1.726-1.399-3.125-3.125-3.125-0.863 0-1.644 0.35-2.21 0.915v0z"></path>
<path fill="param(fill) #000" stroke="param(outline) #000" stroke-width="param(outline-width) 1" d="M72.914 20.833c-15.44 0-27.083 10.748-27.083 25 0 2.301 1.866 4.167 4.167 4.167s4.167-1.866 4.167-4.167v0c-0.002-0.088-0.003-0.191-0.003-0.295 0-5.945 3.343-11.11 8.252-13.716l0.084-0.041v64.051c0 2.301 1.866 4.167 4.167 4.167s4.167-1.866 4.167-4.167v0-31.25h4.167v31.25c0 2.301 1.866 4.167 4.167 4.167s4.167-1.866 4.167-4.167v0-64.051c4.993 2.647 8.336 7.811 8.336 13.756 0 0.104-0.001 0.207-0.003 0.311l0-0.015c0 2.301 1.866 4.167 4.167 4.167s4.167-1.866 4.167-4.167v0c0-14.252-11.644-25-27.083-25z"></path>
<path fill="param(fill) #000" stroke="param(outline) #000" stroke-width="param(outline-width) 1" d="M81.248 8.333c0 4.602-3.731 8.333-8.333 8.333s-8.333-3.731-8.333-8.333c0-4.602 3.731-8.333 8.333-8.333s8.333 3.731 8.333 8.333z"></path>
</svg>
