
<svg version="1.1" xmlns="http://www.w3.org/2000/svg" width="100" height="100" viewBox="0 0 100 100">
<title>assembly-point</title>
<path fill="param(fill) #000" stroke="param(outline) #000" stroke-width="param(outline-width) 1" d="M60.417 50c0 5.753-4.664 10.417-10.417 10.417s-10.417-4.664-10.417-10.417c0-5.753 4.664-10.417 10.417-10.417s10.417 4.664 10.417 10.417z"></path>
<path fill="param(fill) #000" stroke="param(outline) #000" stroke-width="param(outline-width) 1" d="M95.833 45.833h-17.024l3.303-3.304c0.754-0.754 1.22-1.796 1.22-2.946 0-2.301-1.865-4.166-4.166-4.166-1.15 0-2.192 0.466-2.946 1.22v0l-10.417 10.417c-0.251 0.258-0.47 0.551-0.648 0.869l-0.011 0.021c-0.044 0.077-0.083 0.153-0.122 0.232-0.148 0.285-0.269 0.615-0.347 0.962l-0.005 0.028-0.008 0.026c-0.043 0.224-0.067 0.482-0.067 0.746 0 0.115 0.005 0.229 0.014 0.342l-0.001-0.015c0.005 0.086 0.014 0.169 0.025 0.255 0.045 0.395 0.138 0.756 0.275 1.094l-0.010-0.028 0.002 0.008 0.018 0.030c0.153 0.343 0.334 0.639 0.547 0.908l-0.007-0.008c0.060 0.078 0.119 0.152 0.184 0.225 0.057 0.064 0.099 0.135 0.16 0.196l10.417 10.417c0.754 0.754 1.796 1.22 2.946 1.22 2.301 0 4.166-1.865 4.166-4.166 0-1.15-0.466-2.192-1.22-2.946l-3.304-3.304h17.025c2.301 0 4.167-1.866 4.167-4.167s-1.866-4.167-4.167-4.167v0z"></path>
<path fill="param(fill) #000" stroke="param(outline) #000" stroke-width="param(outline-width) 1" d="M35.391 50.266c0.008-0.098 0.013-0.212 0.013-0.327 0-0.264-0.025-0.522-0.071-0.772l0.004 0.026-0.008-0.026c-0.083-0.374-0.204-0.705-0.363-1.013l0.011 0.023c-0.039-0.079-0.078-0.155-0.122-0.232-0.188-0.339-0.407-0.632-0.659-0.891l0.001 0.001-10.417-10.417c-0.754-0.754-1.796-1.22-2.946-1.22-2.301 0-4.166 1.865-4.166 4.166 0 1.15 0.466 2.192 1.22 2.946l3.303 3.304h-17.024c-2.301 0-4.167 1.866-4.167 4.167s1.866 4.167 4.167 4.167v0h17.025l-3.304 3.304c-0.754 0.754-1.22 1.796-1.22 2.946 0 2.301 1.865 4.166 4.166 4.166 1.15 0 2.192-0.466 2.946-1.22l10.417-10.417c0.061-0.061 0.104-0.133 0.16-0.196 0.065-0.073 0.124-0.147 0.184-0.225 0.207-0.26 0.388-0.556 0.53-0.873l0.011-0.026 0.018-0.030 0.002-0.008c0.127-0.311 0.22-0.671 0.263-1.047l0.002-0.019c0.011-0.086 0.019-0.169 0.025-0.255z"></path>
<path fill="param(fill) #000" stroke="param(outline) #000" stroke-width="param(outline-width) 1" d="M47.054 34.196c0.193 0.193 0.404 0.367 0.632 0.519l0.015 0.009c0.166 0.108 0.358 0.211 0.558 0.299l0.026 0.010c0.047 0.021 0.090 0.053 0.137 0.072 0.183 0.075 0.403 0.143 0.63 0.192l0.027 0.005c0.040 0.009 0.078 0.027 0.118 0.035 0.241 0.050 0.519 0.078 0.803 0.078h0.001c0.018 0 0.036-0.005 0.054-0.005 0.266-0.002 0.524-0.029 0.774-0.078l-0.026 0.004c0.033-0.007 0.065-0.022 0.098-0.029 0.265-0.056 0.494-0.128 0.715-0.218l-0.028 0.010 0.007-0.002 0.020-0.012c0.349-0.154 0.649-0.338 0.921-0.555l-0.008 0.006c0.076-0.058 0.148-0.117 0.219-0.18 0.065-0.057 0.137-0.101 0.199-0.163l10.417-10.417c0.754-0.754 1.22-1.796 1.22-2.946 0-2.301-1.865-4.166-4.166-4.166-1.15 0-2.192 0.466-2.946 1.22l-3.304 3.304v-17.025c0-2.301-1.866-4.167-4.167-4.167s-4.167 1.866-4.167 4.167v0 17.025l-3.304-3.304c-0.754-0.754-1.796-1.22-2.946-1.22-2.301 0-4.166 1.865-4.166 4.166 0 1.15 0.466 2.192 1.22 2.946v0z"></path>
<path fill="param(fill) #000" stroke="param(outline) #000" stroke-width="param(outline-width) 1" d="M52.946 65.804c-0.062-0.062-0.134-0.106-0.199-0.163-0.071-0.063-0.143-0.121-0.219-0.179-0.265-0.212-0.566-0.396-0.889-0.54l-0.026-0.010-0.019-0.011-0.005-0.001c-0.309-0.127-0.668-0.221-1.043-0.264l-0.019-0.002c-0.091-0.012-0.179-0.020-0.27-0.026-0.095-0.008-0.206-0.012-0.318-0.012-0.262 0-0.518 0.024-0.767 0.070l0.026-0.004c-0.019 0.004-0.037 0.012-0.057 0.016-0.363 0.082-0.683 0.2-0.982 0.353l0.023-0.011c-0.083 0.041-0.163 0.082-0.244 0.128-0.337 0.188-0.628 0.406-0.886 0.657l-10.416 10.416c-0.754 0.754-1.22 1.796-1.22 2.946 0 2.301 1.865 4.166 4.166 4.166 1.15 0 2.192-0.466 2.946-1.22l3.304-3.304v17.025c0 2.301 1.866 4.167 4.167 4.167s4.167-1.866 4.167-4.167v0-17.025l3.304 3.304c0.754 0.754 1.796 1.22 2.946 1.22 2.301 0 4.166-1.865 4.166-4.166 0-1.15-0.466-2.192-1.22-2.946v0z"></path>
</svg>
