
<svg version="1.1" xmlns="http://www.w3.org/2000/svg" width="100" height="100" viewBox="0 0 100 100">
<title>assessment</title>
<path fill="param(fill) #000" stroke="param(outline) #000" stroke-width="param(outline-width) 1" d="M4.167 22.917h4.647c1.96 8.412 9.394 14.583 18.269 14.583s16.309-6.171 18.244-14.457l0.025-0.127h9.295c1.96 8.412 9.394 14.583 18.269 14.583s16.309-6.171 18.244-14.457l0.025-0.127h4.647c2.301 0 4.167-1.866 4.167-4.167s-1.866-4.167-4.167-4.167v0h-4.647c-1.96-8.412-9.394-14.583-18.269-14.583s-16.309 6.171-18.244 14.457l-0.025 0.127h-9.295c-1.96-8.412-9.394-14.583-18.269-14.583s-16.309 6.171-18.244 14.457l-0.025 0.127h-4.647c-2.301 0-4.167 1.866-4.167 4.167s1.866 4.167 4.167 4.167v0zM63.383 14.583c1.639-3.628 5.225-6.107 9.391-6.107 5.674 0 10.274 4.6 10.274 10.274s-4.6 10.274-10.274 10.274c-5.674 0-10.274-4.6-10.274-10.274 0 0 0 0 0 0v0c0.005-1.509 0.329-2.94 0.909-4.233l-0.026 0.066zM17.55 14.583c1.639-3.628 5.225-6.107 9.391-6.107 5.674 0 10.274 4.6 10.274 10.274s-4.6 10.274-10.274 10.274c-5.674 0-10.274-4.6-10.274-10.274 0 0 0 0 0 0v0c0.005-1.509 0.329-2.94 0.909-4.233l-0.026 0.066z"></path>
<path fill="param(fill) #000" stroke="param(outline) #000" stroke-width="param(outline-width) 1" d="M97.917 47.917h-62.5c-1.149 0.004-2.080 0.934-2.083 2.083v8.313h31.25c3.462 0.004 6.267 2.809 6.271 6.271v35.417h29.146v-50c-0.004-1.149-0.934-2.080-2.083-2.083h-0z"></path>
<path fill="param(fill) #000" stroke="param(outline) #000" stroke-width="param(outline-width) 1" d="M62.5 62.5h-58.333c-2.298 0.007-4.16 1.868-4.167 4.166v33.188l0.146 0.146 66.521-0.021v-33.313c-0.007-2.298-1.868-4.16-4.166-4.167h-0.001zM53.125 93.75h-39.583c-1.726 0-3.125-1.399-3.125-3.125s1.399-3.125 3.125-3.125v0h39.583c1.726 0 3.125 1.399 3.125 3.125s-1.399 3.125-3.125 3.125v0zM53.125 81.25h-39.583c-1.726 0-3.125-1.399-3.125-3.125s1.399-3.125 3.125-3.125v0h39.583c1.726 0 3.125 1.399 3.125 3.125s-1.399 3.125-3.125 3.125v0z"></path>
</svg>
