
<svg version="1.1" xmlns="http://www.w3.org/2000/svg" width="100" height="100" viewBox="0 0 100 100">
<title>attack</title>
<path fill="param(fill) #000" stroke="param(outline) #000" stroke-width="param(outline-width) 1" d="M50 18.75c0 0 0.001 0 0.001 0 3.451 0 6.249-2.798 6.249-6.249 0-0 0-0.001 0-0.001v0-6.25c0-3.452-2.798-6.25-6.25-6.25s-6.25 2.798-6.25 6.25v0 6.25c0 0 0 0.001 0 0.001 0 3.451 2.798 6.249 6.249 6.249 0 0 0.001 0 0.001 0v0z"></path>
<path fill="param(fill) #000" stroke="param(outline) #000" stroke-width="param(outline-width) 1" d="M94.792 89.583h-21.792l19.688-11.25c1.889-1.097 3.139-3.111 3.139-5.417 0-3.448-2.795-6.243-6.243-6.243-1.142 0-2.213 0.307-3.134 0.842l0.030-0.016-19.146 10.938 31.854-56.625c0.505-0.881 0.803-1.937 0.803-3.063 0-3.447-2.794-6.241-6.241-6.241-2.321 0-4.346 1.267-5.421 3.148l-0.016 0.031-32.063 57v-31.021c0-3.452-2.798-6.25-6.25-6.25s-6.25 2.798-6.25 6.25v0 32.479l-19.792-29.688c-1.139-1.677-3.037-2.764-5.189-2.764-3.453 0-6.252 2.799-6.252 6.252 0 1.276 0.382 2.463 1.039 3.452l-0.014-0.023 17 25.5-8.583-5.146c-0.916-0.558-2.024-0.888-3.208-0.888-3.447 0-6.242 2.795-6.242 6.242 0 2.263 1.204 4.244 3.006 5.339l0.028 0.016 11.917 7.146h-22.25c-2.876 0-5.208 2.332-5.208 5.208s2.332 5.208 5.208 5.208v0h89.583c2.876 0 5.208-2.332 5.208-5.208s-2.332-5.208-5.208-5.208v0zM48.417 89.583h-13c-0-0.016-0-0.034-0-0.052 0-1.551 0.244-3.045 0.695-4.446l-0.029 0.102c1.276-3.898 4.028-7.010 7.579-8.733l0.087-0.038c0.339-0.192 0.733-0.362 1.145-0.489l0.042-0.011c1.479-0.58 3.192-0.917 4.983-0.917 0.028 0 0.056 0 0.084 0h-0.004c0.014-0 0.031-0 0.047-0 1.608 0 3.153 0.267 4.594 0.759l-0.1-0.030c0.671 0.214 1.236 0.447 1.779 0.719l-0.070-0.032c3.526 1.68 6.213 4.645 7.49 8.274l0.031 0.101c0.515 1.428 0.812 3.075 0.813 4.792v0h-16.167z"></path>
</svg>
