
<svg version="1.1" xmlns="http://www.w3.org/2000/svg" width="100" height="100" viewBox="0 0 100 100">
<title>bacteria</title>
<path fill="param(fill) #000" stroke="param(outline) #000" stroke-width="param(outline-width) 1" d="M19.299 62.479c0 0 0 0 0 0 0 10.357 8.396 18.753 18.753 18.753 5.177 0 9.864-2.098 13.258-5.49l23.567-23.572c3.393-3.393 5.492-8.080 5.492-13.258 0-10.355-8.394-18.749-18.749-18.749-5.177 0-9.865 2.099-13.258 5.492l-23.572 23.567c-3.391 3.374-5.49 8.045-5.49 13.206 0 0.018 0 0.036 0 0.055v-0.003zM46.876 39.583c2.878 0 5.211 2.333 5.211 5.211s-2.333 5.211-5.211 5.211c-2.878 0-5.211-2.333-5.211-5.211v0c0-0.002 0-0.003 0-0.005 0-2.875 2.331-5.206 5.206-5.206 0.002 0 0.004 0 0.005 0h-0zM39.583 56.253c0.002 0 0.003 0 0.005 0 4.603 0 8.335 3.732 8.335 8.335s-3.732 8.335-8.335 8.335c-4.603 0-8.335-3.732-8.335-8.335 0-0.002 0-0.004 0-0.005v0c0-4.6 3.729-8.33 8.33-8.33v0z"></path>
<path fill="param(fill) #000" stroke="param(outline) #000" stroke-width="param(outline-width) 1" d="M95.84 33.335h-5.603c-0.246-1.233-0.513-2.254-0.831-3.253l0.058 0.211c-0.072-0.222-0.155-0.438-0.232-0.655-0.273-0.814-0.572-1.613-0.917-2.407-0.083-0.186-0.17-0.366-0.258-0.546q-0.588-1.273-1.309-2.505c-0.057-0.098-0.113-0.201-0.175-0.299-0.629-1.044-1.236-1.927-1.89-2.773l0.049 0.067 3.608-3.634c0.681-0.739 1.098-1.73 1.098-2.818 0-2.3-1.865-4.165-4.165-4.165-1.079 0-2.062 0.41-2.802 1.084l0.003-0.003-3.711 3.711c-3.403-2.515-7.482-4.324-11.911-5.128l-0.177-0.027v-6.031c0-2.3-1.865-4.165-4.165-4.165s-4.165 1.865-4.165 4.165v0 5.799c-1.964 0.218-3.745 0.595-5.458 1.127l0.205-0.055-0.093 0.031c-0.825 0.253-1.644 0.515-2.443 0.861s-1.67 0.727-2.479 1.15l-5.608-5.608c-0.733-0.658-1.707-1.060-2.775-1.060-2.3 0-4.165 1.865-4.165 4.165 0 1.073 0.406 2.052 1.073 2.79l-0.003-0.004 4.665 4.68c-0.088 0.088-0.18 0.155-0.268 0.242l-7.366 7.371-7.768-7.768c-0.754-0.754-1.795-1.22-2.946-1.22-2.301 0-4.166 1.865-4.166 4.166 0 1.15 0.466 2.192 1.22 2.946v0l7.768 7.768-8.665 8.691-5.67-5.67c-0.757-0.764-1.807-1.236-2.967-1.236-2.307 0-4.177 1.87-4.177 4.177 0 1.147 0.462 2.186 1.211 2.941l6.134 6.129-0.031 0.057c-1.805 2.755-3.184 5.972-3.949 9.421l-0.036 0.193h-5.423c-2.3 0-4.165 1.865-4.165 4.165s1.865 4.165 4.165 4.165h4.83c0.041 0.593 0.108 1.18 0.191 1.773 0 0.155 0.041 0.314 0.067 0.469 0.312 2.066 0.79 3.911 1.435 5.675l-0.064-0.2c0 0.057 0.036 0.108 0.057 0.165 1.004 2.731 2.29 5.096 3.865 7.234l-0.056-0.079-2.85 2.861c-0.815 0.762-1.324 1.844-1.324 3.045 0 2.3 1.865 4.165 4.165 4.165 1.201 0 2.283-0.508 3.043-1.321l0.002-0.002 2.768-2.768c0.966 0.746 2.055 1.478 3.192 2.135l0.143 0.076 0.196 0.113c0.515 0.283 1.031 0.541 1.546 0.794l0.686 0.314c0.479 0.217 0.954 0.433 1.438 0.619 0.65 0.258 1.304 0.485 1.969 0.691 0.35 0.108 0.706 0.196 1.062 0.289 0.474 0.129 0.943 0.242 1.417 0.345 0.33 0.072 0.66 0.139 0.995 0.196 0.613 0.113 1.227 0.201 1.845 0.268 0.196 0 0.387 0.057 0.588 0.077v0 4.325c0.081 2.239 1.916 4.024 4.167 4.024s4.086-1.784 4.167-4.016l0-0.007v-4.747h0.077c3.854-0.772 7.272-2.207 10.295-4.191l-0.11 0.068 5.598 5.603c0.756 0.752 1.798 1.217 2.948 1.217 2.309 0 4.181-1.872 4.181-4.181 0-1.158-0.471-2.207-1.232-2.964l-5.155-5.155 8.691-8.691 7.217 7.217c0.754 0.754 1.795 1.22 2.946 1.22 2.301 0 4.166-1.865 4.166-4.166 0-1.15-0.466-2.192-1.22-2.946l-7.217-7.217 7.366-7.366c0.088-0.088 0.16-0.18 0.242-0.268l4.18 4.18c0.754 0.754 1.795 1.22 2.946 1.22 2.301 0 4.166-1.865 4.166-4.166 0-1.15-0.466-2.192-1.22-2.946l-5.103-5.103c1.237-2.313 2.205-4.996 2.763-7.825l0.030-0.185q0.263-1.376 0.397-2.768h5.191c2.3 0 4.165-1.865 4.165-4.165s-1.865-4.165-4.165-4.165v0zM45.412 22.706l0.268-0.237c1.98-1.927 4.316-3.499 6.898-4.608l0.148-0.057h0.057c1.608-0.686 3.479-1.215 5.429-1.496l0.122-0.014c0.691-0.103 1.381-0.17 2.062-0.206v0c0.691-0.036 1.381-0.041 2.062 0h0.041c0.686 0.026 1.371 0.083 2.062 0.17h0.031c0.686 0.088 1.371 0.211 2.062 0.361 1.505 0.341 2.807 0.768 4.055 1.3l-0.152-0.058 0.253 0.113c0.546 0.242 1.093 0.515 1.624 0.778 0.211 0.108 0.412 0.247 0.624 0.366 0.412 0.237 0.825 0.464 1.222 0.732q0.933 0.619 1.825 1.34c0.588 0.485 1.16 0.995 1.711 1.546 0.469 0.469 0.902 0.964 1.32 1.464s0.768 0.964 1.119 1.459c0.417 0.588 0.804 1.186 1.16 1.799v0.031c0.35 0.603 0.67 1.227 0.964 1.856 0 0.008 0.001 0.017 0.001 0.026s-0 0.018-0.001 0.027l0-0.001c0.289 0.629 0.546 1.268 0.778 1.917 0 0 0 0.026 0 0.041 0.191 0.507 0.396 1.173 0.568 1.853l0.030 0.142c0.316 1.2 0.545 2.609 0.641 4.054l0.004 0.069c0.001 0.006 0.002 0.013 0.002 0.021s-0.001 0.014-0.002 0.021l0-0.001c0.041 0.68 0.057 1.366 0.036 2.062v0.067c0 0.68-0.072 1.366-0.15 2.062v0c-0.138 1.129-0.331 2.126-0.587 3.097l0.036-0.159c0 0.083-0.036 0.165-0.062 0.247-0.298 1.149-0.631 2.119-1.028 3.054l0.054-0.142c-1.165 2.749-2.744 5.101-4.686 7.098l0.005-0.005c-0.088 0.088-0.16 0.186-0.247 0.273l-23.515 23.515c-0.676 0.672-1.397 1.3-2.158 1.879l-0.053 0.038c-0.108 0.088-0.217 0.16-0.33 0.242-0.662 0.498-1.418 1.001-2.202 1.46l-0.113 0.061c-1.641 0.951-3.538 1.736-5.543 2.254l-0.158 0.035c-0.699 0.19-1.586 0.37-2.489 0.5l-0.13 0.015-0.299 0.041c-0.814 0.111-1.758 0.177-2.717 0.18h-0.004c-0.958-0.008-1.894-0.071-2.812-0.187l0.117 0.012c-1.031-0.125-1.936-0.295-2.82-0.517l0.155 0.033-0.217-0.052c-2.935-0.745-5.508-1.968-7.768-3.598l0.067 0.046c-0.515-0.35-0.985-0.722-1.459-1.113s-0.995-0.85-1.464-1.325c-1.681-1.668-3.095-3.602-4.174-5.734l-0.058-0.126c-0.093-0.186-0.175-0.381-0.263-0.572-0.289-0.608-0.552-1.227-0.778-1.85-0.088-0.237-0.17-0.469-0.247-0.706-0.211-0.644-0.392-1.294-0.546-1.948-0.046-0.191-0.098-0.376-0.139-0.562-0.156-0.699-0.295-1.578-0.388-2.471l-0.009-0.106c-0.059-0.619-0.092-1.338-0.092-2.065 0-2.231 0.316-4.388 0.906-6.428l-0.040 0.163c0.554-1.947 1.287-3.645 2.207-5.22l-0.057 0.106c0.52-0.902 1.023-1.661 1.566-2.388l-0.045 0.063 0.237-0.325c0.621-0.813 1.25-1.535 1.924-2.212l-0.001 0.001 1.619-1.624 8.68-8.722 5.892-5.892z"></path>
</svg>
