
<svg version="1.1" xmlns="http://www.w3.org/2000/svg" width="50" height="100" viewBox="0 0 50 100">
<title>blanket</title>
<path fill="param(fill) #000" stroke="param(outline) #000" stroke-width="param(outline-width) 1" d="M2.083 16.667h45.833c1.151 0 2.083 0.933 2.083 2.083v62.5c0 1.151-0.933 2.083-2.083 2.083h-45.833c-1.151 0-2.083-0.933-2.083-2.083v-62.5c0-1.151 0.933-2.083 2.083-2.083z"></path>
<path fill="param(fill) #000" stroke="param(outline) #000" stroke-width="param(outline-width) 1" d="M50 6.25v-3.125c0-1.726-1.399-3.125-3.125-3.125s-3.125 1.399-3.125 3.125v0 3.125h-8.333v-3.125c0-1.726-1.399-3.125-3.125-3.125s-3.125 1.399-3.125 3.125v0 3.125l-8.333-0v-3.125c0-1.726-1.399-3.125-3.125-3.125s-3.125 1.399-3.125 3.125v0 3.125l-8.333-0v-3.125c0-1.726-1.399-3.125-3.125-3.125s-3.125 1.399-3.125 3.125v0 4.167l0.003 0.029v3.096c0 1.151 0.933 2.083 2.083 2.083l45.833 0c1.151 0 2.083-0.933 2.083-2.083v0-4.167z"></path>
<path fill="param(fill) #000" stroke="param(outline) #000" stroke-width="param(outline-width) 1" d="M50 89.584c0-1.151-0.933-2.083-2.083-2.083v0l-45.833-0c-1.151 0-2.083 0.933-2.083 2.083v0 4.167h0.003v3.125c0 1.726 1.399 3.125 3.125 3.125s3.125-1.399 3.125-3.125v0-3.125h8.333v3.125c0 1.726 1.399 3.125 3.125 3.125s3.125-1.399 3.125-3.125v0-3.125h8.333v3.125c0 1.726 1.399 3.125 3.125 3.125s3.125-1.399 3.125-3.125v0-3.125l8.333 0v3.125c0 1.726 1.399 3.125 3.125 3.125s3.125-1.399 3.125-3.125v0-4.167l-0.003-0.029z"></path>
</svg>
