
<svg version="1.1" xmlns="http://www.w3.org/2000/svg" width="95" height="100" viewBox="0 0 95 100">
<title>blog</title>
<path fill="param(fill) #000" stroke="param(outline) #000" stroke-width="param(outline-width) 1" d="M77.253 0h-59.076c-10.039 0-18.177 8.138-18.177 18.177v0 43.171c0 10.039 8.138 18.177 18.177 18.177v0h31.811l20.005 20.006c0.288 0.288 0.685 0.466 1.125 0.466 0.878 0 1.59-0.712 1.591-1.59v0l0.001-18.882h4.544c10.039 0 18.177-8.138 18.177-18.177v0-43.171c0-10.039-8.138-18.177-18.177-18.177v0zM73.844 61.348h-52.259c-1.882 0-3.408-1.526-3.408-3.408s1.526-3.408 3.408-3.408v0h52.259c1.882 0 3.408 1.526 3.408 3.408s-1.526 3.408-3.408 3.408v0zM73.844 43.171h-52.259c-1.882 0-3.408-1.526-3.408-3.408s1.526-3.408 3.408-3.408v0h52.259c1.882 0 3.408 1.526 3.408 3.408s-1.526 3.408-3.408 3.408v0zM73.844 24.994h-52.259c-1.882 0-3.408-1.526-3.408-3.408s1.526-3.408 3.408-3.408v0h52.259c1.882 0 3.408 1.526 3.408 3.408s-1.526 3.408-3.408 3.408v0z"></path>
</svg>
