
<svg version="1.1" xmlns="http://www.w3.org/2000/svg" width="100" height="100" viewBox="0 0 100 100">
<title>boat</title>
<path fill="param(fill) #000" stroke="param(outline) #000" stroke-width="param(outline-width) 1" d="M8.294 75h25.082c0 0 0 0 0 0 1.127 0 2.041-0.914 2.041-2.041v0-37.543c0-0 0-0 0-0 0-1.127-0.914-2.041-2.041-2.041-0.706 0-1.328 0.358-1.694 0.903l-0.005 0.007-25.082 37.543c-0.214 0.318-0.342 0.709-0.342 1.131 0 1.127 0.914 2.041 2.041 2.041v0z"></path>
<path fill="param(fill) #000" stroke="param(outline) #000" stroke-width="param(outline-width) 1" d="M41.668 75h49.984c0.002 0 0.004 0 0.006 0 1.156 0 2.092-0.937 2.092-2.092 0-0.010-0-0.021-0-0.031v0.002c-0.875-38.296-25.328-71.286-52.014-72.874-0.025-0.001-0.055-0.002-0.085-0.002-1.142 0-2.068 0.926-2.068 2.068 0 0.006 0 0.012 0 0.018v-0.001 70.833c0.001 1.149 0.933 2.080 2.083 2.080 0.001 0 0.001 0 0.002 0h-0z"></path>
<path fill="param(fill) #000" stroke="param(outline) #000" stroke-width="param(outline-width) 1" d="M95.834 81.25h-91.667c-2.301 0-4.167 1.866-4.167 4.167v0c0 0 0 0 0 0 0 8.054 6.529 14.583 14.583 14.583 0 0 0 0 0 0h70.834c0 0 0 0 0 0 8.054 0 14.583-6.529 14.583-14.583 0-0 0-0 0-0v0c-0-2.301-1.866-4.167-4.167-4.167v0z"></path>
</svg>
