
<svg version="1.1" xmlns="http://www.w3.org/2000/svg" width="76" height="100" viewBox="0 0 76 100">
<title>bookmark</title>
<path fill="param(fill) #000" stroke="param(outline) #000" stroke-width="param(outline-width) 1" d="M72.181 99.351l-32.457-30.429c-0.425-0.399-0.998-0.644-1.628-0.644s-1.204 0.245-1.63 0.645l0.001-0.001-32.457 30.429c-0.425 0.399-0.998 0.644-1.628 0.644-1.315 0-2.381-1.066-2.381-2.381 0 0 0 0 0 0v0-97.614h76.19v97.614c0 0 0 0 0 0 0 1.315-1.066 2.381-2.381 2.381-0.63 0-1.204-0.245-1.63-0.645l0.001 0.001z"></path>
</svg>
