
<svg version="1.1" xmlns="http://www.w3.org/2000/svg" width="100" height="100" viewBox="0 0 100 100">
<title>border-crossing</title>
<path fill="param(fill) #000" stroke="param(outline) #000" stroke-width="param(outline-width) 1" d="M83.333 39.583h16.667v18.75h-16.667v-18.75z"></path>
<path fill="param(fill) #000" stroke="param(outline) #000" stroke-width="param(outline-width) 1" d="M41.667 39.583h16.667v18.75h-16.667v-18.75z"></path>
<path fill="param(fill) #000" stroke="param(outline) #000" stroke-width="param(outline-width) 1" d="M0 39.583h16.667v18.75h-16.667v-18.75z"></path>
<path fill="param(fill) #000" stroke="param(outline) #000" stroke-width="param(outline-width) 1" d="M85.164 29.419c1.131 1.131 2.693 1.83 4.419 1.83 3.451 0 6.249-2.798 6.249-6.249 0-1.726-0.7-3.288-1.83-4.419l-18.742-18.742c-0.288-0.287-0.603-0.547-0.942-0.775l-0.023-0.014c-0.139-0.093-0.29-0.155-0.434-0.235-0.176-0.109-0.386-0.221-0.603-0.322l-0.038-0.016c-0.156-0.061-0.359-0.125-0.566-0.179l-0.042-0.009c-0.186-0.055-0.364-0.127-0.557-0.165-0.368-0.077-0.79-0.12-1.223-0.12s-0.855 0.044-1.263 0.127l0.040-0.007c-0.193 0.039-0.372 0.11-0.558 0.166-0.249 0.063-0.452 0.128-0.649 0.202l0.042-0.014c-0.256 0.117-0.467 0.229-0.67 0.354l0.027-0.015c-0.143 0.080-0.293 0.142-0.431 0.234-0.361 0.242-0.677 0.502-0.964 0.789l-18.742 18.742c-1.131 1.131-1.83 2.693-1.83 4.419 0 3.451 2.798 6.249 6.249 6.249 1.726 0 3.288-0.7 4.419-1.83l8.081-8.081v72.412c0 3.452 2.798 6.25 6.25 6.25s6.25-2.798 6.25-6.25v0-72.412z"></path>
<path fill="param(fill) #000" stroke="param(outline) #000" stroke-width="param(outline-width) 1" d="M43.498 70.581l-8.081 8.081v-72.412c0-3.452-2.798-6.25-6.25-6.25s-6.25 2.798-6.25 6.25v0 72.412l-8.081-8.081c-1.131-1.131-2.693-1.83-4.419-1.83-3.451 0-6.249 2.798-6.249 6.249 0 1.726 0.7 3.288 1.83 4.419l18.742 18.742c0.288 0.288 0.603 0.547 0.942 0.775l0.023 0.014c0.138 0.092 0.288 0.154 0.431 0.234 0.176 0.109 0.387 0.222 0.605 0.323l0.038 0.016c0.156 0.061 0.358 0.125 0.565 0.179l0.042 0.009c0.186 0.056 0.365 0.127 0.558 0.166 0.368 0.078 0.79 0.123 1.223 0.123s0.855-0.045 1.263-0.13l-0.040 0.007c0.193-0.038 0.371-0.11 0.557-0.165 0.25-0.063 0.453-0.128 0.65-0.203l-0.042 0.014c0.255-0.116 0.465-0.228 0.667-0.352l-0.027 0.015c0.144-0.080 0.295-0.143 0.434-0.235 0.361-0.242 0.676-0.502 0.964-0.789l18.742-18.742c1.131-1.131 1.83-2.693 1.83-4.419 0-3.451-2.798-6.249-6.249-6.249-1.726 0-3.288 0.7-4.419 1.83v0z"></path>
</svg>
