
<svg version="1.1" xmlns="http://www.w3.org/2000/svg" width="100" height="100" viewBox="0 0 100 100">
<title>borehole</title>
<path fill="param(fill) #000" stroke="param(outline) #000" stroke-width="param(outline-width) 1" d="M97.917 25h-31.25v43.75c0 9.205-7.462 16.667-16.667 16.667s-16.667-7.462-16.667-16.667v0-43.75h-31.25c-1.149 0.003-2.080 0.934-2.083 2.083v70.834c0.003 1.149 0.934 2.080 2.083 2.083h95.834c1.149-0.003 2.080-0.934 2.083-2.083v-70.834c-0.003-1.149-0.934-2.080-2.083-2.083h-0z"></path>
<path fill="param(fill) #000" stroke="param(outline) #000" stroke-width="param(outline-width) 1" d="M50 77.083c0.008 0 0.018 0 0.028 0 5.737 0 10.388-4.651 10.388-10.388 0-3.417-1.65-6.449-4.196-8.342l-0.028-0.020h0.057v-52.083c0-3.452-2.798-6.25-6.25-6.25s-6.25 2.798-6.25 6.25v0 52.083h0.057c-2.574 1.913-4.224 4.945-4.224 8.362 0 5.737 4.651 10.388 10.388 10.388 0.010 0 0.020 0 0.030 0h-0.002z"></path>
</svg>
