
<svg version="1.1" xmlns="http://www.w3.org/2000/svg" width="100" height="100" viewBox="0 0 100 100">
<title>bridge-affected</title>
<path fill="param(fill) #000" stroke="param(outline) #000" stroke-width="param(outline-width) 1" d="M20.833 41.667c11.506 0 20.833-9.327 20.833-20.833s-9.327-20.833-20.833-20.833c-11.506 0-20.833 9.327-20.833 20.833v0c0.004 11.504 9.329 20.829 20.833 20.833h0zM18.75 8.333c0-1.151 0.933-2.083 2.083-2.083s2.083 0.933 2.083 2.083v0 16.667c0 1.151-0.933 2.083-2.083 2.083s-2.083-0.933-2.083-2.083v0zM20.833 31.25c1.151 0 2.083 0.933 2.083 2.083s-0.933 2.083-2.083 2.083c-1.151 0-2.083-0.933-2.083-2.083v0c0.003-1.149 0.934-2.080 2.083-2.083h0z"></path>
<path fill="param(fill) #000" stroke="param(outline) #000" stroke-width="param(outline-width) 1" d="M0 50v14.583c0.001 0 0.003 0 0.004 0 9.202 0 16.662 7.46 16.662 16.662 0 0.002 0 0.003 0 0.005v-0 18.75h16.667v-18.75c0-9.205 7.462-16.667 16.667-16.667s16.667 7.462 16.667 16.667v0 18.75h16.667v-18.75c0-0.001 0-0.003 0-0.004 0-9.202 7.46-16.662 16.662-16.662 0.002 0 0.003 0 0.005 0h-0v-14.583z"></path>
</svg>
