
<svg version="1.1" xmlns="http://www.w3.org/2000/svg" width="100" height="100" viewBox="0 0 100 100">
<title>bridge-destroyed</title>
<path fill="param(fill) #000" stroke="param(outline) #000" stroke-width="param(outline-width) 1" d="M20.833 41.667c11.506 0 20.833-9.327 20.833-20.833s-9.327-20.833-20.833-20.833c-11.506 0-20.833 9.327-20.833 20.833v0c0.004 11.504 9.329 20.829 20.833 20.833h0zM11.021 13.979c-0.379-0.379-0.613-0.902-0.613-1.479 0-1.155 0.937-2.092 2.092-2.092 0.578 0 1.101 0.234 1.479 0.613l6.854 6.854 6.854-6.854c0.379-0.379 0.902-0.613 1.479-0.613 1.155 0 2.092 0.937 2.092 2.092 0 0.578-0.234 1.101-0.613 1.479l-6.854 6.854 6.854 6.854c0.377 0.379 0.61 0.902 0.61 1.479s-0.233 1.1-0.61 1.479l0-0c-0.381 0.374-0.903 0.604-1.479 0.604s-1.098-0.231-1.479-0.605l-6.854-6.854-6.854 6.854c-0.381 0.374-0.903 0.604-1.479 0.604s-1.098-0.231-1.479-0.605l0 0c-0.377-0.379-0.61-0.902-0.61-1.479s0.233-1.1 0.61-1.479l6.854-6.854z"></path>
<path fill="param(fill) #000" stroke="param(outline) #000" stroke-width="param(outline-width) 1" d="M0 50v14.583c0.001 0 0.003 0 0.004 0 9.202 0 16.662 7.46 16.662 16.662 0 0.002 0 0.003 0 0.005v-0 18.75h16.667v-18.75c0-9.205 7.462-16.667 16.667-16.667s16.667 7.462 16.667 16.667v0 18.75h16.667v-18.75c0-0.001 0-0.003 0-0.004 0-9.202 7.46-16.662 16.662-16.662 0.002 0 0.003 0 0.005 0h-0v-14.583z"></path>
</svg>
