
<svg version="1.1" xmlns="http://www.w3.org/2000/svg" width="79" height="100" viewBox="0 0 79 100">
<title>bucket</title>
<path fill="param(fill) #000" stroke="param(outline) #000" stroke-width="param(outline-width) 1" d="M4.374 57.163l9.993 39.969c0.548 1.679 2.1 2.872 3.931 2.872 0.069 0 0.137-0.002 0.206-0.005l-0.010 0h41.336c0.057 0.003 0.123 0.004 0.19 0.004 1.811 0 3.351-1.163 3.912-2.784l0.009-0.029 11.060-40.941h-70.833z"></path>
<path fill="param(fill) #000" stroke="param(outline) #000" stroke-width="param(outline-width) 1" d="M75 43.75h-70.833c-2.301 0-4.167 1.866-4.167 4.167s1.866 4.167 4.167 4.167v0h70.833c2.301 0 4.167-1.866 4.167-4.167s-1.866-4.167-4.167-4.167v0z"></path>
<path fill="param(fill) #000" stroke="param(outline) #000" stroke-width="param(outline-width) 1" d="M8.333 39.583c2.301-0 4.167-1.866 4.167-4.167v0c0-14.958 12.126-27.083 27.083-27.083s27.083 12.126 27.083 27.083v0c0 2.301 1.866 4.167 4.167 4.167s4.167-1.866 4.167-4.167v0c0-19.56-15.857-35.417-35.417-35.417s-35.417 15.857-35.417 35.417v0c0 2.301 1.866 4.167 4.167 4.167v0z"></path>
</svg>
