
<svg version="1.1" xmlns="http://www.w3.org/2000/svg" width="100" height="100" viewBox="0 0 100 100">
<title>buddhist-temple</title>
<path fill="param(fill) #000" stroke="param(outline) #000" stroke-width="param(outline-width) 1" d="M96.875 93.75h-93.75c-1.726 0-3.125 1.399-3.125 3.125s1.399 3.125 3.125 3.125v0h93.75c1.726 0 3.125-1.399 3.125-3.125s-1.399-3.125-3.125-3.125v0z"></path>
<path fill="param(fill) #000" stroke="param(outline) #000" stroke-width="param(outline-width) 1" d="M11.458 89.583h77.083c1.726 0 3.125-1.399 3.125-3.125s-1.399-3.125-3.125-3.125v0h-77.083c-1.726 0-3.125 1.399-3.125 3.125s1.399 3.125 3.125 3.125v0z"></path>
<path fill="param(fill) #000" stroke="param(outline) #000" stroke-width="param(outline-width) 1" d="M10.417 66.667h79.167c1.151-0 2.083-0.933 2.083-2.083 0-0.471-0.157-0.906-0.421-1.255l0.004 0.005-9.375-12.5c-0.384-0.508-0.987-0.833-1.667-0.833 0 0 0 0 0 0h-60.417c0 0 0 0 0 0-0.679 0-1.282 0.325-1.663 0.828l-0.004 0.005-9.375 12.5c-0.26 0.344-0.417 0.779-0.417 1.25 0 1.151 0.933 2.083 2.083 2.083v0z"></path>
<path fill="param(fill) #000" stroke="param(outline) #000" stroke-width="param(outline-width) 1" d="M18.75 45.833h62.5c1.151-0 2.083-0.933 2.083-2.083 0-0.471-0.157-0.906-0.421-1.255l0.004 0.005-9.375-12.5c-0.384-0.508-0.987-0.833-1.667-0.833 0 0 0 0 0 0h-43.75c0 0 0 0 0 0-0.679 0-1.282 0.325-1.663 0.828l-0.004 0.005-9.375 12.5c-0.26 0.344-0.417 0.779-0.417 1.25 0 1.151 0.933 2.083 2.083 2.083v0z"></path>
<path fill="param(fill) #000" stroke="param(outline) #000" stroke-width="param(outline-width) 1" d="M25.003 25h49.997c0 0 0 0 0 0 1.151 0 2.083-0.933 2.083-2.083 0-0.387-0.105-0.749-0.289-1.059l0.005 0.010-11.613-20.833c-0.368-0.622-1.036-1.033-1.8-1.033h-26.774c-0.764 0-1.431 0.411-1.794 1.024l-0.005 0.010-11.61 20.833c-0.178 0.301-0.284 0.663-0.284 1.050 0 1.151 0.933 2.083 2.083 2.083 0 0 0 0 0 0v0z"></path>
<path fill="param(fill) #000" stroke="param(outline) #000" stroke-width="param(outline-width) 1" d="M72.917 70.833h8.333c1.151 0 2.083 0.933 2.083 2.083v4.167c0 1.151-0.933 2.083-2.083 2.083h-8.333c-1.151 0-2.083-0.933-2.083-2.083v-4.167c0-1.151 0.933-2.083 2.083-2.083z"></path>
<path fill="param(fill) #000" stroke="param(outline) #000" stroke-width="param(outline-width) 1" d="M18.75 70.833h8.333c1.151 0 2.083 0.933 2.083 2.083v4.167c0 1.151-0.933 2.083-2.083 2.083h-8.333c-1.151 0-2.083-0.933-2.083-2.083v-4.167c0-1.151 0.933-2.083 2.083-2.083z"></path>
<path fill="param(fill) #000" stroke="param(outline) #000" stroke-width="param(outline-width) 1" d="M45.833 70.833h8.333c1.151 0 2.083 0.933 2.083 2.083v4.167c0 1.151-0.933 2.083-2.083 2.083h-8.333c-1.151 0-2.083-0.933-2.083-2.083v-4.167c0-1.151 0.933-2.083 2.083-2.083z"></path>
</svg>
