
<svg version="1.1" xmlns="http://www.w3.org/2000/svg" width="67" height="100" viewBox="0 0 67 100">
<title>building</title>
<path fill="param(fill) #000" stroke="param(outline) #000" stroke-width="param(outline-width) 1" d="M62.5 12.5h-58.333c-2.298 0.007-4.16 1.868-4.167 4.166v45.834h66.667v-45.833c-0.007-2.298-1.868-4.16-4.166-4.167h-0.001zM20.833 43.75c-0.003 1.149-0.934 2.080-2.083 2.083h-8.334c-1.149-0.003-2.080-0.934-2.083-2.083v-16.667c0.003-1.149 0.934-2.080 2.083-2.083h8.334c1.149 0.003 2.080 0.934 2.083 2.083v0zM39.583 43.75c-0.003 1.149-0.934 2.080-2.083 2.083h-8.334c-1.149-0.003-2.080-0.934-2.083-2.083v-16.667c0.003-1.149 0.934-2.080 2.083-2.083h8.334c1.149 0.003 2.080 0.934 2.083 2.083v0zM58.333 43.75c-0.003 1.149-0.934 2.080-2.083 2.083h-8.334c-1.149-0.003-2.080-0.934-2.083-2.083v-16.667c0.003-1.149 0.934-2.080 2.083-2.083h8.334c1.149 0.003 2.080 0.934 2.083 2.083v0z"></path>
<path fill="param(fill) #000" stroke="param(outline) #000" stroke-width="param(outline-width) 1" d="M12.5 8.333h41.667c2.301 0 4.167-1.866 4.167-4.167s-1.866-4.167-4.167-4.167v0h-41.667c-2.301 0-4.167 1.866-4.167 4.167s1.866 4.167 4.167 4.167v0z"></path>
<path fill="param(fill) #000" stroke="param(outline) #000" stroke-width="param(outline-width) 1" d="M0 100h25v-20.833c0.007-2.298 1.868-4.16 4.166-4.167h8.334c2.298 0.007 4.16 1.868 4.167 4.166v20.834h25v-33.333h-66.667z"></path>
</svg>
