
<svg version="1.1" xmlns="http://www.w3.org/2000/svg" width="100" height="100" viewBox="0 0 100 100">
<title>bus</title>
<path fill="param(fill) #000" stroke="param(outline) #000" stroke-width="param(outline-width) 1" d="M97.727 15.909h-2.273v-8.863c-0.020-3.883-3.162-7.026-7.044-7.046h-76.82c-3.883 0.020-7.026 3.163-7.045 7.044v8.865h-2.273c-1.254 0.004-2.269 1.019-2.273 2.272v27.273c0.004 1.254 1.019 2.269 2.272 2.273h2.273v36.136c0.011 3.803 3.033 6.896 6.807 7.023l0.012 0v3.431c0 3.138 2.544 5.682 5.682 5.682s5.682-2.544 5.682-5.682v0-3.409h56.818v3.409c0 3.138 2.544 5.682 5.682 5.682s5.682-2.544 5.682-5.682v0-3.864c2.667-1.057 4.523-3.604 4.545-6.588v-36.139h2.273c1.254-0.004 2.269-1.019 2.273-2.272v-27.273c-0.004-1.254-1.019-2.269-2.272-2.273h-0zM11.364 9.091c0.004-1.254 1.019-2.269 2.272-2.273h72.728c1.254 0.004 2.269 1.019 2.273 2.272v2.273c-0.004 1.254-1.019 2.269-2.272 2.273h-72.728c-1.254-0.004-2.269-1.019-2.273-2.272v-0zM20.455 80.682c-0.938 0.709-2.124 1.136-3.409 1.136h-0c-0.013 0-0.029 0-0.045 0-1.263 0-2.427-0.428-3.354-1.146l0.012 0.009c-1.386-1.045-2.273-2.689-2.273-4.54 0-3.132 2.539-5.67 5.67-5.67s5.67 2.539 5.67 5.67c0 1.851-0.887 3.494-2.258 4.529l-0.014 0.010zM45.455 52.273c-0.004 1.254-1.019 2.269-2.272 2.273h-29.546c-1.254-0.004-2.269-1.019-2.273-2.272v-27.273c0.004-1.254 1.019-2.269 2.272-2.273h29.546c1.254 0.004 2.269 1.019 2.273 2.272v0zM54.545 52.273v-27.273c0.004-1.254 1.019-2.269 2.272-2.273h29.546c1.254 0.004 2.269 1.019 2.273 2.272v27.273c-0.004 1.254-1.019 2.269-2.272 2.273h-29.546c-1.254-0.004-2.269-1.019-2.273-2.272v-0zM88.636 80.682c-0.938 0.709-2.124 1.136-3.409 1.136h-0c-0.013 0-0.029 0-0.045 0-1.263 0-2.427-0.428-3.354-1.146l0.013 0.009c-1.386-1.045-2.273-2.689-2.273-4.54 0-3.132 2.539-5.67 5.67-5.67s5.67 2.539 5.67 5.67c0 1.851-0.887 3.494-2.258 4.529l-0.014 0.010z"></path>
</svg>
