
<svg version="1.1" xmlns="http://www.w3.org/2000/svg" width="88" height="100" viewBox="0 0 88 100">
<title>calendar</title>
<path fill="param(fill) #000" stroke="param(outline) #000" stroke-width="param(outline-width) 1" d="M83.333 12.5h-10.417v5.208c0 4.027-3.265 7.292-7.292 7.292s-7.292-3.265-7.292-7.292v0-5.208h-27.083v5.208c0 4.027-3.265 7.292-7.292 7.292s-7.292-3.265-7.292-7.292v0-5.208h-12.5c-0.004 0-0.009 0-0.014 0-2.293 0-4.152 1.859-4.152 4.152 0 0.005 0 0.010 0 0.015v-0.001 79.167c0 0.004 0 0.009 0 0.014 0 2.293 1.859 4.152 4.152 4.152 0.005 0 0.010 0 0.015 0h79.166c0.004 0 0.009 0 0.014 0 2.293 0 4.152-1.859 4.152-4.152 0-0.005 0-0.010 0-0.015v0.001-79.167c0-0.004 0-0.009 0-0.014 0-2.293-1.859-4.152-4.152-4.152-0.005 0-0.010 0-0.015 0h0.001zM79.167 91.667h-70.833v-54.167h70.833z"></path>
<path fill="param(fill) #000" stroke="param(outline) #000" stroke-width="param(outline-width) 1" d="M23.958 20.833c0.001 0 0.003 0 0.004 0 1.724 0 3.121-1.397 3.121-3.121 0-0.001 0-0.003 0-0.004v0-14.583c0-1.726-1.399-3.125-3.125-3.125s-3.125 1.399-3.125 3.125v0 14.583c0 0.001 0 0.003 0 0.004 0 1.724 1.397 3.121 3.121 3.121 0.001 0 0.003 0 0.004 0h-0z"></path>
<path fill="param(fill) #000" stroke="param(outline) #000" stroke-width="param(outline-width) 1" d="M65.625 20.833c0.001 0 0.003 0 0.004 0 1.724 0 3.121-1.397 3.121-3.121 0-0.001 0-0.003 0-0.004v0-14.583c0-1.726-1.399-3.125-3.125-3.125s-3.125 1.399-3.125 3.125v0 14.583c0 0.001 0 0.003 0 0.004 0 1.724 1.397 3.121 3.121 3.121 0.001 0 0.003 0 0.004 0h-0z"></path>
<path fill="param(fill) #000" stroke="param(outline) #000" stroke-width="param(outline-width) 1" d="M39.042 63.583l-10.979 10.313c-0.6 0.549-0.975 1.335-0.979 2.208v0.001c0.008 0.873 0.383 1.657 0.977 2.206l0.002 0.002c0.62 0.562 1.447 0.906 2.354 0.906s1.734-0.344 2.357-0.909l-0.003 0.003 10.979-10.313 10.979 10.313c0.625 0.568 1.459 0.916 2.375 0.917h0c0.003 0 0.007 0 0.011 0 0.899 0 1.717-0.349 2.325-0.919l-0.002 0.002c0.605-0.546 0.984-1.333 0.984-2.208s-0.379-1.663-0.982-2.206l-0.003-0.002-10.979-10.312 10.979-10.312c0.596-0.551 0.971-1.335 0.979-2.207v-0.001c-0.004-0.874-0.379-1.659-0.977-2.206l-0.002-0.002c-0.616-0.571-1.444-0.922-2.354-0.922s-1.738 0.35-2.356 0.924l0.002-0.002-10.979 10.312-10.979-10.333c-0.605-0.568-1.421-0.917-2.319-0.917-0.012 0-0.025 0-0.037 0h0.002c-0.014-0-0.032-0-0.049-0-0.894 0-1.706 0.349-2.307 0.918l0.002-0.001c-0.605 0.546-0.984 1.333-0.984 2.208s0.379 1.663 0.982 2.206l0.003 0.002z"></path>
</svg>
