
<svg version="1.1" xmlns="http://www.w3.org/2000/svg" width="109" height="100" viewBox="0 0 109 100">
<title>camp-coordination-and-camp-management</title>
<path fill="param(fill) #000" stroke="param(outline) #000" stroke-width="param(outline-width) 1" d="M10.202 40.011l44.348-25.341 44.342 25.34c0.971 0.565 2.138 0.898 3.382 0.898 3.765 0 6.818-3.052 6.818-6.818 0-2.521-1.368-4.722-3.402-5.902l-0.033-0.017-47.724-27.273c-0.972-0.565-2.139-0.899-3.383-0.899s-2.41 0.333-3.414 0.915l0.033-0.017-47.731 27.273c-2.068 1.197-3.436 3.399-3.436 5.921 0 3.766 3.053 6.819 6.819 6.819 1.244 0 2.411-0.333 3.415-0.916l-0.033 0.017z"></path>
<path fill="param(fill) #000" stroke="param(outline) #000" stroke-width="param(outline-width) 1" d="M86.368 61.423c-0.191-0.006-0.416-0.009-0.642-0.009-7.961 0-14.958 4.128-18.968 10.36l-0.054 0.089c-2.811-3.69-7.207-6.048-12.154-6.048-4.949 0-9.346 2.359-12.13 6.014l-0.027 0.037c-4.063-6.323-11.061-10.453-19.023-10.453-0.226 0-0.451 0.003-0.676 0.010l0.033-0.001c-12.954 0-22.723 9.236-22.723 21.483 0 1.883 1.526 3.409 3.409 3.409s3.409-1.526 3.409-3.409v0c-0-0.027-0-0.058-0-0.090 0-5.102 2.704-9.573 6.757-12.057l0.062-0.035v20.184c0 5.021 4.070 9.091 9.091 9.091s9.091-4.070 9.091-9.091v0-20.179c4.11 2.52 6.811 6.988 6.811 12.087 0 0.031-0 0.063-0 0.094v-0.005c0 1.883 1.526 3.409 3.409 3.409s3.409-1.526 3.409-3.409v0l-0.003-0.059 0.003-0.029c0-0.010-0-0.021-0-0.033 0-2.516 0.86-4.83 2.301-6.667l-0.018 0.023v7.952c0 3.764 3.051 6.815 6.815 6.815s6.815-3.051 6.815-6.815v-7.954c1.425 1.813 2.285 4.129 2.285 6.646 0 0.012 0 0.023-0 0.035v-0.002c-0 0.030-0.005 0.059-0.005 0.089 0 1.883 1.526 3.409 3.409 3.409s3.409-1.526 3.409-3.409v0c-0-0.019-0-0.041-0-0.064 0-5.661 3.308-10.549 8.096-12.838l0.086-0.037-3.643 16.396c-0.119 0.622-0.187 1.338-0.187 2.069 0 6.389 5.179 11.568 11.568 11.568s11.568-5.179 11.568-11.568c0-0.731-0.068-1.447-0.198-2.141l0.011 0.072-3.671-16.396c4.874 2.326 8.182 7.214 8.182 12.876 0 0.022-0 0.044-0 0.066v-0.003c0 1.883 1.526 3.409 3.409 3.409s3.409-1.526 3.409-3.409v0c0-12.247-9.769-21.483-22.724-21.483z"></path>
<path fill="param(fill) #000" stroke="param(outline) #000" stroke-width="param(outline-width) 1" d="M93.187 50c0 3.766-3.053 6.818-6.818 6.818s-6.818-3.053-6.818-6.818c0-3.766 3.053-6.818 6.818-6.818s6.818 3.053 6.818 6.818z"></path>
<path fill="param(fill) #000" stroke="param(outline) #000" stroke-width="param(outline-width) 1" d="M29.548 50c0 3.766-3.053 6.818-6.818 6.818s-6.818-3.053-6.818-6.818c0-3.766 3.053-6.818 6.818-6.818s6.818 3.053 6.818 6.818z"></path>
<path fill="param(fill) #000" stroke="param(outline) #000" stroke-width="param(outline-width) 1" d="M48.855 55.67c0 3.144 2.549 5.693 5.694 5.693s5.694-2.549 5.694-5.694c0-3.145-2.549-5.694-5.694-5.694v0c0 0-0 0-0 0-3.144 0-5.694 2.549-5.694 5.694 0 0 0 0 0 0v0z"></path>
</svg>
