
<svg version="1.1" xmlns="http://www.w3.org/2000/svg" width="117" height="100" viewBox="0 0 117 100">
<title>car</title>
<path fill="param(fill) #000" stroke="param(outline) #000" stroke-width="param(outline-width) 1" d="M107.317 39.024v-12.195c-0.017-14.81-12.019-26.812-26.828-26.829h-41.391c-0.002 0-0.004 0-0.006 0-14.831 0-26.858 12.004-26.897 26.826v12.199h-2.439c-0.001 0-0.002 0-0.002 0-5.387 0-9.754 4.367-9.754 9.754 0 0.001 0 0.002 0 0.003v-0 24.39c0 0.001 0 0.002 0 0.002 0 5.387 4.367 9.754 9.754 9.754 0.001 0 0.002 0 0.003 0h-0v7.317c0 5.388 4.368 9.756 9.756 9.756s9.756-4.368 9.756-9.756v0-7.317h58.537v7.317c0 5.388 4.368 9.756 9.756 9.756s9.756-4.368 9.756-9.756v0-7.317c0.001 0 0.002 0 0.002 0 5.387 0 9.754-4.367 9.754-9.754 0-0.001 0-0.002 0-0.003v0-24.39c0-0.001 0-0.002 0-0.002 0-5.387-4.367-9.754-9.754-9.754-0.001 0-0.002 0-0.003 0h0zM26.829 26.829c0.029-6.742 5.501-12.195 12.247-12.195 0.008 0 0.016 0 0.024 0h41.388c6.732 0.008 12.187 5.463 12.195 12.194v12.196h-65.854zM21.951 68.293c-4.041 0-7.317-3.276-7.317-7.317s3.276-7.317 7.317-7.317c4.041 0 7.317 3.276 7.317 7.317v0c0 0.003 0 0.006 0 0.010 0 4.036-3.271 7.307-7.307 7.307-0.004 0-0.007 0-0.010 0h0.001zM95.122 53.658c4.041 0 7.317 3.276 7.317 7.317s-3.276 7.317-7.317 7.317c-4.041 0-7.317-3.276-7.317-7.317v0c0-0.003 0-0.006 0-0.010 0-4.036 3.271-7.307 7.307-7.307 0.004 0 0.007 0 0.010 0h-0.001z"></path>
</svg>
