
<svg version="1.1" xmlns="http://www.w3.org/2000/svg" width="100" height="100" viewBox="0 0 100 100">
<title>carjacking</title>
<path fill="param(fill) #000" stroke="param(outline) #000" stroke-width="param(outline-width) 1" d="M50 29.167c2.301-0 4.167-1.866 4.167-4.167v0-20.833c0-2.301-1.866-4.167-4.167-4.167s-4.167 1.866-4.167 4.167v0 20.833c0 2.301 1.866 4.167 4.167 4.167v0z"></path>
<path fill="param(fill) #000" stroke="param(outline) #000" stroke-width="param(outline-width) 1" d="M98.969 11.839c-0.768-0.874-1.887-1.422-3.135-1.422-1.053 0-2.016 0.391-2.749 1.036l0.005-0.004-16.667 14.583c-0.874 0.768-1.422 1.887-1.422 3.135 0 2.301 1.866 4.167 4.167 4.167 1.053 0 2.016-0.391 2.749-1.036l-0.005 0.004 16.667-14.583c0.874-0.768 1.422-1.887 1.422-3.135 0-1.053-0.391-2.016-1.036-2.749l0.004 0.005z"></path>
<path fill="param(fill) #000" stroke="param(outline) #000" stroke-width="param(outline-width) 1" d="M20.831 33.333c0.001 0 0.001 0 0.002 0 2.301 0 4.167-1.866 4.167-4.167 0-1.248-0.549-2.367-1.418-3.131l-0.005-0.004-16.667-14.583c-0.729-0.641-1.691-1.032-2.745-1.032-2.301 0-4.167 1.866-4.167 4.167 0 1.248 0.549 2.367 1.417 3.131l0.005 0.004 16.667 14.583c0.728 0.641 1.688 1.032 2.74 1.032 0.001 0 0.001 0 0.002 0h-0z"></path>
<path fill="param(fill) #000" stroke="param(outline) #000" stroke-width="param(outline-width) 1" d="M83.333 62.5h-4.167v-9.375c0-9.78-7.928-17.708-17.708-17.708v0h-22.917c-9.78 0-17.708 7.928-17.708 17.708v0 9.375h-4.167c-2.298 0.007-4.16 1.868-4.167 4.166v18.751c0.007 2.298 1.868 4.16 4.166 4.167h4.167v3.893c-0.001 0.036-0.001 0.079-0.001 0.122 0 3.043 2.111 5.594 4.948 6.268l0.044 0.009c0.374 0.079 0.803 0.124 1.243 0.124 3.455 0 6.257-2.796 6.267-6.249v-4.168h33.333v3.893c-0.001 0.036-0.001 0.079-0.001 0.122 0 3.043 2.111 5.594 4.948 6.268l0.044 0.009c0.374 0.079 0.803 0.124 1.243 0.124 3.455 0 6.257-2.796 6.267-6.249v-4.168h4.167c2.298-0.007 4.16-1.868 4.167-4.166v-18.751c-0.007-2.298-1.868-4.16-4.166-4.167h-0.001zM31.25 53.125c0.005-4.025 3.267-7.287 7.291-7.292h22.917c4.025 0.005 7.287 3.267 7.292 7.291v9.375h-37.5zM28.125 81.25c-2.876 0-5.208-2.332-5.208-5.208s2.332-5.208 5.208-5.208c2.876 0 5.208 2.332 5.208 5.208v0c-0.001 2.876-2.332 5.207-5.208 5.208h-0zM71.875 70.833c2.876 0 5.208 2.332 5.208 5.208s-2.332 5.208-5.208 5.208c-2.876 0-5.208-2.332-5.208-5.208v0c0.001-2.876 2.332-5.207 5.208-5.208h0z"></path>
</svg>
