
<svg version="1.1" xmlns="http://www.w3.org/2000/svg" width="67" height="100" viewBox="0 0 67 100">
<title>case-management</title>
<path fill="param(fill) #000" stroke="param(outline) #000" stroke-width="param(outline-width) 1" d="M62.5 12.5h-10.417c-0.007-2.298-1.868-4.16-4.166-4.167h-6.251c0-4.602-3.731-8.333-8.333-8.333s-8.333 3.731-8.333 8.333v0h-6.25c-2.298 0.007-4.16 1.868-4.167 4.166v0.001h-10.417c-2.323 0.099-4.169 2.006-4.169 4.344 0 0.048 0.001 0.095 0.002 0.142l-0-0.007v78.542c-0.001 0.040-0.002 0.088-0.002 0.135 0 2.338 1.846 4.245 4.16 4.344l0.009 0h58.333c2.323-0.099 4.169-2.006 4.169-4.344 0-0.048-0.001-0.095-0.002-0.142l0 0.007v-78.542c0.001-0.040 0.002-0.088 0.002-0.135 0-2.338-1.846-4.245-4.16-4.343l-0.009-0zM35.417 10.417c0 1.151-0.933 2.083-2.083 2.083s-2.083-0.933-2.083-2.083c0-1.151 0.933-2.083 2.083-2.083v0c1.149 0.003 2.080 0.934 2.083 2.083v0zM58.333 91.667h-50v-70.833h6.25c0.007 2.298 1.868 4.16 4.166 4.167h29.167c2.298-0.007 4.16-1.868 4.167-4.166v-0.001h6.25zM41.667 48.769v3.314h-16.667v-3.314c0-3.922 3.18-7.102 7.102-7.102h2.462c3.922 0 7.102 3.18 7.102 7.102v0zM29.167 33.333c0-2.301 1.866-4.167 4.167-4.167s4.167 1.866 4.167 4.167c0 2.301-1.866 4.167-4.167 4.167v0c-2.301 0-4.167-1.866-4.167-4.167v0zM32.292 60.417h16.667c1.726 0 3.125 1.399 3.125 3.125v0 0c0 1.726-1.399 3.125-3.125 3.125v0h-16.667c-1.726 0-3.125-1.399-3.125-3.125v0 0c0-1.726 1.399-3.125 3.125-3.125v0zM22.917 66.667h-8.333v-6.25h8.333zM32.292 77.083h16.667c1.726 0 3.125 1.399 3.125 3.125v0 0c0 1.726-1.399 3.125-3.125 3.125v0h-16.667c-1.726 0-3.125-1.399-3.125-3.125v0 0c0-1.726 1.399-3.125 3.125-3.125v0zM22.917 83.333h-8.333v-6.25h8.333z"></path>
</svg>
