
<svg version="1.1" xmlns="http://www.w3.org/2000/svg" width="100" height="100" viewBox="0 0 100 100">
<title>cash-transfer</title>
<path fill="param(fill) #000" stroke="param(outline) #000" stroke-width="param(outline-width) 1" d="M95.896 29.167h-91.792c-0.003 0-0.007 0-0.011 0-1.11 0-2.009 0.9-2.009 2.009 0 0.004 0 0.008 0 0.012v-0.001 37.625c0 0.003 0 0.007 0 0.011 0 1.11 0.9 2.009 2.009 2.009 0.004 0 0.008 0 0.012 0h91.791c0.003 0 0.007 0 0.011 0 1.11 0 2.009-0.9 2.009-2.009 0-0.004 0-0.008 0-0.012v0.001-37.625c0-0.003 0-0.007 0-0.012 0-1.11-0.9-2.009-2.009-2.009-0.004 0-0.008 0-0.012 0h0.001zM16.667 56.25c-3.452 0-6.25-2.798-6.25-6.25s2.798-6.25 6.25-6.25c3.452 0 6.25 2.798 6.25 6.25v0c0 0.002 0 0.005 0 0.008 0 3.447-2.795 6.242-6.242 6.242-0.003 0-0.006 0-0.009 0h0zM50 64.583c-8.054 0-14.583-6.529-14.583-14.583s6.529-14.583 14.583-14.583c8.054 0 14.583 6.529 14.583 14.583v0c0 0.003 0 0.007 0 0.011 0 8.048-6.524 14.573-14.573 14.573-0.004 0-0.008 0-0.011 0h0.001zM83.333 56.25c-3.452 0-6.25-2.798-6.25-6.25s2.798-6.25 6.25-6.25c3.452 0 6.25 2.798 6.25 6.25v0c0 0.002 0 0.005 0 0.008 0 3.447-2.795 6.242-6.242 6.242-0.003 0-0.006 0-0.009 0h0z"></path>
<path fill="param(fill) #000" stroke="param(outline) #000" stroke-width="param(outline-width) 1" d="M92.708 85.51h-82.039l2.905-2.905c0.568-0.566 0.92-1.349 0.92-2.214 0-1.726-1.399-3.125-3.125-3.125-0.865 0-1.648 0.351-2.214 0.919l-8.24 8.24c-0.284 0.285-0.513 0.624-0.671 1.001l-0.008 0.021-0.015 0.048c-0.14 0.337-0.222 0.729-0.222 1.139s0.081 0.802 0.229 1.159l-0.007-0.020 0.015 0.049c0.165 0.397 0.395 0.737 0.679 1.022l8.24 8.24c0.565 0.565 1.347 0.915 2.209 0.915 1.726 0 3.125-1.399 3.125-3.125 0-0.863-0.35-1.644-0.915-2.209l-2.905-2.905h82.039c1.726 0 3.125-1.399 3.125-3.125s-1.399-3.125-3.125-3.125v0z"></path>
<path fill="param(fill) #000" stroke="param(outline) #000" stroke-width="param(outline-width) 1" d="M99.778 10.225l-0.015-0.048c-0.165-0.398-0.395-0.737-0.679-1.022l-8.24-8.24c-0.565-0.565-1.347-0.915-2.209-0.915-1.726 0-3.125 1.399-3.125 3.125 0 0.863 0.35 1.644 0.915 2.209l2.905 2.905h-82.039c-1.726 0-3.125 1.399-3.125 3.125s1.399 3.125 3.125 3.125h82.039l-2.905 2.905c-0.563 0.565-0.911 1.344-0.911 2.205 0 1.726 1.399 3.125 3.125 3.125 0.861 0 1.64-0.348 2.205-0.911l8.24-8.24c0.284-0.285 0.513-0.624 0.671-1.001l0.008-0.021 0.015-0.048c0.14-0.337 0.222-0.729 0.222-1.139s-0.081-0.802-0.229-1.159l0.007 0.020z"></path>
</svg>
