
<svg version="1.1" xmlns="http://www.w3.org/2000/svg" width="120" height="100" viewBox="0 0 120 100">
<title>chat</title>
<path fill="param(fill) #000" stroke="param(outline) #000" stroke-width="param(outline-width) 1" d="M102.47 0h-34.99c-9.662 0-17.495 7.833-17.495 17.495v7.498h0c12.417 0.014 22.479 10.076 22.493 22.492v12.498h14.996l12.008 12.009c0.317 0.317 0.754 0.513 1.237 0.513 0.966 0 1.749-0.783 1.75-1.749v0l0-10.772c9.662-0 17.495-7.833 17.495-17.495v0-24.993c0-9.662-7.833-17.495-17.495-17.495v0z"></path>
<path fill="param(fill) #000" stroke="param(outline) #000" stroke-width="param(outline-width) 1" d="M49.987 87.475h-19.995l-12.010 12.009c-0.317 0.317-0.754 0.513-1.237 0.513-0.966 0-1.75-0.783-1.75-1.75v0l-0.001-10.772c-8.281 0-14.995-6.713-14.995-14.995v0-24.995c0-8.281 6.713-14.995 14.995-14.995v0h34.992c8.281 0 14.995 6.713 14.995 14.995v0 24.995c0 8.281-6.713 14.995-14.995 14.995v0z"></path>
</svg>
