
<svg version="1.1" xmlns="http://www.w3.org/2000/svg" width="130" height="100" viewBox="0 0 130 100">
<title>children</title>
<path fill="param(fill) #000" stroke="param(outline) #000" stroke-width="param(outline-width) 1" d="M27.017 27.073c-15.401 0-27.017 10.957-27.017 25.629 0 2.239 1.815 4.054 4.054 4.054s4.054-1.815 4.054-4.054v0c-0-0.039-0-0.086-0-0.133 0-6.074 3.214-11.397 8.034-14.362l0.073-0.042v57.78c0 2.239 1.815 4.054 4.054 4.054s4.054-1.815 4.054-4.054v0-28.378h5.405v28.378c0 2.239 1.815 4.054 4.054 4.054s4.054-1.815 4.054-4.054v0-57.768c4.883 3.008 8.089 8.326 8.089 14.393 0 0.046-0 0.093-0.001 0.139v-0.007c0 2.239 1.815 4.054 4.054 4.054s4.054-1.815 4.054-4.054v0c0-14.672-11.616-25.629-27.017-25.629z"></path>
<path fill="param(fill) #000" stroke="param(outline) #000" stroke-width="param(outline-width) 1" d="M37.836 10.811c0 5.971-4.84 10.811-10.811 10.811s-10.811-4.84-10.811-10.811c0-5.971 4.84-10.811 10.811-10.811s10.811 4.84 10.811 10.811z"></path>
<path fill="param(fill) #000" stroke="param(outline) #000" stroke-width="param(outline-width) 1" d="M102.711 27.073c-15.401 0-27.017 10.957-27.017 25.629 0 2.239 1.815 4.054 4.054 4.054s4.054-1.815 4.054-4.054v0c-0-0.032-0-0.069-0-0.106 0-6.564 3.739-12.254 9.203-15.058l0.095-0.044-6.236 32.441c-0.013 0.101-0.021 0.217-0.021 0.335 0 1.493 1.21 2.703 2.703 2.703 0 0 0 0 0 0h2.344v22.973c0 2.239 1.815 4.054 4.054 4.054s4.054-1.815 4.054-4.054v0-22.973h5.405v22.973c0 2.239 1.815 4.054 4.054 4.054s4.054-1.815 4.054-4.054v0-22.973h2.344c0 0 0 0 0 0 1.493 0 2.703-1.21 2.703-2.703 0-0.118-0.008-0.234-0.022-0.349l0.001 0.013-6.238-32.453c5.571 2.845 9.32 8.542 9.32 15.114 0 0.037-0 0.075-0 0.112v-0.006c0 2.239 1.815 4.054 4.054 4.054s4.054-1.815 4.054-4.054v0c0-14.672-11.616-25.629-27.016-25.629z"></path>
<path fill="param(fill) #000" stroke="param(outline) #000" stroke-width="param(outline-width) 1" d="M113.512 10.811c0 5.971-4.84 10.811-10.811 10.811s-10.811-4.84-10.811-10.811c0-5.971 4.84-10.811 10.811-10.811s10.811 4.84 10.811 10.811z"></path>
</svg>
