
<svg version="1.1" xmlns="http://www.w3.org/2000/svg" width="100" height="100" viewBox="0 0 100 100">
<title>child-combatant</title>
<path fill="param(fill) #000" stroke="param(outline) #000" stroke-width="param(outline-width) 1" d="M100 47.917v-6.25c0-2.301-1.866-4.167-4.167-4.167s-4.167 1.866-4.167 4.167v0 6.25c-0.003 2.3-1.867 4.164-4.166 4.167h-0v-29.167c0-2.301-1.866-4.167-4.167-4.167v0-17.708c0-0.575-0.466-1.042-1.042-1.042v0h-5.208c-1.151 0-2.083 0.933-2.083 2.083s0.933 2.083 2.083 2.083v0 15.161c-1.251 0.728-2.080 2.061-2.083 3.588v12.5h-2.083c-2.301 0-4.167 1.866-4.167 4.167v0 31.25c0 2.301 1.866 4.167 4.167 4.167h2.083v20.833c0 2.301 1.866 4.167 4.167 4.167h9.247c2.301-0 4.167-1.866 4.167-4.167 0-0.359-0.045-0.707-0.131-1.040l0.006 0.029-4.831-19.325c-0.028-0.141-0.049-0.312-0.061-0.485l-0.001-0.012h8.27c2.301 0 4.167-1.866 4.167-4.167s-1.866-4.167-4.167-4.167v0h-8.333v-6.25c6.9-0.008 12.492-5.6 12.5-12.499v-0.001z"></path>
<path fill="param(fill) #000" stroke="param(outline) #000" stroke-width="param(outline-width) 1" d="M27.083 27.083c-15.44 0-27.083 10.748-27.083 25.001 0 2.301 1.866 4.167 4.167 4.167s4.167-1.866 4.167-4.167v0c0.007-6.015 3.336-11.25 8.251-13.971l0.082-0.042v57.808c0 2.276 1.845 4.12 4.12 4.12 0 0 0 0 0 0h0.093c0 0 0 0 0 0 2.276 0 4.12-1.845 4.12-4.12v0-29.213h4.167v29.213c0 2.276 1.845 4.12 4.12 4.12 0 0 0 0 0 0h0.093c0 0 0 0 0 0 2.276 0 4.12-1.845 4.12-4.12v0-57.808c4.997 2.762 8.326 7.997 8.333 14.010v0.001c0 2.301 1.866 4.167 4.167 4.167s4.167-1.866 4.167-4.167v0c0-14.253-11.643-25-27.083-25z"></path>
<path fill="param(fill) #000" stroke="param(outline) #000" stroke-width="param(outline-width) 1" d="M37.5 12.5c0 5.753-4.664 10.417-10.417 10.417s-10.417-4.664-10.417-10.417c0-5.753 4.664-10.417 10.417-10.417s10.417 4.664 10.417 10.417z"></path>
</svg>
