
<svg version="1.1" xmlns="http://www.w3.org/2000/svg" width="117" height="100" viewBox="0 0 117 100">
<title>child-care-child-friendly</title>
<path fill="param(fill) #000" stroke="param(outline) #000" stroke-width="param(outline-width) 1" d="M95.122 53.658v0.062c-0.41-0.022-0.816-0.062-1.232-0.062-0.272 0-0.535 0.032-0.805 0.041-0.135-0.011-0.265-0.041-0.403-0.041h-30.488c-4.715 0-8.537 3.822-8.537 8.537s3.822 8.537 8.537 8.537v0h13.415c2.694 0 4.878 2.184 4.878 4.878s-2.184 4.878-4.878 4.878v0h-21.951c-1.499-0.011-2.867-0.565-3.918-1.474l0.008 0.007-33.145-32.256c-1.769-1.769-4.213-2.862-6.913-2.862-3.038 0-5.753 1.386-7.546 3.559l-0.013 0.017c-1.322 1.687-2.12 3.839-2.12 6.177 0 2.837 1.175 5.4 3.064 7.229l0.003 0.003 37.138 36.249c1.769 1.768 4.213 2.862 6.912 2.863h45.536c0.196 0 0.378-0.046 0.57-0.058 0.22 0.006 0.435 0.033 0.656 0.033 0.416 0 0.821-0.041 1.232-0.062v0.087c12.123 0 21.951-9.828 21.951-21.951v0-2.439c0-12.123-9.828-21.951-21.951-21.951 0 0 0 0 0 0v0z"></path>
<path fill="param(fill) #000" stroke="param(outline) #000" stroke-width="param(outline-width) 1" d="M15.845 31.707c0.056 0 0.11-0.008 0.167-0.008 0.028 0.001 0.055 0.008 0.083 0.008h21.724c0.010 0 0.022 0 0.034 0 3.359 0 6.083-2.723 6.083-6.083s-2.723-6.083-6.083-6.083c-0.012 0-0.024 0-0.036 0h-6.575l0.005-0.029h-3.2c-2.021 0-3.658-1.638-3.658-3.658s1.638-3.658 3.658-3.658v0h15.572c1.043 0.008 1.994 0.393 2.726 1.025l-0.005-0.004 22.596 23.817c1.231 1.23 2.931 1.991 4.809 1.991 2.113 0 4.002-0.964 5.25-2.476l0.009-0.012c0.92-1.173 1.475-2.67 1.475-4.297 0-1.974-0.817-3.757-2.132-5.029l-0.002-0.002-25.835-25.217c-1.231-1.23-2.931-1.991-4.808-1.992h-31.677c-0.059 0-0.114 0.016-0.172 0.017l-0.009-0c-0.012 0-0.025 0-0.039 0-8.751 0-15.845 7.094-15.845 15.845s7.094 15.845 15.845 15.845c0.014 0 0.028 0 0.041-0h-0.002z"></path>
</svg>
