
<svg version="1.1" xmlns="http://www.w3.org/2000/svg" width="100" height="100" viewBox="0 0 100 100">
<title>civil-military-coordination</title>
<path fill="param(fill) #000" stroke="param(outline) #000" stroke-width="param(outline-width) 1" d="M14.667 13.583c0 5.155 4.179 9.333 9.333 9.333s9.333-4.179 9.333-9.333v0c0-0.021 0-0.045 0-0.069 0-1.113-0.206-2.178-0.583-3.158l0.020 0.060h-17.542c-0.356 0.92-0.563 1.985-0.563 3.098 0 0.024 0 0.049 0 0.073v-0.004z"></path>
<path fill="param(fill) #000" stroke="param(outline) #000" stroke-width="param(outline-width) 1" d="M37.542 31.458l-22.667 22.667h20.542v-15.271c3.261 3.068 5.292 7.411 5.292 12.229s-2.031 9.161-5.283 12.221l-0.009 0.008v-2.938h-22.917v3.021c-3.31-3.075-5.375-7.453-5.375-12.313s2.065-9.237 5.365-12.303l0.010-0.010v8.896l19.188-19.188c-2.307-0.832-4.969-1.313-7.743-1.313-0.010 0-0.020 0-0.029 0h0.002c-0.003 0-0.006 0-0.010 0-13.203 0-23.907 10.703-23.907 23.907 0 9.022 4.998 16.878 12.377 20.948l0.123 0.062 0.047 0.023c0.103 0.464 0.508 0.806 0.995 0.81h20.834c0.503-0.004 0.92-0.37 1.003-0.85l0.001-0.006 0.037-0.018c7.455-4.138 12.417-11.963 12.417-20.947 0-8.106-4.039-15.268-10.214-19.585l-0.077-0.051z"></path>
<path fill="param(fill) #000" stroke="param(outline) #000" stroke-width="param(outline-width) 1" d="M64.5 71.958c0.036 0.020 0.075 0.035 0.111 0.055 0.065 0.509 0.493 0.899 1.013 0.903h20.834c0.541-0.003 0.983-0.421 1.024-0.952l0-0.004c7.459-4.145 12.422-11.978 12.422-20.97 0-13.206-10.705-23.911-23.911-23.911s-23.911 10.705-23.911 23.911c0 8.99 4.961 16.821 12.295 20.905l0.122 0.062zM87.5 63.226v-24.453c3.261 3.067 5.292 7.409 5.292 12.226s-2.031 9.16-5.283 12.218l-0.009 0.008zM64.5 38.771c0.027-0.025 0.056-0.047 0.083-0.072v24.602c-0.027-0.025-0.057-0.046-0.083-0.072-3.261-3.068-5.292-7.411-5.292-12.229s2.031-9.161 5.283-12.221l0.009-0.008z"></path>
<path fill="param(fill) #000" stroke="param(outline) #000" stroke-width="param(outline-width) 1" d="M16.667 6.25h14.583c1.157-0.027 2.084-0.971 2.084-2.132 0-0.012-0-0.024-0-0.036v0.002-1.906c0-0.013 0-0.029 0-0.045 0-1.176-0.953-2.129-2.129-2.129-0.065 0-0.129 0.003-0.192 0.008l0.008-0.001-14.583 1.69c-1.054 0.151-1.854 1.047-1.854 2.13 0 0.013 0 0.025 0 0.038v-0.002 0.217c-0 0.010-0 0.022-0 0.034 0 1.161 0.927 2.104 2.081 2.132h0.003z"></path>
<path fill="param(fill) #000" stroke="param(outline) #000" stroke-width="param(outline-width) 1" d="M85.417 13.542c0 5.178-4.197 9.375-9.375 9.375s-9.375-4.197-9.375-9.375c0-5.178 4.197-9.375 9.375-9.375s9.375 4.197 9.375 9.375z"></path>
<path fill="param(fill) #000" stroke="param(outline) #000" stroke-width="param(outline-width) 1" d="M36.619 78.006c-0.569-0.566-1.353-0.916-2.22-0.916-1.738 0-3.148 1.409-3.148 3.148 0 0.868 0.351 1.654 0.92 2.224l2.95 2.955h-31.903c0 0 0 0-0 0-1.726 0-3.125 1.399-3.125 3.125s1.399 3.125 3.125 3.125h31.903l-2.95 2.955c-0.572 0.57-0.925 1.358-0.925 2.229 0 1.738 1.409 3.148 3.148 3.148 0.869 0 1.655-0.352 2.225-0.921v0l8.293-8.308c0.569-0.57 0.921-1.358 0.921-2.228s-0.352-1.657-0.921-2.228v0z"></path>
<path fill="param(fill) #000" stroke="param(outline) #000" stroke-width="param(outline-width) 1" d="M96.781 85.417h-31.903l2.95-2.955c0.573-0.57 0.928-1.36 0.928-2.232 0-1.738-1.409-3.148-3.148-3.148-0.87 0-1.658 0.353-2.228 0.924l-8.293 8.308c-0.569 0.57-0.921 1.358-0.921 2.228s0.352 1.657 0.922 2.228l8.293 8.308c0.57 0.571 1.358 0.925 2.229 0.925 1.738 0 3.148-1.409 3.148-3.148 0-0.873-0.355-1.662-0.929-2.233l-0-0-2.95-2.955h31.903c1.726 0 3.125-1.399 3.125-3.125s-1.399-3.125-3.125-3.125c0 0 0 0-0 0v0z"></path>
</svg>
