
<svg version="1.1" xmlns="http://www.w3.org/2000/svg" width="114" height="100" viewBox="0 0 114 100">
<title>clothing</title>
<path fill="param(fill) #000" stroke="param(outline) #000" stroke-width="param(outline-width) 1" d="M57.143 11.905c6.574-0.002 11.902-5.331 11.905-11.904v-0h-23.81c0.002 6.574 5.331 11.902 11.904 11.905h0z"></path>
<path fill="param(fill) #000" stroke="param(outline) #000" stroke-width="param(outline-width) 1" d="M113.571 24.548l-24.857-23.881c-0.437-0.405-1.022-0.657-1.665-0.667h-13.24c-0.010 9.201-7.466 16.656-16.666 16.667h-0.001c-9.201-0.010-16.656-7.466-16.667-16.666v-0.001h-13.238c-0.645 0.010-1.229 0.262-1.668 0.668l0.002-0.001-24.857 23.881c-0.441 0.433-0.714 1.036-0.714 1.702s0.273 1.269 0.714 1.702l0 0 14.548 14.214c0.43 0.42 1.018 0.679 1.667 0.679s1.237-0.259 1.667-0.679l-0 0 9.976-8.833v64.286c0.004 1.313 1.068 2.377 2.381 2.381h52.381c1.313-0.004 2.377-1.068 2.381-2.381v-64.286l9.976 8.833c0.43 0.42 1.018 0.679 1.667 0.679s1.237-0.259 1.667-0.679l-0 0 14.548-14.214c0.441-0.433 0.714-1.036 0.714-1.702s-0.273-1.269-0.714-1.702l-0-0z"></path>
</svg>
