
<svg version="1.1" xmlns="http://www.w3.org/2000/svg" width="100" height="100" viewBox="0 0 100 100">
<title>communal-latrine</title>
<path fill="param(fill) #000" stroke="param(outline) #000" stroke-width="param(outline-width) 1" d="M0 88.819v7.857c0.025 1.841 1.523 3.324 3.368 3.324 0.014 0 0.029-0 0.043-0h-0.002c0.012 0 0.027 0 0.041 0 1.845 0 3.343-1.483 3.368-3.322v-3.497h29.545v3.494c0.048 1.846 1.556 3.324 3.409 3.324s3.361-1.478 3.409-3.319l0-0.004v-80.767h-43.182zM31.818 52.273c0-1.255 1.018-2.273 2.273-2.273s2.273 1.018 2.273 2.273v0 6.818c0 1.255-1.018 2.273-2.273 2.273s-2.273-1.018-2.273-2.273v0z"></path>
<path fill="param(fill) #000" stroke="param(outline) #000" stroke-width="param(outline-width) 1" d="M31.818 0h-20.455c-6.276 0-11.364 5.088-11.364 11.364v0h43.182c0-6.276-5.088-11.364-11.364-11.364v0z"></path>
<path fill="param(fill) #000" stroke="param(outline) #000" stroke-width="param(outline-width) 1" d="M56.818 88.819v7.857c0.048 1.846 1.556 3.324 3.409 3.324s3.361-1.478 3.409-3.319l0-0.004v-3.494h29.545v3.494c0.048 1.846 1.556 3.324 3.409 3.324s3.361-1.478 3.409-3.319l0-0.004v-80.767h-43.182zM88.636 52.273c0-1.255 1.018-2.273 2.273-2.273s2.273 1.018 2.273 2.273v0 6.818c0 1.255-1.018 2.273-2.273 2.273s-2.273-1.018-2.273-2.273v0z"></path>
<path fill="param(fill) #000" stroke="param(outline) #000" stroke-width="param(outline-width) 1" d="M88.636 0h-20.455c-6.276 0-11.364 5.088-11.364 11.364v0h43.182c0-6.276-5.088-11.364-11.364-11.364v0z"></path>
</svg>
