
<svg version="1.1" xmlns="http://www.w3.org/2000/svg" width="100" height="100" viewBox="0 0 100 100">
<title>community-engagement</title>
<path fill="param(fill) #000" stroke="param(outline) #000" stroke-width="param(outline-width) 1" d="M12.219 69.746c-1.721-3.236-3.091-6.988-3.913-10.941l-0.048-0.277c-0.4-1.918-2.077-3.339-4.085-3.339-2.302 0-4.169 1.867-4.169 4.169 0 0.289 0.029 0.572 0.086 0.844l-0.005-0.027c1.189 5.779 3.197 10.909 5.926 15.564l-0.129-0.239c1.46-2.542 3.636-4.531 6.253-5.72l0.086-0.035z"></path>
<path fill="param(fill) #000" stroke="param(outline) #000" stroke-width="param(outline-width) 1" d="M41.472 91.743c-4.244-0.871-8.010-2.256-11.485-4.114l0.226 0.11c-1.225 2.714-3.222 4.898-5.709 6.324l-0.067 0.035c4.429 2.602 9.571 4.616 15.034 5.759l0.333 0.058c0.241 0.053 0.519 0.083 0.803 0.083 0.011 0 0.022 0 0.033-0h-0.002c0 0 0 0 0 0 2.303 0 4.171-1.867 4.171-4.171 0-2.008-1.42-3.685-3.31-4.082l-0.027-0.005z"></path>
<path fill="param(fill) #000" stroke="param(outline) #000" stroke-width="param(outline-width) 1" d="M58.528 8.258c4.222 0.871 7.966 2.24 11.428 4.073l-0.231-0.112c1.234-2.708 3.237-4.886 5.729-6.303l0.068-0.035c-4.423-2.59-9.559-4.596-15.012-5.738l-0.334-0.058c-0.252-0.054-0.541-0.085-0.838-0.085-2.302 0-4.169 1.867-4.169 4.169 0 2.016 1.431 3.698 3.333 4.085l0.027 0.005z"></path>
<path fill="param(fill) #000" stroke="param(outline) #000" stroke-width="param(outline-width) 1" d="M87.74 30.234c1.744 3.243 3.128 7.001 3.955 10.964l0.048 0.274c0.4 1.917 2.075 3.336 4.083 3.336 0.001 0 0.003 0 0.004 0h-0c0.009 0 0.020 0 0.031 0 0.284 0 0.562-0.030 0.829-0.088l-0.026 0.005c1.916-0.396 3.335-2.070 3.335-4.075 0-0.292-0.030-0.577-0.087-0.852l0.005 0.027c-1.197-5.803-3.211-10.953-5.948-15.629l0.131 0.242c-1.466 2.556-3.649 4.557-6.273 5.761l-0.086 0.035z"></path>
<path fill="param(fill) #000" stroke="param(outline) #000" stroke-width="param(outline-width) 1" d="M3.337 44.725c0.238 0.053 0.51 0.084 0.79 0.084 0.015 0 0.031-0 0.046-0h-0.002c2.006-0.005 3.68-1.421 4.082-3.309l0.005-0.027c0.878-4.209 2.232-7.938 4.035-11.397l-0.115 0.242c-2.715-1.198-4.91-3.158-6.366-5.608l-0.035-0.063c-2.545 4.376-4.516 9.457-5.635 14.849l-0.057 0.33c-0.053 0.248-0.083 0.533-0.083 0.825 0 2.005 1.42 3.678 3.308 4.070l0.027 0.005z"></path>
<path fill="param(fill) #000" stroke="param(outline) #000" stroke-width="param(outline-width) 1" d="M30.046 12.344c3.297-1.786 7.119-3.199 11.151-4.039l0.275-0.048c1.917-0.402 3.337-2.078 3.337-4.087 0-2.304-1.867-4.171-4.171-4.171-0.295 0-0.583 0.031-0.861 0.089l0.027-0.005c-5.834 1.202-11.013 3.231-15.711 5.989l0.24-0.13c2.536 1.479 4.512 3.677 5.679 6.314l0.034 0.087z"></path>
<path fill="param(fill) #000" stroke="param(outline) #000" stroke-width="param(outline-width) 1" d="M69.725 87.782c-3.23 1.721-6.975 3.091-10.92 3.913l-0.276 0.048c-1.927 0.392-3.357 2.074-3.357 4.089 0 2.302 1.866 4.168 4.168 4.168 0.001 0 0.002 0 0.002 0h-0c0.013 0 0.028 0 0.044 0 0.28 0 0.553-0.030 0.815-0.088l-0.025 0.005c5.787-1.2 10.923-3.207 15.59-5.928l-0.244 0.131c-2.559-1.453-4.563-3.631-5.762-6.253l-0.035-0.085z"></path>
<path fill="param(fill) #000" stroke="param(outline) #000" stroke-width="param(outline-width) 1" d="M96.664 55.276c-0.249-0.053-0.535-0.083-0.828-0.083-2.009 0-3.687 1.418-4.087 3.308l-0.005 0.027c-0.876 4.237-2.259 7.996-4.114 11.465l0.111-0.226c2.711 1.239 4.893 3.241 6.324 5.729l0.036 0.067c2.606-4.435 4.62-9.585 5.76-15.056l0.058-0.332c0.053-0.248 0.083-0.533 0.083-0.825 0-2.005-1.419-3.679-3.308-4.070l-0.027-0.005z"></path>
<path fill="param(fill) #000" stroke="param(outline) #000" stroke-width="param(outline-width) 1" d="M14.325 26.669c0.956 0.37 2.063 0.584 3.219 0.584 0.004 0 0.009 0 0.014 0h-0.001c5.23-0.011 9.466-4.253 9.466-9.485 0-4.303-2.866-7.937-6.793-9.097l-0.067-0.017c-0.775-0.225-1.664-0.354-2.584-0.354-0.008 0-0.015 0-0.023 0h0.001c-0.004 0-0.009 0-0.015 0-5.228 0-9.466 4.238-9.466 9.466 0 4.074 2.574 7.547 6.183 8.882l0.066 0.021z"></path>
<path fill="param(fill) #000" stroke="param(outline) #000" stroke-width="param(outline-width) 1" d="M72.706 17.766c0.004 5.238 4.249 9.483 9.487 9.487h0c0.003 0 0.006 0 0.009 0 1.228 0 2.4-0.237 3.473-0.669l-0.063 0.022c2.822-1.108 4.944-3.457 5.719-6.356l0.015-0.066c0.199-0.716 0.313-1.539 0.313-2.388 0-0.011 0-0.021-0-0.032v0.002c0-0.002 0-0.004 0-0.007 0-5.224-4.235-9.459-9.459-9.459-0.003 0-0.005 0-0.008 0h0c-0.014-0-0.030-0-0.046-0-0.851 0-1.675 0.114-2.459 0.328l0.065-0.015c-2.948 0.812-5.282 2.926-6.379 5.67l-0.023 0.064c-0.409 1.011-0.646 2.183-0.646 3.411 0 0.003 0 0.006 0 0.009v-0z"></path>
<path fill="param(fill) #000" stroke="param(outline) #000" stroke-width="param(outline-width) 1" d="M27.211 82.235c-0.004-5.238-4.249-9.483-9.487-9.487h-0c-0.019-0-0.041-0-0.063-0-1.186 0-2.318 0.23-3.354 0.647l0.060-0.021c-2.825 1.087-4.959 3.412-5.76 6.293l-0.016 0.066c-0.209 0.75-0.33 1.611-0.334 2.5v0.002c0 0.002 0 0.005 0 0.007 0 5.224 4.235 9.459 9.459 9.459 0.002 0 0.005 0 0.007 0h-0c0.884-0.005 1.738-0.126 2.55-0.35l-0.068 0.016c4.066-1.12 7.003-4.783 7.006-9.132v-0z"></path>
<path fill="param(fill) #000" stroke="param(outline) #000" stroke-width="param(outline-width) 1" d="M85.613 73.395c-1.011-0.409-2.183-0.646-3.41-0.646-0.003 0-0.007 0-0.010 0h0c-5.238 0.004-9.483 4.249-9.487 9.487v0c0 0.002 0 0.005 0 0.008 0 1.228 0.237 2.4 0.669 3.474l-0.022-0.063c1.119 2.808 3.453 4.922 6.334 5.718l0.067 0.016c0.718 0.199 1.542 0.313 2.393 0.313 0.016 0 0.033 0 0.049-0h-0.003c0.002 0 0.005 0 0.007 0 5.224 0 9.459-4.235 9.459-9.459 0-0.002 0-0.005 0-0.007v0c0-0.009 0-0.020 0-0.030 0-0.849-0.114-1.672-0.328-2.453l0.015 0.065c-0.79-2.965-2.912-5.314-5.67-6.4l-0.064-0.022z"></path>
<path fill="param(fill) #000" stroke="param(outline) #000" stroke-width="param(outline-width) 1" d="M49.959 66.681c-8.822-0.015-16.037-6.872-16.623-15.547l-0.003-0.051 1.769 2.021c0.576 0.653 1.415 1.063 2.35 1.063 1.728 0 3.128-1.401 3.128-3.128 0-0.789-0.292-1.51-0.774-2.060l0.003 0.004-7.306-8.344c-0.577-0.656-1.417-1.067-2.354-1.067s-1.775 0.411-2.349 1.061l-0.003 0.003-7.308 8.336c-0.482 0.548-0.776 1.271-0.776 2.063 0 1.728 1.4 3.128 3.128 3.128 0.936 0 1.776-0.411 2.349-1.062l0.003-0.003 1.877-2.141c0.531 12.237 10.57 21.96 22.885 21.98h0.002c1.727 0 3.128-1.4 3.128-3.128s-1.4-3.128-3.128-3.128v0z"></path>
<path fill="param(fill) #000" stroke="param(outline) #000" stroke-width="param(outline-width) 1" d="M49.959 33.32c8.823 0.015 16.038 6.874 16.623 15.55l0.003 0.051-1.772-2.024c-0.576-0.657-1.417-1.069-2.354-1.069-1.727 0-3.128 1.4-3.128 3.128 0 0.792 0.294 1.515 0.779 2.066l-0.003-0.003 7.306 8.344c0.576 0.655 1.417 1.067 2.353 1.067s1.777-0.411 2.35-1.063l0.003-0.004 7.306-8.336c0.481-0.547 0.775-1.27 0.775-2.061 0-1.727-1.4-3.127-3.127-3.127-0.936 0-1.776 0.411-2.349 1.063l-0.003 0.004-1.875 2.138c-0.531-12.237-10.571-21.958-22.885-21.979h-0.002c-0.002 0-0.005 0-0.008 0-1.727 0-3.128 1.4-3.128 3.128s1.4 3.128 3.128 3.128c0.003 0 0.006 0 0.008 0h-0z"></path>
</svg>
