
<svg version="1.1" xmlns="http://www.w3.org/2000/svg" width="100" height="100" viewBox="0 0 100 100">
<title>confinement</title>
<path fill="param(fill) #000" stroke="param(outline) #000" stroke-width="param(outline-width) 1" d="M94.272 0h-88.545c-3.163 0-5.728 2.564-5.728 5.728v0 88.545c0 0.001 0 0.003 0 0.004 0 3.161 2.562 5.723 5.723 5.723 0.002 0 0.003 0 0.005 0h88.545c0.001 0 0.003 0 0.004 0 3.161 0 5.723-2.562 5.723-5.723 0-0.002 0-0.003 0-0.005v0-88.545c0-0.001 0-0.003 0-0.004 0-3.161-2.562-5.723-5.723-5.723-0.002 0-0.003 0-0.005 0h0zM91.667 91.667h-83.335v-83.335h83.335z"></path>
<path fill="param(fill) #000" stroke="param(outline) #000" stroke-width="param(outline-width) 1" d="M27.819 84.73c0.766 0.434 1.683 0.689 2.659 0.689 2.048 0 3.834-1.125 4.773-2.79l0.014-0.027 9.948-17.709 16.778 18.69c0.036 0.041 0.085 0.072 0.121 0.113 0.129 0.13 0.264 0.254 0.405 0.371l0.009 0.007c0.13 0.112 0.261 0.234 0.4 0.333s0.297 0.18 0.45 0.27c0.275 0.187 0.593 0.341 0.934 0.443l0.025 0.006c0.132 0.052 0.304 0.107 0.48 0.154l0.037 0.008c0.162 0.036 0.333 0.054 0.499 0.076s0.382 0.050 0.571 0.058c0.058 0 0.108 0 0.162 0h13.696c0.007 0 0.016 0 0.024 0 3.052 0 5.535-2.435 5.613-5.468l0-0.007v-29.848c0-9.232-7.649-16.719-16.877-16.719h-2.457c-3.023 0-5.669 2.452-5.669 5.476v26.676l-12.148-13.696c-1.008-1.13-2.468-1.839-4.093-1.839-2.049 0-3.835 1.125-4.774 2.792l-0.014 0.027-13.696 24.462c-0.435 0.767-0.691 1.685-0.691 2.663 0 2.049 1.125 3.835 2.792 4.774l0.027 0.014z"></path>
<path fill="param(fill) #000" stroke="param(outline) #000" stroke-width="param(outline-width) 1" d="M60.42 23.958c0 5.178-4.198 9.376-9.376 9.376s-9.376-4.198-9.376-9.376c0-5.178 4.198-9.376 9.376-9.376s9.376 4.198 9.376 9.376z"></path>
</svg>
