
<svg version="1.1" xmlns="http://www.w3.org/2000/svg" width="100" height="100" viewBox="0 0 100 100">
<title>coordinated-assessement</title>
<path fill="param(fill) #000" stroke="param(outline) #000" stroke-width="param(outline-width) 1" d="M84.583 53.063c0.521-0.877 0.828-1.934 0.828-3.063s-0.308-2.185-0.844-3.091l0.015 0.028c-7.075-11.96-19.907-19.854-34.583-19.854s-27.508 7.894-34.482 19.669l-0.102 0.186c-0.521 0.877-0.828 1.934-0.828 3.063s0.308 2.185 0.844 3.091l-0.015-0.028c7.075 11.96 19.907 19.854 34.583 19.854s27.508-7.895 34.482-19.669l0.102-0.186zM50 62.5c-6.904 0-12.5-5.596-12.5-12.5s5.596-12.5 12.5-12.5c6.904 0 12.5 5.596 12.5 12.5v0c-0.006 6.901-5.599 12.494-12.5 12.5h-0z"></path>
<path fill="param(fill) #000" stroke="param(outline) #000" stroke-width="param(outline-width) 1" d="M76.042 27.083h20.833c1.726 0 3.125-1.399 3.125-3.125s-1.399-3.125-3.125-3.125v0h-13.29l15.444-15.446c0.565-0.565 0.915-1.347 0.915-2.209 0-1.726-1.399-3.125-3.125-3.125-0.863 0-1.644 0.35-2.209 0.915l-15.444 15.446v-13.289c0-1.726-1.399-3.125-3.125-3.125s-3.125 1.399-3.125 3.125v0 20.833c0 1.726 1.399 3.125 3.125 3.125v0z"></path>
<path fill="param(fill) #000" stroke="param(outline) #000" stroke-width="param(outline-width) 1" d="M0 23.958c0 1.726 1.399 3.125 3.125 3.125h20.833c1.726-0 3.125-1.399 3.125-3.125v0-20.833c0-1.726-1.399-3.125-3.125-3.125s-3.125 1.399-3.125 3.125v0 13.289l-15.444-15.446c-0.565-0.565-1.347-0.915-2.209-0.915-1.726 0-3.125 1.399-3.125 3.125 0 0.863 0.35 1.644 0.915 2.209l15.444 15.446h-13.29c-1.726 0-3.125 1.399-3.125 3.125v0z"></path>
<path fill="param(fill) #000" stroke="param(outline) #000" stroke-width="param(outline-width) 1" d="M100 76.042c-0-1.726-1.399-3.125-3.125-3.125h-20.833c-1.726 0-3.125 1.399-3.125 3.125v0 20.833c0 1.726 1.399 3.125 3.125 3.125s3.125-1.399 3.125-3.125v0-13.289l15.444 15.446c0.565 0.565 1.347 0.915 2.209 0.915 1.726 0 3.125-1.399 3.125-3.125 0-0.863-0.35-1.644-0.915-2.209l-15.444-15.446h13.29c1.726-0 3.125-1.399 3.125-3.125v0z"></path>
<path fill="param(fill) #000" stroke="param(outline) #000" stroke-width="param(outline-width) 1" d="M23.958 72.917h-20.833c-1.726 0-3.125 1.399-3.125 3.125s1.399 3.125 3.125 3.125v0h13.29l-15.444 15.446c-0.565 0.565-0.915 1.347-0.915 2.209 0 1.726 1.399 3.125 3.125 3.125 0.863 0 1.644-0.35 2.209-0.915l15.444-15.446v13.289c0 1.726 1.399 3.125 3.125 3.125s3.125-1.399 3.125-3.125v0-20.833c-0-1.726-1.399-3.125-3.125-3.125v0z"></path>
</svg>
