
<svg version="1.1" xmlns="http://www.w3.org/2000/svg" width="100" height="100" viewBox="0 0 100 100">
<title>coordination</title>
<path fill="param(fill) #000" stroke="param(outline) #000" stroke-width="param(outline-width) 1" d="M62.5 50c0 6.904-5.596 12.5-12.5 12.5s-12.5-5.596-12.5-12.5c0-6.904 5.596-12.5 12.5-12.5s12.5 5.596 12.5 12.5z"></path>
<path fill="param(fill) #000" stroke="param(outline) #000" stroke-width="param(outline-width) 1" d="M66.667 37.5h18.75c2.301 0 4.167-1.866 4.167-4.167s-1.866-4.167-4.167-4.167v0h-8.691l22.054-22.054c0.754-0.754 1.22-1.796 1.22-2.946 0-2.301-1.865-4.166-4.166-4.166-1.15 0-2.192 0.466-2.946 1.22l-22.054 22.054v-8.691c0-2.301-1.866-4.167-4.167-4.167s-4.167 1.866-4.167 4.167v0 18.75c0 2.301 1.866 4.167 4.167 4.167v0z"></path>
<path fill="param(fill) #000" stroke="param(outline) #000" stroke-width="param(outline-width) 1" d="M23.275 29.167h-8.691c-2.301 0-4.167 1.866-4.167 4.167s1.866 4.167 4.167 4.167v0h18.75c2.301-0 4.167-1.866 4.167-4.167v0-18.75c0-2.301-1.866-4.167-4.167-4.167s-4.167 1.866-4.167 4.167v0 8.691l-22.054-22.054c-0.754-0.754-1.796-1.22-2.946-1.22-2.301 0-4.166 1.865-4.166 4.166 0 1.15 0.466 2.192 1.22 2.946v0z"></path>
<path fill="param(fill) #000" stroke="param(outline) #000" stroke-width="param(outline-width) 1" d="M76.725 70.833h8.691c2.301 0 4.167-1.866 4.167-4.167s-1.866-4.167-4.167-4.167v0h-18.75c-2.301 0-4.167 1.866-4.167 4.167v0 18.75c0 2.301 1.866 4.167 4.167 4.167s4.167-1.866 4.167-4.167v0-8.691l22.054 22.054c0.754 0.754 1.796 1.22 2.946 1.22 2.301 0 4.166-1.865 4.166-4.166 0-1.15-0.466-2.192-1.22-2.946v0z"></path>
<path fill="param(fill) #000" stroke="param(outline) #000" stroke-width="param(outline-width) 1" d="M33.333 62.5h-18.75c-2.301 0-4.167 1.866-4.167 4.167s1.866 4.167 4.167 4.167v0h8.691l-22.054 22.054c-0.754 0.754-1.22 1.796-1.22 2.946 0 2.301 1.865 4.166 4.166 4.166 1.15 0 2.192-0.466 2.946-1.22l22.054-22.054v8.691c0 2.301 1.866 4.167 4.167 4.167s4.167-1.866 4.167-4.167v0-18.75c-0-2.301-1.866-4.167-4.167-4.167v0z"></path>
</svg>
