
<svg version="1.1" xmlns="http://www.w3.org/2000/svg" width="71" height="100" viewBox="0 0 71 100">
<title>copy</title>
<path fill="param(fill) #000" stroke="param(outline) #000" stroke-width="param(outline-width) 1" d="M57.875 85.417c-0.897 0.001-1.624 0.728-1.625 1.625v12.958l14.583-14.583h-12.958z"></path>
<path fill="param(fill) #000" stroke="param(outline) #000" stroke-width="param(outline-width) 1" d="M52.083 20.833v-18.75c-0.003-1.149-0.934-2.080-2.083-2.083h-47.917c-1.149 0.003-2.080 0.934-2.083 2.083v68.75c0.003 1.149 0.934 2.080 2.083 2.083h10.417v-43.75c0-0.001 0-0.001 0-0.002 0-4.601 3.73-8.331 8.331-8.331 0.001 0 0.002 0 0.002 0h-0z"></path>
<path fill="param(fill) #000" stroke="param(outline) #000" stroke-width="param(outline-width) 1" d="M68.75 27.083h-47.917c-1.149 0.003-2.080 0.934-2.083 2.083v68.75c0.003 1.149 0.934 2.080 2.083 2.083h31.25v-12.958c0.008-3.195 2.596-5.783 5.791-5.792h12.959v-52.083c-0.003-1.149-0.934-2.080-2.083-2.083h-0zM60.417 72.917h-31.25c-1.151 0-2.083-0.933-2.083-2.083s0.933-2.083 2.083-2.083v0h31.25c1.151 0 2.083 0.933 2.083 2.083s-0.933 2.083-2.083 2.083v0zM60.417 60.417h-31.25c-1.151 0-2.083-0.933-2.083-2.083s0.933-2.083 2.083-2.083v0h31.25c1.151 0 2.083 0.933 2.083 2.083s-0.933 2.083-2.083 2.083v0zM60.417 47.917h-31.25c-1.151 0-2.083-0.933-2.083-2.083s0.933-2.083 2.083-2.083v0h31.25c1.151 0 2.083 0.933 2.083 2.083s-0.933 2.083-2.083 2.083v0z"></path>
</svg>
