
<svg version="1.1" xmlns="http://www.w3.org/2000/svg" width="90" height="100" viewBox="0 0 90 100">
<title>country</title>
<path fill="param(fill) #000" stroke="param(outline) #000" stroke-width="param(outline-width) 1" d="M88.545 3.856c-22.57-6.347-45.139 7.288-67.713 0.311v41.668c22.574 6.977 45.143-6.395 67.713-0.044 0.084 0.035 0.182 0.056 0.285 0.056 0.418 0 0.757-0.339 0.757-0.757 0-0.010-0-0.021-0.001-0.031v0.001-39.834c-0.028-0.641-0.451-1.175-1.031-1.367l-0.011-0.003z"></path>
<path fill="param(fill) #000" stroke="param(outline) #000" stroke-width="param(outline-width) 1" d="M20.832 93.754h-4.163v-89.586c-0.146-2.182-1.952-3.897-4.158-3.897s-4.012 1.715-4.158 3.885l-0.001 0.013v89.586h-4.185c-0.001 0-0.003 0-0.004 0-2.299 0-4.163 1.864-4.163 4.163 0 0 0 0 0 0v0 2.084h24.999v-2.084c0-2.299-1.864-4.163-4.163-4.163-0.002 0-0.003 0-0.005 0h0z"></path>
</svg>
