
<svg version="1.1" xmlns="http://www.w3.org/2000/svg" width="100" height="100" viewBox="0 0 100 100">
<title>covid-19</title>
<path fill="param(fill) #000" stroke="param(outline) #000" stroke-width="param(outline-width) 1" d="M96.875 39.583c-0 0-0 0-0 0-1.726 0-3.125 1.399-3.125 3.125 0 0 0 0 0 0v0 3.125h-8.6c-0.818-6.79-3.457-12.845-7.409-17.808l0.055 0.072 6.086-6.086 2.45 2.074c0.566 0.567 1.348 0.918 2.212 0.918 1.726 0 3.125-1.399 3.125-3.125 0-0.864-0.351-1.646-0.918-2.212l-10.417-10.417c-0.566-0.566-1.347-0.915-2.21-0.915-1.726 0-3.125 1.399-3.125 3.125 0 0.863 0.35 1.644 0.915 2.209v0l2.074 2.45-6.086 6.086c-4.892-3.897-10.947-6.536-17.568-7.337l-0.169-0.017v-8.6h3.125c1.726 0 3.125-1.399 3.125-3.125s-1.399-3.125-3.125-3.125v0h-14.583c-1.726 0-3.125 1.399-3.125 3.125s1.399 3.125 3.125 3.125v0h3.125v8.6c-6.79 0.818-12.845 3.457-17.808 7.409l0.072-0.055-6.086-6.086 2.074-2.45c0.565-0.565 0.915-1.347 0.915-2.209 0-1.726-1.399-3.125-3.125-3.125-0.863 0-1.644 0.35-2.21 0.915v0l-10.177 10.417c-0.562 0.565-0.91 1.344-0.91 2.204 0 1.726 1.399 3.125 3.125 3.125 0.86 0 1.639-0.348 2.204-0.91l-0 0 2.21-2.074 6.086 6.086c-3.897 4.892-6.536 10.947-7.338 17.568l-0.017 0.169h-8.6v-3.125c0-1.726-1.399-3.125-3.125-3.125s-3.125 1.399-3.125 3.125v0 14.583c0 1.726 1.399 3.125 3.125 3.125s3.125-1.399 3.125-3.125v0-3.125h8.6c0.818 6.79 3.457 12.845 7.409 17.808l-0.055-0.072-6.086 6.086-2.45-2.074c-0.565-0.564-1.346-0.913-2.207-0.913-1.726 0-3.125 1.399-3.125 3.125 0 0.862 0.349 1.642 0.913 2.207l10.416 10.417c0.566 0.566 1.347 0.915 2.21 0.915 1.726 0 3.125-1.399 3.125-3.125 0-0.863-0.35-1.644-0.915-2.209v0l-2.074-2.45 6.086-6.086c4.892 3.897 10.947 6.536 17.568 7.337l0.169 0.017v8.6h-3.125c-1.726 0-3.125 1.399-3.125 3.125s1.399 3.125 3.125 3.125v0h14.583c1.726 0 3.125-1.399 3.125-3.125s-1.399-3.125-3.125-3.125v0h-3.125v-8.6c6.79-0.818 12.845-3.457 17.809-7.409l-0.072 0.055 6.086 6.086-2.074 2.45c-0.565 0.565-0.915 1.347-0.915 2.209 0 1.726 1.399 3.125 3.125 3.125 0.863 0 1.644-0.35 2.21-0.915l10.417-10.417c0.567-0.566 0.918-1.348 0.918-2.212 0-1.726-1.399-3.125-3.125-3.125-0.864 0-1.646 0.351-2.212 0.918l-0 0-2.45 2.074-6.086-6.086c3.897-4.892 6.536-10.947 7.338-17.568l0.017-0.169h8.6v3.125c0 1.726 1.399 3.125 3.125 3.125s3.125-1.399 3.125-3.125v0-14.583c0-0 0-0 0-0 0-1.726-1.399-3.125-3.125-3.125-0 0-0 0-0 0v0zM38.542 41.667c-4.027 0-7.292-3.265-7.292-7.292s3.265-7.292 7.292-7.292c4.027 0 7.292 3.265 7.292 7.292v0c0 0 0 0 0 0 0 4.027-3.265 7.292-7.292 7.292 0 0-0 0-0 0v0zM62.5 68.75c-2.301 0-4.167-1.866-4.167-4.167s1.866-4.167 4.167-4.167c2.301 0 4.167 1.866 4.167 4.167v0c-0 2.301-1.866 4.167-4.167 4.167v0z"></path>
</svg>
