
<svg version="1.1" xmlns="http://www.w3.org/2000/svg" width="100" height="100" viewBox="0 0 100 100">
<title>cyclone</title>
<path fill="param(fill) #000" stroke="param(outline) #000" stroke-width="param(outline-width) 1" d="M99.234 50.583l-0.083-0.146c-1.092-1.856-3.080-3.082-5.354-3.082-1.127 0-2.183 0.301-3.093 0.827l0.030-0.016-9.667 5.584c0.15-1.145 0.236-2.47 0.236-3.814 0-5.549-1.463-10.756-4.025-15.257l0.080 0.152c-0.063-0.148-0.125-0.271-0.196-0.39l0.008 0.015-0.063-0.083-18.064-31.295c-1.086-1.853-3.067-3.077-5.334-3.077-1.135 0-2.199 0.307-3.112 0.843l0.029-0.016-0.167 0.083c-1.846 1.096-3.064 3.080-3.064 5.347 0 1.129 0.302 2.188 0.83 3.1l-0.016-0.030 5.563 9.647c-1.134-0.147-2.445-0.231-3.776-0.231-5.705 0-11.051 1.54-15.643 4.227l0.147-0.079-0.229 0.125-31.19 18.022c-1.853 1.086-3.077 3.067-3.077 5.334 0 1.135 0.307 2.199 0.843 3.113l-0.016-0.029 0.083 0.146c1.086 1.853 3.067 3.077 5.334 3.077 1.135 0 2.199-0.307 3.112-0.843l-0.029 0.016 9.688-5.584c-0.145 1.126-0.227 2.428-0.227 3.75 0 5.664 1.515 10.974 4.161 15.547l-0.080-0.15c0.013 0.055 0.034 0.104 0.063 0.147l-0.001-0.002 0.042 0.063 18.064 31.295c1.087 1.852 3.069 3.075 5.336 3.075 1.135 0 2.198-0.306 3.111-0.841l-0.029 0.016 0.167-0.083c1.849-1.091 3.071-3.073 3.071-5.341 0-1.132-0.304-2.194-0.836-3.106l0.016 0.029-5.563-9.647c1.142 0.151 2.464 0.237 3.805 0.237 5.413 0 10.499-1.4 14.916-3.858l-0.157 0.080c0.287-0.124 0.526-0.25 0.756-0.39l-0.027 0.015 0.062-0.042 31.315-18.064c1.846-1.096 3.064-3.080 3.064-5.347 0-1.129-0.302-2.188-0.83-3.1l0.016 0.030zM33.811 59.376c-0.021-0.021-0.021-0.042-0.042-0.063-1.558-2.674-2.477-5.886-2.477-9.312 0-6.842 3.667-12.829 9.142-16.101l0.086-0.047c0.042-0.021 0.104-0.063 0.146-0.083s0.063-0.042 0.104-0.062c2.667-1.546 5.868-2.458 9.282-2.458 6.846 0 12.835 3.667 16.11 9.144l0.047 0.086c0.021 0.042 0.063 0.104 0.083 0.146s0.042 0.063 0.063 0.104c1.538 2.663 2.445 5.858 2.445 9.265 0 6.911-3.734 12.95-9.295 16.21l-0.088 0.048c-0.021 0.021-0.042 0.021-0.063 0.042-2.671 1.552-5.878 2.468-9.299 2.468-6.908 0-12.944-3.735-16.198-9.296l-0.048-0.089z"></path>
</svg>
