
<svg version="1.1" xmlns="http://www.w3.org/2000/svg" width="88" height="100" viewBox="0 0 88 100">
<title>dead</title>
<path fill="param(fill) #000" stroke="param(outline) #000" stroke-width="param(outline-width) 1" d="M60.417 20.833c-15.44 0-27.083 10.747-27.083 25 0 2.301 1.866 4.167 4.167 4.167s4.167-1.866 4.167-4.167v0c-0.002-0.088-0.003-0.191-0.003-0.295 0-5.945 3.343-11.109 8.252-13.715l0.084-0.041v64.051c0 2.301 1.866 4.167 4.167 4.167s4.167-1.866 4.167-4.167v0-31.25h4.167v31.25c0 2.301 1.866 4.167 4.167 4.167s4.167-1.866 4.167-4.167v0-64.051c4.993 2.647 8.336 7.811 8.336 13.756 0 0.104-0.001 0.207-0.003 0.311l0-0.015c0 2.301 1.866 4.167 4.167 4.167s4.167-1.866 4.167-4.167v0c0-14.253-11.643-25-27.083-25z"></path>
<path fill="param(fill) #000" stroke="param(outline) #000" stroke-width="param(outline-width) 1" d="M68.75 8.333c0 4.602-3.731 8.333-8.333 8.333s-8.333-3.731-8.333-8.333c0-4.602 3.731-8.333 8.333-8.333s8.333 3.731 8.333 8.333z"></path>
<path fill="param(fill) #000" stroke="param(outline) #000" stroke-width="param(outline-width) 1" d="M16.667 0c-9.205 0-16.667 7.462-16.667 16.667s7.462 16.667 16.667 16.667c9.205 0 16.667-7.462 16.667-16.667v0c0-0.001 0-0.003 0-0.005 0-9.202-7.46-16.662-16.662-16.662-0.002 0-0.003 0-0.005 0h0zM24.417 21.458c0.377 0.379 0.609 0.902 0.609 1.479s-0.233 1.1-0.61 1.479l0-0c-0.381 0.374-0.903 0.604-1.479 0.604s-1.098-0.231-1.479-0.605l0 0-4.792-4.813-4.792 4.813c-0.381 0.374-0.903 0.604-1.479 0.604s-1.098-0.231-1.479-0.605l0 0c-0.377-0.379-0.609-0.902-0.609-1.479s0.233-1.1 0.61-1.479l-0 0 4.813-4.792-4.813-4.792c-0.382-0.379-0.619-0.905-0.619-1.485 0-1.155 0.937-2.092 2.092-2.092 0.581 0 1.106 0.237 1.485 0.619l0 0 4.792 4.813 4.792-4.813c0.378-0.375 0.898-0.607 1.473-0.607 1.155 0 2.092 0.937 2.092 2.092 0 0.575-0.232 1.095-0.607 1.473l0-0-4.813 4.792z"></path>
</svg>
