
<svg version="1.1" xmlns="http://www.w3.org/2000/svg" width="100" height="100" viewBox="0 0 100 100">
<title>debris-management</title>
<path fill="param(fill) #000" stroke="param(outline) #000" stroke-width="param(outline-width) 1" d="M52.497 15.775c1.093 0.563 2.385 0.894 3.755 0.894 4.602 0 8.333-3.731 8.333-8.333s-3.731-8.333-8.333-8.333c-3.233 0-6.036 1.841-7.418 4.532l-0.022 0.047v0c-0.563 1.093-0.894 2.385-0.894 3.754 0 3.233 1.841 6.036 4.532 7.418l0.047 0.022z"></path>
<path fill="param(fill) #000" stroke="param(outline) #000" stroke-width="param(outline-width) 1" d="M97.917 42.712c0 5.178-4.197 9.375-9.375 9.375s-9.375-4.197-9.375-9.375c0-5.178 4.197-9.375 9.375-9.375s9.375 4.197 9.375 9.375z"></path>
<path fill="param(fill) #000" stroke="param(outline) #000" stroke-width="param(outline-width) 1" d="M87.5 70.837c0 2.301-1.866 4.167-4.167 4.167s-4.167-1.866-4.167-4.167c0-2.301 1.866-4.167 4.167-4.167s4.167 1.866 4.167 4.167z"></path>
<path fill="param(fill) #000" stroke="param(outline) #000" stroke-width="param(outline-width) 1" d="M95.833 80.212c0 1.726-1.399 3.125-3.125 3.125s-3.125-1.399-3.125-3.125c0-1.726 1.399-3.125 3.125-3.125s3.125 1.399 3.125 3.125z"></path>
<path fill="param(fill) #000" stroke="param(outline) #000" stroke-width="param(outline-width) 1" d="M93.752 87.504h-12.607c-0.517-3.548-3.536-6.244-7.186-6.25h-8.976c-2.197-3.764-6.216-6.253-10.816-6.254h-3.591c0.852-2.412 1.344-5.194 1.344-8.090 0-6.986-2.863-13.303-7.479-17.842l-0.004-0.003 1.764-3.495 9.871 5.151c-0.014 0.125-0.021 0.27-0.021 0.417 0 2.266 1.837 4.103 4.103 4.103 1.025 0 1.963-0.376 2.682-0.998l-0.005 0.004 15.11 7.884c0.42 0.223 0.917 0.354 1.445 0.354h16.076c1.726 0 3.125-1.399 3.125-3.125s-1.399-3.125-3.125-3.125v0h-15.31l-14.723-7.683c2.923-11.622-2.646-23.452-14.118-29.318-0.085-0.047-0.155-0.111-0.243-0.155l-2.984-1.506c-1.105-0.57-2.411-0.903-3.795-0.903-3.268 0-6.102 1.861-7.498 4.581l-0.022 0.047-9.766 19.352c-0.057 0.078-0.116 0.169-0.169 0.263l-0.008 0.015-17.395 34.468c-5.461 1.415-9.429 6.3-9.429 12.111 0 6.9 5.593 12.493 12.493 12.493 0.003 0 0.005 0 0.008 0h81.251c0.003 0 0.007 0 0.011 0 3.451 0 6.248-2.797 6.248-6.248s-2.797-6.248-6.248-6.248c-0.004 0-0.008 0-0.012 0h0.001zM18.975 75l12.501-24.772c0.14 0.093 0.302 0.186 0.471 0.268l0.025 0.011c9.737 4.257 14.090 14.309 10.124 23.383-0.14 0.323-0.243 0.698-0.291 1.090l-0.002 0.020zM57.716 44.528l-8.699-4.539 4.43-8.778c2.717 2.999 4.38 6.997 4.38 11.383 0 0.682-0.040 1.354-0.118 2.015l0.008-0.080z"></path>
</svg>
