
<svg version="1.1" xmlns="http://www.w3.org/2000/svg" width="100" height="100" viewBox="0 0 100 100">
<title>deployment</title>
<path fill="param(fill) #000" stroke="param(outline) #000" stroke-width="param(outline-width) 1" d="M39.278 49.78c-2.664-2.392-6.204-3.855-10.086-3.855-4.263 0-8.114 1.764-10.863 4.602l-0.004 0.004-16.949 16.949c-0.85 0.85-1.375 2.024-1.375 3.32s0.525 2.47 1.375 3.32l14.11 14.11c0.85 0.85 2.024 1.375 3.32 1.375s2.47-0.525 3.32-1.375l17.43-17.43c2.655-2.655 4.297-6.323 4.297-10.375 0-4.188-1.755-7.966-4.569-10.64l-0.006-0.006z"></path>
<path fill="param(fill) #000" stroke="param(outline) #000" stroke-width="param(outline-width) 1" d="M99.54 5.731v-0c-1.129-3.355-4.246-5.729-7.917-5.729-4.603 0-8.335 3.732-8.335 8.335 0 0.932 0.153 1.828 0.435 2.665l-0.017-0.059v0c1.129 3.355 4.246 5.729 7.917 5.729 4.603 0 8.335-3.732 8.335-8.335 0-0.932-0.153-1.828-0.435-2.665l0.017 0.059z"></path>
<path fill="param(fill) #000" stroke="param(outline) #000" stroke-width="param(outline-width) 1" d="M92.619 37.617c0.648-1.309 1.027-2.85 1.027-4.479 0-4.050-2.34-7.553-5.742-9.23l-0.060-0.027-5.506-2.779c-0.267-0.135-0.579-0.251-0.904-0.329l-0.030-0.006c-14.274-6.214-32.151 0.644-39.314 14.64-0.301 0.573-0.477 1.251-0.477 1.971 0 2.38 1.929 4.309 4.309 4.309 1.666 0 3.112-0.946 3.829-2.33l0.011-0.024c4.018-7.352 11.697-12.254 20.52-12.254 0.905 0 1.798 0.052 2.676 0.152l-0.107-0.010-34.928 66.455c-0.299 0.575-0.475 1.255-0.475 1.976 0 2.402 1.947 4.349 4.349 4.349 1.681 0 3.139-0.954 3.863-2.349l0.011-0.024 19.406-36.922 7.814 3.908c6.75 3.779 11.238 10.886 11.238 19.040 0 3.651-0.9 7.092-2.489 10.113l0.057-0.119c-0.308 0.582-0.489 1.272-0.489 2.004 0 2.402 1.947 4.348 4.348 4.348 1.669 0 3.119-0.941 3.848-2.321l0.011-0.024c2.25-4.087 3.573-8.957 3.573-14.136 0-9.597-4.544-18.132-11.598-23.572l-0.069-0.051 3.677-7.090z"></path>
</svg>
