
<svg version="1.1" xmlns="http://www.w3.org/2000/svg" width="100" height="100" viewBox="0 0 100 100">
<title>destroyed</title>
<path fill="param(fill) #000" stroke="param(outline) #000" stroke-width="param(outline-width) 1" d="M50 0c-27.614 0-50 22.386-50 50s22.386 50 50 50c27.614 0 50-22.386 50-50v0c-0.001-27.614-22.386-49.999-50-50v0zM73 63.363c1.232 1.234 1.994 2.937 1.994 4.818s-0.762 3.585-1.994 4.819l0-0c-1.232 1.235-2.936 2-4.818 2s-3.586-0.764-4.818-2l-0-0-13.363-13.909-13.363 13.909c-1.232 1.235-2.936 2-4.818 2s-3.586-0.764-4.818-2l-0-0c-1.232-1.234-1.994-2.937-1.994-4.818s0.762-3.585 1.994-4.819l-0 0 13.909-13.363-13.909-13.363c-1.233-1.233-1.996-2.937-1.996-4.818 0-3.763 3.051-6.814 6.814-6.814 1.882 0 3.585 0.763 4.818 1.996v0l13.363 13.909 13.363-13.909c1.233-1.233 2.937-1.996 4.818-1.996 3.763 0 6.814 3.051 6.814 6.814 0 1.882-0.763 3.585-1.996 4.818v0l-13.909 13.363z"></path>
</svg>
