
<svg version="1.1" xmlns="http://www.w3.org/2000/svg" width="67" height="100" viewBox="0 0 67 100">
<title>distribution-site</title>
<path fill="param(fill) #000" stroke="param(outline) #000" stroke-width="param(outline-width) 1" d="M62.5 12.5h-58.333c-2.298 0.007-4.16 1.868-4.167 4.166v45.834h66.667v-45.833c-0.007-2.298-1.868-4.16-4.166-4.167h-0.001zM53.938 37.583v0.042c-0.169 0.397-0.401 0.736-0.687 1.021l-0 0-12.521 12.542c-0.564 0.551-1.336 0.891-2.188 0.891s-1.624-0.34-2.188-0.891l0.001 0.001c-0.56-0.56-0.906-1.333-0.906-2.188s0.346-1.628 0.906-2.188l7.271-7.271h-28.042c-1.703 0-3.083-1.38-3.083-3.083s1.38-3.083 3.083-3.083h28.042l-7.271-7.271c-0.556-0.559-0.9-1.33-0.9-2.182 0-1.709 1.385-3.094 3.094-3.094 0.851 0 1.623 0.344 2.182 0.901l-0-0 12.521 12.542c0.287 0.285 0.519 0.624 0.68 1l0.008 0.021v0.042c0.145 0.332 0.229 0.719 0.229 1.125s-0.084 0.793-0.236 1.144l0.007-0.019z"></path>
<path fill="param(fill) #000" stroke="param(outline) #000" stroke-width="param(outline-width) 1" d="M12.5 8.333h41.667c2.301 0 4.167-1.866 4.167-4.167s-1.866-4.167-4.167-4.167v0h-41.667c-2.301 0-4.167 1.866-4.167 4.167s1.866 4.167 4.167 4.167v0z"></path>
<path fill="param(fill) #000" stroke="param(outline) #000" stroke-width="param(outline-width) 1" d="M0 100h25v-20.833c0.007-2.298 1.868-4.16 4.166-4.167h8.334c2.298 0.007 4.16 1.868 4.167 4.166v20.834h25v-33.333h-66.667z"></path>
</svg>
