
<svg version="1.1" xmlns="http://www.w3.org/2000/svg" width="63" height="100" viewBox="0 0 63 100">
<title>doctor</title>
<path fill="param(fill) #000" stroke="param(outline) #000" stroke-width="param(outline-width) 1" d="M47.917 52.083c-8.055 0.001-14.584 6.531-14.584 14.585 0 6.569 4.343 12.124 10.314 13.95l0.103 0.027v1.646c0 5.178-4.197 9.375-9.375 9.375s-9.375-4.197-9.375-9.375v0-34.792c9.571-2.019 16.654-10.389 16.667-20.415v-27.085h-12.5c-2.301 0-4.167 1.866-4.167 4.167s1.866 4.167 4.167 4.167v0h4.167v18.75c0 6.904-5.596 12.5-12.5 12.5s-12.5-5.596-12.5-12.5v0-18.75h4.167c2.301 0 4.167-1.866 4.167-4.167s-1.866-4.167-4.167-4.167v0h-12.5v27.083c0.013 10.028 7.095 18.397 16.53 20.393l0.136 0.024v35.833h0.063c0.548 9.318 8.239 16.668 17.646 16.668s17.098-7.349 17.644-16.62l0.002-0.048h0.063v-2.688c6.074-1.853 10.417-7.408 10.417-13.977 0-8.055-6.529-14.584-14.584-14.585h-0zM47.917 72.917c-3.452 0-6.25-2.798-6.25-6.25s2.798-6.25 6.25-6.25c3.452 0 6.25 2.798 6.25 6.25v0c-0.010 3.448-2.802 6.24-6.249 6.25h-0.001z"></path>
</svg>
