
<svg version="1.1" xmlns="http://www.w3.org/2000/svg" width="73" height="100" viewBox="0 0 73 100">
<title>document</title>
<path fill="param(fill) #000" stroke="param(outline) #000" stroke-width="param(outline-width) 1" d="M68.182 0h-63.636c-2.507 0.008-4.538 2.038-4.545 4.545v90.91c0.008 2.507 2.038 4.538 4.545 4.545h43.183v-15.909c0-0.001 0-0.001 0-0.002 0-5.020 4.069-9.089 9.089-9.089 0.001 0 0.002 0 0.002 0h15.909v-70.455c-0.008-2.507-2.038-4.538-4.545-4.545h-0.001zM57.955 63.636h-43.182c-1.883 0-3.409-1.526-3.409-3.409s1.526-3.409 3.409-3.409v0h43.182c1.883 0 3.409 1.526 3.409 3.409s-1.526 3.409-3.409 3.409v0zM57.955 45.455h-43.182c-1.883 0-3.409-1.526-3.409-3.409s1.526-3.409 3.409-3.409v0h43.182c1.883 0 3.409 1.526 3.409 3.409s-1.526 3.409-3.409 3.409v0zM57.955 27.273h-43.182c-1.883 0-3.409-1.526-3.409-3.409s1.526-3.409 3.409-3.409v0h43.182c1.883 0 3.409 1.526 3.409 3.409s-1.526 3.409-3.409 3.409v0z"></path>
<path fill="param(fill) #000" stroke="param(outline) #000" stroke-width="param(outline-width) 1" d="M52.273 84.091v15.909l20.455-20.455h-15.909c-2.507 0.008-4.538 2.038-4.545 4.545v0.001z"></path>
</svg>
