
<svg version="1.1" xmlns="http://www.w3.org/2000/svg" width="100" height="100" viewBox="0 0 100 100">
<title>drought</title>
<path fill="param(fill) #000" stroke="param(outline) #000" stroke-width="param(outline-width) 1" d="M94.792 89.583h-21.875v-48.012c0.098-4.57 3.826-8.238 8.411-8.238 0.006 0 0.013 0 0.019 0h-0.001c4.547 0.005 8.233 3.69 8.238 8.237v0c0 0.033 0.009 0.063 0.010 0.096h-0.010v1.434c-2.479 1.191-4.161 3.68-4.167 6.562v0.001c0 3.645 5.974 11.323 7.107 12.746 0.043 0.055 0.11 0.090 0.184 0.090s0.141-0.035 0.184-0.089l0-0c1.133-1.424 7.107-9.101 7.107-12.746-0.005-2.883-1.688-5.372-4.123-6.544l-0.044-0.019v-1.434h-0.010c0.001-0.033 0.010-0.063 0.010-0.096-0.009-7.998-6.49-14.479-14.487-14.488h-0.001c-0.004 0-0.008 0-0.012 0-8.038 0-14.565 6.465-14.667 14.478l-0 0.010v10.512h-5.208c-0.004 0-0.009 0-0.014 0-0.362 0-0.719 0.023-1.069 0.067l0.042-0.004c-5.483 0.551-9.803 4.872-10.35 10.306l-0.004 0.048c-0.040 0.308-0.063 0.665-0.063 1.027 0 0.005 0 0.010 0 0.015v-0.001 2.476c-2.479 1.191-4.161 3.68-4.167 6.562v0.001c0 3.645 5.974 11.323 7.107 12.746 0.043 0.055 0.11 0.090 0.184 0.090s0.141-0.035 0.184-0.089l0-0c1.133-1.424 7.107-9.101 7.107-12.746-0.005-2.883-1.688-5.372-4.123-6.544l-0.044-0.019v-2.476c0.001-2.876 2.332-5.207 5.208-5.208h5.208v31.25h-61.458c-2.876 0-5.208 2.332-5.208 5.208s2.332 5.208 5.208 5.208v0h89.583c2.876 0 5.208-2.332 5.208-5.208s-2.332-5.208-5.208-5.208v0z"></path>
<path fill="param(fill) #000" stroke="param(outline) #000" stroke-width="param(outline-width) 1" d="M26.042 12.5c1.726-0 3.125-1.399 3.125-3.125v0-6.25c0-1.726-1.399-3.125-3.125-3.125s-3.125 1.399-3.125 3.125v0 6.25c0 1.726 1.399 3.125 3.125 3.125v0z"></path>
<path fill="param(fill) #000" stroke="param(outline) #000" stroke-width="param(outline-width) 1" d="M22.917 42.708v6.25c0 1.726 1.399 3.125 3.125 3.125s3.125-1.399 3.125-3.125v0-6.25c0-1.726-1.399-3.125-3.125-3.125s-3.125 1.399-3.125 3.125v0z"></path>
<path fill="param(fill) #000" stroke="param(outline) #000" stroke-width="param(outline-width) 1" d="M40.037 16.466l4.419-4.419c0.574-0.567 0.929-1.354 0.929-2.223 0-1.726-1.399-3.125-3.125-3.125-0.87 0-1.656 0.355-2.223 0.929l-4.42 4.42c-0.566 0.566-0.915 1.347-0.915 2.21 0 1.726 1.399 3.125 3.125 3.125 0.863 0 1.644-0.35 2.21-0.915v0z"></path>
<path fill="param(fill) #000" stroke="param(outline) #000" stroke-width="param(outline-width) 1" d="M12.047 35.617l-4.419 4.419c-0.557 0.564-0.902 1.34-0.902 2.196 0 1.726 1.399 3.125 3.125 3.125 0.856 0 1.632-0.344 2.196-0.902l4.419-4.419c0.566-0.566 0.915-1.347 0.915-2.21 0-1.726-1.399-3.125-3.125-3.125-0.863 0-1.644 0.35-2.21 0.915v0z"></path>
<path fill="param(fill) #000" stroke="param(outline) #000" stroke-width="param(outline-width) 1" d="M39.583 26.042c0 1.726 1.399 3.125 3.125 3.125h6.25c1.726 0 3.125-1.399 3.125-3.125s-1.399-3.125-3.125-3.125v0h-6.25c-1.726 0-3.125 1.399-3.125 3.125v0z"></path>
<path fill="param(fill) #000" stroke="param(outline) #000" stroke-width="param(outline-width) 1" d="M3.125 29.167h6.25c1.726 0 3.125-1.399 3.125-3.125s-1.399-3.125-3.125-3.125v0h-6.25c-1.726 0-3.125 1.399-3.125 3.125s1.399 3.125 3.125 3.125v0z"></path>
<path fill="param(fill) #000" stroke="param(outline) #000" stroke-width="param(outline-width) 1" d="M35.617 35.617c-0.566 0.566-0.915 1.347-0.915 2.21s0.35 1.644 0.915 2.21l4.419 4.419c0.564 0.557 1.34 0.902 2.196 0.902 1.726 0 3.125-1.399 3.125-3.125 0-0.856-0.344-1.632-0.902-2.196l-4.419-4.419c-0.566-0.566-1.347-0.915-2.21-0.915s-1.644 0.35-2.21 0.915v0z"></path>
<path fill="param(fill) #000" stroke="param(outline) #000" stroke-width="param(outline-width) 1" d="M12.047 16.466c0.566 0.566 1.347 0.915 2.21 0.915 1.726 0 3.125-1.399 3.125-3.125 0-0.863-0.35-1.644-0.915-2.21l-4.419-4.419c-0.564-0.557-1.34-0.902-2.196-0.902-1.726 0-3.125 1.399-3.125 3.125 0 0.856 0.344 1.632 0.902 2.196l-0-0z"></path>
<path fill="param(fill) #000" stroke="param(outline) #000" stroke-width="param(outline-width) 1" d="M35.417 26.042c0 5.178-4.197 9.375-9.375 9.375s-9.375-4.197-9.375-9.375c0-5.178 4.197-9.375 9.375-9.375s9.375 4.197 9.375 9.375z"></path>
</svg>
