
<svg version="1.1" xmlns="http://www.w3.org/2000/svg" width="100" height="100" viewBox="0 0 100 100">
<title>drowned</title>
<path fill="param(fill) #000" stroke="param(outline) #000" stroke-width="param(outline-width) 1" d="M27.53 64.555c2.071-1.17 4.523-1.915 7.137-2.053l0.041-0.002c0.098-0.002 0.214-0.003 0.331-0.003 3.441 0 6.658 0.962 9.395 2.631l-0.080-0.045c1.495 0.996 3.333 1.589 5.309 1.589 0.119 0 0.237-0.002 0.354-0.006l-0.017 0c0.097 0.004 0.21 0.005 0.324 0.005 1.974 0 3.809-0.593 5.336-1.611l-0.035 0.022c1.105-0.646 2.391-1.244 3.735-1.721l0.161-0.050c1.921-0.517 4.125-0.814 6.4-0.814 0.086 0 0.173 0 0.259 0.001l-0.013-0h0.5c-1.834-8.484-6.056-15.785-11.921-21.38l-0.016-0.015-0.033-0.027c-4.184-4.082-6.779-9.776-6.779-16.077 0-6.225 2.533-11.858 6.625-15.924l0.001-0.001c1.013-0.985 1.642-2.362 1.642-3.885 0-1.205-0.393-2.318-1.059-3.218l0.010 0.015c-0.963-1.215-2.438-1.987-4.094-1.987-1.438 0-2.74 0.583-3.683 1.525v0c-6.047 5.986-9.792 14.289-9.792 23.467 0 0.003 0 0.006 0 0.009v-0c0.066 7.054 2.375 13.556 6.246 18.841l-0.064-0.091-0.188 0.208-16.404 20.101c-0.047 0.055-0.076 0.127-0.076 0.206 0 0.175 0.142 0.318 0.318 0.318 0.047 0 0.092-0.010 0.132-0.029l-0.002 0.001z"></path>
<path fill="param(fill) #000" stroke="param(outline) #000" stroke-width="param(outline-width) 1" d="M95.834 87.5c-0.104-0.002-0.227-0.003-0.35-0.003-3.428 0-6.631 0.962-9.354 2.631l0.078-0.045c-1.612 0.994-3.565 1.583-5.656 1.583s-4.045-0.589-5.703-1.61l0.047 0.027c-2.645-1.625-5.848-2.587-9.275-2.587-0.123 0-0.245 0.001-0.368 0.004l0.018-0c-0.103-0.002-0.224-0.003-0.345-0.003-2.289 0-4.476 0.437-6.482 1.233l0.119-0.042c-1.141 0.433-2.109 0.902-3.028 1.445l0.090-0.049c-0.542 0.292-1.021 0.563-1.521 0.792h-0.021c-1.088 0.505-2.361 0.8-3.704 0.8-0.133 0-0.266-0.003-0.398-0.009l0.019 0.001c-0.1 0.004-0.219 0.006-0.337 0.006-1.976 0-3.814-0.593-5.344-1.611l0.036 0.022c-2.658-1.625-5.875-2.586-9.316-2.586-0.116 0-0.232 0.001-0.348 0.003l0.017-0c-0.104-0.002-0.226-0.003-0.349-0.003-3.428 0-6.631 0.962-9.354 2.631l0.078-0.045c-1.504 0.996-3.351 1.588-5.336 1.588-0.109 0-0.218-0.002-0.326-0.005l0.016 0c-0.092 0.003-0.201 0.005-0.31 0.005-1.985 0-3.832-0.593-5.372-1.611l0.036 0.023c-2.645-1.625-5.848-2.587-9.275-2.587-0.123 0-0.246 0.001-0.368 0.004l0.018-0c-2.301 0-4.167 1.866-4.167 4.167s1.866 4.167 4.167 4.167v0c0.092-0.003 0.201-0.005 0.31-0.005 1.985 0 3.832 0.593 5.372 1.611l-0.036-0.023c2.645 1.625 5.848 2.587 9.275 2.587 0.123 0 0.246-0.001 0.368-0.004l-0.018 0c0.104 0.002 0.227 0.003 0.349 0.003 3.428 0 6.631-0.962 9.354-2.631l-0.078 0.045c1.504-0.996 3.351-1.588 5.336-1.588 0.109 0 0.217 0.002 0.325 0.005l-0.016-0c0.096-0.003 0.21-0.005 0.324-0.005 1.981 0 3.823 0.593 5.358 1.611l-0.036-0.022c2.653 1.625 5.863 2.587 9.299 2.587 0.122 0 0.244-0.001 0.365-0.004l-0.018 0c0.099 0.002 0.216 0.003 0.333 0.003 3.433 0 6.642-0.962 9.371-2.631l-0.079 0.045c1.608-0.994 3.558-1.583 5.646-1.583s4.038 0.589 5.693 1.61l-0.047-0.027c2.764 1.624 6.088 2.583 9.635 2.583s6.872-0.959 9.726-2.633l-0.091 0.049c1.5-0.996 3.342-1.589 5.322-1.589 0.114 0 0.227 0.002 0.34 0.006l-0.016-0c2.301 0 4.167-1.866 4.167-4.167s-1.866-4.167-4.167-4.167v0z"></path>
<path fill="param(fill) #000" stroke="param(outline) #000" stroke-width="param(outline-width) 1" d="M4.167 79.167c0.093-0.003 0.202-0.005 0.312-0.005 1.981 0 3.825 0.589 5.364 1.602l-0.037-0.023c2.644 1.63 5.847 2.595 9.277 2.595 0.124 0 0.248-0.001 0.371-0.004l-0.018 0c0.105 0.002 0.228 0.004 0.352 0.004 3.431 0 6.636-0.966 9.359-2.64l-0.078 0.044c1.503-0.99 3.347-1.58 5.328-1.58 0.11 0 0.22 0.002 0.329 0.005l-0.016-0c0.093-0.003 0.203-0.005 0.313-0.005 1.982 0 3.826 0.589 5.367 1.603l-0.037-0.023c2.645 1.63 5.851 2.595 9.282 2.595 0.124 0 0.248-0.001 0.372-0.004l-0.018 0c0.105 0.002 0.229 0.004 0.353 0.004 3.43 0 6.635-0.966 9.358-2.641l-0.077 0.044c1.609-0.988 3.558-1.574 5.644-1.574s4.036 0.586 5.693 1.602l-0.048-0.027c2.763 1.629 6.087 2.592 9.637 2.592s6.874-0.963 9.726-2.641l-0.090 0.049c1.505-0.99 3.351-1.58 5.334-1.58 0.11 0 0.22 0.002 0.329 0.005l-0.016-0c2.301 0 4.167-1.866 4.167-4.167s-1.866-4.167-4.167-4.167v0c-0.105-0.002-0.229-0.004-0.354-0.004-3.431 0-6.636 0.966-9.359 2.64l0.078-0.044c-1.611 0.989-3.561 1.575-5.649 1.575s-4.038-0.586-5.696-1.602l0.048 0.027c-2.646-1.63-5.851-2.596-9.283-2.596-0.125 0-0.249 0.001-0.374 0.004l0.019-0c-0.105-0.002-0.23-0.004-0.354-0.004-3.429 0-6.633 0.966-9.355 2.64l0.078-0.044c-1.503 0.99-3.347 1.58-5.328 1.58-0.11 0-0.22-0.002-0.329-0.005l0.016 0c-0.093 0.003-0.203 0.005-0.313 0.005-1.982 0-3.826-0.589-5.367-1.603l0.037 0.023c-2.645-1.63-5.851-2.595-9.282-2.595-0.124 0-0.248 0.001-0.372 0.004l0.018-0c-0.105-0.002-0.228-0.004-0.352-0.004-3.431 0-6.636 0.966-9.359 2.64l0.078-0.044c-1.503 0.99-3.347 1.58-5.328 1.58-0.11 0-0.22-0.002-0.329-0.005l0.016 0c-0.093 0.003-0.202 0.005-0.312 0.005-1.98 0-3.823-0.589-5.362-1.601l0.037 0.023c-2.643-1.63-5.847-2.596-9.276-2.596-0.125 0-0.25 0.001-0.374 0.004l0.019-0c-2.301 0-4.167 1.866-4.167 4.167s1.866 4.167 4.167 4.167v0z"></path>
<path fill="param(fill) #000" stroke="param(outline) #000" stroke-width="param(outline-width) 1" d="M83.333 39.583c0 5.753-4.664 10.417-10.417 10.417s-10.417-4.664-10.417-10.417c0-5.753 4.664-10.417 10.417-10.417s10.417 4.664 10.417 10.417z"></path>
</svg>
