
<svg version="1.1" xmlns="http://www.w3.org/2000/svg" width="83" height="100" viewBox="0 0 83 100">
<title>earthquake</title>
<path fill="param(fill) #000" stroke="param(outline) #000" stroke-width="param(outline-width) 1" d="M82.438 37.583l-39.333-37.021c-0.376-0.349-0.882-0.563-1.438-0.563s-1.061 0.214-1.439 0.564l0.001-0.001-39.333 37.021c-0.551 0.501-0.896 1.222-0.896 2.022 0 0.007 0 0.014 0 0.020v-0.001 58.292c0.004 1.149 0.934 2.080 2.083 2.083h27.459l18.563-18.583-17.563-15.813c-0.846-0.763-1.375-1.864-1.375-3.088 0-0.020 0-0.041 0-0.061v0.003c0.017-1.248 0.577-2.363 1.453-3.121l0.005-0.004 11.167-9.563-7.229-7.25c-0.762-0.747-1.234-1.787-1.234-2.938s0.472-2.191 1.234-2.937l8.334-8.334c0.752-0.752 1.79-1.217 2.938-1.217 2.294 0 4.154 1.86 4.154 4.154 0 1.147-0.465 2.186-1.217 2.938v0l-5.375 5.396 7.458 7.479c0.761 0.747 1.233 1.786 1.233 2.936 0 0.059-0.001 0.118-0.004 0.177l0-0.008c-0.054 1.202-0.606 2.265-1.453 2.995l-0.005 0.005-10.979 9.417 17.313 15.563c0.846 0.764 1.376 1.865 1.376 3.090 0 1.154-0.47 2.199-1.23 2.952l-15.813 15.813h39.958c1.149-0.004 2.080-0.934 2.083-2.083v-58.292c0-0.006 0-0.013 0-0.019 0-0.801-0.345-1.521-0.894-2.020l-0.002-0.002z"></path>
</svg>
