
<svg version="1.1" xmlns="http://www.w3.org/2000/svg" width="81" height="100" viewBox="0 0 81 100">
<title>education</title>
<path fill="param(fill) #000" stroke="param(outline) #000" stroke-width="param(outline-width) 1" d="M78.571 0h-9.524v19.048l-7.143-2.381-7.143 2.381v-19.048h-54.762v100h78.571c0.014 0 0.031 0 0.048 0 1.264 0 2.293-1.004 2.333-2.259l0-0.004v-95.476c-0.040-1.258-1.069-2.262-2.333-2.262-0.017 0-0.033 0-0.050 0h0.002zM14.286 91.667c0 0.004 0 0.008 0 0.012 0 0.651-0.528 1.179-1.179 1.179-0.004 0-0.008 0-0.012-0h-4.761c-0.004 0-0.008 0-0.012 0-0.651 0-1.179-0.528-1.179-1.179 0-0.004 0-0.008 0-0.012v0.001-83.333c0-0.004-0-0.008-0-0.012 0-0.651 0.528-1.179 1.179-1.179 0.004 0 0.008 0 0.012 0h4.761c0.004 0 0.008-0 0.012-0 0.651 0 1.179 0.528 1.179 1.179 0 0.004 0 0.008-0 0.012v-0.001zM60.714 54.762h-30.952c-1.972 0-3.571-1.599-3.571-3.571s1.599-3.571 3.571-3.571v0h30.952c1.972 0 3.571 1.599 3.571 3.571s-1.599 3.571-3.571 3.571v0zM60.714 40.476h-30.952c-1.972 0-3.571-1.599-3.571-3.571s1.599-3.571 3.571-3.571v0h30.952c1.972 0 3.571 1.599 3.571 3.571s-1.599 3.571-3.571 3.571v0z"></path>
</svg>
