
<svg version="1.1" xmlns="http://www.w3.org/2000/svg" width="68" height="100" viewBox="0 0 68 100">
<title>elderly</title>
<path fill="param(fill) #000" stroke="param(outline) #000" stroke-width="param(outline-width) 1" d="M55.319 44.681c0-14.556-11.891-25.532-27.66-25.532s-27.66 10.976-27.66 25.532c0 2.35 1.905 4.255 4.255 4.255s4.255-1.905 4.255-4.255v0c-0.002-0.090-0.003-0.195-0.003-0.301 0-6.072 3.414-11.346 8.428-14.007l0.086-0.042v65.414c0 2.35 1.905 4.255 4.255 4.255s4.255-1.905 4.255-4.255v0-29.787h4.255v29.787c0 2.35 1.905 4.255 4.255 4.255s4.255-1.905 4.255-4.255v0-65.414c5.099 2.703 8.513 7.977 8.513 14.049 0 0.106-0.001 0.212-0.003 0.317l0-0.016c0 2.35 1.905 4.255 4.255 4.255s4.255-1.905 4.255-4.255v0z"></path>
<path fill="param(fill) #000" stroke="param(outline) #000" stroke-width="param(outline-width) 1" d="M48.936 8.511c0 4.7-3.81 8.511-8.511 8.511s-8.511-3.81-8.511-8.511c0-4.7 3.81-8.511 8.511-8.511s8.511 3.81 8.511 8.511z"></path>
<path fill="param(fill) #000" stroke="param(outline) #000" stroke-width="param(outline-width) 1" d="M59.537 58.511c-0.034-0-0.074-0.001-0.114-0.001-4.662 0-8.441 3.779-8.441 8.441 0 0.025 0 0.049 0 0.074v-0.004c0 1.763 1.429 3.192 3.192 3.192s3.192-1.429 3.192-3.192v0c0.025-1.18 0.988-2.128 2.172-2.128s2.147 0.947 2.172 2.125v29.79c0 1.763 1.429 3.192 3.192 3.192s3.192-1.429 3.192-3.192v0-29.787c0-0.020 0-0.044 0-0.069 0-4.663-3.78-8.443-8.443-8.443-0.040 0-0.080 0-0.12 0.001l0.006-0z"></path>
</svg>
