
<svg version="1.1" xmlns="http://www.w3.org/2000/svg" width="114" height="100" viewBox="0 0 114 100">
<title>epidemic</title>
<path fill="param(fill) #000" stroke="param(outline) #000" stroke-width="param(outline-width) 1" d="M114.284 70.221v-1.172h-0.118l-0-0.001h0.12c-0.008-16.636-13.15-30.2-29.619-30.886l-0.062-0.002c-0.076-0.147-0.138-0.303-0.217-0.449 2.349-4.165 3.733-9.144 3.733-14.447 0-7.999-3.149-15.262-8.275-20.617l0.010 0.011 0.004-0.004-0.93-0.949-0.004 0.004c-1.042-1.055-2.488-1.709-4.088-1.709-1.615 0-3.075 0.667-4.118 1.74l-0.001 0.001c-1.055 1.086-1.706 2.57-1.706 4.205 0 1.62 0.638 3.090 1.676 4.174l-0.002-0.002-0.004 0.005 0.861 0.878c2.901 3 4.689 7.093 4.689 11.603 0 0.424-0.016 0.845-0.047 1.261l0.003-0.055c-0.070 1.39-0.265 2.697-0.576 3.958l0.030-0.142c-5.083-3.868-11.52-6.197-18.501-6.197-6.979 0-13.414 2.327-18.572 6.248l0.076-0.055c-0.283-1.118-0.48-2.423-0.55-3.762l-0.002-0.050c-0.028-0.362-0.044-0.784-0.044-1.21 0-4.503 1.787-8.588 4.69-11.586l-0.004 0.004-0.098-0.1 0.001-0.001 0.099 0.102 0.825-0.873-0.003-0.004c1.047-1.085 1.692-2.563 1.692-4.192 0-1.637-0.651-3.121-1.708-4.209l0.001 0.001c-1.045-1.075-2.506-1.743-4.122-1.743-1.609 0-3.063 0.661-4.106 1.727l-0.001 0.001-0.004 0.004-0.014 0.012-0.011 0.014-0.812 0.829 0.082 0.084h-0l-0.083-0.084-0-0.001c-5.145 5.346-8.313 12.626-8.313 20.646 0 5.309 1.388 10.293 3.822 14.61l-0.077-0.149c-0.083 0.152-0.146 0.315-0.226 0.469-16.531 0.688-29.673 14.252-29.681 30.887v0.001h0.12l-0 0.001h-0.118v1.172l-0.002 0.017 0.002 0.017v0.006h0.001c0 3.286 2.664 5.95 5.95 5.95s5.95-2.664 5.95-5.95v0h0.004l0.022-1.213h-0.144l-0-0.001h0.142c0.016-8.837 6.050-16.26 14.22-18.392l0.132-0.029c-0.033 0.584-0.089 1.162-0.089 1.754 0.020 12.948 7.978 24.032 19.268 28.646l0.207 0.075c-3.507 4.281-8.793 6.991-14.713 6.993h-1.242v0.005c-3.265 0.026-5.901 2.679-5.901 5.947s2.637 5.921 5.899 5.947h0.002v0.005h1.342v-0.005c10.95-0.037 20.555-5.764 26.015-14.378l0.075-0.126c5.535 8.74 15.14 14.468 26.084 14.505h0.005v0.005h1.342v-0.005c3.265-0.026 5.901-2.679 5.901-5.947s-2.637-5.921-5.899-5.947h-0.002v-0.005h-1.242c-5.92-0.002-11.206-2.712-14.686-6.96l-0.027-0.033c11.496-4.689 19.455-15.773 19.475-28.719v-0.002c0-0.592-0.056-1.17-0.089-1.754 8.303 2.161 14.336 9.584 14.353 18.419v0.002h0.142l-0 0.001h-0.144l0.022 1.213h0.004c0 3.286 2.664 5.95 5.95 5.95s5.95-2.664 5.95-5.95h0.001v-0.006l0.002-0.017zM57.143 30.952c5.407 0.001 10.344 2.015 14.101 5.334l-0.023-0.020c-0.289 0.336-0.573 0.675-0.888 0.997-3.336 3.451-8.007 5.594-13.179 5.594s-9.843-2.143-13.174-5.589l-0.005-0.005c-0.319-0.325-0.606-0.668-0.899-1.008 3.733-3.292 8.664-5.301 14.065-5.302h0zM35.714 52.381c0-0.577 0.042-1.144 0.087-1.709 8.218 2.174 14.177 9.542 14.177 18.303 0 1.223-0.116 2.419-0.338 3.578l0.019-0.118c-8.203-3.125-13.928-10.918-13.945-20.051v-0.002zM64.627 72.434c-0.203-1.040-0.319-2.236-0.319-3.459 0-8.76 5.959-16.129 14.045-18.273l0.132-0.030c0.045 0.565 0.087 1.132 0.087 1.709-0.016 9.135-5.742 16.928-13.797 20.004l-0.147 0.049z"></path>
</svg>
