
<svg version="1.1" xmlns="http://www.w3.org/2000/svg" width="117" height="100" viewBox="0 0 117 100">
<title>favourite</title>
<path fill="param(fill) #000" stroke="param(outline) #000" stroke-width="param(outline-width) 1" d="M108.573 9.409l-0.909-0.908c-5.252-5.252-12.508-8.501-20.522-8.501s-15.27 3.249-20.522 8.501v0l-8.082 8.573-8.082-8.573c-5.252-5.252-12.508-8.501-20.522-8.501s-15.27 3.249-20.522 8.501l-0.909 0.908c-5.252 5.252-8.501 12.508-8.501 20.523s3.248 15.27 8.501 20.523v0l47.876 48.651c0.553 0.553 1.316 0.895 2.159 0.895s1.607-0.342 2.159-0.895v0l47.876-48.651c5.252-5.252 8.501-12.508 8.501-20.523s-3.248-15.27-8.501-20.523v0z"></path>
</svg>
