
<svg version="1.1" xmlns="http://www.w3.org/2000/svg" width="109" height="100" viewBox="0 0 109 100">
<title>fax</title>
<path fill="param(fill) #000" stroke="param(outline) #000" stroke-width="param(outline-width) 1" d="M104.545 36.364h-100c-2.507 0.008-4.538 2.038-4.545 4.545v31.728c0.008 2.507 2.038 4.538 4.545 4.545h13.637v-13.568h72.727v13.568h13.636c2.507-0.008 4.538-2.038 4.545-4.545v-31.728c-0.008-2.507-2.038-4.538-4.545-4.545h-0.001zM72.727 52.273c-2.51 0-4.545-2.035-4.545-4.545s2.035-4.545 4.545-4.545c2.51 0 4.545 2.035 4.545 4.545v0c-0.008 2.507-2.038 4.538-4.545 4.545h-0.001zM86.364 52.273c-2.51 0-4.545-2.035-4.545-4.545s2.035-4.545 4.545-4.545c2.51 0 4.545 2.035 4.545 4.545v0c-0.008 2.507-2.038 4.538-4.545 4.545h-0.001z"></path>
<path fill="param(fill) #000" stroke="param(outline) #000" stroke-width="param(outline-width) 1" d="M25 77.182v18.273c0.008 2.507 2.038 4.538 4.545 4.545h50.001c2.507-0.008 4.538-2.038 4.545-4.545v-25.023h-59.091z"></path>
<path fill="param(fill) #000" stroke="param(outline) #000" stroke-width="param(outline-width) 1" d="M84.091 15.909h-9.091c-3.761-0.011-6.807-3.057-6.818-6.817v-9.092h-38.636c-2.507 0.008-4.538 2.038-4.545 4.545v27.273h59.091z"></path>
<path fill="param(fill) #000" stroke="param(outline) #000" stroke-width="param(outline-width) 1" d="M75 11.364h9.091l-11.364-11.364v9.091c0.004 1.254 1.019 2.269 2.272 2.273h0z"></path>
</svg>
