
<svg version="1.1" xmlns="http://www.w3.org/2000/svg" width="100" height="100" viewBox="0 0 100 100">
<title>ferry</title>
<path fill="param(fill) #000" stroke="param(outline) #000" stroke-width="param(outline-width) 1" d="M13.792 65.084c1.4 0.929 3.106 1.504 4.943 1.562l0.015 0c0.208 0.020 0.438 0.020 0.688 0.020 0.092 0.003 0.201 0.005 0.31 0.005 1.985 0 3.831-0.593 5.372-1.61l-0.036 0.023c0.729-0.429 1.599-0.862 2.499-1.238l0.147-0.054c1.949-0.82 4.215-1.296 6.592-1.296 0.136 0 0.272 0.002 0.407 0.005l-0.020-0c0.099-0.002 0.215-0.003 0.331-0.003 3.441 0 6.657 0.962 9.394 2.632l-0.079-0.045c1.495 0.996 3.332 1.589 5.308 1.589 0.119 0 0.237-0.002 0.354-0.006l-0.017 0c0.097 0.004 0.21 0.005 0.325 0.005 1.973 0 3.808-0.593 5.336-1.61l-0.035 0.022c2.652-1.625 5.863-2.587 9.298-2.587 0.122 0 0.244 0.001 0.366 0.004l-0.018-0c0.099-0.002 0.216-0.003 0.334-0.003 2.402 0 4.693 0.476 6.784 1.338l-0.118-0.043c1.044 0.437 1.907 0.87 2.737 1.352l-0.112-0.060c1.504 0.995 3.351 1.588 5.336 1.588 0.109 0 0.218-0.002 0.326-0.005l-0.016 0c0.078 0.002 0.169 0.003 0.261 0.003 0.899 0 1.771-0.115 2.603-0.331l-0.072 0.016c1.095-0.326 2.048-0.758 2.927-1.3l-0.052 0.030c0.479-0.272 0.98-0.542 1.542-0.813 2.472-5.122 3.917-11.139 3.917-17.492 0-0.032 0-0.064-0-0.096v0.005-17.521c-0.004-1.149-0.934-2.080-2.083-2.083h-79.167c-1.149 0.004-2.080 0.934-2.083 2.083v17.521c-0 0.027-0 0.059-0 0.091 0 6.354 1.445 12.37 4.023 17.739l-0.107-0.246c0.563 0.271 1.063 0.541 1.542 0.813zM20.833 35.417h58.333v9.562c0.003 0.146 0.004 0.318 0.004 0.49 0 3.885-0.767 7.59-2.157 10.973l0.070-0.192h-54.167c-1.321-3.191-2.088-6.896-2.088-10.781 0-0.172 0.001-0.344 0.004-0.516l-0 0.026z"></path>
<path fill="param(fill) #000" stroke="param(outline) #000" stroke-width="param(outline-width) 1" d="M41.667 8.333h16.667c2.301 0 4.167-1.866 4.167-4.167s-1.866-4.167-4.167-4.167v0h-16.667c-2.301 0-4.167 1.866-4.167 4.167s1.866 4.167 4.167 4.167v0z"></path>
<path fill="param(fill) #000" stroke="param(outline) #000" stroke-width="param(outline-width) 1" d="M23.958 22.917h52.083c2.876 0 5.208-2.332 5.208-5.208s-2.332-5.208-5.208-5.208v0h-52.083c-2.876 0-5.208 2.332-5.208 5.208s2.332 5.208 5.208 5.208v0z"></path>
<path fill="param(fill) #000" stroke="param(outline) #000" stroke-width="param(outline-width) 1" d="M95.833 87.5c-0.106-0.002-0.231-0.004-0.356-0.004-3.43 0-6.635 0.966-9.357 2.64l0.078-0.044c-1.611 0.989-3.561 1.575-5.649 1.575s-4.038-0.586-5.696-1.602l0.048 0.027c-2.645-1.63-5.85-2.596-9.28-2.596-0.126 0-0.251 0.001-0.376 0.004l0.019-0c-0.106-0.002-0.231-0.004-0.357-0.004-3.429 0-6.632 0.966-9.352 2.64l0.077-0.044c-1.503 0.99-3.347 1.58-5.328 1.58-0.11 0-0.22-0.002-0.329-0.005l0.016 0c-0.093 0.003-0.203 0.005-0.313 0.005-1.982 0-3.826-0.589-5.367-1.603l0.037 0.023c-2.645-1.63-5.849-2.596-9.279-2.596-0.125 0-0.25 0.001-0.375 0.004l0.019-0c-0.106-0.002-0.23-0.004-0.355-0.004-3.43 0-6.634 0.966-9.356 2.64l0.078-0.044c-1.503 0.99-3.347 1.58-5.328 1.58-0.11 0-0.22-0.002-0.329-0.005l0.016 0c-0.093 0.003-0.201 0.005-0.311 0.005-1.981 0-3.824-0.589-5.364-1.602l0.037 0.023c-2.645-1.63-5.849-2.595-9.28-2.595-0.124 0-0.247 0.001-0.37 0.004l0.018-0c-2.301 0-4.167 1.866-4.167 4.167s1.866 4.167 4.167 4.167v0c0.093-0.003 0.202-0.005 0.312-0.005 1.981 0 3.825 0.589 5.364 1.602l-0.037-0.023c2.644 1.63 5.849 2.595 9.279 2.595 0.123 0 0.246-0.001 0.369-0.004l-0.018 0c0.106 0.002 0.23 0.004 0.355 0.004 3.43 0 6.634-0.966 9.356-2.64l-0.078 0.044c1.503-0.99 3.347-1.58 5.328-1.58 0.11 0 0.22 0.002 0.329 0.005l-0.016-0c0.093-0.003 0.203-0.005 0.313-0.005 1.982 0 3.826 0.589 5.367 1.603l-0.037-0.023c2.645 1.63 5.849 2.596 9.279 2.596 0.125 0 0.25-0.001 0.375-0.004l-0.019 0c0.104 0.002 0.227 0.003 0.35 0.003 3.432 0 6.638-0.966 9.361-2.64l-0.078 0.044c1.609-0.989 3.559-1.575 5.645-1.575s4.035 0.586 5.692 1.602l-0.048-0.027c2.763 1.629 6.087 2.592 9.636 2.592s6.874-0.963 9.726-2.641l-0.090 0.049c1.505-0.99 3.351-1.58 5.334-1.58 0.11 0 0.22 0.002 0.329 0.005l-0.016-0c2.301 0 4.167-1.866 4.167-4.167s-1.866-4.167-4.167-4.167v0z"></path>
<path fill="param(fill) #000" stroke="param(outline) #000" stroke-width="param(outline-width) 1" d="M4.167 79.167c0.093-0.003 0.202-0.005 0.312-0.005 1.981 0 3.825 0.589 5.364 1.602l-0.037-0.023c2.644 1.63 5.849 2.595 9.279 2.595 0.123 0 0.246-0.001 0.369-0.004l-0.018 0c0.106 0.002 0.23 0.004 0.355 0.004 3.43 0 6.634-0.966 9.356-2.64l-0.078 0.044c1.503-0.99 3.347-1.58 5.328-1.58 0.11 0 0.22 0.002 0.329 0.005l-0.016-0c0.093-0.003 0.203-0.005 0.313-0.005 1.982 0 3.826 0.589 5.367 1.603l-0.037-0.023c2.645 1.63 5.849 2.596 9.279 2.596 0.125 0 0.25-0.001 0.375-0.004l-0.019 0c0.104 0.002 0.227 0.003 0.35 0.003 3.432 0 6.638-0.966 9.361-2.64l-0.078 0.044c1.609-0.989 3.559-1.575 5.645-1.575s4.035 0.586 5.692 1.602l-0.048-0.027c2.763 1.629 6.087 2.592 9.636 2.592s6.874-0.963 9.726-2.641l-0.090 0.049c1.505-0.99 3.351-1.58 5.334-1.58 0.11 0 0.22 0.002 0.329 0.005l-0.016-0c2.301 0 4.167-1.866 4.167-4.167s-1.866-4.167-4.167-4.167v0c-0.106-0.002-0.231-0.004-0.356-0.004-3.43 0-6.635 0.966-9.357 2.64l0.078-0.044c-1.611 0.989-3.561 1.575-5.649 1.575s-4.038-0.586-5.696-1.602l0.048 0.027c-2.645-1.63-5.85-2.596-9.28-2.596-0.126 0-0.251 0.001-0.376 0.004l0.019-0c-0.106-0.002-0.231-0.004-0.357-0.004-3.429 0-6.632 0.966-9.352 2.64l0.077-0.044c-1.503 0.99-3.347 1.58-5.328 1.58-0.11 0-0.22-0.002-0.329-0.005l0.016 0c-0.093 0.003-0.203 0.005-0.313 0.005-1.982 0-3.826-0.589-5.367-1.603l0.037 0.023c-2.645-1.63-5.849-2.596-9.279-2.596-0.125 0-0.25 0.001-0.375 0.004l0.019-0c-0.106-0.002-0.23-0.004-0.355-0.004-3.43 0-6.634 0.966-9.356 2.64l0.078-0.044c-1.503 0.99-3.347 1.58-5.328 1.58-0.11 0-0.22-0.002-0.329-0.005l0.016 0c-0.093 0.003-0.201 0.005-0.311 0.005-1.981 0-3.824-0.589-5.364-1.602l0.037 0.023c-2.645-1.63-5.849-2.595-9.28-2.595-0.124 0-0.247 0.001-0.37 0.004l0.018-0c-2.301 0-4.167 1.866-4.167 4.167s1.866 4.167 4.167 4.167v0z"></path>
</svg>
