
<svg version="1.1" xmlns="http://www.w3.org/2000/svg" width="117" height="100" viewBox="0 0 117 100">
<title>film</title>
<path fill="param(fill) #000" stroke="param(outline) #000" stroke-width="param(outline-width) 1" d="M28.049 43.902c7.409 0 13.415-6.006 13.415-13.415s-6.006-13.415-13.415-13.415c-7.409 0-13.415 6.006-13.415 13.415v0c0 0.002 0 0.005 0 0.008 0 7.404 6.003 13.407 13.407 13.407 0.003 0 0.005 0 0.008 0h-0zM28.049 26.829c2.021 0 3.658 1.638 3.658 3.658s-1.638 3.658-3.658 3.658c-2.021 0-3.658-1.638-3.658-3.658v0c0-0.001 0-0.003 0-0.005 0-2.018 1.636-3.654 3.654-3.654 0.002 0 0.003 0 0.005 0h-0z"></path>
<path fill="param(fill) #000" stroke="param(outline) #000" stroke-width="param(outline-width) 1" d="M69.512 41.463c11.45 0 20.732-9.282 20.732-20.732s-9.282-20.732-20.732-20.732c-11.45 0-20.732 9.282-20.732 20.732v0c0.008 11.447 9.285 20.724 20.731 20.732h0.001zM69.512 14.634c3.368 0 6.098 2.73 6.098 6.098s-2.73 6.098-6.098 6.098c-3.368 0-6.098-2.73-6.098-6.098v0c0.001-3.367 2.73-6.096 6.097-6.098h0z"></path>
<path fill="param(fill) #000" stroke="param(outline) #000" stroke-width="param(outline-width) 1" d="M114.156 58.584l-21.473 4.831v-7.317c-0.008-2.691-2.187-4.87-4.877-4.878h-73.171c-2.691 0.008-4.87 2.187-4.878 4.877v2.44h-4.878c-2.694 0-4.878 2.184-4.878 4.878v0 1.463c0 2.694 2.184 4.878 4.878 4.878v0h4.878v25.366c0.008 2.691 2.187 4.87 4.877 4.878h73.171c2.691-0.008 4.87-2.187 4.878-4.877v-9.757l21.473 4.831c0.144 0.030 0.309 0.047 0.478 0.047 1.347 0 2.439-1.092 2.439-2.439 0 0 0 0 0 0v0-26.829c0 0 0 0 0 0 0-1.347-1.092-2.439-2.439-2.439-0.169 0-0.334 0.017-0.494 0.050l0.016-0.003zM43.902 82.927c-0.008 2.691-2.187 4.87-4.877 4.878h-14.635c-2.691-0.008-4.87-2.187-4.878-4.877v-4.879c0.008-2.691 2.187-4.87 4.877-4.878h14.635c2.691 0.008 4.87 2.187 4.878 4.877v0.001z"></path>
</svg>
