
<svg version="1.1" xmlns="http://www.w3.org/2000/svg" width="96" height="100" viewBox="0 0 96 100">
<title>financing</title>
<path fill="param(fill) #000" stroke="param(outline) #000" stroke-width="param(outline-width) 1" d="M91.794 21.374h-78.244c-1.145 0-1.908 0.763-1.908 1.908v11.45h30.534c3.626-5.725 11.45-7.443 17.176-3.817 1.527 0.954 2.863 2.29 3.817 3.817h19.084c3.244 0 5.725 2.481 5.725 5.725v20.992h3.817c1.145 0 1.908-0.763 1.908-1.908v-36.26c0-0.954-0.763-1.908-1.908-1.908z"></path>
<path fill="param(fill) #000" stroke="param(outline) #000" stroke-width="param(outline-width) 1" d="M82.252 38.55h-78.244c-1.145 0-1.908 0.763-1.908 1.908v36.26c0 1.145 0.763 1.908 1.908 1.908h78.244c1.145 0 1.908-0.763 1.908-1.908v-36.26c0-0.954-0.763-1.908-1.908-1.908zM13.55 65.267c-3.244 0-5.725-2.481-5.725-5.725 0-2.481 1.527-4.58 3.817-5.344 0.573-0.191 1.336-0.382 1.908-0.382 3.244 0 5.725 2.481 5.725 5.725 0 0 0 0 0 0 0 0.573-0.191 1.336-0.382 1.908-0.763 2.29-2.863 3.817-5.344 3.817zM43.13 70.992c-5.725 0-10.687-4.008-12.023-9.542-0.191-0.954-0.382-1.908-0.382-2.863 0-6.107 4.58-11.26 10.496-12.214 0.573-0.191 1.145-0.191 1.908-0.191 6.87 0 12.405 5.534 12.405 12.405 0 0 0 0 0 0 0 0.954-0.191 1.908-0.382 2.863-1.336 5.534-6.298 9.542-12.023 9.542zM72.71 64.313c-3.244 0-5.725-2.481-5.725-5.725s2.481-5.725 5.725-5.725c3.244 0 5.725 2.481 5.725 5.725 0 0.954-0.191 1.908-0.763 2.863-0.954 1.718-2.863 2.863-4.962 2.863z"></path>
</svg>
