
<svg version="1.1" xmlns="http://www.w3.org/2000/svg" width="67" height="100" viewBox="0 0 67 100">
<title>fire-station</title>
<path fill="param(fill) #000" stroke="param(outline) #000" stroke-width="param(outline-width) 1" d="M62.5 12.5h-58.333c-2.292 0-4.167 1.875-4.167 4.167v45.833h66.667v-45.833c0-2.292-1.875-4.167-4.167-4.167zM47.917 41.667c0 1.875-0.417 3.75-1.042 5.625 0 0 0 0 0 0-3.125 7.5-11.667 10.833-19.167 7.708-3.542-1.458-6.25-4.167-7.708-7.708 0 0 0 0 0 0-0.833-1.875-1.25-3.75-1.25-5.625v-17.083c0-0.833 0.625-1.667 1.458-2.083l12.5-3.542c0.417-0.208 0.833-0.208 1.042 0l12.5 3.542c0.833 0.208 1.458 1.042 1.458 2.083v17.083z"></path>
<path fill="param(fill) #000" stroke="param(outline) #000" stroke-width="param(outline-width) 1" d="M12.5 8.333h41.667c2.292 0 4.167-1.875 4.167-4.167s-1.875-4.167-4.167-4.167h-41.667c-2.292 0-4.167 1.875-4.167 4.167s1.875 4.167 4.167 4.167z"></path>
<path fill="param(fill) #000" stroke="param(outline) #000" stroke-width="param(outline-width) 1" d="M0 100h25v-20.833c0-2.292 1.875-4.167 4.167-4.167h8.333c2.292 0 4.167 1.875 4.167 4.167v20.833h25v-33.333h-66.667v33.333z"></path>
<path fill="param(fill) #000" stroke="param(outline) #000" stroke-width="param(outline-width) 1" d="M33.542 23.958c0-0.208-0.208-0.208-0.417 0 0 0 0 0 0 0-1.25 1.667-8.542 11.25-8.542 15.625 0 4.792 3.958 8.75 8.75 8.75s8.75-3.958 8.75-8.75c0-4.375-7.083-13.958-8.542-15.625zM33.333 45.833c-2.292 0-4.167-1.875-4.167-4.167 0-2.083 3.333-6.25 3.958-7.083 0 0 0.208 0 0.208 0s0 0 0 0c0.833 0.833 4.167 5 4.167 7.083 0 2.292-1.875 4.167-4.167 4.167z"></path>
</svg>
