
<svg version="1.1" xmlns="http://www.w3.org/2000/svg" width="96" height="100" viewBox="0 0 96 100">
<title>fishery</title>
<path fill="param(fill) #000" stroke="param(outline) #000" stroke-width="param(outline-width) 1" d="M92.748 48.092c-10.496-7.824-23.092-12.405-36.26-13.168l-8.779-4.962c-3.053-1.718-6.87-0.763-8.588 2.29-0.763 1.145-0.954 2.672-0.763 4.008-6.87 1.336-13.359 4.008-19.466 7.443l-10.878-2.863c-2.481-0.763-5.153 0.763-5.916 3.435-0.763 2.481 0.763 5.153 3.435 5.916l0.573 0.191-0.382-0.191c-2.481 0.763-4.008 3.244-3.435 5.916 0.763 2.481 3.244 4.008 5.916 3.435l10.878-2.863c6.107 3.435 12.786 5.916 19.656 7.443-0.954 2.863 0.763 5.916 3.626 6.87 1.908 0.573 4.008 0 5.534-1.336l4.198-4.198h0.382c14.504 0 28.817-4.58 40.458-13.359 1.145-0.763 1.145-2.29 0.382-3.435-0.191-0.191-0.382-0.382-0.573-0.573zM72.71 50c-2.099 0-3.817-1.718-3.817-3.817s1.718-3.817 3.817-3.817 3.817 1.718 3.817 3.817c0 2.099-1.718 3.817-3.817 3.817z"></path>
</svg>
