
<svg version="1.1" xmlns="http://www.w3.org/2000/svg" width="130" height="100" viewBox="0 0 130 100">
<title>food-security</title>
<path fill="param(fill) #000" stroke="param(outline) #000" stroke-width="param(outline-width) 1" d="M127.524 62.014h-124.811c-1.499 0-2.713 1.215-2.713 2.713v0c0 19.48 15.792 35.273 35.273 35.273v0h59.692c19.48 0 35.273-15.792 35.273-35.273v0c0-1.499-1.215-2.713-2.713-2.713v0z"></path>
<path fill="param(fill) #000" stroke="param(outline) #000" stroke-width="param(outline-width) 1" d="M56.676 32.774l-6.749-1.808c-1.053-0.294-2.262-0.462-3.511-0.462-6.244 0-11.502 4.218-13.082 9.96l-0.022 0.095-0.478 1.786 6.749 1.808c1.053 0.294 2.263 0.462 3.511 0.462 6.244 0 11.502-4.218 13.082-9.96l0.022-0.095z"></path>
<path fill="param(fill) #000" stroke="param(outline) #000" stroke-width="param(outline-width) 1" d="M55.168 48.329l6.749 1.808c1.053 0.294 2.263 0.462 3.511 0.462 6.244 0 11.502-4.218 13.082-9.96l0.022-0.095 0.478-1.786-6.749-1.808c-1.053-0.294-2.263-0.462-3.511-0.462-6.244 0-11.502 4.218-13.082 9.96l-0.022 0.095z"></path>
<path fill="param(fill) #000" stroke="param(outline) #000" stroke-width="param(outline-width) 1" d="M77.503 54.313l6.749 1.808c1.053 0.294 2.263 0.462 3.511 0.462 6.244 0 11.502-4.218 13.082-9.96l0.022-0.095 0.479-1.786-6.749-1.808c-1.053-0.294-2.263-0.462-3.511-0.462-6.244 0-11.502 4.218-13.082 9.96l-0.022 0.095z"></path>
<path fill="param(fill) #000" stroke="param(outline) #000" stroke-width="param(outline-width) 1" d="M51.922 23.521l6.749 1.808 0.478-1.786c0.294-1.053 0.462-2.262 0.462-3.511 0-6.244-4.218-11.502-9.96-13.082l-0.095-0.022-6.749-1.808-0.479 1.786c-0.294 1.053-0.462 2.262-0.462 3.511 0 6.244 4.218 11.502 9.96 13.082l0.095 0.022z"></path>
<path fill="param(fill) #000" stroke="param(outline) #000" stroke-width="param(outline-width) 1" d="M74.257 29.505l6.749 1.808 0.479-1.786c0.294-1.053 0.462-2.263 0.462-3.511 0-6.244-4.218-11.502-9.96-13.082l-0.095-0.022-6.749-1.809-0.478 1.786c-0.294 1.053-0.462 2.263-0.462 3.511 0 6.244 4.218 11.502 9.96 13.082l0.095 0.022z"></path>
<path fill="param(fill) #000" stroke="param(outline) #000" stroke-width="param(outline-width) 1" d="M96.592 35.49l6.749 1.808 0.478-1.786c0.294-1.053 0.462-2.262 0.462-3.511 0-6.244-4.218-11.502-9.96-13.082l-0.095-0.022-6.749-1.809-0.479 1.786c-0.294 1.053-0.462 2.262-0.462 3.511 0 6.244 4.218 11.502 9.96 13.082l0.095 0.022z"></path>
<path fill="param(fill) #000" stroke="param(outline) #000" stroke-width="param(outline-width) 1" d="M124.678 47.005c0.083-0.299 0.131-0.643 0.131-0.998 0-1.774-1.198-3.267-2.829-3.716l-0.027-0.006-13.649-3.657-1.995 7.445 13.649 3.657c0.299 0.083 0.643 0.131 0.998 0.131 1.774 0 3.267-1.198 3.716-2.829l0.006-0.027z"></path>
<path fill="param(fill) #000" stroke="param(outline) #000" stroke-width="param(outline-width) 1" d="M16.216 29.912c-0.297-0.082-0.638-0.129-0.991-0.129-2.128 0-3.854 1.725-3.854 3.854 0 1.771 1.195 3.263 2.823 3.714l0.027 0.006 9.927 2.66c0.299 0.083 0.643 0.131 0.997 0.131 2.128 0 3.854-1.725 3.854-3.854 0-1.774-1.198-3.267-2.829-3.716l-0.027-0.006z"></path>
<path fill="param(fill) #000" stroke="param(outline) #000" stroke-width="param(outline-width) 1" d="M22.2 7.577l9.927 2.66c0.297 0.082 0.638 0.129 0.991 0.129 2.128 0 3.854-1.725 3.854-3.854 0-1.771-1.195-3.263-2.823-3.714l-0.027-0.006-9.927-2.66c-0.299-0.083-0.643-0.131-0.997-0.131-2.128 0-3.854 1.725-3.854 3.854 0 1.774 1.198 3.267 2.829 3.716l0.027 0.006z"></path>
<path fill="param(fill) #000" stroke="param(outline) #000" stroke-width="param(outline-width) 1" d="M8.284 19.807l27.298 7.314c0.301 0.085 0.647 0.133 1.004 0.133 2.128 0 3.854-1.725 3.854-3.854 0-1.776-1.201-3.272-2.836-3.718l-0.027-0.006-27.298-7.314c-0.297-0.082-0.638-0.129-0.991-0.129-2.128 0-3.854 1.725-3.854 3.854 0 1.771 1.195 3.263 2.823 3.714l0.027 0.006z"></path>
</svg>
