
<svg version="1.1" xmlns="http://www.w3.org/2000/svg" width="67" height="100" viewBox="0 0 67 100">
<title>food-warehouse</title>
<path fill="param(fill) #000" stroke="param(outline) #000" stroke-width="param(outline-width) 1" d="M62.5 12.5h-58.333c-2.298 0.007-4.16 1.868-4.167 4.166v45.834h66.667v-45.833c-0.007-2.298-1.868-4.16-4.166-4.167h-0.001zM22.917 22.917c0-1.151 0.933-2.083 2.083-2.083s2.083 0.933 2.083 2.083v0 6.25c0 1.151-0.933 2.083-2.083 2.083s-2.083-0.933-2.083-2.083v0zM31.25 58.333h-0.271c-0.002 0-0.005 0-0.007 0-4.449 0-8.055-3.607-8.055-8.055 0-0.003 0-0.005 0-0.008v0-2.354h0.271c0.002 0 0.005 0 0.007 0 4.449 0 8.055 3.607 8.055 8.055 0 0.003 0 0.005 0 0.008v-0zM31.25 45.833h-0.271c-0.002 0-0.005 0-0.007 0-4.449 0-8.055-3.607-8.055-8.055 0-0.003 0-0.005 0-0.008v0-2.354h0.271c0.002 0 0.005 0 0.007 0 4.449 0 8.055 3.607 8.055 8.055 0 0.003 0 0.005 0 0.008v-0zM33.375 35.417h-0.083c-1.127-0.002-2.040-0.915-2.042-2.042v-14.667c0.002-1.127 0.915-2.040 2.042-2.042h0.083c1.127 0.002 2.040 0.915 2.042 2.042v14.667c-0.002 1.127-0.915 2.040-2.042 2.042h-0zM43.75 50.271c0 0.002 0 0.005 0 0.007 0 4.449-3.607 8.055-8.055 8.055-0.003 0-0.005 0-0.008 0h-0.27v-2.354c0-0.002 0-0.005 0-0.007 0-4.449 3.607-8.055 8.055-8.055 0.003 0 0.005 0 0.008 0h0.27zM43.75 37.771c0 0.002 0 0.005 0 0.007 0 4.449-3.607 8.055-8.055 8.055-0.003 0-0.005 0-0.008 0h-0.27v-2.354c0-0.002 0-0.005 0-0.007 0-4.449 3.607-8.055 8.055-8.055 0.003 0 0.005 0 0.008 0h0.27zM43.75 29.167c0 1.151-0.933 2.083-2.083 2.083s-2.083-0.933-2.083-2.083v0-6.25c0-1.151 0.933-2.083 2.083-2.083s2.083 0.933 2.083 2.083v0z"></path>
<path fill="param(fill) #000" stroke="param(outline) #000" stroke-width="param(outline-width) 1" d="M12.5 8.333h41.667c2.301 0 4.167-1.866 4.167-4.167s-1.866-4.167-4.167-4.167v0h-41.667c-2.301 0-4.167 1.866-4.167 4.167s1.866 4.167 4.167 4.167v0z"></path>
<path fill="param(fill) #000" stroke="param(outline) #000" stroke-width="param(outline-width) 1" d="M0 100h25v-20.833c0.007-2.298 1.868-4.16 4.166-4.167h8.334c2.298 0.007 4.16 1.868 4.167 4.166v20.834h25v-33.333h-66.667z"></path>
</svg>
