
<svg version="1.1" xmlns="http://www.w3.org/2000/svg" width="145" height="100" viewBox="0 0 145 100">
<title>food</title>
<path fill="param(fill) #000" stroke="param(outline) #000" stroke-width="param(outline-width) 1" d="M0 60.606c0 0 0 0.001 0 0.001 0 21.756 17.637 39.393 39.393 39.393 0 0 0.001 0 0.001 0h66.667c21.751-0.014 39.379-17.643 39.394-39.393v-0.001z"></path>
<path fill="param(fill) #000" stroke="param(outline) #000" stroke-width="param(outline-width) 1" d="M45.576 51.515h96.848c-0.010-11.717-9.51-21.212-21.229-21.212-0.015 0-0.031 0-0.046 0h0.002l-0.016 0.001c-0.786-10.202-9.258-18.183-19.594-18.183-3.212 0-6.245 0.771-8.922 2.138l0.111-0.052c-2.972-8.343-10.803-14.208-20.003-14.208s-17.031 5.865-19.957 14.060l-0.046 0.148c-2.566-1.315-5.599-2.086-8.811-2.086-10.336 0-18.808 7.98-19.59 18.115l-0.004 0.067-0.016-0.001c-0.013 0-0.028 0-0.044 0-11.719 0-21.219 9.495-21.229 21.211v0.001h42.545z"></path>
</svg>
