
<svg version="1.1" xmlns="http://www.w3.org/2000/svg" width="100" height="100" viewBox="0 0 100 100">
<title>forced-entry</title>
<path fill="param(fill) #000" stroke="param(outline) #000" stroke-width="param(outline-width) 1" d="M94.271 0h-88.542c-0.001 0-0.002 0-0.003 0-3.162 0-5.726 2.564-5.726 5.726 0 0.001 0 0.002 0 0.004v-0 59.375c0 0.001 0 0.002 0 0.003 0 3.162 2.564 5.726 5.726 5.726 0.001 0 0.002 0 0.004 0h30.229c0.343-1.639 0.745-3.034 1.237-4.387l-0.070 0.22c0.25-0.708 0.521-1.396 0.812-2.083 0.292-0.708 0.625-1.396 0.979-2.083h-8.313c-0.931-2.070-1.473-4.487-1.473-7.031 0-3.167 0.841-6.137 2.311-8.7l-0.045 0.085 13.625 13.625c-0.444 0.58-0.891 1.239-1.3 1.924l-0.054 0.097c-0.417 0.667-0.812 1.375-1.167 2.083-0.296 0.552-0.612 1.238-0.889 1.943l-0.049 0.14c-0.502 1.158-0.966 2.548-1.316 3.982l-0.038 0.185c-0.576 2.224-0.906 4.776-0.906 7.406 0 7.76 2.878 14.847 7.624 20.253l-0.030-0.035c0.743 0.875 1.819 1.447 3.030 1.52l0.012 0.001c0.078 0.014 0.169 0.022 0.261 0.022 0.018 0 0.036-0 0.054-0.001l-0.003 0c0.007 0 0.014 0 0.022 0 1.11 0 2.125-0.41 2.9-1.088l-0.005 0.004c0.949-0.822 1.545-2.029 1.545-3.375 0-1.118-0.411-2.14-1.091-2.922l0.005 0.005c-3.332-3.881-5.36-8.966-5.36-14.525 0-2.602 0.445-5.101 1.262-7.424l-0.048 0.157c1.138-3.275 2.943-6.066 5.266-8.329l0.005-0.004 5.208-5.208 5.187 5.208h-4.417s-1.11 0.924-2.133 1.948c-0.183 0.183-0.42 0.44-0.677 0.726-1.599 1.604-2.932 3.474-3.929 5.538l-0.053 0.122h40.333c0.001 0 0.002 0 0.003 0 3.162 0 5.726-2.564 5.726-5.726 0-0.001 0-0.002 0-0.004v0-59.375c0-0.001 0-0.002 0-0.003 0-3.162-2.564-5.726-5.726-5.726-0.001 0-0.002 0-0.004 0h0zM32.687 31.792l-0.479 0.417c-9.563 9.063-13.291 20.354-10.458 30.292h-13.417v-54.167h30.771c0.026 0.056 0.053 0.104 0.085 0.149l-0.002-0.003c4.854 7.687 2.667 15.521-6.5 23.312zM91.667 62.5h-15.167l-31.604-31.604c5.25-7.271 6.5-15.084 3.521-22.563h43.25z"></path>
<path fill="param(fill) #000" stroke="param(outline) #000" stroke-width="param(outline-width) 1" d="M29.167 25c0 4.602-3.731 8.333-8.333 8.333s-8.333-3.731-8.333-8.333c0-4.602 3.731-8.333 8.333-8.333s8.333 3.731 8.333 8.333z"></path>
</svg>
