
<svg version="1.1" xmlns="http://www.w3.org/2000/svg" width="100" height="100" viewBox="0 0 100 100">
<title>forced-recruitment</title>
<path fill="param(fill) #000" stroke="param(outline) #000" stroke-width="param(outline-width) 1" d="M16.667 8.333c0 4.602-3.731 8.333-8.333 8.333s-8.333-3.731-8.333-8.333c0-4.602 3.731-8.333 8.333-8.333s8.333 3.731 8.333 8.333z"></path>
<path fill="param(fill) #000" stroke="param(outline) #000" stroke-width="param(outline-width) 1" d="M80.73 59.291l8.166-16.145c0.677-1.323 1.074-2.886 1.074-4.542 0-3.926-2.232-7.331-5.496-9.015l-0.057-0.027-2.625-1.312-2.708-1.375c-0.227-0.118-0.49-0.218-0.767-0.286l-0.025-0.005c-3.588-1.656-7.787-2.622-12.211-2.622-9.163 0-17.358 4.144-22.814 10.659l-0.038 0.046-4.438-5.125c-6.099-6.633-14.814-10.779-24.498-10.792h-0.002c-7.857 0.004-14.225 6.374-14.225 14.231 0 1.694 0.296 3.319 0.839 4.826l-0.031-0.099c0.042 0.104 0.083 0.187 0.125 0.291l6 13.75c0.438 1.584 1.5 5.021 3.167 10.229 2.763 8.333 4.871 18.098 5.927 28.176l0.052 0.616 0.542 5.479c0.216 2.114 1.987 3.75 4.14 3.75 0.002 0 0.004 0 0.006 0h-0c0.019 0 0.041 0.001 0.062 0.001 0.125 0 0.248-0.008 0.369-0.023l-0.014 0.001c2.115-0.218 3.75-1.99 3.75-4.144 0-0.147-0.008-0.293-0.023-0.437l0.002 0.018-0.542-5.459c-1.057-10.238-2.959-19.558-5.673-28.525l0.278 1.067h8.292c2.511 6.694 3.964 14.43 3.964 22.506 0 0.877-0.017 1.75-0.051 2.619l0.004-0.125c0.003 1.927 1.316 3.546 3.096 4.014l0.029 0.006 5.062-9.917c-0.413-10.935-3.152-21.138-7.734-30.256l0.192 0.423c-0.834-1.917-1.708-3.896-2.583-6.063l-7.042-17.313c4.074 1.398 7.532 3.689 10.277 6.651l0.015 0.016 8.021 9.333c0.696 0.799 1.685 1.327 2.798 1.416l0.014 0.001c0.187 0 0.333 0.021 0.5 0.021 0.004 0 0.009 0 0.014 0 1.666 0 3.112-0.946 3.829-2.33l0.011-0.024c3.234-6.178 9.417-10.423 16.63-10.873l0.058-0.003c0.447-0.040 0.967-0.063 1.492-0.063 0.303 0 0.605 0.008 0.904 0.023l-0.042-0.002c0.819 0.032 1.587 0.107 2.342 0.223l-0.113-0.014-31.042 60.875c-0.304 0.577-0.483 1.261-0.483 1.987 0 1.68 0.956 3.137 2.354 3.855l0.024 0.011c0.566 0.302 1.237 0.479 1.95 0.479 0.010 0 0.021 0 0.031-0h-0.002c1.681-0.003 3.138-0.956 3.863-2.351l0.011-0.024 18.833-36.938 1.854 0.938 1.875 0.937 6.805 3.454c0.031 0.019 0.065 0.036 0.096 0.056 0.054 0.024 0.101 0.056 0.141 0.094l-0-0 0.111 0.053c5.817 3.828 9.605 10.327 9.605 17.711 0 3.549-0.875 6.893-2.42 9.829l0.055-0.116c-0.308 0.582-0.489 1.271-0.489 2.004 0 2.401 1.946 4.347 4.347 4.347 1.669 0 3.118-0.94 3.847-2.32l0.011-0.024c2.102-3.98 3.336-8.7 3.336-13.707 0-10.19-5.11-19.187-12.906-24.568l-0.1-0.065z"></path>
<path fill="param(fill) #000" stroke="param(outline) #000" stroke-width="param(outline-width) 1" d="M99.58 16.146c-1.129-3.354-4.245-5.727-7.915-5.727-4.602 0-8.333 3.731-8.333 8.333s3.731 8.333 8.333 8.333c0.932 0 1.828-0.153 2.665-0.435l-0.059 0.017c3.354-1.129 5.728-4.245 5.728-7.915 0-0.932-0.153-1.828-0.435-2.665l0.017 0.059z"></path>
</svg>
