
<svg version="1.1" xmlns="http://www.w3.org/2000/svg" width="75" height="100" viewBox="0 0 75 100">
<title>fund</title>
<path fill="param(fill) #000" stroke="param(outline) #000" stroke-width="param(outline-width) 1" d="M72.596 59.354l-16.354-32.271h-37.5l-16.354 32.271c-1.503 3.395-2.378 7.354-2.378 11.517 0 7.908 3.157 15.079 8.279 20.322l-0.005-0.006c5.243 5.437 12.591 8.813 20.728 8.813 0.052 0 0.104-0 0.155-0h16.659c0.044 0 0.095 0 0.147 0 8.137 0 15.485-3.376 20.719-8.804l0.008-0.009c5.117-5.237 8.274-12.408 8.274-20.316 0-4.164-0.875-8.123-2.451-11.704l0.073 0.186zM39.576 79.167v3.125c0 1.726-1.399 3.125-3.125 3.125s-3.125-1.399-3.125-3.125v0-3.125h-1.042c-1.726 0-3.125-1.399-3.125-3.125s1.399-3.125 3.125-3.125v0h6.146c0.031 0.001 0.067 0.002 0.103 0.002 1.727 0 3.127-1.4 3.127-3.127s-1.4-3.127-3.127-3.127c-0.036 0-0.073 0.001-0.109 0.002l0.005-0h-1.854c-0.042 0.001-0.091 0.001-0.14 0.001-5.17 0-9.36-4.191-9.36-9.36 0-4.055 2.578-7.507 6.185-8.808l0.065-0.021v-3.688c0-1.726 1.399-3.125 3.125-3.125s3.125 1.399 3.125 3.125v0 3.125h3.125c1.726 0 3.125 1.399 3.125 3.125s-1.399 3.125-3.125 3.125v0h-6.125c-0.037-0.002-0.080-0.002-0.123-0.002-1.727 0-3.127 1.4-3.127 3.127s1.4 3.127 3.127 3.127c0.043 0 0.086-0.001 0.129-0.003l-0.006 0h1.854c0.022-0 0.048-0 0.074-0 5.195 0 9.406 4.211 9.406 9.406 0 4.817-3.621 8.788-8.289 9.34l-0.044 0.004z"></path>
<path fill="param(fill) #000" stroke="param(outline) #000" stroke-width="param(outline-width) 1" d="M18.735 22.917h16.667l-3.434-15.487c-0.429-1.88-2.087-3.263-4.067-3.263h-11.249c0 0 0 0 0 0-1.15 0-2.083 0.933-2.083 2.083 0 0.16 0.018 0.316 0.052 0.466l-0.003-0.014z"></path>
<path fill="param(fill) #000" stroke="param(outline) #000" stroke-width="param(outline-width) 1" d="M47.909 22.917h8.326l4.133-20.458c0.021-0.11 0.032-0.236 0.032-0.366 0-1.156-0.937-2.093-2.093-2.093-0.001 0-0.001 0-0.002 0h-6.23c-2.291 0.030-4.14 1.877-4.174 4.163v0.003c-0.021-2.286-1.863-4.134-4.144-4.167h-6.253c-0.001 0-0.001 0-0.002 0-1.156 0-2.093 0.937-2.093 2.093 0 0.129 0.012 0.256 0.034 0.378l-0.002-0.013 4.126 20.458z"></path>
</svg>
