
<svg version="1.1" xmlns="http://www.w3.org/2000/svg" width="100" height="100" viewBox="0 0 100 100">
<title>gap-analysis</title>
<path fill="param(fill) #000" stroke="param(outline) #000" stroke-width="param(outline-width) 1" d="M6.25 0c-3.452 0-6.25 2.798-6.25 6.25v0 87.5c0 3.452 2.798 6.25 6.25 6.25s6.25-2.798 6.25-6.25v0-87.5c0-3.452-2.798-6.25-6.25-6.25v0z"></path>
<path fill="param(fill) #000" stroke="param(outline) #000" stroke-width="param(outline-width) 1" d="M93.75 0c-3.452 0-6.25 2.798-6.25 6.25v0 87.5c0 3.452 2.798 6.25 6.25 6.25s6.25-2.798 6.25-6.25v0-87.5c0-3.452-2.798-6.25-6.25-6.25v0z"></path>
<path fill="param(fill) #000" stroke="param(outline) #000" stroke-width="param(outline-width) 1" d="M66.919 30.998c-1.131-1.131-2.693-1.83-4.419-1.83-3.451 0-6.249 2.798-6.249 6.249 0 1.726 0.7 3.288 1.83 4.419l3.914 3.914h-23.991l3.914-3.914c1.131-1.131 1.83-2.693 1.83-4.419 0-3.451-2.798-6.249-6.249-6.249-1.726 0-3.288 0.7-4.419 1.83l-14.583 14.583c-1.131 1.131-1.831 2.693-1.831 4.419s0.7 3.288 1.831 4.419l14.583 14.583c1.131 1.131 2.693 1.83 4.419 1.83 3.451 0 6.249-2.798 6.249-6.249 0-1.726-0.7-3.288-1.83-4.419l-3.914-3.914h23.991l-3.914 3.914c-1.131 1.131-1.83 2.693-1.83 4.419 0 3.451 2.798 6.249 6.249 6.249 1.726 0 3.288-0.7 4.419-1.83l14.583-14.583c1.131-1.131 1.831-2.693 1.831-4.419s-0.7-3.288-1.831-4.419v0z"></path>
</svg>
