
<svg version="1.1" xmlns="http://www.w3.org/2000/svg" width="54" height="100" viewBox="0 0 54 100">
<title>gender</title>
<path fill="param(fill) #000" stroke="param(outline) #000" stroke-width="param(outline-width) 1" d="M0 45.833c0 2.301 1.866 4.167 4.167 4.167s4.167-1.866 4.167-4.167v0c0.002-6.723 4.306-12.441 10.309-14.55l0.108-0.033-8.333 39.542c-0.008 0.064-0.012 0.139-0.012 0.215 0 1.059 0.858 1.917 1.917 1.917 0.056 0 0.111-0.002 0.165-0.007l-0.007 0h4.167v22.917c0 2.301 1.866 4.167 4.167 4.167s4.167-1.866 4.167-4.167v0-75c-14.604 0.896-24.979 11.167-24.979 25z"></path>
<path fill="param(fill) #000" stroke="param(outline) #000" stroke-width="param(outline-width) 1" d="M18.729 8.333c0 0.010-0 0.021-0 0.033 0 3.92 2.611 7.229 6.189 8.285l0.061 0.015v-16.667c-3.639 1.071-6.25 4.38-6.25 8.3 0 0.012 0 0.023 0 0.035v-0.002z"></path>
<path fill="param(fill) #000" stroke="param(outline) #000" stroke-width="param(outline-width) 1" d="M29.188 20.833v75c0 2.301 1.866 4.167 4.167 4.167s4.167-1.866 4.167-4.167v-64.583c5.001 2.865 8.316 8.171 8.316 14.25 0 0.117-0.001 0.234-0.004 0.35l0-0.017c0 2.301 1.866 4.167 4.167 4.167s4.167-1.866 4.167-4.167v0c0-13.833-10.396-24.104-24.979-25z"></path>
<path fill="param(fill) #000" stroke="param(outline) #000" stroke-width="param(outline-width) 1" d="M35.438 8.333c0-0.010 0-0.021 0-0.033 0-3.92-2.611-7.229-6.189-8.285l-0.061-0.015v16.667c3.639-1.071 6.25-4.38 6.25-8.3 0-0.012 0-0.023-0-0.035v0.002z"></path>
</svg>
