
<svg version="1.1" xmlns="http://www.w3.org/2000/svg" width="150" height="100" viewBox="0 0 150 100">
<title>group</title>
<path fill="param(fill) #000" stroke="param(outline) #000" stroke-width="param(outline-width) 1" d="M121.875 46.875h-6.25c-4.142 0.001-8.073 0.901-11.61 2.516l0.175-0.072c10.769 8.036 17.671 20.738 17.685 35.053v0.002h28.125v-9.375c0-15.533-12.592-28.125-28.125-28.125v0z"></path>
<path fill="param(fill) #000" stroke="param(outline) #000" stroke-width="param(outline-width) 1" d="M45.81 49.32c-3.362-1.544-7.293-2.444-11.434-2.445h-6.25c-15.533 0-28.125 12.592-28.125 28.125v0 9.375h28.125c0.014-14.317 6.916-27.019 17.57-34.973l0.115-0.082z"></path>
<path fill="param(fill) #000" stroke="param(outline) #000" stroke-width="param(outline-width) 1" d="M78.125 50h-6.25c-18.985 0-34.375 15.39-34.375 34.375v0 15.625h75v-15.625c0-18.985-15.39-34.375-34.375-34.375v0z"></path>
<path fill="param(fill) #000" stroke="param(outline) #000" stroke-width="param(outline-width) 1" d="M96.875 21.875c0 12.081-9.794 21.875-21.875 21.875s-21.875-9.794-21.875-21.875c0-12.081 9.794-21.875 21.875-21.875s21.875 9.794 21.875 21.875z"></path>
<path fill="param(fill) #000" stroke="param(outline) #000" stroke-width="param(outline-width) 1" d="M46.875 25c0 8.629-6.996 15.625-15.625 15.625s-15.625-6.996-15.625-15.625c0-8.629 6.996-15.625 15.625-15.625s15.625 6.996 15.625 15.625z"></path>
<path fill="param(fill) #000" stroke="param(outline) #000" stroke-width="param(outline-width) 1" d="M134.375 25c0 8.629-6.996 15.625-15.625 15.625s-15.625-6.996-15.625-15.625c0-8.629 6.996-15.625 15.625-15.625s15.625 6.996 15.625 15.625z"></path>
</svg>
