
<svg version="1.1" xmlns="http://www.w3.org/2000/svg" width="100" height="100" viewBox="0 0 100 100">
<title>handwashing</title>
<path fill="param(fill) #000" stroke="param(outline) #000" stroke-width="param(outline-width) 1" d="M45.833 24.693v4.474h-2.083c-1.151 0-2.083 0.933-2.083 2.083v0 6.25c0 1.151 0.933 2.083 2.083 2.083v0h20.833c1.151-0 2.083-0.933 2.083-2.083v0-6.25c-0-1.151-0.933-2.083-2.083-2.083h-2.083v-4.474c-0.016-13.631-11.062-24.677-24.691-24.693h-37.808v16.667h37.807c4.431 0.005 8.021 3.596 8.026 8.026v0z"></path>
<path fill="param(fill) #000" stroke="param(outline) #000" stroke-width="param(outline-width) 1" d="M79.167 61.458c0 2.876-2.332 5.208-5.208 5.208s-5.208-2.332-5.208-5.208c0-2.876 2.332-5.208 5.208-5.208s5.208 2.332 5.208 5.208z"></path>
<path fill="param(fill) #000" stroke="param(outline) #000" stroke-width="param(outline-width) 1" d="M70.833 46.875c0 1.726-1.399 3.125-3.125 3.125s-3.125-1.399-3.125-3.125c0-1.726 1.399-3.125 3.125-3.125s3.125 1.399 3.125 3.125z"></path>
<path fill="param(fill) #000" stroke="param(outline) #000" stroke-width="param(outline-width) 1" d="M86.465 72.917c-0.048 0-0.094 0.007-0.142 0.007-0.024-0-0.047-0.007-0.071-0.007h-18.556c-0.003 0-0.007 0-0.010 0-2.869 0-5.196 2.326-5.196 5.196s2.326 5.196 5.196 5.196c0.004 0 0.007 0 0.011 0h5.617l-0.004 0.025h2.733c1.726 0 3.125 1.399 3.125 3.125s-1.399 3.125-3.125 3.125v0h-13.302c-0.891-0.007-1.703-0.335-2.328-0.876l0.005 0.004-19.301-20.344c-1.051-1.051-2.504-1.701-4.108-1.701-1.805 0-3.418 0.823-4.484 2.115l-0.008 0.010c-0.785 1.002-1.26 2.281-1.26 3.671 0 1.686 0.698 3.209 1.821 4.296l0.002 0.002 22.067 21.539c1.051 1.051 2.503 1.701 4.107 1.701h27.058c0.050 0 0.097-0.014 0.147-0.015h0.007c7.475 0 13.534-6.059 13.534-13.534s-6.059-13.534-13.534-13.534v0z"></path>
<path fill="param(fill) #000" stroke="param(outline) #000" stroke-width="param(outline-width) 1" d="M39.583 58.333c0 2.301-1.866 4.167-4.167 4.167s-4.167-1.866-4.167-4.167c0-2.301 1.866-4.167 4.167-4.167s4.167 1.866 4.167 4.167z"></path>
<path fill="param(fill) #000" stroke="param(outline) #000" stroke-width="param(outline-width) 1" d="M53.735 46.057c-1.677 2.284-7.657 10.719-7.657 14.573 0 0.010-0 0.022-0 0.034 0 4.467 3.621 8.088 8.088 8.088s8.088-3.621 8.088-8.088c0-0.012 0-0.024-0-0.036v0.002c0-3.854-5.98-12.289-7.657-14.573-0.097-0.136-0.254-0.223-0.431-0.223s-0.334 0.088-0.43 0.222l-0.001 0.002z"></path>
</svg>
