
<svg version="1.1" xmlns="http://www.w3.org/2000/svg" width="100" height="100" viewBox="0 0 100 100">
<title>health-facility-affected</title>
<path fill="param(fill) #000" stroke="param(outline) #000" stroke-width="param(outline-width) 1" d="M99.798 50.096c-0.138-0.287-0.33-0.528-0.563-0.719l-0.004-0.003-32.564-26.458-32.564 26.458c-0.471 0.385-0.769 0.966-0.77 1.617v49.008h66.667v-49.008c0-0 0-0 0-0 0-0.325-0.075-0.633-0.208-0.908l0.005 0.012zM85.417 72.917c0 1.151-0.933 2.083-2.083 2.083v0h-10.417v10.417c0 1.151-0.933 2.083-2.083 2.083v0h-8.333c-1.151 0-2.083-0.933-2.083-2.083v0-10.417h-10.417c-1.151 0-2.083-0.933-2.083-2.083v0-8.333c0-1.151 0.933-2.083 2.083-2.083v0h10.417v-10.417c0-1.151 0.933-2.083 2.083-2.083v0h8.333c1.151 0 2.083 0.933 2.083 2.083v0 10.417h10.417c1.151 0 2.083 0.933 2.083 2.083v0z"></path>
<path fill="param(fill) #000" stroke="param(outline) #000" stroke-width="param(outline-width) 1" d="M41.667 20.833c0-11.506-9.327-20.833-20.833-20.833s-20.833 9.327-20.833 20.833c0 11.506 9.327 20.833 20.833 20.833v0c0 0 0 0 0 0 11.506 0 20.833-9.327 20.833-20.833 0-0 0-0 0-0v0zM18.75 8.333c0-1.151 0.933-2.083 2.083-2.083s2.083 0.933 2.083 2.083v0 16.667c0 1.151-0.933 2.083-2.083 2.083s-2.083-0.933-2.083-2.083v0zM20.833 35.696c-1.305 0-2.363-1.058-2.363-2.363s1.058-2.363 2.363-2.363c1.305 0 2.363 1.058 2.363 2.363v0c-0 1.305-1.058 2.362-2.363 2.363v0z"></path>
</svg>
