
<svg version="1.1" xmlns="http://www.w3.org/2000/svg" width="100" height="100" viewBox="0 0 100 100">
<title>health-facility-not-affected</title>
<path fill="param(fill) #000" stroke="param(outline) #000" stroke-width="param(outline-width) 1" d="M99.798 50.096c-0.138-0.287-0.33-0.528-0.563-0.719l-0.004-0.003-32.564-26.458-32.564 26.458c-0.471 0.385-0.769 0.966-0.77 1.617v49.008h66.667v-49.008c0-0 0-0 0-0 0-0.325-0.075-0.633-0.208-0.908l0.005 0.012zM85.417 72.917c0 1.151-0.933 2.083-2.083 2.083v0h-10.417v10.417c0 1.151-0.933 2.083-2.083 2.083v0h-8.333c-1.151 0-2.083-0.933-2.083-2.083v0-10.417h-10.417c-1.151 0-2.083-0.933-2.083-2.083v0-8.333c0-1.151 0.933-2.083 2.083-2.083v0h10.417v-10.417c0-1.151 0.933-2.083 2.083-2.083v0h8.333c1.151 0 2.083 0.933 2.083 2.083v0 10.417h10.417c1.151 0 2.083 0.933 2.083 2.083v0z"></path>
<path fill="param(fill) #000" stroke="param(outline) #000" stroke-width="param(outline-width) 1" d="M41.667 20.833c0-11.506-9.327-20.833-20.833-20.833s-20.833 9.327-20.833 20.833c0 11.506 9.327 20.833 20.833 20.833v0c0 0 0 0 0 0 11.506 0 20.833-9.327 20.833-20.833 0-0 0-0 0-0v0zM32.605 16.165l-14.583 12.5c-0.362 0.312-0.836 0.501-1.355 0.501-0.575 0-1.096-0.233-1.473-0.61l-6.25-6.25c-0.369-0.376-0.597-0.891-0.597-1.46 0-1.15 0.933-2.083 2.083-2.083 0.569 0 1.084 0.228 1.46 0.597l4.887 4.886 13.118-11.245c0.361-0.309 0.834-0.497 1.351-0.497 1.15 0 2.083 0.933 2.083 2.083 0 0.63-0.279 1.194-0.721 1.576l-0.003 0.002z"></path>
</svg>
