
<svg version="1.1" xmlns="http://www.w3.org/2000/svg" width="100" height="100" viewBox="0 0 100 100">
<title>health-post</title>
<path fill="param(fill) #000" stroke="param(outline) #000" stroke-width="param(outline-width) 1" d="M34.646 17.125c-0.358-0.283-0.815-0.453-1.313-0.453s-0.955 0.171-1.317 0.457l0.004-0.003-31.25 26c-0.472 0.388-0.771 0.971-0.771 1.625 0 0 0 0 0 0v0 55.25h66.667v-55.25c0 0 0 0 0 0 0-0.654-0.299-1.237-0.767-1.622l-0.004-0.003zM47.917 68.75h-8.333v8.333c0 3.452-2.798 6.25-6.25 6.25s-6.25-2.798-6.25-6.25v0-8.333h-8.333c-3.452 0-6.25-2.798-6.25-6.25s2.798-6.25 6.25-6.25v0h8.333v-8.333c0-3.452 2.798-6.25 6.25-6.25s6.25 2.798 6.25 6.25v0 8.333h8.333c3.452 0 6.25 2.798 6.25 6.25s-2.798 6.25-6.25 6.25v0z"></path>
<path fill="param(fill) #000" stroke="param(outline) #000" stroke-width="param(outline-width) 1" d="M77.083 4.167v-1.042c0-1.726-1.399-3.125-3.125-3.125s-3.125 1.399-3.125 3.125v0 96.875h6.25v-79.167h22.917v-16.667z"></path>
</svg>
