
<svg version="1.1" xmlns="http://www.w3.org/2000/svg" width="100" height="100" viewBox="0 0 100 100">
<title>health-facility-destroyed</title>
<path fill="param(fill) #000" stroke="param(outline) #000" stroke-width="param(outline-width) 1" d="M99.798 50.096c-0.138-0.287-0.33-0.528-0.563-0.719l-0.004-0.003-32.564-26.458-32.564 26.458c-0.471 0.385-0.769 0.966-0.77 1.617v49.008h66.667v-49.008c0-0 0-0 0-0 0-0.325-0.075-0.633-0.208-0.908l0.005 0.012zM85.417 72.917c0 1.151-0.933 2.083-2.083 2.083v0h-10.417v10.417c0 1.151-0.933 2.083-2.083 2.083v0h-8.333c-1.151 0-2.083-0.933-2.083-2.083v0-10.417h-10.417c-1.151 0-2.083-0.933-2.083-2.083v0-8.333c0-1.151 0.933-2.083 2.083-2.083v0h10.417v-10.417c0-1.151 0.933-2.083 2.083-2.083v0h8.333c1.151 0 2.083 0.933 2.083 2.083v0 10.417h10.417c1.151 0 2.083 0.933 2.083 2.083v0z"></path>
<path fill="param(fill) #000" stroke="param(outline) #000" stroke-width="param(outline-width) 1" d="M41.667 20.833c0-11.506-9.327-20.833-20.833-20.833s-20.833 9.327-20.833 20.833c0 11.506 9.327 20.833 20.833 20.833v0c0 0 0 0 0 0 11.506 0 20.833-9.327 20.833-20.833 0-0 0-0 0-0v0zM30.64 27.694c0.385 0.378 0.624 0.904 0.624 1.486 0 1.15-0.933 2.083-2.083 2.083-0.582 0-1.108-0.239-1.486-0.623l-6.861-6.861-6.86 6.86c-0.376 0.369-0.891 0.597-1.46 0.597-1.15 0-2.083-0.933-2.083-2.083 0-0.569 0.228-1.084 0.597-1.46l6.86-6.86-6.86-6.86c-0.369-0.376-0.597-0.891-0.597-1.46 0-1.15 0.933-2.083 2.083-2.083 0.569 0 1.084 0.228 1.46 0.597l6.86 6.86 6.86-6.86c0.376-0.371 0.893-0.601 1.464-0.601 1.15 0 2.083 0.933 2.083 2.083 0 0.571-0.229 1.088-0.601 1.464l-6.86 6.86z"></path>
</svg>
