
<svg version="1.1" xmlns="http://www.w3.org/2000/svg" width="77" height="100" viewBox="0 0 77 100">
<title>health-worker</title>
<path fill="param(fill) #000" stroke="param(outline) #000" stroke-width="param(outline-width) 1" d="M56.818 55.129v15.744c2.671 0.964 4.545 3.477 4.545 6.428 0 3.766-3.053 6.818-6.818 6.818s-6.818-3.053-6.818-6.818c0-2.951 1.875-5.464 4.498-6.413l0.047-0.015v-17.336c-2.722-0.793-5.851-1.254-9.086-1.264h-9.096c-3.24 0.010-6.368 0.47-9.331 1.323l0.24-0.059v16.918h2.277c0 0 0 0 0 0 5.019 0 9.087 4.068 9.087 9.087 0 0 0 0 0 0v0 13.64c0 1.255-1.018 2.273-2.273 2.273v0h-4.545c-1.255 0-2.273-1.018-2.273-2.273s1.018-2.273 2.273-2.273v0h2.288v-11.364c0-0 0-0 0-0 0-2.51-2.035-4.545-4.545-4.545-0 0-0 0-0 0h-9.11c-2.514 0.008-4.549 2.043-4.557 4.556v11.353h2.288c1.255 0 2.273 1.018 2.273 2.273s-1.018 2.273-2.273 2.273v0h-4.545c-1.255 0-2.273-1.018-2.273-2.273v0-13.636c0-0 0-0 0-0 0-5.021 4.070-9.091 9.091-9.091 0 0 0 0 0 0h2.273v-15.326c-12.139 5.393-20.452 17.343-20.455 31.235v13.637h77.273v-13.636c-0.003-13.892-8.315-25.842-20.238-31.149l-0.217-0.086z"></path>
<path fill="param(fill) #000" stroke="param(outline) #000" stroke-width="param(outline-width) 1" d="M61.364 22.727c0 12.552-10.175 22.727-22.727 22.727s-22.727-10.175-22.727-22.727c0-12.552 10.175-22.727 22.727-22.727s22.727 10.175 22.727 22.727z"></path>
</svg>
