
<svg version="1.1" xmlns="http://www.w3.org/2000/svg" width="120" height="100" viewBox="0 0 120 100">
<title>heavy-rain</title>
<path fill="param(fill) #000" stroke="param(outline) #000" stroke-width="param(outline-width) 1" d="M28.072 77.5c-0 0-0 0-0.001 0-1.22 0-2.325 0.495-3.124 1.294l-13.662 13.661c-0.796 0.799-1.289 1.902-1.289 3.119 0 2.441 1.979 4.419 4.419 4.419 1.217 0 2.32-0.492 3.119-1.289l13.661-13.661c0.8-0.8 1.294-1.905 1.294-3.125 0-2.441-1.979-4.419-4.419-4.42v0z"></path>
<path fill="param(fill) #000" stroke="param(outline) #000" stroke-width="param(outline-width) 1" d="M60.59 77.5c-0 0-0 0-0.001 0-1.22 0-2.325 0.495-3.124 1.294l-13.662 13.661c-0.796 0.799-1.289 1.902-1.289 3.119 0 2.441 1.979 4.419 4.419 4.419 1.217 0 2.32-0.492 3.119-1.289l13.661-13.661c0.8-0.8 1.294-1.905 1.294-3.125 0-2.441-1.979-4.419-4.419-4.42v0z"></path>
<path fill="param(fill) #000" stroke="param(outline) #000" stroke-width="param(outline-width) 1" d="M93.090 77.5c-0 0-0 0-0.001 0-1.22 0-2.325 0.495-3.124 1.294l-13.662 13.661c-0.796 0.799-1.289 1.902-1.289 3.119 0 2.441 1.979 4.419 4.419 4.419 1.217 0 2.32-0.492 3.119-1.289l13.661-13.661c0.8-0.8 1.294-1.905 1.294-3.125 0-2.441-1.979-4.419-4.419-4.42v0z"></path>
<path fill="param(fill) #000" stroke="param(outline) #000" stroke-width="param(outline-width) 1" d="M97.45 22.525c-0.022-0-0.049-0-0.075-0-2.814 0-5.503 0.532-7.973 1.501l0.148-0.051-0.027 0.012c-2.353-13.697-14.141-23.988-28.332-23.988-15.743 0-28.528 12.664-28.723 28.361l-0 0.018c-1.511-0.563-3.256-0.889-5.077-0.889-8.252 0-14.942 6.69-14.942 14.942 0 0.945 0.088 1.869 0.255 2.765l-0.014-0.093-0.016-0.004c-0.415-0.064-0.894-0.1-1.381-0.1-0.033 0-0.066 0-0.099 0h0.005c-6.213 0-11.25 5.037-11.25 11.25s5.037 11.25 11.25 11.25v0h86.25c0.001 0 0.002 0 0.003 0 10.871 0 19.942-7.707 22.047-17.955l0.025-0.145c0.269-1.322 0.423-2.842 0.425-4.399v-0.001c-0.003-12.413-10.067-22.475-22.481-22.475-0.007 0-0.014 0-0.021 0h0.001z"></path>
</svg>
