
<svg version="1.1" xmlns="http://www.w3.org/2000/svg" width="100" height="100" viewBox="0 0 100 100">
<title>helipad</title>
<path fill="param(fill) #000" stroke="param(outline) #000" stroke-width="param(outline-width) 1" d="M50 0c-27.614 0-50 22.386-50 50s22.386 50 50 50c27.614 0 50-22.386 50-50v0c-0.007-27.611-22.389-49.993-49.999-50h-0.001zM50 89.583c-21.861 0-39.583-17.722-39.583-39.583s17.722-39.583 39.583-39.583c21.861 0 39.583 17.722 39.583 39.583v0c-0.005 21.859-17.724 39.578-39.583 39.583h-0z"></path>
<path fill="param(fill) #000" stroke="param(outline) #000" stroke-width="param(outline-width) 1" d="M65.625 25c-2.876 0.001-5.207 2.332-5.208 5.208v13.542h-20.833v-13.542c0-2.876-2.332-5.208-5.208-5.208s-5.208 2.332-5.208 5.208v0 39.583c0 2.876 2.332 5.208 5.208 5.208s5.208-2.332 5.208-5.208v0-15.625h20.833v15.625c0 2.876 2.332 5.208 5.208 5.208s5.208-2.332 5.208-5.208v0-39.583c0-0.005 0-0.010 0-0.016 0-2.868-2.325-5.192-5.192-5.192-0.006 0-0.011 0-0.017 0h0.001z"></path>
</svg>
