
<svg version="1.1" xmlns="http://www.w3.org/2000/svg" width="137" height="100" viewBox="0 0 137 100">
<title>helicopter</title>
<path fill="param(fill) #000" stroke="param(outline) #000" stroke-width="param(outline-width) 1" d="M132.857 8.571c2.367 0 4.286-1.919 4.286-4.286s-1.919-4.286-4.286-4.286v0h-108.571c-2.367 0-4.286 1.919-4.286 4.286s1.919 4.286 4.286 4.286v0h50v20h-49.314c-1.816-5.046-6.562-8.59-12.135-8.59-7.106 0-12.866 5.76-12.866 12.866s5.76 12.866 12.866 12.866c4.917 0 9.19-2.758 11.355-6.811l0.034-0.069 24.346 9.738v5.714h0.019c-0.002 0.127-0.019 0.25-0.019 0.377 0.046 13.58 10.748 24.645 24.178 25.273l0.057 0.002c0.056 0.008 0.109 0.029 0.165 0.035 0.371 0.028 0.714 0.028 1.085 0.028h3.086v11.429h-24.505c-0 0-0 0-0 0-2.245 0-4.065 1.82-4.066 4.065v0 0.441c0 2.245 1.82 4.065 4.066 4.065 0 0 0 0 0 0h63.845c0.001 0 0.003 0 0.004 0 0.458 0 0.899-0.077 1.31-0.218l-0.028 0.008 13.737-4.579c1.633-0.553 2.787-2.071 2.787-3.859 0-2.245-1.82-4.065-4.065-4.065-0.463 0-0.907 0.077-1.322 0.22l0.029-0.008-11.166 3.721c-0.382 0.133-0.823 0.209-1.281 0.209-0.002 0-0.003 0-0.005 0h-5.054v-11.6c12.918-1.483 22.857-12.356 22.857-25.549 0-14.19-11.497-25.695-25.684-25.708h-25.744v-20zM12.857 37.143c-2.367 0-4.286-1.919-4.286-4.286s1.919-4.286 4.286-4.286c2.367 0 4.286 1.919 4.286 4.286v0c0 0.002 0 0.004 0 0.006 0 2.364-1.916 4.28-4.28 4.28-0.002 0-0.004 0-0.006 0h0zM85.714 91.429v-11.429h17.143v11.429zM125.714 54.286h-20v-17.143c0.005 0 0.011 0 0.018 0 0.971 0 1.927 0.062 2.865 0.183l-0.111-0.012c9.743 1.143 17.229 8.313 17.229 16.971z"></path>
</svg>
