
<svg version="1.1" xmlns="http://www.w3.org/2000/svg" width="58" height="100" viewBox="0 0 58 100">
<title>help</title>
<path fill="param(fill) #000" stroke="param(outline) #000" stroke-width="param(outline-width) 1" d="M37.5 91.667c0 4.602-3.731 8.333-8.333 8.333s-8.333-3.731-8.333-8.333c0-4.602 3.731-8.333 8.333-8.333s8.333 3.731 8.333 8.333z"></path>
<path fill="param(fill) #000" stroke="param(outline) #000" stroke-width="param(outline-width) 1" d="M58.333 29.167c0-16.108-13.058-29.167-29.167-29.167s-29.167 13.058-29.167 29.167v0c0 4.602 3.731 8.333 8.333 8.333s8.333-3.731 8.333-8.333v0c0-6.904 5.596-12.5 12.5-12.5s12.5 5.596 12.5 12.5c0 6.904-5.596 12.5-12.5 12.5v0c-4.602 0-8.333 3.731-8.333 8.333v0 18.75c0 4.602 3.731 8.333 8.333 8.333s8.333-3.731 8.333-8.333v0-11.645c12.137-3.716 20.813-14.811 20.833-27.936v-0.002z"></path>
</svg>
