
<svg version="1.1" xmlns="http://www.w3.org/2000/svg" width="96" height="100" viewBox="0 0 96 100">
<title>hospital-bed</title>
<path fill="param(fill) #000" stroke="param(outline) #000" stroke-width="param(outline-width) 1" d="M93.702 61.45v11.45c0 3.244-2.481 5.725-5.725 5.725s-5.725-2.481-5.725-5.725v-3.817h-68.702v3.817c0 3.244-2.481 5.725-5.725 5.725s-5.725-2.481-5.725-5.725v-45.802c0-3.244 2.481-5.725 5.725-5.725s5.725 2.481 5.725 5.725v30.534h76.336c2.099 0 3.817 1.718 3.817 3.817zM26.908 36.641c-4.198 0-7.634 3.435-7.634 7.634s3.435 7.634 7.634 7.634 7.634-3.435 7.634-7.634-3.435-7.634-7.634-7.634zM84.16 36.641h-38.168c-4.198 0-7.634 3.435-7.634 7.634v0c0 4.198 3.435 7.634 7.634 7.634h38.168c4.198 0 7.634-3.435 7.634-7.634v0c0-4.198-3.435-7.634-7.634-7.634z"></path>
</svg>
