
<svg version="1.1" xmlns="http://www.w3.org/2000/svg" width="67" height="100" viewBox="0 0 67 100">
<title>hospital</title>
<path fill="param(fill) #000" stroke="param(outline) #000" stroke-width="param(outline-width) 1" d="M58.333 0c-0 0-0 0-0 0-4.602 0-8.333 3.731-8.333 8.333 0 0 0 0 0 0v0 33.333h-33.333v-33.333c0-4.602-3.731-8.333-8.333-8.333s-8.333 3.731-8.333 8.333v0 83.333c0 4.602 3.731 8.333 8.333 8.333s8.333-3.731 8.333-8.333v0-33.333h33.333v33.333c0 4.602 3.731 8.333 8.333 8.333s8.333-3.731 8.333-8.333v0-83.333c0-0 0-0 0-0 0-4.602-3.731-8.333-8.333-8.333-0 0-0 0-0 0v0z"></path>
</svg>
