
<svg version="1.1" xmlns="http://www.w3.org/2000/svg" width="67" height="100" viewBox="0 0 67 100">
<title>hotel</title>
<path fill="param(fill) #000" stroke="param(outline) #000" stroke-width="param(outline-width) 1" d="M62.5 12.5h-58.333c-2.298 0.007-4.16 1.868-4.167 4.166v45.834h66.667v-45.833c-0.007-2.298-1.868-4.16-4.166-4.167h-0.001zM22.917 27.083c2.301 0 4.167 1.866 4.167 4.167s-1.866 4.167-4.167 4.167c-2.301 0-4.167-1.866-4.167-4.167v0c0.007-2.298 1.868-4.16 4.166-4.167h0.001zM60.417 51.042c0 1.726-1.399 3.125-3.125 3.125s-3.125-1.399-3.125-3.125v0-3.125h-41.667v3.125c0 1.726-1.399 3.125-3.125 3.125s-3.125-1.399-3.125-3.125v0-27.083c0-1.726 1.399-3.125 3.125-3.125s3.125 1.399 3.125 3.125v0 17.708h47.917zM60.417 31.542c0 0.002 0 0.004 0 0.007 0 2.136-1.732 3.868-3.868 3.868-0.003 0-0.005 0-0.008 0h-19.333c-0.002 0-0.005 0-0.007 0-2.136 0-3.868-1.732-3.868-3.868 0-0.002 0-0.005 0-0.007v0-0.584c0-0.002 0-0.004 0-0.007 0-2.136 1.732-3.868 3.868-3.868 0.003 0 0.005 0 0.008 0h19.333c0.002 0 0.005 0 0.007 0 2.136 0 3.868 1.732 3.868 3.868 0 0.002 0 0.005 0 0.007v-0z"></path>
<path fill="param(fill) #000" stroke="param(outline) #000" stroke-width="param(outline-width) 1" d="M12.5 8.333h41.667c2.301 0 4.167-1.866 4.167-4.167s-1.866-4.167-4.167-4.167v0h-41.667c-2.301 0-4.167 1.866-4.167 4.167s1.866 4.167 4.167 4.167v0z"></path>
<path fill="param(fill) #000" stroke="param(outline) #000" stroke-width="param(outline-width) 1" d="M0 100h25v-20.833c0.007-2.298 1.868-4.16 4.166-4.167h8.334c2.298 0.007 4.16 1.868 4.167 4.166v20.834h25v-33.333h-66.667z"></path>
</svg>
