
<svg version="1.1" xmlns="http://www.w3.org/2000/svg" width="100" height="100" viewBox="0 0 100 100">
<title>house-burned</title>
<path fill="param(fill) #000" stroke="param(outline) #000" stroke-width="param(outline-width) 1" d="M99.604 43.688l-31.604-26.542c-0.358-0.301-0.824-0.484-1.333-0.484s-0.975 0.183-1.337 0.487l0.003-0.003-13.292 11.146c2.326 4.527 3.84 9.829 4.202 15.444l0.006 0.119c0.001 0.075 0.001 0.163 0.001 0.252 0 14.653-9.504 27.087-22.683 31.473l-0.234 0.068v22.271c0.003 1.149 0.934 2.080 2.083 2.083h22.917v-25c0.003-1.149 0.934-2.080 2.083-2.083h12.5c1.149 0.003 2.080 0.934 2.083 2.083v25h25v-55.459c-0.008-0.34-0.159-0.643-0.395-0.853l-0.001-0.001z"></path>
<path fill="param(fill) #000" stroke="param(outline) #000" stroke-width="param(outline-width) 1" d="M47.917 43.854c-0.239-3.657-1.143-7.047-2.593-10.13l0.072 0.171c-5.417-13.104-17.938-29.813-20.833-33.584-0.136-0.19-0.356-0.312-0.604-0.312s-0.468 0.122-0.603 0.31l-0.002 0.002c-3.729 4.854-23.354 31.084-23.354 43.542-0.003 0.136-0.004 0.297-0.004 0.458 0 13.33 10.671 24.168 23.938 24.437l0.025 0c0.004 0 0.010 0 0.015 0 3.388 0 6.606-0.729 9.505-2.038l-0.146 0.059c8.677-4.034 14.584-12.676 14.584-22.698 0-0.077-0-0.154-0.001-0.231l0 0.012zM23.958 62.5c-6.35-0.1-11.46-5.272-11.46-11.637 0-0.062 0-0.123 0.001-0.185l-0 0.009c0-5.896 9.396-19.063 11.167-21.375 0.069-0.086 0.174-0.141 0.292-0.141s0.223 0.055 0.291 0.14l0.001 0.001c3.251 4.29 6.303 9.133 8.927 14.233l0.261 0.558v0.021c1.040 1.899 1.746 4.126 1.974 6.493l0.005 0.070c0 0.009 0 0.020 0 0.030 0 2.518-0.779 4.854-2.109 6.78l0.026-0.040c-2.050 3.046-5.48 5.027-9.373 5.042h-0.002z"></path>
</svg>
