
<svg version="1.1" xmlns="http://www.w3.org/2000/svg" width="100" height="100" viewBox="0 0 100 100">
<title>house-lockdown</title>
<path fill="param(fill) #000" stroke="param(outline) #000" stroke-width="param(outline-width) 1" d="M20.833 10.417c-3.448 0.010-6.24 2.802-6.25 6.249v0.001h12.5c-0.010-3.448-2.802-6.24-6.249-6.25h-0.001z"></path>
<path fill="param(fill) #000" stroke="param(outline) #000" stroke-width="param(outline-width) 1" d="M99.625 47.604l-29.542-26.292c-0.358-0.301-0.824-0.484-1.333-0.484s-0.975 0.183-1.337 0.487l0.003-0.003-29.542 26.292c-0.222 0.195-0.364 0.476-0.375 0.79v51.606h22.917v-20.833c0.007-2.298 1.868-4.16 4.166-4.167h8.334c2.298 0.007 4.16 1.868 4.167 4.166v20.834h22.917v-51.604c-0.011-0.316-0.153-0.597-0.374-0.791l-0.001-0.001z"></path>
<path fill="param(fill) #000" stroke="param(outline) #000" stroke-width="param(outline-width) 1" d="M20.833 0c-11.506 0-20.833 9.327-20.833 20.833s9.327 20.833 20.833 20.833c11.506 0 20.833-9.327 20.833-20.833v0c-0.004-11.504-9.329-20.829-20.833-20.833h-0zM31.25 29.167c-0.007 2.298-1.868 4.16-4.166 4.167h-12.501c-2.298-0.007-4.16-1.868-4.167-4.166v-12.501c0-5.753 4.664-10.417 10.417-10.417s10.417 4.664 10.417 10.417v0z"></path>
<path fill="param(fill) #000" stroke="param(outline) #000" stroke-width="param(outline-width) 1" d="M18.75 20.833h4.167c1.151 0 2.083 0.933 2.083 2.083v4.167c0 1.151-0.933 2.083-2.083 2.083h-4.167c-1.151 0-2.083-0.933-2.083-2.083v-4.167c0-1.151 0.933-2.083 2.083-2.083z"></path>
</svg>
