
<svg version="1.1" xmlns="http://www.w3.org/2000/svg" width="100" height="100" viewBox="0 0 100 100">
<title>house-destroyed</title>
<path fill="param(fill) #000" stroke="param(outline) #000" stroke-width="param(outline-width) 1" d="M20.833 0c-11.506 0-20.833 9.327-20.833 20.833s9.327 20.833 20.833 20.833c11.506 0 20.833-9.327 20.833-20.833v0c-0.004-11.504-9.329-20.829-20.833-20.833h-0zM30.646 27.688c0.377 0.379 0.61 0.902 0.61 1.479s-0.233 1.1-0.61 1.479l0-0c-0.381 0.374-0.903 0.604-1.479 0.604s-1.098-0.231-1.479-0.605l-6.854-6.854-6.854 6.854c-0.381 0.374-0.903 0.604-1.479 0.604s-1.098-0.231-1.479-0.605l0 0c-0.377-0.379-0.61-0.902-0.61-1.479s0.233-1.1 0.61-1.479l6.854-6.854-6.854-6.854c-0.379-0.379-0.613-0.902-0.613-1.479 0-1.155 0.937-2.092 2.092-2.092 0.578 0 1.101 0.234 1.479 0.613l6.854 6.854 6.854-6.854c0.379-0.379 0.902-0.613 1.479-0.613 1.155 0 2.092 0.937 2.092 2.092 0 0.578-0.234 1.101-0.613 1.479l-6.854 6.854z"></path>
<path fill="param(fill) #000" stroke="param(outline) #000" stroke-width="param(outline-width) 1" d="M99.625 47.604l-29.542-26.288c-0.358-0.3-0.825-0.483-1.334-0.483s-0.975 0.182-1.337 0.485l0.003-0.003-29.542 26.288c-0.222 0.195-0.364 0.476-0.375 0.79v51.606h22.917v-20.833c0-2.301 1.866-4.167 4.167-4.167v0h8.333c2.301 0 4.167 1.866 4.167 4.167v0 20.833h22.917v-51.604c-0.011-0.316-0.153-0.597-0.374-0.791l-0.001-0.001z"></path>
</svg>
