
<svg version="1.1" xmlns="http://www.w3.org/2000/svg" width="100" height="100" viewBox="0 0 100 100">
<title>house-affected</title>
<path fill="param(fill) #000" stroke="param(outline) #000" stroke-width="param(outline-width) 1" d="M20.833 0c-11.506 0-20.833 9.327-20.833 20.833s9.327 20.833 20.833 20.833c11.506 0 20.833-9.327 20.833-20.833v0c-0.004-11.504-9.329-20.829-20.833-20.833h-0zM20.833 35.417c-1.151 0-2.083-0.933-2.083-2.083s0.933-2.083 2.083-2.083c1.151 0 2.083 0.933 2.083 2.083v0c-0.003 1.149-0.934 2.080-2.083 2.083h-0zM22.917 25c0 1.151-0.933 2.083-2.083 2.083s-2.083-0.933-2.083-2.083v0-16.667c0-1.151 0.933-2.083 2.083-2.083s2.083 0.933 2.083 2.083v0z"></path>
<path fill="param(fill) #000" stroke="param(outline) #000" stroke-width="param(outline-width) 1" d="M99.625 47.604l-29.542-26.288c-0.358-0.3-0.825-0.483-1.334-0.483s-0.975 0.182-1.337 0.485l0.003-0.003-29.542 26.288c-0.222 0.195-0.364 0.476-0.375 0.79v51.606h22.917v-20.833c0-2.301 1.866-4.167 4.167-4.167v0h8.333c2.301 0 4.167 1.866 4.167 4.167v0 20.833h22.917v-51.604c-0.011-0.316-0.153-0.597-0.374-0.791l-0.001-0.001z"></path>
</svg>
