
<svg version="1.1" xmlns="http://www.w3.org/2000/svg" width="100" height="100" viewBox="0 0 100 100">
<title>humanitarian-programme-cycle</title>
<path fill="param(fill) #000" stroke="param(outline) #000" stroke-width="param(outline-width) 1" d="M79.372 66.917l-0.396-0.5c-4.159 7.251-10.76 12.703-18.659 15.287l-0.236 0.067c-0.988 0.335-2.226 0.659-3.493 0.906l-0.195 0.032h-0.021c-1.427 0.301-3.102 0.51-4.813 0.581l-0.062 0.002 1.104-0.875c0.954-0.77 1.56-1.939 1.56-3.25 0-2.3-1.864-4.165-4.164-4.166h-0c-0.006 0-0.013 0-0.020 0-0.983 0-1.885 0.346-2.592 0.923l0.007-0.006-10.417 8.333c-0.954 0.771-1.559 1.939-1.563 3.25v0c0.001 0.604 0.131 1.176 0.365 1.693l-0.011-0.026c0.291 0.629 0.699 1.157 1.201 1.578l0.007 0.006 10.417 8.333c0.699 0.571 1.601 0.917 2.584 0.917 0.007 0 0.014 0 0.021-0h-0.001c2.3-0.001 4.164-1.866 4.164-4.166 0-1.311-0.605-2.48-1.552-3.244l-0.008-0.006-1.188-0.958c1.529-0.025 3.006-0.153 4.451-0.377l-0.181 0.023c1.125-0.146 2.25-0.354 3.354-0.604 11.657-2.669 21.258-9.933 26.976-19.739l0.107-0.198c-2.754-0.349-5.125-1.755-6.734-3.791l-0.016-0.021z"></path>
<path fill="param(fill) #000" stroke="param(outline) #000" stroke-width="param(outline-width) 1" d="M20.621 33.083l0.396 0.5c4.159-7.251 10.76-12.703 18.659-15.287l0.236-0.067c0.988-0.335 2.227-0.659 3.493-0.906l0.195-0.032h0.021c1.427-0.301 3.102-0.51 4.813-0.581l0.062-0.002-1.104 0.875c-0.954 0.77-1.56 1.939-1.56 3.25 0 2.3 1.864 4.165 4.164 4.166h0c0.006 0 0.013 0 0.020 0 0.983 0 1.885-0.346 2.592-0.923l-0.007 0.006 10.417-8.333c0.954-0.771 1.559-1.939 1.563-3.25v-0c-0.001-0.604-0.131-1.176-0.365-1.693l0.011 0.026c-0.29-0.629-0.699-1.157-1.201-1.578l-0.007-0.006-10.417-8.333c-0.699-0.571-1.601-0.917-2.584-0.917-0.007 0-0.014 0-0.021 0h0.001c-2.3 0.001-4.164 1.866-4.164 4.166 0 1.311 0.605 2.48 1.552 3.244l0.008 0.006 1.188 0.958c-1.529 0.025-3.006 0.153-4.451 0.377l0.18-0.023c-1.125 0.146-2.25 0.354-3.354 0.604-11.684 2.671-21.304 9.961-27.018 19.8l-0.107 0.2c2.761 0.321 5.148 1.707 6.776 3.73l0.015 0.020z"></path>
<path fill="param(fill) #000" stroke="param(outline) #000" stroke-width="param(outline-width) 1" d="M18.226 60.083c-0.826-2.536-1.371-5.468-1.518-8.505l-0.003-0.078 0.875 1.104c0.766 0.956 1.933 1.563 3.242 1.563 0.003 0 0.006 0 0.008 0h-0c0.006 0 0.013 0 0.020 0 0.983 0 1.885-0.346 2.592-0.923l-0.007 0.006c0.954-0.77 1.559-1.94 1.559-3.251 0-0.989-0.344-1.897-0.919-2.612l0.006 0.008-8.333-10.417c-0.769-0.908-1.909-1.48-3.183-1.48-0.023 0-0.047 0-0.070 0.001h0.004c-0.009-0-0.021-0-0.032-0-0.598 0-1.167 0.123-1.684 0.344l0.028-0.011c-0.627 0.254-1.152 0.645-1.557 1.139l-0.005 0.007-8.333 10.417c-0.569 0.707-0.913 1.615-0.913 2.603 0 1.311 0.605 2.48 1.551 3.245l0.008 0.006c0.699 0.571 1.601 0.917 2.584 0.917 0.007 0 0.014 0 0.021-0h-0.001c0.002 0 0.005 0 0.008 0 1.309 0 2.476-0.607 3.236-1.554l0.006-0.008 0.958-1.188c0.025 1.529 0.153 3.006 0.377 4.452l-0.023-0.181c0.146 1.125 0.354 2.25 0.604 3.354 2.669 11.657 9.933 21.258 19.739 26.976l0.198 0.107c0.349-2.754 1.754-5.125 3.791-6.734l0.021-0.016 0.5-0.396c-7.252-4.159-12.703-10.761-15.288-18.66l-0.067-0.236z"></path>
<path fill="param(fill) #000" stroke="param(outline) #000" stroke-width="param(outline-width) 1" d="M98.434 46.75c-0.699-0.571-1.601-0.917-2.584-0.917-0.007 0-0.014 0-0.021 0h0.001c-0.002 0-0.005 0-0.008 0-1.309 0-2.476 0.607-3.236 1.554l-0.006 0.008-0.958 1.188c-0.025-1.529-0.153-3.006-0.377-4.452l0.023 0.181c-0.146-1.125-0.354-2.25-0.604-3.354-2.669-11.657-9.933-21.258-19.739-26.976l-0.198-0.107c-0.349 2.754-1.754 5.125-3.791 6.734l-0.021 0.016-0.5 0.396c7.252 4.159 12.703 10.761 15.288 18.66l0.067 0.236c0.826 2.536 1.371 5.468 1.518 8.505l0.003 0.078-0.875-1.104c-0.766-0.956-1.933-1.563-3.242-1.563-0.003 0-0.006 0-0.009 0h0c-0.006 0-0.013 0-0.020 0-0.983 0-1.885 0.346-2.592 0.923l0.007-0.006c-0.954 0.77-1.559 1.94-1.559 3.251 0 0.989 0.344 1.897 0.919 2.612l-0.006-0.008 8.333 10.417c0.771 0.954 1.939 1.559 3.25 1.563h0.001c0.604-0.001 1.176-0.131 1.693-0.365l-0.026 0.011c0.629-0.29 1.157-0.699 1.578-1.201l0.006-0.007 8.333-10.417c0.569-0.707 0.913-1.615 0.913-2.604 0-1.311-0.605-2.48-1.551-3.244l-0.008-0.006z"></path>
</svg>
