
<svg version="1.1" xmlns="http://www.w3.org/2000/svg" width="100" height="100" viewBox="0 0 100 100">
<title>humanitarian-access</title>
<path fill="param(fill) #000" stroke="param(outline) #000" stroke-width="param(outline-width) 1" d="M90.458 66.667h-0.875v-6.25c-0.002-5.752-4.665-10.415-10.416-10.417h-10.417v-6.229c-0.004-3.462-2.809-6.267-6.271-6.271h-56.209c-3.462 0.004-6.267 2.809-6.271 6.271v47.896h10.417c0-0.008 0-0.018 0-0.028 0-4.362 2.244-8.2 5.64-10.422l0.048-0.029c1.922-1.267 4.28-2.021 6.814-2.021 6.903 0 12.499 5.596 12.499 12.499 0 0 0 0.001 0 0.001v-0h25c0-6.904 5.596-12.5 12.5-12.5s12.5 5.596 12.5 12.5v0h11.396c0.004 0 0.009 0 0.013 0 1.753 0 3.174-1.421 3.174-3.174 0-0.005 0-0.009 0-0.014v0.001-12.271c0-0 0-0.001 0-0.001 0-5.269-4.271-9.54-9.54-9.54-0 0-0.001 0-0.002 0h0zM83.333 66.667h-14.583v-10.417h8.563c0.003 0 0.007 0 0.010 0 3.319 0 6.010 2.691 6.010 6.010 0 0.004 0 0.007 0 0.011v-0.001z"></path>
<path fill="param(fill) #000" stroke="param(outline) #000" stroke-width="param(outline-width) 1" d="M22.917 83.333c-4.602 0-8.333 3.731-8.333 8.333s3.731 8.333 8.333 8.333c4.602 0 8.333-3.731 8.333-8.333v0c0-0.007 0-0.015 0-0.023 0-4.59-3.721-8.31-8.31-8.31-0.008 0-0.016 0-0.024 0h0.001z"></path>
<path fill="param(fill) #000" stroke="param(outline) #000" stroke-width="param(outline-width) 1" d="M72.917 83.333c-4.602 0-8.333 3.731-8.333 8.333s3.731 8.333 8.333 8.333c4.602 0 8.333-3.731 8.333-8.333v0c0-0.006 0-0.013 0-0.021 0-4.591-3.722-8.313-8.313-8.313-0.007 0-0.015 0-0.022 0h0.001z"></path>
<path fill="param(fill) #000" stroke="param(outline) #000" stroke-width="param(outline-width) 1" d="M3.125 20.833h85.942l-9.063 9.062c-0.585 0.585-0.947 1.394-0.947 2.287 0 1.786 1.448 3.234 3.234 3.234 0.893 0 1.702-0.362 2.287-0.947l14.475-14.473c0.585-0.585 0.948-1.394 0.948-2.287s-0.362-1.702-0.948-2.287l-14.475-14.475c-0.585-0.585-1.394-0.947-2.287-0.947-1.786 0-3.234 1.448-3.234 3.234 0 0.893 0.362 1.702 0.947 2.287l9.062 9.062h-85.942c-1.726 0-3.125 1.399-3.125 3.125s1.399 3.125 3.125 3.125v0z"></path>
</svg>
