
<svg version="1.1" xmlns="http://www.w3.org/2000/svg" width="100" height="100" viewBox="0 0 100 100">
<title>idp-refugee-camp</title>
<path fill="param(fill) #000" stroke="param(outline) #000" stroke-width="param(outline-width) 1" d="M95.151 26.392c-0.114-0.866-0.568-1.607-1.221-2.099l-0.008-0.006-30.377-23.584c-0.571-0.439-1.296-0.703-2.083-0.703s-1.512 0.264-2.092 0.709l0.008-0.006-30.377 23.585c-0.661 0.497-1.115 1.239-1.227 2.088l-0.002 0.016-1.604 11.876 6.458-5c1.617-1.26 3.679-2.021 5.917-2.021s4.3 0.76 5.939 2.037l-0.022-0.016 30.314 23.543c1.813 1.363 3.095 3.346 3.533 5.63l0.009 0.058h21.689z"></path>
<path fill="param(fill) #000" stroke="param(outline) #000" stroke-width="param(outline-width) 1" d="M71.004 61.789l-10.584-8.209-1.917-1.5-2.25-1.75-15.626-12.125c-0.563-0.442-1.283-0.708-2.064-0.708-0.007 0-0.014 0-0.021 0h0.001c-0.010-0-0.022-0-0.034-0-0.777 0-1.491 0.267-2.056 0.714l0.007-0.005-30.377 23.584c-0.661 0.497-1.115 1.239-1.227 2.088l-0.002 0.016-4.855 36.106h37.502v-20.23c0.002-0.334 0.274-0.604 0.608-0.604 0.006 0 0.012 0 0.018 0h-0.001c0.23 0.001 0.431 0.125 0.54 0.309l0.002 0.003 11.334 20.522h27.085l-4.855-36.106c-0.114-0.866-0.568-1.607-1.221-2.099l-0.008-0.006z"></path>
</svg>
