
<svg version="1.1" xmlns="http://www.w3.org/2000/svg" width="100" height="100" viewBox="0 0 100 100">
<title>indigenous-people</title>
<path fill="param(fill) #000" stroke="param(outline) #000" stroke-width="param(outline-width) 1" d="M35.425 8.333c0 4.602-3.731 8.333-8.333 8.333s-8.333-3.731-8.333-8.333c0-4.602 3.731-8.333 8.333-8.333s8.333 3.731 8.333 8.333z"></path>
<path fill="param(fill) #000" stroke="param(outline) #000" stroke-width="param(outline-width) 1" d="M81.698 69.639c0.687 0.687 1.636 1.112 2.685 1.112s1.998-0.425 2.685-1.112v0l11.733-11.438c0.71-0.669 1.151-1.616 1.151-2.665 0-0.766-0.235-1.477-0.637-2.065l0.008 0.013c-0.64-0.854-1.649-1.4-2.787-1.4-0.959 0-1.827 0.389-2.456 1.017v0l-6.573 5.931v-26.34c0.011-0.099 0.017-0.214 0.017-0.33 0-1.735-1.407-3.142-3.142-3.142s-3.142 1.407-3.142 3.142c0 0.116 0.006 0.231 0.019 0.344l-0.001-0.014v26.34l-6.573-5.931c-0.629-0.631-1.499-1.022-2.46-1.022-1.918 0-3.472 1.554-3.472 3.472 0 0.962 0.391 1.832 1.022 2.461l0 0z"></path>
<path fill="param(fill) #000" stroke="param(outline) #000" stroke-width="param(outline-width) 1" d="M97.9 94.375c-2.521-0.813-5.021-1.521-7.521-2.167-11.742-3.016-25.222-4.748-39.106-4.748-4.847 0-9.645 0.211-14.384 0.624l0.615-0.043v-56.25c4.992 2.636 8.336 7.793 8.336 13.731 0 0.109-0.001 0.218-0.003 0.327l0-0.016c0 2.301 1.866 4.167 4.167 4.167s4.167-1.866 4.167-4.167v0c0-14.25-11.646-25-27.083-25s-27.083 10.75-27.083 25c0 2.301 1.866 4.167 4.167 4.167s4.167-1.866 4.167-4.167v0c-0.002-0.092-0.003-0.201-0.003-0.311 0-5.938 3.344-11.095 8.252-13.69l0.084-0.041v59.063c-2.417 0.458-4.542 0.917-6.417 1.354-4.771 1.104-7.688 2.021-8.146 2.167-1.134 0.356-1.967 1.336-2.103 2.528l-0.001 0.014v0.062c-0.002 0.038-0.003 0.082-0.003 0.126 0 0.351 0.062 0.687 0.176 0.998l-0.006-0.020c0.402 1.025 1.318 1.767 2.422 1.915l0.016 0.002h94.667c1.17-0.105 2.141-0.859 2.555-1.896l0.007-0.020c0.1-0.28 0.157-0.602 0.157-0.938 0-1.311-0.876-2.417-2.074-2.765l-0.020-0.005zM25.004 64.583h4.167v24.333c-1.979 0.229-3.625 0.438-4.167 0.521z"></path>
</svg>
