
<svg version="1.1" xmlns="http://www.w3.org/2000/svg" width="38" height="100" viewBox="0 0 38 100">
<title>infant-formula</title>
<path fill="param(fill) #000" stroke="param(outline) #000" stroke-width="param(outline-width) 1" d="M35.417 29.167h-33.333c-1.149 0.003-2.080 0.934-2.083 2.083v62.5c0.010 3.448 2.802 6.24 6.249 6.25h25.001c3.448-0.010 6.24-2.802 6.25-6.249v-62.501c-0.003-1.149-0.934-2.080-2.083-2.083h-0zM20.833 68.75h-12.5c-1.151 0-2.083-0.933-2.083-2.083s0.933-2.083 2.083-2.083v0h12.5c1.151 0 2.083 0.933 2.083 2.083s-0.933 2.083-2.083 2.083v0zM20.833 58.333h-12.5c-1.151 0-2.083-0.933-2.083-2.083s0.933-2.083 2.083-2.083v0h12.5c1.151 0 2.083 0.933 2.083 2.083s-0.933 2.083-2.083 2.083v0zM20.833 47.917h-12.5c-1.151 0-2.083-0.933-2.083-2.083s0.933-2.083 2.083-2.083v0h12.5c1.151 0 2.083 0.933 2.083 2.083s-0.933 2.083-2.083 2.083v0z"></path>
<path fill="param(fill) #000" stroke="param(outline) #000" stroke-width="param(outline-width) 1" d="M35.417 18.75h-2.083l-10.417-10.417v-4.167c0-2.301-1.866-4.167-4.167-4.167s-4.167 1.866-4.167 4.167v0 4.167l-10.417 10.417h-2.083c-1.151 0-2.083 0.933-2.083 2.083v0 2.083c0 1.151 0.933 2.083 2.083 2.083v0h33.333c1.151 0 2.083-0.933 2.083-2.083v0-2.083c0-1.151-0.933-2.083-2.083-2.083v0z"></path>
</svg>
