
<svg version="1.1" xmlns="http://www.w3.org/2000/svg" width="59" height="100" viewBox="0 0 59 100">
<title>infant</title>
<path fill="param(fill) #000" stroke="param(outline) #000" stroke-width="param(outline-width) 1" d="M29.455 27c-16.242 0-29.455 12.112-29.455 27 0 2.711 2.198 4.909 4.909 4.909s4.909-2.198 4.909-4.909v0c0.050-5.584 2.944-10.482 7.302-13.32l0.062-0.038v15.812h24.546v-15.812c4.42 2.876 7.313 7.774 7.364 13.35l0 0.008c0 2.711 2.198 4.909 4.909 4.909s4.909-2.198 4.909-4.909v0c0-14.888-13.213-27-29.455-27z"></path>
<path fill="param(fill) #000" stroke="param(outline) #000" stroke-width="param(outline-width) 1" d="M40.501 11.046c0 6.1-4.945 11.046-11.046 11.046s-11.046-4.945-11.046-11.046c0-6.1 4.945-11.046 11.046-11.046s11.046 4.945 11.046 11.046z"></path>
<path fill="param(fill) #000" stroke="param(outline) #000" stroke-width="param(outline-width) 1" d="M22.435 91.065c-3.192-2.244-5.253-5.911-5.253-10.059 0-4.534 2.461-8.493 6.121-10.614l0.059-0.031c0.191-0.103 0.318-0.302 0.318-0.531 0-0.165-0.067-0.315-0.174-0.424v0l-6.216-6.217c-0.114-0.114-0.272-0.185-0.446-0.185-0.137 0-0.264 0.044-0.368 0.118l0.002-0.001c-5.55 4.059-9.113 10.548-9.113 17.869 0 7.395 3.637 13.941 9.219 17.947l0.066 0.045c0.822 0.604 1.854 0.966 2.971 0.966 1.408 0 2.681-0.576 3.597-1.505l0.001-0.001c0.822-0.874 1.328-2.054 1.328-3.353 0-1.662-0.828-3.131-2.094-4.016l-0.016-0.010z"></path>
<path fill="param(fill) #000" stroke="param(outline) #000" stroke-width="param(outline-width) 1" d="M42.433 63.122c-0.102-0.073-0.229-0.117-0.366-0.117-0.174 0-0.332 0.071-0.446 0.185v0l-6.217 6.217c-0.108 0.109-0.174 0.258-0.174 0.423 0 0.229 0.128 0.427 0.315 0.529l0.003 0.002c3.718 2.152 6.18 6.111 6.18 10.645 0 4.148-2.061 7.815-5.214 10.033l-0.039 0.026c-1.278 0.899-2.102 2.366-2.102 4.027 0 2.708 2.193 4.904 4.9 4.908h0c1.047-0.006 2.017-0.336 2.814-0.894l-0.016 0.011c5.758-4.040 9.475-10.649 9.475-18.125 0-7.321-3.564-13.809-9.051-17.825l-0.062-0.043z"></path>
</svg>
