
<svg version="1.1" xmlns="http://www.w3.org/2000/svg" width="77" height="100" viewBox="0 0 77 100">
<title>infected</title>
<path fill="param(fill) #000" stroke="param(outline) #000" stroke-width="param(outline-width) 1" d="M0 0h29.167v14.583h-29.167v-14.583z"></path>
<path fill="param(fill) #000" stroke="param(outline) #000" stroke-width="param(outline-width) 1" d="M2.083 87.5c0 6.904 5.596 12.5 12.5 12.5s12.5-5.596 12.5-12.5v0-68.75h-25zM8.333 35.417h12.5v22.917h-12.5z"></path>
<path fill="param(fill) #000" stroke="param(outline) #000" stroke-width="param(outline-width) 1" d="M74.313 54.187l-5.583-0.625c-0.084-1.753-0.458-3.395-1.077-4.912l0.036 0.099 1.938-1.479c0.743-0.579 1.217-1.474 1.217-2.479 0-1.731-1.403-3.134-3.134-3.134-0.725 0-1.393 0.246-1.924 0.66l0.007-0.005-1.625 1.271c-1.2-1.139-2.598-2.084-4.135-2.775l-0.094-0.038 0.458-3.958c0.013-0.106 0.020-0.229 0.020-0.354 0-1.725-1.399-3.124-3.124-3.124-1.601 0-2.92 1.204-3.103 2.756l-0.001 0.015-0.417 3.499c-2.43 0.061-4.697 0.71-6.679 1.809l0.074-0.038-4.167-4.875c-0.578-0.669-1.427-1.090-2.375-1.090-1.73 0-3.132 1.402-3.132 3.132 0 0.782 0.287 1.497 0.76 2.046l-0.003-0.004 4.208 4.916c-1.037 1.386-1.845 3.013-2.33 4.774l-0.024 0.102-3.292-0.355c-0.106-0.013-0.229-0.020-0.354-0.020-1.726 0-3.125 1.399-3.125 3.125 0 1.601 1.204 2.921 2.756 3.103l0.015 0.001 3.708 0.416c0.289 1.68 0.826 3.185 1.579 4.554l-0.038-0.075-2.646 2.021c-0.739 0.579-1.21 1.471-1.21 2.473 0 1.731 1.403 3.134 3.134 3.134 0.722 0 1.387-0.244 1.917-0.654l-0.007 0.005 2.917-2.25c1.412 1.050 3.065 1.872 4.853 2.371l0.105 0.025-0.396 3.271c-0.013 0.109-0.021 0.234-0.021 0.362 0 1.599 1.205 2.917 2.757 3.095l0.014 0.001c0.087 0.014 0.186 0.021 0.288 0.021 0.023 0 0.046-0 0.069-0.001l-0.003 0c1.6-0.002 2.919-1.205 3.103-2.756l0.001-0.015 0.438-3.708c1.61-0.284 3.051-0.792 4.37-1.497l-0.078 0.038 2.292 2.688c0.581 0.665 1.43 1.083 2.377 1.083 0.78 0 1.494-0.284 2.044-0.753l-0.004 0.004c0.669-0.578 1.090-1.428 1.090-2.375 0-0.782-0.286-1.497-0.76-2.046l0.003 0.004-2.271-2.646c0.739-0.951 1.382-2.035 1.88-3.196l0.037-0.096 5.958 0.667c0.091 0.013 0.196 0.021 0.302 0.021 0.018 0 0.036-0 0.054-0.001l-0.003 0c1.725-0.001 3.123-1.4 3.123-3.125 0-1.6-1.203-2.92-2.754-3.103l-0.015-0.001zM50 54.167c-2.301 0-4.167-1.866-4.167-4.167s1.866-4.167 4.167-4.167c2.301 0 4.167 1.866 4.167 4.167v0c-0.007 2.298-1.868 4.16-4.166 4.167h-0.001zM57.292 62.5c-1.726 0-3.125-1.399-3.125-3.125s1.399-3.125 3.125-3.125c1.726 0 3.125 1.399 3.125 3.125v0c0 0.001 0 0.003 0 0.004 0 1.724-1.397 3.121-3.121 3.121-0.002 0-0.003 0-0.005 0h0z"></path>
</svg>
