
<svg version="1.1" xmlns="http://www.w3.org/2000/svg" width="100" height="100" viewBox="0 0 100 100">
<title>infection-control</title>
<path fill="param(fill) #000" stroke="param(outline) #000" stroke-width="param(outline-width) 1" d="M71.979 52.295l-6.091-0.681c-0.091-1.912-0.5-3.704-1.175-5.358l0.039 0.108 2.114-1.614c0.811-0.631 1.328-1.608 1.328-2.704 0-1.888-1.53-3.418-3.418-3.418-0.791 0-1.519 0.269-2.099 0.72l0.008-0.006-1.773 1.386c-1.309-1.243-2.834-2.274-4.511-3.027l-0.102-0.041 0.5-4.318c0.014-0.116 0.022-0.25 0.022-0.386 0-1.882-1.526-3.408-3.408-3.408-1.746 0-3.186 1.313-3.385 3.006l-0.002 0.016-0.455 3.817c-2.651 0.067-5.124 0.775-7.286 1.973l0.081-0.041-4.545-5.318c-0.63-0.731-1.558-1.191-2.592-1.191-1.887 0-3.417 1.53-3.417 3.417 0 0.854 0.313 1.634 0.831 2.233l-0.004-0.004 4.591 5.363c-1.131 1.513-2.013 3.287-2.542 5.208l-0.026 0.111-3.591-0.387c-0.116-0.014-0.25-0.022-0.386-0.022-1.883 0-3.409 1.526-3.409 3.409 0 1.746 1.313 3.186 3.006 3.385l0.016 0.002 4.045 0.454c0.315 1.833 0.901 3.474 1.723 4.968l-0.041-0.082-2.886 2.205c-0.806 0.631-1.32 1.605-1.32 2.698 0 1.888 1.53 3.418 3.418 3.418 0.788 0 1.513-0.266 2.091-0.714l-0.008 0.006 3.182-2.455c1.54 1.145 3.343 2.042 5.294 2.586l0.115 0.027-0.432 3.569c-0.015 0.118-0.023 0.256-0.023 0.395 0 1.745 1.315 3.183 3.007 3.377l0.016 0.001c0.095 0.015 0.204 0.023 0.315 0.023 0.025 0 0.050-0 0.075-0.001l-0.004 0c1.746-0.002 3.184-1.315 3.385-3.007l0.002-0.016 0.477-4.045c1.757-0.31 3.328-0.864 4.767-1.633l-0.085 0.042 2.5 2.932c0.633 0.726 1.56 1.182 2.593 1.182 0.851 0 1.63-0.309 2.23-0.822l-0.005 0.004c0.73-0.631 1.189-1.557 1.189-2.591 0-0.853-0.312-1.633-0.829-2.232l0.004 0.004-2.477-2.886c0.807-1.038 1.507-2.22 2.051-3.486l0.040-0.105 6.5 0.728c0.099 0.015 0.214 0.023 0.33 0.023 0.020 0 0.040-0 0.059-0.001l-0.003 0c1.882-0.001 3.407-1.527 3.407-3.409 0-1.746-1.312-3.185-3.005-3.385l-0.016-0.002zM45.457 52.273c-2.51 0-4.545-2.035-4.545-4.545s2.035-4.545 4.545-4.545c2.51 0 4.545 2.035 4.545 4.545v0c-0.008 2.507-2.038 4.538-4.545 4.545h-0.001zM53.411 61.364c-1.883 0-3.409-1.526-3.409-3.409s1.526-3.409 3.409-3.409c1.883 0 3.409 1.526 3.409 3.409v0c0 0.001 0 0.003 0 0.005 0 1.88-1.524 3.404-3.404 3.404-0.002 0-0.003 0-0.005 0h0z"></path>
<path fill="param(fill) #000" stroke="param(outline) #000" stroke-width="param(outline-width) 1" d="M86.364 0h-72.727c-7.528 0.008-13.628 6.109-13.636 13.636v72.728c0.008 7.528 6.109 13.628 13.636 13.636h72.728c7.528-0.008 13.628-6.109 13.636-13.636v-72.728c-0.008-7.528-6.109-13.628-13.636-13.636h-0.001zM90.909 86.364c-0.003 2.509-2.036 4.542-4.545 4.545h-72.728c-2.509-0.003-4.542-2.036-4.545-4.545v-72.728c0.003-2.509 2.036-4.542 4.545-4.545h72.728c2.509 0.003 4.542 2.036 4.545 4.545v0z"></path>
</svg>
