
<svg version="1.1" xmlns="http://www.w3.org/2000/svg" width="109" height="100" viewBox="0 0 109 100">
<title>information-management</title>
<path fill="param(fill) #000" stroke="param(outline) #000" stroke-width="param(outline-width) 1" d="M4.539 18.193h9.796c1.921 5.353 6.952 9.113 12.861 9.113s10.94-3.76 12.831-9.018l0.030-0.095h64.335c2.507 0 4.539-2.032 4.539-4.539s-2.032-4.539-4.539-4.539v0h-64.335c-1.92-5.354-6.951-9.115-12.861-9.115s-10.941 3.761-12.831 9.020l-0.030 0.095h-9.796c-2.507 0-4.539 2.032-4.539 4.539s2.032 4.539 4.539 4.539v0zM27.196 9.078c2.527 0 4.575 2.048 4.575 4.575s-2.048 4.575-4.575 4.575c-2.527 0-4.575-2.048-4.575-4.574v-0c0.002-2.526 2.049-4.574 4.575-4.576h0z"></path>
<path fill="param(fill) #000" stroke="param(outline) #000" stroke-width="param(outline-width) 1" d="M104.393 81.809h-46.107c-1.92-5.354-6.951-9.115-12.861-9.115s-10.941 3.761-12.831 9.020l-0.030 0.095h-28.025c-2.507 0-4.539 2.032-4.539 4.539s2.032 4.539 4.539 4.539v0h28.025c1.921 5.353 6.952 9.113 12.861 9.113s10.94-3.76 12.831-9.018l0.030-0.095h46.107c2.507 0 4.539-2.032 4.539-4.539s-2.032-4.539-4.539-4.539v0zM45.425 90.922c-2.527 0-4.575-2.048-4.575-4.575s2.048-4.575 4.575-4.575c2.527 0 4.575 2.048 4.575 4.575 0 0 0 0.001 0 0.001v-0c-0.003 2.525-2.050 4.572-4.575 4.574h-0z"></path>
<path fill="param(fill) #000" stroke="param(outline) #000" stroke-width="param(outline-width) 1" d="M104.393 45.461h-9.796c-1.921-5.353-6.952-9.113-12.861-9.113s-10.94 3.76-12.831 9.018l-0.030 0.095h-64.335c-2.507 0-4.539 2.032-4.539 4.539s2.032 4.539 4.539 4.539v0h64.335c1.92 5.354 6.951 9.115 12.861 9.115s10.941-3.761 12.831-9.020l0.030-0.095h9.796c2.507 0 4.539-2.032 4.539-4.539s-2.032-4.539-4.539-4.539v0zM81.735 54.576c-2.527 0-4.575-2.048-4.575-4.575s2.048-4.575 4.575-4.575c2.527 0 4.575 2.048 4.575 4.574v0c-0.002 2.526-2.049 4.574-4.575 4.576h-0z"></path>
</svg>
