
<svg version="1.1" xmlns="http://www.w3.org/2000/svg" width="100" height="100" viewBox="0 0 100 100">
<title>information-technology</title>
<path fill="param(fill) #000" stroke="param(outline) #000" stroke-width="param(outline-width) 1" d="M94.563 56.25c0.067 0.003 0.146 0.005 0.224 0.005 2.879 0 5.213-2.334 5.213-5.213s-2.334-5.213-5.213-5.213c-0.079 0-0.157 0.002-0.236 0.005l0.011-0h-7.063v-8.333h7.063c0.067 0.003 0.146 0.005 0.224 0.005 2.879 0 5.213-2.334 5.213-5.213s-2.334-5.213-5.213-5.213c-0.079 0-0.157 0.002-0.236 0.005l0.011-0h-7.063v-10.271c-0.001-1.231-0.999-2.228-2.229-2.229h-10.271v-9.146c0.003-0.067 0.005-0.146 0.005-0.224 0-2.879-2.334-5.213-5.213-5.213s-5.213 2.334-5.213 5.213c0 0.079 0.002 0.157 0.005 0.236l-0-0.011v9.146h-8.333v-9.146c0.003-0.067 0.005-0.146 0.005-0.224 0-2.879-2.334-5.213-5.213-5.213s-5.213 2.334-5.213 5.213c0 0.079 0.002 0.157 0.005 0.236l-0-0.011v9.146h-8.333v-9.146c0.003-0.067 0.005-0.146 0.005-0.224 0-2.879-2.334-5.213-5.213-5.213s-5.213 2.334-5.213 5.213c0 0.079 0.002 0.157 0.005 0.236l-0-0.011v9.146h-10.271c-1.231 0.001-2.228 0.999-2.229 2.229v10.271h-9.146c-0.067-0.003-0.146-0.005-0.224-0.005-2.879 0-5.213 2.334-5.213 5.213s2.334 5.213 5.213 5.213c0.079 0 0.157-0.002 0.236-0.005l-0.011 0h9.146v8.333h-9.146c-0.067-0.003-0.146-0.005-0.224-0.005-2.879 0-5.213 2.334-5.213 5.213s2.334 5.213 5.213 5.213c0.079 0 0.157-0.002 0.236-0.005l-0.011 0h9.146v8.333h-9.146c-0.067-0.003-0.146-0.005-0.224-0.005-2.879 0-5.213 2.334-5.213 5.213s2.334 5.213 5.213 5.213c0.079 0 0.157-0.002 0.236-0.005l-0.011 0h9.146v10.271c0.001 1.231 0.999 2.228 2.229 2.229h10.271v7.063c-0.003 0.067-0.005 0.146-0.005 0.224 0 2.879 2.334 5.213 5.213 5.213s5.213-2.334 5.213-5.213c0-0.079-0.002-0.157-0.005-0.236l0 0.011v-7.063h8.333v7.063c-0.003 0.067-0.005 0.146-0.005 0.224 0 2.879 2.334 5.213 5.213 5.213s5.213-2.334 5.213-5.213c0-0.079-0.002-0.157-0.005-0.236l0 0.011v-7.063h8.333v7.063c-0.003 0.067-0.005 0.146-0.005 0.224 0 2.879 2.334 5.213 5.213 5.213s5.213-2.334 5.213-5.213c0-0.079-0.002-0.157-0.005-0.236l0 0.011v-7.063h10.271c1.231-0.001 2.228-0.999 2.229-2.229v-10.271h7.063c0.067 0.003 0.146 0.005 0.224 0.005 2.879 0 5.213-2.334 5.213-5.213s-2.334-5.213-5.213-5.213c-0.079 0-0.157 0.002-0.236 0.005l0.011-0h-7.063v-8.333zM75 64.583v9.083c-0.005 0.734-0.599 1.328-1.333 1.333h-45.25c-0.734-0.005-1.328-0.599-1.333-1.333v-45.25c0.005-0.734 0.599-1.328 1.333-1.333h45.25c0.734 0.005 1.328 0.599 1.333 1.333v36.167z"></path>
</svg>
