
<svg version="1.1" xmlns="http://www.w3.org/2000/svg" width="100" height="100" viewBox="0 0 100 100">
<title>infrastructure</title>
<path fill="param(fill) #000" stroke="param(outline) #000" stroke-width="param(outline-width) 1" d="M54.167 0v100h45.833v-100zM81.25 87.5c0 2.301-1.866 4.167-4.167 4.167s-4.167-1.866-4.167-4.167v0-12.5c0.007-2.298 1.868-4.16 4.166-4.167h0.001c2.294 0.017 4.15 1.872 4.167 4.165v0.002zM81.25 56.25c0 2.301-1.866 4.167-4.167 4.167s-4.167-1.866-4.167-4.167v0-12.5c0.007-2.298 1.868-4.16 4.166-4.167h0.001c2.294 0.017 4.15 1.872 4.167 4.165v0.002zM81.25 25c0 2.301-1.866 4.167-4.167 4.167s-4.167-1.866-4.167-4.167v0-12.5c0.007-2.298 1.868-4.16 4.166-4.167h0.001c2.294 0.017 4.15 1.872 4.167 4.165v0.002z"></path>
<path fill="param(fill) #000" stroke="param(outline) #000" stroke-width="param(outline-width) 1" d="M0 66.667c9.78 0 18.75 6.887 18.75 16.667v16.667h12.5v-16.667c0-9.78 8.97-16.667 18.75-16.667v-16.667h-50z"></path>
</svg>
