
<svg version="1.1" xmlns="http://www.w3.org/2000/svg" width="58" height="100" viewBox="0 0 58 100">
<title>injured</title>
<path fill="param(fill) #000" stroke="param(outline) #000" stroke-width="param(outline-width) 1" d="M17.646 86.521c-1.891-1.867-3.063-4.459-3.063-7.324 0-0.011 0-0.021 0-0.032v0.002c0.002-5.752 4.665-10.415 10.416-10.417h8.417c0.004 0 0.008 0 0.012 0 0.246 0 0.487 0.023 0.72 0.066l-0.024-0.004 5.458-31.312h-27.083c-6.901 0.006-12.494 5.599-12.5 12.499v41.667c0 0.001 0 0.001 0 0.002 0 4.601 3.73 8.331 8.331 8.331 0.001 0 0.002 0 0.002 0h29.167c0.001 0 0.001 0 0.002 0 4.601 0 8.331-3.73 8.331-8.331 0-0.001 0-0.002 0-0.002v0-2.083h-20.833c-0.009 0-0.020 0-0.030 0-2.866 0-5.457-1.171-7.323-3.061l-0.001-0.001z"></path>
<path fill="param(fill) #000" stroke="param(outline) #000" stroke-width="param(outline-width) 1" d="M18.75 79.167c0.005 3.45 2.8 6.245 6.25 6.25h6.25l2.167-12.5h-8.417c-0.002 0-0.005 0-0.008 0-3.447 0-6.242 2.795-6.242 6.242 0 0.003 0 0.006 0 0.009v-0z"></path>
<path fill="param(fill) #000" stroke="param(outline) #000" stroke-width="param(outline-width) 1" d="M50.021 37.5l-0.021 35.417v12.5h2.083c0.002 0 0.005 0 0.008 0 3.447 0 6.242-2.795 6.242-6.242 0-0.003 0-0.006 0-0.009v0-33.333c0-0.002 0-0.004 0-0.007 0-4.594-3.72-8.319-8.312-8.327h-0.001z"></path>
<path fill="param(fill) #000" stroke="param(outline) #000" stroke-width="param(outline-width) 1" d="M43.75 14.583c0 8.054-6.529 14.583-14.583 14.583s-14.583-6.529-14.583-14.583c0-8.054 6.529-14.583 14.583-14.583s14.583 6.529 14.583 14.583z"></path>
</svg>
