
<svg version="1.1" xmlns="http://www.w3.org/2000/svg" width="100" height="100" viewBox="0 0 100 100">
<title>innovation</title>
<path fill="param(fill) #000" stroke="param(outline) #000" stroke-width="param(outline-width) 1" d="M57.291 83.333h-14.583c-1.726 0-3.125 1.399-3.125 3.125s1.399 3.125 3.125 3.125v0h14.583c1.726 0 3.125-1.399 3.125-3.125s-1.399-3.125-3.125-3.125v0z"></path>
<path fill="param(fill) #000" stroke="param(outline) #000" stroke-width="param(outline-width) 1" d="M50 29.167c-0.003 0-0.007 0-0.011 0-12.65 0-22.906 10.255-22.906 22.906 0 8.853 5.022 16.532 12.372 20.346l0.127 0.060v4.605c0 1.151 0.933 2.083 2.083 2.083v0h16.667c1.151 0 2.083-0.933 2.083-2.083v0-4.605c7.478-3.873 12.5-11.553 12.5-20.406 0-12.65-10.255-22.906-22.906-22.906-0.004 0-0.008 0-0.011 0h0.001z"></path>
<path fill="param(fill) #000" stroke="param(outline) #000" stroke-width="param(outline-width) 1" d="M50 20.833c2.301 0 4.167-1.865 4.167-4.167v0-12.5c0-2.301-1.865-4.167-4.167-4.167s-4.167 1.865-4.167 4.167v0 12.5c0 2.301 1.865 4.167 4.167 4.167v0z"></path>
<path fill="param(fill) #000" stroke="param(outline) #000" stroke-width="param(outline-width) 1" d="M16.667 45.833h-12.5c-2.301 0-4.167 1.865-4.167 4.167s1.865 4.167 4.167 4.167v0h12.5c2.301 0 4.167-1.865 4.167-4.167s-1.865-4.167-4.167-4.167v0z"></path>
<path fill="param(fill) #000" stroke="param(outline) #000" stroke-width="param(outline-width) 1" d="M95.833 45.833h-12.5c-2.301 0-4.167 1.865-4.167 4.167s1.865 4.167 4.167 4.167v0h12.5c2.301 0 4.167-1.865 4.167-4.167s-1.865-4.167-4.167-4.167v0z"></path>
<path fill="param(fill) #000" stroke="param(outline) #000" stroke-width="param(outline-width) 1" d="M29.053 22.357l-7.898-9.689c-0.77-0.937-1.929-1.53-3.226-1.53-2.301 0-4.167 1.865-4.167 4.167 0 1 0.352 1.918 0.94 2.636l-0.006-0.007 7.898 9.689c0.77 0.935 1.928 1.527 3.224 1.527 2.301 0 4.167-1.865 4.167-4.167 0-0.999-0.351-1.916-0.937-2.633l0.006 0.008z"></path>
<path fill="param(fill) #000" stroke="param(outline) #000" stroke-width="param(outline-width) 1" d="M84.706 12.072c-0.711-0.583-1.631-0.937-2.633-0.937-1.299 0-2.46 0.595-3.224 1.527l-0.006 0.007-7.898 9.689c-0.58 0.71-0.931 1.627-0.931 2.626 0 2.301 1.865 4.167 4.167 4.167 1.296 0 2.454-0.592 3.218-1.52l0.006-0.007 7.898-9.689c0.583-0.711 0.937-1.631 0.937-2.633 0-1.299-0.595-2.46-1.527-3.224l-0.007-0.006z"></path>
<path fill="param(fill) #000" stroke="param(outline) #000" stroke-width="param(outline-width) 1" d="M56.25 93.75h-12.5c-1.151 0-2.083 0.933-2.083 2.083v0c0 2.301 1.865 4.167 4.167 4.167v0h8.333c2.301 0 4.167-1.865 4.167-4.167v0c0-1.151-0.933-2.083-2.083-2.083v0z"></path>
</svg>
