
<svg version="1.1" xmlns="http://www.w3.org/2000/svg" width="100" height="100" viewBox="0 0 100 100">
<title>insect-infestation</title>
<path fill="param(fill) #000" stroke="param(outline) #000" stroke-width="param(outline-width) 1" d="M41.148 43.968l2.723 9.969c0.374 1.338 1.582 2.302 3.016 2.302 1.727 0 3.126-1.4 3.126-3.126 0-0.293-0.040-0.577-0.116-0.846l0.005 0.022-3.126-11.438c-0.262-0.936-0.924-1.68-1.785-2.050l-0.020-0.008-9.546-4.008v-7.36l7.757-4.266c0.838-0.468 1.432-1.287 1.583-2.253l0.002-0.018 1.042-6.877c0.022-0.139 0.035-0.3 0.035-0.463 0-1.727-1.4-3.126-3.126-3.126-1.56 0-2.853 1.142-3.088 2.636l-0.002 0.018-0.81 5.35-4.298 2.364c-0.569-1.265-1.332-2.342-2.263-3.248l-0.002-0.002 6.964-12.933c0.235-0.428 0.374-0.939 0.374-1.481 0-1.726-1.399-3.125-3.125-3.125-1.183 0-2.213 0.658-2.743 1.627l-0.008 0.016-7.059 13.109c-0.489-0.094-1.058-0.154-1.639-0.166l-0.011-0c-0.592 0.012-1.162 0.072-1.716 0.177l0.064-0.010-7.059-13.109c-0.539-0.986-1.568-1.643-2.751-1.643-1.726 0-3.125 1.399-3.125 3.125 0 0.543 0.138 1.053 0.382 1.498l-0.008-0.016 6.964 12.934c-0.933 0.908-1.696 1.986-2.238 3.184l-0.027 0.066-4.298-2.364-0.81-5.35c-0.238-1.511-1.531-2.654-3.090-2.654-1.727 0-3.126 1.4-3.126 3.126 0 0.164 0.013 0.324 0.037 0.481l-0.002-0.017 1.042 6.877c0.154 0.984 0.747 1.803 1.569 2.263l0.016 0.008 7.758 4.266v7.358l-9.547 4.009c-0.881 0.377-1.543 1.121-1.8 2.035l-0.005 0.022-3.126 11.438c-0.070 0.247-0.111 0.531-0.111 0.824 0 1.727 1.4 3.126 3.126 3.126 1.433 0 2.642-0.965 3.011-2.28l0.005-0.022 2.723-9.969 5.723-2.403v0.111c0 5.754 4.665 10.419 10.419 10.419s10.419-4.665 10.419-10.419v0-0.11z"></path>
<path fill="param(fill) #000" stroke="param(outline) #000" stroke-width="param(outline-width) 1" d="M98.831 58.059c-0.53-0.426-1.21-0.684-1.951-0.684-0.986 0-1.865 0.456-2.438 1.169l-0.005 0.006-3.378 4.228-4.903-0.101c0.037-0.332 0.059-0.716 0.059-1.106 0-1.011-0.144-1.989-0.413-2.914l0.018 0.074 12.498-7.719c0.893-0.561 1.478-1.54 1.478-2.656 0-1.726-1.4-3.126-3.126-3.126-0.605 0-1.171 0.172-1.649 0.47l0.013-0.008-12.668 7.824c-0.802-0.712-1.755-1.275-2.802-1.634l-0.058-0.017 0.443-14.882c0.001-0.033 0.002-0.071 0.002-0.109 0-1.726-1.399-3.125-3.125-3.125-1.699 0-3.082 1.356-3.124 3.045l-0 0.004-0.437 14.683c-1.368 0.352-2.566 0.931-3.615 1.702l0.029-0.020-2.54-4.196 1.972-5.039c0.136-0.338 0.215-0.729 0.215-1.14 0-1.726-1.399-3.125-3.125-3.125-1.316 0-2.442 0.813-2.903 1.965l-0.007 0.021-2.536 6.476c-0.137 0.338-0.216 0.73-0.216 1.141 0 0.598 0.168 1.157 0.46 1.631l-0.008-0.014 4.585 7.574-3.679 6.372-10.271-1.3c-0.118-0.016-0.254-0.025-0.392-0.025-0.858 0-1.636 0.346-2.201 0.906l0-0-8.437 8.363c-0.575 0.567-0.931 1.355-0.931 2.225 0 1.726 1.399 3.125 3.125 3.125 0.861 0 1.64-0.348 2.205-0.911l-0 0 7.356-7.29 6.154 0.779-0.055 0.096c-0.878 1.494-1.396 3.291-1.396 5.209 0 3.836 2.073 7.188 5.16 8.997l0.049 0.027v0c1.494 0.878 3.291 1.396 5.209 1.396 3.836 0 7.188-2.073 8.997-5.16l0.027-0.049 0.055-0.096 3.751 4.941-2.633 10.016c-0.066 0.24-0.104 0.516-0.104 0.8 0 1.726 1.399 3.125 3.125 3.125 1.445 0 2.661-0.981 3.018-2.313l0.005-0.022 3.022-11.488c0.066-0.239 0.104-0.514 0.104-0.797 0-0.713-0.239-1.37-0.642-1.896l0.005 0.007-6.261-8.245 3.679-6.372 8.916 0.185c0.986-0 1.864-0.457 2.437-1.169l0.005-0.006 4.341-5.434c0.426-0.53 0.684-1.21 0.684-1.951 0-0.985-0.456-1.864-1.168-2.437l-0.006-0.005z"></path>
</svg>
