
<svg version="1.1" xmlns="http://www.w3.org/2000/svg" width="112" height="100" viewBox="0 0 112 100">
<title>internally-displaced</title>
<path fill="param(fill) #000" stroke="param(outline) #000" stroke-width="param(outline-width) 1" d="M110.6 47.434l-16.162-16.162c-0.653-0.653-1.556-1.058-2.553-1.058-1.994 0-3.611 1.617-3.611 3.611 0 0.997 0.404 1.9 1.058 2.553l10.119 10.119h-30.827c-1.927 0-3.489 1.562-3.489 3.489s1.562 3.489 3.489 3.489v0h30.828l-10.12 10.119c-0.654 0.654-1.058 1.556-1.058 2.553 0 1.994 1.617 3.611 3.611 3.611 0.997 0 1.9-0.404 2.553-1.058l16.162-16.161c0.654-0.653 1.058-1.556 1.058-2.553s-0.404-1.9-1.058-2.553v0z"></path>
<path fill="param(fill) #000" stroke="param(outline) #000" stroke-width="param(outline-width) 1" d="M69.317 6.398c-1.26-3.746-4.74-6.395-8.838-6.395-5.139 0-9.305 4.166-9.305 9.305s4.166 9.305 9.305 9.305c1.041 0 2.041-0.171 2.975-0.486l-0.066 0.019c3.745-1.26 6.395-4.74 6.395-8.838 0-1.040-0.171-2.041-0.486-2.975l0.019 0.066z"></path>
<path fill="param(fill) #000" stroke="param(outline) #000" stroke-width="param(outline-width) 1" d="M48.233 54.668l9.145-18.12c0.763-1.48 1.211-3.231 1.211-5.086 0-4.38-2.494-8.177-6.139-10.049l-0.063-0.030-5.947-3.001c-0.284-0.144-0.615-0.266-0.961-0.349l-0.031-0.006c-3.897-1.751-8.447-2.772-13.236-2.772-12.713 0-23.746 7.192-29.253 17.729l-0.087 0.182c-0.332 0.636-0.526 1.389-0.526 2.187 0 2.657 2.154 4.81 4.81 4.81 1.855 0 3.465-1.050 4.267-2.588l0.013-0.027c3.964-7.593 11.78-12.687 20.786-12.687 1.034 0 2.053 0.067 3.052 0.197l-0.118-0.012-34.626 67.891c-0.335 0.642-0.531 1.402-0.531 2.208 0 2.682 2.174 4.855 4.855 4.855 1.877 0 3.506-1.066 4.314-2.625l0.013-0.027 21.033-41.241 10.411 5.254c7.381 4.081 12.296 11.82 12.296 20.706 0 3.959-0.976 7.69-2.7 10.966l0.062-0.129c-0.347 0.651-0.55 1.424-0.55 2.245 0 2.681 2.173 4.854 4.854 4.854 1.867 0 3.487-1.053 4.299-2.598l0.013-0.027c2.346-4.443 3.723-9.712 3.723-15.302 0-11.321-5.649-21.323-14.282-27.34l-0.109-0.072z"></path>
</svg>
