
<svg version="1.1" xmlns="http://www.w3.org/2000/svg" width="109" height="100" viewBox="0 0 109 100">
<title>internet</title>
<path fill="param(fill) #000" stroke="param(outline) #000" stroke-width="param(outline-width) 1" d="M31.99 58.408c-1.499 1.259-2.445 3.134-2.445 5.231 0 3.765 3.052 6.817 6.817 6.817 1.669 0 3.197-0.6 4.382-1.595l-0.010 0.009c3.651-3.264 8.497-5.26 13.808-5.26s10.157 1.995 13.828 5.277l-0.020-0.018c1.175 0.987 2.703 1.587 4.372 1.587 3.765 0 6.817-3.052 6.817-6.817 0-2.096-0.946-3.972-2.435-5.222l-0.010-0.009c-5.995-5.252-13.9-8.455-22.552-8.455s-16.557 3.204-22.592 8.489l0.040-0.034z"></path>
<path fill="param(fill) #000" stroke="param(outline) #000" stroke-width="param(outline-width) 1" d="M106.331 17.261c-14.247-10.776-32.261-17.261-51.789-17.261s-37.543 6.485-52.007 17.418l0.217-0.157c-1.678 1.256-2.752 3.239-2.752 5.473 0 3.765 3.052 6.818 6.818 6.818 1.532 0 2.945-0.505 4.083-1.358l-0.018 0.013c12.010-9.084 27.195-14.551 43.658-14.551s31.648 5.467 43.841 14.683l-0.183-0.133c1.121 0.84 2.534 1.345 4.066 1.345 3.765 0 6.818-3.052 6.818-6.818 0-2.234-1.074-4.217-2.734-5.46l-0.018-0.013z"></path>
<path fill="param(fill) #000" stroke="param(outline) #000" stroke-width="param(outline-width) 1" d="M13.809 40.243c-1.498 1.258-2.443 3.131-2.443 5.226 0 3.761 3.049 6.81 6.81 6.81 1.672 0 3.203-0.602 4.388-1.602l-0.010 0.008c8.509-7.437 19.719-11.972 31.989-11.972s23.48 4.535 32.046 12.021l-0.057-0.049c1.175 0.991 2.706 1.593 4.378 1.593 3.761 0 6.81-3.049 6.81-6.81 0-2.094-0.946-3.968-2.433-5.217l-0.010-0.009c-10.835-9.47-25.109-15.245-40.733-15.245s-29.898 5.775-40.806 15.307l0.073-0.062z"></path>
<path fill="param(fill) #000" stroke="param(outline) #000" stroke-width="param(outline-width) 1" d="M65.905 88.637c0 6.275-5.087 11.363-11.363 11.363s-11.363-5.087-11.363-11.363c0-6.275 5.087-11.363 11.363-11.363s11.363 5.087 11.363 11.363z"></path>
</svg>
