
<svg version="1.1" xmlns="http://www.w3.org/2000/svg" width="100" height="100" viewBox="0 0 100 100">
<title>laboratory</title>
<path fill="param(fill) #000" stroke="param(outline) #000" stroke-width="param(outline-width) 1" d="M95.574 100h-61.982c0 0 0 0 0 0-2.301 0-4.167-1.866-4.167-4.167 0-0.767 0.207-1.486 0.569-2.103l-0.011 0.020 26.266-45.495v-2.422h6.25c1.151 0 2.083-0.933 2.083-2.083s-0.933-2.083-2.083-2.083v0h-6.25v-6.25h6.25c1.151 0 2.083-0.933 2.083-2.083s-0.933-2.083-2.083-2.083v0h-6.25v-6.25h6.25c1.151 0 2.083-0.933 2.083-2.083s-0.933-2.083-2.083-2.083v0h-6.25v-4.167l-3.862-3.862c-0.188-0.188-0.305-0.449-0.305-0.736v0-2.694c0-0 0-0 0-0 0-0.575 0.466-1.041 1.041-1.041 0 0 0 0 0 0h22.917c0 0 0 0 0 0 0.575 0 1.041 0.466 1.041 1.041 0 0 0 0 0 0v0 2.694c-0 0.288-0.117 0.548-0.305 0.737l-3.862 3.861v31.589l26.266 45.495c0.351 0.598 0.558 1.316 0.558 2.083 0 2.301-1.866 4.167-4.167 4.167 0 0 0 0 0 0v0zM23.958 0h-22.917c-0 0-0 0-0 0-0.575 0-1.041 0.466-1.041 1.041 0 0 0 0 0 0v0 2.694c0 0.288 0.117 0.548 0.305 0.737l3.862 3.861v4.167h6.25c1.151 0 2.083 0.933 2.083 2.083s-0.933 2.083-2.083 2.083v0h-6.25v6.25h6.25c1.151 0 2.083 0.933 2.083 2.083s-0.933 2.083-2.083 2.083v0h-6.25v6.25h6.25c1.151 0 2.083 0.933 2.083 2.083s-0.933 2.083-2.083 2.083v0h-6.25v6.25h6.25c1.151 0 2.083 0.933 2.083 2.083s-0.933 2.083-2.083 2.083v0h-6.25v6.25h6.25c1.151 0 2.083 0.933 2.083 2.083s-0.933 2.083-2.083 2.083v0h-6.25v6.25h6.25c1.151 0 2.083 0.933 2.083 2.083s-0.933 2.083-2.083 2.083v0h-6.25v6.25c0 4.602 3.731 8.333 8.333 8.333s8.333-3.731 8.333-8.333v0-66.667l3.862-3.862c0.188-0.188 0.305-0.449 0.305-0.736v0-2.694c0-0 0-0 0-0 0-0.575-0.466-1.041-1.041-1.041-0 0-0 0-0 0v0z"></path>
</svg>
