
<svg version="1.1" xmlns="http://www.w3.org/2000/svg" width="145" height="100" viewBox="0 0 145 100">
<title>laptop</title>
<path fill="param(fill) #000" stroke="param(outline) #000" stroke-width="param(outline-width) 1" d="M142.424 81.818h-48.485c-0.024 3.337-2.723 6.036-6.058 6.061h-30.305c-3.343-0.010-6.051-2.717-6.061-6.060v-0.001h-48.485c-1.671 0.005-3.025 1.359-3.030 3.030v12.122c0.005 1.671 1.359 3.025 3.030 3.030h139.394c1.671-0.005 3.025-1.359 3.030-3.030v-12.122c-0.005-1.671-1.359-3.025-3.030-3.030h-0z"></path>
<path fill="param(fill) #000" stroke="param(outline) #000" stroke-width="param(outline-width) 1" d="M21.212 72.727h3.030v-57.576h96.97v57.576h15.152v-66.667c0-0.004 0-0.009 0-0.014 0-0.845-0.175-1.65-0.49-2.379l0.015 0.039c-0.629-1.461-1.769-2.602-3.19-3.216l-0.039-0.015c-0.691-0.3-1.496-0.475-2.342-0.475-0.005 0-0.010 0-0.015 0h-115.151c-3.347 0-6.061 2.713-6.061 6.061v0 66.667h12.121z"></path>
</svg>
