
<svg version="1.1" xmlns="http://www.w3.org/2000/svg" width="150" height="100" viewBox="0 0 150 100">
<title>leadership</title>
<path fill="param(fill) #000" stroke="param(outline) #000" stroke-width="param(outline-width) 1" d="M38.063 55.75c0.812-4.526 2.348-8.566 4.499-12.2l-0.092 0.169c1.231-2.141 2.554-3.992 4.037-5.7l-0.037 0.044c0.541-0.657 1.082-1.248 1.653-1.809l0.003-0.003c-4.742-3.134-10.56-5-16.815-5-0.032 0-0.064 0-0.096 0h0.005c-17.242 0.002-31.219 13.979-31.219 31.221 0 11.488 6.205 21.528 15.447 26.949l0.147 0.080v4.25c0.010 3.448 2.802 6.24 6.249 6.25h18.751c0 0 0.001 0 0.002 0 3.451 0 6.248-2.797 6.248-6.248 0-0.001 0-0.001 0-0.002v0-6.5c-1.594-1.765-3.031-3.729-4.254-5.833l-0.089-0.167c-3.172-5.385-5.045-11.862-5.045-18.778 0-2.376 0.221-4.701 0.644-6.954l-0.036 0.232zM9.313 62.5c0-0.004 0-0.010 0-0.015 0-5.984 2.398-11.408 6.284-15.363l-0.003 0.003v30.75c-3.884-3.952-6.281-9.376-6.281-15.36 0-0.005 0-0.010 0-0.016v0.001z"></path>
<path fill="param(fill) #000" stroke="param(outline) #000" stroke-width="param(outline-width) 1" d="M43.734 12.5c0 6.904-5.596 12.5-12.5 12.5s-12.5-5.596-12.5-12.5c0-6.904 5.596-12.5 12.5-12.5s12.5 5.596 12.5 12.5z"></path>
<path fill="param(fill) #000" stroke="param(outline) #000" stroke-width="param(outline-width) 1" d="M131.218 12.5c0 6.904-5.596 12.5-12.5 12.5s-12.5-5.596-12.5-12.5c0-6.904 5.596-12.5 12.5-12.5s12.5 5.596 12.5 12.5z"></path>
<path fill="param(fill) #000" stroke="param(outline) #000" stroke-width="param(outline-width) 1" d="M118.719 31.25c-0.025-0-0.054-0-0.083-0-6.293 0-12.147 1.878-17.033 5.103l0.116-0.072c0.591 0.592 1.153 1.213 1.683 1.862l0.035 0.045c1.424 1.639 2.736 3.458 3.875 5.391l0.093 0.171c3.163 5.372 5.031 11.835 5.031 18.734s-1.868 13.362-5.127 18.91l0.095-0.176c-1.334 2.256-2.758 4.208-4.349 6.011l0.036-0.042v6.563c0.010 3.448 2.802 6.24 6.249 6.25h18.751c3.448-0.010 6.24-2.802 6.25-6.249v-4.251c9.389-5.501 15.594-15.54 15.594-27.029 0-17.242-13.977-31.22-31.219-31.221h-0zM134.344 77.875v-30.75c3.884 3.958 6.281 9.387 6.281 15.375s-2.397 11.417-6.285 15.378l0.003-0.003z"></path>
<path fill="param(fill) #000" stroke="param(outline) #000" stroke-width="param(outline-width) 1" d="M87.469 12.5c0 6.904-5.596 12.5-12.5 12.5s-12.5-5.596-12.5-12.5c0-6.904 5.596-12.5 12.5-12.5s12.5 5.596 12.5 12.5z"></path>
<path fill="param(fill) #000" stroke="param(outline) #000" stroke-width="param(outline-width) 1" d="M106.187 62.5c0-0.028 0-0.061 0-0.094 0-4.89-1.142-9.513-3.174-13.617l0.080 0.179c-0.188-0.406-0.375-0.781-0.594-1.188-1.577-2.898-3.458-5.387-5.654-7.56l-0.003-0.003c-5.615-5.544-13.335-8.969-21.854-8.969-0.007 0-0.015 0-0.022 0h0.001c-2.094 0.010-4.136 0.203-6.119 0.563l0.213-0.032c-6.301 1.202-11.765 4.188-16.001 8.407l0.001-0.001c-2.225 2.16-4.11 4.653-5.578 7.402l-0.078 0.161c-0.187 0.311-0.375 0.681-0.539 1.064l-0.023 0.061c-1.173 2.304-2.085 4.977-2.598 7.788l-0.027 0.18c-0.319 1.679-0.502 3.609-0.502 5.583 0 4.961 1.154 9.652 3.209 13.819l-0.082-0.183c0.188 0.375 0.375 0.781 0.594 1.156 2.809 5.158 6.858 9.327 11.759 12.201l0.147 0.080v1.438c0 0.094 0.031 0.187 0.031 0.281s-0.031 0.156-0.031 0.25v2.281c0.010 3.448 2.802 6.24 6.249 6.25h18.751c3.448-0.010 6.24-2.802 6.25-6.249v-2.282c0-0.094-0.031-0.156-0.031-0.25s0.031-0.188 0.031-0.281v-1.438c2.375-1.381 4.426-2.954 6.254-4.754l-0.004 0.004c2.206-2.171 4.089-4.661 5.575-7.398l0.082-0.165c0.219-0.375 0.406-0.781 0.594-1.188 1.952-3.922 3.094-8.542 3.094-13.429 0-0.025 0-0.050-0-0.075v0.004zM59.344 77.844c-0.201-0.191-0.385-0.395-0.553-0.613l-0.009-0.012c-3.329-3.575-5.449-8.316-5.686-13.548l-0.002-0.046c0.040-0.338 0.063-0.729 0.063-1.125s-0.023-0.787-0.067-1.172l0.004 0.047c0.238-5.288 2.358-10.038 5.7-13.639l-0.012 0.014c0.156-0.219 0.375-0.406 0.562-0.625v30.719zM91.156 77.188c-0.177 0.243-0.361 0.458-0.562 0.656l-0 0v-30.688c0.201 0.191 0.385 0.395 0.553 0.613l0.009 0.012c3.371 3.651 5.491 8.5 5.656 13.842l0.001 0.033c-0.020 0.253-0.031 0.547-0.031 0.844s0.011 0.591 0.034 0.882l-0.002-0.039c-0.172 5.364-2.291 10.201-5.67 13.858l0.013-0.014z"></path>
</svg>
