
<svg version="1.1" xmlns="http://www.w3.org/2000/svg" width="100" height="100" viewBox="0 0 100 100">
<title>learning</title>
<path fill="param(fill) #000" stroke="param(outline) #000" stroke-width="param(outline-width) 1" d="M29.167 56.25c0-0.001 0-0.001 0-0.002 0-4.601 3.73-8.331 8.331-8.331 0.001 0 0.002 0 0.002 0h12.5v-45.833c-0.003-1.149-0.934-2.080-2.083-2.083h-45.834c-1.149 0.003-2.080 0.934-2.083 2.083v60.417c0.003 1.149 0.934 2.080 2.083 2.083h27.084zM20.833 12.5h20.833c1.151 0 2.083 0.933 2.083 2.083s-0.933 2.083-2.083 2.083v0h-20.833c-1.151 0-2.083-0.933-2.083-2.083s0.933-2.083 2.083-2.083v0zM12.5 58.333h-6.25v-52.083h6.25zM18.75 27.083c0.003-1.149 0.934-2.080 2.083-2.083h20.834c1.151 0 2.083 0.933 2.083 2.083s-0.933 2.083-2.083 2.083v0h-20.833c-1.149-0.003-2.080-0.934-2.083-2.083v-0z"></path>
<path fill="param(fill) #000" stroke="param(outline) #000" stroke-width="param(outline-width) 1" d="M37.5 52.083c-2.298 0.007-4.16 1.868-4.167 4.166v31.251h8.333v-27.083h45.833v27.083h8.333v-31.25c-0.007-2.298-1.868-4.16-4.166-4.167h-54.167z"></path>
<path fill="param(fill) #000" stroke="param(outline) #000" stroke-width="param(outline-width) 1" d="M97.917 91.667h-22.917c-0.003 1.149-0.934 2.080-2.083 2.083h-16.667c-1.149-0.003-2.080-0.934-2.083-2.083v-0h-22.917c-1.149 0.003-2.080 0.934-2.083 2.083v4.167c0.003 1.149 0.934 2.080 2.083 2.083h66.667c1.149-0.003 2.080-0.934 2.083-2.083v-4.167c-0.003-1.149-0.934-2.080-2.083-2.083h-0z"></path>
</svg>
