
<svg version="1.1" xmlns="http://www.w3.org/2000/svg" width="135" height="100" viewBox="0 0 135 100">
<title>livestock</title>
<path fill="param(fill) #000" stroke="param(outline) #000" stroke-width="param(outline-width) 1" d="M131.080 29.927l-17.521-13.646 3.67-3.67c1.337-1.337 2.164-3.184 2.164-5.224 0-4.080-3.307-7.387-7.387-7.387-2.040 0-3.887 0.827-5.224 2.164l-5.962 5.962-1.022-1.022c-1.338-1.341-3.187-2.17-5.23-2.17-4.080 0-7.387 3.307-7.387 7.387 0 2.043 0.829 3.892 2.17 5.23l1.022 1.022-2.847 2.847h-72.101c-8.515 0.011-15.414 6.911-15.424 15.425v25.642c0 3.1 2.513 5.613 5.613 5.613s5.613-2.513 5.613-5.613v0-25.642c0.002-2.318 1.88-4.197 4.198-4.2l1.414 0.001v58.934c0 4.65 3.769 8.419 8.419 8.419s8.419-3.769 8.419-8.419v0-16.839h5.035c5.94 6.89 14.68 11.226 24.432 11.226s18.492-4.335 24.397-11.184l0.035-0.042h5.035v16.839c0 4.65 3.769 8.419 8.419 8.419s8.419-3.769 8.419-8.419v0-44.903h15.876c5.171 0 9.363-4.192 9.363-9.364 0-2.993-1.404-5.658-3.59-7.372l-0.020-0.015z"></path>
</svg>
