
<svg version="1.1" xmlns="http://www.w3.org/2000/svg" width="92" height="100" viewBox="0 0 92 100">
<title>livelihood</title>
<path fill="param(fill) #000" stroke="param(outline) #000" stroke-width="param(outline-width) 1" d="M90.167 51.939h-75.853c-0.983 0.009-1.776 0.808-1.776 1.793 0 0.002 0 0.003 0 0.005v-0 4.472h71.151c0.004 0 0.009-0 0.014-0 1.089 0 1.971 0.882 1.971 1.971 0 0.005 0 0.010-0 0.015v-0.001 29.359h4.493c0 0 0.001 0 0.001 0 0.98 0 1.775-0.795 1.775-1.775 0-0 0-0.001 0-0.002v0-34.040c0-0.001 0-0.003 0-0.004 0-0.984-0.793-1.783-1.775-1.793h-0.001z"></path>
<path fill="param(fill) #000" stroke="param(outline) #000" stroke-width="param(outline-width) 1" d="M79.719 62.387h-75.853c-0 0-0.001 0-0.001 0-0.98 0-1.775 0.795-1.775 1.775 0 0 0 0.001 0 0.002v-0 34.040c0 0.001 0 0.003 0 0.004 0 0.984 0.793 1.783 1.775 1.793h75.854c0.983-0.009 1.776-0.808 1.776-1.793 0-0.002 0-0.003 0-0.005v0-34.040c0-0 0-0.001 0-0.002 0-0.98-0.795-1.775-1.775-1.775-0 0-0.001 0-0.002 0h0zM14.627 85.373c-2.308 0-4.179-1.871-4.179-4.179s1.871-4.179 4.179-4.179c2.308 0 4.179 1.871 4.179 4.179v0c-0.007 2.305-1.874 4.172-4.179 4.179h-0.001zM41.792 93.731c-6.924 0-12.538-5.613-12.538-12.538s5.613-12.538 12.538-12.538c6.924 0 12.538 5.613 12.538 12.538v0c-0.006 6.922-5.616 12.532-12.537 12.538h-0.001zM68.957 85.373c-2.308 0-4.179-1.871-4.179-4.179s1.871-4.179 4.179-4.179c2.308 0 4.179 1.871 4.179 4.179v0c-0.007 2.305-1.874 4.172-4.179 4.179h-0.001z"></path>
<path fill="param(fill) #000" stroke="param(outline) #000" stroke-width="param(outline-width) 1" d="M39.47 25.241l-5.198-1.393c-0.811-0.226-1.742-0.356-2.704-0.356-4.809 0-8.858 3.248-10.075 7.671l-0.017 0.073-0.368 1.375 5.198 1.393c0.811 0.226 1.742 0.356 2.704 0.356 4.809 0 8.858-3.248 10.075-7.671l0.017-0.073z"></path>
<path fill="param(fill) #000" stroke="param(outline) #000" stroke-width="param(outline-width) 1" d="M38.308 37.22l5.198 1.393c0.811 0.226 1.742 0.356 2.704 0.356 4.809 0 8.858-3.248 10.075-7.671l0.017-0.073 0.368-1.375-5.198-1.393c-0.811-0.226-1.742-0.356-2.704-0.356-4.809 0-8.858 3.248-10.075 7.671l-0.017 0.073z"></path>
<path fill="param(fill) #000" stroke="param(outline) #000" stroke-width="param(outline-width) 1" d="M55.509 41.829l5.198 1.393c0.811 0.226 1.742 0.356 2.704 0.356 4.809 0 8.858-3.248 10.075-7.671l0.017-0.073 0.369-1.375-5.198-1.393c-0.811-0.226-1.742-0.356-2.704-0.356-4.809 0-8.858 3.248-10.075 7.671l-0.017 0.073z"></path>
<path fill="param(fill) #000" stroke="param(outline) #000" stroke-width="param(outline-width) 1" d="M35.808 18.114l5.198 1.393 0.368-1.375c0.226-0.811 0.356-1.742 0.356-2.704 0-4.809-3.248-8.858-7.671-10.075l-0.073-0.017-5.198-1.393-0.368 1.375c-0.226 0.811-0.356 1.742-0.356 2.704 0 4.809 3.248 8.858 7.671 10.075l0.073 0.017z"></path>
<path fill="param(fill) #000" stroke="param(outline) #000" stroke-width="param(outline-width) 1" d="M53.009 22.723l5.198 1.393 0.369-1.375c0.226-0.811 0.356-1.742 0.356-2.704 0-4.809-3.248-8.858-7.671-10.075l-0.073-0.017-5.198-1.393-0.368 1.375c-0.226 0.811-0.356 1.742-0.356 2.704 0 4.809 3.248 8.858 7.671 10.075l0.073 0.017z"></path>
<path fill="param(fill) #000" stroke="param(outline) #000" stroke-width="param(outline-width) 1" d="M70.21 27.332l5.198 1.393 0.368-1.375c0.226-0.811 0.356-1.742 0.356-2.704 0-4.808-3.248-8.858-7.67-10.075l-0.073-0.017-5.198-1.393-0.369 1.375c-0.226 0.811-0.356 1.742-0.356 2.704 0 4.808 3.248 8.858 7.67 10.075l0.073 0.017z"></path>
<path fill="param(fill) #000" stroke="param(outline) #000" stroke-width="param(outline-width) 1" d="M91.841 36.201c0.064-0.23 0.101-0.495 0.101-0.768 0-1.366-0.923-2.516-2.179-2.862l-0.021-0.005-10.512-2.817-1.536 5.734 10.512 2.817c0.23 0.064 0.495 0.101 0.768 0.101 1.366 0 2.516-0.923 2.862-2.179l0.005-0.021z"></path>
<path fill="param(fill) #000" stroke="param(outline) #000" stroke-width="param(outline-width) 1" d="M8.309 23.037c-0.23-0.064-0.495-0.101-0.768-0.101-1.639 0-2.968 1.329-2.968 2.968 0 1.366 0.923 2.516 2.179 2.862l0.021 0.005 7.645 2.049c0.232 0.065 0.498 0.103 0.773 0.103 1.639 0 2.968-1.329 2.968-2.968 0-1.368-0.925-2.52-2.184-2.863l-0.021-0.005z"></path>
<path fill="param(fill) #000" stroke="param(outline) #000" stroke-width="param(outline-width) 1" d="M12.918 5.836l7.645 2.048c0.23 0.064 0.495 0.101 0.768 0.101 1.639 0 2.968-1.329 2.968-2.968 0-1.366-0.923-2.516-2.179-2.862l-0.021-0.005-7.645-2.048c-0.229-0.063-0.492-0.1-0.763-0.1-1.639 0-2.968 1.329-2.968 2.968 0 1.364 0.92 2.513 2.174 2.861l0.021 0.005z"></path>
<path fill="param(fill) #000" stroke="param(outline) #000" stroke-width="param(outline-width) 1" d="M23.224 20.888c0.229 0.063 0.492 0.1 0.763 0.1 1.639 0 2.968-1.329 2.968-2.968 0-1.364-0.92-2.513-2.174-2.861l-0.021-0.005-21.024-5.633c-0.23-0.064-0.495-0.101-0.768-0.101-1.639 0-2.968 1.329-2.968 2.968 0 1.366 0.923 2.516 2.179 2.862l0.021 0.005z"></path>
</svg>
