
<svg version="1.1" xmlns="http://www.w3.org/2000/svg" width="67" height="100" viewBox="0 0 67 100">
<title>location</title>
<path fill="param(fill) #000" stroke="param(outline) #000" stroke-width="param(outline-width) 1" d="M33.426 0c-18.468 0-33.426 15.877-33.426 35.431 0 16.838 24.714 53.627 31.65 63.613 0.386 0.579 1.037 0.956 1.776 0.956s1.389-0.376 1.771-0.948l0.005-0.008c6.936-9.986 31.65-46.775 31.65-63.613 0-19.554-14.958-35.431-33.426-35.431zM33.426 49.867c-9.23 0-16.713-7.483-16.713-16.713s7.483-16.713 16.713-16.713c9.23 0 16.713 7.483 16.713 16.713v0c0 0.001 0 0.003 0 0.004 0 9.228-7.481 16.708-16.708 16.708-0.002 0-0.003 0-0.005 0h0z"></path>
</svg>
