
<svg version="1.1" xmlns="http://www.w3.org/2000/svg" width="100" height="100" viewBox="0 0 100 100">
<title>location-lockdown</title>
<path fill="param(fill) #000" stroke="param(outline) #000" stroke-width="param(outline-width) 1" d="M20.833 10.417c-3.45 0.004-6.246 2.8-6.25 6.25v0h12.5c-0.004-3.45-2.8-6.246-6.25-6.25h-0z"></path>
<path fill="param(fill) #000" stroke="param(outline) #000" stroke-width="param(outline-width) 1" d="M20.833 0c-11.506 0-20.833 9.327-20.833 20.833s9.327 20.833 20.833 20.833c11.506 0 20.833-9.327 20.833-20.833v0c-0.004-11.504-9.329-20.829-20.833-20.833h-0zM31.25 29.167c-0 2.301-1.866 4.167-4.167 4.167h-12.5c-2.301-0-4.167-1.866-4.167-4.167v0-12.5c0-5.753 4.664-10.417 10.417-10.417s10.417 4.664 10.417 10.417v0z"></path>
<path fill="param(fill) #000" stroke="param(outline) #000" stroke-width="param(outline-width) 1" d="M70.833 12.5c-16.108 0-29.167 13.881-29.167 31.005 0 14.725 21.568 46.922 27.61 55.653 0.337 0.51 0.908 0.842 1.557 0.842s1.22-0.332 1.552-0.835l0.004-0.007c6.042-8.731 27.61-40.928 27.61-55.653 0-17.123-13.058-31.005-29.167-31.005zM70.833 52.083c-6.904 0-12.5-5.596-12.5-12.5s5.596-12.5 12.5-12.5c6.904 0 12.5 5.596 12.5 12.5v0c-0 6.904-5.596 12.5-12.5 12.5v0z"></path>
<path fill="param(fill) #000" stroke="param(outline) #000" stroke-width="param(outline-width) 1" d="M18.75 20.833h4.167c1.151 0 2.083 0.933 2.083 2.083v4.167c0 1.151-0.933 2.083-2.083 2.083h-4.167c-1.151 0-2.083-0.933-2.083-2.083v-4.167c0-1.151 0.933-2.083 2.083-2.083z"></path>
</svg>
