
<svg version="1.1" xmlns="http://www.w3.org/2000/svg" width="126" height="100" viewBox="0 0 126 100">
<title>locust-infestation</title>
<path fill="param(fill) #000" stroke="param(outline) #000" stroke-width="param(outline-width) 1" d="M126.293 62.109c-0.98-34.51-29.189-62.111-63.845-62.111-0.185 0-0.371 0.001-0.555 0.002l0.028-0c-0.003 0-0.007 0-0.011 0-2.203 0-3.992 1.774-4.015 3.972v0.002c0.035 2.188 1.817 3.948 4.010 3.948 0.006 0 0.012 0 0.017 0h-0.001c0.103-0.001 0.225-0.001 0.347-0.001 26.972 0 49.498 19.033 54.881 44.4l0.065 0.367c-0.211 0-0.421-0.053-0.632-0.053h-5.29c-3.731 0.001-6.968 2.115-8.58 5.21l-0.025 0.054h-2.842l-17.106-16.896c-0.983-0.953-2.324-1.54-3.803-1.54s-2.82 0.587-3.804 1.541l0.001-0.001-6.711 6.632-6.737-6.632c-0.983-0.953-2.324-1.54-3.803-1.54s-2.82 0.587-3.804 1.541l0.001-0.001-17.080 16.896h-19.896c-5.087 0-9.211 4.124-9.211 9.211s4.124 9.211 9.211 9.211v0h1.237l-17.054 16.843c-0.785 0.735-1.275 1.777-1.275 2.934 0 0.72 0.19 1.396 0.522 1.981l-0.010-0.020c0.718 1.171 1.991 1.941 3.444 1.941 1.098 0 2.093-0.439 2.82-1.152l-0.001 0.001 22.817-22.528h4.606c-0 0.010-0 0.021-0 0.032 0 1.407 0.574 2.681 1.5 3.599l0 0-13.369 13.211c-0.794 0.726-1.29 1.767-1.29 2.923 0 2.185 1.771 3.957 3.957 3.957 1.11 0 2.114-0.457 2.833-1.194l0.001-0.001 17.501-17.264h20.291l-11.711 11.58c-0.794 0.726-1.29 1.767-1.29 2.923 0 2.185 1.771 3.957 3.957 3.957 1.11 0 2.114-0.457 2.833-1.194l0.001-0.001 12.948-12.764 12.896 12.738c0.732 0.728 1.741 1.178 2.856 1.178 1.101 0 2.1-0.439 2.83-1.152l-0.001 0.001c0.717-0.713 1.161-1.699 1.161-2.79 0-1.104-0.455-2.101-1.187-2.815l-0.001-0.001-11.817-11.659h12.396l17.449 17.238c0.732 0.728 1.741 1.178 2.856 1.178 1.101 0 2.1-0.439 2.83-1.152l-0.001 0.001c0.717-0.713 1.161-1.699 1.161-2.79 0-1.104-0.455-2.101-1.187-2.815l-0.001-0.001-11.817-11.659h13.79c0.006 0 0.013 0 0.020 0 5.367 0 9.717-4.35 9.717-9.717 0-0.007 0-0.014 0-0.021v0.001-9.474c0-0.105-0.026-0.184-0.026-0.263zM58.025 57.898h-9.764l9.632-9.501 4.869 4.816zM78.79 57.898l-4.737-4.684 4.895-4.816 9.632 9.501zM117.108 71.057c-2.18 0-3.948-1.767-3.948-3.948s1.767-3.948 3.948-3.948c2.18 0 3.948 1.767 3.948 3.948v0c0 0.002 0 0.003 0 0.005 0 2.177-1.765 3.942-3.942 3.942-0.002 0-0.004 0-0.006 0h0z"></path>
</svg>
