
<svg version="1.1" xmlns="http://www.w3.org/2000/svg" width="123" height="100" viewBox="0 0 123 100">
<title>logistics</title>
<path fill="param(fill) #000" stroke="param(outline) #000" stroke-width="param(outline-width) 1" d="M66.653 97.129c-0.034-0.186-0.082-0.349-0.145-0.506l0.006 0.017c-0.035-0.173-0.081-0.324-0.139-0.469l0.006 0.017c-0.069-0.101-0.137-0.188-0.211-0.271l0.002 0.003c-0.12-0.196-0.258-0.364-0.415-0.513l-0.001-0.001-0.021-0.026-9.369-7.748v-39.553l7.734 1.844v-17.564l-7.734-3.637v-21.051c-0.008-4.231-3.44-7.657-7.671-7.657s-7.663 3.427-7.671 7.657v21.047l-37.897 17.846c-1.027 0.439-1.856 1.177-2.397 2.104l-0.013 0.024c-0.079 0.104-0.148 0.222-0.201 0.348l-0.004 0.011c-0.049 0.088-0.093 0.19-0.125 0.297l-0.003 0.011c-0.074 0.125-0.128 0.272-0.153 0.429l-0.001 0.007c-0.145 0.443-0.229 0.953-0.229 1.482 0 0.393 0.046 0.775 0.133 1.141l-0.007-0.033c-0.026 0.026 0 0.051 0 0.077 0.031 0.173 0.084 0.328 0.158 0.471l-0.004-0.009c0.046 0.194 0.116 0.365 0.21 0.521l-0.005-0.008c0.437 0.962 1.145 1.737 2.028 2.244l0.024 0.013c0.104 0.079 0.222 0.148 0.348 0.201l0.011 0.004c0.088 0.049 0.19 0.093 0.297 0.125l0.011 0.003c0.125 0.074 0.272 0.128 0.429 0.153l0.007 0.001c0.443 0.146 0.953 0.231 1.482 0.231 0.002 0 0.004 0 0.006 0h-0c0.394-0.007 0.774-0.053 1.14-0.135l-0.037 0.007h0.077l34.718-8.179v39.543l-9.351 7.761c-0.152 0.146-0.285 0.31-0.397 0.489l-0.006 0.011c-0.076 0.085-0.148 0.177-0.214 0.274l-0.006 0.009c0.001-0.053-0.092 0.261-0.182 0.576l-0.088 0.364c0.005 0.119 0.016 0.232 0.035 0.342l-0.002-0.016c-0 0.012-0 0.026-0 0.040 0 0.223 0.029 0.439 0.083 0.644l-0.004-0.018 0.004 0.033c0.112 0.181 0.266 0.455 0.413 0.733l0.050 0.104 0.024 0.020c0.134 0.137 0.283 0.258 0.444 0.362l0.010 0.006c0.1 0.091 0.209 0.176 0.324 0.252l0.010 0.006c0.064 0.024 0.147 0.049 0.232 0.070l0.018 0.004c0.2 0.091 0.432 0.159 0.675 0.193l0.014 0.002c0.103-0.005 0.198-0.014 0.292-0.029l-0.015 0.002c0.019 0 0.041 0.001 0.064 0.001 0.231 0 0.455-0.031 0.667-0.088l-0.018 0.004 0.031-0.004 14.586-4.786 14.586 4.786c0.231 0.082 0.497 0.129 0.775 0.129 0.356 0 0.693-0.078 0.997-0.217l-0.015 0.006c0.097-0.042 0.175-0.083 0.251-0.127l-0.012 0.006c0.259-0.139 0.48-0.311 0.668-0.514l0.001-0.002c0.032-0.035 0.079-0.047 0.109-0.084 0.012-0.014 0.014-0.033 0.026-0.048 0.183-0.223 0.331-0.484 0.43-0.768l0.005-0.018 0.004-0.032c0.051-0.19 0.081-0.408 0.081-0.633 0-0.017-0-0.033-0-0.050v0.002c0.015-0.091 0.027-0.199 0.031-0.31l0-0.005z"></path>
<path fill="param(fill) #000" stroke="param(outline) #000" stroke-width="param(outline-width) 1" d="M77.46 42.513c1.55-0.699 3.348-1.189 5.235-1.379l0.073-0.006h0.026c0.512-0.066 1.104-0.103 1.705-0.103 0.041 0 0.081 0 0.121 0h23.071c0.003 0 0.006 0 0.010 0 5.022 0 9.56 2.071 12.807 5.406l0.004 0.004v-15.667c0-0.005 0-0.012 0-0.018 0-2.822-2.288-5.111-5.111-5.111-0.006 0-0.012 0-0.019 0h-38.461c-0.005 0-0.012 0-0.018 0-2.822 0-5.111 2.288-5.111 5.111 0 0.006 0 0.012 0 0.019v-0.001 15.667c1.44-1.491 3.138-2.721 5.023-3.622l0.105-0.045c0.145-0.082 0.322-0.168 0.504-0.244l0.034-0.012z"></path>
<path fill="param(fill) #000" stroke="param(outline) #000" stroke-width="param(outline-width) 1" d="M120.511 66.667v-7.692c-0.003-7.079-5.741-12.818-12.82-12.821h-23.077c-0.015-0-0.033-0-0.050-0-2.884 0-5.543 0.964-7.673 2.587l0.031-0.023c-0.29 0.192-0.542 0.403-0.768 0.639l-0.001 0.002c-2.677 2.345-4.359 5.77-4.359 9.588 0 0.010 0 0.020 0 0.029v-0.002 7.692c-1.414 0.004-2.56 1.15-2.564 2.564v20.513c0.004 1.414 1.15 2.56 2.564 2.564h2.564v3.846c0 2.124 1.722 3.846 3.846 3.846s3.846-1.722 3.846-3.846v0-3.846h28.205v3.846c0 2.124 1.722 3.846 3.846 3.846s3.846-1.722 3.846-3.846v0-3.846h2.538c1.414-0.004 2.56-1.15 2.564-2.564v-20.513c-0.001-1.407-1.134-2.549-2.537-2.564h-0.001zM79.486 58.974c0.008-2.086 1.256-3.878 3.044-4.679l0.033-0.013h0.026c0.592-0.275 1.284-0.436 2.014-0.436 0.004 0 0.008 0 0.012 0h23.076c2.389 0.015 4.392 1.65 4.966 3.862l0.008 0.036c0.098 0.36 0.154 0.774 0.154 1.201 0 0.011 0 0.021-0 0.032v-0.002 7.692h-33.333zM80.768 82.051c-2.124 0-3.846-1.722-3.846-3.846s1.722-3.846 3.846-3.846c2.124 0 3.846 1.722 3.846 3.846v0c0 0.002 0 0.004 0 0.005 0 2.121-1.72 3.841-3.841 3.841-0.002 0-0.004 0-0.006 0h0zM111.537 82.051c-2.124 0-3.846-1.722-3.846-3.846s1.722-3.846 3.846-3.846c2.124 0 3.846 1.722 3.846 3.846v0c0 0.002 0 0.004 0 0.005 0 2.121-1.72 3.841-3.841 3.841-0.002 0-0.004 0-0.006 0h0z"></path>
</svg>
