
<svg version="1.1" xmlns="http://www.w3.org/2000/svg" width="120" height="100" viewBox="0 0 120 100">
<title>map</title>
<path fill="param(fill) #000" stroke="param(outline) #000" stroke-width="param(outline-width) 1" d="M112.5 0h-17.5v82.5h12.5c2.758 0.008 4.992 2.242 5 4.999v0.001c-0.021 2.753-2.247 4.979-4.998 5h-100.002v-72.5h80v-7.5h-87.5v87.5h112.5c0.003 0 0.006 0 0.010 0 4.137 0 7.49-3.354 7.49-7.49 0-0.003 0-0.007 0-0.010v0.001-85c0-0.003 0-0.006 0-0.010 0-4.137-3.353-7.49-7.49-7.49-0.004 0-0.007 0-0.011 0h0.001z"></path>
<path fill="param(fill) #000" stroke="param(outline) #000" stroke-width="param(outline-width) 1" d="M35 85c0 1.381 1.119 2.5 2.5 2.5v0h2.5c1.381 0 2.5-1.119 2.5-2.5v0-5h2.5c1.381 0 2.5-1.119 2.5-2.5v0-10h2.5c1.381 0 2.5-1.119 2.5-2.5v0-2.5c0-1.381-1.119-2.5-2.5-2.5v0h-12.5v-5c1.381 0 2.5-1.119 2.5-2.5v0-2.5h2.5c1.381 0 2.5-1.119 2.5-2.5v0-5h2.5c1.381 0 2.5-1.119 2.5-2.5v0-2.5c0-1.381-1.119-2.5-2.5-2.5v0h-12.5v-5c0-1.381-1.119-2.5-2.5-2.5v0h-7.5c-1.381 0-2.5 1.119-2.5 2.5v0 5h-5c-1.381 0-2.5 1.119-2.5 2.5v0 2.5c0 1.381 1.119 2.5 2.5 2.5v0h5v5c0 1.381 1.119 2.5 2.5 2.5v0h2.5v2.5c0 1.381 1.119 2.5 2.5 2.5v0 5h-2.5c-1.381 0-2.5 1.119-2.5 2.5v0 2.5c0 1.381 1.119 2.5 2.5 2.5v0h2.5v5c0 1.381 1.119 2.5 2.5 2.5v0h2.5v10z"></path>
<path fill="param(fill) #000" stroke="param(outline) #000" stroke-width="param(outline-width) 1" d="M80 60h7.5v-30h-22.5c-1.381 0-2.5 1.119-2.5 2.5v0 5c0 1.381 1.119 2.5 2.5 2.5v0h2.5v5h-7.5c-1.379 0.004-2.496 1.121-2.5 2.5v2.5c0.004 1.379 1.121 2.496 2.5 2.5h2.5v7.5h-2.5c-1.381 0-2.5 1.119-2.5 2.5v0 2.5c0 1.381 1.119 2.5 2.5 2.5v0h2.5v5c0 1.381 1.119 2.5 2.5 2.5v0h2.5v5c0.004 1.379 1.121 2.496 2.5 2.5h7.5c1.379-0.004 2.496-1.121 2.5-2.5v-7.5h2.5c1.381 0 2.5-1.119 2.5-2.5v0-2.5c0-1.381-1.119-2.5-2.5-2.5v0h-2.5v-5z"></path>
</svg>
