
<svg version="1.1" xmlns="http://www.w3.org/2000/svg" width="100" height="100" viewBox="0 0 100 100">
<title>market-closed</title>
<path fill="param(fill) #000" stroke="param(outline) #000" stroke-width="param(outline-width) 1" d="M98.284 45.833h-67.050c-3.072 1.317-6.647 2.083-10.401 2.083s-7.329-0.766-10.577-2.15l0.176 0.067h-8.962l-1.471 4.167v4.167c0 4.602 3.731 8.333 8.333 8.333s8.333-3.731 8.333-8.333v0c0 4.602 3.731 8.333 8.333 8.333s8.333-3.731 8.333-8.333v0c0 4.602 3.731 8.333 8.333 8.333s8.333-3.731 8.333-8.333v0c0 4.602 3.731 8.333 8.333 8.333s8.333-3.731 8.333-8.333v0c0 4.602 3.731 8.333 8.333 8.333s8.333-3.731 8.333-8.333v0c0 4.602 3.731 8.333 8.333 8.333s8.333-3.731 8.333-8.333v0-4.167z"></path>
<path fill="param(fill) #000" stroke="param(outline) #000" stroke-width="param(outline-width) 1" d="M38.115 41.667h58.454l-10.621-25.793c-0.321-0.763-1.062-1.29-1.926-1.29h-36.862c0.481 1.902 0.757 4.085 0.757 6.332 0 8.337-3.797 15.787-9.757 20.715l-0.045 0.036z"></path>
<path fill="param(fill) #000" stroke="param(outline) #000" stroke-width="param(outline-width) 1" d="M20.833 10.417c-3.45 0.004-6.246 2.8-6.25 6.25v0h12.5c-0.004-3.45-2.8-6.246-6.25-6.25h-0z"></path>
<path fill="param(fill) #000" stroke="param(outline) #000" stroke-width="param(outline-width) 1" d="M91.667 66.667v33.333h-58.333v-20.833c-0.007-2.298-1.868-4.16-4.166-4.167h-8.334c-2.298 0.007-4.16 1.868-4.167 4.166v20.834h-8.333v-33.333c3.211-0.003 6.137-1.221 8.344-3.218l-0.011 0.009c2.195 1.99 5.122 3.208 8.333 3.208s6.138-1.218 8.344-3.218l-0.010 0.009c2.195 1.99 5.122 3.208 8.333 3.208s6.138-1.218 8.344-3.218l-0.010 0.009c2.195 1.99 5.122 3.208 8.333 3.208s6.138-1.218 8.344-3.218l-0.010 0.009c2.195 1.99 5.122 3.208 8.333 3.208s6.138-1.218 8.344-3.218l-0.010 0.009c2.196 1.988 5.122 3.205 8.333 3.208h0.001z"></path>
<path fill="param(fill) #000" stroke="param(outline) #000" stroke-width="param(outline-width) 1" d="M40.708 14.583c-2.741-8.523-10.6-14.583-19.874-14.583-11.506 0-20.833 9.327-20.834 20.833v0c0 11.506 9.327 20.833 20.833 20.833s20.833-9.327 20.833-20.833v0c0-0.010 0-0.022 0-0.034 0-2.22-0.35-4.358-0.999-6.362l0.041 0.146zM31.25 29.167c-0.007 2.298-1.868 4.16-4.166 4.167h-12.501c-2.298-0.007-4.16-1.868-4.167-4.166v-12.501c0.001-5.753 4.665-10.417 10.418-10.417 5.016 0 9.204 3.545 10.195 8.265l0.012 0.068c0.133 0.605 0.209 1.301 0.209 2.014 0 0.025-0 0.049-0 0.074v-0.004z"></path>
<path fill="param(fill) #000" stroke="param(outline) #000" stroke-width="param(outline-width) 1" d="M18.75 20.833h4.167c1.151 0 2.083 0.933 2.083 2.083v4.167c0 1.151-0.933 2.083-2.083 2.083h-4.167c-1.151 0-2.083-0.933-2.083-2.083v-4.167c0-1.151 0.933-2.083 2.083-2.083z"></path>
</svg>
