
<svg version="1.1" xmlns="http://www.w3.org/2000/svg" width="117" height="100" viewBox="0 0 117 100">
<title>market</title>
<path fill="param(fill) #000" stroke="param(outline) #000" stroke-width="param(outline-width) 1" d="M3.444 31.707l10.617-30.080c0.344-0.956 1.243-1.627 2.3-1.627 0 0 0 0 0 0h82.007c1.012 0 1.88 0.616 2.249 1.494l0.006 0.016 12.434 30.197zM1.721 36.585l-1.721 4.878v4.878c0 5.388 4.368 9.756 9.756 9.756s9.756-4.368 9.756-9.756v0c0 5.388 4.368 9.756 9.756 9.756s9.756-4.368 9.756-9.756v0c0 5.388 4.368 9.756 9.756 9.756s9.756-4.368 9.756-9.756v0c0 5.388 4.368 9.756 9.756 9.756s9.756-4.368 9.756-9.756v0c0 5.388 4.368 9.756 9.756 9.756s9.756-4.368 9.756-9.756v0c0 5.388 4.368 9.756 9.756 9.756s9.756-4.368 9.756-9.756v0-4.878l-2.008-4.878zM97.561 57.218c-2.569 2.331-5.996 3.757-9.756 3.757s-7.187-1.427-9.768-3.768l0.012 0.011c-2.569 2.331-5.996 3.757-9.756 3.757s-7.187-1.427-9.768-3.768l0.012 0.011c-2.569 2.331-5.996 3.757-9.756 3.757s-7.187-1.427-9.768-3.768l0.012 0.011c-2.569 2.331-5.996 3.757-9.756 3.757s-7.187-1.427-9.768-3.768l0.012 0.011c-2.57 2.33-5.996 3.756-9.756 3.757h-0v39.024h9.756v-24.39c0-2.694 2.184-4.878 4.878-4.878h9.756c2.694 0 4.878 2.184 4.878 4.878v0 24.39h68.293v-39.024c-3.76-0.001-7.186-1.427-9.768-3.768l0.012 0.011z"></path>
</svg>
