
<svg version="1.1" xmlns="http://www.w3.org/2000/svg" width="117" height="100" viewBox="0 0 117 100">
<title>medical-supply</title>
<path fill="param(fill) #000" stroke="param(outline) #000" stroke-width="param(outline-width) 1" d="M112.195 21.951h-26.829v-17.073c-0.008-2.691-2.187-4.87-4.877-4.878h-43.903c-2.691 0.008-4.87 2.187-4.878 4.877v17.074h-26.829c-2.691 0.008-4.87 2.187-4.878 4.877v68.293c0.008 2.691 2.187 4.87 4.877 4.878h107.318c2.691-0.008 4.87-2.187 4.878-4.877v-68.293c-0.008-2.691-2.187-4.87-4.877-4.878h-0.001zM43.902 12.195h29.268v9.756h-29.268zM49.439 66.512c-1.104 1.1-2.627 1.78-4.308 1.78-0.003 0-0.006 0-0.009 0h-6.097v6.098c0 3.368-2.73 6.098-6.098 6.098s-6.098-2.73-6.098-6.098v0-6.098h-6.098c-3.368 0-6.098-2.73-6.098-6.098s2.73-6.098 6.098-6.098v0h6.098v-6.098c0-3.368 2.73-6.098 6.098-6.098s6.098 2.73 6.098 6.098v0 6.098h6.098c3.368 0.004 6.097 2.736 6.097 6.105 0 1.682-0.68 3.205-1.781 4.309l0-0z"></path>
</svg>
