
<svg version="1.1" xmlns="http://www.w3.org/2000/svg" width="100" height="100" viewBox="0 0 100 100">
<title>meeting</title>
<path fill="param(fill) #000" stroke="param(outline) #000" stroke-width="param(outline-width) 1" d="M66.667 43.75c2.298-0.007 4.16-1.868 4.167-4.166v-35.417c-0.007-2.298-1.868-4.16-4.166-4.167h-62.501c-2.298 0.007-4.16 1.868-4.167 4.166v35.417c0.007 2.298 1.868 4.16 4.166 4.167h12.936l8.61 7.796c0.365 0.325 0.849 0.524 1.379 0.524 1.147 0 2.077-0.93 2.077-2.077 0-0.024-0-0.049-0.001-0.073l0 0.004v-6.173zM13.542 10.417h43.75c1.726 0 3.125 1.399 3.125 3.125s-1.399 3.125-3.125 3.125v0h-43.75c-1.726 0-3.125-1.399-3.125-3.125s1.399-3.125 3.125-3.125v0zM10.417 28.125c0-0.001 0-0.003 0-0.004 0-1.724 1.397-3.121 3.121-3.121 0.002 0 0.003 0 0.005 0h43.75c1.726 0 3.125 1.399 3.125 3.125s-1.399 3.125-3.125 3.125v0h-43.75c-0.001 0-0.003 0-0.004 0-1.724 0-3.121-1.397-3.121-3.121 0-0.001 0-0.003 0-0.004v0z"></path>
<path fill="param(fill) #000" stroke="param(outline) #000" stroke-width="param(outline-width) 1" d="M94.208 57.875c-3.574-3.578-8.514-5.792-13.971-5.792-0.010 0-0.021 0-0.031 0h-24.998c-10.931 0-19.792 8.861-19.792 19.792s8.861 19.792 19.792 19.792v0h13.542v6.246c0 1.15 0.933 2.083 2.083 2.083 0.526 0 1.007-0.195 1.374-0.517l-0.002 0.002 9.045-7.814c0.826-0.047 1.591-0.144 2.339-0.288l-0.109 0.018h0.021c9.425-1.638 16.5-9.756 16.5-19.526 0-5.464-2.213-10.412-5.792-13.995l0 0zM84.375 81.25h-33.333c-1.726 0-3.125-1.399-3.125-3.125s1.399-3.125 3.125-3.125v0h33.333c1.726 0 3.125 1.399 3.125 3.125s-1.399 3.125-3.125 3.125v0zM84.375 68.75h-33.333c-1.726 0-3.125-1.399-3.125-3.125s1.399-3.125 3.125-3.125v0h33.333c1.726 0 3.125 1.399 3.125 3.125s-1.399 3.125-3.125 3.125v0z"></path>
</svg>
