
<svg version="1.1" xmlns="http://www.w3.org/2000/svg" width="100" height="100" viewBox="0 0 100 100">
<title>mine</title>
<path fill="param(fill) #000" stroke="param(outline) #000" stroke-width="param(outline-width) 1" d="M25 58.333c0.014 4.597 3.737 8.319 8.332 8.333h33.335c4.602 0 8.333-3.731 8.333-8.333s-3.731-8.333-8.333-8.333v0h-33.333c-4.597 0.014-8.319 3.737-8.333 8.332v0.001z"></path>
<path fill="param(fill) #000" stroke="param(outline) #000" stroke-width="param(outline-width) 1" d="M50 31.25c2.301-0 4.167-1.866 4.167-4.167v0-22.917c0-2.301-1.866-4.167-4.167-4.167s-4.167 1.866-4.167 4.167v0 22.917c0 2.301 1.866 4.167 4.167 4.167v0z"></path>
<path fill="param(fill) #000" stroke="param(outline) #000" stroke-width="param(outline-width) 1" d="M75 39.583c0.001 0 0.003 0 0.005 0 1.149 0 2.189-0.467 2.941-1.221l14.583-14.583c0.754-0.754 1.22-1.796 1.22-2.946 0-2.301-1.865-4.166-4.166-4.166-1.15 0-2.192 0.466-2.946 1.22l-14.583 14.583c-0.754 0.754-1.22 1.796-1.22 2.946 0 2.301 1.865 4.166 4.166 4.167v0z"></path>
<path fill="param(fill) #000" stroke="param(outline) #000" stroke-width="param(outline-width) 1" d="M22.054 38.363c0.754 0.754 1.796 1.22 2.946 1.22 2.301 0 4.166-1.865 4.166-4.166 0-1.15-0.466-2.192-1.22-2.946l-14.583-14.583c-0.754-0.754-1.796-1.22-2.946-1.22-2.301 0-4.166 1.865-4.166 4.166 0 1.15 0.466 2.192 1.22 2.946v0z"></path>
<path fill="param(fill) #000" stroke="param(outline) #000" stroke-width="param(outline-width) 1" d="M4.167 72.917h91.667c2.301 0 4.167 1.866 4.167 4.167v18.75c0 2.301-1.866 4.167-4.167 4.167h-91.667c-2.301 0-4.167-1.866-4.167-4.167v-18.75c0-2.301 1.866-4.167 4.167-4.167z"></path>
</svg>
