
<svg version="1.1" xmlns="http://www.w3.org/2000/svg" width="88" height="100" viewBox="0 0 88 100">
<title>missing</title>
<path fill="param(fill) #000" stroke="param(outline) #000" stroke-width="param(outline-width) 1" d="M60.417 20.833c-15.44 0-27.083 10.747-27.083 25 0 2.301 1.866 4.167 4.167 4.167s4.167-1.866 4.167-4.167v0c-0.002-0.088-0.003-0.191-0.003-0.295 0-5.945 3.343-11.109 8.252-13.715l0.084-0.041v64.051c0 2.301 1.866 4.167 4.167 4.167s4.167-1.866 4.167-4.167v0-31.25h4.167v31.25c0 2.301 1.866 4.167 4.167 4.167s4.167-1.866 4.167-4.167v0-64.051c4.993 2.647 8.336 7.811 8.336 13.756 0 0.104-0.001 0.207-0.003 0.311l0-0.015c0 2.301 1.866 4.167 4.167 4.167s4.167-1.866 4.167-4.167v0c0-14.253-11.643-25-27.083-25z"></path>
<path fill="param(fill) #000" stroke="param(outline) #000" stroke-width="param(outline-width) 1" d="M68.75 8.333c0 4.602-3.731 8.333-8.333 8.333s-8.333-3.731-8.333-8.333c0-4.602 3.731-8.333 8.333-8.333s8.333 3.731 8.333 8.333z"></path>
<path fill="param(fill) #000" stroke="param(outline) #000" stroke-width="param(outline-width) 1" d="M16.667 0c-9.205 0-16.667 7.462-16.667 16.667s7.462 16.667 16.667 16.667c9.205 0 16.667-7.462 16.667-16.667v0c0-0.001 0-0.003 0-0.005 0-9.202-7.46-16.662-16.662-16.662-0.002 0-0.003 0-0.005 0h0zM16.667 29.354c-1.254 0-2.271-1.017-2.271-2.271s1.017-2.271 2.271-2.271c1.254 0 2.271 1.017 2.271 2.271v0c-0.003 1.253-1.018 2.268-2.271 2.271h-0zM22.792 12.083c-0.459 2.169-1.989 3.899-3.998 4.632l-0.044 0.014v3.271c0 1.151-0.933 2.083-2.083 2.083s-2.083-0.933-2.083-2.083v0-5c0.003-1.149 0.934-2.080 2.083-2.083h0c0.165-0.004 0.323-0.019 0.478-0.044l-0.020 0.003c0.799-0.192 1.412-0.819 1.581-1.611l0.002-0.014c0.025-0.125 0.040-0.268 0.042-0.415v-0.001c-0.004-0.165-0.019-0.323-0.044-0.478l0.003 0.020c-0.192-0.799-0.819-1.412-1.611-1.581l-0.014-0.002c-0.128-0.030-0.276-0.047-0.427-0.047s-0.299 0.017-0.44 0.049l0.013-0.003c-0.726 0.161-1.301 0.681-1.537 1.36l-0.004 0.015c-0.293 0.819-1.062 1.394-1.965 1.394-1.15 0-2.082-0.932-2.082-2.082 0-0.238 0.040-0.467 0.114-0.681l-0.004 0.015c0.726-2.074 2.451-3.627 4.583-4.096l0.042-0.008c0.385-0.079 0.828-0.125 1.281-0.125s0.896 0.046 1.324 0.132l-0.043-0.007c2.431 0.529 4.314 2.406 4.846 4.791l0.008 0.042c0.079 0.388 0.125 0.834 0.125 1.291v0c0 0.008 0 0.016 0 0.025 0 0.434-0.046 0.856-0.132 1.264l0.007-0.040z"></path>
</svg>
