
<svg version="1.1" xmlns="http://www.w3.org/2000/svg" width="54" height="100" viewBox="0 0 54 100">
<title>mobile-phone</title>
<path fill="param(fill) #000" stroke="param(outline) #000" stroke-width="param(outline-width) 1" d="M45.833 0h-37.5c-0.001 0-0.001 0-0.002 0-4.601 0-8.331 3.73-8.331 8.331 0 0.001 0 0.002 0 0.002v-0 83.333c0 0.001 0 0.001 0 0.002 0 4.601 3.73 8.331 8.331 8.331 0.001 0 0.001 0 0.002 0h37.5c0.001 0 0.001 0 0.002 0 4.601 0 8.331-3.73 8.331-8.331 0-0.001 0-0.001 0-0.002v0-83.333c0-0.001 0-0.001 0-0.002 0-4.601-3.73-8.331-8.331-8.331-0.001 0-0.002 0-0.002 0h0zM20.833 6.25h12.5c1.151 0 2.083 0.933 2.083 2.083s-0.933 2.083-2.083 2.083v0h-12.5c-1.151 0-2.083-0.933-2.083-2.083s0.933-2.083 2.083-2.083v0zM12.5 93.75c-2.301 0-4.167-1.866-4.167-4.167s1.866-4.167 4.167-4.167c2.301 0 4.167 1.866 4.167 4.167v0c-0.007 2.298-1.868 4.16-4.166 4.167h-0.001zM12.5 77.083c-2.301 0-4.167-1.866-4.167-4.167s1.866-4.167 4.167-4.167c2.301 0 4.167 1.866 4.167 4.167v0c-0.007 2.298-1.868 4.16-4.166 4.167h-0.001zM12.5 60.417c-2.301 0-4.167-1.866-4.167-4.167s1.866-4.167 4.167-4.167c2.301 0 4.167 1.866 4.167 4.167v0c-0.007 2.298-1.868 4.16-4.166 4.167h-0.001zM27.083 93.75c-2.301 0-4.167-1.866-4.167-4.167s1.866-4.167 4.167-4.167c2.301 0 4.167 1.866 4.167 4.167v0c-0.007 2.298-1.868 4.16-4.166 4.167h-0.001zM27.083 77.083c-2.301 0-4.167-1.866-4.167-4.167s1.866-4.167 4.167-4.167c2.301 0 4.167 1.866 4.167 4.167v0c-0.007 2.298-1.868 4.16-4.166 4.167h-0.001zM27.083 60.417c-2.301 0-4.167-1.866-4.167-4.167s1.866-4.167 4.167-4.167c2.301 0 4.167 1.866 4.167 4.167v0c-0.007 2.298-1.868 4.16-4.166 4.167h-0.001zM41.667 93.75c-2.301 0-4.167-1.866-4.167-4.167s1.866-4.167 4.167-4.167c2.301 0 4.167 1.866 4.167 4.167v0c-0.007 2.298-1.868 4.16-4.166 4.167h-0.001zM41.667 77.083c-2.301 0-4.167-1.866-4.167-4.167s1.866-4.167 4.167-4.167c2.301 0 4.167 1.866 4.167 4.167v0c-0.007 2.298-1.868 4.16-4.166 4.167h-0.001zM41.667 60.417c-2.301 0-4.167-1.866-4.167-4.167s1.866-4.167 4.167-4.167c2.301 0 4.167 1.866 4.167 4.167v0c-0.007 2.298-1.868 4.16-4.166 4.167h-0.001zM45.833 43.75c-0.003 1.149-0.934 2.080-2.083 2.083h-33.334c-1.149-0.003-2.080-0.934-2.083-2.083v-25c0.003-1.149 0.934-2.080 2.083-2.083h33.334c1.149 0.003 2.080 0.934 2.083 2.083v0z"></path>
</svg>
