
<svg version="1.1" xmlns="http://www.w3.org/2000/svg" width="96" height="100" viewBox="0 0 96 100">
<title>mobile-clinic</title>
<path fill="param(fill) #000" stroke="param(outline) #000" stroke-width="param(outline-width) 1" d="M84.924 48.092h-0.763v-5.725c0-5.344-4.198-9.542-9.542-9.542h-9.542v-5.725c0-3.244-2.481-5.725-5.725-5.725h-51.527c-3.244 0-5.725 2.481-5.725 5.725v43.893h9.542c0-6.298 5.153-11.45 11.45-11.45s11.45 5.153 11.45 11.45h22.901c0-4.771 3.053-9.16 7.634-10.687 1.145-0.382 2.481-0.763 3.817-0.763 6.298 0 11.45 5.153 11.45 11.45h10.496c1.527 0 2.863-1.336 2.863-2.863 0 0 0 0 0 0v-11.26c0-4.771-3.817-8.779-8.779-8.779 0 0 0 0 0 0zM72.901 38.55c3.053 0 5.534 2.481 5.534 5.534 0 0 0 0 0 0v4.008h-13.359v-9.542h7.824zM42.176 44.275h-3.817v3.817c0 2.099-1.718 3.817-3.817 3.817s-3.817-1.718-3.817-3.817v-3.817h-3.817c-2.099 0-3.817-1.718-3.817-3.817s1.718-3.817 3.817-3.817h3.817v-3.817c0-2.099 1.718-3.817 3.817-3.817s3.817 1.718 3.817 3.817v3.817h3.817c2.099 0 3.817 1.718 3.817 3.817s-1.718 3.817-3.817 3.817z"></path>
<path fill="param(fill) #000" stroke="param(outline) #000" stroke-width="param(outline-width) 1" d="M30.725 70.992c0 4.216-3.418 7.634-7.634 7.634s-7.634-3.418-7.634-7.634c0-4.216 3.418-7.634 7.634-7.634s7.634 3.418 7.634 7.634z"></path>
<path fill="param(fill) #000" stroke="param(outline) #000" stroke-width="param(outline-width) 1" d="M68.893 63.359c-4.198 0-7.634 3.435-7.634 7.634s3.435 7.634 7.634 7.634 7.634-3.435 7.634-7.634c0-4.198-3.435-7.634-7.634-7.634 0 0 0 0 0 0z"></path>
</svg>
