
<svg version="1.1" xmlns="http://www.w3.org/2000/svg" width="100" height="100" viewBox="0 0 100 100">
<title>monitoring</title>
<path fill="param(fill) #000" stroke="param(outline) #000" stroke-width="param(outline-width) 1" d="M17.458 70.417l-14.958 14.958c-1.544 1.55-2.499 3.689-2.499 6.050 0 4.735 3.839 8.574 8.574 8.574 2.361 0 4.5-0.955 6.050-2.499l14.958-14.958c-4.744-3.365-8.76-7.381-12.021-11.971l-0.104-0.154z"></path>
<path fill="param(fill) #000" stroke="param(outline) #000" stroke-width="param(outline-width) 1" d="M58.333 0c-23.012 0-41.667 18.655-41.667 41.667s18.655 41.667 41.667 41.667c23.012 0 41.667-18.655 41.667-41.667v0c0-0.003 0-0.007 0-0.011 0-23.006-18.65-41.655-41.655-41.655-0.004 0-0.008 0-0.012 0h0.001zM81.25 62.875c-5.724 6.161-13.872 10.004-22.917 10.004-17.246 0-31.229-13.97-31.25-31.21v-0.002c0-0.011 0-0.024 0-0.038 0-17.259 13.991-31.25 31.25-31.25s31.25 13.991 31.25 31.25c0 8.214-3.169 15.688-8.351 21.265l0.018-0.019z"></path>
<path fill="param(fill) #000" stroke="param(outline) #000" stroke-width="param(outline-width) 1" d="M82.113 38.721l-12.5-12.5c-0.755-0.762-1.802-1.234-2.959-1.234-2.301 0-4.166 1.865-4.166 4.166 0 1.157 0.472 2.204 1.234 2.959l5.388 5.388h-31.608c-2.301 0-4.167 1.866-4.167 4.167s1.866 4.167 4.167 4.167v0h31.608l-5.387 5.387c-0.757 0.754-1.226 1.798-1.226 2.952 0 2.301 1.865 4.166 4.166 4.166 1.153 0 2.197-0.469 2.951-1.226l12.5-12.5c0.754-0.754 1.221-1.795 1.221-2.946s-0.467-2.192-1.221-2.946v0z"></path>
</svg>
