
<svg version="1.1" xmlns="http://www.w3.org/2000/svg" width="21" height="100" viewBox="0 0 21 100">
<title>more-options</title>
<path fill="param(fill) #000" stroke="param(outline) #000" stroke-width="param(outline-width) 1" d="M20.833 10.417c0 5.753-4.664 10.417-10.417 10.417s-10.417-4.664-10.417-10.417c0-5.753 4.664-10.417 10.417-10.417s10.417 4.664 10.417 10.417z"></path>
<path fill="param(fill) #000" stroke="param(outline) #000" stroke-width="param(outline-width) 1" d="M20.833 50c0 5.753-4.664 10.417-10.417 10.417s-10.417-4.664-10.417-10.417c0-5.753 4.664-10.417 10.417-10.417s10.417 4.664 10.417 10.417z"></path>
<path fill="param(fill) #000" stroke="param(outline) #000" stroke-width="param(outline-width) 1" d="M20.833 89.583c0 5.753-4.664 10.417-10.417 10.417s-10.417-4.664-10.417-10.417c0-5.753 4.664-10.417 10.417-10.417s10.417 4.664 10.417 10.417z"></path>
</svg>
