
<svg version="1.1" xmlns="http://www.w3.org/2000/svg" width="100" height="100" viewBox="0 0 100 100">
<title>mosquito-net</title>
<path fill="param(fill) #000" stroke="param(outline) #000" stroke-width="param(outline-width) 1" d="M39.099 53.831l-6.352-6.352c-0.747-0.747-1.779-1.208-2.918-1.208-0.467 0-0.917 0.078-1.336 0.221l0.029-0.009-25 8.346c-2.071 0.7-3.536 2.626-3.536 4.893 0 2.846 2.308 5.154 5.154 5.154 0.59 0 1.157-0.099 1.685-0.282l-0.036 0.011 19.124-6.377-16.055 16.215c-0.943 0.943-1.526 2.245-1.526 3.683 0 2.877 2.332 5.208 5.208 5.208 1.438 0 2.74-0.583 3.683-1.525v0l24.821-25.031z"></path>
<path fill="param(fill) #000" stroke="param(outline) #000" stroke-width="param(outline-width) 1" d="M53.094 38.363l3.683 3.683 25.031-24.821c0.943-0.943 1.526-2.245 1.526-3.683 0-2.877-2.332-5.208-5.208-5.208-1.438 0-2.74 0.583-3.683 1.525v0l-16.215 16.056 6.377-19.124c0.168-0.488 0.266-1.049 0.266-1.634 0-2.846-2.308-5.154-5.154-5.154-2.262 0-4.184 1.457-4.877 3.484l-0.011 0.036-8.345 25c-0.135 0.39-0.212 0.839-0.212 1.307 0 1.139 0.462 2.171 1.208 2.918v0z"></path>
<path fill="param(fill) #000" stroke="param(outline) #000" stroke-width="param(outline-width) 1" d="M94.001 52.084l5.083-5.083c0.565-0.565 0.915-1.347 0.915-2.209 0-1.726-1.399-3.125-3.125-3.125-0.863 0-1.644 0.35-2.209 0.915l-52.083 52.083c-0.565 0.565-0.915 1.347-0.915 2.209 0 1.726 1.399 3.125 3.125 3.125 0.863 0 1.644-0.35 2.209-0.915l5.083-5.083 5.082 5.082c0.566 0.564 1.346 0.914 2.208 0.917h2.084c0.862-0.003 1.642-0.353 2.208-0.917l6.124-6.124 6.125 6.125c0.565 0.566 1.347 0.916 2.209 0.916s1.644-0.35 2.209-0.916l18.75-18.75c0.566-0.565 0.916-1.347 0.916-2.209s-0.35-1.644-0.916-2.209l-6.125-6.125 6.124-6.124c0.566-0.56 0.917-1.338 0.917-2.197 0-0.004 0-0.008 0-0.012v0.001-2.083c0-0.003 0-0.007 0-0.012 0-0.859-0.351-1.637-0.916-2.197l-0-0zM80.208 65.877l3.916 3.915-4.956 4.956-3.916-3.915zM60.417 93.5l-3.915-3.915 4.957-4.957 3.916 3.915zM65.877 80.208l4.956-4.956 3.916 3.915-4.956 4.956zM78.125 92.456l-3.915-3.915 4.956-4.956 3.915 3.916zM87.5 83.081l-3.915-3.915 4.956-4.956 3.915 3.916zM88.543 65.374l-3.916-3.915 4.957-4.957 3.916 3.915z"></path>
<path fill="param(fill) #000" stroke="param(outline) #000" stroke-width="param(outline-width) 1" d="M46.554 52.46l1.394 1.394c-0.005 0.106-0.032 0.205-0.032 0.312-0 0.025-0.001 0.055-0.001 0.085 0 3.405 2.76 6.165 6.165 6.165 0.628 0 1.233-0.094 1.804-0.268l-0.044 0.012c0.067 0.115 0.133 0.213 0.204 0.306l-0.005-0.007 3.208 3.208c0.565 0.565 1.347 0.915 2.209 0.915 1.726 0 3.125-1.399 3.125-3.125 0-0.863-0.35-1.644-0.915-2.209l-3.208-3.208c-0.086-0.066-0.184-0.131-0.285-0.191l-0.014-0.007c0.163-0.527 0.257-1.133 0.257-1.76 0-3.405-2.76-6.166-6.166-6.166-0.030 0-0.060 0-0.090 0.001l0.004-0c-0.107 0-0.207 0.026-0.313 0.032l-30.011-30.011c-0.762-0.795-1.832-1.288-3.017-1.288-2.307 0-4.177 1.87-4.177 4.177 0 1.185 0.494 2.255 1.287 3.016l0.001 0.001z"></path>
</svg>
