
<svg version="1.1" xmlns="http://www.w3.org/2000/svg" width="100" height="100" viewBox="0 0 100 100">
<title>multi-cluster-sector</title>
<path fill="param(fill) #000" stroke="param(outline) #000" stroke-width="param(outline-width) 1" d="M100 16.667c0-0.003 0-0.007 0-0.011 0-9.199-7.457-16.656-16.656-16.656-8.896 0-16.164 6.975-16.632 15.754l-0.002 0.042-37.508 12.828c-3.073-3.513-7.564-5.72-12.571-5.72-9.208 0-16.673 7.465-16.673 16.673s7.465 16.673 16.673 16.673c2.703 0 5.256-0.643 7.513-1.785l-0.095 0.044 26.848 23.464c-0.566 1.604-0.892 3.454-0.892 5.38 0 9.203 7.461 16.664 16.664 16.664s16.664-7.461 16.664-16.664c0-5.496-2.661-10.371-6.765-13.407l-0.045-0.032 9.267-36.783c8.083-1.233 14.205-8.134 14.21-16.465v-0zM59.067 68.512l-26.712-23.345c0.513-1.396 0.848-3.011 0.934-4.691l0.002-0.040 37.495-12.823c0.846 0.966 1.781 1.818 2.802 2.558l0.049 0.034-9.229 36.634c-1.991 0.274-3.792 0.863-5.432 1.718l0.091-0.043z"></path>
</svg>
