
<svg version="1.1" xmlns="http://www.w3.org/2000/svg" width="88" height="100" viewBox="0 0 88 100">
<title>murder</title>
<path fill="param(fill) #000" stroke="param(outline) #000" stroke-width="param(outline-width) 1" d="M16.667 29.167c0 4.602-3.731 8.333-8.333 8.333s-8.333-3.731-8.333-8.333c0-4.602 3.731-8.333 8.333-8.333s8.333 3.731 8.333 8.333z"></path>
<path fill="param(fill) #000" stroke="param(outline) #000" stroke-width="param(outline-width) 1" d="M83.852 57.161c-5.53-4.281-12.564-6.862-20.202-6.862-6.422 0-12.419 1.825-17.498 4.986l0.141-0.082-17.67-16.063c2.962-4.501 4.725-10.019 4.725-15.95 0-0.336-0.006-0.671-0.017-1.004l0.001 0.049c-0.427-8.282-4.004-15.655-9.545-21.006l-0.009-0.009c-0.754-0.757-1.798-1.226-2.952-1.226-2.301 0-4.166 1.865-4.166 4.166 0 1.153 0.469 2.197 1.226 2.951l0 0c4.036 3.856 6.678 9.143 7.108 15.043l0.004 0.076c-0.004 6.299-1.65 11.005-5.029 14.386-0.041 0.041-0.068 0.089-0.107 0.131l-4.526 4.785c-5.598 5.255-9.085 12.701-9.085 20.962 0 0.069 0 0.138 0.001 0.207l-0-0.011c0.716 7.718 4.242 14.498 9.531 19.404l0.019 0.018c0.753 0.751 1.793 1.215 2.94 1.215 2.301 0 4.166-1.865 4.166-4.166 0-1.148-0.464-2.187-1.215-2.94l0 0c-3.858-3.526-6.464-8.366-7.107-13.807l-0.010-0.105c-0.002-0.096-0.003-0.209-0.003-0.323 0-3.584 1.051-6.923 2.861-9.725l-0.043 0.071 50.617 46.568c0.74 0.682 1.732 1.101 2.822 1.101 2.301 0 4.167-1.866 4.167-4.167 0-1.211-0.517-2.302-1.342-3.063l-0.003-0.003-28.305-26.041c7.535-8.478 22.447-11.729 33.298-3.055 0.704 0.562 1.606 0.901 2.588 0.901 2.302 0 4.167-1.866 4.167-4.167 0-1.307-0.602-2.474-1.544-3.238l-0.008-0.006z"></path>
<path fill="param(fill) #000" stroke="param(outline) #000" stroke-width="param(outline-width) 1" d="M53.125 20.833c1.726-0 3.125-1.399 3.125-3.125v0-14.583c0-1.726-1.399-3.125-3.125-3.125s-3.125 1.399-3.125 3.125v0 14.583c0 1.726 1.399 3.125 3.125 3.125v0z"></path>
<path fill="param(fill) #000" stroke="param(outline) #000" stroke-width="param(outline-width) 1" d="M84.375 31.25h-14.583c-1.726 0-3.125 1.399-3.125 3.125s1.399 3.125 3.125 3.125v0h14.583c1.726 0 3.125-1.399 3.125-3.125s-1.399-3.125-3.125-3.125v0z"></path>
<path fill="param(fill) #000" stroke="param(outline) #000" stroke-width="param(outline-width) 1" d="M67.834 24.085l10.417-10.417c0.566-0.566 0.915-1.347 0.915-2.21 0-1.726-1.399-3.125-3.125-3.125-0.863 0-1.644 0.35-2.21 0.915l-10.417 10.417c-0.566 0.566-0.915 1.347-0.915 2.21 0 1.726 1.399 3.125 3.125 3.125 0.863 0 1.644-0.35 2.21-0.915v0z"></path>
</svg>
