
<svg version="1.1" xmlns="http://www.w3.org/2000/svg" width="67" height="100" viewBox="0 0 67 100">
<title>needs-assessment</title>
<path fill="param(fill) #000" stroke="param(outline) #000" stroke-width="param(outline-width) 1" d="M62.5 12.5h-10.417c-0.007-2.298-1.868-4.16-4.166-4.167h-6.251c0-4.602-3.731-8.333-8.333-8.333s-8.333 3.731-8.333 8.333v0h-6.25c-2.298 0.007-4.16 1.868-4.167 4.166v0.001h-10.417c-2.323 0.099-4.169 2.006-4.169 4.344 0 0.048 0.001 0.095 0.002 0.142l-0-0.007v78.542c-0.001 0.040-0.002 0.088-0.002 0.135 0 2.338 1.846 4.245 4.16 4.344l0.009 0h58.333c2.323-0.099 4.169-2.006 4.169-4.344 0-0.048-0.001-0.095-0.002-0.142l0 0.007v-78.542c0.001-0.040 0.002-0.088 0.002-0.135 0-2.338-1.846-4.245-4.16-4.343l-0.009-0zM35.417 10.417c0 1.151-0.933 2.083-2.083 2.083s-2.083-0.933-2.083-2.083c0-1.151 0.933-2.083 2.083-2.083v0c1.149 0.003 2.080 0.934 2.083 2.083v0zM58.333 91.667h-50v-70.833h6.25c0.007 2.298 1.868 4.16 4.166 4.167h29.167c2.298-0.007 4.16-1.868 4.167-4.166v-0.001h6.25z"></path>
<path fill="param(fill) #000" stroke="param(outline) #000" stroke-width="param(outline-width) 1" d="M33.271 73.75c-2.646 0-4.792 2.145-4.792 4.792s2.145 4.792 4.792 4.792c2.646 0 4.792-2.145 4.792-4.792v0c-0-2.646-2.146-4.791-4.792-4.792v0z"></path>
<path fill="param(fill) #000" stroke="param(outline) #000" stroke-width="param(outline-width) 1" d="M35.833 35.375c-0.764-0.157-1.642-0.247-2.542-0.247-0.937 0-1.85 0.098-2.732 0.283l0.086-0.015c-4.92 1.044-8.738 4.827-9.817 9.645l-0.016 0.085c-0.106 0.376-0.167 0.807-0.167 1.253 0 0.028 0 0.056 0.001 0.084l-0-0.004c0 0.002 0 0.004 0 0.006 0 2.298 1.863 4.161 4.161 4.161 2.124 0 3.876-1.591 4.129-3.647l0.002-0.020c0.013-0.020 0.021-0.044 0.021-0.070 0-0.005-0-0.009-0.001-0.014l0 0.001c0.412-1.65 1.696-2.921 3.324-3.306l0.030-0.006c0.296-0.061 0.635-0.096 0.983-0.096 0.308 0 0.609 0.027 0.902 0.080l-0.031-0.005c1.71 0.381 3.036 1.693 3.431 3.365l0.006 0.031c0.053 0.269 0.084 0.578 0.084 0.895 0 0.022-0 0.045-0 0.067v-0.003c0.001 0.025 0.001 0.054 0.001 0.083 0 0.288-0.031 0.569-0.089 0.839l0.005-0.026c-0.389 2.018-2.141 3.522-4.245 3.522-0.031 0-0.062-0-0.093-0.001l0.005 0c-0 0-0.001 0-0.001 0-2.301 0-4.166 1.865-4.166 4.166 0 0 0 0.001 0 0.001v-0 8.583c0 2.301 1.866 4.167 4.167 4.167s4.167-1.866 4.167-4.167v-5.104c4.231-1.5 7.391-5.046 8.318-9.416l0.015-0.084c0.159-0.764 0.25-1.642 0.25-2.541 0-0.008 0-0.015 0-0.023v0.001c-0.001-0.929-0.092-1.836-0.265-2.714l0.015 0.089c-1.089-4.979-4.952-8.828-9.853-9.881l-0.084-0.015z"></path>
</svg>
