
<svg version="1.1" xmlns="http://www.w3.org/2000/svg" width="133" height="100" viewBox="0 0 133 100">
<title>next-item</title>
<path fill="param(fill) #000" stroke="param(outline) #000" stroke-width="param(outline-width) 1" d="M130.079 42.144l-38.889-38.889c-2.011-2.011-4.789-3.255-7.857-3.255-6.136 0-11.111 4.975-11.111 11.111 0 3.068 1.243 5.845 3.254 7.856l19.922 19.922h-84.287c-6.137 0-11.111 4.975-11.111 11.111s4.975 11.111 11.111 11.111v0h84.287l-19.922 19.922c-2.010 2.011-3.254 4.788-3.254 7.856 0 6.136 4.975 11.111 11.111 11.111 3.069 0 5.846-1.244 7.857-3.255l38.889-38.889c2.011-2.010 3.254-4.788 3.254-7.856s-1.244-5.845-3.254-7.856v0z"></path>
</svg>
