
<svg version="1.1" xmlns="http://www.w3.org/2000/svg" width="67" height="100" viewBox="0 0 67 100">
<title>ngo-office</title>
<path fill="param(fill) #000" stroke="param(outline) #000" stroke-width="param(outline-width) 1" d="M52.083 29.167c-1.149 0.003-2.080 0.934-2.083 2.083v12.5c0 1.151 0.933 2.083 2.083 2.083s2.083-0.933 2.083-2.083v0-12.5c-0.003-1.149-0.934-2.080-2.083-2.083h-0z"></path>
<path fill="param(fill) #000" stroke="param(outline) #000" stroke-width="param(outline-width) 1" d="M62.5 12.5h-58.333c-2.298 0.007-4.16 1.868-4.167 4.166v45.834h66.667v-45.833c-0.007-2.298-1.868-4.16-4.166-4.167h-0.001zM22.917 47.917c0 0 0 0.001 0 0.001 0 0.979-0.678 1.799-1.59 2.017l-0.014 0.003c-0.144 0.039-0.309 0.062-0.479 0.063h-0c-0.806-0.002-1.505-0.462-1.849-1.134l-0.005-0.012-6.479-12.938v12c0 1.151-0.933 2.083-2.083 2.083s-2.083-0.933-2.083-2.083v0-20.833c0.003-1.147 0.934-2.076 2.082-2.076 0.806 0 1.504 0.458 1.85 1.127l0.005 0.012 6.479 12.937v-12c0-1.151 0.933-2.083 2.083-2.083s2.083 0.933 2.083 2.083v0zM41.667 42.708c0 4.027-3.265 7.292-7.292 7.292s-7.292-3.265-7.292-7.292v0-11.458c0.010-3.448 2.802-6.24 6.249-6.25h4.168c1.151 0 2.083 0.933 2.083 2.083s-0.933 2.083-2.083 2.083v0h-4.167c-1.149 0.003-2.080 0.934-2.083 2.083v11.459c0 1.726 1.399 3.125 3.125 3.125s3.125-1.399 3.125-3.125v0-3.125h-2.083c-1.151 0-2.083-0.933-2.083-2.083s0.933-2.083 2.083-2.083v0h2.083c2.298 0.007 4.16 1.868 4.167 4.166v0.001zM58.333 43.75c0 3.452-2.798 6.25-6.25 6.25s-6.25-2.798-6.25-6.25v0-12.5c0-3.452 2.798-6.25 6.25-6.25s6.25 2.798 6.25 6.25v0z"></path>
<path fill="param(fill) #000" stroke="param(outline) #000" stroke-width="param(outline-width) 1" d="M12.5 8.333h41.667c2.301 0 4.167-1.866 4.167-4.167s-1.866-4.167-4.167-4.167v0h-41.667c-2.301 0-4.167 1.866-4.167 4.167s1.866 4.167 4.167 4.167v0z"></path>
<path fill="param(fill) #000" stroke="param(outline) #000" stroke-width="param(outline-width) 1" d="M0 100h25v-20.833c0.007-2.298 1.868-4.16 4.166-4.167h8.334c2.298 0.007 4.16 1.868 4.167 4.166v20.834h25v-33.333h-66.667z"></path>
</svg>
