
<svg version="1.1" xmlns="http://www.w3.org/2000/svg" width="100" height="100" viewBox="0 0 100 100">
<title>non-food-items</title>
<path fill="param(fill) #000" stroke="param(outline) #000" stroke-width="param(outline-width) 1" d="M90.476 0h-80.952c-0.001 0-0.002 0-0.003 0-5.258 0-9.521 4.263-9.521 9.521 0 0.001 0 0.002 0 0.003v-0 80.952c0 0.001 0 0.002 0 0.003 0 5.258 4.263 9.521 9.521 9.521 0.001 0 0.002 0 0.003 0h80.952c0.001 0 0.002 0 0.003 0 5.258 0 9.521-4.263 9.521-9.521 0-0.001 0-0.002 0-0.003v0-80.952c0-0.001 0-0.002 0-0.003 0-5.258-4.263-9.521-9.521-9.521-0.001 0-0.002 0-0.003 0h0zM42.857 70.238c-0.002 1.67-1.144 3.072-2.689 3.471l-0.025 0.005c-0.244 0.061-0.524 0.096-0.812 0.096-0.016 0-0.031-0-0.047-0h0.002c-1.364-0.002-2.55-0.764-3.157-1.886l-0.009-0.019-14.69-27.762v26.095c0 1.972-1.599 3.571-3.571 3.571s-3.571-1.599-3.571-3.571v0-40.476c0.002-1.67 1.144-3.072 2.689-3.471l0.025-0.005c0.25-0.061 0.536-0.096 0.831-0.096 1.373 0 2.567 0.763 3.183 1.887l0.009 0.019 14.69 27.762v-26.095c0-1.972 1.599-3.571 3.571-3.571s3.571 1.599 3.571 3.571v0zM67.857 45.238c1.972 0 3.571 1.599 3.571 3.571s-1.599 3.571-3.571 3.571v0h-10.714v17.857c0 1.972-1.599 3.571-3.571 3.571s-3.571-1.599-3.571-3.571v0-40.476c0-0.001 0-0.003 0-0.005 0-1.97 1.597-3.567 3.567-3.567 0.002 0 0.004 0 0.005 0h14.285c1.972 0 3.571 1.599 3.571 3.571s-1.599 3.571-3.571 3.571v0h-10.714v11.905zM85.714 70.238c0 1.972-1.599 3.571-3.571 3.571s-3.571-1.599-3.571-3.571v0-40.476c0-1.972 1.599-3.571 3.571-3.571s3.571 1.599 3.571 3.571v0z"></path>
</svg>
