
<svg version="1.1" xmlns="http://www.w3.org/2000/svg" width="137" height="100" viewBox="0 0 137 100">
<title>non-food-items-2</title>
<path fill="param(fill) #000" stroke="param(outline) #000" stroke-width="param(outline-width) 1" d="M135.714 0h-88.571c-0.789 0-1.429 0.64-1.429 1.429v0 21.429h30c3.943 0.004 7.138 3.2 7.143 7.142v68.572c0 0.506-0.053 0.999-0.153 1.475l0.008-0.046h53.002c0.789 0 1.429-0.64 1.429-1.429v0-97.143c0-0.789-0.64-1.429-1.429-1.429v0zM124.459 58.745c-0.776 0.776-1.847 1.255-3.030 1.255s-2.255-0.48-3.030-1.255l-4.112-4.112v23.939c0 2.367-1.919 4.286-4.286 4.286s-4.286-1.919-4.286-4.286v0-23.939l-4.112 4.112c-0.776 0.776-1.847 1.255-3.030 1.255-2.367 0-4.286-1.919-4.286-4.286 0-1.183 0.48-2.255 1.255-3.030l11.287-11.287c0.016-0.016 0.038-0.021 0.055-0.036 0.78-0.838 1.89-1.361 3.122-1.361 1.199 0 2.281 0.495 3.056 1.291l0.001 0.001 0.020 0.013 11.379 11.379c0.776 0.776 1.255 1.847 1.255 3.030s-0.48 2.255-1.255 3.030v0z"></path>
<path fill="param(fill) #000" stroke="param(outline) #000" stroke-width="param(outline-width) 1" d="M75.714 28.571h-74.286c-0.789 0-1.429 0.64-1.429 1.429v0 68.571c0 0.789 0.64 1.429 1.429 1.429v0h74.286c0.789 0 1.429-0.64 1.429-1.429v0-68.571c0-0.789-0.64-1.429-1.429-1.429v0zM48.571 54.286h-20c-3.156 0-5.714-2.558-5.714-5.714s2.558-5.714 5.714-5.714v0h20c3.156 0 5.714 2.558 5.714 5.714s-2.558 5.714-5.714 5.714v0z"></path>
</svg>
