
<svg version="1.1" xmlns="http://www.w3.org/2000/svg" width="79" height="100" viewBox="0 0 79 100">
<title>notification</title>
<path fill="param(fill) #000" stroke="param(outline) #000" stroke-width="param(outline-width) 1" d="M37.5 100h4.167c4.602 0 8.333-3.731 8.333-8.333v0h-20.833c0 4.602 3.731 8.333 8.333 8.333v0z"></path>
<path fill="param(fill) #000" stroke="param(outline) #000" stroke-width="param(outline-width) 1" d="M69.792 68.75h-0.347l-3.917-29.375c-1.273-9.252-7.229-16.867-15.361-20.458l-0.167-0.066v-8.434c0-5.753-4.664-10.417-10.417-10.417s-10.417 4.664-10.417 10.417v0 8.434c-8.299 3.658-14.255 11.273-15.512 20.388l-0.015 0.137-3.917 29.375h-0.347c-5.178 0-9.375 4.197-9.375 9.375s4.197 9.375 9.375 9.375v0h60.417c5.178 0 9.375-4.197 9.375-9.375s-4.197-9.375-9.375-9.375v0zM39.583 6.25c2.301 0 4.167 1.866 4.167 4.167s-1.866 4.167-4.167 4.167c-2.301 0-4.167-1.866-4.167-4.167v0c0-2.301 1.866-4.167 4.167-4.167v0z"></path>
</svg>
