
<svg version="1.1" xmlns="http://www.w3.org/2000/svg" width="96" height="100" viewBox="0 0 96 100">
<title>nutrition</title>
<path fill="param(fill) #000" stroke="param(outline) #000" stroke-width="param(outline-width) 1" d="M47.935 85.495c1.764 1.21 3.946 1.933 6.296 1.933 0.178 0 0.355-0.004 0.531-0.012l-0.025 0.001h0.865c2.388-0.008 4.608-0.723 6.461-1.949l-0.044 0.027c1.993-1.285 3.59-3.023 4.672-5.075l0.035-0.073c1.089-2.009 1.729-4.398 1.729-6.936 0-0.034-0-0.067-0-0.101v0.005-0.211c-0.001-0.205-0.074-0.392-0.193-0.54l0.001 0.002c-0.12-0.13-0.29-0.211-0.48-0.211h-64.284c-0.003 0-0.006 0-0.009 0-0.97 0-1.839 0.43-2.427 1.11l-0.003 0.004c-0.632 0.709-1.019 1.65-1.019 2.68s0.386 1.971 1.022 2.684l-0.004-0.004c0.577 0.725 1.452 1.191 2.437 1.21l0.003 0h39.827c1.175 2.166 2.722 3.983 4.573 5.428l0.038 0.029zM95.139 46.013c-0.479-1.29-1.129-2.404-1.937-3.382l0.016 0.019c-1.036-1.276-2.454-2.207-4.077-2.621l-0.053-0.012v-5.034c-0.026-4.932-1.026-9.623-2.818-13.901l0.089 0.241c-1.76-4.301-4.245-7.969-7.336-11.025l-0.003-0.003c-3.025-3.080-6.612-5.597-10.596-7.385l-0.22-0.088c-3.846-1.762-8.34-2.799-13.075-2.824h-0.009c-0.818 0.637-1.469 1.448-1.905 2.381l-0.017 0.040c-0.425 0.924-0.672 2.005-0.672 3.144 0 0.003 0 0.005 0 0.008v-0c0.023 1.93 0.811 3.671 2.075 4.938l-0-0c1.147 1.186 2.753 1.922 4.531 1.922 0.042 0 0.083-0 0.124-0.001l-0.006 0h0.096c0.005 0 0.010-0 0.016-0 0.637 0 1.208 0.282 1.596 0.728l0.002 0.003c0.417 0.451 0.673 1.056 0.673 1.721 0 0.023-0 0.046-0.001 0.069l0-0.003c0.002 0.034 0.003 0.074 0.003 0.115 0 0.632-0.258 1.203-0.675 1.614l-0 0c-0.394 0.426-0.957 0.692-1.581 0.692-0.012 0-0.023-0-0.035-0h-0.133c-0.001 0-0.003 0-0.004 0-2.060 0-3.984-0.586-5.612-1.601l0.045 0.026c-1.686-1.057-3.050-2.482-4.004-4.169l-0.030-0.058c-0.993-1.724-1.594-3.785-1.633-5.983l-0-0.011v-0.096c-0.001-0.061-0.002-0.132-0.002-0.204 0-1.769 0.427-3.438 1.183-4.909l-0.028 0.060-0.134 0.115c-5.534 0.951-10.432 3.151-14.567 6.303l0.081-0.059c-4.255 3.187-7.681 7.246-10.055 11.929l-0.089 0.194c-2.422 4.629-3.843 10.112-3.843 15.927 0 0.054 0 0.108 0 0.162v-0.008 5.034c-1.677 0.425-3.094 1.356-4.119 2.618l-0.011 0.014c-0.793 0.959-1.443 2.072-1.895 3.283l-0.026 0.080c-0.45 1.185-0.711 2.555-0.711 3.987s0.261 2.801 0.738 4.066l-0.026-0.079c0.479 1.29 1.129 2.404 1.937 3.382l-0.016-0.019c1.084 1.215 2.482 2.129 4.067 2.615l0.064 0.017v5.034c0.015 0.944 0.084 1.855 0.205 2.751l-0.013-0.119h47.070c0.053-0.002 0.114-0.003 0.176-0.003 1.485 0 2.807 0.696 3.659 1.78l0.008 0.010c0.894 0.977 1.442 2.283 1.442 3.718 0 0.044-0 0.087-0.002 0.131l0-0.006v0.211c0.001 0.061 0.001 0.133 0.001 0.205 0 3.441-0.868 6.679-2.397 9.508l0.052-0.106c-1.535 2.853-3.694 5.191-6.307 6.892l-0.072 0.044c-2.451 1.614-5.457 2.575-8.688 2.575-0.012 0-0.024 0-0.036 0h-1.439c-0.038 0-0.084 0.001-0.129 0.001-2.679 0-5.192-0.713-7.358-1.96l0.072 0.038c-2.372-1.336-4.313-3.178-5.725-5.392l-0.038-0.065-0.096-0.115h-12.046c3.163 4.163 6.943 7.661 11.239 10.424l0.173 0.104c4.081 2.704 9.075 4.343 14.447 4.419l0.020 0c4.922-0.050 9.514-1.414 13.457-3.757l-0.124 0.068c4.256-2.413 7.868-5.424 10.864-8.971l0.048-0.058c2.868-3.283 5.323-7.035 7.217-11.101l0.122-0.292c1.596-3.17 2.589-6.891 2.727-10.828l0.001-0.046v-5.091c1.65-0.498 3.049-1.413 4.123-2.623l0.008-0.009c0.793-0.959 1.443-2.072 1.895-3.283l0.026-0.080c0.462-1.184 0.729-2.554 0.729-3.987s-0.268-2.803-0.756-4.063l0.026 0.077zM47.109 48.838c-2.077 2.258-5.041 3.672-8.335 3.689h-0.003c-1.654-0.020-3.211-0.415-4.596-1.104l0.062 0.028c-1.506-0.689-2.783-1.628-3.834-2.777l-0.008-0.009v0.096c-0.477-0.51-0.77-1.197-0.77-1.953 0-0.029 0-0.059 0.001-0.088l-0 0.004c-0.001-0.026-0.001-0.057-0.001-0.087 0-0.761 0.293-1.453 0.772-1.97l-0.002 0.002c0.462-0.508 1.126-0.825 1.864-0.825s1.401 0.317 1.862 0.823l0.002 0.002c1.171 1.187 2.797 1.921 4.595 1.921 0.019 0 0.038-0 0.057-0h-0.003c0.047 0.001 0.103 0.002 0.159 0.002 1.705 0 3.238-0.741 4.293-1.918l0.005-0.005c0.529-0.495 1.235-0.805 2.013-0.826l0.004-0c0.006-0 0.014-0 0.021-0 0.72 0 1.365 0.319 1.801 0.823l0.003 0.003c0.477 0.515 0.77 1.208 0.77 1.968 0 0.031-0 0.061-0.001 0.092l0-0.004c0.007 0.077 0.012 0.166 0.012 0.256 0 0.71-0.259 1.36-0.687 1.861l0.003-0.004zM79.020 48.838c-1.073 1.108-2.347 2.013-3.765 2.658l-0.077 0.032c-1.318 0.631-2.865 0.999-4.498 0.999-0.019 0-0.039-0-0.058-0h0.003c-3.321-0.048-6.288-1.52-8.328-3.83l-0.011-0.012v0.096c-0.477-0.521-0.769-1.217-0.769-1.982 0-0.019 0-0.038 0.001-0.057v0.003c-0-0.015-0-0.033-0-0.051 0-0.772 0.292-1.476 0.771-2.007l-0.002 0.003c0.439-0.509 1.085-0.829 1.806-0.829 0.040 0 0.081 0.001 0.121 0.003l-0.006-0c0.749 0.038 1.419 0.346 1.922 0.827l-0.001-0.001c1.060 1.183 2.592 1.923 4.298 1.923 0.056 0 0.112-0.001 0.167-0.002l-0.008 0c0.016 0 0.035 0 0.054 0 1.798 0 3.424-0.735 4.594-1.921l0.001-0.001c0.462-0.508 1.126-0.825 1.864-0.825s1.401 0.317 1.862 0.823l0.002 0.002c0.477 0.515 0.77 1.208 0.77 1.968 0 0.031-0 0.061-0.001 0.092l0-0.004c0.008 0.078 0.012 0.168 0.012 0.26 0 0.7-0.251 1.342-0.669 1.839l0.004-0.004z"></path>
</svg>
