
<svg version="1.1" xmlns="http://www.w3.org/2000/svg" width="75" height="100" viewBox="0 0 75 100">
<title>observation-tower</title>
<path fill="param(fill) #000" stroke="param(outline) #000" stroke-width="param(outline-width) 1" d="M14.587 20.833h45.826c1.15-0 2.083-0.933 2.083-2.083 0-0.741-0.387-1.392-0.971-1.762l-0.008-0.005-22.913-16.667c-0.313-0.199-0.695-0.317-1.104-0.317s-0.791 0.118-1.113 0.322l0.009-0.005-22.913 16.667c-0.592 0.374-0.979 1.025-0.979 1.767 0 1.15 0.933 2.083 2.083 2.083v0z"></path>
<path fill="param(fill) #000" stroke="param(outline) #000" stroke-width="param(outline-width) 1" d="M70.833 91.667h-7.656l-7.714-43.75h0.579c0 0 0 0 0.001 0 2.416 0 4.374-1.958 4.374-4.374 0-0 0-0.001 0-0.001v0-18.541h-45.833v18.541c0 0 0 0.001 0 0.001 0 2.416 1.958 4.374 4.374 4.374 0 0 0 0 0.001 0h0.459l-7.714 43.75h-7.537c-0.006 0-0.014-0-0.022-0-1.143 0-2.175 0.47-2.915 1.228l-0.001 0.001c-0.759 0.741-1.229 1.773-1.229 2.916 0 0.008 0 0.015 0 0.023v-0.001c0.007 2.298 1.868 4.16 4.166 4.167h66.667c2.294-0.017 4.149-1.873 4.167-4.165v-0.002c-0.007-2.298-1.868-4.16-4.166-4.167h-0.001zM37.5 77.75l13.917 13.917h-27.833zM21.949 81.551l2.901-16.45 6.775 6.775zM52.906 81.407l-9.531-9.532 6.674-6.674zM23.958 33.333h27.083c1.726 0 3.125 1.399 3.125 3.125s-1.399 3.125-3.125 3.125v0h-27.083c-1.726 0-3.125-1.399-3.125-3.125s1.399-3.125 3.125-3.125v0zM47.001 47.917l1.286 7.296-10.788 10.787-10.889-10.889 1.268-7.195z"></path>
</svg>
