
<svg version="1.1" xmlns="http://www.w3.org/2000/svg" width="101" height="100" viewBox="0 0 101 100">
<title>oil-facility</title>
<path fill="param(fill) #000" stroke="param(outline) #000" stroke-width="param(outline-width) 1" d="M97.399 93.726h-27.678l-14.145-52.783c1.479-1.352 2.52-3.161 2.899-5.202l0.009-0.058 20.668-4.246 4.624 22.504c0.445-0.057 0.889-0.115 1.334-0.206 9.468-1.946 15.613-10.998 13.719-20.194l-4.112-20.003c-1.913-9.21-11.104-15.092-20.562-13.146-0.445 0.091-0.875 0.215-1.305 0.335l4.619 22.485-21.375 4.395c-1.716-1.854-4.162-3.010-6.878-3.010-4.051 0-7.501 2.572-8.805 6.173l-0.021 0.065-23.91 4.911c-0.583-1.652-2.131-2.815-3.95-2.815-2.308 0-4.179 1.871-4.179 4.179 0 0.025 0 0.049 0.001 0.074l-0-0.004v43.994h-4.16c-1.157 0-2.095 0.938-2.095 2.095v0 10.669c-1.23 0.441-2.094 1.597-2.094 2.955 0 1.73 1.402 3.132 3.132 3.132 0.003 0 0.007 0 0.010 0h94.256c1.735 0 3.142-1.407 3.142-3.142s-1.407-3.142-3.142-3.142v0zM44.214 60.205h10.042l3.347 12.567h-16.737zM38.6 81.154h21.246l3.347 12.562h-27.96zM51.989 51.827h-5.533l2.262-8.431c0.172 0 0.33 0.053 0.502 0.053s0.335-0.043 0.507-0.053zM16.737 44.156c0.298-0 0.589-0.032 0.869-0.091l-0.028 0.005 23.771-4.858c0.449 0.663 0.95 1.238 1.513 1.748l0.008 0.007-14.145 52.759h-5.686v-10.472c0-1.157-0.938-2.095-2.095-2.095v0h-4.208z"></path>
</svg>
