
<svg version="1.1" xmlns="http://www.w3.org/2000/svg" width="42" height="100" viewBox="0 0 42 100">
<title>oil</title>
<path fill="param(fill) #000" stroke="param(outline) #000" stroke-width="param(outline-width) 1" d="M29.167 43.071v-11.821c1.149-0.003 2.080-0.934 2.083-2.083v-6.25c-0.003-1.149-0.934-2.080-2.083-2.083h-4.167v-20.315c0-0.465-0.754-0.694-1.185-0.36l-6.952 5.383c-0.115 0.082-0.19 0.213-0.196 0.361v14.93h-4.167c-1.149 0.003-2.080 0.934-2.083 2.083v6.25c0.003 1.149 0.934 2.080 2.083 2.083h0v11.821c-7.382 2.981-12.497 10.086-12.5 18.387v34.375c0 2.301 1.866 4.167 4.167 4.167h33.333c2.301-0 4.167-1.866 4.167-4.167v0-34.375c-0.003-8.301-5.118-15.406-12.367-18.34l-0.133-0.047z"></path>
</svg>
