
<svg version="1.1" xmlns="http://www.w3.org/2000/svg" width="100" height="100" viewBox="0 0 100 100">
<title>out-of-platform</title>
<path fill="param(fill) #000" stroke="param(outline) #000" stroke-width="param(outline-width) 1" d="M68.75 47.188v44.479h-60.417v-50h33.521l18.75-18.75h-56.021c-0.004 0-0.009 0-0.013 0-2.524 0-4.57 2.046-4.57 4.57 0 0.005 0 0.009 0 0.014v-0.001 67.917c0 0.004 0 0.009 0 0.013 0 2.524 2.046 4.57 4.57 4.57 0.005 0 0.009 0 0.014 0h67.916c0.004 0 0.008 0 0.013 0 2.524 0 4.57-2.046 4.57-4.57 0-0.005 0-0.009 0-0.014v0.001-56.563zM23.958 29.167c1.726 0 3.125 1.399 3.125 3.125s-1.399 3.125-3.125 3.125c-1.726 0-3.125-1.399-3.125-3.125v0c0-0.001 0-0.003 0-0.004 0-1.724 1.397-3.121 3.121-3.121 0.002 0 0.003 0 0.005 0h-0zM11.458 29.167c1.726 0 3.125 1.399 3.125 3.125s-1.399 3.125-3.125 3.125c-1.726 0-3.125-1.399-3.125-3.125v0c0-0.001 0-0.003 0-0.004 0-1.724 1.397-3.121 3.121-3.121 0.002 0 0.003 0 0.005 0h-0z"></path>
<path fill="param(fill) #000" stroke="param(outline) #000" stroke-width="param(outline-width) 1" d="M95.833 0h-43.75c-2.301 0-4.167 1.866-4.167 4.167s1.866 4.167 4.167 4.167v0h33.395l-46.907 46.907c-0.788 0.791-1.275 1.882-1.275 3.087 0 2.417 1.959 4.376 4.376 4.376 1.205 0 2.297-0.487 3.088-1.276l46.905-46.905v33.395c0 2.301 1.866 4.167 4.167 4.167s4.167-1.866 4.167-4.167v0-43.75c-0-2.301-1.866-4.167-4.167-4.167v0z"></path>
</svg>
