
<svg version="1.1" xmlns="http://www.w3.org/2000/svg" width="100" height="100" viewBox="0 0 100 100">
<title>partnership</title>
<path fill="param(fill) #000" stroke="param(outline) #000" stroke-width="param(outline-width) 1" d="M20.939 59.307l3.934-3.935c0.599-0.607 1.013-1.398 1.149-2.281l0.003-0.023c0.033-0.205 0.052-0.442 0.052-0.683 0-1.254-0.51-2.389-1.334-3.208l-0-0c-0.583-0.579-1.319-1.005-2.142-1.211l-0.032-0.007c-0.314-0.083-0.674-0.13-1.045-0.13-1.16 0-2.211 0.465-2.977 1.218l-10.803 10.803c-0.752 0.787-1.215 1.855-1.215 3.032 0 1.242 0.515 2.363 1.344 3.162l0.001 0.001c0.822 0.827 1.959 1.342 3.216 1.348h0.001c0 0 0.001 0 0.001 0 1.16 0 2.211-0.465 2.978-1.218l6.869-6.869z"></path>
<path fill="param(fill) #000" stroke="param(outline) #000" stroke-width="param(outline-width) 1" d="M51.242 24.2l-9.217 9.217-3.239 3.217c-1.564 1.558-3.721 2.522-6.103 2.522-0.017 0-0.034-0-0.052-0h0.003c-0.261 0-0.522-0.022-0.783-0.044-0.087 0-0.196-0.022-0.283-0.022-4.328-0.528-7.648-4.18-7.648-8.608 0-2.405 0.979-4.581 2.561-6.151l0-0 18.499-18.477c0.457-0.457 0.935-0.913 1.413-1.326-4.539-2.838-10.053-4.52-15.959-4.52-16.807 0-30.432 13.625-30.432 30.432 0 8.404 3.407 16.013 8.915 21.52l0.261 0.261 6.282-6.282c1.536-1.532 3.656-2.478 5.997-2.478 0.024 0 0.048 0 0.072 0h-0.004c0.013-0 0.029-0 0.045-0 1.599 0 3.097 0.428 4.388 1.175l-0.042-0.023c0.738 0.415 1.374 0.899 1.935 1.457l-0-0c1.088 1.094 1.897 2.467 2.311 4.002l0.014 0.063c0.161 0.614 0.263 1.323 0.282 2.053l0 0.013c0.004 0.087 0.006 0.189 0.006 0.291 0 0.764-0.113 1.502-0.324 2.197l0.014-0.054c0.644-0.193 1.384-0.305 2.15-0.305 0.031 0 0.063 0 0.094 0.001h-0.005c0.008 0 0.018 0 0.027 0 4.86 0 8.812 3.892 8.907 8.73l0 0.009c0.004 0.087 0.006 0.189 0.006 0.291 0 0.764-0.113 1.502-0.324 2.197l0.014-0.054c0.644-0.193 1.384-0.305 2.15-0.305 0.031 0 0.063 0 0.094 0.001h-0.005c0.008 0 0.017 0 0.027 0 4.86 0 8.812 3.892 8.907 8.73l0 0.009c0.004 0.087 0.006 0.189 0.006 0.291 0 0.764-0.113 1.502-0.324 2.197l0.014-0.054c0.644-0.193 1.384-0.305 2.15-0.305 0.031 0 0.063 0 0.094 0.001h-0.005c0.008 0 0.017 0 0.027 0 4.86 0 8.812 3.892 8.907 8.73l0 0.009c0.003 0.079 0.004 0.172 0.004 0.266 0 1.292-0.29 2.516-0.809 3.611l0.022-0.051c0.739 0.312 1.597 0.496 2.498 0.5h0.002c3.6-0.004 6.517-2.924 6.517-6.525 0-1.164-0.305-2.257-0.839-3.203l0.017 0.033c0.979 0.621 2.17 0.989 3.448 0.989 3.593 0 6.506-2.913 6.506-6.506 0-1.283-0.371-2.479-1.013-3.487l0.016 0.026c0.911 0.533 2.005 0.847 3.174 0.848h0c3.599-0.003 6.516-2.922 6.516-6.521 0-1.799-0.729-3.429-1.907-4.608l0 0z"></path>
<path fill="param(fill) #000" stroke="param(outline) #000" stroke-width="param(outline-width) 1" d="M54.133 80.436c-0.238 0-0.471 0.024-0.696 0.069l0.023-0.004c-0.905 0.145-1.695 0.557-2.305 1.153l-10.803 10.803c-0.752 0.787-1.215 1.855-1.215 3.032 0 1.242 0.515 2.363 1.344 3.162l0.001 0.001c0.822 0.827 1.959 1.341 3.216 1.348h0.001c0 0 0.001 0 0.001 0 1.16 0 2.211-0.465 2.978-1.218l10.803-10.803c0.599-0.607 1.013-1.398 1.149-2.281l0.003-0.023c0.031-0.2 0.049-0.431 0.049-0.666 0-2.517-2.033-4.559-4.547-4.573h-0.001z"></path>
<path fill="param(fill) #000" stroke="param(outline) #000" stroke-width="param(outline-width) 1" d="M36.895 63.937c0.031-0.2 0.049-0.431 0.049-0.666 0-2.517-2.033-4.559-4.547-4.573h-0.001c-0.238 0-0.471 0.024-0.696 0.069l0.023-0.004c-0.905 0.145-1.695 0.557-2.305 1.153l-10.803 10.803c-0.752 0.787-1.215 1.855-1.215 3.032 0 1.242 0.515 2.363 1.344 3.162l0.001 0.001c0.822 0.827 1.959 1.342 3.216 1.348h0.001c0 0 0.001 0 0.001 0 1.16 0 2.211-0.465 2.978-1.218l10.803-10.803c0.599-0.607 1.012-1.398 1.149-2.281l0.003-0.023z"></path>
<path fill="param(fill) #000" stroke="param(outline) #000" stroke-width="param(outline-width) 1" d="M47.763 74.806c0.031-0.2 0.049-0.431 0.049-0.666 0-2.517-2.033-4.559-4.547-4.573h-0.001c-0.238 0-0.471 0.024-0.696 0.069l0.023-0.004c-0.905 0.145-1.695 0.557-2.305 1.153l-10.803 10.803c-0.752 0.787-1.215 1.855-1.215 3.032 0 1.242 0.515 2.363 1.344 3.162l0.001 0.001c0.822 0.827 1.959 1.342 3.216 1.348h0.001c0 0 0.001 0 0.001 0 1.16 0 2.211-0.465 2.978-1.218l10.803-10.803c0.599-0.607 1.013-1.398 1.149-2.281l0.003-0.023z"></path>
<path fill="param(fill) #000" stroke="param(outline) #000" stroke-width="param(outline-width) 1" d="M91.087 8.918c-5.504-5.509-13.111-8.917-21.514-8.917-7.475 0-14.321 2.697-19.616 7.171l0.045-0.037c-0.674 0.565-1.326 1.152-1.956 1.783l-18.477 18.477c-0.786 0.788-1.271 1.875-1.271 3.076s0.486 2.288 1.272 3.076l-0-0c0.791 0.779 1.877 1.261 3.076 1.261s2.285-0.481 3.076-1.261l16.021-16.020 36.737 36.737c0.955-0.75 1.806-1.504 2.61-2.305l-0.001 0.001c5.51-5.507 8.918-13.115 8.918-21.52s-3.408-16.014-8.918-21.52l-0-0z"></path>
</svg>
