
<svg version="1.1" xmlns="http://www.w3.org/2000/svg" width="100" height="100" viewBox="0 0 100 100">
<title>pause</title>
<path fill="param(fill) #000" stroke="param(outline) #000" stroke-width="param(outline-width) 1" d="M50 0c-27.614 0-50 22.386-50 50s22.386 50 50 50c27.614 0 50-22.386 50-50v0c0-0.002 0-0.004 0-0.006 0-27.611-22.383-49.994-49.994-49.994-0.002 0-0.004 0-0.007 0h0zM43.182 70.103c0 0 0 0 0 0 0 1.449-1.175 2.624-2.624 2.624-0 0-0 0-0 0h-3.842c-0 0-0 0-0 0-1.449 0-2.624-1.175-2.624-2.624 0 0 0 0 0 0v0-40.206c0-1.449 1.175-2.624 2.624-2.624 0 0 0 0 0 0h3.842c0 0 0 0 0 0 1.449 0 2.624 1.175 2.624 2.624v0zM65.909 70.103c0 0 0 0 0 0 0 1.449-1.175 2.624-2.624 2.624-0 0-0 0-0 0h-3.842c-0 0-0 0-0 0-1.449 0-2.624-1.175-2.624-2.624 0 0 0 0 0 0v0-40.206c0-1.449 1.175-2.624 2.624-2.624 0 0 0 0 0 0h3.842c0 0 0 0 0 0 1.449 0 2.624 1.175 2.624 2.624v0z"></path>
</svg>
