
<svg version="1.1" xmlns="http://www.w3.org/2000/svg" width="96" height="100" viewBox="0 0 96 100">
<title>people-with-physical-impairments</title>
<path fill="param(fill) #000" stroke="param(outline) #000" stroke-width="param(outline-width) 1" d="M81.243 15.551c1.195 0.702 2.632 1.116 4.167 1.116 4.602 0 8.333-3.731 8.333-8.333s-3.731-8.333-8.333-8.333c-3.068 0-5.749 1.658-7.195 4.127l-0.021 0.039c-0.702 1.195-1.116 2.632-1.116 4.167 0 3.068 1.658 5.749 4.127 7.195l0.039 0.021z"></path>
<path fill="param(fill) #000" stroke="param(outline) #000" stroke-width="param(outline-width) 1" d="M62.952 71.316c-0.747-0.341-1.62-0.54-2.54-0.54-2.533 0-4.714 1.509-5.694 3.676l-0.016 0.039c-3.646 7.733-11.371 12.992-20.326 13.008h-0.002c-12.075-0.014-21.86-9.799-21.874-21.873v-0.001c0-11.857 10.494-21.874 22.916-21.874 3.452 0 6.25-2.798 6.25-6.25s-2.798-6.25-6.25-6.25v0c-19.197 0-35.416 15.742-35.416 34.374 0.114 19.009 15.55 34.375 34.575 34.375 13.974 0 26.012-8.29 31.464-20.221l0.088-0.216c0.339-0.746 0.537-1.617 0.537-2.535 0-2.533-1.507-4.715-3.674-5.697l-0.039-0.016z"></path>
<path fill="param(fill) #000" stroke="param(outline) #000" stroke-width="param(outline-width) 1" d="M94.167 49.928c-1.149-1.238-2.785-2.009-4.601-2.009-0.134 0-0.268 0.004-0.4 0.012l0.018-0.001-18.374 1.148 11.535-16.764c0.109-0.176 0.213-0.382 0.302-0.596l0.011-0.029c0.418-0.728 0.665-1.6 0.665-2.529 0-0.974-0.27-1.884-0.74-2.66l0.013 0.023c-0.379-0.616-0.85-1.134-1.403-1.552l-0.014-0.010-7.292-5.062-16.666-11.604c-0.849-0.628-1.916-1.005-3.072-1.005-1.437 0-2.738 0.583-3.678 1.526l-9.375 9.375c-0.937 0.943-1.516 2.242-1.516 3.676 0 2.88 2.335 5.215 5.215 5.215 1.434 0 2.733-0.579 3.676-1.516l6.229-6.229 8.854 6.104-14.583 24.687c-0.657 1.164-1.044 2.557-1.044 4.039 0 4.604 3.732 8.335 8.335 8.335 0 0 0 0 0 0v0l0.113-0.023c0.087-0.002 0.169 0.016 0.256 0.011l25.669-1.604-3.080 21.565c-0.040 0.266-0.063 0.573-0.063 0.885 0 3.452 2.798 6.25 6.25 6.25 3.14 0 5.74-2.316 6.183-5.333l0.004-0.034 4.167-29.166c0.040-0.266 0.063-0.573 0.063-0.886 0-1.638-0.63-3.128-1.662-4.242l0.004 0.004z"></path>
</svg>
