
<svg version="1.1" xmlns="http://www.w3.org/2000/svg" width="141" height="100" viewBox="0 0 141 100">
<title>people-in-need</title>
<path fill="param(fill) #000" stroke="param(outline) #000" stroke-width="param(outline-width) 1" d="M4.419 55.821c0 0 0 0 0.001 0 2.436 0 4.411-1.975 4.411-4.411 0-0 0-0 0-0.001v0c-0-0.035-0-0.075-0-0.116 0-6.603 3.499-12.388 8.744-15.603l0.080-0.046v26.121c0 6.497 5.267 11.765 11.765 11.765s11.765-5.267 11.765-11.765v0-26.114c5.319 3.261 8.814 9.044 8.814 15.642 0 0.041-0 0.081-0 0.122v-0.006c0 2.437 1.975 4.412 4.412 4.412s4.412-1.975 4.412-4.412v0l-0.004-0.077 0.004-0.038c0-0.013-0-0.028-0-0.042 0-3.255 1.112-6.251 2.978-8.627l-0.023 0.030v10.29c0 4.871 3.949 8.82 8.82 8.82s8.82-3.949 8.82-8.82v0-10.294c1.844 2.347 2.957 5.343 2.957 8.6 0 0.015 0 0.030-0 0.045v-0.002c0 0.039-0.006 0.076-0.006 0.115 0 2.437 1.975 4.412 4.412 4.412s4.412-1.975 4.412-4.412v0c0.471-7.509 5.119-13.828 11.629-16.695l0.125-0.049-5.67 21.218c-0.181 0.868-0.285 1.866-0.285 2.887 0 8.152 6.608 14.76 14.76 14.76s14.76-6.608 14.76-14.76c0-1.022-0.104-2.019-0.301-2.983l0.016 0.095-5.632-21.218c6.638 2.916 11.289 9.234 11.762 16.687l0.003 0.057c0 2.437 1.975 4.412 4.412 4.412s4.412-1.975 4.412-4.412v0c0-15.849-12.642-27.802-29.407-27.802-0.248-0.008-0.539-0.012-0.831-0.012-10.303 0-19.358 5.342-24.546 13.407l-0.070 0.116c-3.637-4.775-9.327-7.827-15.729-7.827-6.404 0-12.095 3.053-15.697 7.783l-0.035 0.048c-5.258-8.183-14.314-13.527-24.618-13.527-0.293 0-0.584 0.004-0.875 0.013l0.043-0.001c-16.764 0-29.406 11.953-29.406 27.802 0 0 0 0 0 0.001 0 2.436 1.975 4.411 4.411 4.411 0 0 0 0 0.001 0v0z"></path>
<path fill="param(fill) #000" stroke="param(outline) #000" stroke-width="param(outline-width) 1" d="M120.596 8.824c0 4.873-3.95 8.824-8.824 8.824s-8.824-3.95-8.824-8.824c0-4.873 3.95-8.824 8.824-8.824s8.824 3.95 8.824 8.824z"></path>
<path fill="param(fill) #000" stroke="param(outline) #000" stroke-width="param(outline-width) 1" d="M38.241 8.824c0 4.873-3.95 8.824-8.824 8.824s-8.824-3.95-8.824-8.824c0-4.873 3.95-8.824 8.824-8.824s8.824 3.95 8.824 8.824z"></path>
<path fill="param(fill) #000" stroke="param(outline) #000" stroke-width="param(outline-width) 1" d="M70.594 23.529c4.069-0 7.368-3.299 7.368-7.368s-3.299-7.368-7.368-7.368c-4.069 0-7.368 3.299-7.368 7.368 0 0 0 0 0 0v0c0 0 0 0 0 0 0 4.069 3.299 7.368 7.368 7.368 0 0 0 0 0 0v0z"></path>
<path fill="param(fill) #000" stroke="param(outline) #000" stroke-width="param(outline-width) 1" d="M135.294 88.235h-129.412c-3.249 0-5.882 2.634-5.882 5.882s2.634 5.882 5.882 5.882v0h129.412c3.249 0 5.882-2.634 5.882-5.882s-2.634-5.882-5.882-5.882v0z"></path>
</svg>
