
<svg version="1.1" xmlns="http://www.w3.org/2000/svg" width="100" height="100" viewBox="0 0 100 100">
<title>people-targeted</title>
<path fill="param(fill) #000" stroke="param(outline) #000" stroke-width="param(outline-width) 1" d="M79.167 64.638c-0.175-0.005-0.382-0.008-0.589-0.008-7.298 0-13.712 3.784-17.387 9.497l-0.049 0.082c-2.577-3.383-6.607-5.544-11.141-5.544-4.536 0-8.567 2.162-11.119 5.513l-0.025 0.034c-3.724-5.796-10.139-9.582-17.438-9.582-0.207 0-0.414 0.003-0.62 0.009l0.030-0.001c-11.874 0-20.829 8.467-20.829 19.693 0 1.726 1.399 3.125 3.125 3.125s3.125-1.399 3.125-3.125v0c-0-0.024-0-0.053-0-0.082 0-4.677 2.478-8.775 6.193-11.052l0.057-0.032v18.502c0 4.602 3.731 8.333 8.333 8.333s8.333-3.731 8.333-8.333v0-18.497c3.768 2.31 6.243 6.406 6.243 11.080 0 0.029-0 0.057-0 0.086v-0.004c0 1.726 1.399 3.125 3.125 3.125s3.125-1.399 3.125-3.125v0l-0.003-0.054 0.003-0.027c0-0.009 0-0.019 0-0.030 0-2.306 0.788-4.428 2.109-6.111l-0.016 0.021v7.289c0 3.45 2.797 6.247 6.247 6.247s6.247-2.797 6.247-6.247v-7.291c1.306 1.662 2.095 3.785 2.095 6.092 0 0.011 0 0.021-0 0.032v-0.002c-0 0.027-0.004 0.054-0.004 0.081 0 1.726 1.399 3.125 3.125 3.125s3.125-1.399 3.125-3.125v0c-0-0.017-0-0.038-0-0.058 0-5.189 3.032-9.67 7.421-11.768l0.079-0.034-3.197 15.029c-0.127 0.612-0.2 1.315-0.2 2.035 0 5.78 4.685 10.465 10.465 10.465s10.465-4.685 10.465-10.465c0-0.735-0.076-1.453-0.22-2.146l0.012 0.068-3.166-14.986c4.468 2.132 7.5 6.613 7.5 11.803 0 0.020 0 0.041-0 0.061v-0.003c0 1.726 1.399 3.125 3.125 3.125s3.125-1.399 3.125-3.125v0c0-11.226-8.955-19.693-20.83-19.693z"></path>
<path fill="param(fill) #000" stroke="param(outline) #000" stroke-width="param(outline-width) 1" d="M85.417 54.167c0 3.452-2.798 6.25-6.25 6.25s-6.25-2.798-6.25-6.25c0-3.452 2.798-6.25 6.25-6.25s6.25 2.798 6.25 6.25z"></path>
<path fill="param(fill) #000" stroke="param(outline) #000" stroke-width="param(outline-width) 1" d="M27.082 54.167c0 3.452-2.798 6.25-6.25 6.25s-6.25-2.798-6.25-6.25c0-3.452 2.798-6.25 6.25-6.25s6.25 2.798 6.25 6.25z"></path>
<path fill="param(fill) #000" stroke="param(outline) #000" stroke-width="param(outline-width) 1" d="M49.998 64.583c2.882 0 5.219-2.337 5.219-5.219s-2.337-5.219-5.219-5.219c-2.882 0-5.219 2.337-5.219 5.219 0 0 0 0 0 0v0c0 2.882 2.337 5.219 5.219 5.219 0 0 0 0 0 0v0z"></path>
<path fill="param(fill) #000" stroke="param(outline) #000" stroke-width="param(outline-width) 1" d="M30.052 32.418c0.565 0.566 1.347 0.916 2.21 0.916 0.861 0 1.64-0.348 2.205-0.912l8.36-8.333c0.568-0.566 0.919-1.349 0.919-2.214 0-1.726-1.399-3.125-3.125-3.125-0.861 0-1.64 0.348-2.205 0.911l0-0-3.003 3.255v-19.792c0-1.726-1.399-3.125-3.125-3.125s-3.125 1.399-3.125 3.125v0l0.004 19.792-3.003-3.251c-0.565-0.566-1.347-0.916-2.209-0.916s-1.644 0.35-2.209 0.916v0c-0.566 0.57-0.916 1.356-0.916 2.223s0.35 1.653 0.916 2.223l-0-0z"></path>
<path fill="param(fill) #000" stroke="param(outline) #000" stroke-width="param(outline-width) 1" d="M65.468 32.418c0.565 0.566 1.347 0.916 2.21 0.916 0.861 0 1.64-0.348 2.205-0.912l8.36-8.333c0.568-0.566 0.919-1.349 0.919-2.214 0-1.726-1.399-3.125-3.125-3.125-0.861 0-1.64 0.348-2.205 0.911l0-0-3.003 3.255v-19.792c0-1.726-1.399-3.125-3.125-3.125s-3.125 1.399-3.125 3.125v0 19.792l-2.999-3.251c-0.565-0.566-1.347-0.916-2.209-0.916s-1.644 0.35-2.209 0.916v0c-0.566 0.57-0.916 1.356-0.916 2.223s0.35 1.653 0.916 2.223l-0-0z"></path>
</svg>
