
<svg version="1.1" xmlns="http://www.w3.org/2000/svg" width="100" height="100" viewBox="0 0 100 100">
<title>permanent-camp</title>
<path fill="param(fill) #000" stroke="param(outline) #000" stroke-width="param(outline-width) 1" d="M2.086 87.5h95.831c1.151 0 2.083 0.933 2.083 2.083v8.333c0 1.151-0.933 2.083-2.083 2.083h-95.831c-1.151 0-2.083-0.933-2.083-2.083v-8.333c0-1.151 0.933-2.083 2.083-2.083z"></path>
<path fill="param(fill) #000" stroke="param(outline) #000" stroke-width="param(outline-width) 1" d="M11.327 36.579l0.005 0.007 0.029 0.019c0.276 0.271 0.602 0.491 0.964 0.645l0.020 0.008c0.028 0.012 0.057 0.016 0.085 0.026 0.32 0.129 0.691 0.205 1.080 0.211h0.002l0.031 0.006 0.028-0.005c0.394-0.005 0.768-0.083 1.112-0.22l-0.021 0.007c0.025-0.010 0.051-0.013 0.076-0.023 0.388-0.164 0.72-0.388 1-0.664l-0 0 0.016-0.011 0.005-0.008 10.411-10.411c0.566-0.566 0.915-1.347 0.915-2.21 0-1.726-1.399-3.125-3.125-3.125-0.863 0-1.644 0.35-2.21 0.915l-5.082 5.082v-23.705c0-1.726-1.399-3.125-3.125-3.125s-3.125 1.399-3.125 3.125v0 23.708l-5.084-5.085c-0.566-0.566-1.347-0.915-2.21-0.915-1.726 0-3.125 1.399-3.125 3.125 0 0.863 0.35 1.644 0.915 2.21v0z"></path>
<path fill="param(fill) #000" stroke="param(outline) #000" stroke-width="param(outline-width) 1" d="M25.69 45.147l-4.854 36.103h37.499v-20.229c0.012-0.336 0.287-0.604 0.625-0.604 0.23 0 0.431 0.124 0.54 0.309l0.002 0.003 11.333 20.521h27.083l-4.854-36.103c-0.114-0.865-0.568-1.607-1.221-2.098l-0.008-0.006-30.374-23.583c-0.571-0.438-1.296-0.703-2.083-0.703s-1.512 0.264-2.092 0.709l0.008-0.006-30.374 23.583c-0.661 0.497-1.116 1.239-1.227 2.088l-0.002 0.016z"></path>
</svg>
