
<svg version="1.1" xmlns="http://www.w3.org/2000/svg" width="54" height="100" viewBox="0 0 54 100">
<title>person-1</title>
<path fill="param(fill) #000" stroke="param(outline) #000" stroke-width="param(outline-width) 1" d="M27.083 20.833c-15.708 0-27.083 10.521-27.083 25 0 2.301 1.866 4.167 4.167 4.167s4.167-1.866 4.167-4.167v0c0-6.724 4.305-12.443 10.309-14.55l0.108-0.033-8.333 39.583c-0.005 0.052-0.008 0.113-0.008 0.175 0 1.059 0.858 1.917 1.917 1.917 0.062 0 0.122-0.003 0.182-0.009l-0.008 0.001h4.167v22.917c0 2.301 1.866 4.167 4.167 4.167s4.167-1.866 4.167-4.167v0-22.917h4.167v22.917c0 2.301 1.866 4.167 4.167 4.167s4.167-1.866 4.167-4.167v0-22.917h4.167c0.052 0.005 0.113 0.008 0.175 0.008 1.059 0 1.917-0.858 1.917-1.917 0-0.062-0.003-0.122-0.009-0.182l0.001 0.008-8.333-39.583c6.064 2.208 10.332 7.886 10.417 14.573l0 0.010c0 2.301 1.866 4.167 4.167 4.167s4.167-1.866 4.167-4.167v0c0-14.479-11.396-25-27.083-25z"></path>
<path fill="param(fill) #000" stroke="param(outline) #000" stroke-width="param(outline-width) 1" d="M35.396 8.333c0 4.602-3.731 8.333-8.333 8.333s-8.333-3.731-8.333-8.333c0-4.602 3.731-8.333 8.333-8.333s8.333 3.731 8.333 8.333z"></path>
</svg>
