
<svg version="1.1" xmlns="http://www.w3.org/2000/svg" width="54" height="100" viewBox="0 0 54 100">
<title>person-2</title>
<path fill="param(fill) #000" stroke="param(outline) #000" stroke-width="param(outline-width) 1" d="M27.065 20.833c-15.682 0-27.065 10.514-27.065 25 0 2.301 1.866 4.167 4.167 4.167s4.167-1.866 4.167-4.167v0c-0.002-0.102-0.004-0.222-0.004-0.342 0-6.078 3.317-11.382 8.239-14.199l0.080-0.042v64.583c0 2.301 1.866 4.167 4.167 4.167s4.167-1.866 4.167-4.167v0-31.25h4.167v31.25c0 2.301 1.866 4.167 4.167 4.167s4.167-1.866 4.167-4.167v0-64.586c5.008 2.858 8.329 8.165 8.329 14.246 0 0.119-0.001 0.239-0.004 0.358l0-0.018c0 2.301 1.866 4.167 4.167 4.167s4.167-1.866 4.167-4.167v0c0-14.486-11.387-25-27.075-25z"></path>
<path fill="param(fill) #000" stroke="param(outline) #000" stroke-width="param(outline-width) 1" d="M35.398 8.333c0 4.602-3.731 8.333-8.333 8.333s-8.333-3.731-8.333-8.333c0-4.602 3.731-8.333 8.333-8.333s8.333 3.731 8.333 8.333z"></path>
</svg>
