
<svg version="1.1" xmlns="http://www.w3.org/2000/svg" width="100" height="100" viewBox="0 0 100 100">
<title>plastic-sheeting</title>
<path fill="param(fill) #000" stroke="param(outline) #000" stroke-width="param(outline-width) 1" d="M84.091 0h-71.977c-6.716 0.12-12.115 5.592-12.115 12.326 0 0.061 0 0.122 0.001 0.183l-0-0.009v85.409c-0 0.010-0 0.022-0 0.034 0 1.124 0.902 2.038 2.021 2.057h34.343v-27.273c0-0.001 0-0.002 0-0.002 0-5.019 4.069-9.088 9.088-9.088 0.001 0 0.002 0 0.003 0h27.273v-31.818h11.364c8.786 0 15.909-7.123 15.909-15.909s-7.123-15.909-15.909-15.909v0zM9.75 30.205l13.636-13.636c0.413-0.413 0.983-0.668 1.614-0.668 1.26 0 2.282 1.022 2.282 2.282 0 0.63-0.255 1.201-0.668 1.614v0l-13.636 13.636c-0.415 0.408-0.985 0.659-1.614 0.659s-1.198-0.252-1.614-0.659l0 0c-0.411-0.414-0.665-0.984-0.665-1.614s0.254-1.2 0.665-1.614l-0 0zM44.795 24.341l-36.364 36.364c-0.415 0.408-0.985 0.659-1.614 0.659s-1.198-0.252-1.614-0.659l0 0c-0.411-0.414-0.665-0.984-0.665-1.614s0.254-1.2 0.665-1.614l36.364-36.364c0.414-0.419 0.988-0.678 1.623-0.678 1.26 0 2.282 1.022 2.282 2.282 0 0.635-0.259 1.209-0.677 1.623l-0 0zM72.727 27.273v-0.25c0.073 0.095 0.155 0.177 0.247 0.248l0.003 0.002zM84.091 25c-5.021 0-9.091-4.070-9.091-9.091s4.070-9.091 9.091-9.091c5.021 0 9.091 4.070 9.091 9.091v0c0 0.001 0 0.002 0 0.002 0 5.019-4.069 9.088-9.088 9.088-0.001 0-0.002 0-0.003 0h0z"></path>
<path fill="param(fill) #000" stroke="param(outline) #000" stroke-width="param(outline-width) 1" d="M40.909 72.727v27.273l31.818-31.818h-27.273c-2.507 0.008-4.538 2.038-4.545 4.545v0.001z"></path>
</svg>
