
<svg version="1.1" xmlns="http://www.w3.org/2000/svg" width="67" height="100" viewBox="0 0 67 100">
<title>police-station</title>
<path fill="param(fill) #000" stroke="param(outline) #000" stroke-width="param(outline-width) 1" d="M62.5 12.5h-58.333c-2.298 0.007-4.16 1.868-4.167 4.166v45.834h66.667v-45.833c-0.007-2.298-1.868-4.16-4.166-4.167h-0.001zM47.917 41.667c0 0.012 0 0.027 0 0.042 0 2.016-0.414 3.935-1.161 5.677l0.036-0.094c0 0.003 0.001 0.006 0.001 0.009 0 0.021-0.008 0.039-0.021 0.053v0c-2.279 5.273-7.435 8.896-13.437 8.896s-11.158-3.623-13.401-8.801l-0.036-0.095c-0.013-0.014-0.021-0.033-0.021-0.053 0-0.003 0-0.007 0.001-0.010v0c-0.712-1.648-1.125-3.568-1.125-5.583 0-0.015 0-0.029 0-0.044v0.002-17.188c0.013-0.944 0.644-1.738 1.506-1.996l0.015-0.004 12.5-3.563c0.169-0.050 0.362-0.078 0.563-0.078s0.394 0.029 0.577 0.082l-0.015-0.004 12.5 3.563c0.877 0.262 1.508 1.056 1.521 1.999v0.001z"></path>
<path fill="param(fill) #000" stroke="param(outline) #000" stroke-width="param(outline-width) 1" d="M12.5 8.333h41.667c2.301 0 4.167-1.866 4.167-4.167s-1.866-4.167-4.167-4.167v0h-41.667c-2.301 0-4.167 1.866-4.167 4.167s1.866 4.167 4.167 4.167v0z"></path>
<path fill="param(fill) #000" stroke="param(outline) #000" stroke-width="param(outline-width) 1" d="M0 100h25v-20.833c0.007-2.298 1.868-4.16 4.166-4.167h8.334c2.298 0.007 4.16 1.868 4.167 4.166v20.834h25v-33.333h-66.667z"></path>
<path fill="param(fill) #000" stroke="param(outline) #000" stroke-width="param(outline-width) 1" d="M40.583 34.646l-3.917-0.083c-0.474-0.010-0.871-0.329-0.998-0.763l-0.002-0.008-1.292-3.854c-0.143-0.448-0.555-0.766-1.042-0.766s-0.899 0.318-1.040 0.758l-0.002 0.008-1.292 3.854c-0.129 0.442-0.526 0.76-0.999 0.771h-0.001l-3.917 0.083c-0.607 0.041-1.083 0.543-1.083 1.156 0 0.366 0.17 0.692 0.435 0.905l0.002 0.002 3.125 2.479c0.261 0.217 0.426 0.542 0.426 0.906 0 0.123-0.019 0.241-0.054 0.352l0.002-0.008-1.125 3.917c-0.037 0.106-0.058 0.229-0.058 0.356 0 0.614 0.498 1.112 1.113 1.112 0.237 0 0.456-0.074 0.637-0.2l-0.004 0.002 3.208-2.333c0.173-0.127 0.39-0.203 0.625-0.203s0.452 0.076 0.628 0.205l-0.003-0.002 3.208 2.333c0.177 0.124 0.396 0.198 0.633 0.198 0.614 0 1.113-0.498 1.113-1.113 0-0.127-0.021-0.25-0.061-0.364l0.002 0.008-1.125-3.917c-0.033-0.103-0.051-0.221-0.051-0.344 0-0.364 0.165-0.689 0.425-0.904l0.002-0.002 3.125-2.479c0.267-0.214 0.437-0.541 0.437-0.907 0-0.613-0.476-1.115-1.079-1.156l-0.004-0z"></path>
</svg>
