
<svg version="1.1" xmlns="http://www.w3.org/2000/svg" width="114" height="100" viewBox="0 0 114 100">
<title>policy</title>
<path fill="param(fill) #000" stroke="param(outline) #000" stroke-width="param(outline-width) 1" d="M112.191 0h-66.953c-1.245 0.042-2.239 1.062-2.239 2.314 0 0.024 0 0.047 0.001 0.071l-0-0.003v10.786l2.238 0.452c4.132 0.882 7.187 4.501 7.19 8.833v0l0.095 28.667c0.001 0.116 0.002 0.252 0.002 0.389 0 8.475-3.101 16.225-8.23 22.179l0.037-0.044c-0.429 0.5-0.881 0.976-1.333 1.429v22.548c-0.001 0.020-0.001 0.044-0.001 0.067 0 1.252 0.994 2.272 2.235 2.313l0.004 0h47.762v-14.286c0.012-3.94 3.203-7.131 7.142-7.143h14.287v-76.19c0.001-0.020 0.001-0.044 0.001-0.067 0-1.252-0.994-2.271-2.235-2.313l-0.004-0zM95.286 69.048h-33.143c-1.315 0-2.381-1.066-2.381-2.381s1.066-2.381 2.381-2.381v0h33.143c1.315 0 2.381 1.066 2.381 2.381s-1.066 2.381-2.381 2.381v0zM95.286 54.762h-33.143c-1.315 0-2.381-1.066-2.381-2.381s1.066-2.381 2.381-2.381v0h33.143c1.315 0 2.381 1.066 2.381 2.381s-1.066 2.381-2.381 2.381v0zM95.286 40.476h-33.143c-1.315 0-2.381-1.066-2.381-2.381s1.066-2.381 2.381-2.381v0h33.143c1.315 0 2.381 1.066 2.381 2.381s-1.066 2.381-2.381 2.381v0zM95.286 26.19h-33.143c-1.315 0-2.381-1.066-2.381-2.381s1.066-2.381 2.381-2.381v0h33.143c1.315 0 2.381 1.066 2.381 2.381s-1.066 2.381-2.381 2.381v0z"></path>
<path fill="param(fill) #000" stroke="param(outline) #000" stroke-width="param(outline-width) 1" d="M100.143 83.333c-1.313 0.004-2.377 1.068-2.381 2.381v14.286l16.667-16.667h-14.286z"></path>
<path fill="param(fill) #000" stroke="param(outline) #000" stroke-width="param(outline-width) 1" d="M47.762 51.143l-0.095-28.69c0-0.011 0-0.024 0-0.037 0-2.025-1.426-3.717-3.329-4.125l-0.028-0.005-19.69-3.929c-0.239-0.045-0.514-0.071-0.795-0.071-0.005 0-0.010 0-0.015 0h0.001c-0.287 0.001-0.567 0.027-0.839 0.076l0.029-0.004-19.666 4.048c-1.921 0.433-3.334 2.124-3.334 4.146 0 0.016 0 0.032 0 0.047v-0.002l0.071 28.69c0.048 15.095 10.929 27.286 23.857 27.286h0.071c8.034-0.254 15.005-4.579 18.943-10.972l0.057-0.1c2.986-4.559 4.763-10.144 4.763-16.143 0-0.075-0-0.15-0.001-0.225l0 0.012z"></path>
</svg>
