
<svg version="1.1" xmlns="http://www.w3.org/2000/svg" width="112" height="100" viewBox="0 0 112 100">
<title>population-return</title>
<path fill="param(fill) #000" stroke="param(outline) #000" stroke-width="param(outline-width) 1" d="M90.477 72.047c0.083 0.006 0.163 0.025 0.248 0.025 0.007 0 0.014 0 0.022 0 11.556 0 20.925-9.368 20.925-20.925s-9.368-20.925-20.925-20.925c-0.008 0-0.016 0-0.023 0l-22.101 0.003c-1.927 0-3.489 1.562-3.489 3.489s1.562 3.489 3.489 3.489v0l22.103-0.003c0.005 0 0.012 0 0.018 0 7.702 0 13.946 6.244 13.946 13.946s-6.244 13.946-13.946 13.946c-0.006 0-0.013 0-0.019 0h0.001c-0.141 0.006-0.273 0.020-0.403 0.041l0.020-0.003c-0.083-0.006-0.163-0.025-0.248-0.025h-8.372l9.659-9.659c0.634-0.632 1.027-1.506 1.027-2.472 0-1.927-1.562-3.489-3.489-3.489-0.966 0-1.84 0.392-2.472 1.027l-15.616 15.615c-0.632 0.631-1.022 1.504-1.022 2.467s0.391 1.836 1.022 2.467l15.616 15.616c0.632 0.634 1.506 1.027 2.472 1.027 1.927 0 3.489-1.562 3.489-3.489 0-0.966-0.392-1.84-1.027-2.472l-9.659-9.659h8.371c0.141-0.006 0.273-0.020 0.403-0.041l-0.020 0.003z"></path>
<path fill="param(fill) #000" stroke="param(outline) #000" stroke-width="param(outline-width) 1" d="M69.317 6.398c-1.26-3.746-4.74-6.395-8.838-6.395-5.139 0-9.305 4.166-9.305 9.305s4.166 9.305 9.305 9.305c1.041 0 2.041-0.171 2.975-0.486l-0.066 0.019c3.745-1.26 6.395-4.74 6.395-8.838 0-1.040-0.171-2.041-0.486-2.975l0.019 0.066z"></path>
<path fill="param(fill) #000" stroke="param(outline) #000" stroke-width="param(outline-width) 1" d="M48.233 54.668l9.145-18.12c0.763-1.48 1.211-3.231 1.211-5.086 0-4.38-2.494-8.177-6.139-10.049l-0.063-0.030-5.947-3.001c-0.284-0.144-0.615-0.266-0.961-0.349l-0.031-0.006c-3.897-1.751-8.447-2.772-13.236-2.772-12.713 0-23.746 7.192-29.253 17.729l-0.087 0.182c-0.332 0.636-0.526 1.389-0.526 2.187 0 2.657 2.154 4.81 4.81 4.81 1.855 0 3.465-1.050 4.267-2.588l0.013-0.027c3.964-7.593 11.78-12.687 20.786-12.687 1.034 0 2.053 0.067 3.052 0.197l-0.118-0.012-34.626 67.891c-0.335 0.642-0.531 1.402-0.531 2.208 0 2.682 2.174 4.855 4.855 4.855 1.877 0 3.506-1.066 4.314-2.625l0.013-0.027 21.033-41.241 10.411 5.254c7.381 4.081 12.296 11.82 12.296 20.706 0 3.959-0.976 7.69-2.7 10.966l0.062-0.129c-0.347 0.651-0.55 1.424-0.55 2.245 0 2.681 2.173 4.854 4.854 4.854 1.867 0 3.487-1.053 4.299-2.598l0.013-0.027c2.346-4.443 3.723-9.712 3.723-15.302 0-11.321-5.649-21.323-14.282-27.34l-0.109-0.072z"></path>
</svg>
