
<svg version="1.1" xmlns="http://www.w3.org/2000/svg" width="79" height="100" viewBox="0 0 79 100">
<title>port</title>
<path fill="param(fill) #000" stroke="param(outline) #000" stroke-width="param(outline-width) 1" d="M77.336 68.498c-1.131-1.131-2.693-1.831-4.419-1.831s-3.288 0.7-4.419 1.831v0c-5.987 5.729-13.797 9.597-22.475 10.65l-0.19 0.019v-29.167h14.583c3.452 0 6.25-2.798 6.25-6.25s-2.798-6.25-6.25-6.25v0h-14.583v-14.188c3.763-2.201 6.25-6.223 6.25-10.825 0-6.904-5.596-12.5-12.5-12.5s-12.5 5.596-12.5 12.5c0 4.602 2.487 8.624 6.191 10.793l0.059 0.032v14.188h-14.583c-3.452 0-6.25 2.798-6.25 6.25s2.798 6.25 6.25 6.25v0h14.583v29.167c-8.868-1.072-16.678-4.94-22.679-10.683l0.015 0.014c-1.131-1.131-2.693-1.83-4.419-1.83-3.451 0-6.249 2.798-6.249 6.249 0 1.726 0.7 3.288 1.83 4.419v0c8.259 7.969 19.18 13.227 31.302 14.317l0.2 0.014v2.083c0 3.452 2.798 6.25 6.25 6.25s6.25-2.798 6.25-6.25v0-2.083c12.322-1.104 23.243-6.363 31.518-14.346l-0.015 0.015c1.131-1.131 1.831-2.693 1.831-4.419s-0.7-3.288-1.831-4.419v0zM39.583 8.333c2.301 0 4.167 1.866 4.167 4.167s-1.866 4.167-4.167 4.167c-2.301 0-4.167-1.866-4.167-4.167v0c0.007-2.298 1.868-4.16 4.166-4.167h0.001z"></path>
</svg>
