
<svg version="1.1" xmlns="http://www.w3.org/2000/svg" width="100" height="100" viewBox="0 0 100 100">
<title>port-not-affected</title>
<path fill="param(fill) #000" stroke="param(outline) #000" stroke-width="param(outline-width) 1" d="M41.667 20.833c0-11.506-9.327-20.833-20.833-20.833s-20.833 9.327-20.833 20.833c0 11.506 9.327 20.833 20.833 20.833v0c11.504-0.004 20.829-9.329 20.833-20.833v-0zM16.667 29.167c-0.576-0.002-1.097-0.232-1.48-0.605l-6.25-6.25c-0.379-0.379-0.613-0.902-0.613-1.479 0-1.155 0.937-2.092 2.092-2.092 0.578 0 1.101 0.234 1.479 0.613v0l4.875 4.896 13.125-11.25c0.36-0.306 0.831-0.493 1.345-0.493 1.151 0 2.083 0.933 2.083 2.083 0 0.628-0.278 1.192-0.718 1.574l-0.003 0.002-14.583 12.5c-0.362 0.31-0.836 0.499-1.354 0.5h-0z"></path>
<path fill="param(fill) #000" stroke="param(outline) #000" stroke-width="param(outline-width) 1" d="M98.169 70.581c-1.131-1.131-2.693-1.831-4.419-1.831s-3.288 0.7-4.419 1.831v0c-5.95 5.947-13.737 10.056-22.437 11.406l-0.228 0.029v-27.849h14.583c3.452 0 6.25-2.798 6.25-6.25s-2.798-6.25-6.25-6.25v0h-14.583v-14.583c3.743-2.033 6.243-5.932 6.25-10.416v-0.001c0-6.904-5.596-12.5-12.5-12.5s-12.5 5.596-12.5 12.5v0c0.007 4.485 2.507 8.384 6.188 10.386l0.062 0.031v14.583h-14.583c-3.452 0-6.25 2.798-6.25 6.25s2.798 6.25 6.25 6.25v0h14.583v27.849c-8.927-1.379-16.714-5.488-22.665-11.435l0 0c-1.131-1.131-2.693-1.83-4.419-1.83-3.451 0-6.249 2.798-6.249 6.249 0 1.726 0.7 3.288 1.83 4.419v0c8.232 8.244 19.159 13.795 31.346 15.221l0.249 0.024c0.448 3.034 3.034 5.336 6.158 5.336s5.71-2.302 6.154-5.303l0.004-0.034c12.436-1.449 23.362-7.001 31.594-15.244l0.001-0.001c1.131-1.131 1.831-2.693 1.831-4.419s-0.7-3.288-1.831-4.419v0zM60.417 20.833c-2.301 0-4.167-1.866-4.167-4.167s1.866-4.167 4.167-4.167c2.301 0 4.167 1.866 4.167 4.167v0c-0.007 2.298-1.868 4.16-4.166 4.167h-0.001z"></path>
</svg>
