
<svg version="1.1" xmlns="http://www.w3.org/2000/svg" width="73" height="100" viewBox="0 0 73 100">
<title>potable-water-source</title>
<path fill="param(fill) #000" stroke="param(outline) #000" stroke-width="param(outline-width) 1" d="M36.38 38.636c0.001 0 0.002 0 0.002 0 5.019 0 9.088-4.069 9.088-9.088 0-0.001 0-0.002 0-0.003v0c0-4.318-6.727-13.091-8.614-15.659-0.104-0.155-0.279-0.256-0.477-0.256s-0.373 0.101-0.476 0.254l-0.001 0.002c-1.886 2.568-8.614 11.341-8.614 15.659 0 0.001 0 0.002 0 0.002 0 5.019 4.069 9.088 9.088 9.088 0.001 0 0.002 0 0.003 0h-0z"></path>
<path fill="param(fill) #000" stroke="param(outline) #000" stroke-width="param(outline-width) 1" d="M70.44 0h-68.136c-0.034-0.002-0.074-0.003-0.114-0.003-1.206 0-2.183 0.977-2.183 2.183 0 0.025 0 0.049 0.001 0.074l-0-0.004 8.409 92.023c0.467 3.257 3.238 5.732 6.588 5.732 0.089 0 0.178-0.002 0.266-0.005l-0.013 0h42.227c0.075 0.003 0.164 0.005 0.253 0.005 3.349 0 6.12-2.475 6.583-5.696l0.004-0.036 8.409-92.023c0.001-0.021 0.001-0.046 0.001-0.070 0-1.206-0.977-2.183-2.183-2.183-0.040 0-0.080 0.001-0.119 0.003l0.005-0zM59.599 46c-1.71-0.347-3.676-0.546-5.689-0.546-0.077 0-0.155 0-0.232 0.001l0.012-0c-0.174-0.004-0.379-0.007-0.584-0.007-4.181 0-8.133 0.984-11.635 2.734l0.151-0.068c-2.295 1.193-5.011 1.893-7.89 1.893-0.175 0-0.348-0.003-0.522-0.008l0.025 0.001c-0.144 0.004-0.312 0.007-0.482 0.007-2.877 0-5.59-0.7-7.978-1.939l0.097 0.046c-3.343-1.678-7.284-2.661-11.455-2.661-0.112 0-0.223 0.001-0.335 0.002l0.017-0-3.318-36.364h53.182z"></path>
</svg>
