
<svg version="1.1" xmlns="http://www.w3.org/2000/svg" width="100" height="100" viewBox="0 0 100 100">
<title>power-electricity-affected</title>
<path fill="param(fill) #000" stroke="param(outline) #000" stroke-width="param(outline-width) 1" d="M97.917 27.083h-8.333v-22.917c0-2.301-1.866-4.167-4.167-4.167s-4.167 1.866-4.167 4.167v0 22.917h-16.667v-22.917c0-2.301-1.866-4.167-4.167-4.167s-4.167 1.866-4.167 4.167v0 22.917h-8.333c-1.151 0-2.083 0.933-2.083 2.083v0 16.667c0.079 10.64 5.865 19.912 14.445 24.914l0.138 0.074v6.262c0 1.151 0.933 2.083 2.083 2.083v0h4.167v20.833h12.5v-20.833h4.167c1.151 0 2.083-0.933 2.083-2.083v0-6.262c8.718-5.076 14.504-14.348 14.583-24.977l0-0.011v-16.667c0-1.151-0.933-2.083-2.083-2.083v0z"></path>
<path fill="param(fill) #000" stroke="param(outline) #000" stroke-width="param(outline-width) 1" d="M20.833 0c-11.506 0-20.833 9.327-20.833 20.833s9.327 20.833 20.833 20.833c11.506 0 20.833-9.327 20.833-20.833v0c-0.004-11.504-9.329-20.829-20.833-20.833h-0zM20.833 35.417c-1.151 0-2.083-0.933-2.083-2.083s0.933-2.083 2.083-2.083c1.151 0 2.083 0.933 2.083 2.083v0c-0.003 1.149-0.934 2.080-2.083 2.083h-0zM22.917 25c0 1.151-0.933 2.083-2.083 2.083s-2.083-0.933-2.083-2.083v0-16.667c0-1.151 0.933-2.083 2.083-2.083s2.083 0.933 2.083 2.083v0z"></path>
</svg>
