
<svg version="1.1" xmlns="http://www.w3.org/2000/svg" width="100" height="100" viewBox="0 0 100 100">
<title>power-outage</title>
<path fill="param(fill) #000" stroke="param(outline) #000" stroke-width="param(outline-width) 1" d="M97.917 27.083h-8.333v-22.917c0-2.301-1.866-4.167-4.167-4.167s-4.167 1.866-4.167 4.167v0 22.917h-16.667v-22.917c0-2.301-1.866-4.167-4.167-4.167s-4.167 1.866-4.167 4.167v0 22.917h-8.333c-1.151 0-2.083 0.933-2.083 2.083v0 16.667c0.079 10.64 5.865 19.912 14.445 24.914l0.138 0.074v6.262c0 1.151 0.933 2.083 2.083 2.083v0h4.167v20.833h12.5v-20.833h4.167c1.151 0 2.083-0.933 2.083-2.083v0-6.262c8.718-5.076 14.504-14.348 14.583-24.977l0-0.011v-16.667c0-1.151-0.933-2.083-2.083-2.083v0z"></path>
<path fill="param(fill) #000" stroke="param(outline) #000" stroke-width="param(outline-width) 1" d="M20.833 0c-11.506 0-20.833 9.327-20.833 20.833s9.327 20.833 20.833 20.833c11.506 0 20.833-9.327 20.833-20.833v0c-0.004-11.504-9.329-20.829-20.833-20.833h-0zM30.646 27.688c0.377 0.379 0.61 0.902 0.61 1.479s-0.233 1.1-0.61 1.479l0-0c-0.381 0.374-0.903 0.604-1.479 0.604s-1.098-0.231-1.479-0.605l-6.854-6.854-6.854 6.854c-0.381 0.374-0.903 0.604-1.479 0.604s-1.098-0.231-1.479-0.605l0 0c-0.377-0.379-0.61-0.902-0.61-1.479s0.233-1.1 0.61-1.479l6.854-6.854-6.854-6.854c-0.379-0.379-0.613-0.902-0.613-1.479 0-1.155 0.937-2.092 2.092-2.092 0.578 0 1.101 0.234 1.479 0.613l6.854 6.854 6.854-6.854c0.379-0.379 0.902-0.613 1.479-0.613 1.155 0 2.092 0.937 2.092 2.092 0 0.578-0.234 1.101-0.613 1.479l-6.854 6.854z"></path>
</svg>
