
<svg version="1.1" xmlns="http://www.w3.org/2000/svg" width="58" height="100" viewBox="0 0 58 100">
<title>pregnant</title>
<path fill="param(fill) #000" stroke="param(outline) #000" stroke-width="param(outline-width) 1" d="M45.835 37.542v-0.042l-2.333-13.854c-0.063-1.491-1.228-2.692-2.698-2.812l-0.011-0.001h-14.042c-0.007-0-0.016-0.001-0.024-0.001-0.044 0-0.086 0.008-0.125 0.022l0.002-0.001-0.012 0.003c-14.735 0.285-26.573 12.286-26.595 27.056v0.002c0 2.301 1.866 4.167 4.167 4.167s4.167-1.866 4.167-4.167v0c0.097-8.96 6.188-16.471 14.448-18.717l0.137-0.032-10.354 42.063c-0.074 0.246-0.116 0.529-0.116 0.822 0 1.516 1.135 2.766 2.601 2.948l0.014 0.001h7.854v20.833c0 2.301 1.866 4.167 4.167 4.167s4.167-1.866 4.167-4.167v0-20.833h4.167v20.833c0 2.301 1.866 4.167 4.167 4.167s4.167-1.866 4.167-4.167v0-23.333c1.816-1.648 3.132-3.817 3.712-6.271l0.017-0.083c6.3-1.723 10.854-7.396 10.854-14.132 0-7.328-5.388-13.397-12.419-14.462l-0.081-0.010zM50.752 53.833l-0.542 0.563-2.813 2.917-2.563 2.646c-0.275 0.283-0.658 0.459-1.083 0.459s-0.809-0.176-1.083-0.458l-0-0-5.917-6.125c-0.824-0.866-1.331-2.040-1.331-3.332 0-1.345 0.549-2.561 1.435-3.438l0-0c0.813-0.761 1.91-1.229 3.116-1.229 1.33 0 2.526 0.568 3.361 1.475l0.003 0.003 0.417 0.417 0.417-0.417c0.523-0.549 1.173-0.971 1.904-1.219l0.033-0.010c0.44-0.161 0.947-0.254 1.477-0.254 1.19 0 2.271 0.47 3.066 1.234l-0.001-0.001c0.886 0.877 1.435 2.094 1.435 3.438 0 1.293-0.507 2.467-1.333 3.334l0.002-0.002z"></path>
<path fill="param(fill) #000" stroke="param(outline) #000" stroke-width="param(outline-width) 1" d="M43.752 8.333c0 4.602-3.731 8.333-8.333 8.333s-8.333-3.731-8.333-8.333c0-4.602 3.731-8.333 8.333-8.333s8.333 3.731 8.333 8.333z"></path>
</svg>
