
<svg version="1.1" xmlns="http://www.w3.org/2000/svg" width="100" height="100" viewBox="0 0 100 100">
<title>preparedness</title>
<path fill="param(fill) #000" stroke="param(outline) #000" stroke-width="param(outline-width) 1" d="M27.946 74.137c-0.754-0.754-1.795-1.221-2.946-1.221s-2.192 0.467-2.946 1.221l-6.429 6.429-6.429-6.429c-0.754-0.754-1.796-1.22-2.946-1.22-2.301 0-4.166 1.865-4.166 4.166 0 1.15 0.466 2.192 1.22 2.946l6.429 6.429-6.429 6.429c-0.754 0.754-1.22 1.796-1.22 2.946 0 2.301 1.865 4.166 4.166 4.166 1.15 0 2.192-0.466 2.946-1.22l6.429-6.429 6.429 6.429c0.754 0.754 1.796 1.22 2.946 1.22 2.301 0 4.166-1.865 4.166-4.166 0-1.15-0.466-2.192-1.22-2.946l-6.429-6.429 6.429-6.429c0.754-0.754 1.221-1.795 1.221-2.946s-0.467-2.192-1.221-2.946v0z"></path>
<path fill="param(fill) #000" stroke="param(outline) #000" stroke-width="param(outline-width) 1" d="M26.221 36.637l-13.721 13.721-5.387-5.387c-0.754-0.754-1.796-1.22-2.946-1.22-2.301 0-4.166 1.865-4.166 4.166 0 1.15 0.466 2.192 1.22 2.946l8.333 8.333c0.754 0.754 1.795 1.221 2.946 1.221s2.192-0.467 2.946-1.221l16.667-16.667c0.754-0.754 1.22-1.796 1.22-2.946 0-2.301-1.865-4.166-4.166-4.166-1.15 0-2.192 0.466-2.946 1.22v0z"></path>
<path fill="param(fill) #000" stroke="param(outline) #000" stroke-width="param(outline-width) 1" d="M93.75 45.833h-45.833c-3.452 0-6.25 2.798-6.25 6.25s2.798 6.25 6.25 6.25v0h45.833c3.452 0 6.25-2.798 6.25-6.25s-2.798-6.25-6.25-6.25v0z"></path>
<path fill="param(fill) #000" stroke="param(outline) #000" stroke-width="param(outline-width) 1" d="M26.221 1.221l-13.721 13.721-5.387-5.387c-0.754-0.754-1.796-1.22-2.946-1.22-2.301 0-4.166 1.865-4.166 4.166 0 1.15 0.466 2.192 1.22 2.946l8.333 8.333c0.754 0.754 1.795 1.221 2.946 1.221s2.192-0.467 2.946-1.221l16.667-16.667c0.754-0.754 1.22-1.796 1.22-2.946 0-2.301-1.865-4.166-4.166-4.166-1.15 0-2.192 0.466-2.946 1.22v0z"></path>
<path fill="param(fill) #000" stroke="param(outline) #000" stroke-width="param(outline-width) 1" d="M47.917 22.917h45.833c3.452 0 6.25-2.798 6.25-6.25s-2.798-6.25-6.25-6.25v0h-45.833c-3.452 0-6.25 2.798-6.25 6.25s2.798 6.25 6.25 6.25v0z"></path>
<path fill="param(fill) #000" stroke="param(outline) #000" stroke-width="param(outline-width) 1" d="M93.75 81.25h-45.833c-3.452 0-6.25 2.798-6.25 6.25s2.798 6.25 6.25 6.25v0h45.833c3.452 0 6.25-2.798 6.25-6.25s-2.798-6.25-6.25-6.25v0z"></path>
</svg>
