
<svg version="1.1" xmlns="http://www.w3.org/2000/svg" width="133" height="100" viewBox="0 0 133 100">
<title>previous-item</title>
<path fill="param(fill) #000" stroke="param(outline) #000" stroke-width="param(outline-width) 1" d="M122.223 38.889h-84.287l19.922-19.922c2.003-2.009 3.242-4.782 3.242-7.844 0-6.136-4.975-11.111-11.111-11.111-3.063 0-5.836 1.239-7.846 3.244l-38.889 38.889c-2.011 2.010-3.254 4.788-3.254 7.856s1.244 5.845 3.254 7.856l38.889 38.889c2.012 2.018 4.795 3.267 7.869 3.267 6.136 0 11.111-4.975 11.111-11.111 0-3.074-1.248-5.856-3.265-7.867l-19.922-19.922h84.287c6.137 0 11.111-4.975 11.111-11.111s-4.975-11.111-11.111-11.111v0z"></path>
</svg>
