
<svg version="1.1" xmlns="http://www.w3.org/2000/svg" width="100" height="100" viewBox="0 0 100 100">
<title>protection</title>
<path fill="param(fill) #000" stroke="param(outline) #000" stroke-width="param(outline-width) 1" d="M93.75 10.417c-3.443 0.022-6.228 2.807-6.25 6.248v33.335l-10.013 10.093c-0.347 0.647-1.019 1.079-1.791 1.079-0.62 0-1.175-0.278-1.546-0.717l-0.002-0.003c-0.458-0.469-0.741-1.111-0.741-1.82s0.283-1.351 0.741-1.82l-0 0 8.449-8.597c0.787-0.806 1.272-1.909 1.272-3.125s-0.485-2.319-1.273-3.126l0.001 0.001c-0.78-0.799-1.868-1.295-3.071-1.295s-2.291 0.496-3.071 1.294l-0.001 0.001-16.391 16.678c-2.35 2.401-3.801 5.691-3.801 9.319 0 0.277 0.008 0.552 0.025 0.825l-0.002-0.038h-0.035v31.25h18.75v-20.115c1.338-0.673 2.483-1.513 3.467-2.512l0.002-0.002 19.728-20.033c1.115-1.137 1.804-2.695 1.804-4.415 0-0.003 0-0.006 0-0.009v0-36.248c-0.022-3.443-2.807-6.228-6.248-6.25h-0.002z"></path>
<path fill="param(fill) #000" stroke="param(outline) #000" stroke-width="param(outline-width) 1" d="M39.938 58.643l-16.391-16.678c-0.78-0.799-1.868-1.295-3.071-1.295s-2.291 0.496-3.071 1.294l-0.001 0.001c-0.787 0.806-1.272 1.909-1.272 3.125s0.485 2.319 1.273 3.126l-0.001-0.001 8.449 8.597c0.458 0.469 0.741 1.111 0.741 1.82s-0.283 1.351-0.741 1.82l0-0c-0.454 0.465-1.088 0.754-1.789 0.754s-1.334-0.288-1.788-0.753l-0-0-9.776-10.452v-33.333c-0.022-3.443-2.807-6.228-6.248-6.25h-0.002c-3.443 0.022-6.228 2.807-6.25 6.248v36.25c0 0.003 0 0.006 0 0.009 0 1.72 0.688 3.278 1.805 4.416l-0.001-0.001 19.728 20.033c0.986 1 2.131 1.841 3.394 2.48l0.074 0.034v20.115h18.75v-31.25h-0.035c0.015-0.235 0.023-0.511 0.023-0.788 0-3.629-1.45-6.918-3.803-9.322l0.002 0.002z"></path>
<path fill="param(fill) #000" stroke="param(outline) #000" stroke-width="param(outline-width) 1" d="M68.75 18.75c0 10.355-8.395 18.75-18.75 18.75s-18.75-8.395-18.75-18.75c0-10.355 8.395-18.75 18.75-18.75s18.75 8.395 18.75 18.75z"></path>
</svg>
