
<svg version="1.1" xmlns="http://www.w3.org/2000/svg" width="100" height="100" viewBox="0 0 100 100">
<title>rebel</title>
<path fill="param(fill) #000" stroke="param(outline) #000" stroke-width="param(outline-width) 1" d="M58.333 17.708c0 7.479-6.063 13.542-13.542 13.542s-13.542-6.063-13.542-13.542c0-7.479 6.063-13.542 13.542-13.542s13.542 6.063 13.542 13.542z"></path>
<path fill="param(fill) #000" stroke="param(outline) #000" stroke-width="param(outline-width) 1" d="M0 81.146c0 0.002 0 0.004 0 0.007 0 3.505 2.842 6.347 6.347 6.347 0.088 0 0.175-0.002 0.262-0.005l-0.013 0c3.32-0.286 5.905-3.052 5.905-6.421 0-0.046-0-0.092-0.001-0.137l0 0.007c-0-0.041-0-0.089-0-0.137 0-10.055 4.887-18.969 12.415-24.497l0.085-0.059v35.479c0 4.568 3.703 8.271 8.271 8.271h23.042c2.302-0.003 4.384-0.941 5.888-2.455l0-0c0.185-0.191 0.299-0.452 0.299-0.739 0-0.004 0-0.008-0-0.012v0.001-56.002c-5.133-2.084-11.088-3.293-17.325-3.293-0.135 0-0.269 0.001-0.404 0.002l0.021-0c-25.583 0-44.792 18.646-44.792 43.646z"></path>
<path fill="param(fill) #000" stroke="param(outline) #000" stroke-width="param(outline-width) 1" d="M100 47.917v-6.027c0.001-0.029 0.001-0.062 0.001-0.096 0-2.085-1.476-3.824-3.44-4.232l-0.028-0.005c-0.21-0.037-0.451-0.059-0.697-0.059-2.302 0-4.169 1.866-4.169 4.168v6.25c-0.003 2.3-1.867 4.164-4.166 4.167h-0v-29.167c-0.007-2.298-1.868-4.16-4.166-4.167h-0.001v-17.708c0-0.575-0.466-1.042-1.042-1.042v0h-5.208c-1.151 0-2.083 0.933-2.083 2.083s0.933 2.083 2.083 2.083v0 15.166c-1.248 0.729-2.076 2.059-2.083 3.583v12.501h-2.083c-2.298 0.007-4.16 1.868-4.167 4.166v31.251c0.007 2.298 1.868 4.16 4.166 4.167h2.084v20.833c0.007 2.298 1.868 4.16 4.166 4.167h10.417c2.302-0.005 4.166-1.873 4.166-4.175 0-0.359-0.045-0.708-0.131-1.041l0.006 0.029s-6.125-19.646-6.125-19.813h8.111c0.029 0.001 0.062 0.001 0.096 0.001 2.085 0 3.825-1.476 4.232-3.44l0.005-0.028c0.037-0.209 0.059-0.451 0.059-0.697 0-2.302-1.866-4.169-4.168-4.169h-8.333v-6.25c6.9-0.008 12.492-5.6 12.5-12.499v-0.001z"></path>
</svg>
