
<svg version="1.1" xmlns="http://www.w3.org/2000/svg" width="100" height="100" viewBox="0 0 100 100">
<title>reconstruction</title>
<path fill="param(fill) #000" stroke="param(outline) #000" stroke-width="param(outline-width) 1" d="M2.884 23.19l49.996 16.247c1.609 0.523 3.37-0.421 3.37-1.806v-14.714h14.583v4.167h22.048c0.004 0 0.008 0 0.012 0 3.931 0 7.118-3.187 7.118-7.118s-3.187-7.118-7.118-7.118c-0.004 0-0.009 0-0.013 0h-22.048v3.819h-14.583v-14.714c0-1.385-1.761-2.329-3.37-1.806l-49.996 16.247c-1.646 0.279-2.884 1.694-2.884 3.398s1.238 3.12 2.864 3.396l0.020 0.003z"></path>
<path fill="param(fill) #000" stroke="param(outline) #000" stroke-width="param(outline-width) 1" d="M54.167 77.083h43.75c1.151 0 2.083 0.933 2.083 2.083v18.75c0 1.151-0.933 2.083-2.083 2.083h-43.75c-1.151 0-2.083-0.933-2.083-2.083v-18.75c0-1.151 0.933-2.083 2.083-2.083z"></path>
<path fill="param(fill) #000" stroke="param(outline) #000" stroke-width="param(outline-width) 1" d="M27.083 50h45.833c1.151 0 2.083 0.933 2.083 2.083v18.75c0 1.151-0.933 2.083-2.083 2.083h-45.833c-1.151 0-2.083-0.933-2.083-2.083v-18.75c0-1.151 0.933-2.083 2.083-2.083z"></path>
<path fill="param(fill) #000" stroke="param(outline) #000" stroke-width="param(outline-width) 1" d="M2.083 77.083h43.75c1.151 0 2.083 0.933 2.083 2.083v18.75c0 1.151-0.933 2.083-2.083 2.083h-43.75c-1.151 0-2.083-0.933-2.083-2.083v-18.75c0-1.151 0.933-2.083 2.083-2.083z"></path>
<path fill="param(fill) #000" stroke="param(outline) #000" stroke-width="param(outline-width) 1" d="M81.25 50h16.667c1.151 0 2.083 0.933 2.083 2.083v18.75c0 1.151-0.933 2.083-2.083 2.083h-16.667c-1.151 0-2.083-0.933-2.083-2.083v-18.75c0-1.151 0.933-2.083 2.083-2.083z"></path>
</svg>
