
<svg version="1.1" xmlns="http://www.w3.org/2000/svg" width="102" height="100" viewBox="0 0 102 100">
<title>refugee</title>
<path fill="param(fill) #000" stroke="param(outline) #000" stroke-width="param(outline-width) 1" d="M63.329 14.484c-1.151-3.422-4.33-5.843-8.075-5.843-4.695 0-8.501 3.806-8.501 8.501s3.806 8.501 8.501 8.501c0.951 0 1.865-0.156 2.718-0.444l-0.060 0.018c3.422-1.151 5.843-4.33 5.843-8.075 0-0.951-0.156-1.865-0.444-2.718l0.018 0.060z"></path>
<path fill="param(fill) #000" stroke="param(outline) #000" stroke-width="param(outline-width) 1" d="M44.067 58.584l8.355-16.555c0.697-1.353 1.106-2.952 1.106-4.646 0-4.001-2.278-7.47-5.609-9.181l-0.058-0.027-5.433-2.742c-0.26-0.132-0.562-0.243-0.878-0.319l-0.029-0.006c-3.56-1.6-7.717-2.532-12.092-2.532-11.615 0-21.695 6.571-26.726 16.197l-0.079 0.166c-0.307 0.584-0.487 1.276-0.487 2.011 0 2.427 1.968 4.395 4.395 4.395 1.7 0 3.174-0.965 3.905-2.377l0.012-0.025c3.621-6.937 10.762-11.59 18.99-11.59 0.945 0 1.875 0.061 2.788 0.18l-0.108-0.011-31.634 62.026c-0.307 0.588-0.487 1.284-0.487 2.022 0 2.45 1.986 4.436 4.436 4.436 1.717 0 3.206-0.975 3.943-2.402l0.012-0.025 19.216-37.678 9.512 4.8c6.743 3.729 11.234 10.799 11.234 18.917 0 3.617-0.891 7.026-2.466 10.019l0.057-0.118c-0.314 0.593-0.499 1.297-0.499 2.044 0 2.449 1.986 4.435 4.435 4.435 1.702 0 3.181-0.959 3.924-2.367l0.012-0.024c2.143-4.060 3.402-8.873 3.402-13.98 0-10.343-5.161-19.481-13.048-24.978l-0.099-0.066z"></path>
<path fill="param(fill) #000" stroke="param(outline) #000" stroke-width="param(outline-width) 1" d="M101.045 47.611l-14.766-14.766c-0.598-0.6-1.425-0.972-2.338-0.972-1.822 0-3.299 1.477-3.299 3.299 0 0.914 0.371 1.741 0.972 2.338l9.245 9.245h-28.164c-1.761 0-3.188 1.427-3.188 3.188s1.427 3.188 3.188 3.188v0h28.164l-9.245 9.245c-0.6 0.598-0.972 1.425-0.972 2.338 0 1.822 1.477 3.299 3.299 3.299 0.914 0 1.741-0.371 2.338-0.972l14.766-14.765c0.597-0.597 0.967-1.422 0.967-2.333s-0.369-1.736-0.967-2.333v0z"></path>
<path fill="param(fill) #000" stroke="param(outline) #000" stroke-width="param(outline-width) 1" d="M71.196 59.507c-1.761 0-3.188 1.427-3.188 3.188v0 10.626c0 1.761 1.427 3.188 3.188 3.188s3.188-1.427 3.188-3.188v0-10.626c-0-1.761-1.427-3.188-3.188-3.188v0z"></path>
<path fill="param(fill) #000" stroke="param(outline) #000" stroke-width="param(outline-width) 1" d="M71.196 40.38c1.761-0 3.188-1.427 3.188-3.188v0-10.626c0-1.761-1.427-3.188-3.188-3.188s-3.188 1.427-3.188 3.188v0 10.626c0 1.761 1.427 3.188 3.188 3.188v0z"></path>
<path fill="param(fill) #000" stroke="param(outline) #000" stroke-width="param(outline-width) 1" d="M71.196 17.002c1.761-0 3.188-1.427 3.188-3.188v0-10.626c0-1.761-1.427-3.188-3.188-3.188s-3.188 1.427-3.188 3.188v0 10.626c0 1.761 1.427 3.188 3.188 3.188v0z"></path>
<path fill="param(fill) #000" stroke="param(outline) #000" stroke-width="param(outline-width) 1" d="M71.196 82.885c-1.761 0-3.188 1.427-3.188 3.188v0 10.626c0 1.761 1.427 3.188 3.188 3.188s3.188-1.427 3.188-3.188v0-10.626c0-1.761-1.427-3.188-3.188-3.188v0z"></path>
</svg>
