
<svg version="1.1" xmlns="http://www.w3.org/2000/svg" width="150" height="100" viewBox="0 0 150 100">
<title>registration</title>
<path fill="param(fill) #000" stroke="param(outline) #000" stroke-width="param(outline-width) 1" d="M140.625 0h-131.25c-5.171 0.016-9.359 4.204-9.375 9.374v81.251c0.016 5.171 4.204 9.359 9.374 9.375h131.251c5.171-0.016 9.359-4.204 9.375-9.374v-81.251c-0.016-5.171-4.204-9.359-9.374-9.375h-0.001zM26.438 17.063c2.843-2.86 6.78-4.63 11.131-4.63 8.667 0 15.693 7.026 15.693 15.693s-7.026 15.693-15.693 15.693c-8.667 0-15.693-7.026-15.693-15.693 0-0 0-0 0-0v0c0-4.317 1.743-8.226 4.563-11.063l-0.001 0.001zM62.5 81.25h-50v-3.125c0-13.807 11.193-25 25-25s25 11.193 25 25v0zM126.625 75h-46.969c-2.589 0-4.688-2.099-4.688-4.688s2.099-4.688 4.688-4.688v0h46.969c2.589 0 4.687 2.099 4.687 4.688s-2.099 4.688-4.687 4.688v0zM126.625 56.25h-46.969c-2.589 0-4.688-2.099-4.688-4.688s2.099-4.688 4.688-4.688v0h46.969c2.589 0 4.687 2.099 4.687 4.688s-2.099 4.688-4.687 4.688v0zM126.625 37.5h-46.969c-2.589 0-4.688-2.099-4.688-4.688s2.099-4.688 4.688-4.688v0h46.969c2.589 0 4.687 2.099 4.687 4.688s-2.099 4.688-4.687 4.688v0z"></path>
</svg>
