
<svg version="1.1" xmlns="http://www.w3.org/2000/svg" width="71" height="100" viewBox="0 0 71 100">
<title>relief-goods</title>
<path fill="param(fill) #000" stroke="param(outline) #000" stroke-width="param(outline-width) 1" d="M35.417 0c-19.56 0-35.417 15.857-35.417 35.417v0h70.834c0-19.56-15.857-35.417-35.417-35.417-0 0-0 0-0 0v0z"></path>
<path fill="param(fill) #000" stroke="param(outline) #000" stroke-width="param(outline-width) 1" d="M59.294 40.454l-23.877 22.922-23.877-22.922c-0.559-0.533-1.318-0.861-2.154-0.861-1.726 0-3.125 1.399-3.125 3.125 0 0.88 0.364 1.675 0.949 2.243l0.001 0.001 26.042 25c0.020 0.019 0.047 0.025 0.068 0.044 0.263 0.246 0.572 0.447 0.911 0.591l0.020 0.008c0.023 0.009 0.047 0.013 0.071 0.022 0.324 0.131 0.701 0.207 1.095 0.207s0.77-0.076 1.115-0.214l-0.020 0.007c0.024-0.009 0.047-0.012 0.071-0.022 0.36-0.151 0.668-0.352 0.933-0.6l-0.002 0.002c0.021-0.019 0.048-0.024 0.068-0.044l26.042-25c0.586-0.569 0.95-1.364 0.95-2.244 0-1.726-1.399-3.125-3.125-3.125-0.836 0-1.595 0.328-2.155 0.862l0.001-0.001z"></path>
<path fill="param(fill) #000" stroke="param(outline) #000" stroke-width="param(outline-width) 1" d="M25 75h20.833c1.151 0 2.083 0.933 2.083 2.083v20.833c0 1.151-0.933 2.083-2.083 2.083h-20.833c-1.151 0-2.083-0.933-2.083-2.083v-20.833c0-1.151 0.933-2.083 2.083-2.083z"></path>
</svg>
