
<svg version="1.1" xmlns="http://www.w3.org/2000/svg" width="114" height="100" viewBox="0 0 114 100">
<title>remove-document</title>
<path fill="param(fill) #000" stroke="param(outline) #000" stroke-width="param(outline-width) 1" d="M112.048 0h-66.952c-1.245 0.042-2.239 1.062-2.239 2.314 0 0.024 0 0.047 0.001 0.071l-0-0.003v59.524h14.286c6.575 0 11.905 5.33 11.905 11.905s-5.33 11.905-11.905 11.905v0h-14.286v11.905c-0.001 0.020-0.001 0.044-0.001 0.067 0 1.252 0.994 2.272 2.235 2.313l0.004 0h47.762v-14.81c0.009-3.652 2.967-6.61 6.618-6.619h14.81v-76.19c0.001-0.020 0.001-0.044 0.001-0.067 0-1.252-0.994-2.272-2.235-2.314l-0.004-0zM100 54.762h-42.857c-1.315 0-2.381-1.066-2.381-2.381s1.066-2.381 2.381-2.381v0h42.857c1.315 0 2.381 1.066 2.381 2.381s-1.066 2.381-2.381 2.381v0zM100 40.476h-42.857c-1.315 0-2.381-1.066-2.381-2.381s1.066-2.381 2.381-2.381v0h42.857c1.315 0 2.381 1.066 2.381 2.381s-1.066 2.381-2.381 2.381v0zM100 26.19h-42.857c-1.315 0-2.381-1.066-2.381-2.381s1.066-2.381 2.381-2.381v0h42.857c1.315 0 2.381 1.066 2.381 2.381s-1.066 2.381-2.381 2.381v0z"></path>
<path fill="param(fill) #000" stroke="param(outline) #000" stroke-width="param(outline-width) 1" d="M99.476 83.333c-1.025 0.001-1.856 0.832-1.857 1.857v14.81l16.667-16.667h-14.81z"></path>
<path fill="param(fill) #000" stroke="param(outline) #000" stroke-width="param(outline-width) 1" d="M57.143 78.571h-52.381c-2.63 0-4.762-2.132-4.762-4.762s2.132-4.762 4.762-4.762v0h52.381c2.63 0 4.762 2.132 4.762 4.762s-2.132 4.762-4.762 4.762v0z"></path>
</svg>
