
<svg version="1.1" xmlns="http://www.w3.org/2000/svg" width="100" height="100" viewBox="0 0 100 100">
<title>remote-support</title>
<path fill="param(fill) #000" stroke="param(outline) #000" stroke-width="param(outline-width) 1" d="M91.272 35.59c-3.043-20.245-20.316-35.59-41.172-35.59-20.849 0-38.117 15.334-41.141 35.339l-0.029 0.23c-5.072 0.748-8.922 5.066-8.93 10.286v18.706c0 5.765 4.674 10.439 10.439 10.439h8.302c2.306-0 4.176-1.87 4.176-4.176v0-31.232c-0-2.306-1.87-4.176-4.176-4.176h-1.366c3.034-15.527 16.53-27.083 32.725-27.083s29.691 11.556 32.691 26.872l0.034 0.211h-1.566c-2.306 0-4.176 1.87-4.176 4.176v0 31.232c0 2.306 1.87 4.176 4.176 4.176h1.975c-1.162 7.118-7.26 12.486-14.614 12.5h-7.275c-1.468-2.508-4.149-4.167-7.217-4.167-4.602 0-8.333 3.731-8.333 8.333s3.731 8.333 8.333 8.333c3.068 0 5.749-1.658 7.196-4.127l0.021-0.039h7.273c12.035-0.017 21.918-9.207 23.035-20.952l0.007-0.093c4.793-1.011 8.34-5.205 8.34-10.227v-18.705c-0.007-5.151-3.751-9.426-8.667-10.258l-0.061-0.009z"></path>
</svg>
