
<svg version="1.1" xmlns="http://www.w3.org/2000/svg" width="75" height="100" viewBox="0 0 75 100">
<title>report</title>
<path fill="param(fill) #000" stroke="param(outline) #000" stroke-width="param(outline-width) 1" d="M72.917 0h-45.833c-1.149 0.003-2.080 0.934-2.083 2.083v22.917h22.917c1.843 0.006 3.498 0.807 4.641 2.078l0.005 0.006h14.104c1.151 0 2.083 0.933 2.083 2.083s-0.933 2.083-2.083 2.083v0h-12.5v6.25h12.5c1.151 0 2.083 0.933 2.083 2.083s-0.933 2.083-2.083 2.083v0h-12.5v6.25h12.5c1.151 0 2.083 0.933 2.083 2.083s-0.933 2.083-2.083 2.083v0h-12.5v18.75h18.75c1.149-0.003 2.080-0.934 2.083-2.083v-66.667c-0.003-1.149-0.934-2.080-2.083-2.083h-0zM66.667 20.833h-33.333c-1.151 0-2.083-0.933-2.083-2.083s0.933-2.083 2.083-2.083v0h33.333c1.151 0 2.083 0.933 2.083 2.083s-0.933 2.083-2.083 2.083v0z"></path>
<path fill="param(fill) #000" stroke="param(outline) #000" stroke-width="param(outline-width) 1" d="M47.917 29.167h-45.833c-1.149 0.003-2.080 0.934-2.083 2.083v66.667c0.003 1.149 0.934 2.080 2.083 2.083h45.834c1.149-0.003 2.080-0.934 2.083-2.083v-66.667c-0.003-1.149-0.934-2.080-2.083-2.083h-0zM8.333 45.833h33.333c1.151 0 2.083 0.933 2.083 2.083s-0.933 2.083-2.083 2.083v0h-33.333c-1.151 0-2.083-0.933-2.083-2.083s0.933-2.083 2.083-2.083v0zM8.333 56.25h33.333c1.151 0 2.083 0.933 2.083 2.083s-0.933 2.083-2.083 2.083v0h-33.333c-1.151 0-2.083-0.933-2.083-2.083s0.933-2.083 2.083-2.083v0zM41.667 81.25h-33.333c-1.151 0-2.083-0.933-2.083-2.083s0.933-2.083 2.083-2.083v0h33.333c1.151 0 2.083 0.933 2.083 2.083s-0.933 2.083-2.083 2.083v0zM8.333 70.833c-1.151 0-2.083-0.933-2.083-2.083s0.933-2.083 2.083-2.083v0h33.333c1.151 0 2.083 0.933 2.083 2.083s-0.933 2.083-2.083 2.083v0z"></path>
</svg>
