
<svg version="1.1" xmlns="http://www.w3.org/2000/svg" width="100" height="100" viewBox="0 0 100 100">
<title>resilence</title>
<path fill="param(fill) #000" stroke="param(outline) #000" stroke-width="param(outline-width) 1" d="M97.25 2.75c-1.696-1.699-4.040-2.75-6.63-2.75-3.576 0-6.684 2.004-8.262 4.95l-0.025 0.050c1.889 1.463 3.349 3.393 4.219 5.619l0.031 0.089c0.587 1.456 0.928 3.145 0.928 4.913 0 1.977-0.426 3.855-1.191 5.547l0.034-0.085-5.104 11.479v58.062c0 5.178 4.197 9.375 9.375 9.375s9.375-4.197 9.375-9.375v0-81.25c0-0.009 0-0.019 0-0.029 0-2.579-1.052-4.912-2.749-6.595l-0.001-0.001z"></path>
<path fill="param(fill) #000" stroke="param(outline) #000" stroke-width="param(outline-width) 1" d="M82.542 19.396c0.499-1.109 0.79-2.404 0.79-3.768 0-5.178-4.197-9.375-9.375-9.375-3.812 0-7.093 2.275-8.558 5.542l-0.024 0.059-0.958 2.167c2.653 2.361 4.315 5.785 4.315 9.597 0 2.765-0.875 5.326-2.363 7.421l0.027-0.040-27.417 40.25-6.938 15.583c-0.5 1.112-0.792 2.41-0.792 3.776 0 3.818 2.276 7.104 5.545 8.575l0.059 0.024c1.111 0.493 2.406 0.783 3.768 0.792h0.003c3.812-0.004 7.092-2.279 8.559-5.545l0.024-0.059 32.042-72.083z"></path>
<path fill="param(fill) #000" stroke="param(outline) #000" stroke-width="param(outline-width) 1" d="M41.917 59.542l21.042-30.875c0.973-1.4 1.555-3.136 1.555-5.007 0-2.872-1.37-5.424-3.491-7.039l-0.022-0.016c-0.161-0.152-0.338-0.289-0.527-0.408l-0.014-0.008c-0.357-0.245-0.766-0.481-1.194-0.685l-0.056-0.024c-1.191-0.566-2.587-0.896-4.060-0.896-3.252 0-6.129 1.609-7.878 4.074l-0.020 0.030-45.625 66.667c-1.017 1.467-1.625 3.284-1.625 5.244 0 0.002 0 0.005 0 0.007v-0c0 0.010-0 0.021-0 0.032 0 5.171 4.192 9.364 9.364 9.364 3.217 0 6.055-1.622 7.74-4.093l0.021-0.032 18.188-26.688z"></path>
</svg>
