
<svg version="1.1" xmlns="http://www.w3.org/2000/svg" width="112" height="100" viewBox="0 0 112 100">
<title>respiratory</title>
<path fill="param(fill) #000" stroke="param(outline) #000" stroke-width="param(outline-width) 1" d="M44.186 61.869v31.166c0 0 0 0 0 0 0 3.847-3.118 6.965-6.965 6.965h-30.256c-3.847 0-6.965-3.118-6.965-6.965 0-0 0-0 0-0.001v0-45.204c0-21.279 17.25-38.529 38.529-38.529 0 0 0 0 0 0v0c0 0 0 0 0 0 3.124 0 5.657 2.533 5.657 5.657 0 0 0 0 0 0v0 20.513l-12.85 12.942-6.155-6.155c-1.683-1.681-4.006-2.72-6.573-2.72-5.137 0-9.301 4.164-9.301 9.301 0 2.566 1.039 4.89 2.72 6.573l6.2 6.2-3.872 3.899c-1.692 1.685-2.739 4.016-2.739 6.592 0 5.137 4.164 9.301 9.301 9.301 2.58 0 4.915-1.051 6.6-2.747l0-0.001zM73.099 9.302c-0 0-0 0-0 0-3.124 0-5.657 2.533-5.657 5.657 0 0 0 0 0 0v0 20.721l12.791 12.793 6.214-6.214c1.684-1.686 4.011-2.728 6.581-2.728 5.137 0 9.301 4.164 9.301 9.301 0 2.571-1.043 4.898-2.728 6.581l-6.214 6.214 3.888 3.888c1.686 1.684 2.729 4.011 2.729 6.581 0 5.137-4.164 9.301-9.301 9.301-2.571 0-4.898-1.043-6.581-2.728l-16.679-16.678v31.042c0 0 0 0 0 0 0 3.847 3.118 6.965 6.965 6.965h30.256c3.847 0 6.965-3.118 6.965-6.965 0-0 0-0 0-0.001v0-45.204c0-21.279-17.25-38.529-38.529-38.529 0 0-0 0-0 0v0zM96.312 45.549c-0.842-0.842-2.004-1.363-3.288-1.363s-2.447 0.521-3.288 1.363l-9.502 9.502-19.768-19.769v-30.631c0-2.569-2.082-4.651-4.651-4.651s-4.651 2.082-4.651 4.651v0 30.397l-19.816 19.955-9.454-9.454c-0.842-0.842-2.004-1.362-3.288-1.362-2.568 0-4.651 2.082-4.651 4.651 0 1.284 0.521 2.447 1.362 3.288l9.477 9.477-7.152 7.202c-0.842 0.842-1.362 2.004-1.362 3.288 0 2.569 2.082 4.651 4.651 4.651 1.284 0 2.447-0.521 3.289-1.362v0l31.478-31.711 31.712 31.711c0.842 0.842 2.004 1.362 3.289 1.362 2.569 0 4.651-2.082 4.651-4.651 0-1.284-0.521-2.447-1.362-3.288l-7.177-7.177 9.502-9.502c0.842-0.842 1.363-2.004 1.363-3.288s-0.521-2.447-1.363-3.288v0z"></path>
</svg>
