
<svg version="1.1" xmlns="http://www.w3.org/2000/svg" width="58" height="100" viewBox="0 0 58 100">
<title>return</title>
<path fill="param(fill) #000" stroke="param(outline) #000" stroke-width="param(outline-width) 1" d="M50 100c-0.003 0-0.007 0-0.010 0-2.298 0-4.378-0.933-5.882-2.44l-41.667-41.667c-1.508-1.508-2.441-3.592-2.441-5.893s0.933-4.385 2.441-5.893l41.667-41.667c1.507-1.503 3.587-2.432 5.884-2.432 4.603 0 8.334 3.731 8.334 8.334 0 2.297-0.929 4.377-2.433 5.885l-35.775 35.774 35.775 35.774c1.508 1.508 2.441 3.592 2.441 5.893 0 4.602-3.731 8.333-8.333 8.333-0 0-0.001 0-0.001 0v0z"></path>
</svg>
