
<svg version="1.1" xmlns="http://www.w3.org/2000/svg" width="96" height="100" viewBox="0 0 96 100">
<title>rice</title>
<path fill="param(fill) #000" stroke="param(outline) #000" stroke-width="param(outline-width) 1" d="M12.595 47.137h3.817c1.527 0 2.863-1.336 2.863-2.863s-1.336-2.863-2.863-2.863h-3.817c-1.527 0-2.863 1.336-2.863 2.863s1.336 2.863 2.863 2.863z"></path>
<path fill="param(fill) #000" stroke="param(outline) #000" stroke-width="param(outline-width) 1" d="M25.954 47.137h3.817c1.527 0 2.863-1.336 2.863-2.863s-1.336-2.863-2.863-2.863h-3.817c-1.527 0-2.863 1.336-2.863 2.863s1.336 2.863 2.863 2.863z"></path>
<path fill="param(fill) #000" stroke="param(outline) #000" stroke-width="param(outline-width) 1" d="M39.313 47.137h3.817c1.527 0 2.863-1.336 2.863-2.863s-1.336-2.863-2.863-2.863h-3.817c-1.527 0-2.863 1.336-2.863 2.863s1.336 2.863 2.863 2.863z"></path>
<path fill="param(fill) #000" stroke="param(outline) #000" stroke-width="param(outline-width) 1" d="M52.672 47.137h3.817c1.527 0 2.863-1.336 2.863-2.863s-1.336-2.863-2.863-2.863h-3.817c-1.527 0-2.863 1.336-2.863 2.863s1.336 2.863 2.863 2.863z"></path>
<path fill="param(fill) #000" stroke="param(outline) #000" stroke-width="param(outline-width) 1" d="M66.031 47.137h3.817c1.527 0 2.863-1.336 2.863-2.863s-1.336-2.863-2.863-2.863h-3.817c-1.527 0-2.863 1.336-2.863 2.863s1.336 2.863 2.863 2.863c0 0 0 0 0 0z"></path>
<path fill="param(fill) #000" stroke="param(outline) #000" stroke-width="param(outline-width) 1" d="M25.954 37.595h3.817c1.527 0 2.863-1.336 2.863-2.863s-1.336-2.863-2.863-2.863h-3.817c-1.527 0-2.863 1.336-2.863 2.863s1.336 2.863 2.863 2.863c0 0 0 0 0 0z"></path>
<path fill="param(fill) #000" stroke="param(outline) #000" stroke-width="param(outline-width) 1" d="M39.313 37.595h3.817c1.527 0 2.863-1.336 2.863-2.863s-1.336-2.863-2.863-2.863h-3.817c-1.527 0-2.863 1.336-2.863 2.863s1.336 2.863 2.863 2.863c0 0 0 0 0 0z"></path>
<path fill="param(fill) #000" stroke="param(outline) #000" stroke-width="param(outline-width) 1" d="M52.672 37.595h3.817c1.527 0 2.863-1.336 2.863-2.863s-1.336-2.863-2.863-2.863h-3.817c-1.527 0-2.863 1.336-2.863 2.863s1.336 2.863 2.863 2.863z"></path>
<path fill="param(fill) #000" stroke="param(outline) #000" stroke-width="param(outline-width) 1" d="M39.313 28.053h3.817c1.527 0 2.863-1.336 2.863-2.863s-1.336-2.863-2.863-2.863h-3.817c-1.527 0-2.863 1.336-2.863 2.863s1.336 2.863 2.863 2.863z"></path>
<path fill="param(fill) #000" stroke="param(outline) #000" stroke-width="param(outline-width) 1" d="M52.672 28.053h3.817c1.527 0 2.863-1.336 2.863-2.863s-1.336-2.863-2.863-2.863h-3.817c-1.527 0-2.863 1.336-2.863 2.863s1.336 2.863 2.863 2.863z"></path>
<path fill="param(fill) #000" stroke="param(outline) #000" stroke-width="param(outline-width) 1" d="M66.031 37.595h3.817c1.527 0 2.863-1.336 2.863-2.863s-1.336-2.863-2.863-2.863h-3.817c-1.527 0-2.863 1.336-2.863 2.863s1.336 2.863 2.863 2.863c0 0 0 0 0 0z"></path>
<path fill="param(fill) #000" stroke="param(outline) #000" stroke-width="param(outline-width) 1" d="M79.389 47.137h3.817c1.527 0 2.863-1.336 2.863-2.863s-1.336-2.863-2.863-2.863h-3.817c-1.527 0-2.863 1.336-2.863 2.863s1.336 2.863 2.863 2.863c0 0 0 0 0 0z"></path>
<path fill="param(fill) #000" stroke="param(outline) #000" stroke-width="param(outline-width) 1" d="M91.794 50.954h-87.786c-1.145 0-1.908 0.763-1.908 1.908 0 13.74 11.069 24.809 24.809 24.809h41.985c13.74 0 24.809-11.069 24.809-24.809 0-0.954-0.763-1.908-1.908-1.908z"></path>
</svg>
