
<svg version="1.1" xmlns="http://www.w3.org/2000/svg" width="67" height="100" viewBox="0 0 67 100">
<title>road</title>
<path fill="param(fill) #000" stroke="param(outline) #000" stroke-width="param(outline-width) 1" d="M0 0v100h66.667v-100zM37.5 87.5c0 2.301-1.866 4.167-4.167 4.167s-4.167-1.866-4.167-4.167v0-12.5c0.007-2.298 1.868-4.16 4.166-4.167h0.001c2.294 0.017 4.15 1.872 4.167 4.165v0.002zM37.5 56.25c0 2.301-1.866 4.167-4.167 4.167s-4.167-1.866-4.167-4.167v0-12.5c0.007-2.298 1.868-4.16 4.166-4.167h0.001c2.294 0.017 4.15 1.872 4.167 4.165v0.002zM37.5 25c0 2.301-1.866 4.167-4.167 4.167s-4.167-1.866-4.167-4.167v0-12.5c0.007-2.298 1.868-4.16 4.166-4.167h0.001c2.294 0.017 4.15 1.872 4.167 4.165v0.002z"></path>
</svg>
