
<svg version="1.1" xmlns="http://www.w3.org/2000/svg" width="100" height="100" viewBox="0 0 100 100">
<title>road-affected</title>
<path fill="param(fill) #000" stroke="param(outline) #000" stroke-width="param(outline-width) 1" d="M41.667 20.833c0-11.506-9.327-20.833-20.833-20.833s-20.833 9.327-20.833 20.833c0 11.506 9.327 20.833 20.833 20.833v0c11.504-0.004 20.829-9.329 20.833-20.833v-0zM20.833 35.417c-1.151 0-2.083-0.933-2.083-2.083s0.933-2.083 2.083-2.083c1.151 0 2.083 0.933 2.083 2.083v0c-0.003 1.149-0.934 2.080-2.083 2.083h-0zM22.917 25c0 1.151-0.933 2.083-2.083 2.083s-2.083-0.933-2.083-2.083v0-16.667c0-1.151 0.933-2.083 2.083-2.083s2.083 0.933 2.083 2.083v0z"></path>
<path fill="param(fill) #000" stroke="param(outline) #000" stroke-width="param(outline-width) 1" d="M38.125 0c6 5 9.792 12.476 9.792 20.837 0 10.387-5.851 19.407-14.436 23.946l-0.147 0.071v55.146h66.667v-100zM70.833 87.5c0 2.301-1.866 4.167-4.167 4.167s-4.167-1.866-4.167-4.167v0-12.5c0.007-2.298 1.868-4.16 4.166-4.167h0.001c2.294 0.017 4.15 1.872 4.167 4.165v0.002zM70.833 56.25c0 2.301-1.866 4.167-4.167 4.167s-4.167-1.866-4.167-4.167v0-12.5c0.007-2.298 1.868-4.16 4.166-4.167h0.001c2.294 0.017 4.15 1.872 4.167 4.165v0.002zM70.833 25c0 2.301-1.866 4.167-4.167 4.167s-4.167-1.866-4.167-4.167v0-12.5c0.007-2.298 1.868-4.16 4.166-4.167h0.001c2.294 0.017 4.15 1.872 4.167 4.165v0.002z"></path>
</svg>
