
<svg version="1.1" xmlns="http://www.w3.org/2000/svg" width="96" height="100" viewBox="0 0 96 100">
<title>roadblock</title>
<path fill="param(fill) #000" stroke="param(outline) #000" stroke-width="param(outline-width) 1" d="M87.977 63.359h-80.153c-3.244 0-5.725 2.481-5.725 5.725s2.481 5.725 5.725 5.725h80.153c3.244 0 5.725-2.481 5.725-5.725 0-3.053-2.481-5.725-5.725-5.725z"></path>
<path fill="param(fill) #000" stroke="param(outline) #000" stroke-width="param(outline-width) 1" d="M30.725 57.634h57.252l-19.656-31.489c-0.573-0.763-1.527-1.145-2.481-0.573-0.573 0.382-0.954 0.954-0.763 1.718v24.809l-15.84-25.954c-0.573-0.763-1.527-1.145-2.481-0.573-0.573 0.382-0.954 0.954-0.763 1.718v24.809l-15.84-25.954c-0.573-0.763-1.527-1.145-2.481-0.573-0.573 0.382-0.954 0.954-0.763 1.718v24.809l-15.84-25.954c-0.573-0.763-1.527-1.145-2.481-0.573-0.573 0.382-0.954 0.954-0.763 1.718v30.534h22.901z"></path>
</svg>
