
<svg version="1.1" xmlns="http://www.w3.org/2000/svg" width="100" height="100" viewBox="0 0 100 100">
<title>rule-of-law-and-justice</title>
<path fill="param(fill) #000" stroke="param(outline) #000" stroke-width="param(outline-width) 1" d="M76.954 91.667h-22.917v-77.083h21.459l-9.836 24.901c-0.138 0.34-0.218 0.733-0.218 1.146 0 1.723 1.397 3.12 3.12 3.12 1.31 0 2.432-0.808 2.894-1.952l0.007-0.021 8.616-21.818 8.616 21.818c0.469 1.168 1.591 1.977 2.903 1.977 1.723 0 3.119-1.397 3.119-3.119 0-0.414-0.081-0.809-0.227-1.171l0.008 0.021-11.523-29.172c-0.462-1.168-1.581-1.979-2.89-1.979-0.002 0-0.004 0-0.006 0h-26.041v-4.167c0-2.301-1.866-4.167-4.167-4.167s-4.167 1.866-4.167 4.167v0 4.167h-26.042c-0.002 0-0.004 0-0.006 0-1.309 0-2.428 0.811-2.883 1.958l-0.007 0.021-11.523 29.172c-0.138 0.34-0.218 0.733-0.218 1.146 0 1.723 1.397 3.12 3.12 3.12 1.31 0 2.432-0.808 2.894-1.952l0.007-0.021 8.616-21.818 8.616 21.818c0.469 1.168 1.591 1.977 2.903 1.977 1.723 0 3.119-1.397 3.119-3.119 0-0.414-0.081-0.809-0.227-1.171l0.008 0.021-9.836-24.901h21.459v77.083h-22.917c-2.301 0-4.167 1.866-4.167 4.167s1.866 4.167 4.167 4.167v0h54.167c2.301 0 4.167-1.866 4.167-4.167s-1.866-4.167-4.167-4.167v0z"></path>
<path fill="param(fill) #000" stroke="param(outline) #000" stroke-width="param(outline-width) 1" d="M39.31 50.65c0.008-0.035 0.012-0.074 0.012-0.115 0-0.295-0.238-0.533-0.532-0.535h-38.256c-0.294 0.001-0.532 0.24-0.532 0.535 0 0.041 0.005 0.081 0.013 0.119l-0.001-0.004c2.195 8.961 10.157 15.507 19.648 15.507s17.453-6.545 19.619-15.368l0.029-0.138z"></path>
<path fill="param(fill) #000" stroke="param(outline) #000" stroke-width="param(outline-width) 1" d="M99.206 50h-38.256c-0.294 0.001-0.532 0.24-0.532 0.535 0 0.041 0.005 0.081 0.013 0.119l-0.001-0.004c2.195 8.961 10.157 15.507 19.648 15.507s17.453-6.545 19.619-15.368l0.029-0.138c0.008-0.035 0.013-0.074 0.013-0.115 0-0.295-0.238-0.533-0.532-0.535h-0z"></path>
</svg>
