
<svg version="1.1" xmlns="http://www.w3.org/2000/svg" width="100" height="100" viewBox="0 0 100 100">
<title>rural</title>
<path fill="param(fill) #000" stroke="param(outline) #000" stroke-width="param(outline-width) 1" d="M99.999 13.542c0 7.479-6.063 13.542-13.542 13.542s-13.542-6.063-13.542-13.542c0-7.479 6.063-13.542 13.542-13.542s13.542 6.063 13.542 13.542z"></path>
<path fill="param(fill) #000" stroke="param(outline) #000" stroke-width="param(outline-width) 1" d="M17.707 25h5.208c0 3.452 2.798 6.25 6.25 6.25v0h10.417c3.452 0 6.25-2.798 6.25-6.25s-2.798-6.25-6.25-6.25v0h-6.355c-0.502-2.394-2.596-4.166-5.103-4.167h-10.417c-2.876 0-5.208 2.332-5.208 5.208s2.332 5.208 5.208 5.208v0z"></path>
<path fill="param(fill) #000" stroke="param(outline) #000" stroke-width="param(outline-width) 1" d="M47.999 47.125c-1.931-3.284-5.446-5.453-9.469-5.453s-7.538 2.169-9.441 5.402l-0.028 0.051-28.833 50.229c-0.139 0.248-0.222 0.545-0.222 0.861 0 0.986 0.799 1.785 1.785 1.785 0.007 0 0.014 0 0.021-0h35.061l1.167-2.063 19.5-34.188z"></path>
<path fill="param(fill) #000" stroke="param(outline) #000" stroke-width="param(outline-width) 1" d="M99.728 96.813l-20.688-36.188c-1.491-2.63-4.271-4.375-7.458-4.375s-5.967 1.745-7.436 4.333l-0.022 0.042-4.167 7.313-18.292 32.063h56.188c0.002 0 0.004 0 0.006 0 1.183 0 2.142-0.959 2.142-2.142 0-0.384-0.101-0.745-0.278-1.056l0.006 0.011z"></path>
</svg>
