
<svg version="1.1" xmlns="http://www.w3.org/2000/svg" width="76" height="100" viewBox="0 0 76 100">
<title>safety-and-security</title>
<path fill="param(fill) #000" stroke="param(outline) #000" stroke-width="param(outline-width) 1" d="M74.293 7.080l-35.729-7.027c-0.136-0.034-0.292-0.054-0.452-0.054s-0.317 0.020-0.466 0.056l0.013-0.003-35.729 7.027c-1.106 0.217-1.929 1.179-1.929 2.333 0 0.001 0 0.001 0 0.002v-0 48.068c0 23.486 17.388 42.518 38.111 42.518s38.111-19.032 38.111-42.518v-48.068c0-0 0-0.001 0-0.002 0-1.154-0.823-2.116-1.914-2.33l-0.015-0.002zM54.022 50.67l-1.667 1.643-13.387 13.982c-0.219 0.221-0.522 0.357-0.858 0.357s-0.639-0.137-0.857-0.357l-0-0-13.387-13.982-1.667-1.643c-1.94-1.879-3.144-4.508-3.144-7.419 0-2.84 1.146-5.412 3.002-7.278l-0 0c1.793-1.668 4.205-2.692 6.856-2.692 0.010 0 0.019 0 0.029 0h-0.001c2.773 0 5.288 1.109 7.124 2.908l-0.002-0.002 2.048 1.882 2.048-1.882c1.834-1.797 4.349-2.906 7.122-2.906v0c0.008 0 0.018 0 0.028 0 2.651 0 5.063 1.024 6.862 2.697l-0.006-0.006c1.855 1.866 3.001 4.438 3.001 7.278 0 2.91-1.204 5.539-3.142 7.416l-0.003 0.003z"></path>
</svg>
