
<svg version="1.1" xmlns="http://www.w3.org/2000/svg" width="100" height="100" viewBox="0 0 100 100">
<title>sanitation</title>
<path fill="param(fill) #000" stroke="param(outline) #000" stroke-width="param(outline-width) 1" d="M37.506 45.831c0.009 0 0.020 0 0.031 0 9.177 0 16.619-7.43 16.637-16.603v-0.002c0-8.292-13.647-25.793-16.251-29.022-0.098-0.124-0.248-0.203-0.417-0.203s-0.319 0.079-0.416 0.202l-0.001 0.001c-2.604 3.229-16.251 20.73-16.251 29.022 0.018 9.175 7.459 16.605 16.637 16.605 0.011 0 0.022 0 0.033 0h-0.002z"></path>
<path fill="param(fill) #000" stroke="param(outline) #000" stroke-width="param(outline-width) 1" d="M81.258 60.415h-28.126c-4.019 0.020-7.272 3.273-7.292 7.29v0.002c0.005 4.025 3.267 7.287 7.292 7.292h11.459c2.294 0.017 4.15 1.872 4.167 4.165v0.002c-0.007 2.298-1.868 4.16-4.166 4.167h-18.752c-1.277-0.012-2.443-0.483-3.34-1.256l0.007 0.006-28.314-27.564c-1.513-1.507-3.6-2.438-5.904-2.438-2.601 0-4.925 1.187-6.46 3.049l-0.011 0.014c-1.127 1.438-1.807 3.273-1.807 5.267 0 2.422 1.003 4.609 2.617 6.169l0.002 0.002 31.731 30.981c1.509 1.506 3.592 2.438 5.893 2.438 0.001 0 0.002 0 0.003 0h41.002c10.356 0 18.751-8.395 18.751-18.751v0-2.083c0-10.356-8.395-18.751-18.751-18.751v0z"></path>
</svg>
