
<svg version="1.1" xmlns="http://www.w3.org/2000/svg" width="100" height="100" viewBox="0 0 100 100">
<title>scale-up-operation</title>
<path fill="param(fill) #000" stroke="param(outline) #000" stroke-width="param(outline-width) 1" d="M20.833 81.25c2.301-0 4.167-1.866 4.167-4.167v0-35.775l9.554 9.554c0.754 0.754 1.796 1.22 2.946 1.22 2.301 0 4.166-1.865 4.166-4.166 0-1.15-0.466-2.192-1.22-2.946v0l-16.667-16.667c-0.754-0.754-1.795-1.221-2.946-1.221s-2.192 0.467-2.946 1.221l-16.667 16.667c-0.754 0.754-1.22 1.796-1.22 2.946 0 2.301 1.865 4.166 4.166 4.166 1.15 0 2.192-0.466 2.946-1.22l9.554-9.554v35.775c0 2.301 1.866 4.167 4.167 4.167v0z"></path>
<path fill="param(fill) #000" stroke="param(outline) #000" stroke-width="param(outline-width) 1" d="M82.113 28.304c-0.754-0.754-1.795-1.221-2.946-1.221s-2.192 0.467-2.946 1.221l-16.667 16.667c-0.754 0.754-1.22 1.796-1.22 2.946 0 2.301 1.865 4.166 4.166 4.166 1.15 0 2.192-0.466 2.946-1.22v0l9.554-9.554v35.775c0 2.301 1.866 4.167 4.167 4.167s4.167-1.866 4.167-4.167v0-35.775l9.554 9.554c0.754 0.754 1.796 1.22 2.946 1.22 2.301 0 4.166-1.865 4.166-4.166 0-1.15-0.466-2.192-1.22-2.946v0z"></path>
<path fill="param(fill) #000" stroke="param(outline) #000" stroke-width="param(outline-width) 1" d="M2.083 91.667h95.833c1.151 0 2.083 0.933 2.083 2.083v4.167c0 1.151-0.933 2.083-2.083 2.083h-95.833c-1.151 0-2.083-0.933-2.083-2.083v-4.167c0-1.151 0.933-2.083 2.083-2.083z"></path>
<path fill="param(fill) #000" stroke="param(outline) #000" stroke-width="param(outline-width) 1" d="M2.083 0h95.833c1.151 0 2.083 0.933 2.083 2.083v16.667c0 1.151-0.933 2.083-2.083 2.083h-95.833c-1.151 0-2.083-0.933-2.083-2.083v-16.667c0-1.151 0.933-2.083 2.083-2.083z"></path>
</svg>
