
<svg version="1.1" xmlns="http://www.w3.org/2000/svg" width="100" height="100" viewBox="0 0 100 100">
<title>school-affected</title>
<path fill="param(fill) #000" stroke="param(outline) #000" stroke-width="param(outline-width) 1" d="M20.833 41.667c11.506 0 20.833-9.327 20.833-20.833s-9.327-20.833-20.833-20.833c-11.506 0-20.833 9.327-20.833 20.833v0c0.004 11.504 9.329 20.829 20.833 20.833h0zM18.75 8.333c0-1.151 0.933-2.083 2.083-2.083s2.083 0.933 2.083 2.083v0 16.667c0 1.151-0.933 2.083-2.083 2.083s-2.083-0.933-2.083-2.083v0zM20.833 31.25c1.151 0 2.083 0.933 2.083 2.083s-0.933 2.083-2.083 2.083c-1.151 0-2.083-0.933-2.083-2.083v0c0.003-1.149 0.934-2.080 2.083-2.083h0z"></path>
<path fill="param(fill) #000" stroke="param(outline) #000" stroke-width="param(outline-width) 1" d="M96.875 93.75h-93.75c-1.726 0-3.125 1.399-3.125 3.125s1.399 3.125 3.125 3.125v0h93.75c1.726 0 3.125-1.399 3.125-3.125s-1.399-3.125-3.125-3.125v0z"></path>
<path fill="param(fill) #000" stroke="param(outline) #000" stroke-width="param(outline-width) 1" d="M27.083 47.188v9.063c-0.003 1.149-0.934 2.080-2.083 2.083h-4.167c-1.149-0.003-2.080-0.934-2.083-2.083v-8.417c-3.853-0.304-7.395-1.371-10.563-3.050l0.147 0.071v44.729h33.333v-20.833c0.007-2.298 1.868-4.16 4.166-4.167h8.334c2.298 0.007 4.16 1.868 4.167 4.166v20.834h33.333v-52.083c-0.003-1.149-0.934-2.080-2.083-2.083h-20.834l-14.583-10.938v-7.813h18.75v-12.5h-18.75c0-2.301-1.866-4.167-4.167-4.167s-4.167 1.866-4.167 4.167v0 6.229c1.317 3.078 2.083 6.66 2.083 10.421 0 12.745-8.796 23.435-20.648 26.332l-0.186 0.038zM27.083 79.167c-0.003 1.149-0.934 2.080-2.083 2.083h-4.167c-1.149-0.003-2.080-0.934-2.083-2.083v-10.417c0.003-1.149 0.934-2.080 2.083-2.083h4.167c1.149 0.003 2.080 0.934 2.083 2.083v0zM72.917 45.833c0.003-1.149 0.934-2.080 2.083-2.083h4.167c1.149 0.003 2.080 0.934 2.083 2.083v10.417c-0.003 1.149-0.934 2.080-2.083 2.083h-4.167c-1.149-0.003-2.080-0.934-2.083-2.083v-0zM72.917 68.75c0.003-1.149 0.934-2.080 2.083-2.083h4.167c1.149 0.003 2.080 0.934 2.083 2.083v10.417c-0.003 1.149-0.934 2.080-2.083 2.083h-4.167c-1.149-0.003-2.080-0.934-2.083-2.083v-0zM58.333 43.75c0 4.602-3.731 8.333-8.333 8.333s-8.333-3.731-8.333-8.333c0-4.602 3.731-8.333 8.333-8.333v0c0.001 0 0.001 0 0.002 0 4.601 0 8.331 3.73 8.331 8.331 0 0.001 0 0.002 0 0.002v-0z"></path>
</svg>
