
<svg version="1.1" xmlns="http://www.w3.org/2000/svg" width="100" height="100" viewBox="0 0 100 100">
<title>search</title>
<path fill="param(fill) #000" stroke="param(outline) #000" stroke-width="param(outline-width) 1" d="M97.56 85.775l-17.558-17.558c4.696-6.871 7.499-15.361 7.499-24.505 0-24.184-19.605-43.788-43.788-43.788s-43.788 19.605-43.788 43.788c0 24.184 19.605 43.788 43.788 43.788 9.144 0 17.633-2.803 24.656-7.596l-0.151 0.097 17.557 17.557c1.508 1.508 3.592 2.441 5.893 2.441 4.602 0 8.333-3.731 8.333-8.333 0-2.301-0.933-4.384-2.44-5.892v0zM16.667 43.75c0-0.007 0-0.015 0-0.024 0-14.958 12.126-27.083 27.083-27.083s27.083 12.126 27.083 27.083c0 7.34-2.92 13.998-7.662 18.876l0.006-0.006c-0.104 0.094-0.221 0.162-0.321 0.262s-0.168 0.217-0.262 0.32c-4.869 4.735-11.525 7.655-18.862 7.655-14.948 0-27.067-12.118-27.067-27.067 0-0.006 0-0.012 0-0.018v0.001z"></path>
</svg>
