
<svg version="1.1" xmlns="http://www.w3.org/2000/svg" width="130" height="100" viewBox="0 0 130 100">
<title>selected</title>
<path fill="param(fill) #000" stroke="param(outline) #000" stroke-width="param(outline-width) 1" d="M51.352 100c-0.001 0-0.001 0-0.002 0-3.222 0-6.115-1.41-8.095-3.647l-0.010-0.011-40.541-45.946c-1.679-1.896-2.704-4.405-2.704-7.153 0-5.971 4.84-10.811 10.811-10.811 3.223 0 6.116 1.41 8.097 3.647l0.010 0.011 32.339 36.651 59.475-68.988c1.994-2.304 4.922-3.753 8.189-3.753 5.971 0 10.81 4.84 10.81 10.81 0 2.704-0.993 5.176-2.633 7.071l0.012-0.014-67.568 78.379c-1.98 2.289-4.883 3.734-8.123 3.753h-0.003z"></path>
</svg>
