
<svg version="1.1" xmlns="http://www.w3.org/2000/svg" width="100" height="100" viewBox="0 0 100 100">
<title>services-and-tools</title>
<path fill="param(fill) #000" stroke="param(outline) #000" stroke-width="param(outline-width) 1" d="M33.065 52.901c-0.567-0.563-1.347-0.911-2.21-0.911s-1.643 0.348-2.21 0.912l-24.999 24.999c-2.253 2.266-3.646 5.39-3.646 8.839s1.393 6.573 3.646 8.839l0.775 0.775c2.266 2.253 5.39 3.646 8.839 3.646s6.573-1.393 8.84-3.647l24.999-24.999c0.563-0.567 0.912-1.347 0.912-2.21s-0.348-1.643-0.912-2.21l0 0z"></path>
<path fill="param(fill) #000" stroke="param(outline) #000" stroke-width="param(outline-width) 1" d="M63.472 43.892l16.538-16.538 11.354-1.573c1.244-0.177 2.278-0.941 2.826-1.997l0.010-0.021 5.336-10.472c0.258-0.497 0.41-1.084 0.41-1.708 0-1.039-0.421-1.979-1.101-2.66l-7.766-7.766c-0.681-0.681-1.621-1.102-2.66-1.102-0.623 0-1.211 0.152-1.729 0.42l0.021-0.010-10.472 5.336c-1.077 0.558-1.841 1.591-2.016 2.815l-0.002 0.020-1.573 11.351-16.54 16.54z"></path>
<path fill="param(fill) #000" stroke="param(outline) #000" stroke-width="param(outline-width) 1" d="M74.798 63.627l-38.457-38.454c0.72-1.912 1.137-4.121 1.137-6.429 0-10.355-8.394-18.749-18.749-18.749-0.931 0-1.847 0.068-2.742 0.199l0.102-0.012c-1.015 0.157-1.783 1.025-1.783 2.072 0 0.579 0.235 1.103 0.614 1.482l8.046 8.045c1.373 1.376 2.222 3.275 2.222 5.372s-0.849 3.997-2.222 5.373l-0.459 0.459c-1.375 1.375-3.275 2.226-5.373 2.226s-3.997-0.85-5.372-2.225l-8.027-8.027c-0.379-0.379-0.903-0.614-1.482-0.614-1.046 0-1.914 0.767-2.070 1.77l-0.001 0.012c-0.116 0.784-0.183 1.69-0.183 2.61 0 10.345 8.386 18.73 18.73 18.73 2.297 0 4.497-0.413 6.53-1.17l-0.129 0.042 38.501 38.499c-0.715 1.906-1.129 4.109-1.129 6.409 0 10.357 8.396 18.753 18.753 18.753 0.932 0 1.849-0.068 2.745-0.199l-0.102 0.012c1.013-0.159 1.778-1.026 1.778-2.071 0-0.579-0.235-1.103-0.614-1.482l-7.116-7.116c-1.33-1.329-2.152-3.166-2.152-5.195s0.822-3.866 2.152-5.195l0.793-0.793c1.33-1.33 3.167-2.152 5.195-2.152s3.866 0.822 5.195 2.152l7.123 7.123c0.379 0.379 0.903 0.614 1.482 0.614 1.044 0 1.91-0.763 2.069-1.762l0.002-0.012c0.123-0.805 0.193-1.735 0.193-2.681 0-10.359-8.398-18.757-18.757-18.757-2.312 0-4.527 0.418-6.572 1.184l0.129-0.042z"></path>
</svg>
