
<svg version="1.1" xmlns="http://www.w3.org/2000/svg" width="100" height="100" viewBox="0 0 100 100">
<title>settings</title>
<path fill="param(fill) #000" stroke="param(outline) #000" stroke-width="param(outline-width) 1" d="M93.75 43.75h-2.604c-1.086-7.016-3.79-13.254-7.719-18.525l0.078 0.11 1.851-1.85c1.131-1.131 1.831-2.694 1.831-4.42 0-3.452-2.798-6.25-6.25-6.25-1.726 0-3.288 0.699-4.419 1.83l-1.852 1.851c-5.161-3.851-11.4-6.555-18.183-7.612l-0.233-0.030v-2.604c0-3.452-2.798-6.25-6.25-6.25s-6.25 2.798-6.25 6.25v0 2.604c-7.016 1.086-13.254 3.79-18.525 7.719l0.109-0.078-1.852-1.851c-1.131-1.131-2.693-1.83-4.419-1.83-3.452 0-6.25 2.798-6.25 6.25 0 1.726 0.7 3.289 1.831 4.42l1.851 1.85c-3.851 5.161-6.555 11.399-7.612 18.183l-0.030 0.233h-2.604c-3.452 0-6.25 2.798-6.25 6.25s2.798 6.25 6.25 6.25v0h2.604c1.086 7.016 3.79 13.254 7.719 18.525l-0.078-0.11-1.851 1.85c-1.131 1.131-1.831 2.694-1.831 4.42 0 3.452 2.798 6.25 6.25 6.25 1.726 0 3.288-0.699 4.419-1.83l1.852-1.851c5.161 3.851 11.4 6.555 18.183 7.612l0.233 0.030v2.604c0 3.452 2.798 6.25 6.25 6.25s6.25-2.798 6.25-6.25v0-2.604c7.016-1.086 13.254-3.79 18.525-7.719l-0.109 0.078 1.852 1.851c1.131 1.131 2.693 1.83 4.419 1.83 3.452 0 6.25-2.798 6.25-6.25 0-1.726-0.7-3.289-1.831-4.42l-1.851-1.85c3.851-5.161 6.555-11.399 7.612-18.183l0.030-0.233h2.604c3.452 0 6.25-2.798 6.25-6.25s-2.798-6.25-6.25-6.25v0zM50 79.167c-16.108 0-29.167-13.058-29.167-29.167s13.058-29.167 29.167-29.167c16.108 0 29.167 13.058 29.167 29.167v0c-0.019 16.101-13.066 29.148-29.165 29.167h-0.002z"></path>
</svg>
