
<svg version="1.1" xmlns="http://www.w3.org/2000/svg" width="114" height="100" viewBox="0 0 114 100">
<title>sexual-and-reproductive-health</title>
<path fill="param(fill) #000" stroke="param(outline) #000" stroke-width="param(outline-width) 1" d="M105.988 9.404l-0.881-0.904c-5.073-5.244-12.174-8.5-20.035-8.5s-14.962 3.256-20.027 8.492l-0.007 0.008-7.904 8.166-7.881-8.166c-5.073-5.244-12.174-8.5-20.034-8.5s-14.962 3.255-20.027 8.492l-0.007 0.008-0.881 0.904c-5.137 5.304-8.303 12.544-8.303 20.523s3.166 15.218 8.311 20.53l-0.008-0.008 46.712 48.64c0.529 0.561 1.277 0.911 2.107 0.911s1.578-0.349 2.106-0.909l0.001-0.001 46.759-48.64c5.126-5.309 8.285-12.547 8.285-20.523s-3.159-15.214-8.293-20.531l0.008 0.009zM74.775 53.354c-0.846 0.867-2.026 1.405-3.332 1.405-0.009 0-0.018 0-0.026-0h-9.522v9.523c0 2.63-2.132 4.762-4.762 4.762s-4.762-2.132-4.762-4.762v0-9.523h-9.523c-2.63 0-4.762-2.132-4.762-4.762s2.132-4.762 4.762-4.762v0h9.523v-9.523c0.002-2.63 2.134-4.762 4.764-4.762 1.308 0 2.493 0.527 3.354 1.381l-0-0c0.867 0.848 1.405 2.031 1.405 3.338 0 0.015-0 0.030-0 0.045v-0.002 9.523h9.523c0 0 0.001 0 0.001 0 2.629 0 4.76 2.131 4.76 4.76 0 0 0 0.001 0 0.001v-0c0 0.007 0 0.016 0 0.025 0 1.306-0.538 2.486-1.404 3.331l-0.001 0.001z"></path>
</svg>
