
<svg version="1.1" xmlns="http://www.w3.org/2000/svg" width="133" height="100" viewBox="0 0 133 100">
<title>share</title>
<path fill="param(fill) #000" stroke="param(outline) #000" stroke-width="param(outline-width) 1" d="M50 83.333h-33.333v-66.667h33.333c4.602 0 8.333-3.731 8.333-8.333s-3.731-8.333-8.333-8.333v0h-36.111c-7.667 0.009-13.88 6.222-13.889 13.888v72.223c0.009 7.667 6.222 13.88 13.888 13.889h36.112c4.602 0 8.333-3.731 8.333-8.333s-3.731-8.333-8.333-8.333v0z"></path>
<path fill="param(fill) #000" stroke="param(outline) #000" stroke-width="param(outline-width) 1" d="M130.892 44.108l-36.111-36.111c-1.508-1.508-3.591-2.441-5.892-2.441-4.602 0-8.332 3.731-8.332 8.332 0 2.301 0.933 4.384 2.441 5.892l21.886 21.886h-65.994c-4.602 0-8.333 3.731-8.333 8.333s3.731 8.333 8.333 8.333v0h65.994l-21.886 21.886c-1.508 1.508-2.441 3.591-2.441 5.892 0 4.602 3.731 8.332 8.332 8.332 2.301 0 4.384-0.933 5.892-2.441l36.111-36.111c1.508-1.508 2.441-3.591 2.441-5.892s-0.933-4.384-2.441-5.892v0z"></path>
</svg>
