
<svg version="1.1" xmlns="http://www.w3.org/2000/svg" width="100" height="100" viewBox="0 0 100 100">
<title>shelter</title>
<path fill="param(fill) #000" stroke="param(outline) #000" stroke-width="param(outline-width) 1" d="M50 37.488c-12.471 0-21.875 8.508-21.875 19.792 0 1.726 1.399 3.125 3.125 3.125s3.125-1.399 3.125-3.125v0c0.042-5.058 2.97-9.421 7.216-11.529l0.076-0.034v51.158c0 1.726 1.399 3.125 3.125 3.125s3.125-1.399 3.125-3.125v0-26.042h4.167v26.042c0 1.726 1.399 3.125 3.125 3.125s3.125-1.399 3.125-3.125v0-51.158c4.322 2.142 7.25 6.505 7.292 11.557v0.006c0 1.726 1.399 3.125 3.125 3.125s3.125-1.399 3.125-3.125v0c0-11.283-9.403-19.792-21.875-19.792z"></path>
<path fill="param(fill) #000" stroke="param(outline) #000" stroke-width="param(outline-width) 1" d="M56.358 27.084c0 3.452-2.798 6.25-6.25 6.25s-6.25-2.798-6.25-6.25c0-3.452 2.798-6.25 6.25-6.25s6.25 2.798 6.25 6.25z"></path>
<path fill="param(fill) #000" stroke="param(outline) #000" stroke-width="param(outline-width) 1" d="M97.41 26.748l-44.791-26.042c-0.75-0.444-1.654-0.706-2.618-0.706s-1.868 0.262-2.643 0.72l0.024-0.013-44.791 26.042c-1.56 0.919-2.59 2.59-2.59 4.502 0 0 0 0 0 0.001v0 63.541c0 2.876 2.332 5.208 5.208 5.208s5.208-2.332 5.208-5.208v0-60.545l39.583-23.014 39.583 23.014v60.545c0 2.876 2.332 5.208 5.208 5.208s5.208-2.332 5.208-5.208v0-63.541c0-0 0-0 0-0.001 0-1.912-1.030-3.583-2.566-4.488l-0.024-0.013z"></path>
</svg>
