
<svg version="1.1" xmlns="http://www.w3.org/2000/svg" width="100" height="100" viewBox="0 0 100 100">
<title>ship</title>
<path fill="param(fill) #000" stroke="param(outline) #000" stroke-width="param(outline-width) 1" d="M31.25 0h12.5c1.151 0 2.083 0.933 2.083 2.083v12.5c0 1.151-0.933 2.083-2.083 2.083h-12.5c-1.151 0-2.083-0.933-2.083-2.083v-12.5c0-1.151 0.933-2.083 2.083-2.083z"></path>
<path fill="param(fill) #000" stroke="param(outline) #000" stroke-width="param(outline-width) 1" d="M52.083 0h12.5c1.151 0 2.083 0.933 2.083 2.083v12.5c0 1.151-0.933 2.083-2.083 2.083h-12.5c-1.151 0-2.083-0.933-2.083-2.083v-12.5c0-1.151 0.933-2.083 2.083-2.083z"></path>
<path fill="param(fill) #000" stroke="param(outline) #000" stroke-width="param(outline-width) 1" d="M19.438 66.667c0.092 0.003 0.201 0.005 0.31 0.005 1.985 0 3.831-0.593 5.372-1.61l-0.036 0.023c2.644-1.625 5.847-2.587 9.275-2.587 0.123 0 0.246 0.001 0.369 0.004l-0.018-0c0.099-0.002 0.215-0.003 0.331-0.003 3.441 0 6.657 0.962 9.394 2.632l-0.079-0.045c1.495 0.996 3.333 1.589 5.308 1.589 0.119 0 0.237-0.002 0.354-0.006l-0.017 0c0.097 0.004 0.21 0.005 0.324 0.005 1.973 0 3.808-0.593 5.336-1.61l-0.035 0.022c2.652-1.625 5.863-2.587 9.298-2.587 0.122 0 0.244 0.001 0.366 0.004l-0.018-0c0.104-0.002 0.227-0.003 0.35-0.003 3.428 0 6.63 0.962 9.353 2.632l-0.078-0.045c1.43 0.944 3.175 1.521 5.052 1.562l0.011 0c5.181-6.131 8.651-13.861 9.587-22.354l0.017-0.188c0.011-0.114 0.018-0.247 0.018-0.381 0-2.286-1.854-4.14-4.14-4.14-0.016 0-0.031 0-0.047 0h-74.956c-0.013-0-0.029-0-0.044-0-2.286 0-4.14 1.854-4.14 4.14 0 0.134 0.006 0.267 0.019 0.398l-0.001-0.017c0.914 8.315 4.135 15.742 9.001 21.789l-0.063-0.081c1.12 0.545 2.436 0.864 3.826 0.864 0.142 0 0.283-0.003 0.423-0.010l-0.020 0.001z"></path>
<path fill="param(fill) #000" stroke="param(outline) #000" stroke-width="param(outline-width) 1" d="M95.833 87.5c-0.106-0.002-0.231-0.004-0.357-0.004-3.431 0-6.636 0.966-9.358 2.64l0.078-0.044c-1.61 0.989-3.56 1.575-5.647 1.575s-4.037-0.586-5.695-1.602l0.048 0.027c-2.645-1.63-5.85-2.596-9.281-2.596-0.125 0-0.25 0.001-0.375 0.004l0.019-0c-0.105-0.002-0.228-0.003-0.351-0.003-3.431 0-6.637 0.966-9.36 2.64l0.078-0.044c-1.503 0.99-3.347 1.58-5.328 1.58-0.11 0-0.22-0.002-0.329-0.005l0.016 0c-0.093 0.003-0.203 0.005-0.313 0.005-1.982 0-3.827-0.589-5.368-1.603l0.037 0.023c-2.644-1.63-5.848-2.596-9.278-2.596-0.125 0-0.25 0.001-0.375 0.004l0.019-0c-0.105-0.002-0.228-0.003-0.351-0.003-3.431 0-6.637 0.966-9.36 2.64l0.078-0.044c-1.503 0.99-3.347 1.58-5.328 1.58-0.11 0-0.22-0.002-0.329-0.005l0.016 0c-0.093 0.003-0.202 0.005-0.312 0.005-1.981 0-3.825-0.589-5.364-1.602l0.037 0.023c-2.645-1.63-5.849-2.595-9.279-2.595-0.123 0-0.247 0.001-0.369 0.004l0.018-0c-2.301 0-4.167 1.866-4.167 4.167s1.866 4.167 4.167 4.167v0c0.093-0.003 0.202-0.005 0.311-0.005 1.981 0 3.824 0.589 5.364 1.602l-0.037-0.023c2.645 1.63 5.849 2.595 9.28 2.595 0.124 0 0.247-0.001 0.37-0.004l-0.018 0c0.106 0.002 0.231 0.004 0.356 0.004 3.429 0 6.633-0.966 9.354-2.64l-0.077 0.044c1.504-0.99 3.347-1.58 5.329-1.58 0.11 0 0.22 0.002 0.329 0.005l-0.016-0c0.093-0.003 0.203-0.005 0.313-0.005 1.982 0 3.827 0.589 5.368 1.603l-0.037-0.023c2.644 1.63 5.848 2.596 9.278 2.596 0.125 0 0.25-0.001 0.375-0.004l-0.019 0c0.106 0.002 0.231 0.004 0.356 0.004 3.429 0 6.633-0.966 9.354-2.64l-0.077 0.044c1.609-0.989 3.559-1.575 5.645-1.575s4.035 0.586 5.692 1.602l-0.048-0.027c2.763 1.629 6.087 2.592 9.637 2.592s6.874-0.963 9.727-2.641l-0.090 0.049c1.505-0.99 3.351-1.58 5.334-1.58 0.11 0 0.22 0.002 0.329 0.005l-0.016-0c2.301 0 4.167-1.866 4.167-4.167s-1.866-4.167-4.167-4.167v0z"></path>
<path fill="param(fill) #000" stroke="param(outline) #000" stroke-width="param(outline-width) 1" d="M4.167 79.167c0.093-0.003 0.202-0.005 0.311-0.005 1.981 0 3.824 0.589 5.364 1.602l-0.037-0.023c2.645 1.63 5.849 2.595 9.28 2.595 0.124 0 0.247-0.001 0.37-0.004l-0.018 0c0.106 0.002 0.231 0.004 0.356 0.004 3.429 0 6.633-0.966 9.354-2.64l-0.077 0.044c1.504-0.99 3.347-1.58 5.329-1.58 0.11 0 0.22 0.002 0.329 0.005l-0.016-0c0.093-0.003 0.203-0.005 0.313-0.005 1.982 0 3.827 0.589 5.368 1.603l-0.037-0.023c2.644 1.63 5.848 2.596 9.278 2.596 0.125 0 0.25-0.001 0.375-0.004l-0.019 0c0.106 0.002 0.231 0.004 0.356 0.004 3.429 0 6.633-0.966 9.354-2.64l-0.077 0.044c1.609-0.989 3.559-1.575 5.645-1.575s4.035 0.586 5.692 1.602l-0.048-0.027c2.763 1.629 6.087 2.592 9.637 2.592s6.874-0.963 9.727-2.641l-0.090 0.049c1.505-0.99 3.351-1.58 5.334-1.58 0.11 0 0.22 0.002 0.329 0.005l-0.016-0c2.301 0 4.167-1.866 4.167-4.167s-1.866-4.167-4.167-4.167v0c-0.106-0.002-0.231-0.004-0.357-0.004-3.431 0-6.636 0.966-9.358 2.64l0.078-0.044c-1.61 0.989-3.56 1.575-5.647 1.575s-4.037-0.586-5.695-1.602l0.048 0.027c-2.645-1.63-5.85-2.596-9.281-2.596-0.125 0-0.25 0.001-0.375 0.004l0.019-0c-0.105-0.002-0.228-0.003-0.351-0.003-3.431 0-6.637 0.966-9.36 2.64l0.078-0.044c-1.503 0.99-3.347 1.58-5.328 1.58-0.11 0-0.22-0.002-0.329-0.005l0.016 0c-0.093 0.003-0.203 0.005-0.313 0.005-1.982 0-3.827-0.589-5.368-1.603l0.037 0.023c-2.644-1.63-5.848-2.596-9.278-2.596-0.125 0-0.25 0.001-0.375 0.004l0.019-0c-0.105-0.002-0.228-0.003-0.351-0.003-3.431 0-6.637 0.966-9.36 2.64l0.078-0.044c-1.503 0.99-3.347 1.58-5.328 1.58-0.11 0-0.22-0.002-0.329-0.005l0.016 0c-0.093 0.003-0.202 0.005-0.312 0.005-1.981 0-3.825-0.589-5.364-1.602l0.037 0.023c-2.645-1.63-5.849-2.595-9.279-2.595-0.123 0-0.247 0.001-0.369 0.004l0.018-0c-2.301 0-4.167 1.866-4.167 4.167s1.866 4.167 4.167 4.167v0z"></path>
<path fill="param(fill) #000" stroke="param(outline) #000" stroke-width="param(outline-width) 1" d="M18.75 22.917h58.333c1.151 0 2.083 0.933 2.083 2.083v6.25c0 1.151-0.933 2.083-2.083 2.083h-58.333c-1.151 0-2.083-0.933-2.083-2.083v-6.25c0-1.151 0.933-2.083 2.083-2.083z"></path>
</svg>
