
<svg version="1.1" xmlns="http://www.w3.org/2000/svg" width="58" height="100" viewBox="0 0 58 100">
<title>smartphone</title>
<path fill="param(fill) #000" stroke="param(outline) #000" stroke-width="param(outline-width) 1" d="M54.167 0h-50c-2.298 0.007-4.16 1.868-4.167 4.166v91.667c0.007 2.298 1.868 4.16 4.166 4.167h50.001c2.298-0.007 4.16-1.868 4.167-4.166v-91.667c-0.007-2.298-1.868-4.16-4.166-4.167h-0.001zM22.917 6.25h12.5c1.151 0 2.083 0.933 2.083 2.083s-0.933 2.083-2.083 2.083v0h-12.5c-1.151 0-2.083-0.933-2.083-2.083s0.933-2.083 2.083-2.083v0zM29.167 93.75c-2.301 0-4.167-1.866-4.167-4.167s1.866-4.167 4.167-4.167c2.301 0 4.167 1.866 4.167 4.167v0c-0.007 2.298-1.868 4.16-4.166 4.167h-0.001zM50 79.167h-41.667v-62.5h41.667z"></path>
</svg>
