
<svg version="1.1" xmlns="http://www.w3.org/2000/svg" width="100" height="100" viewBox="0 0 100 100">
<title>snow-avalanche</title>
<path fill="param(fill) #000" stroke="param(outline) #000" stroke-width="param(outline-width) 1" d="M75.397 15.277v0c0.557 0.844 1.5 1.393 2.572 1.393 0.54 0 1.048-0.14 1.489-0.385l-0.016 0.008 1.807-0.978v2.393c0 1.726 1.399 3.125 3.125 3.125s3.125-1.399 3.125-3.125v0-2.393l1.807 0.978c0.425 0.237 0.933 0.377 1.474 0.377 1.072 0 2.016-0.549 2.565-1.382l0.007-0.012v-0c0.246-0.398 0.392-0.88 0.392-1.396 0-1.042-0.593-1.945-1.461-2.391l-0.015-0.007-1.97-1.067 1.97-1.067c0.882-0.452 1.476-1.356 1.476-2.398 0-0.516-0.146-0.999-0.398-1.408l0.007 0.012v-0c-0.557-0.844-1.5-1.393-2.572-1.393-0.54 0-1.048 0.14-1.489 0.385l0.016-0.008-1.807 0.978v-2.393c0-1.726-1.399-3.125-3.125-3.125s-3.125 1.399-3.125 3.125v0 2.393l-1.807-0.978c-0.425-0.237-0.933-0.377-1.474-0.377-1.072 0-2.016 0.549-2.565 1.382l-0.007 0.012v0c-0.246 0.398-0.392 0.88-0.392 1.397 0 1.042 0.593 1.945 1.46 2.39l0.015 0.007 1.97 1.067-1.97 1.067c-0.882 0.452-1.476 1.356-1.476 2.397 0 0.516 0.146 0.999 0.398 1.408l-0.007-0.012z"></path>
<path fill="param(fill) #000" stroke="param(outline) #000" stroke-width="param(outline-width) 1" d="M99.189 41.053c-0.919-2.288-2.702-4.065-4.933-4.956l-0.059-0.021c-1.063-0.436-2.296-0.69-3.589-0.69-1.312 0-2.563 0.261-3.704 0.733l0.064-0.024c-0.952 0.475-1.595 1.443-1.595 2.561 0 0.533 0.146 1.031 0.4 1.458l-0.007-0.013c0.524 0.984 1.543 1.642 2.716 1.642 0.297 0 0.584-0.042 0.856-0.121l-0.022 0.005c0.252-0.048 0.542-0.075 0.839-0.075 0.594 0 1.163 0.109 1.687 0.309l-0.033-0.011c0.729 0.301 1.298 0.866 1.598 1.573l0.007 0.019c0.204 0.504 0.322 1.089 0.322 1.702 0 1.948-1.196 3.616-2.893 4.311l-0.031 0.011c-0.77 0.335-1.666 0.529-2.608 0.529-0.921 0-1.798-0.186-2.596-0.522l0.044 0.016c-1.615-0.683-2.869-1.956-3.51-3.542l-0.015-0.043-13.68-29.538c-0.514-1.063-1.584-1.783-2.822-1.783-1.725 0-3.124 1.399-3.124 3.124 0 0.487 0.112 0.948 0.31 1.359l-0.008-0.019 13.615 29.393c1.305 3.109 3.734 5.53 6.765 6.795l0.083 0.031c1.456 0.62 3.149 0.982 4.927 0.983h0c1.813-0.003 3.539-0.375 5.106-1.045l-0.085 0.032c4.005-1.676 6.768-5.564 6.768-10.096 0-1.473-0.292-2.879-0.821-4.161l0.026 0.073z"></path>
<path fill="param(fill) #000" stroke="param(outline) #000" stroke-width="param(outline-width) 1" d="M43.854 15.271c-0.748-1.647-2.378-2.771-4.271-2.771s-3.523 1.124-4.259 2.742l-0.012 0.029-34.905 78.146c-0.256 0.56-0.405 1.214-0.405 1.904 0 2.584 2.095 4.68 4.68 4.68 0.006 0 0.012 0 0.018 0h69.768c0.003 0 0.008 0 0.012 0 2.59 0 4.689-2.099 4.689-4.689 0-0.694-0.151-1.352-0.421-1.944l0.012 0.029zM31.25 45.833l8.333-18.75 8.333 18.75z"></path>
</svg>
