
<svg version="1.1" xmlns="http://www.w3.org/2000/svg" width="100" height="100" viewBox="0 0 100 100">
<title>soap</title>
<path fill="param(fill) #000" stroke="param(outline) #000" stroke-width="param(outline-width) 1" d="M83.333 47.917h-4.333c-1.046-7.107-7.101-12.5-14.417-12.5s-13.371 5.393-14.407 12.421l-0.010 0.079h-33.5c-9.194 0.028-16.639 7.473-16.667 16.664v18.753c0.028 9.194 7.473 16.639 16.664 16.667h66.669c9.194-0.028 16.639-7.473 16.667-16.664v-18.753c-0.028-9.194-7.473-16.639-16.664-16.667h-0.003zM56.521 47.917c0.955-3.622 4.202-6.25 8.063-6.25s7.107 2.628 8.049 6.192l0.013 0.058c0.172 0.604 0.271 1.298 0.271 2.015 0 0.024-0 0.048-0 0.072v-0.004c0 4.602-3.731 8.333-8.333 8.333s-8.333-3.731-8.333-8.333v0c-0-0.020-0-0.044-0-0.068 0-0.717 0.099-1.411 0.284-2.069l-0.013 0.054zM42.708 75c-4.027 0-7.292-3.265-7.292-7.292s3.265-7.292 7.292-7.292c4.027 0 7.292 3.265 7.292 7.292v0c-0.005 4.025-3.267 7.287-7.291 7.292h-0z"></path>
<path fill="param(fill) #000" stroke="param(outline) #000" stroke-width="param(outline-width) 1" d="M38.542 35.417c9.78 0 17.708-7.928 17.708-17.708s-7.928-17.708-17.708-17.708c-9.78 0-17.708 7.928-17.708 17.708v0c0.007 9.777 7.931 17.702 17.708 17.708h0.001zM38.542 6.25c6.328 0 11.458 5.13 11.458 11.458s-5.13 11.458-11.458 11.458c-6.328 0-11.458-5.13-11.458-11.458v0c0-0.002 0-0.004 0-0.007 0-6.325 5.127-11.452 11.452-11.452 0.002 0 0.005 0 0.007 0h-0z"></path>
</svg>
