
<svg version="1.1" xmlns="http://www.w3.org/2000/svg" width="100" height="100" viewBox="0 0 100 100">
<title>social-distancing</title>
<path fill="param(fill) #000" stroke="param(outline) #000" stroke-width="param(outline-width) 1" d="M81.25 15.623v0.002c-0 0.21-0.022 0.416-0.063 0.614l0.003-0.020c-0.042 0.212-0.099 0.397-0.172 0.574l0.001-0c-0.183 0.442-0.449 0.817-0.781 1.121l-0.002 0.002-12.451 12.429c-0.56 0.561-1.334 0.908-2.189 0.908-1.708 0-3.093-1.385-3.093-3.093 0-0.853 0.345-1.625 0.904-2.185v0l7.237-7.225h-41.288l7.237 7.225c0.558 0.56 0.904 1.332 0.904 2.185 0 1.708-1.385 3.093-3.093 3.093-0.855 0-1.629-0.347-2.189-0.908v0l-12.452-12.43c-0.333-0.306-0.599-0.68-0.774-1.101l-0.008-0.021-0.007-0.022c-0.14-0.339-0.222-0.732-0.224-1.145v-0.003c0.002-0.411 0.084-0.803 0.23-1.161l-0.008 0.021 0.009-0.029c0.182-0.438 0.445-0.81 0.773-1.112l0.002-0.002 12.458-12.435c0.561-0.564 1.337-0.914 2.195-0.914 1.708 0 3.093 1.385 3.093 3.093 0 0.856-0.348 1.631-0.909 2.191l-0 0-7.238 7.225h41.289l-7.237-7.225c-0.555-0.559-0.898-1.329-0.898-2.179 0-1.708 1.385-3.093 3.093-3.093 0.852 0 1.624 0.345 2.184 0.903l-0-0 12.456 12.434c0.331 0.304 0.594 0.676 0.769 1.094l0.008 0.021 0.009 0.029 0.001 0.004c0.064 0.154 0.12 0.336 0.158 0.525l0.003 0.020c0.037 0.177 0.059 0.381 0.059 0.59v0zM97.916 43.75c0-4.602-3.731-8.333-8.333-8.333s-8.333 3.731-8.333 8.333c0 4.602 3.731 8.333 8.333 8.333v0c4.602 0 8.333-3.731 8.333-8.333 0 0 0 0 0-0v0zM100 58.046c-3.065-1.138-6.606-1.796-10.3-1.796-0.041 0-0.082 0-0.123 0h0.006c-15.44 0-27.083 10.748-27.083 25 0 2.301 1.865 4.167 4.167 4.167s4.167-1.865 4.167-4.167v0c-0.002-0.088-0.003-0.191-0.003-0.295 0-5.945 3.343-11.109 8.252-13.716l0.084-0.041v32.801h20.833v-32.801zM10.417 52.083c4.602 0 8.333-3.731 8.333-8.333s-3.731-8.333-8.333-8.333c-4.602 0-8.333 3.731-8.333 8.333v0c0 4.602 3.731 8.333 8.333 8.333v0zM10.417 56.25c-0.035-0-0.075-0-0.116-0-3.694 0-7.235 0.658-10.511 1.864l0.211-0.068v41.954h20.833v-32.801c4.993 2.647 8.336 7.811 8.336 13.756 0 0.104-0.001 0.207-0.003 0.31l0-0.015c0 2.301 1.865 4.167 4.167 4.167s4.167-1.865 4.167-4.167v0c0-14.252-11.643-25-27.083-25z"></path>
</svg>
