
<svg version="1.1" xmlns="http://www.w3.org/2000/svg" width="71" height="100" viewBox="0 0 71 100">
<title>solid-waste</title>
<path fill="param(fill) #000" stroke="param(outline) #000" stroke-width="param(outline-width) 1" d="M64.583 20.833h-58.333c-1.149 0.003-2.080 0.934-2.083 2.083v75c0.003 1.149 0.934 2.080 2.083 2.083h58.334c1.149-0.003 2.080-0.934 2.083-2.083v-75c-0.003-1.149-0.934-2.080-2.083-2.083h-0zM20.833 87.5c0 1.151-0.933 2.083-2.083 2.083s-2.083-0.933-2.083-2.083v0-54.167c0-1.151 0.933-2.083 2.083-2.083s2.083 0.933 2.083 2.083v0zM37.5 87.5c0 1.151-0.933 2.083-2.083 2.083s-2.083-0.933-2.083-2.083v0-54.167c0-1.151 0.933-2.083 2.083-2.083s2.083 0.933 2.083 2.083v0zM54.167 87.5c0 1.151-0.933 2.083-2.083 2.083s-2.083-0.933-2.083-2.083v0-54.167c0-1.151 0.933-2.083 2.083-2.083s2.083 0.933 2.083 2.083v0z"></path>
<path fill="param(fill) #000" stroke="param(outline) #000" stroke-width="param(outline-width) 1" d="M66.667 8.333h-20.833v-2.083c0-3.452-2.798-6.25-6.25-6.25v0h-8.333c-3.452 0-6.25 2.798-6.25 6.25v0 2.083h-20.833c-2.301 0-4.167 1.866-4.167 4.167s1.866 4.167 4.167 4.167v0h62.5c2.301 0 4.167-1.866 4.167-4.167s-1.866-4.167-4.167-4.167v0z"></path>
</svg>
