
<svg version="1.1" xmlns="http://www.w3.org/2000/svg" width="100" height="100" viewBox="0 0 100 100">
<title>stop</title>
<path fill="param(fill) #000" stroke="param(outline) #000" stroke-width="param(outline-width) 1" d="M50 0c-27.614 0-50 22.386-50 50s22.386 50 50 50c27.614 0 50-22.386 50-50v0c0-0.002 0-0.004 0-0.006 0-27.611-22.383-49.994-49.994-49.994-0.002 0-0.004 0-0.007 0h0zM68.182 65.909c0 1.255-1.018 2.273-2.273 2.273v0h-31.818c-1.255 0-2.273-1.018-2.273-2.273v0-31.818c0-1.255 1.018-2.273 2.273-2.273v0h31.818c1.255 0 2.273 1.018 2.273 2.273v0z"></path>
</svg>
