
<svg version="1.1" xmlns="http://www.w3.org/2000/svg" width="100" height="100" viewBox="0 0 100 100">
<title>storm-surge</title>
<path fill="param(fill) #000" stroke="param(outline) #000" stroke-width="param(outline-width) 1" d="M95.833 87.5c-0.104-0.002-0.227-0.003-0.35-0.003-3.428 0-6.631 0.962-9.354 2.631l0.078-0.045c-1.612 0.994-3.565 1.583-5.656 1.583s-4.045-0.589-5.703-1.61l0.047 0.027c-2.645-1.625-5.848-2.587-9.275-2.587-0.123 0-0.245 0.001-0.368 0.004l0.018-0c-0.103-0.002-0.225-0.003-0.347-0.003-3.436 0-6.647 0.962-9.378 2.632l0.079-0.045c-1.493 0.996-3.328 1.589-5.301 1.589-0.114 0-0.227-0.002-0.34-0.006l0.016 0c-0.1 0.004-0.219 0.006-0.337 0.006-1.976 0-3.814-0.593-5.344-1.611l0.036 0.022c-2.658-1.625-5.875-2.586-9.316-2.586-0.116 0-0.232 0.001-0.348 0.003l0.017-0c-0.104-0.002-0.226-0.003-0.349-0.003-3.428 0-6.631 0.962-9.354 2.631l0.078-0.045c-1.504 0.996-3.351 1.588-5.336 1.588-0.109 0-0.218-0.002-0.326-0.005l0.016 0c-0.092 0.003-0.201 0.005-0.31 0.005-1.985 0-3.832-0.593-5.372-1.611l0.036 0.023c-2.645-1.625-5.848-2.587-9.275-2.587-0.123 0-0.246 0.001-0.368 0.004l0.018-0c-2.301 0-4.167 1.866-4.167 4.167s1.866 4.167 4.167 4.167v0c0.092-0.003 0.201-0.005 0.31-0.005 1.985 0 3.832 0.593 5.372 1.611l-0.036-0.023c2.645 1.625 5.848 2.587 9.275 2.587 0.123 0 0.246-0.001 0.368-0.004l-0.018 0c0.104 0.002 0.227 0.003 0.349 0.003 3.428 0 6.631-0.962 9.354-2.631l-0.078 0.045c1.504-0.996 3.351-1.588 5.336-1.588 0.109 0 0.217 0.002 0.325 0.005l-0.016-0c0.096-0.003 0.21-0.005 0.324-0.005 1.981 0 3.823 0.593 5.358 1.611l-0.036-0.022c2.653 1.625 5.863 2.587 9.299 2.587 0.122 0 0.244-0.001 0.365-0.004l-0.018 0c0.099 0.002 0.216 0.003 0.333 0.003 3.433 0 6.642-0.962 9.37-2.631l-0.079 0.045c1.608-0.994 3.558-1.583 5.646-1.583s4.038 0.589 5.693 1.61l-0.047-0.027c2.764 1.624 6.088 2.583 9.635 2.583s6.872-0.959 9.726-2.633l-0.091 0.049c1.5-0.996 3.342-1.589 5.322-1.589 0.114 0 0.227 0.002 0.34 0.006l-0.016-0c2.301 0 4.167-1.866 4.167-4.167s-1.866-4.167-4.167-4.167v0z"></path>
<path fill="param(fill) #000" stroke="param(outline) #000" stroke-width="param(outline-width) 1" d="M95.833 70.833c-0.104-0.002-0.227-0.003-0.35-0.003-3.428 0-6.631 0.962-9.354 2.631l0.078-0.045c-1.612 0.994-3.565 1.583-5.656 1.583s-4.045-0.589-5.703-1.61l0.047 0.027c-2.645-1.625-5.848-2.587-9.275-2.587-0.123 0-0.245 0.001-0.368 0.004l0.018-0c-0.103-0.002-0.225-0.003-0.347-0.003-3.436 0-6.647 0.962-9.378 2.632l0.079-0.045c-1.493 0.996-3.328 1.589-5.301 1.589-0.114 0-0.227-0.002-0.34-0.006l0.016 0c-0.1 0.004-0.219 0.006-0.337 0.006-1.976 0-3.814-0.593-5.344-1.611l0.036 0.022c-2.658-1.625-5.875-2.586-9.316-2.586-0.116 0-0.232 0.001-0.348 0.003l0.017-0c-0.104-0.002-0.226-0.003-0.349-0.003-3.428 0-6.631 0.962-9.354 2.631l0.078-0.045c-1.504 0.996-3.351 1.588-5.336 1.588-0.109 0-0.218-0.002-0.326-0.005l0.016 0c-0.092 0.003-0.201 0.005-0.31 0.005-1.985 0-3.832-0.593-5.372-1.611l0.036 0.023c-2.645-1.625-5.848-2.587-9.275-2.587-0.123 0-0.246 0.001-0.368 0.004l0.018-0c-2.301 0-4.167 1.866-4.167 4.167s1.866 4.167 4.167 4.167v0c0.092-0.003 0.201-0.005 0.31-0.005 1.985 0 3.832 0.593 5.372 1.611l-0.036-0.023c2.645 1.625 5.848 2.587 9.275 2.587 0.123 0 0.246-0.001 0.368-0.004l-0.018 0c0.104 0.002 0.227 0.003 0.349 0.003 3.428 0 6.631-0.962 9.354-2.631l-0.078 0.045c1.504-0.996 3.351-1.588 5.336-1.588 0.109 0 0.217 0.002 0.325 0.005l-0.016-0c0.096-0.003 0.21-0.005 0.324-0.005 1.981 0 3.823 0.593 5.358 1.611l-0.036-0.022c2.653 1.625 5.863 2.587 9.299 2.587 0.122 0 0.244-0.001 0.365-0.004l-0.018 0c0.099 0.002 0.216 0.003 0.333 0.003 3.433 0 6.642-0.962 9.37-2.631l-0.079 0.045c1.608-0.994 3.558-1.583 5.646-1.583s4.038 0.589 5.693 1.61l-0.047-0.027c2.764 1.624 6.088 2.583 9.635 2.583s6.872-0.959 9.726-2.633l-0.091 0.049c1.5-0.996 3.342-1.589 5.322-1.589 0.114 0 0.227 0.002 0.34 0.006l-0.016-0c2.301 0 4.167-1.866 4.167-4.167s-1.866-4.167-4.167-4.167v0z"></path>
<path fill="param(fill) #000" stroke="param(outline) #000" stroke-width="param(outline-width) 1" d="M16.667 45.833h59.375c7.446-0.010 13.674-5.217 15.251-12.187l0.020-0.105c0.225-1.002 0.354-2.153 0.354-3.333v-0c-0.003-8.628-6.997-15.622-15.625-15.625h-0c-0.009 0-0.020 0-0.030 0-2.021 0-3.951 0.39-5.719 1.099l0.104-0.037-0.005 0.002c-1.976-9.007-9.886-15.648-19.348-15.648-10.874 0-19.699 8.772-19.785 19.626l-0 0.008c-1.234-0.558-2.676-0.884-4.195-0.884-5.742 0-10.397 4.655-10.397 10.397 0 0.007 0 0.014 0 0.021v-0.001c-4.602 0-8.333 3.731-8.333 8.333s3.731 8.333 8.333 8.333v0z"></path>
<path fill="param(fill) #000" stroke="param(outline) #000" stroke-width="param(outline-width) 1" d="M22.892 51.079l-7.218 7.218c-0.664 0.666-1.074 1.585-1.074 2.599 0 2.034 1.649 3.683 3.683 3.683 1.015 0 1.933-0.41 2.599-1.074l7.218-7.218c0.664-0.666 1.074-1.585 1.074-2.599 0-2.034-1.649-3.683-3.683-3.683-1.015 0-1.933 0.41-2.599 1.074l0-0z"></path>
<path fill="param(fill) #000" stroke="param(outline) #000" stroke-width="param(outline-width) 1" d="M47.887 51.079l-7.218 7.218c-0.664 0.666-1.074 1.585-1.074 2.599 0 2.034 1.649 3.683 3.683 3.683 1.015 0 1.933-0.41 2.599-1.074l7.218-7.218c0.664-0.666 1.074-1.585 1.074-2.599 0-2.034-1.649-3.683-3.683-3.683-1.015 0-1.933 0.41-2.599 1.074l0-0z"></path>
<path fill="param(fill) #000" stroke="param(outline) #000" stroke-width="param(outline-width) 1" d="M72.88 51.079l-7.217 7.218c-0.664 0.666-1.074 1.585-1.074 2.599 0 2.034 1.649 3.683 3.683 3.683 1.015 0 1.933-0.41 2.599-1.074l7.217-7.218c0.664-0.666 1.074-1.585 1.074-2.599 0-2.034-1.649-3.683-3.683-3.683-1.015 0-1.933 0.41-2.599 1.074l0-0z"></path>
</svg>
