
<svg version="1.1" xmlns="http://www.w3.org/2000/svg" width="100" height="100" viewBox="0 0 100 100">
<title>storm</title>
<path fill="param(fill) #000" stroke="param(outline) #000" stroke-width="param(outline-width) 1" d="M81.208 18.771c-0.019-0-0.041-0-0.063-0-2.345 0-4.586 0.444-6.644 1.251l0.124-0.043-0.022 0.010c-1.961-11.414-11.784-19.99-23.61-19.99-13.119 0-23.773 10.554-23.936 23.634l-0 0.015c-1.259-0.469-2.713-0.741-4.231-0.741-6.877 0-12.451 5.575-12.451 12.451 0 0.787 0.073 1.557 0.213 2.304l-0.012-0.077-0.013-0.003c-0.346-0.053-0.744-0.084-1.15-0.084-0.028 0-0.056 0-0.083 0h0.004c-5.178 0-9.375 4.197-9.375 9.375s4.197 9.375 9.375 9.375v0h71.875c0.001 0 0.002 0 0.003 0 9.059 0 16.618-6.422 18.373-14.962l0.021-0.121c0.224-1.102 0.353-2.369 0.354-3.666v-0.001c-0.003-10.344-8.389-18.729-18.734-18.729-0.006 0-0.011 0-0.017 0h0.001z"></path>
<path fill="param(fill) #000" stroke="param(outline) #000" stroke-width="param(outline-width) 1" d="M59.333 77.083h-13.111l7.428-11.886c0.298-0.47 0.475-1.042 0.475-1.656 0-1.726-1.399-3.125-3.125-3.125-1.112 0-2.089 0.581-2.642 1.456l-0.008 0.013-10.417 16.667c-0.298 0.47-0.475 1.043-0.475 1.657 0 1.726 1.399 3.124 3.124 3.124 0 0 0.001 0 0.001 0h13.111l-7.428 11.886c-0.298 0.47-0.475 1.042-0.475 1.656 0 1.726 1.399 3.125 3.125 3.125 1.112 0 2.089-0.581 2.642-1.456l0.008-0.013 10.417-16.667c0.298-0.47 0.475-1.043 0.475-1.657 0-1.726-1.399-3.124-3.124-3.124-0 0-0.001 0-0.001 0h0z"></path>
</svg>
