
<svg version="1.1" xmlns="http://www.w3.org/2000/svg" width="100" height="100" viewBox="0 0 100 100">
<title>stove</title>
<path fill="param(fill) #000" stroke="param(outline) #000" stroke-width="param(outline-width) 1" d="M95.833 75h-10.417v-12.5c-0-2.301-1.866-4.167-4.167-4.167h-14.583c-2.301 0-4.167 1.866-4.167 4.167s1.866 4.167 4.167 4.167v0h10.417v8.333h-20.833v-6.25c0-3.452-2.798-6.25-6.25-6.25s-6.25 2.798-6.25 6.25v0 6.25h-20.833v-8.333h10.417c2.301 0 4.167-1.866 4.167-4.167s-1.866-4.167-4.167-4.167v0h-14.583c-2.301 0-4.167 1.866-4.167 4.167v0 12.5h-10.417c-2.298 0.007-4.16 1.868-4.167 4.166v16.667c0.007 2.298 1.868 4.16 4.166 4.167h91.667c2.298-0.007 4.16-1.868 4.167-4.166v-16.667c-0.007-2.298-1.868-4.16-4.166-4.167h-0.001zM54.167 89.583c0 2.301-1.866 4.167-4.167 4.167s-4.167-1.866-4.167-4.167v0-4.167c0.007-2.298 1.868-4.16 4.166-4.167h0.001c2.294 0.017 4.15 1.872 4.167 4.165v0.002z"></path>
<path fill="param(fill) #000" stroke="param(outline) #000" stroke-width="param(outline-width) 1" d="M25 37.489c0 2.301 1.866 4.167 4.167 4.167s4.167-1.866 4.167-4.167v0c0.003-0.121 0.004-0.264 0.004-0.408 0-3.595-0.938-6.97-2.583-9.895l0.052 0.101c-1.034-1.741-1.646-3.839-1.646-6.080 0-0.132 0.002-0.263 0.006-0.394l-0 0.019c-0.004-0.113-0.006-0.245-0.006-0.377 0-2.241 0.612-4.338 1.678-6.134l-0.031 0.056c1.591-2.824 2.529-6.2 2.529-9.795 0-0.142-0.001-0.284-0.004-0.425l0 0.021c0-2.301-1.866-4.167-4.167-4.167s-4.167 1.866-4.167 4.167v0c0.004 0.112 0.006 0.243 0.006 0.374 0 2.241-0.611 4.338-1.676 6.136l0.031-0.056c-1.593 2.823-2.531 6.199-2.531 9.794 0 0.143 0.001 0.287 0.004 0.429l-0-0.021c-0.003 0.12-0.004 0.262-0.004 0.404 0 3.595 0.938 6.971 2.581 9.897l-0.053-0.102c1.036 1.741 1.648 3.838 1.648 6.079 0 0.133-0.002 0.265-0.006 0.397l0-0.019z"></path>
<path fill="param(fill) #000" stroke="param(outline) #000" stroke-width="param(outline-width) 1" d="M70.833 37.489c0 2.301 1.866 4.167 4.167 4.167s4.167-1.866 4.167-4.167v0c0.003-0.121 0.004-0.264 0.004-0.408 0-3.595-0.938-6.97-2.583-9.895l0.052 0.101c-1.034-1.741-1.646-3.839-1.646-6.080 0-0.132 0.002-0.263 0.006-0.394l-0 0.019c-0.004-0.113-0.006-0.245-0.006-0.377 0-2.241 0.612-4.338 1.678-6.134l-0.031 0.056c1.591-2.824 2.529-6.2 2.529-9.795 0-0.142-0.001-0.284-0.004-0.425l0 0.021c0-2.301-1.866-4.167-4.167-4.167s-4.167 1.866-4.167 4.167v0c0.004 0.112 0.006 0.243 0.006 0.374 0 2.241-0.611 4.338-1.676 6.136l0.031-0.056c-1.593 2.823-2.531 6.199-2.531 9.794 0 0.143 0.001 0.287 0.004 0.429l-0-0.021c-0.003 0.12-0.004 0.262-0.004 0.404 0 3.595 0.938 6.971 2.581 9.897l-0.053-0.102c1.036 1.741 1.648 3.838 1.648 6.079 0 0.133-0.002 0.265-0.006 0.397l0-0.019z"></path>
<path fill="param(fill) #000" stroke="param(outline) #000" stroke-width="param(outline-width) 1" d="M47.917 37.489c0 2.301 1.866 4.167 4.167 4.167s4.167-1.866 4.167-4.167v0c0.003-0.121 0.004-0.264 0.004-0.408 0-3.595-0.938-6.97-2.583-9.895l0.052 0.101c-1.034-1.741-1.646-3.839-1.646-6.080 0-0.132 0.002-0.263 0.006-0.394l-0 0.019c-0.004-0.113-0.006-0.245-0.006-0.377 0-2.241 0.612-4.338 1.678-6.134l-0.031 0.056c1.591-2.824 2.529-6.2 2.529-9.795 0-0.142-0.001-0.284-0.004-0.425l0 0.021c0-2.301-1.866-4.167-4.167-4.167s-4.167 1.866-4.167 4.167v0c0.004 0.112 0.006 0.243 0.006 0.374 0 2.241-0.611 4.338-1.676 6.136l0.031-0.056c-1.593 2.823-2.531 6.199-2.531 9.794 0 0.143 0.001 0.287 0.004 0.429l-0-0.021c-0.003 0.12-0.004 0.262-0.004 0.404 0 3.595 0.938 6.971 2.581 9.897l-0.053-0.102c1.036 1.741 1.648 3.838 1.648 6.079 0 0.133-0.002 0.265-0.006 0.397l0-0.019z"></path>
</svg>
