
<svg version="1.1" xmlns="http://www.w3.org/2000/svg" width="100" height="100" viewBox="0 0 100 100">
<title>sugar</title>
<path fill="param(fill) #000" stroke="param(outline) #000" stroke-width="param(outline-width) 1" d="M4.167 70.833h20.833c2.301 0 4.167 1.866 4.167 4.167v20.833c0 2.301-1.866 4.167-4.167 4.167h-20.833c-2.301 0-4.167-1.866-4.167-4.167v-20.833c0-2.301 1.866-4.167 4.167-4.167z"></path>
<path fill="param(fill) #000" stroke="param(outline) #000" stroke-width="param(outline-width) 1" d="M16.159 63.619c0.511 1.772 2.118 3.046 4.023 3.046 0.395 0 0.777-0.055 1.139-0.157l-0.029 0.007 19.41-4.933c1.772-0.511 3.046-2.118 3.046-4.022 0-0.395-0.055-0.777-0.157-1.139l0.007 0.029-6.098-20.069c-0.511-1.772-2.118-3.046-4.022-3.046-0.395 0-0.777 0.055-1.139 0.157l0.029-0.007-18.903 5.591c-1.772 0.511-3.046 2.118-3.046 4.022 0 0.395 0.055 0.777 0.157 1.139l-0.007-0.029z"></path>
<path fill="param(fill) #000" stroke="param(outline) #000" stroke-width="param(outline-width) 1" d="M56.25 37.5h20.833c2.301 0 4.167 1.866 4.167 4.167v20.833c0 2.301-1.866 4.167-4.167 4.167h-20.833c-2.301 0-4.167-1.866-4.167-4.167v-20.833c0-2.301 1.866-4.167 4.167-4.167z"></path>
<path fill="param(fill) #000" stroke="param(outline) #000" stroke-width="param(outline-width) 1" d="M45.352 29.004l20.861 2.218c0.141 0.017 0.305 0.027 0.471 0.027 2.133 0 3.893-1.598 4.148-3.663l0.002-0.020 2.055-20.861c0.017-0.142 0.027-0.305 0.027-0.472 0-2.133-1.599-3.894-3.664-4.147l-20.525-2.057c-0.141-0.017-0.305-0.027-0.471-0.027-2.133 0-3.893 1.598-4.148 3.663l-0.002 0.020-2.412 20.698c-0.017 0.142-0.027 0.305-0.027 0.472 0 2.133 1.599 3.894 3.664 4.147l0.020 0.002z"></path>
<path fill="param(fill) #000" stroke="param(outline) #000" stroke-width="param(outline-width) 1" d="M39.583 70.833h20.833c2.301 0 4.167 1.866 4.167 4.167v20.833c0 2.301-1.866 4.167-4.167 4.167h-20.833c-2.301 0-4.167-1.866-4.167-4.167v-20.833c0-2.301 1.866-4.167 4.167-4.167z"></path>
<path fill="param(fill) #000" stroke="param(outline) #000" stroke-width="param(outline-width) 1" d="M75 70.833h20.833c2.301 0 4.167 1.866 4.167 4.167v20.833c0 2.301-1.866 4.167-4.167 4.167h-20.833c-2.301 0-4.167-1.866-4.167-4.167v-20.833c0-2.301 1.866-4.167 4.167-4.167z"></path>
</svg>
