
<svg version="1.1" xmlns="http://www.w3.org/2000/svg" width="112" height="100" viewBox="0 0 112 100">
<title>technological-disaster</title>
<path fill="param(fill) #000" stroke="param(outline) #000" stroke-width="param(outline-width) 1" d="M63.346 61.189c-2.216 1.014-4.806 1.605-7.534 1.605s-5.319-0.591-7.65-1.652l0.116 0.047-17.72 29.812c-0.207 0.338-0.33 0.747-0.33 1.185 0 0.89 0.507 1.661 1.247 2.041l0.013 0.006c7.098 3.636 15.485 5.767 24.37 5.767 8.848 0 17.203-2.113 24.587-5.863l-0.31 0.143c0.754-0.386 1.26-1.158 1.26-2.047 0-0.438-0.123-0.847-0.336-1.195l0.006 0.010z"></path>
<path fill="param(fill) #000" stroke="param(outline) #000" stroke-width="param(outline-width) 1" d="M43.324 30.424l-16.58-29.207c-0.393-0.726-1.148-1.21-2.017-1.21-0.45 0-0.871 0.13-1.225 0.355l0.009-0.006c-13.654 9.071-22.729 24.094-23.506 41.279l-0.004 0.113c-0.001 0.028-0.002 0.060-0.002 0.092 0 1.297 1.052 2.349 2.349 2.349 0 0 0.001 0 0.001 0h34.858c0-0.002 0-0.005 0-0.008 0-5.451 2.354-10.353 6.1-13.745l0.016-0.014z"></path>
<path fill="param(fill) #000" stroke="param(outline) #000" stroke-width="param(outline-width) 1" d="M88.065 0.356c-0.345-0.213-0.763-0.34-1.21-0.34-0.862 0-1.614 0.469-2.016 1.165l-0.006 0.011-16.557 29.207c3.775 3.411 6.138 8.324 6.139 13.79v0h34.881c1.287-0.010 2.327-1.056 2.327-2.345 0-0.034-0.001-0.068-0.002-0.102l0 0.005c-0.767-17.313-9.867-32.347-23.362-41.272l-0.194-0.121z"></path>
<path fill="param(fill) #000" stroke="param(outline) #000" stroke-width="param(outline-width) 1" d="M52.382 55.294c1.015 0.332 2.183 0.523 3.395 0.523 0.012 0 0.024 0 0.037-0h-0.002c0.003 0 0.007 0 0.010 0 1.209 0 2.375-0.181 3.474-0.516l-0.084 0.022c4.838-1.493 8.292-5.925 8.292-11.163 0-6.44-5.22-11.66-11.66-11.66s-11.66 5.22-11.66 11.66c0 5.204 3.409 9.611 8.115 11.111l0.083 0.023z"></path>
</svg>
