
<svg version="1.1" xmlns="http://www.w3.org/2000/svg" width="58" height="100" viewBox="0 0 58 100">
<title>toilet</title>
<path fill="param(fill) #000" stroke="param(outline) #000" stroke-width="param(outline-width) 1" d="M58.152 55.484c-0.002-0.73-0.595-1.321-1.325-1.321-0.033 0-0.065 0.001-0.097 0.004l0.004-0h-55.313c-0.028-0.002-0.060-0.003-0.093-0.003-0.73 0-1.323 0.591-1.325 1.321v0c1.15 11.008 8.504 20.045 18.461 23.62l0.196 0.061v12.5h-2.083c-2.301 0-4.167 1.866-4.167 4.167s1.866 4.167 4.167 4.167v0h25c2.301 0 4.167-1.866 4.167-4.167s-1.866-4.167-4.167-4.167v0h-2.083v-12.499c10.155-3.636 17.51-12.674 18.647-23.562l0.010-0.121z"></path>
<path fill="param(fill) #000" stroke="param(outline) #000" stroke-width="param(outline-width) 1" d="M6.161 8.333v39.583c0.003 1.149 0.934 2.080 2.083 2.083h41.667c1.149-0.003 2.080-0.934 2.083-2.083v-39.584c2.301 0 4.167-1.866 4.167-4.167s-1.866-4.167-4.167-4.167v0h-45.833c-2.301 0-4.167 1.866-4.167 4.167s1.866 4.167 4.167 4.167v0zM15.536 12.5h7.292c1.151 0 2.083 0.933 2.083 2.083s-0.933 2.083-2.083 2.083v0h-4.354c-0.443 1.22-1.592 2.076-2.941 2.076-1.724 0-3.121-1.397-3.121-3.121s1.397-3.121 3.121-3.121c0.001 0 0.003 0 0.004 0h-0z"></path>
</svg>
