
<svg version="1.1" xmlns="http://www.w3.org/2000/svg" width="100" height="100" viewBox="0 0 100 100">
<title>top-ranking</title>
<path fill="param(fill) #000" stroke="param(outline) #000" stroke-width="param(outline-width) 1" d="M64.501 10.417h-7.834c-0.948-0.020-1.742-0.658-1.996-1.526l-0.004-0.015-2.583-7.343c-0.286-0.895-1.11-1.532-2.083-1.532s-1.798 0.637-2.079 1.517l-0.004 0.015-2.583 7.343c-0.258 0.883-1.052 1.521-1.998 1.541h-7.836c-1.213 0.082-2.166 1.086-2.166 2.313 0 0.732 0.339 1.385 0.87 1.81l0.005 0.004 6.604 5.249c0.523 0.435 0.853 1.085 0.853 1.812 0 0.245-0.038 0.482-0.107 0.704l0.004-0.017-3.956 8.076c-0.074 0.212-0.117 0.457-0.117 0.712 0 1.229 0.996 2.225 2.225 2.225 0.474 0 0.913-0.148 1.274-0.4l-0.007 0.005 7.77-5.418c0.346-0.254 0.78-0.407 1.25-0.407s0.904 0.153 1.256 0.411l-0.006-0.004 7.77 5.418c0.354 0.248 0.793 0.396 1.267 0.396 1.229 0 2.225-0.996 2.225-2.225 0-0.255-0.043-0.5-0.122-0.727l0.005 0.016-3.956-8.076c-0.065-0.206-0.103-0.442-0.103-0.687 0-0.727 0.33-1.378 0.849-1.809l0.004-0.003 6.604-5.249c0.535-0.428 0.874-1.081 0.874-1.813 0-1.227-0.953-2.231-2.159-2.313l-0.007-0z"></path>
<path fill="param(fill) #000" stroke="param(outline) #000" stroke-width="param(outline-width) 1" d="M62.5 52.083h-25c-1.151 0-2.083 0.933-2.083 2.083v0 45.833h29.167v-45.833c0-1.151-0.933-2.083-2.083-2.083v0z"></path>
<path fill="param(fill) #000" stroke="param(outline) #000" stroke-width="param(outline-width) 1" d="M97.917 72.917h-25c-1.151 0-2.083 0.933-2.083 2.083v0 25h29.167v-25c0-1.151-0.933-2.083-2.083-2.083v0z"></path>
<path fill="param(fill) #000" stroke="param(outline) #000" stroke-width="param(outline-width) 1" d="M27.083 64.583h-25c-1.151 0-2.083 0.933-2.083 2.083v0 33.333h29.167v-33.333c0-1.151-0.933-2.083-2.083-2.083v0z"></path>
</svg>
