
<svg version="1.1" xmlns="http://www.w3.org/2000/svg" width="100" height="100" viewBox="0 0 100 100">
<title>tornado</title>
<path fill="param(fill) #000" stroke="param(outline) #000" stroke-width="param(outline-width) 1" d="M51.041 85.417h-6.25c-4.027 0-7.292 3.265-7.292 7.292s3.265 7.292 7.292 7.292v0h6.25c4.027 0 7.292-3.265 7.292-7.292s-3.265-7.292-7.292-7.292v0z"></path>
<path fill="param(fill) #000" stroke="param(outline) #000" stroke-width="param(outline-width) 1" d="M63.541 64.583h-18.75c-4.027 0-7.292 3.265-7.292 7.292s3.265 7.292 7.292 7.292v0h18.75c4.027 0 7.292-3.265 7.292-7.292s-3.265-7.292-7.292-7.292v0z"></path>
<path fill="param(fill) #000" stroke="param(outline) #000" stroke-width="param(outline-width) 1" d="M66.666 51.042c-0-4.027-3.265-7.291-7.292-7.292h-33.333c-4.027 0-7.292 3.265-7.292 7.292s3.265 7.292 7.292 7.292v0h33.333c4.027-0 7.291-3.265 7.292-7.292v0z"></path>
<path fill="param(fill) #000" stroke="param(outline) #000" stroke-width="param(outline-width) 1" d="M82.291 22.917h-54.166c-4.027 0-7.292 3.265-7.292 7.292s3.265 7.292 7.292 7.292v0h54.166c4.027 0 7.292-3.265 7.292-7.292s-3.265-7.292-7.292-7.292v0z"></path>
<path fill="param(fill) #000" stroke="param(outline) #000" stroke-width="param(outline-width) 1" d="M92.708 0h-85.416c-4.027 0-7.292 3.265-7.292 7.292s3.265 7.292 7.292 7.292v0h85.416c4.027 0 7.292-3.265 7.292-7.292s-3.265-7.292-7.292-7.292v0z"></path>
</svg>
