
<svg version="1.1" xmlns="http://www.w3.org/2000/svg" width="100" height="100" viewBox="0 0 100 100">
<title>trade-and-market</title>
<path fill="param(fill) #000" stroke="param(outline) #000" stroke-width="param(outline-width) 1" d="M42.708 20.044l18.624 18.624c0.561 0.559 1.336 0.905 2.191 0.905 0.027 0 0.054-0 0.081-0.001l-0.004 0c0.023 0.001 0.050 0.001 0.076 0.001 0.778 0 1.483-0.315 1.994-0.824l28.080-28.080v13.289c0 1.726 1.399 3.125 3.125 3.125s3.125-1.399 3.125-3.125v0-20.833c-0-1.726-1.399-3.125-3.125-3.125h-20.833c-1.726 0-3.125 1.399-3.125 3.125s1.399 3.125 3.125 3.125v0h13.289l-25.789 25.789-18.497-18.497c-0.617-0.553-1.437-0.891-2.336-0.891s-1.719 0.338-2.339 0.894l0.003-0.003-39.457 39.457c-0.566 0.566-0.915 1.347-0.915 2.21 0 1.726 1.399 3.125 3.125 3.125 0.863 0 1.644-0.35 2.21-0.915v0z"></path>
<path fill="param(fill) #000" stroke="param(outline) #000" stroke-width="param(outline-width) 1" d="M98.229 52.083h-75.625c-0.98 0.009-1.771 0.806-1.771 1.787 0 0.002 0 0.003 0 0.005v-0 4.458h70.938c0.004 0 0.009-0 0.014-0 1.085 0 1.965 0.88 1.965 1.965 0 0.005 0 0.010-0 0.015v-0.001 29.271h4.479c0 0 0.001 0 0.001 0 0.977 0 1.769-0.792 1.769-1.769 0-0 0-0.001 0-0.002v0-33.937c0-0.001 0-0.003 0-0.004 0-0.981-0.791-1.778-1.77-1.787h-0.001z"></path>
<path fill="param(fill) #000" stroke="param(outline) #000" stroke-width="param(outline-width) 1" d="M87.813 62.5h-75.625c-0 0-0.001 0-0.001 0-0.977 0-1.769 0.792-1.769 1.769 0 0 0 0.001 0 0.002v-0 33.938c0 0.001 0 0.003 0 0.004 0 0.981 0.791 1.778 1.77 1.787h75.626c0.98-0.009 1.771-0.806 1.771-1.787 0-0.002 0-0.003 0-0.005v0-33.938c0-0 0-0.001 0-0.001 0-0.977-0.792-1.769-1.769-1.769-0 0-0.001 0-0.002 0h0zM22.917 85.417c-2.301 0-4.167-1.866-4.167-4.167s1.866-4.167 4.167-4.167c2.301 0 4.167 1.866 4.167 4.167v0c-0.007 2.298-1.868 4.16-4.166 4.167h-0.001zM50 93.75c-6.904 0-12.5-5.596-12.5-12.5s5.596-12.5 12.5-12.5c6.904 0 12.5 5.596 12.5 12.5v0c-0.006 6.901-5.599 12.494-12.5 12.5h-0zM77.083 85.417c-2.301 0-4.167-1.866-4.167-4.167s1.866-4.167 4.167-4.167c2.301 0 4.167 1.866 4.167 4.167v0c-0.007 2.298-1.868 4.16-4.166 4.167h-0.001z"></path>
</svg>
