
<svg version="1.1" xmlns="http://www.w3.org/2000/svg" width="100" height="100" viewBox="0 0 100 100">
<title>training</title>
<path fill="param(fill) #000" stroke="param(outline) #000" stroke-width="param(outline-width) 1" d="M35.417 8.333c0 4.602-3.731 8.333-8.333 8.333s-8.333-3.731-8.333-8.333c0-4.602 3.731-8.333 8.333-8.333s8.333 3.731 8.333 8.333z"></path>
<path fill="param(fill) #000" stroke="param(outline) #000" stroke-width="param(outline-width) 1" d="M95.833 0h-45.833c-2.301 0-4.167 1.866-4.167 4.167v0 16.667h-18.801c-15.411 0-27.033 10.748-27.033 25 0 2.301 1.866 4.167 4.167 4.167s4.167-1.866 4.167-4.167v0c-0.002-0.090-0.003-0.196-0.003-0.303 0-5.947 3.343-11.113 8.252-13.721l0.084-0.041v28.856c0 0.062 0.015 0.119 0.018 0.18-0.003 0.061-0.018 0.118-0.018 0.18v34.849c0 2.301 1.866 4.167 4.167 4.167s4.167-1.866 4.167-4.167v0-31.25h4.167v31.25c0 2.301 1.866 4.167 4.167 4.167s4.167-1.866 4.167-4.167v0-34.849c0-0.062-0.016-0.119-0.018-0.18 0.003-0.061 0.018-0.118 0.018-0.18v-31.458h8.333v14.583c0 2.301 1.866 4.167 4.167 4.167h45.833c2.301-0 4.167-1.866 4.167-4.167v0-39.583c0-2.301-1.866-4.167-4.167-4.167v0zM62.5 20.833h-8.333v-12.5h37.5v31.25h-37.5v-10.417h8.333c2.301 0 4.167-1.866 4.167-4.167s-1.866-4.167-4.167-4.167v0z"></path>
</svg>
