
<svg version="1.1" xmlns="http://www.w3.org/2000/svg" width="100" height="100" viewBox="0 0 100 100">
<title>trending</title>
<path fill="param(fill) #000" stroke="param(outline) #000" stroke-width="param(outline-width) 1" d="M99.759 33.699l-8.333-29.166c-0.774-2.638-3.172-4.532-6.013-4.532-0.61 0-1.2 0.087-1.758 0.25l0.044-0.011-29.166 8.333c-2.639 0.771-4.535 3.169-4.535 6.010 0 3.452 2.798 6.25 6.25 6.25 0.612 0 1.204-0.088 1.763-0.252l-0.044 0.011 11.249-3.214-21.108 37.692-8.881-8.88c-1.508-1.509-3.591-2.442-5.893-2.442-2.952 0-5.545 1.535-7.025 3.851l-0.020 0.033-25 39.583c-0.808 1.261-1.287 2.799-1.287 4.449 0 4.602 3.731 8.333 8.333 8.333 2.952 0 5.545-1.535 7.025-3.85l0.020-0.033 19.433-30.767 9.294 9.293c1.508 1.508 3.592 2.441 5.893 2.441 3.107 0 5.816-1.7 7.25-4.22l0.022-0.041 26.926-48.083 3.542 12.396c0.772 2.639 3.169 4.533 6.010 4.533 3.452 0 6.25-2.798 6.25-6.25 0-0.612-0.088-1.203-0.252-1.761l0.011 0.044z"></path>
</svg>
