
<svg version="1.1" xmlns="http://www.w3.org/2000/svg" width="83" height="100" viewBox="0 0 83 100">
<title>truck</title>
<path fill="param(fill) #000" stroke="param(outline) #000" stroke-width="param(outline-width) 1" d="M25 14.583h33.333c0.001 0 0.003 0 0.005 0 8.664 0 16.296 4.415 20.771 11.117l0.057 0.091v-21.625c0-0.004 0-0.009 0-0.014 0-2.293-1.859-4.152-4.152-4.152-0.005 0-0.010 0-0.015 0h-66.666c-0.004 0-0.009 0-0.014 0-2.293 0-4.152 1.859-4.152 4.152 0 0.005 0 0.010 0 0.015v-0.001 21.625c4.532-6.793 12.165-11.208 20.828-11.208 0.002 0 0.003 0 0.005 0h-0z"></path>
<path fill="param(fill) #000" stroke="param(outline) #000" stroke-width="param(outline-width) 1" d="M80.208 50.833c-0.299-0.181-0.644-0.337-1.009-0.449l-0.033-0.009c-0.608-0.238-1.312-0.375-2.048-0.375-0.013 0-0.025 0-0.038 0h0.002v-10.417c-0.016-10.349-8.401-18.734-18.748-18.75h-33.335c-10.349 0.016-18.734 8.401-18.75 18.748v10.418c-0.011-0-0.023-0-0.036-0-0.736 0-1.44 0.138-2.087 0.389l0.039-0.013c-0.397 0.121-0.742 0.276-1.063 0.469l0.021-0.012c-1.881 1.099-3.125 3.108-3.125 5.408 0 0.003 0 0.006 0 0.009v-0 25c0 0.003 0 0.005 0 0.008 0 3.447 2.794 6.242 6.242 6.242 0.003 0 0.006 0 0.009 0h-0v6.395c0.012 3.366 2.738 6.092 6.103 6.104h0.293c3.366-0.013 6.092-2.738 6.104-6.103v-6.397h45.917v6.395c0.012 3.366 2.738 6.092 6.103 6.104h0.21c3.366-0.013 6.092-2.738 6.104-6.103v-6.397c0.003 0 0.005 0 0.008 0 3.447 0 6.242-2.794 6.242-6.242 0-0.003 0-0.006 0-0.009v0-25c0-0.002 0-0.005 0-0.008 0-2.3-1.244-4.309-3.096-5.393l-0.029-0.016zM11.458 70.833c-2.876 0-5.208-2.332-5.208-5.208s2.332-5.208 5.208-5.208c2.876 0 5.208 2.332 5.208 5.208v0c-0.001 2.876-2.332 5.207-5.208 5.208h-0zM31.25 72.917c0 2.301-1.866 4.167-4.167 4.167s-4.167-1.866-4.167-4.167v0-10.417c0-0.265 0.023-0.524 0.066-0.777l-0.004 0.027c0.38-1.952 2.071-3.406 4.103-3.417h0.001c2.030 0.020 3.716 1.47 4.1 3.39l0.004 0.027c0.040 0.225 0.062 0.485 0.062 0.75v0zM45.833 72.917c0 2.301-1.866 4.167-4.167 4.167s-4.167-1.866-4.167-4.167v0-10.417c0-0.265 0.023-0.524 0.066-0.777l-0.004 0.027c0.38-1.952 2.071-3.406 4.103-3.417h0.001c2.030 0.020 3.716 1.47 4.1 3.39l0.004 0.027c0.040 0.225 0.062 0.485 0.063 0.75v0zM60.417 72.917c0 2.301-1.866 4.167-4.167 4.167s-4.167-1.866-4.167-4.167v0-10.417c0-0.265 0.023-0.524 0.066-0.777l-0.004 0.027c0.38-1.952 2.071-3.406 4.103-3.417h0.001c2.030 0.020 3.716 1.47 4.1 3.39l0.004 0.027c0.040 0.225 0.062 0.485 0.063 0.75v0zM64.583 50h-45.833v-10.417c0.010-3.448 2.802-6.24 6.249-6.25h33.334c3.448 0.010 6.24 2.802 6.25 6.249v0.001zM71.875 70.833c-2.876 0-5.208-2.332-5.208-5.208s2.332-5.208 5.208-5.208c2.876 0 5.208 2.332 5.208 5.208v0c-0.001 2.876-2.332 5.207-5.208 5.208h-0z"></path>
</svg>
