
<svg version="1.1" xmlns="http://www.w3.org/2000/svg" width="100" height="100" viewBox="0 0 100 100">
<title>tsunami</title>
<path fill="param(fill) #000" stroke="param(outline) #000" stroke-width="param(outline-width) 1" d="M99.792 40.583l-16.167-11.188c-0.084-0.049-0.184-0.078-0.292-0.078s-0.208 0.029-0.294 0.080l0.003-0.001-16.167 11.188c-0.117 0.070-0.197 0.191-0.208 0.332l-0 0.001v13.437c-0.438-0.021-0.917-0.042-1.396-0.042-0.098-0.002-0.214-0.003-0.33-0.003-3.441 0-6.658 0.962-9.395 2.631l0.080-0.045c-1.495 0.995-3.332 1.588-5.307 1.588-0.114 0-0.228-0.002-0.341-0.006l0.016 0c-6.793-0.265-12.232-5.706-12.492-12.475l-0.001-0.024c-0.004-0.114-0.006-0.249-0.006-0.384 0-6.42 5.082-11.653 11.442-11.896l0.022-0.001c0.006 0 0.014 0 0.021 0 1.927 0 3.735 0.509 5.297 1.399l-0.053-0.028c0.584 0.331 1.282 0.526 2.026 0.526 2.301 0 4.167-1.866 4.167-4.167 0-1.557-0.854-2.915-2.12-3.63l-0.021-0.011c-2.685-1.521-5.896-2.419-9.317-2.423h-0.001c-10.985 0.248-19.795 9.212-19.795 20.233 0 0.134 0.001 0.267 0.004 0.4l-0-0.020c0.296 11.369 9.424 20.511 20.759 20.83l0.030 0.001 0.024 0.002 0.012-0 0.008 0 0.012-0.001c0.089 0.002 0.194 0.002 0.3 0.002 3.44 0 6.656-0.961 9.393-2.63l-0.080 0.045c1.495-0.996 3.333-1.589 5.309-1.589 0.119 0 0.237 0.002 0.354 0.006l-0.017-0c0.092-0.003 0.201-0.005 0.31-0.005 1.975 0 3.814 0.585 5.353 1.59l-0.038-0.023c2.359 1.471 5.191 2.403 8.228 2.561l0.043 0.002c0.438 0.021 0.896 0.042 1.375 0.042 0.098 0.002 0.214 0.003 0.331 0.003 3.441 0 6.658-0.962 9.395-2.631l-0.080 0.045c1.021-0.66 2.216-1.153 3.498-1.406l0.065-0.011c0.188-0.042 0.421-0.079 0.658-0.101l0.025-0.002c0.322-0.018 0.64-0.039 0.984-0.042 0.102-0.014 0.22-0.022 0.34-0.022 0.027 0 0.054 0 0.080 0.001l-0.004-0c0.042-0 0.091-0 0.14-0 1.426 0 2.816 0.152 4.156 0.441l-0.129-0.023v-22.146c-0.012-0.142-0.092-0.264-0.207-0.332l-0.002-0.001z"></path>
<path fill="param(fill) #000" stroke="param(outline) #000" stroke-width="param(outline-width) 1" d="M95.833 87.5c-0.105-0.002-0.229-0.004-0.354-0.004-3.431 0-6.636 0.966-9.359 2.64l0.078-0.044c-1.611 0.989-3.561 1.575-5.649 1.575s-4.038-0.586-5.696-1.602l0.048 0.027c-2.646-1.63-5.851-2.596-9.283-2.596-0.125 0-0.249 0.001-0.373 0.004l0.019-0c-0.105-0.002-0.23-0.004-0.354-0.004-3.429 0-6.633 0.966-9.355 2.64l0.077-0.044c-1.503 0.99-3.347 1.58-5.328 1.58-0.11 0-0.22-0.002-0.329-0.005l0.016 0c-0.093 0.003-0.203 0.005-0.313 0.005-1.982 0-3.826-0.589-5.367-1.603l0.037 0.023c-2.645-1.63-5.851-2.595-9.282-2.595-0.124 0-0.248 0.001-0.372 0.004l0.018-0c-0.105-0.002-0.228-0.004-0.352-0.004-3.431 0-6.636 0.966-9.359 2.64l0.078-0.044c-1.503 0.99-3.347 1.58-5.328 1.58-0.11 0-0.22-0.002-0.329-0.005l0.016 0c-0.093 0.003-0.202 0.005-0.312 0.005-1.98 0-3.823-0.589-5.362-1.601l0.037 0.023c-2.643-1.63-5.847-2.596-9.276-2.596-0.125 0-0.25 0.001-0.374 0.004l0.019-0c-2.301 0-4.167 1.866-4.167 4.167s1.866 4.167 4.167 4.167v0c0.093-0.003 0.202-0.005 0.312-0.005 1.981 0 3.825 0.589 5.364 1.602l-0.037-0.023c2.644 1.63 5.847 2.595 9.277 2.595 0.124 0 0.248-0.001 0.371-0.004l-0.018 0c0.105 0.002 0.228 0.004 0.352 0.004 3.431 0 6.636-0.966 9.359-2.64l-0.078 0.044c1.503-0.99 3.347-1.58 5.328-1.58 0.11 0 0.22 0.002 0.329 0.005l-0.016-0c0.093-0.003 0.203-0.005 0.313-0.005 1.982 0 3.826 0.589 5.367 1.603l-0.037-0.023c2.645 1.63 5.851 2.595 9.282 2.595 0.124 0 0.248-0.001 0.372-0.004l-0.018 0c0.105 0.002 0.229 0.004 0.353 0.004 3.43 0 6.635-0.966 9.357-2.641l-0.077 0.044c1.609-0.988 3.558-1.574 5.644-1.574s4.036 0.586 5.693 1.602l-0.048-0.027c2.763 1.629 6.087 2.592 9.636 2.592s6.874-0.963 9.726-2.641l-0.090 0.049c1.505-0.99 3.351-1.58 5.334-1.58 0.11 0 0.22 0.002 0.329 0.005l-0.016-0c2.301 0 4.167-1.866 4.167-4.167s-1.866-4.167-4.167-4.167v0z"></path>
<path fill="param(fill) #000" stroke="param(outline) #000" stroke-width="param(outline-width) 1" d="M95.833 70.833c-0.105-0.002-0.229-0.004-0.354-0.004-3.431 0-6.636 0.966-9.359 2.64l0.078-0.044c-1.611 0.989-3.561 1.575-5.649 1.575s-4.038-0.586-5.696-1.602l0.048 0.027c-2.646-1.63-5.851-2.596-9.283-2.596-0.125 0-0.249 0.001-0.373 0.004l0.019-0c-0.105-0.002-0.23-0.004-0.354-0.004-3.429 0-6.633 0.966-9.355 2.64l0.077-0.044c-1.503 0.99-3.347 1.58-5.328 1.58-0.11 0-0.22-0.002-0.329-0.005l0.016 0c-0.093 0.003-0.203 0.005-0.313 0.005-1.982 0-3.826-0.589-5.367-1.603l0.037 0.023c-2.645-1.63-5.851-2.595-9.282-2.595-0.124 0-0.248 0.001-0.372 0.004l0.018-0c-0.105-0.002-0.228-0.004-0.352-0.004-3.431 0-6.636 0.966-9.359 2.64l0.078-0.044c-1.503 0.99-3.347 1.58-5.328 1.58-0.11 0-0.22-0.002-0.329-0.005l0.016 0c-0.093 0.003-0.202 0.005-0.312 0.005-1.98 0-3.823-0.589-5.362-1.601l0.037 0.023c-2.643-1.63-5.847-2.596-9.276-2.596-0.125 0-0.25 0.001-0.374 0.004l0.019-0c-2.301 0-4.167 1.866-4.167 4.167s1.866 4.167 4.167 4.167v0c0.093-0.003 0.202-0.005 0.312-0.005 1.981 0 3.825 0.589 5.364 1.602l-0.037-0.023c2.644 1.63 5.847 2.595 9.277 2.595 0.124 0 0.248-0.001 0.371-0.004l-0.018 0c0.105 0.002 0.228 0.004 0.352 0.004 3.431 0 6.636-0.966 9.359-2.64l-0.078 0.044c1.503-0.99 3.347-1.58 5.328-1.58 0.11 0 0.22 0.002 0.329 0.005l-0.016-0c0.093-0.003 0.203-0.005 0.313-0.005 1.982 0 3.826 0.589 5.367 1.603l-0.037-0.023c2.645 1.63 5.851 2.595 9.282 2.595 0.124 0 0.248-0.001 0.372-0.004l-0.018 0c0.105 0.002 0.229 0.004 0.353 0.004 3.43 0 6.635-0.966 9.357-2.641l-0.077 0.044c1.609-0.988 3.558-1.574 5.644-1.574s4.036 0.586 5.693 1.602l-0.048-0.027c2.763 1.629 6.087 2.592 9.636 2.592s6.874-0.963 9.726-2.641l-0.090 0.049c1.505-0.99 3.351-1.58 5.334-1.58 0.11 0 0.22 0.002 0.329 0.005l-0.016-0c2.301 0 4.167-1.866 4.167-4.167s-1.866-4.167-4.167-4.167v0z"></path>
<path fill="param(fill) #000" stroke="param(outline) #000" stroke-width="param(outline-width) 1" d="M8.545 64.73c2.3-0.003 4.163-1.868 4.163-4.169 0-0.706-0.175-1.371-0.485-1.953l0.011 0.023c-2.457-4.615-3.9-10.093-3.9-15.907 0-18.988 15.388-34.381 34.374-34.39h0.001c9.018 0.145 17.174 3.723 23.241 9.481l-0.015-0.014c0.739 0.679 1.729 1.095 2.816 1.095 2.301 0 4.167-1.865 4.167-4.167 0-1.214-0.519-2.307-1.348-3.068l-0.003-0.003c-7.528-7.104-17.664-11.515-28.829-11.657l-0.028-0c-23.589 0.010-42.708 19.135-42.708 42.726 0 7.226 1.794 14.033 4.96 20l-0.112-0.231c0.712 1.339 2.098 2.236 3.694 2.236 0.001 0 0.002 0 0.003 0h-0z"></path>
</svg>
