
<svg version="1.1" xmlns="http://www.w3.org/2000/svg" width="96" height="100" viewBox="0 0 96 100">
<title>un-vehicle</title>
<path fill="param(fill) #000" stroke="param(outline) #000" stroke-width="param(outline-width) 1" d="M89.885 61.45v-7.443c0-5.344-4.389-9.733-9.733-9.733h-5.534v-4.58c0-9.16-7.443-16.412-16.412-16.412h-38.55c-5.534 0-9.924 4.389-9.924 9.924v1.527h-1.908c-3.244 0-5.725 2.481-5.725 5.725 0 0 0 0 0 0v13.359c0 2.099 1.718 3.817 3.817 3.817h3.817v3.817c-0.954 0-1.908 0.382-2.672 1.145-1.527 1.527-1.527 3.817 0 5.344 0.763 0.763 1.718 1.145 2.672 1.145h7.634c0-0.191 0-0.382 0-0.573s0-0.191 0-0.382c0-6.87 5.534-12.405 12.405-12.405s12.405 5.534 12.405 12.405c0 0.191 0 0.191 0 0.382s0 0.382 0 0.573h17.176c0-0.191 0-0.382 0-0.573s0-0.191 0-0.382c0-6.87 5.534-12.405 12.405-12.405s12.405 5.534 12.405 12.405c0 0.191 0 0.191 0 0.382s0 0.382 0 0.573h5.725c2.099 0 3.817-1.718 3.817-3.817s-1.718-3.817-3.817-3.817zM53.626 41.221v-10.305h4.389c0.382 0 0.573 0 0.954 0 0.191 0 0.573 0 0.763 0.191 3.626 0.763 6.489 3.626 7.252 7.252 0 0.191 0.191 0.573 0.191 0.763 0 0.382 0 0.573 0 0.954v4.389h-13.359v-3.244zM23.092 50c-1.336 0-2.481-0.382-3.626-1.145-0.191-0.191-0.382-0.191-0.573-0.382-0.954-0.954-1.527-2.099-1.718-3.435 0-0.191 0-0.382 0-0.763v-11.45c0-1.145 0.763-1.908 1.908-1.908 0 0 0.191 0 0.191 0 0.954 0.191 1.718 0.954 1.718 1.908v11.45c0 0.191 0 0.382 0.191 0.763 0.382 0.954 1.527 1.527 2.481 1.145 0.573-0.191 0.954-0.573 1.145-1.145 0-0.191 0.191-0.382 0.191-0.763v-11.45c0-1.145 0.763-1.908 1.908-1.908s1.908 0.763 1.908 1.908v11.45c0 0.191 0 0.382 0 0.763-0.382 2.863-2.863 4.962-5.725 4.962zM34.542 50c-0.763 0-1.527-0.573-1.718-1.145 0-0.191-0.191-0.382-0.191-0.763v-15.267c0-0.763 0.573-1.527 1.336-1.908 0.191 0 0.382 0 0.573 0 0.573 0 1.336 0.382 1.718 0.954l5.725 9.351 0.191 0.382v-8.588c0-1.145 0.763-1.908 1.908-1.908s1.908 0.763 1.908 1.908v15.267c0 0.763-0.573 1.527-1.336 1.908-0.191 0-0.382 0-0.573 0-0.573 0-1.336-0.382-1.718-0.954l-0.191-0.382-2.481-3.817-0.382-0.763-1.908-3.053-0.954-1.718v8.588c0 0.191 0 0.382-0.191 0.763-0.191 0.763-0.954 1.145-1.718 1.145z"></path>
<path fill="param(fill) #000" stroke="param(outline) #000" stroke-width="param(outline-width) 1" d="M35.115 61.45c-3.053-2.481-7.634-2.481-10.687 0-2.099 1.718-3.244 4.008-3.244 6.679 0 0.191 0 0.191 0 0.382s0 0.382 0 0.573c0.573 4.771 4.771 8.015 9.542 7.634 4.008-0.382 7.061-3.626 7.634-7.634 0-0.191 0-0.382 0-0.573s0-0.191 0-0.382c0-2.481-1.145-4.962-3.244-6.679z"></path>
<path fill="param(fill) #000" stroke="param(outline) #000" stroke-width="param(outline-width) 1" d="M77.099 61.45c-3.053-2.481-7.634-2.481-10.687 0-2.099 1.718-3.244 4.008-3.244 6.679 0 0.191 0 0.191 0 0.382s0 0.382 0 0.573c0.573 4.771 4.771 8.015 9.542 7.634 4.008-0.382 7.061-3.626 7.634-7.634 0-0.191 0-0.382 0-0.573s0-0.191 0-0.382c0-2.481-1.145-4.962-3.244-6.679z"></path>
</svg>
