
<svg version="1.1" xmlns="http://www.w3.org/2000/svg" width="100" height="100" viewBox="0 0 100 100">
<title>university</title>
<path fill="param(fill) #000" stroke="param(outline) #000" stroke-width="param(outline-width) 1" d="M96.88 93.75h-93.755c-1.726 0-3.125 1.399-3.125 3.125s1.399 3.125 3.125 3.125v0h93.755c1.726 0 3.125-1.399 3.125-3.125s-1.399-3.125-3.125-3.125v0z"></path>
<path fill="param(fill) #000" stroke="param(outline) #000" stroke-width="param(outline-width) 1" d="M11.459 89.583h77.087c1.726 0 3.125-1.399 3.125-3.125s-1.399-3.125-3.125-3.125v0h-77.087c-1.726 0-3.125 1.399-3.125 3.125s1.399 3.125 3.125 3.125v0z"></path>
<path fill="param(fill) #000" stroke="param(outline) #000" stroke-width="param(outline-width) 1" d="M20.834 35.413h8.334v43.752h-8.334v-43.752z"></path>
<path fill="param(fill) #000" stroke="param(outline) #000" stroke-width="param(outline-width) 1" d="M37.502 35.413h8.334v43.752h-8.334v-43.752z"></path>
<path fill="param(fill) #000" stroke="param(outline) #000" stroke-width="param(outline-width) 1" d="M54.169 35.413h8.334v43.752h-8.334v-43.752z"></path>
<path fill="param(fill) #000" stroke="param(outline) #000" stroke-width="param(outline-width) 1" d="M70.837 35.413h8.334v43.752h-8.334v-43.752z"></path>
<path fill="param(fill) #000" stroke="param(outline) #000" stroke-width="param(outline-width) 1" d="M10.959 31.246h78.087c0.001 0 0.003 0 0.004 0 1.168 0 2.115-0.947 2.115-2.115 0-0.744-0.384-1.399-0.966-1.776l-0.008-0.005-39.044-27.022c-0.325-0.206-0.721-0.328-1.146-0.328s-0.821 0.122-1.155 0.333l0.009-0.005-39.044 27.022c-0.589 0.382-0.974 1.037-0.974 1.781 0 1.168 0.947 2.115 2.115 2.115 0.002 0 0.003 0 0.005 0h-0zM50.003 12.496c3.452 0 6.25 2.798 6.25 6.25s-2.798 6.25-6.25 6.25c-3.452 0-6.25-2.798-6.25-6.25v0c0-0.003 0-0.005 0-0.008 0-3.447 2.795-6.242 6.242-6.242 0.003 0 0.006 0 0.009 0h-0z"></path>
</svg>
