
<svg version="1.1" xmlns="http://www.w3.org/2000/svg" width="100" height="100" viewBox="0 0 100 100">
<title>upload</title>
<path fill="param(fill) #000" stroke="param(outline) #000" stroke-width="param(outline-width) 1" d="M83.586 30.998l-29.167-29.167c-1.131-1.131-2.693-1.831-4.419-1.831s-3.288 0.7-4.419 1.831l-29.167 29.167c-1.131 1.131-1.83 2.693-1.83 4.419 0 3.451 2.798 6.249 6.249 6.249 1.726 0 3.288-0.7 4.419-1.83l18.498-18.498v53.662c0 3.452 2.798 6.25 6.25 6.25s6.25-2.798 6.25-6.25v0-53.662l18.498 18.498c1.131 1.131 2.693 1.83 4.419 1.83 3.451 0 6.249-2.798 6.249-6.249 0-1.726-0.7-3.288-1.83-4.419v0z"></path>
<path fill="param(fill) #000" stroke="param(outline) #000" stroke-width="param(outline-width) 1" d="M95.414 70.833h-32.914v4.167c0 6.904-5.596 12.5-12.5 12.5s-12.5-5.596-12.5-12.5v0-4.167h-32.914c-2.576 0.188-4.595 2.324-4.595 4.932 0 0.108 0.003 0.215 0.010 0.32l-0.001-0.014v18.691c-0.006 0.092-0.009 0.198-0.009 0.306 0 2.608 2.019 4.744 4.579 4.931l0.016 0.001h90.829c2.576-0.188 4.595-2.324 4.595-4.932 0-0.108-0.003-0.214-0.010-0.32l0.001 0.014v-18.691c0.006-0.091 0.009-0.198 0.009-0.306 0-2.608-2.019-4.744-4.579-4.931l-0.016-0.001zM75 89.583c-2.301 0-4.167-1.866-4.167-4.167s1.866-4.167 4.167-4.167c2.301 0 4.167 1.866 4.167 4.167v0c-0 2.301-1.866 4.167-4.167 4.167v0zM89.583 89.583c-2.301 0-4.167-1.866-4.167-4.167s1.866-4.167 4.167-4.167c2.301 0 4.167 1.866 4.167 4.167v0c-0 2.301-1.866 4.167-4.167 4.167v0z"></path>
</svg>
