
<svg version="1.1" xmlns="http://www.w3.org/2000/svg" width="100" height="100" viewBox="0 0 100 100">
<title>urban-rural</title>
<path fill="param(fill) #000" stroke="param(outline) #000" stroke-width="param(outline-width) 1" d="M97.742 33.333h-4.021v-6.125c0-0.004 0-0.008 0-0.012 0-1.213-0.983-2.196-2.196-2.196-0.004 0-0.009 0-0.013 0h-4.041v-21.875c0-1.726-1.399-3.125-3.125-3.125s-3.125 1.399-3.125 3.125v0 21.875h-4.041c-0.004 0-0.008 0-0.012 0-1.213 0-2.196 0.983-2.196 2.196 0 0.004 0 0.009 0 0.013v-0.001 6.125h-4.021c-1.231 0.001-2.228 0.999-2.229 2.229v39.438l13.229 22.917 1.188 2.083h15.792c0.003 0 0.007 0 0.010 0 0.57 0 1.031-0.462 1.031-1.031 0-0.004 0-0.007-0-0.011v0.001-63.396c-0.001-1.231-0.999-2.228-2.229-2.229h-0zM74.972 40.625c0-0.003-0-0.007-0-0.010 0-0.57 0.462-1.031 1.031-1.031 0.004 0 0.007 0 0.011 0h4.166c0.003 0 0.007-0 0.010-0 0.57 0 1.031 0.462 1.031 1.031 0 0.004 0 0.007-0 0.011v-0.001 4.167c0 0.003 0 0.007 0 0.010 0 0.57-0.462 1.031-1.031 1.031-0.004 0-0.007 0-0.011-0h-4.166c-0.003 0-0.007 0-0.010 0-0.57 0-1.031-0.462-1.031-1.031 0-0.004 0-0.007 0-0.011v0.001zM74.972 53.125c0-0.003-0-0.007-0-0.010 0-0.57 0.462-1.031 1.031-1.031 0.004 0 0.007 0 0.011 0h4.166c0.003 0 0.007-0 0.010-0 0.57 0 1.031 0.462 1.031 1.031 0 0.004 0 0.007-0 0.011v-0.001 4.167c0 0.003 0 0.007 0 0.010 0 0.57-0.462 1.031-1.031 1.031-0.004 0-0.007 0-0.011-0h-4.166c-0.003 0-0.007 0-0.010 0-0.57 0-1.031-0.462-1.031-1.031 0-0.004 0-0.007 0-0.011v0.001zM81.222 69.792c0 0.003 0 0.007 0 0.010 0 0.57-0.462 1.031-1.031 1.031-0.004 0-0.007 0-0.011-0h-4.166c-0.003 0-0.007 0-0.010 0-0.57 0-1.031-0.462-1.031-1.031 0-0.004 0-0.007 0-0.011v0.001-4.167c0-0.003-0-0.007-0-0.010 0-0.57 0.462-1.031 1.031-1.031 0.004 0 0.007 0 0.011 0h4.166c0.003 0 0.007-0 0.010-0 0.57 0 1.031 0.462 1.031 1.031 0 0.004 0 0.007-0 0.011v-0.001zM93.722 93.75h-6.25v-10.417c0.003-1.149 0.934-2.080 2.083-2.083h2.084c1.149 0.003 2.080 0.934 2.083 2.083v0zM93.722 69.792c0 0.003 0 0.007 0 0.010 0 0.57-0.462 1.031-1.031 1.031-0.004 0-0.007 0-0.011-0h-4.166c-0.003 0-0.007 0-0.010 0-0.57 0-1.031-0.462-1.031-1.031 0-0.004 0-0.007 0-0.011v0.001-4.167c0-0.003-0-0.007-0-0.010 0-0.57 0.462-1.031 1.031-1.031 0.004 0 0.007 0 0.011 0h4.166c0.003 0 0.007-0 0.010-0 0.57 0 1.031 0.462 1.031 1.031 0 0.004 0 0.007-0 0.011v-0.001zM93.722 57.292c0 0.003 0 0.007 0 0.010 0 0.57-0.462 1.031-1.031 1.031-0.004 0-0.007 0-0.011-0h-4.166c-0.003 0-0.007 0-0.010 0-0.57 0-1.031-0.462-1.031-1.031 0-0.004 0-0.007 0-0.011v0.001-4.167c0-0.003-0-0.007-0-0.010 0-0.57 0.462-1.031 1.031-1.031 0.004 0 0.007 0 0.011 0h4.166c0.003 0 0.007-0 0.010-0 0.57 0 1.031 0.462 1.031 1.031 0 0.004 0 0.007-0 0.011v-0.001zM93.722 44.792c0 0.003 0 0.007 0 0.010 0 0.57-0.462 1.031-1.031 1.031-0.004 0-0.007 0-0.011-0h-4.166c-0.003 0-0.007 0-0.010 0-0.57 0-1.031-0.462-1.031-1.031 0-0.004 0-0.007 0-0.011v0.001-4.167c0-0.003-0-0.007-0-0.010 0-0.57 0.462-1.031 1.031-1.031 0.004 0 0.007 0 0.011 0h4.166c0.003 0 0.007-0 0.010-0 0.57 0 1.031 0.462 1.031 1.031 0 0.004 0 0.007-0 0.011v-0.001z"></path>
<path fill="param(fill) #000" stroke="param(outline) #000" stroke-width="param(outline-width) 1" d="M47.992 47.167c-1.913-3.309-5.435-5.5-9.469-5.5s-7.556 2.191-9.441 5.448l-0.028 0.052-28.812 50.146c-0.152 0.258-0.242 0.567-0.242 0.898 0 0.988 0.801 1.789 1.789 1.789 0.005 0 0.011 0 0.016-0h76.52l-9.604-16.729z"></path>
</svg>
