
<svg version="1.1" xmlns="http://www.w3.org/2000/svg" width="100" height="100" viewBox="0 0 100 100">
<title>vaccine</title>
<path fill="param(fill) #000" stroke="param(outline) #000" stroke-width="param(outline-width) 1" d="M56.25 20.833h41.667c1.151 0 2.083 0.933 2.083 2.083v10.417c0 1.151-0.933 2.083-2.083 2.083h-41.667c-1.151 0-2.083-0.933-2.083-2.083v-10.417c0-1.151 0.933-2.083 2.083-2.083z"></path>
<path fill="param(fill) #000" stroke="param(outline) #000" stroke-width="param(outline-width) 1" d="M58.333 97.917c0.003 1.149 0.934 2.080 2.083 2.083h33.334c1.149-0.003 2.080-0.934 2.083-2.083v-58.334h-37.5zM64.583 52.083c0.003-1.149 0.934-2.080 2.083-2.083h20.834c1.149 0.003 2.080 0.934 2.083 2.083v14.584c-0.003 1.149-0.934 2.080-2.083 2.083h-20.834c-1.149-0.003-2.080-0.934-2.083-2.083v-0zM66.667 75h20.833c1.151 0 2.083 0.933 2.083 2.083s-0.933 2.083-2.083 2.083v0h-20.833c-1.151 0-2.083-0.933-2.083-2.083s0.933-2.083 2.083-2.083v0z"></path>
<path fill="param(fill) #000" stroke="param(outline) #000" stroke-width="param(outline-width) 1" d="M40.625 16.667h-11.458v-10.417h5.208c1.726 0 3.125-1.399 3.125-3.125s-1.399-3.125-3.125-3.125v0h-25c-1.726 0-3.125 1.399-3.125 3.125s1.399 3.125 3.125 3.125v0h5.208v10.417h-11.458c-1.726 0-3.125 1.399-3.125 3.125s1.399 3.125 3.125 3.125v0h7.292v47.917c0.007 2.298 1.868 4.16 4.166 4.167h0.001v4.167c0 1.151 0.933 2.083 2.083 2.083v0h2.083v15.625c0 1.726 1.399 3.125 3.125 3.125s3.125-1.399 3.125-3.125v0-15.625h2.083c1.151 0 2.083-0.933 2.083-2.083v0-4.167c2.298-0.007 4.16-1.868 4.167-4.166v-47.917h7.292c1.726 0 3.125-1.399 3.125-3.125s-1.399-3.125-3.125-3.125v0zM27.083 54.167h-10.417v-27.083h10.417z"></path>
</svg>
