
<svg version="1.1" xmlns="http://www.w3.org/2000/svg" width="112" height="100" viewBox="0 0 112 100">
<title>ventilator</title>
<path fill="param(fill) #000" stroke="param(outline) #000" stroke-width="param(outline-width) 1" d="M107.287 30.030h-15.264l-16.042-20.775c-4.395-5.653-11.196-9.255-18.839-9.255s-14.444 3.602-18.799 9.202l-0.040 0.054-16.042 20.775h-17.596c-2.576 0-4.665 2.088-4.665 4.665s2.088 4.665 4.665 4.665v0h14.45c2.627 16.613 15.581 29.561 31.979 32.148l0.218 0.028v28.464h13.994v-28.89c15.52-3.459 27.362-15.936 29.836-31.532l0.029-0.219h12.117c2.576 0 4.665-2.088 4.665-4.665s-2.088-4.665-4.665-4.665v0zM65.305 63.127v-12.106c0-0.007 0-0.016 0-0.025 0-3.864-3.133-6.997-6.997-6.997s-6.997 3.133-6.997 6.997c0 0.028 0 0.057 0 0.085v-0.004 12.050c-4.212-2.465-6.997-6.967-6.997-12.119 0-7.729 6.265-13.994 13.994-13.994s13.994 6.265 13.994 13.994c0 5.152-2.785 9.654-6.931 12.083l-0.066 0.036z"></path>
</svg>
