
<svg version="1.1" xmlns="http://www.w3.org/2000/svg" width="100" height="100" viewBox="0 0 100 100">
<title>video</title>
<path fill="param(fill) #000" stroke="param(outline) #000" stroke-width="param(outline-width) 1" d="M50 0c-27.614 0-50 22.386-50 50s22.386 50 50 50c27.614 0 50-22.386 50-50v0c0-0.002 0-0.004 0-0.006 0-27.611-22.383-49.994-49.994-49.994-0.002 0-0.004 0-0.007 0h0zM72.548 52.19l-30.666 18.905c-0.36 0.207-0.791 0.33-1.251 0.33-1.395 0-2.527-1.127-2.535-2.52v-37.81c0.009-1.394 1.14-2.52 2.535-2.52 0.46 0 0.891 0.122 1.263 0.336l-0.012-0.007 30.666 18.905c0.763 0.444 1.268 1.258 1.268 2.19s-0.505 1.746-1.256 2.184l-0.012 0.006z"></path>
</svg>
