
<svg version="1.1" xmlns="http://www.w3.org/2000/svg" width="100" height="100" viewBox="0 0 100 100">
<title>virus</title>
<path fill="param(fill) #000" stroke="param(outline) #000" stroke-width="param(outline-width) 1" d="M95.836 45.836h-8.582c-0.831-7.368-3.697-13.944-8.016-19.3l0.056 0.071 6.965-7.005c0.657-0.732 1.059-1.704 1.059-2.77 0-2.294-1.86-4.154-4.154-4.154-1.064 0-2.034 0.4-2.769 1.057l0.004-0.004-7 6.965c-5.285-4.262-11.861-7.128-19.058-7.944l-0.171-0.016v-8.567c0.002-0.043 0.002-0.093 0.002-0.144 0-2.303-1.867-4.169-4.169-4.169s-4.169 1.867-4.169 4.169c0 0.051 0.001 0.101 0.003 0.151l-0-0.007v8.582c-7.368 0.831-13.944 3.697-19.3 8.016l0.071-0.056-7.005-6.98c-0.751-0.751-1.789-1.216-2.935-1.216-2.293 0-4.151 1.858-4.151 4.151 0 1.146 0.465 2.184 1.216 2.935v0l6.965 7.005c-4.263 5.285-7.129 11.861-7.945 19.058l-0.016 0.171h-8.567c-0.043-0.002-0.093-0.002-0.144-0.002-2.303 0-4.169 1.867-4.169 4.169s1.867 4.169 4.169 4.169c0.051 0 0.101-0.001 0.151-0.003l-0.007 0h8.582c0.832 7.368 3.698 13.944 8.016 19.3l-0.056-0.071-6.965 7c-0.797 0.758-1.292 1.827-1.292 3.011 0 2.294 1.86 4.154 4.154 4.154 1.183 0 2.25-0.495 3.007-1.288l0.002-0.002 7.005-6.965c5.285 4.263 11.861 7.129 19.058 7.945l0.171 0.016v8.582c0.080 2.24 1.915 4.025 4.167 4.025s4.087-1.785 4.167-4.018l0-0.007v-8.597c7.368-0.833 13.944-3.698 19.3-8.016l-0.072 0.056 7 6.965c0.748 0.759 1.788 1.23 2.938 1.23s2.189-0.47 2.937-1.229l0-0c0.763-0.747 1.236-1.787 1.236-2.938s-0.473-2.191-1.235-2.937l-0.001-0.001-6.965-7c4.262-5.285 7.128-11.861 7.944-19.058l0.016-0.171h8.582c2.24-0.080 4.025-1.915 4.025-4.167s-1.785-4.087-4.018-4.167l-0.007-0zM32.294 45.836c-2.877 0-5.209-2.332-5.209-5.209s2.332-5.209 5.209-5.209c2.877 0 5.209 2.332 5.209 5.209v0c0 2.877-2.332 5.209-5.209 5.209v0zM58.333 70.836c-5.754 0-10.418-4.664-10.418-10.418s4.664-10.418 10.418-10.418c5.754 0 10.418 4.664 10.418 10.418v0c-0.003 5.753-4.665 10.415-10.418 10.418h-0z"></path>
</svg>
