
<svg version="1.1" xmlns="http://www.w3.org/2000/svg" width="100" height="100" viewBox="0 0 100 100">
<title>volcano</title>
<path fill="param(fill) #000" stroke="param(outline) #000" stroke-width="param(outline-width) 1" d="M99.697 98.244l-38.685-36.602c-0.735-0.753-1.76-1.221-2.895-1.221-0.845 0-1.629 0.259-2.277 0.702l0.014-0.009c-1.629 1.162-3.66 1.858-5.854 1.858s-4.225-0.696-5.885-1.879l0.031 0.021c-0.635-0.434-1.419-0.693-2.263-0.693-1.134 0-2.16 0.467-2.894 1.22l-0.001 0.001-38.685 36.602c-0.186 0.186-0.301 0.443-0.301 0.727 0 0.568 0.46 1.029 1.028 1.029h97.939c0.568-0 1.028-0.461 1.028-1.029 0-0.284-0.115-0.541-0.301-0.727v0z"></path>
<path fill="param(fill) #000" stroke="param(outline) #000" stroke-width="param(outline-width) 1" d="M52.083 51.042c0 1.726 1.399 3.125 3.125 3.125s3.125-1.399 3.125-3.125v0l-0.004-16.771c-0.010-0.191-0.016-0.415-0.016-0.64 0-6.847 5.375-12.439 12.135-12.787l0.031-0.001c0.143-0.008 0.311-0.012 0.48-0.012 5.143 0 9.343 4.037 9.606 9.114l0.001 0.023c0.006 0.105 0.009 0.228 0.009 0.352 0 3.781-2.968 6.869-6.701 7.062l-0.017 0.001c-0.085 0.005-0.184 0.008-0.283 0.008-2.684 0-4.874-2.116-4.992-4.771l-0-0.011c-0.090-1.654-1.452-2.961-3.121-2.961-1.726 0-3.125 1.399-3.125 3.125 0 0.053 0.001 0.105 0.004 0.157l-0-0.007c0.319 5.984 5.249 10.716 11.284 10.716 0.192 0 0.383-0.005 0.573-0.014l-0.027 0.001c7.065-0.363 12.655-6.18 12.655-13.302 0-0.234-0.006-0.468-0.018-0.699l0.001 0.032c-0.432-8.416-7.361-15.075-15.845-15.075-0.28 0-0.559 0.007-0.836 0.022l0.039-0.002c-10.104 0.519-18.1 8.838-18.1 19.024 0 0.282 0.006 0.562 0.018 0.841l-0.001-0.040z"></path>
<path fill="param(fill) #000" stroke="param(outline) #000" stroke-width="param(outline-width) 1" d="M29.498 24.743c0.039 0.002 0.086 0.003 0.132 0.003 1.726 0 3.125-1.399 3.125-3.125 0-1.663-1.299-3.022-2.938-3.119l-0.008-0c-2.714-0.156-4.856-2.395-4.856-5.134 0-0.093 0.002-0.186 0.007-0.278l-0.001 0.013c0.181-3.822 3.324-6.853 7.175-6.853 0.118 0 0.235 0.003 0.352 0.008l-0.016-0.001c5.171 0.316 9.245 4.587 9.245 9.81 0 0.219-0.007 0.437-0.021 0.653l0.002-0.029v34.351c0 1.713 1.389 3.102 3.102 3.102s3.102-1.389 3.102-3.102v0l-0.004-34.196c0.014-0.249 0.022-0.539 0.022-0.832 0-8.537-6.677-15.515-15.093-15.997l-0.043-0.002c-0.188-0.009-0.407-0.015-0.629-0.015-7.187 0-13.053 5.656-13.388 12.76l-0.001 0.030c-0.010 0.176-0.015 0.382-0.015 0.59 0 6.063 4.742 11.018 10.719 11.36l0.030 0.001z"></path>
</svg>
