
<svg version="1.1" xmlns="http://www.w3.org/2000/svg" width="95" height="100" viewBox="0 0 95 100">
<title>warning-error</title>
<path fill="param(fill) #000" stroke="param(outline) #000" stroke-width="param(outline-width) 1" d="M77.248 0h-59.072c-0.001 0-0.003 0-0.005 0-10.036 0-18.171 8.135-18.171 18.171 0 0.002 0 0.004 0 0.005v-0 43.168c0 0.001 0 0.003 0 0.005 0 10.036 8.136 18.171 18.171 18.171 0.002 0 0.003 0 0.005 0h31.808l20.016 20.017c0.287 0.283 0.681 0.457 1.115 0.457 0.877 0 1.588-0.711 1.588-1.588 0-0.002 0-0.004 0-0.005v0-18.88h4.544c0.001 0 0.003 0 0.005 0 10.036 0 18.171-8.136 18.171-18.171 0-0.002 0-0.003 0-0.005v0-43.168c0-0.001 0-0.003 0-0.005 0-10.036-8.135-18.171-18.171-18.171-0.002 0-0.004 0-0.005 0h0zM47.712 63.616c-2.51 0-4.544-2.034-4.544-4.544s2.034-4.544 4.544-4.544c2.51 0 4.544 2.034 4.544 4.544v0c-0.008 2.507-2.038 4.536-4.543 4.544h-0.001zM52.256 43.168c0 2.51-2.034 4.544-4.544 4.544s-4.544-2.034-4.544-4.544v0-24.992c0-2.51 2.034-4.544 4.544-4.544s4.544 2.034 4.544 4.544v0z"></path>
</svg>
