
<svg version="1.1" xmlns="http://www.w3.org/2000/svg" width="96" height="100" viewBox="0 0 96 100">
<title>water-trucking</title>
<path fill="param(fill) #000" stroke="param(outline) #000" stroke-width="param(outline-width) 1" d="M84.16 48.092v-3.817c0-6.298-5.153-11.45-11.45-11.45h-7.634v-5.725c0-3.244-2.481-5.725-5.725-5.725 0 0 0 0 0 0h-51.527c-3.244 0-5.725 2.481-5.725 5.725 0 0 0 0 0 0v43.893h9.542c0-6.298 5.153-11.45 11.45-11.45s11.45 5.153 11.45 11.45h22.901c0-6.298 5.153-11.45 11.45-11.45s11.45 5.153 11.45 11.45h9.542c2.099 0 3.817-1.718 3.817-3.817v-9.542c0-5.153-4.198-9.542-9.542-9.542zM34.542 51.908c-4.198 0-7.634-3.435-7.634-7.634 0 0 0 0 0 0 0-3.817 6.298-11.832 7.443-13.359 0-0.191 0.191-0.191 0.382 0 0 0 0 0 0 0 1.145 1.527 7.443 9.542 7.443 13.359 0 4.198-3.435 7.634-7.634 7.634 0 0 0 0 0 0zM72.71 38.55c3.244 0 5.725 2.481 5.725 5.725 0 0 0 0 0 0v3.817h-13.359v-9.542h7.634z"></path>
<path fill="param(fill) #000" stroke="param(outline) #000" stroke-width="param(outline-width) 1" d="M30.725 70.992c0 4.216-3.418 7.634-7.634 7.634s-7.634-3.418-7.634-7.634c0-4.216 3.418-7.634 7.634-7.634s7.634 3.418 7.634 7.634z"></path>
<path fill="param(fill) #000" stroke="param(outline) #000" stroke-width="param(outline-width) 1" d="M76.527 70.992c0 4.216-3.418 7.634-7.634 7.634s-7.634-3.418-7.634-7.634c0-4.216 3.418-7.634 7.634-7.634s7.634 3.418 7.634 7.634z"></path>
</svg>
