
<svg version="1.1" xmlns="http://www.w3.org/2000/svg" width="71" height="100" viewBox="0 0 71 100">
<title>water-source</title>
<path fill="param(fill) #000" stroke="param(outline) #000" stroke-width="param(outline-width) 1" d="M36.312 0.438c-0.21-0.267-0.533-0.438-0.896-0.438s-0.686 0.17-0.894 0.435l-0.002 0.002c-5.5 7.083-34.521 45.229-34.521 63.333-0.001 0.118-0.002 0.258-0.002 0.398 0 19.645 15.808 35.597 35.397 35.831l0.022 0c19.611-0.234 35.419-16.187 35.419-35.831 0-0.14-0.001-0.279-0.002-0.419l0 0.021c0-18.104-29.021-56.25-34.521-63.333zM44.792 85.417c-1.726 0-3.125-1.399-3.125-3.125s1.399-3.125 3.125-3.125v0c5.167 0 9.375-5.146 9.375-11.458 0-1.726 1.399-3.125 3.125-3.125s3.125 1.399 3.125 3.125v0c0 9.771-7 17.708-15.625 17.708z"></path>
</svg>
