
<svg version="1.1" xmlns="http://www.w3.org/2000/svg" width="100" height="100" viewBox="0 0 100 100">
<title>work-from-home</title>
<path fill="param(fill) #000" stroke="param(outline) #000" stroke-width="param(outline-width) 1" d="M99.692 40.417c-6.466-19.011-21.14-33.712-39.686-40.082l-0.447-0.134c-0.383-0.129-0.825-0.203-1.284-0.203-2.299 0-4.163 1.864-4.163 4.163 0 1.838 1.192 3.398 2.844 3.95l0.029 0.008c16.467 5.639 29.187 18.386 34.674 34.482l0.115 0.388c0.557 1.687 2.12 2.884 3.962 2.884 2.299 0 4.163-1.864 4.163-4.163 0-0.463-0.075-0.908-0.215-1.323l0.008 0.029z"></path>
<path fill="param(fill) #000" stroke="param(outline) #000" stroke-width="param(outline-width) 1" d="M53.626 14.967c-0.472-0.202-1.021-0.319-1.597-0.319-2.299 0-4.162 1.863-4.162 4.162 0 1.722 1.046 3.2 2.537 3.833l0.027 0.010c12.392 4.871 22.016 14.494 26.778 26.567l0.111 0.318c0.642 1.522 2.121 2.57 3.845 2.57 2.298 0 4.162-1.863 4.162-4.162 0-0.574-0.116-1.121-0.327-1.619l0.010 0.027c-5.758-14.42-16.965-25.628-31.011-31.256l-0.374-0.132z"></path>
<path fill="param(fill) #000" stroke="param(outline) #000" stroke-width="param(outline-width) 1" d="M47.825 29.751c-0.584-0.332-1.283-0.527-2.027-0.527-2.299 0-4.162 1.864-4.162 4.162 0 1.544 0.84 2.891 2.088 3.61l0.020 0.011c8.174 4.498 14.729 11.054 19.102 18.982l0.125 0.247c0.729 1.27 2.077 2.111 3.622 2.111 2.299 0 4.163-1.864 4.163-4.163 0-0.749-0.198-1.451-0.544-2.058l0.011 0.021c-5.273-9.497-12.9-17.123-22.109-22.248l-0.288-0.147z"></path>
<path fill="param(fill) #000" stroke="param(outline) #000" stroke-width="param(outline-width) 1" d="M44.928 49.18l-2.796 2.897-16.092-14.131c-0.288-0.237-0.66-0.381-1.066-0.381s-0.778 0.144-1.069 0.383l0.003-0.002-23.609 20.731c-0.177 0.153-0.291 0.375-0.3 0.623v40.699h18.731v-15.444c0-0 0-0 0-0 0-1.815 1.471-3.286 3.286-3.286h5.915c1.815 0 3.286 1.471 3.286 3.286 0 0 0 0 0 0v0 15.444h18.731v-40.698c-0.009-0.25-0.123-0.472-0.298-0.624l-0.001-0.001-1.267-1.112 2.414-2.516c0.748-0.75 1.211-1.786 1.211-2.93 0-2.292-1.858-4.15-4.15-4.15-1.143 0-2.179 0.462-2.929 1.21l0-0z"></path>
</svg>
