
<svg version="1.1" xmlns="http://www.w3.org/2000/svg" width="73" height="100" viewBox="0 0 73 100">
<title>zip-compressed</title>
<path fill="param(fill) #000" stroke="param(outline) #000" stroke-width="param(outline-width) 1" d="M68.182 0h-11.364v6.818h-6.818v6.818h6.818v6.818h-6.818v6.818h6.818v20.455c-0.004 1.254-1.019 2.269-2.272 2.273h-11.364c-1.254-0.004-2.269-1.019-2.273-2.272v-13.637h6.818v-6.818h-6.818v-6.818h6.818v-6.818h-6.818v-6.818h6.818v-6.818h-43.182c-2.507 0.008-4.538 2.038-4.545 4.545v90.91c0.008 2.507 2.038 4.538 4.545 4.545h43.183v-15.909c0-0.001 0-0.001 0-0.002 0-5.020 4.069-9.089 9.089-9.089 0.001 0 0.002 0 0.002 0h15.909v-70.455c-0.008-2.507-2.038-4.538-4.545-4.545h-0.001z"></path>
<path fill="param(fill) #000" stroke="param(outline) #000" stroke-width="param(outline-width) 1" d="M52.273 84.091v15.909l20.455-20.455h-15.909c-2.507 0.008-4.538 2.038-4.545 4.545v0.001z"></path>
<path fill="param(fill) #000" stroke="param(outline) #000" stroke-width="param(outline-width) 1" d="M45.455 38.636h6.818v6.818h-6.818v-6.818z"></path>
</svg>
