<?xml version="1.0" encoding="utf-8"?>
<!-- Generator: Adobe Illustrator 19.2.1, SVG Export Plug-In . SVG Version: 6.00 Build 0)  -->
<svg version="1.1" id="layer" xmlns="http://www.w3.org/2000/svg" xmlns:xlink="http://www.w3.org/1999/xlink" x="0px" y="0px"
	 viewBox="0 0 652 652" style="enable-background:new 0 0 652 652;" xml:space="preserve">
<style type="text/css">
	.st0{fill:#005A90;}
	.st1{fill:#FFFFFF;}
</style>
<rect x="20.8" y="224.7" class="st0" width="114.3" height="194.6"/>
<g>
	<path class="st1" d="M79.9,367.3h-2v-5.5h2V367.3z M88.9,343h-2v-5.5h2V343z M52.1,333.5l-1.2,0.2c0,0.2,0.5,0.1,1.2,0.2
		c1.6,0.3,2.2,1.1,3.3,1.1c1,0,2.1-0.7,1.6-2.1l-0.2,0c-0.2,0.7-1,1-1.8,1C53.9,333.9,53.7,333.5,52.1,333.5 M41.1,339
		c0.2,0.2,2.1,2.7-0.8,3.6l0,0.3c2.1,0.9,3.2-0.7,3.2-0.7c1.1,2.5-0.6,3.8-0.6,3.8c0.2,0.5,1.3,1.2,2.8,1.5c0.6-0.3,1.4-0.9,1.8-1.8
		c0,0,0.4,1.1,0,2.1c4.3,0.4,5.9-3.1,9.2-2.5l0.1-0.1c0-2.1-1.3-6.1-5.4-6.9c-4.1-0.8-3-2.5-3-2.5c1.7-0.1,2.8,0.7,2.8,0.7l-0.1-1.1
		l0.3-0.9c-2,0-2.5-0.4-2.5-0.4c-0.3-1.2,0.5-2.8,3.4-1.1c0.7-0.6,0.7-1.6,0.7-1.6l0.4-0.6l-2.9-1.9c-0.2-0.7-1.1-1.7-3.8-1.4
		c-1.3,0.2-2.2-0.2-1.8-0.9l-0.3,0c-0.3,0.3-0.7,1.2,0.4,1.7c1.3,0.6,1.3,1.9,1.3,2.1l-0.4,0c-0.6-2.1-3.5-2.6-5.2-1.5
		c0.1,1.2,1.3,1.9,2,1.9l0.9-0.9l0.2,0c0.3,0.8-0.8,2.3-2.5,1.4c-1.7,1.7-1,3.8-0.8,4.5c0.3,1.4-0.4,2.7-1.6,2.1l-0.1,0.1
		C38.7,338.8,39.8,339.8,41.1,339 M50.4,330.5c-0.8,0.9-2.1,0.7-2.4-0.8C49.7,329.6,50.4,329.8,50.4,330.5 M100.9,333.9
		c-0.8,0-1.7-0.4-1.8-1l-0.2,0c-0.4,1.5,0.6,2.1,1.6,2.1c1.1,0,1.7-0.8,3.3-1.1c0.7-0.1,1.2,0,1.2-0.2l-1.2-0.2
		C102.1,333.5,101.9,333.9,100.9,333.9 M117.2,337.9l-0.1-0.1c-1.2,0.6-1.9-0.7-1.6-2.1c0.2-0.8,0.8-2.8-0.9-4.5
		c-1.7,1-2.8-0.6-2.5-1.4l0.2,0l0.9,0.9c0.7,0,1.9-0.8,2-1.9c-1.7-1.1-4.6-0.7-5.2,1.5l-0.4,0c0-0.2,0.1-1.4,1.3-2.1
		c1.1-0.6,0.7-1.4,0.4-1.7l-0.3,0c0.4,0.8-0.5,1.1-1.8,0.9c-2.7-0.4-3.6,0.7-3.8,1.4l-2.9,1.9l0.4,0.6c0,0-0.1,1,0.7,1.6
		c2.9-1.8,3.7-0.1,3.4,1.1c0,0-0.5,0.4-2.5,0.4l0.3,0.9l-0.1,1.1c0,0,1-0.8,2.7-0.7c0,0,1.1,1.7-3,2.5c-4.1,0.8-5.5,4.7-5.5,6.9
		l0.1,0.1c3.3-0.6,4.9,2.9,9.2,2.5c-0.4-1,0-2.1,0-2.1c0.3,0.9,1.2,1.5,1.8,1.8c1.5-0.3,2.6-1.1,2.8-1.5c0,0-1.6-1.3-0.6-3.8
		c0,0,1,1.6,3.1,0.7l0-0.3c-2.9-0.9-1-3.4-0.8-3.6C116.1,339.8,117.2,338.8,117.2,337.9 M107.8,329.7c-0.3,1.5-1.6,1.7-2.4,0.8
		C105.5,329.8,106.2,329.6,107.8,329.7 M77.2,305.3l0.3,0.9l0.1,0.7l-0.7-0.1l-0.9-0.3l-0.9,0.8L76,308l0.9-0.3l0.7-0.1
		c0.1,0.1-0.1,1.4-0.2,2.4c-1,0.2-1.5,1.1-1.5,1.5c0,1.2,1.3,2,2.1,2.4c0.8-0.4,2.1-1.1,2.1-2.4c0-0.5-0.5-1.3-1.5-1.5
		c-0.2-1-0.3-2.3-0.2-2.4l0.7,0.1l0.9,0.3l0.9-0.8l-0.9-0.8l-0.9,0.3l-0.7,0.1l0.1-0.7l0.3-0.9l-0.8-0.9L77.2,305.3z M77.9,314.6
		c-0.8,0-1.5,0.7-1.5,1.5c0,0.8,0.7,1.5,1.5,1.5c0.8,0,1.5-0.7,1.5-1.5C79.4,315.3,78.8,314.6,77.9,314.6 M77.9,329.2
		c6.1,0,9.5,1.2,9.5,1.2c0-3.1,0-4.8,1.8-4.5c-1-2.6,3.2-3.6,3.2-7c0-2.2-1.6-2.5-2-2.5c-1.4,0-1.2,0.9-2.3,0.9l-0.3,0.1l0.9,1.1
		c0.7,0,0.7-0.7,1.3-0.7c0.2,0,0.6,0.2,0.6,0.9c0,1.4-0.9,3-2,4.3l-1-0.6c-0.7,0-1.2,0.7-1.2,1.5l0.2,0.8l-0.9,0.3
		c-0.5,0-1.3-0.2-1.3-1.3c0-2.5,3.3-4.6,3.3-7.7c0-1.5-1-3-3-3c-2.2,0-1.8,2-3.7,2l-0.2,0.1c0,0.1,0.3,1.2,1.3,1.2
		c1.1,0,1.3-1.8,2.3-1.8c0.3,0,0.9,0.2,0.9,1.5c0,1-0.5,2.5-1.2,4l-1-0.4c-0.8,0-1.4,0.8-1.4,1.7l0.6,1.6c-0.5,0.6-1,1.1-1.6,1.1
		c-1.3,0-1.9-0.8-1.9-1.6c0-0.9,1.6-1.2,1.6-2.6c0-0.9-0.6-1.5-1.2-1.5l-1,0.4l-1-0.4c-0.6,0-1.2,0.5-1.2,1.5c0,1.4,1.6,1.7,1.6,2.6
		c0,0.8-0.6,1.6-1.9,1.6c-0.7,0-1.2-0.5-1.6-1.1l0.7-1.6c0-1-0.6-1.7-1.4-1.7l-1,0.4c-0.7-1.5-1.2-3.1-1.2-4c0-1.3,0.5-1.5,0.9-1.5
		c0.9,0,1.2,1.8,2.3,1.8c1,0,1.3-1.1,1.3-1.2l-0.2-0.1c-1.9,0-1.5-2-3.7-2c-2.1,0-3,1.5-3,3c0,3.1,3.3,5.3,3.3,7.7
		c0,1.1-0.8,1.3-1.3,1.3l-1-0.3l0.2-0.8c0-0.8-0.6-1.5-1.2-1.5l-1,0.6c-1.1-1.2-2-2.8-2-4.3c0-0.7,0.3-0.9,0.6-0.9
		c0.5,0,0.6,0.7,1.3,0.7l0.9-1.1l-0.3-0.1c-1.2,0-1-0.9-2.3-0.9c-0.5,0-2,0.3-2,2.5c0,3.4,4.2,4.4,3.2,7c1.8-0.3,1.8,1.5,1.8,4.5
		C68.4,330.4,71.8,329.2,77.9,329.2 M66.8,333.8c-1.7,0.4-2.9,0.7-3.4,0.9c0-0.7,0.3-1.4,1-1.6l0-0.2c-1.5-1-2.3,0.9-2.3,1
		c-0.5,0-1.3,0.1-1.3,0.8c0,2.1-4.8,3.3-6,3.5c2,0.8,2.8,3.3,2.8,3.3c1.4-1.4,3.1-2.7,3.5-2.7l0.5,0.8l0.2,0
		c0.7-1.1,0.4-1.4,0.3-1.7c0-0.3,0-1.2,1.1-1.1v14.1l-0.6,0.1c-0.3,0-2.3-1.7-4.7-3.3c-2.4-1.6-3.6-0.7-6.3,0.8
		c-3.5,1.9-7.1,0.2-7.1,0.2c-3,2.2-4.1,8.5-4.1,8.5c-0.6,0.3-1.6,0.5-2.6,0.5c-2.3,0-2.8-1.4-2.8-2.3c0-3.6,4.5-5.1,4.5-8.7
		c0-0.9-0.4-4.4-4.7-4.4h-3.9c-1.6,0-2-1.2-2.2-1.6l-0.2,0.1c0.1,0.3-0.2,0.7-0.2,1.6c0,1.4,0.8,2.3,2.4,2.3c0.7,0,1.4-0.2,1.6-0.3
		l0.2,0.1c-0.7,0.8-0.7,2.3-0.5,2.7h0.2c0.4-1.5,1.8-3,3.7-3c2.3,0,2.3,2,2.3,2.5c0,2.9-5.1,5-5.1,8.9c0,4,4.3,4.9,6.7,4.2
		c-0.2,4-4.7,5.4-4.9,2.5l-0.2,0c-0.6,1.4-0.3,2.7,1.4,3.1l-0.1,0.2c-1.8,1.1-0.8,5.6-0.7,6.9c0.1,1.9-1.7,1.6-1.9,1.6l0,0.2
		c1.3,1.6,3,0.2,3,0.2c1.2,0.4,0.5,1.4-0.4,2l0,0.2c0.2,0,2.1,0.2,2.5-1.3c0.8,1,2.1,0.6,2.4,0.5c0.4-0.2,2.1-0.8,2.3,1.2l0.2,0
		c1.4-1.7-0.1-2.8-0.9-2.9c0.1-0.1,1.2-1,2.1,0.3l0.2-0.1c0.1-2.2-1.7-2.4-2.8-1.4c0-0.2-0.4-1.4,1.3-1.4l0-0.1
		c-1.3-1.4-2.4-0.1-2.7,0.2c-0.6,0.7-2.1,0.4-2.2,0.4c0.5-7.5,7.1-4.8,8-8.5l0.2,0c0.3,0.9,2.5,1,2.9-0.7l-0.1-0.1
		c-1.9,1.9-6.2-4.1-0.3-8.9c5-4.1,9.5-1.8,11.2-0.5l-0.5,0.9l0,0.2l1.5-0.3c1.1,0.8,0.2,1.7-0.3,2l0,0.2c1,0.2,1.8-0.8,1.8-1.4
		l0.2,0.1v4.3c0,6.1,7,6.9,14.7,12.1c7.7-5.2,14.7-6,14.7-12.1v-4.3l0.2-0.1c0,0.6,0.9,1.6,1.8,1.4l0-0.2c-0.4-0.3-1.4-1.2-0.3-2
		l1.5,0.3l0-0.2l-0.5-0.9c1.7-1.4,6.2-3.7,11.2,0.5c5.9,4.9,1.6,10.8-0.3,8.9l-0.1,0.1c0.4,1.7,2.7,1.6,2.9,0.7l0.2,0
		c0.9,3.7,7.5,1,8,8.5c-0.1,0-1.6,0.3-2.2-0.4c-0.3-0.3-1.3-1.6-2.7-0.2l0,0.1c1.7,0,1.3,1.2,1.3,1.4c-1.1-0.9-2.9-0.7-2.8,1.4
		l0.1,0.1c1-1.2,2.1-0.3,2.1-0.3c-0.8,0.1-2.3,1.2-0.9,2.9l0.2,0c0.2-2,2-1.4,2.3-1.2c0.3,0.1,1.5,0.5,2.4-0.5
		c0.3,1.5,2.3,1.3,2.4,1.3l0-0.2c-0.8-0.5-1.6-1.6-0.4-2c0,0,1.6,1.5,3-0.2l0-0.2c-0.2,0-2,0.3-1.9-1.6c0.1-1.3,1.1-5.7-0.7-6.9
		l-0.1-0.2c1.8-0.4,2-1.6,1.4-3.1l-0.2,0c-0.1,2.9-4.7,1.5-4.9-2.5c2.5,0.7,6.7-0.2,6.7-4.2c0-4-5.1-6.1-5.1-8.9
		c0-0.5,0-2.5,2.3-2.5c1.9,0,3.3,1.4,3.7,3h0.2c0.3-0.4,0.2-1.9-0.5-2.7l0.2-0.1c0.2,0.1,0.9,0.3,1.6,0.3c1.6,0,2.4-0.9,2.4-2.3
		c0-0.9-0.3-1.3-0.2-1.6l-0.2-0.1c-0.2,0.4-0.7,1.6-2.3,1.6h-3.9c-4.3,0-4.7,3.5-4.7,4.4c0,3.5,4.5,5.1,4.5,8.7
		c0,0.8-0.4,2.3-2.8,2.3c-1,0-2-0.3-2.6-0.5c0,0-1-6.3-4.1-8.5c0,0-3.6,1.7-7.1-0.2c-2.7-1.5-4-2.4-6.3-0.8
		c-2.4,1.6-4.4,3.4-4.7,3.3l-0.6-0.1v-14.1c1.1-0.1,1.2,0.9,1.1,1.1c-0.1,0.3-0.4,0.6,0.3,1.7l0.1,0l0.6-0.8c0.4,0,2.1,1.3,3.5,2.7
		c0,0,0.8-2.5,2.8-3.3c-1.1-0.2-6-1.3-6-3.5c0-0.7-0.8-0.9-1.3-0.8c0-0.1-0.8-1.9-2.3-1l0,0.2c0.7,0.2,0.9,0.8,1,1.6
		c-1.4-0.4-7.4-2.1-14.6-2.1c-3.5,0-6.7,0.4-9.2,0.9v4.9h-2V333.8z M53.6,384c-0.5-0.2-0.9-0.5-0.9-1.2v-3c-0.9-0.3-3.3-1.2-8-1.2
		c-4,0-5.2,0.9-5.3,1.2l-1,5.8c0,0,1.6-1.5,7.3-1.1c6.9,0.4,14.1,4.5,14.1,0.2V382C54.4,382,53.6,383.7,53.6,384 M96.1,382v2.6
		c0,4.3,7.2,0.3,14.1-0.2c5.7-0.4,7.3,1.1,7.3,1.1l-1.1-5.8c0-0.3-1.3-1.2-5.2-1.2c-4.8,0-7.1,0.9-8,1.2v3c0,0.7-0.4,1-0.9,1.2
		C102.3,383.7,101.5,382,96.1,382 M77.9,379.4c11.1,0,22.4,0.6,23.9,2.3l0.2-0.1l0-5.9c0-1.7-11.6-2.7-24-2.7c-12.4,0-24,1-24,2.7
		v5.9l0.2,0.1C55.5,380,66.8,379.4,77.9,379.4 M68,351.6l-1.1-0.3l-0.1,0.2l-1.3-0.6h1.2l0.1-0.1l-1-1c0,0,0.5,0.2,1.3,0.5l0.1-0.1
		l-0.9-1.3l1.3,0.8l0.1-0.1c-0.3-0.7-0.6-1.5-0.6-1.5l1.1,1.1l0.1-0.1l-0.3-1.5l0.8,1.2l0.1,0l0-1.3l0.5,1.2l0.1,0l0.4-1.1l0.1,1.4
		l-0.2,0l-0.2,1.7c1.7-0.4,3.8-3.3,5.4-3.3c1.9,0,2.6,2.2,6.1,1.1c0.9,1.3,1.2,2.5,1.5,4c1.4,1.3,3.3,0.8,3.3-0.5c0-1.8-2-2.2-2-4.1
		c0-0.8,0.6-2.1,2.2-2.1c0.9,0,2.1,0.4,2.8,0.4c0.9,0,1.1-0.6,1.2-0.9l0.3,0l0.1,0.8c0,1.2-1.8,1.4-2,1.2l-0.1,0.1l-0.1,1.4l-0.1,0
		c-0.2-0.9-1.2-1.9-2.1-1.9c-0.3,0-1,0.2-1,0.9c0,1.1,2.2,2.1,2.2,4.3c0,2.3-2.3,2.9-4.6,2.3c0.1,2.2,3.4,3.5,3.5,2h0.1
		c0.5,0.7,0.3,1.2-0.3,1.4c0.6,0.3,0.7,1.4,0.8,2.1c0.2,1,1.3,0.5,1.4,0.4l0.1,0.1c-0.4,1.1-1.5,0.7-1.5,0.7l0.7,0.9l0,0.1
		c-0.4,0.2-1.2,0.4-1.6-0.3c-0.3,0.7-0.9,0.7-1.2,0.7l-0.6,1l-0.1,0c-1-0.7-0.4-1.5,0-1.7c-0.1,0-0.8-0.3-1.1,0.5h-0.1
		c-0.4-1.2,0.5-1.5,1.2-1.2c0-0.2-0.4-0.7-1.3-0.6l0-0.1c0.2-0.4,0.6-0.9,1.4-0.4l1.2-0.2c-1.5-2.9-4.3-0.5-5-2.8l-0.1,0
		c-0.2,0.5-1.4,0.5-1.6-0.4l0.1,0c0.2,0.2,0.6,0.4,1.1-0.4l0.4-1.6c0-1.8-1.8-4.8-4.6-4.8c-1.8,0-3.7,0.7-5.1,1.7l1.3,0.3
		c-0.1,1.3-1.4,2.1-2.6,1.8l0.2-1.5l-1,0.6l-0.1,0c-0.2-0.9,0.5-1.3,0.7-1.4l0,0l-1.1,0.6h0L68,351.6z M71.9,361.8
		c-0.5,0.6-0.9,0-1.6,0l-0.7,0.7l-0.1,0c-0.7-1,0.1-1.5,0.5-1.6c-0.1-0.1-0.8-0.5-1.2,0.1l-0.1,0c0-1.2,0.9-1.3,1.5-0.8l-0.7-0.8
		l-0.1-0.1l0.6-0.3c0.7,0,0.7,0.8,1.2,0.8c0.6,0,1.6-0.9,1.6-1c0,0-0.6-1.7-0.5-2.7l0,0c-0.3,0.2-1.1,0.2-1.1-0.8l0.1,0l1.2-0.4
		c0.3-0.3,1.9-2.7,4.1-2.7l1.6,0.6c-0.7,0.9,0,1.8,0.5,1.7l0,0.1c-2.9,1.1-4.2,1.5-4.2,3.9c0,1.3,0.4,2,1.2,1.8l0,0.1l-0.8,0.4
		l-1-0.3l-1.4,1.2l0.5,0.7v0C73,362.6,72.1,362.6,71.9,361.8 M79.5,338.4c-0.9-0.1-1.5,0.1-1.4,0.4
		C78.5,339.3,79.1,339.2,79.5,338.4 M76.2,340.6l1.4-0.1l0,0.2c-1.3,0.2-1.4,0.8-2.2,0.8c-0.6,0-1.2-0.6-0.9-1.4h0.1
		C74.6,340.5,75.1,340.9,76.2,340.6 M59,370c0.9,1.1,1.7,0.1,2.9,0.1c0.6,0,1.2,0.2,1.4,1.3h0.1c1.3-1.7-0.2-2.7-1-2.8
		c0.2-0.2,1.4-0.9,2.2,0.2l0.1,0c0-2.2-1.6-2.3-2.8-1.4c-0.2-0.8,0.4-1.4,1.2-1.4l0.1-0.1c-1.5-1.6-2.5,0.4-2.8,0.7
		c-0.6,0.8-2.7-0.7-3.5-1.5c0,0,1.8-1.9,1.8-3.7V361l0.1,0l0.7,0.2c0.4,0,1.2-0.1,1.2-1.6l-0.1,0l-0.6,0.4c-1.5,0-4.6-4.9-8.2-4.9
		c-1,0-2.8,0.7-3.7,1.7l0.5,1.2l-1.1,1.1v0.1c1.8,0.7,5.2,2,5.9,2.6c0.9,0.8,0.7,2.3,0.2,4.3c-0.5,1.9-1.6,1.7-2,1.6l0,0.1l1.6,0.8
		c1,0,1.3-0.6,1.8-0.6c0.8,0,2.6,1.2,2.6,2.1l-0.9,1.3l0,0.1C57,371.3,58.7,371.5,59,370 M99.2,371.3L99.2,371.3l-0.9-1.4
		c0-0.9,1.7-2.1,2.6-2.1c0.5,0,0.9,0.6,1.8,0.6l1.6-0.8l0-0.1c-0.4,0.1-1.5,0.3-2-1.6c-0.5-2-0.7-3.5,0.2-4.3c0.8-0.7,4.1-1.9,6-2.6
		v-0.1l-1.1-1.1l0.5-1.2c-0.9-1-2.7-1.7-3.7-1.7c-3.6,0-6.7,4.9-8.2,4.9l-0.6-0.4l-0.1,0c0,1.5,0.8,1.6,1.2,1.6l0.7-0.2l0.1,0l0,0.3
		c0,1.8,1.8,3.7,1.8,3.7c-0.8,0.9-2.9,2.3-3.5,1.5c-0.2-0.3-1.3-2.3-2.8-0.7l0.1,0.1c0.8,0,1.5,0.6,1.2,1.4
		c-1.2-0.9-2.8-0.8-2.8,1.4l0.1,0c0.8-1.1,2-0.4,2.2-0.2c-0.8,0.1-2.2,1.1-1,2.8h0.1c0.1-1.1,0.8-1.3,1.4-1.3c1.2,0,2,1.1,2.9-0.1
		C97.2,371.5,98.9,371.3,99.2,371.3 M69.7,342.8l-0.6-0.1l0,0l1,0.8l0.7-0.3c0,0,2.1,0.7,3.2,1c-0.4,0.5-0.7,1.2-0.7,1.9
		c-0.9-0.5-4.3-2.4-4.3-2.4l-1.1,1.5l-0.8-0.6l0.8-1.1l-1.1-0.1l0,0c0.1-0.2,0.5-0.9,1.5-0.6l-1.2-0.3l0,0c0.3-0.3,1-0.9,1.8-0.4
		l0.4-0.5l-0.7-0.8l0.5-0.6l0.5,0.7l4-5.4l1.2-0.4l0,1.2l-3.9,5.5l0.8,0.3l-0.4,0.6l-1-0.5L69.7,342.8z M83.6,341.9
		c0,0.5,0.3,1.2,1,1l0.1,0c-0.1,0.6-1.1,1.1-1.5,0.4c-0.4,0.8-0.3,1.6,0.6,2.1v0.1c-0.5,0.4-1.3,0.3-1.7-0.4
		c-0.7,0.5-0.6,1.7-0.2,2.1c0,0-2,1.2-3.7,0.3c-1.2-0.5-2.1-1.3-3.7-1.2c0.2-2.1,1.3-2.7,3.2-3c1.6-0.3,1.8-1,1.5-1.5l-1.5,0.4
		l0.1-0.6l-0.1-0.5c1.1,0,1.3-0.2,1.3-0.2c0.2-1.1-1-1.3-1.8-0.7l-0.4-0.8l-0.2-0.3l1.6-1.1c0.1-0.4,0.6-0.9,1.9-0.8l-0.3-2.1
		l0.1-0.1l1.3,1.5l1.6-0.8l0.3,1.8l1.9,0.2l0,0.2l-1.9,1C83.9,339.9,83.6,341.4,83.6,341.9"/>
	<path d="M185,338.8c-0.6,0.1-1.3,0.1-1.9,0.1l-1.1,0l-1,0l-0.9-0.1l-0.9-0.2v-0.7c1.5-0.4,2.2-1.2,2.1-2.7l-0.9-16.2h-0.1
		l-6.4,19.8l-1.4,0.2l-6.4-19.9l0,0l-1.1,17.9l2.3,0.6v0.8l-1,0.3l-0.9,0.2l-1,0.1l-1.1,0l-1.4-0.1l-1.4-0.2v-0.7
		c0.7-0.2,1.2-0.5,1.5-0.8l0.6-1.3l1.6-18.2L162,317v-1l1.2-0.2l1.3-0.1l1.3,0h1.1h1.3l5.6,17.3h0l5.4-17.3h1.5c0.6,0,1.3,0,2.1,0
		c0.7,0,1.5,0.1,2.2,0.2v1l-2.2,0.5l1.6,19.6l2.1,0.4v0.8L185,338.8z"/>
	<path d="M194.9,338.6l-1,0.2l-1,0.1l-1.3,0l-1.3-0.1l-1.4-0.3V338l0.7-0.3l0.6-0.5l0.4-0.5l0.1-0.6V324l-2.3-1v-0.8
		c0.8-0.2,1.6-0.4,2.3-0.5c0.7-0.2,1.4-0.2,1.9-0.2h1.2l-0.2,1.9v13.6l2,0.5v0.7L194.9,338.6z M194.2,317l-0.4,0.7l-0.7,0.5
		l-0.8,0.2l-0.8-0.1l-0.6-0.4l-0.4-0.6l-0.1-0.8l0.1-0.8l0.4-0.7l0.6-0.5l0.9-0.2l0.7,0.1l0.6,0.4l0.4,0.6l0.1,0.8L194.2,317z"/>
	<path d="M211.5,338.9l-1.2-0.1l-1.1-0.2V338l1-0.8c0.2-0.4,0.3-0.9,0.3-1.5v-6.8c0-0.8-0.1-1.6-0.2-2.2c-0.2-0.6-0.4-1.2-0.8-1.5
		l-1.1-0.9l-1.5-0.3c-0.7,0-1.4,0.1-2.1,0.3c-0.7,0.2-1.2,0.5-1.6,0.8v12l2,0.5v0.7l-0.9,0.3l-1,0.2l-1.1,0.1l-1.2,0l-1.4-0.1
		l-1.3-0.2V338l0.7-0.3l0.6-0.5l0.5-0.5l0.1-0.6V324l-2.3-1v-0.8c0.8-0.3,1.6-0.4,2.4-0.5c0.8-0.1,1.4-0.1,1.9-0.1h0.9v1.9
		c0.6-0.6,1.4-1.1,2.3-1.5c0.9-0.4,1.9-0.5,3-0.5c0.7,0,1.4,0.1,2,0.4l1.6,1.1c0.4,0.5,0.8,1,1,1.7c0.2,0.7,0.4,1.5,0.4,2.4v10
		l1.9,0.5v0.7C214.3,338.7,213,338.9,211.5,338.9"/>
	<path d="M223.9,338.6l-1,0.2l-1,0.1l-1.2,0l-1.3-0.1l-1.4-0.3V338l0.7-0.3l0.6-0.5l0.4-0.5l0.1-0.6V324l-2.3-1v-0.8
		c0.8-0.2,1.6-0.4,2.4-0.5c0.7-0.2,1.4-0.2,1.9-0.2h1.2l-0.2,1.9v13.6l2,0.5v0.7L223.9,338.6z M223.2,317l-0.4,0.7l-0.7,0.5
		l-0.8,0.2l-0.8-0.1l-0.6-0.4l-0.4-0.6l-0.1-0.8l0.1-0.8l0.4-0.7l0.7-0.5l0.9-0.2l0.7,0.1l0.6,0.4l0.4,0.6l0.1,0.8L223.2,317z"/>
	<path d="M237.7,335.9l-1.4,1.6c-0.6,0.5-1.3,0.9-2.1,1.2c-0.8,0.3-1.7,0.4-2.7,0.4c-1.6,0-2.7-0.2-3.4-0.7
		c-0.8-0.5-1.1-1.2-1.1-2.2l0.1-0.8l0.3-0.7c0.8,0.8,1.6,1.3,2.4,1.7c0.8,0.4,1.7,0.6,2.6,0.6c1,0,1.8-0.2,2.3-0.6
		c0.5-0.4,0.8-0.9,0.8-1.6l-0.2-0.9l-0.5-0.8l-1-0.7l-1.5-0.7l-1.8-0.7c-1-0.4-1.8-1-2.4-1.8c-0.5-0.7-0.8-1.6-0.8-2.6
		c0-0.7,0.1-1.4,0.4-2c0.3-0.6,0.7-1.2,1.3-1.7c0.5-0.5,1.2-0.9,2-1.2c0.8-0.3,1.6-0.4,2.5-0.4c0.7,0,1.3,0.1,1.8,0.2l1.2,0.4
		l0.7,0.7l0.2,0.9l0,0.8l-0.2,0.7c-0.6-0.4-1.2-0.7-2-1c-0.7-0.3-1.4-0.4-2.1-0.4l-1.5,0.2l-1,0.5L230,325l-0.2,0.9l0.1,0.8l0.5,0.7
		l0.9,0.6l1.4,0.6l1.9,0.7c0.7,0.3,1.2,0.5,1.6,0.8l1.1,1l0.6,1.2l0.2,1.4C238.1,334.6,238,335.2,237.7,335.9"/>
	<path d="M246.4,339.1c-1.4,0-2.5-0.4-3.2-1.2c-0.7-0.8-1-2-1-3.8c0-0.9,0-1.7,0-2.6c0-0.9,0-1.8,0.1-2.6l0.1-4.8h-2v-1.2l3.8-3.8
		l1.2-0.1l-0.2,3.2h4.7l-0.2,1.9h-4.6l-0.1,4.5c0,0.7,0,1.5,0,2.2v2c0,0.7,0,1.3,0.1,1.8l0.5,1.2l0.7,0.7l0.9,0.2l1.5-0.3l1.2-0.7
		l0.4,0.1C250.1,338,248.8,339.1,246.4,339.1"/>
	<path d="M262.6,324l-0.4,1.1l-1.1-0.6l-1.2-0.2c-1.1,0-2.1,0.5-3.1,1.5v11.4l2.5,0.5v0.7l-0.9,0.3l-1,0.2l-1.1,0.1l-1.4,0l-1.5-0.1
		l-1.4-0.3V338l0.7-0.3l0.6-0.5l0.5-0.5l0.1-0.6V324l-2.3-1v-0.8c0.8-0.2,1.6-0.4,2.4-0.5c0.7-0.1,1.4-0.2,1.9-0.2h0.9v2.5h0l1-1.1
		l1.5-1.2l1.6-0.4c1.2,0,1.8,0.5,1.8,1.5L262.6,324z"/>
	<path d="M277.4,323.2l-5,13.9c-0.7,2-1.4,3.6-2.1,4.9c-0.7,1.3-1.4,2.4-2,3.1c-0.6,0.8-1.2,1.3-1.8,1.6l-1.5,0.5l-1-0.1l-0.7-0.4
		l-0.4-0.8l-0.2-1.4l0.8,0.1l0.9,0l1.2-0.3l1.4-1c0.5-0.4,0.9-1,1.3-1.7c0.4-0.7,0.8-1.5,1.2-2.5l0.6-1.6l-5.6-14l-1.4-1v-0.8h6.6
		v0.8l-2,0.9l3.8,10.9h0.1l3.4-10.8l-2-1v-0.8h5.4v0.8L277.4,323.2z"/>
	<path d="M302,333.6c-0.5,1.2-1.1,2.2-1.9,3c-0.8,0.8-1.7,1.5-2.7,1.9c-1,0.5-2.1,0.7-3.1,0.7c-1.1,0-2.1-0.2-3-0.6
		c-1-0.4-1.8-0.9-2.5-1.6c-0.7-0.7-1.2-1.6-1.7-2.6c-0.4-1-0.6-2.2-0.6-3.5c0-1.5,0.2-2.8,0.7-4c0.5-1.2,1.1-2.2,1.9-3
		c0.8-0.8,1.7-1.5,2.7-1.9c1-0.5,2.1-0.7,3.2-0.7c1.1,0,2.1,0.2,3.1,0.6c1,0.4,1.8,0.9,2.5,1.7c0.7,0.7,1.3,1.6,1.6,2.6
		c0.4,1,0.6,2.1,0.6,3.4C302.7,331,302.5,332.4,302,333.6 M299.1,327.1c-0.2-0.8-0.6-1.5-1-2l-1.5-1.3c-0.6-0.3-1.2-0.4-1.8-0.4
		l-1.8,0.5l-1.6,1.4c-0.5,0.6-0.9,1.4-1.1,2.3c-0.3,0.9-0.4,1.9-0.4,3.1c0,1.1,0.2,2,0.4,2.8c0.2,0.8,0.6,1.5,1,2.1l1.5,1.2
		c0.6,0.3,1.2,0.4,1.8,0.4l1.8-0.4l1.6-1.4c0.5-0.6,0.8-1.3,1.1-2.2c0.3-0.9,0.4-2,0.4-3.2C299.5,328.8,299.3,327.9,299.1,327.1"/>
	<path d="M317.8,315.3l-0.1,0.6l-1.1-0.3l-1.2-0.2l-1.2-0.1l-1.2,0l-1,0.2l-0.8,0.7l-0.6,1.2c-0.1,0.5-0.2,1-0.2,1.7l0,0.6l0,0.9
		l0,1l0,0.7h4.5l-0.4,1.9h-4.1v13l2.3,0.5v0.7l-0.9,0.3l-1,0.2l-1.2,0.1l-1.4,0l-1.4-0.1l-1.3-0.3V338l0.7-0.3l0.6-0.5l0.5-0.5
		l0.1-0.6v-11.9h-2v-1.3l2-0.8v-2.6c0-1,0.2-1.8,0.4-2.6c0.3-0.8,0.7-1.5,1.3-2.1c0.6-0.6,1.3-1,2.1-1.3c0.9-0.3,1.8-0.5,2.9-0.5
		c1.3,0,2.2,0.2,2.7,0.5l0.8,1.3L317.8,315.3z"/>
	<path d="M337.2,321.1h-1l-0.1-0.6l-0.3-1.2l-0.6-0.8l-0.9-0.4l-1.4-0.2h-3.6v8.5h3.6c0.7,0,1.2-0.1,1.6-0.4
		c0.4-0.3,0.8-0.8,0.9-1.4l0.2-0.8h1v7h-1l-0.2-0.9l-0.6-1.1l-1.3-0.4h-4.2v8.5l2.6,0.6v0.8c-0.6,0.2-1.2,0.3-2,0.4
		c-0.7,0.1-1.5,0.2-2.2,0.2c-0.7,0-1.3,0-1.9-0.1l-1.6-0.3v-0.7c0.7-0.2,1.2-0.5,1.5-0.9c0.3-0.4,0.5-1,0.5-1.7v-17.6l-2.3-1v-0.8
		h13.5L337.2,321.1z"/>
	<path d="M355.2,333.6c-0.5,1.2-1.1,2.2-1.9,3c-0.8,0.8-1.7,1.5-2.7,1.9c-1,0.5-2.1,0.7-3.1,0.7c-1.1,0-2.1-0.2-3-0.6
		c-1-0.4-1.8-0.9-2.5-1.6c-0.7-0.7-1.3-1.6-1.7-2.6c-0.4-1-0.6-2.2-0.6-3.5c0-1.5,0.3-2.8,0.7-4c0.5-1.2,1.1-2.2,1.9-3
		c0.8-0.8,1.7-1.5,2.7-1.9c1-0.5,2.1-0.7,3.2-0.7c1.1,0,2.1,0.2,3.1,0.6c1,0.4,1.8,0.9,2.5,1.7c0.7,0.7,1.3,1.6,1.6,2.6
		c0.4,1,0.6,2.1,0.6,3.4C355.9,331,355.7,332.4,355.2,333.6 M352.3,327.1c-0.2-0.8-0.6-1.5-1-2l-1.5-1.3c-0.6-0.3-1.2-0.4-1.8-0.4
		l-1.8,0.5l-1.6,1.4c-0.5,0.6-0.8,1.4-1.1,2.3c-0.3,0.9-0.4,1.9-0.4,3.1c0,1.1,0.1,2,0.4,2.8c0.2,0.8,0.6,1.5,1,2.1l1.5,1.2
		c0.6,0.3,1.2,0.4,1.8,0.4l1.8-0.4l1.6-1.4c0.5-0.6,0.8-1.3,1.1-2.2c0.3-0.9,0.4-2,0.4-3.2C352.7,328.8,352.5,327.9,352.3,327.1"/>
	<path d="M369.3,324l-0.4,1.1l-1.1-0.6l-1.2-0.2c-1.1,0-2.1,0.5-3.1,1.5v11.4l2.5,0.5v0.7l-0.9,0.3l-1,0.2l-1.1,0.1l-1.4,0l-1.5-0.1
		l-1.4-0.3V338l0.7-0.3l0.6-0.5l0.5-0.5l0.1-0.6V324l-2.3-1v-0.8c0.8-0.2,1.6-0.4,2.4-0.5c0.7-0.1,1.4-0.2,1.9-0.2h0.9v2.5h0l1-1.1
		l1.5-1.2l1.7-0.4c1.2,0,1.8,0.5,1.8,1.5L369.3,324z"/>
	<path d="M384.6,330.3h-10.5c0,1,0.2,1.9,0.4,2.7c0.3,0.8,0.7,1.4,1.1,2l1.7,1.2c0.7,0.3,1.3,0.4,2.1,0.4l1.3-0.1l1.3-0.3l1.3-0.5
		l1.1-0.7l0.1,0.4l0,0.5l-0.4,1.2l-1.2,1c-0.5,0.3-1.2,0.5-1.9,0.7c-0.8,0.2-1.6,0.2-2.6,0.2c-1,0-2-0.2-2.9-0.6
		c-0.9-0.4-1.7-0.9-2.4-1.7c-0.7-0.7-1.2-1.6-1.6-2.6c-0.3-1-0.6-2.1-0.6-3.4c0-1.5,0.2-2.9,0.6-4.1c0.4-1.2,1-2.2,1.7-3
		c0.7-0.8,1.5-1.4,2.4-1.8c0.9-0.4,1.8-0.7,2.7-0.7c1,0,1.8,0.2,2.6,0.5c0.7,0.3,1.4,0.7,1.9,1.3c0.5,0.6,0.9,1.3,1.2,2.1
		c0.3,0.8,0.4,1.7,0.4,2.8v1.1L384.6,330.3z M381.5,326.2c-0.2-0.7-0.4-1.2-0.8-1.6l-1.1-1l-1.4-0.3l-1.5,0.4l-1.3,1.1l-0.9,1.6
		c-0.2,0.6-0.3,1.3-0.3,2h7.6C381.8,327.6,381.7,326.8,381.5,326.2"/>
	<path d="M393.4,338.6l-1,0.2l-1,0.1l-1.3,0l-1.3-0.1l-1.4-0.3V338l0.7-0.3l0.6-0.5l0.4-0.5l0.2-0.6V324l-2.3-1v-0.8
		c0.8-0.2,1.6-0.4,2.4-0.5c0.8-0.2,1.4-0.2,1.9-0.2h1.1l-0.2,1.9v13.6l2,0.5v0.7L393.4,338.6z M392.7,317l-0.4,0.7l-0.6,0.5
		l-0.8,0.2l-0.8-0.1l-0.6-0.4l-0.4-0.6l-0.1-0.8l0.1-0.8l0.4-0.7l0.7-0.5l0.9-0.2l0.7,0.1l0.6,0.4l0.4,0.6l0.2,0.8L392.7,317z"/>
	<path d="M412.2,323.9l-1.8-0.3c-0.7-0.1-1.3-0.1-2-0.1v0l0.8,0.8l0.6,0.9l0.4,1.1l0.2,1.1c0,1-0.2,2-0.6,2.8
		c-0.4,0.9-0.9,1.6-1.6,2.2c-0.7,0.6-1.4,1.1-2.3,1.4c-0.9,0.3-1.8,0.5-2.8,0.5l-1.2-0.1l-1-0.3l-0.4,0.3l-0.4,0.4l-0.2,0.5
		l-0.1,0.5l0.6,1.2c0.4,0.3,1,0.4,1.7,0.4l5,0c1.5,0,2.7,0.3,3.5,1c0.8,0.7,1.2,1.7,1.2,3c0,0.9-0.2,1.6-0.7,2.4
		c-0.4,0.7-1,1.4-1.8,2c-0.8,0.6-1.7,1-2.7,1.4c-1.1,0.3-2.2,0.5-3.5,0.5c-1.2,0-2.1-0.1-3-0.3c-0.8-0.2-1.6-0.5-2.1-0.9l-1.3-1.3
		l-0.4-1.6l0.3-1.4l0.7-1.1l1.1-0.9l1.4-0.6v0c-0.7-0.2-1.2-0.6-1.6-1.1c-0.4-0.5-0.6-1-0.6-1.7l0.2-1l0.5-0.9l0.8-0.8l1-0.5v0
		l-1.2-0.7l-1-1.1l-0.7-1.5l-0.3-1.7c0-1,0.2-1.9,0.6-2.8c0.4-0.9,0.9-1.6,1.5-2.2c0.6-0.7,1.4-1.2,2.3-1.5s1.8-0.5,2.7-0.5l1.2,0.1
		l1.1,0.3l1,0.4l0.6,0.4l0.6-0.4l0.8-0.4l0.9-0.3l0.9-0.1l0.8,0.1l0.7,0.2L412.2,323.9z M408.5,340.5c-0.5-0.4-1.1-0.6-2-0.6h-5.8
		l-0.7,0.5l-0.6,0.7l-0.4,0.8l-0.2,0.9l0.3,1l0.8,0.9l1.4,0.6c0.6,0.1,1.3,0.2,2,0.2c0.8,0,1.6-0.1,2.3-0.3c0.7-0.2,1.3-0.5,1.8-0.8
		l1.1-1.1l0.4-1.3C409.2,341.4,409,340.9,408.5,340.5 M407,325.6l-0.8-1.4l-1.1-0.8l-1.3-0.3l-1.5,0.4l-1.2,1l-0.8,1.6
		c-0.2,0.6-0.3,1.3-0.3,2.1c0,0.8,0.1,1.4,0.3,2l0.7,1.4l1.1,0.8l1.3,0.3l1.5-0.3l1.2-0.9c0.4-0.4,0.7-1,0.8-1.6
		c0.2-0.6,0.3-1.4,0.3-2.2C407.3,326.8,407.2,326.2,407,325.6"/>
	<path d="M426.9,338.9l-1.2-0.1l-1.1-0.2V338l1-0.8c0.2-0.4,0.3-0.9,0.3-1.5v-6.8c0-0.8-0.1-1.6-0.3-2.2c-0.2-0.6-0.4-1.2-0.7-1.5
		l-1.1-0.9l-1.5-0.3c-0.7,0-1.4,0.1-2.1,0.3c-0.7,0.2-1.2,0.5-1.6,0.8v12l2,0.5v0.7l-0.9,0.3l-1,0.2l-1.1,0.1l-1.2,0l-1.4-0.1
		l-1.3-0.2V338l0.7-0.3l0.6-0.5l0.5-0.5l0.1-0.6V324l-2.3-1v-0.8c0.8-0.3,1.6-0.4,2.4-0.5c0.7-0.1,1.4-0.1,1.9-0.1h0.8v1.9
		c0.6-0.6,1.4-1.1,2.3-1.5c0.9-0.4,1.9-0.5,3-0.5c0.7,0,1.4,0.1,2,0.4l1.6,1.1c0.4,0.5,0.8,1,1,1.7c0.2,0.7,0.3,1.5,0.3,2.4v10
		l1.9,0.5v0.7C429.7,338.7,428.4,338.9,426.9,338.9"/>
	<path d="M456.7,338.8c-0.6,0.1-1.2,0.1-1.8,0.1c-0.7,0-1.3,0-1.9-0.1c-0.6,0-1.2-0.1-1.8-0.3v-0.7c0.7-0.2,1.2-0.4,1.4-0.8l0.2-1.2
		l-1.3-4.4h-7.2l-1.6,5.6l2.1,0.5v0.8l-0.9,0.3l-0.9,0.2l-1,0.1l-1.1,0l-1.3-0.1l-1.3-0.3v-0.7l0.7-0.3l0.5-0.5l0.5-0.6l0.4-0.9
		l7.1-19.8l2.5-0.3l6.6,21.5l1.8,0.6v0.8L456.7,338.8z M448.3,319.3L448.3,319.3l-3.4,10.3h6.2L448.3,319.3z"/>
	<path d="M477.6,337.6v0.7l-0.9,0.3l-1,0.2l-1.1,0.1l-1.3,0l-1.3,0l-1.3-0.3V338l0.7-0.3l0.6-0.4l0.4-0.5l0.2-0.6V324h-7.7v13.2
		l2.2,0.5v0.7l-0.9,0.3l-1,0.2l-1.1,0.1l-1.3,0l-1.4,0l-1.3-0.3V338l0.7-0.3l0.6-0.4l0.4-0.5l0.2-0.6v-11.9h-2v-1.3l2-0.8v-2.6
		c0-0.9,0.1-1.8,0.4-2.6c0.3-0.8,0.7-1.5,1.3-2.1c0.6-0.6,1.3-1,2.1-1.3c0.8-0.3,1.8-0.5,2.9-0.5c1.2,0,2.1,0.2,2.6,0.5l0.8,1.2
		l0,0.6l-0.1,0.6l-1-0.3l-1.2-0.2l-1.2-0.2l-1.1,0l-1,0.3l-0.8,0.7l-0.6,1.2c-0.1,0.5-0.2,1-0.2,1.7l0,0.6l0,0.9l0,1l0,0.8h7.7v-2.8
		c0-0.9,0.1-1.8,0.4-2.6c0.3-0.8,0.7-1.5,1.3-2.1c0.6-0.6,1.3-1,2.1-1.3c0.8-0.3,1.8-0.5,2.9-0.5c1.3,0,2.2,0.2,2.7,0.5l0.8,1.3
		l0,0.6l-0.1,0.6l-1.1-0.3l-1.2-0.2l-1.3-0.2l-1.2,0l-1,0.3l-0.8,0.7l-0.6,1.2c-0.1,0.5-0.2,1-0.2,1.7l0,0.6l0,0.9l0,1l0.1,0.8h4.6
		l-0.4,1.9h-4.2v12.9L477.6,337.6z"/>
	<path d="M493.1,338.3l-1.4,0.9l-0.9-0.8l-0.7-1l-0.9,0.7l-1.2,0.5l-1.3,0.3l-1.4,0.2c-0.7,0-1.3-0.1-1.8-0.3L482,338l-1-1.3
		l-0.3-1.6c0-0.8,0.2-1.5,0.7-2.2c0.4-0.7,1-1.3,1.8-1.9c0.8-0.5,1.7-1,2.9-1.3c1.2-0.3,2.5-0.5,3.9-0.5v-1c0-1-0.1-1.7-0.2-2.3
		l-0.6-1.4l-1-0.7l-1.4-0.2c-1,0-1.9,0.2-2.9,0.6c-0.9,0.4-1.7,1-2.5,1.7l-0.1-1.1l0.3-1.5l1-1.1c0.5-0.3,1.1-0.6,1.8-0.7
		c0.7-0.2,1.6-0.3,2.7-0.3c0.9,0,1.7,0.1,2.4,0.3c0.7,0.2,1.3,0.5,1.8,1l1.1,1.5c0.3,0.6,0.4,1.3,0.4,2l0,0.8l0,1l0,1l0,0.9
		l-0.1,5.8l0.6,1l0.9,0.8L493.1,338.3z M490,331c-1,0-1.9,0.1-2.7,0.3c-0.8,0.2-1.4,0.5-1.9,0.8l-1.2,1.2l-0.4,1.4
		c0,0.7,0.3,1.3,0.7,1.7c0.5,0.4,1.1,0.6,2.1,0.6l0.9-0.1l0.9-0.2l0.9-0.3l0.7-0.4V331z"/>
	<path d="M503,338.6l-1,0.2l-1,0.1l-1.3,0l-1.3-0.1l-1.4-0.3V338l0.7-0.3l0.6-0.5l0.4-0.5l0.1-0.6V324l-2.3-1v-0.8
		c0.8-0.2,1.6-0.4,2.4-0.5c0.8-0.2,1.4-0.2,1.9-0.2h1.1l-0.2,1.9v13.6l2,0.5v0.7L503,338.6z M502.3,317l-0.4,0.7l-0.6,0.5l-0.8,0.2
		l-0.7-0.1l-0.6-0.4l-0.4-0.6l-0.1-0.8l0.1-0.8l0.4-0.7l0.6-0.5l0.9-0.2l0.7,0.1l0.6,0.4l0.4,0.6l0.1,0.8L502.3,317z"/>
	<path d="M517,324l-0.4,1.1l-1.1-0.6l-1.2-0.2c-1.1,0-2.1,0.5-3.1,1.5v11.4l2.5,0.5v0.7l-0.9,0.3l-1,0.2l-1.1,0.1l-1.4,0l-1.5-0.1
		l-1.4-0.3V338l0.7-0.3l0.6-0.5l0.5-0.5l0.1-0.6V324l-2.3-1v-0.8c0.8-0.2,1.6-0.4,2.4-0.5c0.7-0.1,1.4-0.2,1.9-0.2h0.8v2.5h0l1-1.1
		l1.5-1.2l1.7-0.4c1.2,0,1.8,0.5,1.8,1.5L517,324z"/>
	<path d="M529.4,335.9l-1.3,1.6c-0.6,0.5-1.3,0.9-2.1,1.2c-0.8,0.3-1.7,0.4-2.7,0.4c-1.6,0-2.7-0.2-3.4-0.7
		c-0.7-0.5-1.1-1.2-1.1-2.2l0.1-0.8l0.2-0.7c0.8,0.8,1.6,1.3,2.4,1.7c0.8,0.4,1.7,0.6,2.6,0.6c1,0,1.7-0.2,2.3-0.6
		c0.5-0.4,0.7-0.9,0.7-1.6l-0.2-0.9l-0.5-0.8l-1-0.7l-1.5-0.7l-1.8-0.7c-1-0.4-1.8-1-2.4-1.8c-0.5-0.7-0.8-1.6-0.8-2.6
		c0-0.7,0.2-1.4,0.4-2c0.3-0.6,0.8-1.2,1.3-1.7c0.5-0.5,1.2-0.9,2-1.2c0.8-0.3,1.6-0.4,2.5-0.4c0.7,0,1.3,0.1,1.8,0.2l1.2,0.4
		l0.7,0.7l0.2,0.9l0,0.8L529,325c-0.6-0.4-1.2-0.7-2-1c-0.7-0.3-1.4-0.4-2.1-0.4l-1.5,0.2l-1,0.5l-0.6,0.7l-0.2,0.9l0.1,0.8l0.5,0.7
		l0.9,0.6l1.4,0.6l1.9,0.7l1.6,0.8l1.1,1l0.6,1.2l0.2,1.4C529.9,334.6,529.7,335.2,529.4,335.9"/>
	<path d="M554.6,333.6c-0.5,1.2-1.1,2.2-1.9,3c-0.8,0.8-1.7,1.5-2.7,1.9c-1,0.5-2.1,0.7-3.1,0.7c-1.1,0-2.1-0.2-3-0.6
		c-1-0.4-1.8-0.9-2.5-1.6c-0.7-0.7-1.3-1.6-1.7-2.6c-0.4-1-0.6-2.2-0.6-3.5c0-1.5,0.3-2.8,0.7-4c0.5-1.2,1.1-2.2,1.9-3
		c0.8-0.8,1.7-1.5,2.7-1.9c1-0.5,2.1-0.7,3.2-0.7s2.1,0.2,3.1,0.6c1,0.4,1.8,0.9,2.5,1.7c0.7,0.7,1.2,1.6,1.6,2.6
		c0.4,1,0.6,2.1,0.6,3.4C555.3,331,555.1,332.4,554.6,333.6 M551.7,327.1c-0.2-0.8-0.6-1.5-1-2l-1.5-1.3c-0.6-0.3-1.2-0.4-1.8-0.4
		l-1.8,0.5l-1.6,1.4c-0.5,0.6-0.9,1.4-1.1,2.3c-0.3,0.9-0.4,1.9-0.4,3.1c0,1.1,0.2,2,0.4,2.8c0.3,0.8,0.6,1.5,1,2.1l1.5,1.2
		c0.6,0.3,1.2,0.4,1.8,0.4l1.8-0.4l1.6-1.4c0.5-0.6,0.8-1.3,1.1-2.2c0.3-0.9,0.4-2,0.4-3.2C552.1,328.8,551.9,327.9,551.7,327.1"/>
	<path d="M570.4,315.3l-0.1,0.6l-1.1-0.3l-1.2-0.2l-1.2-0.1l-1.2,0l-1,0.2l-0.8,0.7l-0.6,1.2c-0.1,0.5-0.2,1-0.2,1.7l0,0.6l0,0.9
		l0,1l0,0.7h4.5l-0.4,1.9h-4.1v13l2.2,0.5v0.7l-0.9,0.3l-1,0.2l-1.1,0.1l-1.3,0l-1.4-0.1l-1.3-0.3V338l0.7-0.3l0.6-0.5l0.5-0.5
		l0.1-0.6v-11.9h-2v-1.3l2-0.8v-2.6c0-1,0.1-1.8,0.4-2.6c0.3-0.8,0.8-1.5,1.4-2.1c0.6-0.6,1.3-1,2.1-1.3c0.8-0.3,1.8-0.5,2.9-0.5
		c1.3,0,2.2,0.2,2.7,0.5l0.8,1.3L570.4,315.3z"/>
	<path d="M582.3,339.1c-1.4,0-2.5-0.4-3.2-1.2c-0.7-0.8-1-2-1-3.8c0-0.9,0-1.7,0-2.6c0-0.9,0-1.8,0.1-2.6l0.1-4.8h-2v-1.2l3.9-3.8
		l1.2-0.1l-0.2,3.2h4.7l-0.2,1.9h-4.6l-0.1,4.5c0,0.7,0,1.5,0,2.2v2c0,0.7,0,1.3,0.1,1.8l0.5,1.2l0.7,0.7l0.9,0.2l1.5-0.3l1.2-0.7
		l0.4,0.1C586,338,584.7,339.1,582.3,339.1"/>
	<path d="M603.1,338.8c-0.6,0.1-1.3,0.1-2.1,0.1l-1.1-0.1l-1.2-0.3V338l1-0.8c0.2-0.4,0.3-0.9,0.3-1.5v-6.8c0-0.8-0.1-1.6-0.3-2.2
		l-0.7-1.5l-1.1-0.9l-1.5-0.3l-1,0.1l-1,0.2l-0.9,0.4l-0.7,0.4v12l2,0.5v0.7l-0.9,0.3l-1,0.2l-1,0.1l-1.2,0l-1.3-0.1l-1.3-0.3V338
		l0.7-0.3l0.6-0.5l0.4-0.5l0.1-0.6v-20.7l-2.3-1v-0.8c0.8-0.2,1.6-0.4,2.3-0.5c0.7-0.1,1.4-0.1,2-0.1h1.1l-0.2,2v8.5
		c0.6-0.6,1.4-1.1,2.3-1.5c0.8-0.3,1.8-0.5,2.9-0.5c0.7,0,1.5,0.1,2.1,0.3l1.6,1.1c0.4,0.5,0.8,1,1,1.7c0.3,0.7,0.4,1.5,0.4,2.4v10
		l1.9,0.5v0.7L603.1,338.8z"/>
	<path d="M620.7,330.3h-10.5c0,1,0.1,1.9,0.4,2.7c0.3,0.8,0.7,1.4,1.1,2c0.5,0.5,1,1,1.7,1.2c0.7,0.3,1.3,0.4,2.1,0.4l1.3-0.1
		l1.3-0.3l1.3-0.5l1.1-0.7l0.1,0.4l0,0.5l-0.4,1.2l-1.2,1c-0.5,0.3-1.2,0.5-1.9,0.7c-0.8,0.2-1.6,0.2-2.6,0.2c-1,0-2-0.2-2.9-0.6
		c-0.9-0.4-1.7-0.9-2.4-1.7c-0.7-0.7-1.2-1.6-1.6-2.6c-0.4-1-0.6-2.1-0.6-3.4c0-1.5,0.2-2.9,0.7-4.1c0.4-1.2,1-2.2,1.7-3
		c0.7-0.8,1.5-1.4,2.3-1.8c0.9-0.4,1.8-0.7,2.8-0.7c1,0,1.8,0.2,2.6,0.5c0.8,0.3,1.4,0.7,1.9,1.3c0.5,0.6,0.9,1.3,1.2,2.1
		c0.3,0.8,0.4,1.7,0.4,2.8v1.1L620.7,330.3z M617.6,326.2c-0.2-0.7-0.4-1.2-0.7-1.6l-1.2-1l-1.4-0.3l-1.5,0.4l-1.3,1.1l-0.9,1.6
		c-0.3,0.6-0.4,1.3-0.4,2h7.6C617.9,327.6,617.8,326.8,617.6,326.2"/>
	<path d="M179.8,357.4l-0.6,0.6l-0.3,0.9l-0.1,1.4V379l-1.7,0.4l-11.3-18.6l0,0v16.5l2.2,0.6v0.8l-1.6,0.5l-1.7,0.1
		c-0.7,0-1.3,0-1.9-0.1l-1.4-0.3v-0.7l1-0.4l0.6-0.6l0.4-0.9l0.1-1.3v-17.2l-2.3-0.6v-1c0.7-0.1,1.4-0.1,2-0.2
		c0.7-0.1,1.3-0.1,1.9-0.1h1.3l9.9,16.3l0.1,0v-14.5l-2.3-0.6v-0.8l1.8-0.4l1.8-0.2h0.9l0.8,0.1l0.6,0.1l0.7,0.2v0.7L179.8,357.4z"
		/>
	<path d="M196.7,370.6h-10.5c0,1,0.1,1.9,0.4,2.7c0.3,0.8,0.7,1.4,1.2,2l1.7,1.2c0.7,0.3,1.3,0.4,2.1,0.4l1.3-0.1l1.3-0.3l1.3-0.5
		l1.1-0.7l0.1,0.4l0,0.5l-0.4,1.2l-1.2,1c-0.5,0.3-1.2,0.5-1.9,0.7c-0.8,0.2-1.6,0.2-2.6,0.2c-1,0-2-0.2-2.9-0.6
		c-0.9-0.4-1.7-0.9-2.4-1.6c-0.7-0.7-1.2-1.6-1.6-2.6c-0.3-1-0.6-2.1-0.6-3.4c0-1.5,0.2-2.9,0.6-4.1c0.4-1.2,1-2.2,1.7-3
		c0.7-0.8,1.5-1.4,2.4-1.8c0.9-0.4,1.8-0.7,2.8-0.7c1,0,1.8,0.2,2.6,0.5c0.7,0.3,1.4,0.7,1.9,1.3c0.5,0.6,0.9,1.3,1.2,2.1
		c0.3,0.8,0.4,1.8,0.4,2.8v1.1L196.7,370.6z M193.6,366.5c-0.2-0.6-0.4-1.2-0.8-1.6l-1.1-1l-1.4-0.3l-1.5,0.4l-1.3,1.1l-0.9,1.6
		c-0.2,0.7-0.3,1.3-0.3,2h7.6C193.9,367.9,193.7,367.1,193.6,366.5"/>
	<path d="M205.3,379.4c-1.4,0-2.5-0.4-3.2-1.2c-0.7-0.8-1-2-1-3.8c0-0.8,0-1.7,0-2.6c0-0.9,0-1.8,0.1-2.6l0.1-4.8h-2v-1.2l3.9-3.8
		l1.2-0.2l-0.2,3.2h4.7l-0.2,1.9h-4.6l-0.1,4.5c0,0.8,0,1.5,0,2.2v2c0,0.7,0,1.3,0.1,1.8l0.5,1.2l0.7,0.7l0.9,0.2l1.5-0.2l1.2-0.7
		l0.4,0.1C209,378.3,207.7,379.4,205.3,379.4"/>
	<path d="M226.1,379.1c-0.6,0.1-1.3,0.1-2.1,0.1l-1.2-0.1l-1.2-0.2v-0.6l1-0.9l0.3-1.5v-6.8c0-0.9-0.1-1.6-0.3-2.2
		c-0.2-0.6-0.4-1.1-0.7-1.5l-1.1-0.9l-1.5-0.3l-1,0.1l-1,0.3l-0.9,0.4l-0.7,0.4v12l2,0.5v0.7l-0.9,0.3l-1,0.2l-1,0.1l-1.3,0
		l-1.3-0.1l-1.3-0.2v-0.6l0.7-0.3l0.6-0.5l0.4-0.5l0.2-0.6v-20.7l-2.3-1v-0.8c0.8-0.3,1.6-0.4,2.3-0.5c0.7-0.1,1.4-0.1,2-0.1h1.1
		l-0.2,2v8.5c0.6-0.6,1.4-1.1,2.2-1.5c0.8-0.3,1.8-0.5,2.9-0.5c0.8,0,1.5,0.1,2.1,0.4l1.6,1.1c0.4,0.5,0.8,1,1,1.7
		c0.2,0.7,0.4,1.5,0.4,2.4v10l1.9,0.5v0.7L226.1,379.1z"/>
	<path d="M243.7,370.6h-10.5c0,1,0.1,1.9,0.4,2.7c0.3,0.8,0.7,1.4,1.1,2c0.5,0.5,1,1,1.7,1.2c0.6,0.3,1.3,0.4,2.1,0.4l1.3-0.1
		l1.3-0.3l1.3-0.5l1.1-0.7l0.1,0.4l0,0.5l-0.4,1.2l-1.2,1c-0.5,0.3-1.2,0.5-1.9,0.7c-0.8,0.2-1.6,0.2-2.6,0.2c-1,0-2-0.2-2.9-0.6
		c-0.9-0.4-1.7-0.9-2.3-1.6c-0.7-0.7-1.2-1.6-1.6-2.6c-0.4-1-0.6-2.1-0.6-3.4c0-1.5,0.2-2.9,0.7-4.1c0.4-1.2,1-2.2,1.7-3
		c0.7-0.8,1.5-1.4,2.4-1.8c0.9-0.4,1.8-0.7,2.8-0.7c1,0,1.8,0.2,2.6,0.5c0.7,0.3,1.4,0.7,1.9,1.3c0.5,0.6,0.9,1.3,1.2,2.1
		c0.3,0.8,0.4,1.8,0.4,2.8v1.1L243.7,370.6z M240.6,366.5c-0.2-0.6-0.4-1.2-0.8-1.6l-1.1-1l-1.4-0.3l-1.5,0.4l-1.3,1.1l-0.9,1.6
		c-0.2,0.7-0.3,1.3-0.3,2h7.6C240.9,367.9,240.8,367.1,240.6,366.5"/>
	<path d="M257.2,364.4l-0.4,1.1l-1.1-0.6l-1.2-0.2c-1.1,0-2.1,0.5-3.1,1.5v11.4l2.5,0.5v0.7l-0.9,0.3l-1,0.2l-1.1,0.1l-1.4,0
		l-1.5-0.1l-1.4-0.3v-0.6l0.7-0.3l0.6-0.5l0.5-0.5l0.1-0.6v-12.1l-2.3-1v-0.8c0.8-0.3,1.6-0.4,2.3-0.5c0.8-0.1,1.4-0.2,1.9-0.2h0.9
		v2.5h0l1-1.1l1.5-1.2l1.6-0.4c1.2,0,1.8,0.5,1.8,1.5L257.2,364.4z"/>
</g>
<polygon points="263.1,353.3 262.2,353.3 261.2,353.4 260,353.7 258.8,353.9 258.8,354.7 261.1,355.7 261.1,376.4 261,377 
	260.5,377.5 259.9,378 259.2,378.3 259.2,378.9 260.5,379.2 261.9,379.3 263.1,379.2 264.2,379.1 265.1,378.9 266,378.6 266,378 
	264,377.4 264,355.3 264.2,353.3 "/>
<g>
	<path d="M280.6,378.6l-1.4,0.9l-0.9-0.7l-0.7-1l-0.9,0.7l-1.2,0.5l-1.4,0.4l-1.4,0.1c-0.7,0-1.3-0.1-1.8-0.3l-1.4-0.8l-1-1.3
		l-0.3-1.6c0-0.8,0.2-1.5,0.6-2.2c0.4-0.7,1-1.3,1.8-1.8c0.8-0.5,1.7-1,2.9-1.3c1.1-0.3,2.5-0.5,3.9-0.5v-1c0-1-0.1-1.7-0.2-2.4
		l-0.6-1.4l-1-0.7l-1.4-0.2c-1,0-1.9,0.2-2.9,0.6c-0.9,0.4-1.8,1-2.5,1.7l-0.1-1.1l0.3-1.5l1-1.1c0.5-0.3,1.1-0.6,1.8-0.7
		c0.7-0.2,1.6-0.3,2.7-0.3c0.9,0,1.7,0.1,2.4,0.3c0.7,0.2,1.3,0.5,1.8,1l1.1,1.5c0.3,0.6,0.4,1.2,0.4,2l0,0.8l0,1l0,1l0,0.9
		l-0.1,5.8l0.6,1l0.8,0.9L280.6,378.6z M277.6,371.4c-1,0-1.9,0.1-2.7,0.3c-0.8,0.2-1.4,0.5-1.9,0.8l-1.2,1.1l-0.4,1.4
		c0,0.7,0.3,1.3,0.7,1.7c0.5,0.4,1.1,0.7,2.1,0.7l0.9-0.1l0.9-0.2l0.9-0.3l0.7-0.4V371.4z"/>
	<path d="M297.7,379.3l-1.2-0.1l-1.1-0.3v-0.6l1-0.8c0.2-0.4,0.3-0.9,0.3-1.5v-6.8c0-0.9-0.1-1.6-0.3-2.2c-0.2-0.6-0.4-1.2-0.7-1.5
		l-1.1-0.8l-1.5-0.3c-0.7,0-1.4,0.1-2.1,0.3c-0.7,0.2-1.2,0.5-1.6,0.8v12l2,0.5v0.7l-0.9,0.3l-1,0.2l-1.1,0.1l-1.2,0l-1.3-0.1
		l-1.3-0.3v-0.6l0.7-0.3l0.6-0.5l0.5-0.5l0.1-0.6v-12.1l-2.3-1v-0.8c0.8-0.3,1.6-0.4,2.3-0.5c0.7-0.1,1.4-0.1,1.9-0.1h0.8v1.9
		c0.6-0.6,1.4-1.1,2.3-1.5c0.9-0.4,1.9-0.5,3-0.5c0.7,0,1.4,0.1,2,0.4l1.6,1.1c0.4,0.5,0.8,1,1,1.7c0.2,0.7,0.3,1.5,0.3,2.4v10
		l1.8,0.5v0.7C300.4,379,299.2,379.3,297.7,379.3"/>
	<path d="M318,378.7l-1.4,0.8l-1-1l-0.7-1.1l-1,0.8l-1.2,0.7l-1.2,0.4l-1.2,0.2c-0.9,0-1.8-0.2-2.5-0.5c-0.8-0.4-1.5-0.9-2.1-1.5
		c-0.6-0.7-1-1.5-1.4-2.5c-0.3-1-0.5-2-0.5-3.2c0-1.6,0.2-3,0.7-4.3c0.5-1.2,1.1-2.3,1.9-3.1c0.7-0.9,1.7-1.5,2.7-1.9
		c1-0.4,2.1-0.6,3.3-0.6l1.3,0.1l1.2,0.2v-6.3l-2.4-1v-0.8c0.8-0.3,1.6-0.4,2.4-0.5c0.8-0.1,1.5-0.1,2-0.1h1.1l-0.2,2v20.4l0.5,1.1
		l0.8,1L318,378.7z M314.9,364.1l-1.2-0.3l-1.4-0.1c-0.7,0-1.5,0.2-2.1,0.5c-0.6,0.3-1.2,0.8-1.7,1.4c-0.5,0.6-0.8,1.3-1.1,2.3
		c-0.3,0.9-0.4,2-0.4,3.2c0,1,0.1,1.8,0.4,2.6c0.2,0.8,0.6,1.4,1,1.9l1.4,1.1l1.6,0.4l1-0.1l1-0.2l0.9-0.4l0.7-0.5V364.1z"/>
	<path d="M332.4,376.2l-1.4,1.6c-0.6,0.5-1.3,0.9-2.1,1.2c-0.8,0.3-1.7,0.4-2.7,0.4c-1.6,0-2.7-0.3-3.4-0.7
		c-0.8-0.5-1.1-1.2-1.1-2.2l0.1-0.8l0.3-0.7c0.8,0.7,1.6,1.3,2.4,1.7c0.8,0.4,1.7,0.6,2.6,0.6c1,0,1.7-0.2,2.3-0.7
		c0.5-0.4,0.7-0.9,0.7-1.6l-0.1-0.9l-0.5-0.8l-1-0.7l-1.5-0.7l-1.8-0.8c-1-0.4-1.8-1-2.4-1.8c-0.5-0.7-0.8-1.6-0.8-2.6
		c0-0.7,0.1-1.4,0.4-2c0.3-0.6,0.8-1.2,1.3-1.7c0.5-0.5,1.2-0.9,2-1.2c0.8-0.3,1.6-0.4,2.5-0.4c0.7,0,1.3,0.1,1.8,0.2l1.2,0.4
		l0.7,0.7l0.2,0.9l0,0.8l-0.1,0.7c-0.6-0.4-1.2-0.7-2-1c-0.7-0.3-1.4-0.4-2.1-0.4l-1.5,0.2l-1,0.5l-0.7,0.7l-0.2,0.9l0.1,0.8
		l0.5,0.7l0.8,0.6l1.4,0.6l1.9,0.7c0.6,0.3,1.2,0.5,1.6,0.8l1.1,1l0.6,1.2l0.2,1.4C332.9,374.9,332.7,375.6,332.4,376.2"/>
</g>
</svg>
