
<svg version="1.1" xmlns="http://www.w3.org/2000/svg" width="100" height="100" viewBox="0 0 100 100">
<title>border-closed</title>
<path fill="param(fill) #000" stroke="param(outline) #000" stroke-width="param(outline-width) 1" d="M83.333 39.583h16.667v18.75h-16.667v-18.75z"></path>
<path fill="param(fill) #000" stroke="param(outline) #000" stroke-width="param(outline-width) 1" d="M20.833 10.417c-3.45 0.004-6.246 2.8-6.25 6.25v0h12.5c-0.004-3.45-2.8-6.246-6.25-6.25h-0z"></path>
<path fill="param(fill) #000" stroke="param(outline) #000" stroke-width="param(outline-width) 1" d="M20.833 41.667c11.506 0 20.833-9.327 20.833-20.833s-9.327-20.833-20.833-20.833c-11.506 0-20.833 9.327-20.833 20.833v0c0.004 11.504 9.329 20.829 20.833 20.833h0zM10.417 16.667c0-5.753 4.664-10.417 10.417-10.417s10.417 4.664 10.417 10.417v0 12.5c-0 2.301-1.866 4.167-4.167 4.167h-12.5c-2.301-0-4.167-1.866-4.167-4.167v0z"></path>
<path fill="param(fill) #000" stroke="param(outline) #000" stroke-width="param(outline-width) 1" d="M16.667 47.562c-6.073-0.968-11.35-3.837-15.323-7.97l-0.008-0.009h-1.335v18.75h16.667z"></path>
<path fill="param(fill) #000" stroke="param(outline) #000" stroke-width="param(outline-width) 1" d="M41.667 39.583h16.667v18.75h-16.667v-18.75z"></path>
<path fill="param(fill) #000" stroke="param(outline) #000" stroke-width="param(outline-width) 1" d="M89.583 31.25c3.451-0.001 6.249-2.799 6.249-6.25 0-1.726-0.699-3.288-1.83-4.419l-18.742-18.742c-0.288-0.287-0.603-0.547-0.942-0.775l-0.023-0.014c-0.139-0.093-0.29-0.155-0.434-0.235-0.176-0.109-0.386-0.221-0.603-0.322l-0.038-0.016c-0.156-0.061-0.359-0.125-0.566-0.179l-0.042-0.009c-0.186-0.055-0.364-0.127-0.557-0.165-0.368-0.077-0.79-0.12-1.223-0.12s-0.855 0.044-1.263 0.127l0.040-0.007c-0.193 0.039-0.372 0.11-0.558 0.166-0.249 0.063-0.452 0.128-0.649 0.202l0.042-0.014c-0.256 0.117-0.467 0.229-0.67 0.354l0.027-0.015c-0.143 0.080-0.293 0.142-0.431 0.234-0.361 0.242-0.677 0.502-0.964 0.789l-18.742 18.742c-1.131 1.131-1.83 2.693-1.83 4.419 0 3.451 2.798 6.249 6.249 6.249 1.726 0 3.288-0.7 4.419-1.83l8.081-8.081v72.412c0 3.452 2.798 6.25 6.25 6.25s6.25-2.798 6.25-6.25v0-72.412l8.081 8.081c1.128 1.131 2.688 1.831 4.412 1.831 0.003 0 0.005 0 0.008 0h-0z"></path>
<path fill="param(fill) #000" stroke="param(outline) #000" stroke-width="param(outline-width) 1" d="M43.498 70.581l-8.081 8.081v-35.043c-3.549 2.314-7.816 3.827-12.407 4.186l-0.093 0.006v30.851l-8.081-8.081c-1.131-1.131-2.693-1.83-4.419-1.83-3.451 0-6.249 2.798-6.249 6.249 0 1.726 0.7 3.288 1.83 4.419l18.742 18.742c0.288 0.288 0.603 0.547 0.942 0.775l0.022 0.014c0.138 0.092 0.288 0.155 0.431 0.234 0.176 0.109 0.387 0.222 0.605 0.323l0.039 0.016c0.156 0.061 0.358 0.125 0.565 0.179l0.042 0.009c0.186 0.056 0.365 0.127 0.558 0.166 0.368 0.078 0.79 0.123 1.223 0.123s0.855-0.045 1.263-0.13l-0.040 0.007c0.229-0.056 0.415-0.113 0.597-0.179l-0.040 0.013c0.248-0.062 0.451-0.127 0.649-0.202l-0.040 0.013c0.254-0.115 0.465-0.228 0.667-0.352l-0.026 0.015c0.144-0.081 0.295-0.143 0.434-0.236 0.361-0.242 0.677-0.502 0.964-0.789l18.742-18.742c1.131-1.131 1.83-2.693 1.83-4.419 0-3.451-2.798-6.249-6.249-6.249-1.726 0-3.288 0.7-4.419 1.83v0z"></path>
<path fill="param(fill) #000" stroke="param(outline) #000" stroke-width="param(outline-width) 1" d="M18.75 20.833h4.167c1.151 0 2.083 0.933 2.083 2.083v4.167c0 1.151-0.933 2.083-2.083 2.083h-4.167c-1.151 0-2.083-0.933-2.083-2.083v-4.167c0-1.151 0.933-2.083 2.083-2.083z"></path>
</svg>
