
<svg version="1.1" xmlns="http://www.w3.org/2000/svg" width="100" height="100" viewBox="0 0 100 100">
<title>bridge-closed</title>
<path fill="param(fill) #000" stroke="param(outline) #000" stroke-width="param(outline-width) 1" d="M20.833 10.417c-3.45 0.004-6.246 2.8-6.25 6.25v0h12.5c-0.004-3.45-2.8-6.246-6.25-6.25h-0z"></path>
<path fill="param(fill) #000" stroke="param(outline) #000" stroke-width="param(outline-width) 1" d="M20.833 41.667c11.506 0 20.833-9.327 20.833-20.833s-9.327-20.833-20.833-20.833c-11.506 0-20.833 9.327-20.833 20.833v0c0.005 11.504 9.329 20.829 20.833 20.833h0zM10.417 16.667c0-5.753 4.664-10.417 10.417-10.417s10.417 4.664 10.417 10.417v0 12.5c-0 2.301-1.866 4.167-4.167 4.167h-12.5c-2.301 0-4.167-1.866-4.167-4.167v0z"></path>
<path fill="param(fill) #000" stroke="param(outline) #000" stroke-width="param(outline-width) 1" d="M0 50v14.583c0.001 0 0.003 0 0.004 0 9.202 0 16.662 7.46 16.662 16.662 0 0.002 0 0.003 0 0.005v-0 18.75h16.667v-18.75c0-9.205 7.462-16.667 16.667-16.667s16.667 7.462 16.667 16.667v0 18.75h16.667v-18.75c0-0.001 0-0.003 0-0.004 0-9.202 7.46-16.662 16.662-16.662 0.002 0 0.003 0 0.005 0h-0v-14.583z"></path>
<path fill="param(fill) #000" stroke="param(outline) #000" stroke-width="param(outline-width) 1" d="M18.75 20.833h4.167c1.151 0 2.083 0.933 2.083 2.083v4.167c0 1.151-0.933 2.083-2.083 2.083h-4.167c-1.151 0-2.083-0.933-2.083-2.083v-4.167c0-1.151 0.933-2.083 2.083-2.083z"></path>
</svg>
