
<svg version="1.1" xmlns="http://www.w3.org/2000/svg" width="100" height="100" viewBox="0 0 100 100">
<title>bridge-not-affected</title>
<path fill="param(fill) #000" stroke="param(outline) #000" stroke-width="param(outline-width) 1" d="M20.833 41.667c11.506 0 20.833-9.327 20.833-20.833s-9.327-20.833-20.833-20.833c-11.506 0-20.833 9.327-20.833 20.833v0c0.004 11.504 9.329 20.829 20.833 20.833h0zM8.938 19.354c0.379-0.377 0.902-0.61 1.479-0.61s1.1 0.233 1.479 0.61l-0-0 4.875 4.896 13.125-11.25c0.36-0.306 0.831-0.493 1.345-0.493 1.151 0 2.083 0.933 2.083 2.083 0 0.628-0.278 1.192-0.718 1.574l-0.003 0.002-14.583 12.5c-0.362 0.31-0.836 0.499-1.354 0.5h-0c-0.576-0.002-1.097-0.232-1.48-0.605l-6.25-6.25c-0.377-0.379-0.61-0.902-0.61-1.479s0.233-1.1 0.61-1.479l-0 0z"></path>
<path fill="param(fill) #000" stroke="param(outline) #000" stroke-width="param(outline-width) 1" d="M0 50v14.583c0.001 0 0.003 0 0.004 0 9.202 0 16.662 7.46 16.662 16.662 0 0.002 0 0.003 0 0.005v-0 18.75h16.667v-18.75c0-9.205 7.462-16.667 16.667-16.667s16.667 7.462 16.667 16.667v0 18.75h16.667v-18.75c0-0.001 0-0.003 0-0.004 0-9.202 7.46-16.662 16.662-16.662 0.002 0 0.003 0 0.005 0h-0v-14.583z"></path>
</svg>
