
<svg version="1.1" xmlns="http://www.w3.org/2000/svg" width="112" height="100" viewBox="0 0 112 100">
<title>bridge</title>
<path fill="param(fill) #000" stroke="param(outline) #000" stroke-width="param(outline-width) 1" d="M106.977 86.046c-0.118-0.003-0.258-0.004-0.397-0.004-3.829 0-7.406 1.078-10.445 2.947l0.087-0.050c-1.798 1.104-3.975 1.758-6.306 1.758s-4.508-0.654-6.359-1.788l0.053 0.030c-2.952-1.819-6.53-2.897-10.359-2.897-0.14 0-0.28 0.001-0.42 0.004l0.021-0c-0.118-0.003-0.258-0.004-0.398-0.004-3.827 0-7.403 1.078-10.44 2.947l0.086-0.050c-1.678 1.105-3.736 1.763-5.948 1.763-0.123 0-0.246-0.002-0.368-0.006l0.018 0c-0.104 0.004-0.227 0.006-0.35 0.006-2.212 0-4.271-0.658-5.991-1.789l0.041 0.025c-2.952-1.819-6.529-2.897-10.358-2.897-0.14 0-0.279 0.001-0.418 0.004l0.021-0c-0.118-0.003-0.257-0.004-0.396-0.004-3.829 0-7.406 1.078-10.444 2.947l0.087-0.050c-1.678 1.105-3.736 1.763-5.948 1.763-0.123 0-0.246-0.002-0.368-0.006l0.018 0c-0.103 0.004-0.225 0.006-0.347 0.006-2.211 0-4.269-0.658-5.987-1.789l0.041 0.025c-2.952-1.819-6.53-2.897-10.359-2.897-0.138 0-0.276 0.001-0.413 0.004l0.021-0c-2.569 0-4.651 2.082-4.651 4.651s2.082 4.651 4.651 4.651v0c0.104-0.004 0.226-0.006 0.348-0.006 2.211 0 4.269 0.658 5.988 1.789l-0.041-0.025c2.952 1.819 6.529 2.897 10.358 2.897 0.137 0 0.275-0.001 0.412-0.004l-0.021 0c0.118 0.003 0.257 0.004 0.396 0.004 3.829 0 7.406-1.078 10.444-2.947l-0.087 0.050c1.678-1.105 3.736-1.763 5.948-1.763 0.123 0 0.246 0.002 0.368 0.006l-0.018-0c0.104-0.004 0.227-0.006 0.35-0.006 2.212 0 4.271 0.658 5.991 1.789l-0.041-0.025c2.952 1.819 6.529 2.897 10.358 2.897 0.14 0 0.279-0.001 0.418-0.004l-0.021 0c0.116 0.002 0.253 0.004 0.39 0.004 3.831 0 7.409-1.078 10.45-2.947l-0.087 0.050c1.796-1.104 3.972-1.758 6.301-1.758s4.505 0.654 6.354 1.788l-0.053-0.030c3.084 1.819 6.795 2.893 10.757 2.893s7.673-1.075 10.857-2.948l-0.1 0.055c1.68-1.105 3.741-1.763 5.955-1.763 0.123 0 0.246 0.002 0.368 0.006l-0.018-0c2.569 0 4.651-2.082 4.651-4.651s-2.082-4.651-4.651-4.651v0z"></path>
<path fill="param(fill) #000" stroke="param(outline) #000" stroke-width="param(outline-width) 1" d="M106.977 67.442c-0.118-0.003-0.258-0.004-0.397-0.004-3.829 0-7.406 1.078-10.445 2.947l0.087-0.050c-1.798 1.104-3.975 1.758-6.306 1.758s-4.508-0.654-6.359-1.788l0.053 0.030c-2.952-1.819-6.53-2.897-10.359-2.897-0.14 0-0.28 0.001-0.42 0.004l0.021-0c-0.118-0.003-0.258-0.004-0.398-0.004-3.827 0-7.403 1.078-10.44 2.947l0.086-0.050c-1.678 1.105-3.736 1.763-5.948 1.763-0.123 0-0.246-0.002-0.368-0.006l0.018 0c-0.104 0.004-0.227 0.006-0.35 0.006-2.212 0-4.271-0.658-5.991-1.789l0.041 0.025c-2.952-1.819-6.529-2.897-10.358-2.897-0.14 0-0.279 0.001-0.418 0.004l0.021-0c-0.118-0.003-0.257-0.004-0.396-0.004-3.829 0-7.406 1.078-10.444 2.947l0.087-0.050c-1.678 1.105-3.736 1.763-5.948 1.763-0.123 0-0.246-0.002-0.368-0.006l0.018 0c-0.103 0.004-0.225 0.006-0.347 0.006-2.211 0-4.269-0.658-5.987-1.789l0.041 0.025c-2.952-1.819-6.53-2.897-10.359-2.897-0.138 0-0.276 0.001-0.413 0.004l0.021-0c-2.569 0-4.651 2.082-4.651 4.651s2.082 4.651 4.651 4.651v0c0.104-0.004 0.226-0.006 0.348-0.006 2.211 0 4.269 0.658 5.988 1.789l-0.041-0.025c2.952 1.819 6.529 2.897 10.358 2.897 0.137 0 0.275-0.001 0.412-0.004l-0.021 0c0.118 0.003 0.257 0.004 0.396 0.004 3.829 0 7.406-1.078 10.444-2.947l-0.087 0.050c1.678-1.105 3.736-1.763 5.948-1.763 0.123 0 0.246 0.002 0.368 0.006l-0.018-0c0.104-0.004 0.227-0.006 0.35-0.006 2.212 0 4.271 0.658 5.991 1.789l-0.041-0.025c2.952 1.819 6.529 2.897 10.358 2.897 0.14 0 0.279-0.001 0.418-0.004l-0.021 0c0.116 0.002 0.253 0.004 0.39 0.004 3.831 0 7.409-1.078 10.45-2.947l-0.087 0.050c1.796-1.104 3.972-1.758 6.301-1.758s4.505 0.654 6.354 1.788l-0.053-0.030c3.084 1.819 6.795 2.893 10.757 2.893s7.673-1.075 10.857-2.948l-0.1 0.055c1.68-1.105 3.741-1.763 5.955-1.763 0.123 0 0.246 0.002 0.368 0.006l-0.018-0c2.569 0 4.651-2.082 4.651-4.651s-2.082-4.651-4.651-4.651v0z"></path>
<path fill="param(fill) #000" stroke="param(outline) #000" stroke-width="param(outline-width) 1" d="M0 0v16.279c0.001 0 0.003 0 0.005 0 10.272 0 18.6 8.327 18.6 18.6 0 0.002 0 0.003 0 0.005v-0 20.93h18.605v-20.93c0-10.275 8.33-18.605 18.605-18.605s18.605 8.33 18.605 18.605v0 20.93h18.605v-20.93c0-0.001 0-0.003 0-0.005 0-10.272 8.327-18.6 18.6-18.6 0.002 0 0.003 0 0.005 0h-0v-16.279z"></path>
</svg>
