
<svg version="1.1" xmlns="http://www.w3.org/2000/svg" width="100" height="100" viewBox="0 0 100 100">
<title>building-closed</title>
<path fill="param(fill) #000" stroke="param(outline) #000" stroke-width="param(outline-width) 1" d="M45.833 8.333h41.667c0.007 0 0.014 0 0.022 0 1.143 0 2.175-0.471 2.915-1.229l0.001-0.001c0.759-0.74 1.229-1.773 1.229-2.915 0-0.008 0-0.015-0-0.023v0.001c-0.007-2.298-1.868-4.16-4.166-4.167h-41.667c-0.006 0-0.014-0-0.022-0-1.142 0-2.175 0.47-2.915 1.228l-0.001 0.001c-0.631 0.61-1.061 1.423-1.185 2.334l-0.002 0.021c1.119 1.347 2.142 2.855 3.011 4.458l0.073 0.146c0.299 0.093 0.643 0.146 1 0.146 0.015 0 0.029-0 0.044-0h-0.002z"></path>
<path fill="param(fill) #000" stroke="param(outline) #000" stroke-width="param(outline-width) 1" d="M20.833 10.417c-3.45 0.004-6.246 2.8-6.25 6.25v0h12.5c-0.004-3.45-2.8-6.246-6.25-6.25h-0z"></path>
<path fill="param(fill) #000" stroke="param(outline) #000" stroke-width="param(outline-width) 1" d="M95.833 12.5h-49.229c0.832 2.481 1.312 5.337 1.312 8.306 0 0.010 0 0.019 0 0.029v-0.001c0 0.011 0 0.023 0 0.036 0 1.458-0.114 2.889-0.332 4.286l0.020-0.155h4.479c1.149 0.003 2.080 0.934 2.083 2.083v16.667c-0.003 1.149-0.934 2.080-2.083 2.083h-8.334c-1.149-0.003-2.080-0.934-2.083-2.083v-5.625c-2.284 2.747-5.052 5.003-8.187 6.658l-0.147 0.071v17.646h66.667v-45.833c-0.007-2.298-1.868-4.16-4.166-4.167h-0.001zM72.917 43.75c-0.003 1.149-0.934 2.080-2.083 2.083h-8.334c-1.149-0.003-2.080-0.934-2.083-2.083v-16.667c0.003-1.149 0.934-2.080 2.083-2.083h8.334c1.149 0.003 2.080 0.934 2.083 2.083v0zM91.667 43.75c-0.003 1.149-0.934 2.080-2.083 2.083h-8.334c-1.149-0.003-2.080-0.934-2.083-2.083v-16.667c0.003-1.149 0.934-2.080 2.083-2.083h8.334c1.149 0.003 2.080 0.934 2.083 2.083v0z"></path>
<path fill="param(fill) #000" stroke="param(outline) #000" stroke-width="param(outline-width) 1" d="M33.333 100h25v-20.833c0.007-2.298 1.868-4.16 4.166-4.167h8.334c2.298 0.007 4.16 1.868 4.167 4.166v20.834h25v-33.333h-66.667z"></path>
<path fill="param(fill) #000" stroke="param(outline) #000" stroke-width="param(outline-width) 1" d="M41.667 20.833c0-11.506-9.327-20.833-20.833-20.833s-20.833 9.327-20.833 20.833c0 11.506 9.327 20.833 20.833 20.833v0c11.504-0.004 20.829-9.329 20.833-20.833v-0zM31.25 29.167c-0 2.301-1.866 4.167-4.167 4.167h-12.5c-2.301-0-4.167-1.866-4.167-4.167v0-12.5c0-5.753 4.664-10.417 10.417-10.417s10.417 4.664 10.417 10.417v0z"></path>
<path fill="param(fill) #000" stroke="param(outline) #000" stroke-width="param(outline-width) 1" d="M18.75 20.833h4.167c1.151 0 2.083 0.933 2.083 2.083v4.167c0 1.151-0.933 2.083-2.083 2.083h-4.167c-1.151 0-2.083-0.933-2.083-2.083v-4.167c0-1.151 0.933-2.083 2.083-2.083z"></path>
</svg>
