
<svg version="1.1" xmlns="http://www.w3.org/2000/svg" width="100" height="100" viewBox="0 0 100 100">
<title>cell-tower</title>
<path fill="param(fill) #000" stroke="param(outline) #000" stroke-width="param(outline-width) 1" d="M79.168 91.667h-9.273l-14.964-55.844c2.074-1.534 3.404-3.971 3.404-6.719 0-4.602-3.731-8.333-8.333-8.333s-8.333 3.731-8.333 8.333c0 2.748 1.33 5.185 3.381 6.703l0.023 0.016-14.964 55.844h-9.273c-2.301 0-4.167 1.866-4.167 4.167s1.866 4.167 4.167 4.167v0h58.334c2.301 0 4.167-1.866 4.167-4.167s-1.866-4.167-4.167-4.167v0zM44.395 62.499h11.211l3.349 12.5h-17.91zM46.070 56.249l3.931-14.669 3.931 14.669zM39.371 81.25h21.26l2.791 10.417h-26.843z"></path>
<path fill="param(fill) #000" stroke="param(outline) #000" stroke-width="param(outline-width) 1" d="M6.25 28.236c0.058-8.914 3.68-16.971 9.51-22.827l-0.001 0.001c0.562-0.573 0.908-1.358 0.908-2.224 0-0.896-0.371-1.704-0.967-2.282l-0.001-0.001c-0.577-0.559-1.364-0.904-2.233-0.904-0.897 0-1.709 0.368-2.291 0.962l-0 0c-6.909 7.004-11.175 16.629-11.175 27.251 0 0.008 0 0.015 0 0.023v-0.001c0.087 10.533 4.328 20.059 11.161 27.035l-0.007-0.007c0.583 0.611 1.403 0.991 2.312 0.991 1.764 0 3.194-1.43 3.194-3.194 0-0.855-0.336-1.631-0.883-2.205l0.001 0.001c-5.769-5.819-9.38-13.784-9.529-22.594l-0-0.028z"></path>
<path fill="param(fill) #000" stroke="param(outline) #000" stroke-width="param(outline-width) 1" d="M25.452 40.576c0.58 0.669 1.43 1.089 2.379 1.089 0.827 0 1.58-0.32 2.141-0.842l-0.002 0.002c0.654-0.612 1.061-1.481 1.061-2.444 0-0.841-0.31-1.609-0.821-2.196l0.003 0.004c-1.895-2.1-3.072-4.879-3.128-7.932l-0-0.011c0.054-3.155 1.3-6.008 3.306-8.138l-0.006 0.006c0.537-0.591 0.867-1.38 0.867-2.246 0-0.938-0.386-1.786-1.009-2.393l-0.001-0.001c-0.564-0.551-1.337-0.891-2.189-0.891-0.924 0-1.755 0.4-2.328 1.036l-0.002 0.003c-3.031 3.32-4.887 7.758-4.887 12.629 0 4.729 1.75 9.049 4.637 12.348l-0.019-0.022z"></path>
<path fill="param(fill) #000" stroke="param(outline) #000" stroke-width="param(outline-width) 1" d="M17.602 46.952c0.531 0.593 1.298 0.964 2.152 0.964 0.789 0 1.503-0.317 2.024-0.829l-0 0c0.575-0.569 0.93-1.358 0.93-2.229 0-0.806-0.304-1.54-0.803-2.096l0.003 0.003c-3.259-3.716-5.248-8.617-5.248-13.982 0-0.194 0.003-0.387 0.008-0.58l-0.001 0.028c-0.004-0.163-0.007-0.355-0.007-0.548 0-5.458 2.061-10.434 5.448-14.193l-0.017 0.019c0.512-0.556 0.826-1.302 0.826-2.121 0-0.858-0.345-1.636-0.904-2.202l0 0c-0.522-0.529-1.248-0.857-2.050-0.857-0.841 0-1.598 0.36-2.124 0.935l-0.002 0.002c-4.599 4.968-7.42 11.64-7.42 18.971 0 7.208 2.727 13.779 7.207 18.738l-0.022-0.024z"></path>
<path fill="param(fill) #000" stroke="param(outline) #000" stroke-width="param(outline-width) 1" d="M88.871 0.963c-0.58-0.597-1.39-0.968-2.287-0.968-1.76 0-3.187 1.427-3.187 3.187 0 0.868 0.347 1.654 0.909 2.229l-0.001-0.001c5.803 5.865 9.401 13.921 9.446 22.817v0.009c-0.162 8.836-3.772 16.798-9.536 22.625l0.003-0.003c-0.55 0.572-0.889 1.351-0.889 2.209 0 1.76 1.427 3.187 3.187 3.187 0.907 0 1.726-0.379 2.307-0.988l0.001-0.001c6.823-6.974 11.067-16.495 11.177-27.008l0-0.021c0-0.010 0-0.022 0-0.034 0-10.61-4.248-20.228-11.137-27.245l0.006 0.006z"></path>
<path fill="param(fill) #000" stroke="param(outline) #000" stroke-width="param(outline-width) 1" d="M72.918 28.245c-0.11 3.090-1.357 5.869-3.332 7.949l0.005-0.005c-0.521 0.579-0.84 1.349-0.84 2.194 0 1.813 1.47 3.284 3.284 3.284 0.969 0 1.84-0.42 2.441-1.087l0.003-0.003c2.911-3.241 4.691-7.548 4.691-12.272 0-0.021 0-0.042-0-0.063v0.003c0.003-0.117 0.004-0.256 0.004-0.395 0-4.719-1.803-9.017-4.758-12.243l0.012 0.014c-0.6-0.638-1.45-1.036-2.393-1.036-1.813 0-3.282 1.469-3.282 3.282 0 0.87 0.338 1.661 0.891 2.248l-0.002-0.002c2.015 2.113 3.26 4.975 3.277 8.129v0.004z"></path>
<path fill="param(fill) #000" stroke="param(outline) #000" stroke-width="param(outline-width) 1" d="M83.335 28.231c0.004 0.153 0.006 0.333 0.006 0.513 0 5.408-2.062 10.335-5.443 14.036l0.015-0.016c-0.517 0.546-0.834 1.286-0.834 2.099 0 1.689 1.369 3.058 3.058 3.058 0.881 0 1.674-0.372 2.232-0.968l0.002-0.002c4.472-4.811 7.217-11.282 7.217-18.394 0-0.115-0.001-0.23-0.002-0.344l0 0.017c0.005-0.188 0.007-0.409 0.007-0.631 0-7.098-2.759-13.551-7.263-18.347l0.013 0.014c-0.558-0.583-1.342-0.946-2.211-0.946-1.688 0-3.057 1.369-3.057 3.057 0 0.829 0.33 1.581 0.866 2.132l-0.001-0.001c3.354 3.653 5.41 8.545 5.41 13.918 0 0.283-0.006 0.564-0.017 0.845l0.001-0.040z"></path>
</svg>
