
<svg version="1.1" xmlns="http://www.w3.org/2000/svg" width="100" height="100" viewBox="0 0 100 100">
<title>child-protection</title>
<path fill="param(fill) #000" stroke="param(outline) #000" stroke-width="param(outline-width) 1" d="M58.333 61.458v-31.636c2.219 1.686 3.757 4.167 4.19 7.013l0.008 0.060c0.222 1.526 1.52 2.686 3.090 2.689h0c0.155-0 0.308-0.011 0.457-0.033l-0.017 0.002c1.529-0.222 2.69-1.523 2.69-3.096 0-0.153-0.011-0.304-0.032-0.452l0.002 0.017c-1.515-8.685-8.997-15.203-18.002-15.203-0.252 0-0.503 0.005-0.753 0.015l0.036-0.001c-0.214-0.009-0.465-0.014-0.717-0.014-9.005 0-16.487 6.518-17.986 15.093l-0.016 0.109c-0.020 0.131-0.031 0.282-0.031 0.436 0 1.726 1.399 3.125 3.125 3.125 1.572 0 2.873-1.161 3.092-2.672l0.002-0.017c0.44-2.905 1.978-5.387 4.17-7.053l0.027-0.020v31.636c0 1.726 1.399 3.125 3.125 3.125s3.125-1.399 3.125-3.125v0-15.625h4.167v15.625c0 1.726 1.399 3.125 3.125 3.125s3.125-1.399 3.125-3.125v0z"></path>
<path fill="param(fill) #000" stroke="param(outline) #000" stroke-width="param(outline-width) 1" d="M58.333 8.333c0 4.602-3.731 8.333-8.333 8.333s-8.333-3.731-8.333-8.333c0-4.602 3.731-8.333 8.333-8.333s8.333 3.731 8.333 8.333z"></path>
<path fill="param(fill) #000" stroke="param(outline) #000" stroke-width="param(outline-width) 1" d="M24.082 53.378c-0.78-0.799-1.868-1.295-3.071-1.295s-2.291 0.496-3.071 1.294l-0.001 0.001c-0.787 0.806-1.272 1.909-1.272 3.125s0.485 2.319 1.273 3.126l-0.001-0.001 7.915 7.601c0.458 0.469 0.741 1.111 0.741 1.82s-0.283 1.351-0.741 1.82l0-0c-0.454 0.465-1.088 0.754-1.789 0.754s-1.334-0.288-1.788-0.753l-0-0-9.776-10.452v-33.333c-0.022-3.443-2.807-6.228-6.248-6.25h-0.002c-3.443 0.022-6.228 2.807-6.25 6.248v36.25c0 0.003 0 0.006 0 0.009 0 1.72 0.688 3.278 1.805 4.416l-0.001-0.001 23.196 23.912v8.333h18.75v-20.833c0.013-0.223 0.021-0.484 0.021-0.746 0-3.647-1.463-6.953-3.835-9.362l0.002 0.002z"></path>
<path fill="param(fill) #000" stroke="param(outline) #000" stroke-width="param(outline-width) 1" d="M93.75 20.833c-3.443 0.022-6.228 2.807-6.25 6.248v33.335l-9.776 10.452c-0.454 0.465-1.088 0.754-1.789 0.754s-1.334-0.288-1.788-0.753l-0-0c-0.458-0.469-0.741-1.111-0.741-1.82s0.283-1.351 0.741-1.82l-0 0 7.915-7.601c0.787-0.806 1.272-1.909 1.272-3.125s-0.485-2.319-1.273-3.126l0.001 0.001c-0.78-0.799-1.868-1.295-3.071-1.295s-2.291 0.496-3.071 1.294l-0.001 0.001-15.856 15.682c-2.37 2.407-3.833 5.713-3.833 9.361 0 0.263 0.008 0.523 0.023 0.782l-0.002-0.036v20.833h18.75v-8.333l23.196-23.912c1.115-1.137 1.804-2.695 1.804-4.415 0-0.003 0-0.006 0-0.009v0-36.248c-0.022-3.443-2.807-6.228-6.248-6.25h-0.002z"></path>
</svg>
