
<svg version="1.1" xmlns="http://www.w3.org/2000/svg" width="71" height="100" viewBox="0 0 71 100">
<title>cold-wave</title>
<path fill="param(fill) #000" stroke="param(outline) #000" stroke-width="param(outline-width) 1" d="M33.333 13.542c0-7.479-6.063-13.542-13.542-13.542s-13.542 6.063-13.542 13.542v0 52.244c-3.847 3.619-6.243 8.742-6.243 14.426 0 10.929 8.859 19.788 19.788 19.788s19.788-8.859 19.788-19.788c0-0.001 0-0.002 0-0.004v0c0-0.010 0-0.022 0-0.034 0-5.673-2.4-10.785-6.239-14.378l-0.011-0.010zM19.792 93.75c-0.002 0-0.005 0-0.008 0-7.475 0-13.534-6.059-13.534-13.534 0-4.265 1.973-8.069 5.055-10.549l0.026-0.020 1.169-0.938v-55.167c0-4.027 3.265-7.292 7.292-7.292s7.292 3.265 7.292 7.292v0 55.167l1.169 0.938c3.109 2.501 5.081 6.305 5.081 10.57 0 7.475-6.059 13.534-13.534 13.534-0.003 0-0.005 0-0.008 0h0z"></path>
<path fill="param(fill) #000" stroke="param(outline) #000" stroke-width="param(outline-width) 1" d="M22.917 72.493v-19.368c0-1.726-1.399-3.125-3.125-3.125s-3.125 1.399-3.125 3.125v0 19.368c-3.080 1.27-5.208 4.249-5.208 7.725 0 4.602 3.731 8.333 8.333 8.333s8.333-3.731 8.333-8.333c0-3.476-2.128-6.455-5.153-7.705l-0.055-0.020z"></path>
<path fill="param(fill) #000" stroke="param(outline) #000" stroke-width="param(outline-width) 1" d="M67.708 20.833h-25c-1.726 0-3.125 1.399-3.125 3.125s1.399 3.125 3.125 3.125v0h25c1.726 0 3.125-1.399 3.125-3.125s-1.399-3.125-3.125-3.125v0z"></path>
</svg>
