
<svg version="1.1" xmlns="http://www.w3.org/2000/svg" width="67" height="100" viewBox="0 0 67 100">
<title>community-building</title>
<path fill="param(fill) #000" stroke="param(outline) #000" stroke-width="param(outline-width) 1" d="M38.563 30.5c-1.131 1.716-3.050 2.833-5.229 2.833s-4.098-1.117-5.215-2.81l-0.014-0.023c-3.145 1.838-5.225 5.196-5.229 9.041v0.001c-0.001 0.023-0.001 0.050-0.001 0.076 0 0.12 0.008 0.238 0.023 0.354l-0.001-0.014c2.457 0.862 4.188 3.162 4.188 5.866 0 0.003 0 0.007 0 0.010v-0c-0 0.663-0.107 1.301-0.304 1.897l0.012-0.043c1.771 1.44 4.055 2.312 6.542 2.312s4.77-0.872 6.561-2.327l-0.019 0.015c-0.185-0.554-0.291-1.192-0.292-1.854v-0c0-0.003 0-0.006 0-0.010 0-2.704 1.73-5.004 4.144-5.852l0.043-0.013c0.014-0.102 0.022-0.22 0.022-0.34 0-0.027-0-0.054-0.001-0.080l0 0.004c-0.005-3.845-2.085-7.203-5.18-9.015l-0.049-0.027z"></path>
<path fill="param(fill) #000" stroke="param(outline) #000" stroke-width="param(outline-width) 1" d="M62.5 12.5h-58.333c-2.298 0.007-4.16 1.868-4.167 4.166v45.834h66.667v-45.833c-0.007-2.298-1.868-4.16-4.166-4.167h-0.001zM45.833 52.083c-1.305-0-2.517-0.397-3.522-1.077l0.022 0.014c-2.445 1.96-5.584 3.146-9 3.146s-6.555-1.186-9.029-3.168l0.029 0.022c-0.979 0.666-2.188 1.063-3.489 1.063-3.454 0-6.255-2.797-6.261-6.249v-0.001c0-0.001 0-0.001 0-0.002 0-2.694 1.709-4.989 4.102-5.859l0.043-0.014c-0.014-0.104-0.022-0.225-0.022-0.347 0-0.024 0-0.049 0.001-0.073l-0 0.004c0-5.825 3.413-10.852 8.349-13.192l0.089-0.038c0.389-3.102 3.011-5.478 6.187-5.478s5.798 2.376 6.184 5.448l0.003 0.031c5.024 2.377 8.438 7.405 8.438 13.229v0c0.001 0.021 0.001 0.045 0.001 0.069 0 0.122-0.008 0.243-0.023 0.361l0.001-0.014c2.437 0.888 4.146 3.185 4.146 5.881 0 3.449-2.796 6.244-6.244 6.244-0.002 0-0.004 0-0.006 0h0z"></path>
<path fill="param(fill) #000" stroke="param(outline) #000" stroke-width="param(outline-width) 1" d="M12.5 8.333h41.667c2.301 0 4.167-1.866 4.167-4.167s-1.866-4.167-4.167-4.167v0h-41.667c-2.301 0-4.167 1.866-4.167 4.167s1.866 4.167 4.167 4.167v0z"></path>
<path fill="param(fill) #000" stroke="param(outline) #000" stroke-width="param(outline-width) 1" d="M0 100h25v-20.833c0.007-2.298 1.868-4.16 4.166-4.167h8.334c2.298 0.007 4.16 1.868 4.167 4.166v20.834h25v-33.333h-66.667z"></path>
</svg>
