
<svg version="1.1" xmlns="http://www.w3.org/2000/svg" width="100" height="100" viewBox="0 0 100 100">
<title>computer</title>
<path fill="param(fill) #000" stroke="param(outline) #000" stroke-width="param(outline-width) 1" d="M8.325 62.435h83.247c2.296-0.007 4.155-1.866 4.162-4.162v-54.111c-0.007-2.296-1.866-4.155-4.162-4.162h-83.248c-2.296 0.007-4.155 1.866-4.162 4.162v54.111c0.007 2.296 1.866 4.155 4.162 4.162h0.001zM12.487 8.325h74.922v45.786h-74.922z"></path>
<path fill="param(fill) #000" stroke="param(outline) #000" stroke-width="param(outline-width) 1" d="M95.214 68.679h-90.531c-2.585 0.004-4.679 2.098-4.683 4.682v21.978c0.013 2.576 2.104 4.66 4.683 4.661h90.531c2.578-0.001 4.669-2.085 4.683-4.66v-21.979c-0.004-2.585-2.098-4.679-4.682-4.683h-0zM40.583 85.328h-29.136c-1.724 0-3.122-1.398-3.122-3.122s1.398-3.122 3.122-3.122v0h29.136c1.724 0 3.122 1.398 3.122 3.122s-1.398 3.122-3.122 3.122v0zM86.369 87.409c-2.874 0-5.203-2.329-5.203-5.203s2.329-5.203 5.203-5.203c2.874 0 5.203 2.329 5.203 5.203v0c-0.001 2.873-2.33 5.202-5.203 5.203h-0z"></path>
</svg>
