
<svg version="1.1" xmlns="http://www.w3.org/2000/svg" width="100" height="100" viewBox="0 0 100 100">
<title>conflict</title>
<path fill="param(fill) #000" stroke="param(outline) #000" stroke-width="param(outline-width) 1" d="M60.417 50c0 5.753-4.664 10.417-10.417 10.417s-10.417-4.664-10.417-10.417c0-5.753 4.664-10.417 10.417-10.417s10.417 4.664 10.417 10.417z"></path>
<path fill="param(fill) #000" stroke="param(outline) #000" stroke-width="param(outline-width) 1" d="M50.001 33.332c3.451 0 6.249-2.798 6.249-6.249v0-20.834c-0.006-3.446-2.802-6.238-6.249-6.238s-6.243 2.791-6.249 6.237v20.835c0 3.451 2.798 6.249 6.249 6.249 0 0 0 0 0 0v0z"></path>
<path fill="param(fill) #000" stroke="param(outline) #000" stroke-width="param(outline-width) 1" d="M37.728 37.728c1.146-1.146 1.855-2.73 1.855-4.479s-0.709-3.332-1.855-4.479l-26.916-26.916c-1.146-1.146-2.73-1.855-4.479-1.855-3.498 0-6.334 2.836-6.334 6.334 0 1.749 0.709 3.332 1.855 4.479l26.916 26.916c1.146 1.146 2.73 1.855 4.479 1.855s3.332-0.709 4.479-1.855v0z"></path>
<path fill="param(fill) #000" stroke="param(outline) #000" stroke-width="param(outline-width) 1" d="M14.557 43.75h12.552c3.437 0 6.224 2.787 6.224 6.224v0.052c0 3.437-2.787 6.224-6.224 6.224h-12.552c-3.437 0-6.224-2.787-6.224-6.224v-0.052c0-3.437 2.787-6.224 6.224-6.224z"></path>
<path fill="param(fill) #000" stroke="param(outline) #000" stroke-width="param(outline-width) 1" d="M29.34 62.174l-19.249 19.249c-1.086 1.086-1.757 2.586-1.757 4.243 0 3.314 2.686 6 6 6 1.657 0 3.157-0.672 4.243-1.757l19.249-19.249c1.086-1.086 1.757-2.586 1.757-4.243 0-3.314-2.686-6-6-6-1.657 0-3.157 0.672-4.243 1.757v0z"></path>
<path fill="param(fill) #000" stroke="param(outline) #000" stroke-width="param(outline-width) 1" d="M49.975 66.667c0 0-0 0-0 0-3.452 0-6.25 2.798-6.25 6.25v20.833c0 3.452 2.798 6.25 6.25 6.25s6.25-2.798 6.25-6.25v0-20.833c0-3.452-2.798-6.25-6.25-6.25v0z"></path>
<path fill="param(fill) #000" stroke="param(outline) #000" stroke-width="param(outline-width) 1" d="M70.746 62.261c-1.086-1.086-2.586-1.757-4.243-1.757-3.314 0-6 2.686-6 6 0 1.657 0.672 3.157 1.757 4.243l10.742 10.742c1.086 1.086 2.586 1.757 4.243 1.757 3.314 0 6-2.686 6-6 0-1.657-0.672-3.157-1.757-4.243v0z"></path>
<path fill="param(fill) #000" stroke="param(outline) #000" stroke-width="param(outline-width) 1" d="M93.35 43.75h-20.034c-0.060-0.002-0.13-0.003-0.201-0.003-3.488 0-6.329 2.767-6.448 6.226l-0 0.011v0c0.119 3.47 2.961 6.237 6.448 6.237 0.071 0 0.141-0.001 0.212-0.003l-0.010 0h20.034c0.060 0.002 0.131 0.003 0.201 0.003 3.488 0 6.329-2.767 6.448-6.226l0-0.011v-0c-0.119-3.47-2.961-6.237-6.448-6.237-0.071 0-0.141 0.001-0.212 0.003l0.010-0z"></path>
<path fill="param(fill) #000" stroke="param(outline) #000" stroke-width="param(outline-width) 1" d="M70.477 37.826l6.932-6.749c1.086-1.086 1.757-2.586 1.757-4.243 0-3.314-2.686-6-6-6-1.657 0-3.157 0.672-4.243 1.757l-6.749 6.749c-1.086 1.086-1.757 2.586-1.757 4.243s0.672 3.157 1.757 4.243v0c1.052 1.084 2.523 1.757 4.151 1.757s3.099-0.673 4.15-1.756l0.001-0.001z"></path>
</svg>
