
<svg version="1.1" xmlns="http://www.w3.org/2000/svg" width="100" height="100" viewBox="0 0 100 100">
<title>damaged-affected</title>
<path fill="param(fill) #000" stroke="param(outline) #000" stroke-width="param(outline-width) 1" d="M50 0c-27.614 0-50 22.386-50 50s22.386 50 50 50c27.614 0 50-22.386 50-50v0c-0.001-27.614-22.386-49.999-50-50v0zM50 88.636c-3.766 0-6.818-3.053-6.818-6.818s3.053-6.818 6.818-6.818c3.766 0 6.818 3.053 6.818 6.818v0c0 0.003 0 0.006 0 0.009 0 3.761-3.049 6.809-6.809 6.809-0.003 0-0.006 0-0.009 0h0zM56.818 59.091c0 3.766-3.053 6.818-6.818 6.818s-6.818-3.053-6.818-6.818v0-40.909c0-3.766 3.053-6.818 6.818-6.818s6.818 3.053 6.818 6.818v0z"></path>
</svg>
