
<svg version="1.1" xmlns="http://www.w3.org/2000/svg" width="90" height="100" viewBox="0 0 90 100">
<title>dangerous-area</title>
<path fill="param(fill) #000" stroke="param(outline) #000" stroke-width="param(outline-width) 1" d="M22.918 50h6.25v4.167c0.007 2.298 1.868 4.16 4.166 4.167h20.834c2.298-0.007 4.16-1.868 4.167-4.166v-4.167h6.25c0.002 0 0.005 0 0.007 0 3.448 0 6.243-2.795 6.243-6.243 0-3.172-2.365-5.791-5.427-6.191l-0.031-0.003c2.122-3.596 3.375-7.924 3.375-12.544 0-13.807-11.193-25-25-25s-25 11.193-25 25c0 4.62 1.253 8.948 3.439 12.661l-0.064-0.117c-1.428 0.179-2.679 0.822-3.625 1.77l-0 0c-1.133 1.131-1.833 2.694-1.833 4.421 0 3.45 2.797 6.246 6.246 6.246 0.001 0 0.003 0 0.004 0h-0zM41.668 39.583v4.167c0 1.151-0.933 2.083-2.083 2.083s-2.083-0.933-2.083-2.083v0-4.167c0-1.151 0.933-2.083 2.083-2.083s2.083 0.933 2.083 2.083v0zM45.835 39.583c0-1.151 0.933-2.083 2.083-2.083s2.083 0.933 2.083 2.083v0 4.167c0 1.151-0.933 2.083-2.083 2.083s-2.083-0.933-2.083-2.083v0zM55.21 20.833c2.876 0 5.208 2.332 5.208 5.208s-2.332 5.208-5.208 5.208c-2.876 0-5.208-2.332-5.208-5.208v0c0.001-2.876 2.332-5.207 5.208-5.208h0zM32.293 20.833c2.876 0 5.208 2.332 5.208 5.208s-2.332 5.208-5.208 5.208c-2.876 0-5.208-2.332-5.208-5.208v0c0.001-2.876 2.332-5.207 5.208-5.208h0z"></path>
<path fill="param(fill) #000" stroke="param(outline) #000" stroke-width="param(outline-width) 1" d="M85.672 62.655l-2.325-0.582 1.263-1.998c0.506-0.789 0.807-1.752 0.807-2.785 0-2.876-2.332-5.208-5.208-5.208-1.843 0-3.462 0.957-4.388 2.402l-0.013 0.021-4.281 6.764-27.777 11.646-27.275-11.423-2.213-6.002c-0.752-2.012-2.657-3.418-4.891-3.418-2.876 0-5.208 2.332-5.208 5.208 0 0.65 0.119 1.273 0.337 1.847l-0.012-0.036 1.109 3.011-2.004 0.653c-2.104 0.701-3.593 2.653-3.593 4.952 0 2.877 2.332 5.209 5.209 5.209 0.577 0 1.133-0.094 1.652-0.267l-0.037 0.011 5.245-1.711 17.098 7.176-8.909 3.787-4.387-2.194c-0.679-0.347-1.48-0.55-2.329-0.55-2.876 0-5.207 2.331-5.207 5.207 0 2.027 1.158 3.783 2.848 4.643l0.030 0.014 2.462 1.233-0.954 2.899c-0.167 0.489-0.264 1.052-0.264 1.637 0 2.877 2.332 5.209 5.209 5.209 2.298 0 4.249-1.488 4.94-3.554l0.011-0.037 1.603-4.872 19.505-8.214 19.51 8.216 1.614 4.878c0.71 2.088 2.653 3.564 4.941 3.564 2.876 0 5.207-2.331 5.207-5.207 0-0.582-0.096-1.142-0.272-1.665l0.011 0.037-0.952-2.881 2.49-1.235c1.728-0.872 2.893-2.632 2.893-4.665 0-2.876-2.332-5.208-5.208-5.208-0.844 0-1.64 0.201-2.345 0.557l0.030-0.014-4.445 2.206-8.865-3.791 17.248-7.257 7.559 1.892c0.381 0.101 0.818 0.159 1.269 0.159 0 0 0 0 0 0v0c2.875-0.003 5.203-2.334 5.203-5.209 0-2.427-1.66-4.466-3.906-5.045l-0.036-0.008z"></path>
</svg>
