
<svg version="1.1" xmlns="http://www.w3.org/2000/svg" width="75" height="100" viewBox="0 0 75 100">
<title>data</title>
<path fill="param(fill) #000" stroke="param(outline) #000" stroke-width="param(outline-width) 1" d="M68.75 0h-62.5c-3.452 0-6.25 2.798-6.25 6.25v0 87.5c0 3.452 2.798 6.25 6.25 6.25v0h62.5c3.452 0 6.25-2.798 6.25-6.25v0-87.5c0-3.452-2.798-6.25-6.25-6.25v0zM66.667 91.667h-58.333v-83.333h58.333z"></path>
<path fill="param(fill) #000" stroke="param(outline) #000" stroke-width="param(outline-width) 1" d="M47.001 28.251l0.916-0.916v15.373c0 1.726 1.399 3.125 3.125 3.125s3.125-1.399 3.125-3.125v0-22.917c0-0 0-0 0-0 0-1.726-1.399-3.125-3.125-3.125-0.863 0-1.644 0.35-2.21 0.915l-6.25 6.25c-0.565 0.565-0.915 1.347-0.915 2.209 0 1.726 1.399 3.125 3.125 3.125 0.863 0 1.644-0.35 2.209-0.915v0z"></path>
<path fill="param(fill) #000" stroke="param(outline) #000" stroke-width="param(outline-width) 1" d="M29.321 54.405c-0.354-0.151-0.765-0.239-1.197-0.239-0.863 0-1.644 0.35-2.208 0.917l-6.25 6.25c-0.565 0.565-0.915 1.347-0.915 2.209 0 1.726 1.399 3.125 3.125 3.125 0.863 0 1.644-0.35 2.209-0.915l0.916-0.916v15.373c0 1.726 1.399 3.125 3.125 3.125s3.125-1.399 3.125-3.125v0-22.917c-0-1.294-0.787-2.405-1.908-2.879l-0.021-0.008z"></path>
<path fill="param(fill) #000" stroke="param(outline) #000" stroke-width="param(outline-width) 1" d="M45.833 83.333h6.25c3.452 0 6.25-2.798 6.25-6.25v0-16.667c0-3.452-2.798-6.25-6.25-6.25v0h-6.25c-3.452 0-6.25 2.798-6.25 6.25v0 16.667c0 3.452 2.798 6.25 6.25 6.25v0zM45.833 60.417h6.25v16.667h-6.25z"></path>
<path fill="param(fill) #000" stroke="param(outline) #000" stroke-width="param(outline-width) 1" d="M22.917 45.833h6.25c3.452 0 6.25-2.798 6.25-6.25v0-16.667c0-3.452-2.798-6.25-6.25-6.25v0h-6.25c-3.452 0-6.25 2.798-6.25 6.25v0 16.667c0 3.452 2.798 6.25 6.25 6.25v0zM22.917 22.917h6.25v16.667h-6.25z"></path>
</svg>
