
<svg version="1.1" xmlns="http://www.w3.org/2000/svg" width="63" height="100" viewBox="0 0 63 100">
<title>detergent</title>
<path fill="param(fill) #000" stroke="param(outline) #000" stroke-width="param(outline-width) 1" d="M29.167 25h-12.5c-0.001 0-0.003 0-0.005 0-9.202 0-16.662 7.46-16.662 16.662 0 0.002 0 0.003 0 0.005v-0 54.167c0.007 2.298 1.868 4.16 4.166 4.167h54.167c2.298-0.007 4.16-1.868 4.167-4.166v-37.501c0-0.003 0-0.006 0-0.009 0-18.404-14.92-33.324-33.324-33.324-0.003 0-0.007 0-0.010 0h0.001zM54.167 71.875c0 2.876-2.332 5.208-5.208 5.208s-5.208-2.332-5.208-5.208v0-18.75c0-2.876 2.332-5.208 5.208-5.208s5.208 2.332 5.208 5.208v0z"></path>
<path fill="param(fill) #000" stroke="param(outline) #000" stroke-width="param(outline-width) 1" d="M9.375 20.833h25c1.726 0 3.125-1.399 3.125-3.125s-1.399-3.125-3.125-3.125v0h-1.042v-10.417c0-2.301-1.866-4.167-4.167-4.167v0h-14.583c-2.301 0-4.167 1.866-4.167 4.167v0 10.417h-1.042c-1.726 0-3.125 1.399-3.125 3.125s1.399 3.125 3.125 3.125v0z"></path>
</svg>
