
<svg version="1.1" xmlns="http://www.w3.org/2000/svg" width="100" height="100" viewBox="0 0 100 100">
<title>diplomatic-mission</title>
<path fill="param(fill) #000" stroke="param(outline) #000" stroke-width="param(outline-width) 1" d="M77.083 16.667v-1.042c0-1.726-1.399-3.125-3.125-3.125s-3.125 1.399-3.125 3.125v0 84.375h6.25v-66.667h22.917v-16.667z"></path>
<path fill="param(fill) #000" stroke="param(outline) #000" stroke-width="param(outline-width) 1" d="M62.5 12.5h-58.333c-2.301 0-4.167 1.866-4.167 4.167v0 45.833h66.667v-45.833c-0-2.301-1.866-4.167-4.167-4.167v0z"></path>
<path fill="param(fill) #000" stroke="param(outline) #000" stroke-width="param(outline-width) 1" d="M12.5 8.333h41.667c2.301 0 4.167-1.866 4.167-4.167s-1.866-4.167-4.167-4.167v0h-41.667c-2.301 0-4.167 1.866-4.167 4.167s1.866 4.167 4.167 4.167v0z"></path>
<path fill="param(fill) #000" stroke="param(outline) #000" stroke-width="param(outline-width) 1" d="M0 100h25v-20.833c0.007-2.298 1.868-4.16 4.166-4.167h8.334c2.298 0.007 4.16 1.868 4.167 4.166v20.834h25v-33.333h-66.667z"></path>
</svg>
