
<svg version="1.1" xmlns="http://www.w3.org/2000/svg" width="107" height="100" viewBox="0 0 107 100">
<title>early-recovery</title>
<path fill="param(fill) #000" stroke="param(outline) #000" stroke-width="param(outline-width) 1" d="M50.513 37.778l-5.489 5.489 11.711 11.711 6.689-6.689-11.711-11.711-1.2 1.2z"></path>
<path fill="param(fill) #000" stroke="param(outline) #000" stroke-width="param(outline-width) 1" d="M1.302 86.984c-0.804 0.804-1.302 1.915-1.302 3.143s0.497 2.338 1.302 3.143l5.429 5.429c0.804 0.804 1.915 1.302 3.143 1.302s2.338-0.498 3.143-1.302l40.367-40.367-11.714-11.714z"></path>
<path fill="param(fill) #000" stroke="param(outline) #000" stroke-width="param(outline-width) 1" d="M105.269 36.578l-8.4-8.356c-0.428-0.422-1.017-0.683-1.667-0.683s-1.238 0.261-1.667 0.683l-3.355 3.355-5.022-5.022 3.111-3.111c0.416-0.423 0.672-1.004 0.672-1.644 0-0.652-0.266-1.241-0.694-1.667l-12.445-12.445c-4.724-4.736-11.251-7.671-18.463-7.689h-0.003c-0.041-0-0.090-0-0.139-0-6.23 0-11.943 2.215-16.393 5.901l0.043-0.034c-0.532 0.434-0.87 1.090-0.87 1.825 0 0.662 0.273 1.259 0.713 1.686l15.023 15.023c0.684 0.595 1.206 1.36 1.5 2.231l0.011 0.036c0.103 0.441 0.163 0.948 0.163 1.469 0 1.655-0.599 3.171-1.593 4.341l0.008-0.010-0.756 0.756 4.556 4.556 7.178 7.156 5-5 5.022 5-3.356 3.378c-0.432 0.424-0.7 1.014-0.7 1.667s0.268 1.243 0.7 1.666l0 0 8.378 8.356c0.86 0.855 2.046 1.383 3.356 1.383s2.495-0.529 3.356-1.384l16.733-16.733c0.855-0.856 1.383-2.039 1.383-3.344s-0.529-2.488-1.383-3.345l0 0z"></path>
</svg>
