
<svg version="1.1" xmlns="http://www.w3.org/2000/svg" width="96" height="100" viewBox="0 0 96 100">
<title>email</title>
<path fill="param(fill) #000" stroke="param(outline) #000" stroke-width="param(outline-width) 1" d="M89.885 21.374h-83.969c-2.099 0-3.817 1.718-3.817 3.817v49.618c0 2.099 1.718 3.817 3.817 3.817h83.969c2.099 0 3.817-1.718 3.817-3.817v-49.618c0-2.099-1.718-3.817-3.817-3.817zM27.481 60.496l-13.359 11.45c-1.527 1.336-4.008 1.145-5.344-0.382s-1.145-4.008 0.382-5.344l13.359-11.45c1.527-1.336 4.008-1.145 5.344 0.382 1.336 1.718 1.336 4.008-0.382 5.344zM87.023 71.565c-1.336 1.527-3.817 1.718-5.344 0.382l-13.359-11.45c-1.527-1.336-1.718-3.817-0.382-5.344s3.817-1.718 5.344-0.382l13.359 11.45c1.718 1.336 1.908 3.817 0.382 5.344 0 0 0 0 0 0zM86.45 33.969l-36.26 26.718c-1.336 0.954-3.244 0.954-4.58 0l-36.26-26.718c-1.718-1.145-2.099-3.626-0.763-5.344s3.626-2.099 5.344-0.763c0 0 0 0 0 0l33.969 25 33.969-25c1.718-1.336 4.008-0.954 5.344 0.763s0.954 4.198-0.763 5.344c0 0 0 0 0 0z"></path>
</svg>
