
<svg version="1.1" xmlns="http://www.w3.org/2000/svg" width="80" height="100" viewBox="0 0 80 100">
<title>emergency-telecommunications</title>
<path fill="param(fill) #000" stroke="param(outline) #000" stroke-width="param(outline-width) 1" d="M66.685 91.105h-22.237l0.001-63.376c0-0.039-0.011-0.075-0.012-0.114 2.684-1.565 4.459-4.43 4.459-7.709 0-4.912-3.982-8.895-8.895-8.895s-8.895 3.982-8.895 8.895c0 3.28 1.775 6.145 4.417 7.687l0.042 0.023c-0.001 0.039-0.011 0.074-0.011 0.113l-0.001 63.376h-22.236c-2.456 0-4.447 1.991-4.447 4.447s1.991 4.447 4.447 4.447v0h53.367c2.456 0 4.447-1.991 4.447-4.447s-1.991-4.447-4.447-4.447v0z"></path>
<path fill="param(fill) #000" stroke="param(outline) #000" stroke-width="param(outline-width) 1" d="M54.924 34.817c1.239 1.355 4.075 0.736 5.656-1.734 2.407-3.716 3.838-8.258 3.838-13.134s-1.431-9.419-3.896-13.23l0.058 0.096c-1.581-2.471-4.417-3.089-5.656-1.734-0.533 0.732-0.853 1.649-0.853 2.64 0 1.013 0.334 1.948 0.897 2.702l-0.008-0.012c1.748 2.698 2.787 5.996 2.787 9.538s-1.039 6.84-2.829 9.607l0.042-0.069c-0.555 0.742-0.889 1.677-0.889 2.69 0 0.992 0.32 1.908 0.862 2.653l-0.009-0.013z"></path>
<path fill="param(fill) #000" stroke="param(outline) #000" stroke-width="param(outline-width) 1" d="M74.256 2.119c-1.598-2.218-4.289-2.723-5.545-1.381-0.532 0.703-0.853 1.593-0.853 2.557 0 1.039 0.372 1.991 0.989 2.73l-0.005-0.007c2.807 3.863 4.491 8.7 4.491 13.931s-1.684 10.068-4.539 14l0.048-0.069c-0.612 0.733-0.984 1.684-0.984 2.723 0 0.964 0.32 1.854 0.861 2.568l-0.008-0.011c1.256 1.341 3.948 0.836 5.545-1.381 3.593-4.944 5.748-11.135 5.748-17.83s-2.155-12.886-5.809-17.918l0.061 0.088z"></path>
<path fill="param(fill) #000" stroke="param(outline) #000" stroke-width="param(outline-width) 1" d="M24.857 34.817c0.533-0.732 0.852-1.649 0.852-2.64 0-1.013-0.334-1.948-0.897-2.702l0.008 0.012c-1.748-2.698-2.787-5.997-2.787-9.538s1.039-6.84 2.829-9.607l-0.042 0.069c0.555-0.742 0.889-1.677 0.889-2.69 0-0.992-0.32-1.908-0.861-2.653l0.009 0.013c-1.239-1.356-4.075-0.737-5.656 1.734-2.407 3.716-3.838 8.258-3.838 13.134s1.431 9.419 3.896 13.23l-0.058-0.096c1.581 2.47 4.417 3.089 5.656 1.734z"></path>
<path fill="param(fill) #000" stroke="param(outline) #000" stroke-width="param(outline-width) 1" d="M11.293 39.16c0.533-0.703 0.853-1.593 0.853-2.557 0-1.039-0.372-1.991-0.99-2.73l0.005 0.007c-2.807-3.863-4.491-8.7-4.491-13.931s1.684-10.068 4.539-14l-0.048 0.069c0.612-0.733 0.984-1.684 0.984-2.723 0-0.964-0.321-1.854-0.861-2.568l0.008 0.011c-1.256-1.341-3.947-0.836-5.545 1.381-3.593 4.944-5.748 11.135-5.748 17.83s2.155 12.886 5.809 17.918l-0.061-0.088c1.598 2.217 4.289 2.722 5.545 1.381z"></path>
</svg>
