
<svg version="1.1" xmlns="http://www.w3.org/2000/svg" width="100" height="100" viewBox="0 0 100 100">
<title>exit-cancel</title>
<path fill="param(fill) #000" stroke="param(outline) #000" stroke-width="param(outline-width) 1" d="M62.299 50l35.155-35.155c1.568-1.573 2.538-3.743 2.538-6.14 0-4.803-3.893-8.696-8.696-8.696-2.397 0-4.567 0.97-6.14 2.538l-35.155 35.155-35.155-35.155c-1.573-1.568-3.743-2.538-6.14-2.538-4.803 0-8.696 3.893-8.696 8.696 0 2.397 0.97 4.567 2.538 6.14l35.155 35.155-35.155 35.155c-1.568 1.573-2.538 3.743-2.538 6.14 0 4.803 3.893 8.696 8.696 8.696 2.397 0 4.567-0.97 6.14-2.538l35.155-35.155 35.155 35.155c1.573 1.568 3.743 2.538 6.14 2.538 4.803 0 8.696-3.893 8.696-8.696 0-2.397-0.97-4.567-2.538-6.14l0 0z"></path>
</svg>
