
<svg version="1.1" xmlns="http://www.w3.org/2000/svg" width="91" height="100" viewBox="0 0 91 100">
<title>famine</title>
<path fill="param(fill) #000" stroke="param(outline) #000" stroke-width="param(outline-width) 1" d="M20.833 0c-11.506 0-20.833 9.327-20.833 20.833s9.327 20.833 20.833 20.833c11.506 0 20.833-9.327 20.833-20.833v0c0 0 0-0 0-0 0-11.506-9.327-20.833-20.833-20.833 0 0-0 0-0 0v0zM20.833 35.417c-1.151 0-2.083-0.933-2.083-2.083s0.933-2.083 2.083-2.083c1.151 0 2.083 0.933 2.083 2.083v0c0 1.151-0.933 2.083-2.083 2.083v0zM22.917 25c0 1.151-0.933 2.083-2.083 2.083s-2.083-0.933-2.083-2.083v0-16.667c0-1.151 0.933-2.083 2.083-2.083s2.083 0.933 2.083 2.083v0z"></path>
<path fill="param(fill) #000" stroke="param(outline) #000" stroke-width="param(outline-width) 1" d="M61.754 42.371l2.079 0.557 1.671-6.236c0.233-0.835 0.367-1.794 0.367-2.785 0-4.952-3.346-9.123-7.9-10.376l-0.076-0.018-2.079-0.557-1.671 6.236c-0.233 0.835-0.367 1.795-0.367 2.785 0 4.952 3.346 9.123 7.9 10.376l0.075 0.018z"></path>
<path fill="param(fill) #000" stroke="param(outline) #000" stroke-width="param(outline-width) 1" d="M56.742 61.080l2.079 0.557 1.671-6.236c0.233-0.835 0.367-1.795 0.367-2.785 0-4.952-3.346-9.123-7.9-10.376l-0.076-0.018-2.079-0.557-1.671 6.236c-0.233 0.835-0.367 1.794-0.367 2.785 0 4.952 3.346 9.123 7.9 10.376l0.076 0.018z"></path>
<path fill="param(fill) #000" stroke="param(outline) #000" stroke-width="param(outline-width) 1" d="M53.807 80.345l1.671-6.236c0.233-0.835 0.367-1.795 0.367-2.785 0-4.952-3.346-9.123-7.9-10.376l-0.076-0.018-2.079-0.557-1.671 6.236c-0.233 0.835-0.367 1.794-0.367 2.785 0 4.952 3.346 9.123 7.9 10.376l0.076 0.018z"></path>
<path fill="param(fill) #000" stroke="param(outline) #000" stroke-width="param(outline-width) 1" d="M71.74 38.363l-1.671 6.236 2.078 0.557c0.835 0.233 1.794 0.367 2.785 0.367 4.952 0 9.124-3.346 10.376-7.9l0.018-0.076 1.671-6.236-2.079-0.557c-0.835-0.233-1.795-0.367-2.785-0.367-4.952 0-9.123 3.345-10.376 7.9l-0.018 0.076z"></path>
<path fill="param(fill) #000" stroke="param(outline) #000" stroke-width="param(outline-width) 1" d="M66.727 57.072l-1.671 6.236 2.079 0.557c0.835 0.233 1.795 0.367 2.785 0.367 4.952 0 9.123-3.345 10.376-7.9l0.018-0.076 1.671-6.236-2.078-0.557c-0.835-0.233-1.795-0.367-2.785-0.367-4.952 0-9.123 3.346-10.376 7.9l-0.018 0.076z"></path>
<path fill="param(fill) #000" stroke="param(outline) #000" stroke-width="param(outline-width) 1" d="M61.714 75.78l-1.671 6.236 2.079 0.557c0.835 0.233 1.794 0.367 2.785 0.367 4.952 0 9.123-3.346 10.376-7.9l0.018-0.076 1.671-6.236-2.079-0.557c-0.835-0.233-1.795-0.367-2.785-0.367-4.952 0-9.123 3.346-10.376 7.9l-0.018 0.075z"></path>
<path fill="param(fill) #000" stroke="param(outline) #000" stroke-width="param(outline-width) 1" d="M49.63 95.936c-0.069 0.249-0.109 0.535-0.109 0.83 0 1.783 1.445 3.228 3.228 3.228 1.484 0 2.734-1.001 3.111-2.365l0.005-0.023 3.063-11.433-6.236-1.671z"></path>
<path fill="param(fill) #000" stroke="param(outline) #000" stroke-width="param(outline-width) 1" d="M60.049 19.635c0.251 0.070 0.538 0.11 0.836 0.11 1.486 0 2.737-1.004 3.113-2.37l0.005-0.023 2.228-8.315c0.072-0.254 0.113-0.545 0.113-0.846 0-1.783-1.445-3.228-3.228-3.228-1.49 0-2.744 1.009-3.116 2.381l-0.005 0.023-2.228 8.315c-0.070 0.251-0.11 0.538-0.11 0.835 0 1.486 1.004 2.737 2.37 3.113l0.023 0.005z"></path>
<path fill="param(fill) #000" stroke="param(outline) #000" stroke-width="param(outline-width) 1" d="M88.892 11.768c-0.251-0.070-0.538-0.11-0.836-0.11-1.486 0-2.737 1.004-3.113 2.37l-0.005 0.023-2.228 8.315c-0.070 0.251-0.11 0.538-0.11 0.835 0 1.783 1.445 3.228 3.228 3.228 1.486 0 2.737-1.004 3.113-2.37l0.005-0.023 2.228-8.315c0.070-0.251 0.11-0.538 0.11-0.835 0-1.486-1.004-2.737-2.37-3.113l-0.023-0.005z"></path>
<path fill="param(fill) #000" stroke="param(outline) #000" stroke-width="param(outline-width) 1" d="M70.85 29.213c0.251 0.070 0.538 0.11 0.836 0.11 1.486 0 2.737-1.004 3.113-2.37l0.005-0.023 6.127-22.866c0.071-0.252 0.112-0.542 0.112-0.842 0-1.783-1.445-3.228-3.228-3.228-1.488 0-2.741 1.007-3.114 2.376l-0.005 0.023-6.127 22.866c-0.070 0.25-0.11 0.538-0.11 0.835 0 1.486 1.004 2.737 2.37 3.113l0.023 0.005z"></path>
</svg>
