
<svg version="1.1" xmlns="http://www.w3.org/2000/svg" width="71" height="100" viewBox="0 0 71 100">
<title>fire</title>
<path fill="param(fill) #000" stroke="param(outline) #000" stroke-width="param(outline-width) 1" d="M36.312 0.438c-0.21-0.267-0.533-0.438-0.896-0.438s-0.686 0.17-0.894 0.435l-0.002 0.002c-5.5 6.917-34.521 46.354-34.521 64.083 0 19.56 15.857 35.417 35.417 35.417s35.417-15.857 35.417-35.417v0c0-17.729-29.021-57.167-34.521-64.083zM35.417 89.583c-0.009 0-0.020 0-0.031 0-9.177 0-16.618-7.43-16.636-16.602v-0.002c0-8.292 13.646-25.792 16.25-29.021 0.098-0.124 0.248-0.203 0.417-0.203s0.319 0.079 0.416 0.202l0.001 0.001c2.583 3.229 16.25 20.729 16.25 29.021-0.018 9.174-7.459 16.604-16.635 16.604-0.011 0-0.022 0-0.033 0h0.002z"></path>
</svg>
