
<svg version="1.1" xmlns="http://www.w3.org/2000/svg" width="100" height="100" viewBox="0 0 100 100">
<title>flash-flood</title>
<path fill="param(fill) #000" stroke="param(outline) #000" stroke-width="param(outline-width) 1" d="M3.125 18.75h23.706l-7.166 7.166c-0.565 0.565-0.915 1.347-0.915 2.209 0 1.726 1.399 3.125 3.125 3.125 0.863 0 1.644-0.35 2.209-0.915l12.5-12.5c0.566-0.565 0.916-1.347 0.916-2.209s-0.35-1.644-0.916-2.209l-12.5-12.5c-0.565-0.565-1.347-0.915-2.209-0.915-1.726 0-3.125 1.399-3.125 3.125 0 0.863 0.35 1.644 0.915 2.209l7.166 7.166h-23.706c-1.726 0-3.125 1.399-3.125 3.125s1.399 3.125 3.125 3.125v0z"></path>
<path fill="param(fill) #000" stroke="param(outline) #000" stroke-width="param(outline-width) 1" d="M99.625 25l-30.542-24.875c-0.089-0.078-0.205-0.125-0.333-0.125s-0.245 0.047-0.334 0.125l0.001-0-30.542 24.875c-0.222 0.195-0.364 0.476-0.375 0.79v36.898c2.571 0.358 4.885 1.203 6.936 2.442l-0.082-0.046c1.495 0.996 3.333 1.589 5.309 1.589 0.119 0 0.237-0.002 0.354-0.006l-0.017 0c0.097 0.004 0.21 0.005 0.324 0.005 1.974 0 3.808-0.593 5.336-1.611l-0.035 0.022c2.653-1.625 5.864-2.587 9.299-2.587 0.122 0 0.244 0.001 0.365 0.004l-0.018-0c0.104-0.002 0.227-0.003 0.349-0.003 3.428 0 6.631 0.962 9.354 2.631l-0.078-0.045c1.612 0.994 3.565 1.583 5.656 1.583s4.045-0.589 5.703-1.61l-0.047 0.027c2.645-1.625 5.848-2.587 9.275-2.587 0.123 0 0.246 0.001 0.368 0.004l-0.018-0c0.042-0 0.091-0 0.14-0 1.426 0 2.816 0.152 4.156 0.441l-0.129-0.023v-37.125c-0.011-0.316-0.153-0.597-0.374-0.791l-0.001-0.001z"></path>
<path fill="param(fill) #000" stroke="param(outline) #000" stroke-width="param(outline-width) 1" d="M95.833 87.5c-0.104-0.002-0.227-0.003-0.35-0.003-3.428 0-6.631 0.962-9.354 2.631l0.078-0.045c-1.612 0.994-3.565 1.583-5.656 1.583s-4.045-0.589-5.703-1.61l0.047 0.027c-2.645-1.625-5.848-2.587-9.275-2.587-0.123 0-0.245 0.001-0.368 0.004l0.018-0c-0.103-0.002-0.225-0.003-0.347-0.003-3.436 0-6.647 0.962-9.378 2.632l0.079-0.045c-1.493 0.996-3.328 1.589-5.301 1.589-0.114 0-0.227-0.002-0.34-0.006l0.016 0c-0.1 0.004-0.219 0.006-0.337 0.006-1.976 0-3.814-0.593-5.344-1.611l0.036 0.022c-2.658-1.625-5.874-2.586-9.316-2.586-0.116 0-0.232 0.001-0.348 0.003l0.017-0c-0.104-0.002-0.226-0.003-0.349-0.003-3.428 0-6.631 0.962-9.354 2.631l0.078-0.045c-1.504 0.996-3.351 1.588-5.336 1.588-0.109 0-0.217-0.002-0.325-0.005l0.016 0c-0.092 0.003-0.201 0.005-0.31 0.005-1.985 0-3.832-0.593-5.372-1.611l0.036 0.023c-2.645-1.625-5.848-2.587-9.275-2.587-0.123 0-0.246 0.001-0.368 0.004l0.018-0c-2.301 0-4.167 1.866-4.167 4.167s1.866 4.167 4.167 4.167v0c0.092-0.003 0.201-0.005 0.31-0.005 1.985 0 3.831 0.593 5.372 1.611l-0.036-0.023c2.645 1.625 5.848 2.587 9.276 2.587 0.123 0 0.246-0.001 0.368-0.004l-0.018 0c0.104 0.002 0.226 0.003 0.349 0.003 3.428 0 6.631-0.962 9.354-2.631l-0.078 0.045c1.504-0.996 3.351-1.588 5.336-1.588 0.109 0 0.217 0.002 0.325 0.005l-0.016-0c0.096-0.003 0.21-0.005 0.324-0.005 1.981 0 3.823 0.593 5.358 1.611l-0.036-0.022c2.653 1.625 5.863 2.587 9.299 2.587 0.122 0 0.243-0.001 0.365-0.004l-0.018 0c0.099 0.002 0.216 0.003 0.333 0.003 3.433 0 6.642-0.962 9.371-2.631l-0.079 0.045c1.608-0.994 3.558-1.583 5.646-1.583s4.038 0.589 5.693 1.61l-0.047-0.027c2.764 1.624 6.088 2.583 9.635 2.583s6.872-0.959 9.726-2.633l-0.091 0.049c1.5-0.996 3.342-1.589 5.322-1.589 0.114 0 0.227 0.002 0.34 0.006l-0.016-0c2.301 0 4.167-1.866 4.167-4.167s-1.866-4.167-4.167-4.167v0z"></path>
<path fill="param(fill) #000" stroke="param(outline) #000" stroke-width="param(outline-width) 1" d="M95.833 70.833c-0.105-0.002-0.229-0.004-0.354-0.004-3.431 0-6.636 0.966-9.359 2.64l0.078-0.044c-1.611 0.989-3.561 1.575-5.649 1.575s-4.038-0.586-5.696-1.602l0.048 0.027c-2.646-1.63-5.851-2.596-9.283-2.596-0.125 0-0.249 0.001-0.373 0.004l0.019-0c-0.105-0.002-0.23-0.004-0.354-0.004-3.429 0-6.633 0.966-9.355 2.64l0.077-0.044c-1.503 0.99-3.347 1.58-5.328 1.58-0.11 0-0.22-0.002-0.329-0.005l0.016 0c-0.093 0.003-0.203 0.005-0.313 0.005-1.982 0-3.826-0.589-5.367-1.603l0.037 0.023c-2.645-1.63-5.851-2.595-9.282-2.595-0.124 0-0.248 0.001-0.372 0.004l0.018-0c-0.105-0.002-0.228-0.004-0.352-0.004-3.431 0-6.636 0.966-9.359 2.64l0.078-0.044c-1.503 0.99-3.347 1.58-5.328 1.58-0.11 0-0.22-0.002-0.329-0.005l0.016 0c-0.093 0.003-0.202 0.005-0.312 0.005-1.98 0-3.823-0.589-5.362-1.601l0.037 0.023c-2.643-1.63-5.847-2.596-9.276-2.596-0.125 0-0.25 0.001-0.374 0.004l0.019-0c-2.301 0-4.167 1.866-4.167 4.167s1.866 4.167 4.167 4.167v0c0.093-0.003 0.202-0.005 0.312-0.005 1.981 0 3.825 0.589 5.364 1.602l-0.037-0.023c2.644 1.63 5.847 2.596 9.277 2.596 0.124 0 0.248-0.001 0.371-0.004l-0.018 0c0.105 0.002 0.228 0.004 0.352 0.004 3.431 0 6.636-0.966 9.359-2.64l-0.078 0.044c1.503-0.99 3.347-1.58 5.328-1.58 0.11 0 0.22 0.002 0.329 0.005l-0.016-0c0.093-0.003 0.203-0.005 0.313-0.005 1.982 0 3.826 0.589 5.367 1.603l-0.037-0.023c2.645 1.63 5.851 2.596 9.282 2.596 0.124 0 0.248-0.001 0.372-0.004l-0.018 0c0.105 0.002 0.229 0.004 0.353 0.004 3.43 0 6.635-0.966 9.358-2.641l-0.077 0.044c1.609-0.988 3.558-1.574 5.644-1.574s4.036 0.586 5.693 1.602l-0.048-0.027c2.763 1.629 6.087 2.592 9.636 2.592s6.874-0.963 9.726-2.641l-0.090 0.049c1.505-0.99 3.351-1.58 5.334-1.58 0.11 0 0.22 0.002 0.329 0.005l-0.016-0c2.301 0 4.167-1.866 4.167-4.167s-1.866-4.167-4.167-4.167v0z"></path>
</svg>
