
<svg version="1.1" xmlns="http://www.w3.org/2000/svg" width="67" height="100" viewBox="0 0 67 100">
<title>flour</title>
<path fill="param(fill) #000" stroke="param(outline) #000" stroke-width="param(outline-width) 1" d="M58.333 14.583h-50c-4.597 0.014-8.319 3.737-8.333 8.332v68.751c0.014 4.597 3.737 8.319 8.332 8.333h50.001c4.597-0.014 8.319-3.737 8.333-8.332v-68.751c-0.014-4.597-3.737-8.319-8.332-8.333h-0.001zM29.167 25c0.007-2.298 1.868-4.16 4.166-4.167h0.001c2.294 0.017 4.15 1.872 4.167 4.165v6.252c0 2.301-1.866 4.167-4.167 4.167s-4.167-1.866-4.167-4.167v0zM18.75 33.333h0.417c5.522 0.001 9.999 4.478 10 10v4.583h-0.417c-5.522-0.001-9.999-4.478-10-10v-0zM18.75 50h0.417c5.522 0.001 9.999 4.478 10 10v4.583h-0.417c-5.522-0.001-9.999-4.478-10-10v-0zM18.75 71.25v-4.583h0.417c5.522 0.001 9.999 4.478 10 10v4.583h-0.417c-5.522-0.001-9.999-4.478-10-10v-0zM37.5 89.583c0 2.301-1.866 4.167-4.167 4.167s-4.167-1.866-4.167-4.167v0-3.125c0-0.003-0-0.007-0-0.010 0-0.57 0.462-1.031 1.031-1.031 0.004 0 0.007 0 0.011 0h6.249c0.003 0 0.007-0 0.010-0 0.57 0 1.031 0.462 1.031 1.031 0 0.004 0 0.007-0 0.011v-0.001zM47.917 71.25c-0.002 5.522-4.478 9.998-10 10h-0.417v-4.583c0.001-5.522 4.478-9.999 10-10h0.417zM47.917 54.583c-0.002 5.522-4.478 9.998-10 10h-0.417v-4.583c0.001-5.522 4.478-9.999 10-10h0.417zM47.917 37.917c-0.002 5.522-4.478 9.998-10 10h-0.417v-4.583c0.001-5.522 4.478-9.999 10-10h0.417z"></path>
<path fill="param(fill) #000" stroke="param(outline) #000" stroke-width="param(outline-width) 1" d="M9.375 10.417h47.917c2.876 0 5.208-2.332 5.208-5.208s-2.332-5.208-5.208-5.208v0h-47.917c-2.876 0-5.208 2.332-5.208 5.208s2.332 5.208 5.208 5.208v0z"></path>
</svg>
