
<svg version="1.1" xmlns="http://www.w3.org/2000/svg" width="92" height="100" viewBox="0 0 92 100">
<title>gas-station</title>
<path fill="param(fill) #000" stroke="param(outline) #000" stroke-width="param(outline-width) 1" d="M48.958 93.75h-45.833c-1.726 0-3.125 1.399-3.125 3.125s1.399 3.125 3.125 3.125v0h45.833c1.726 0 3.125-1.399 3.125-3.125s-1.399-3.125-3.125-3.125v0z"></path>
<path fill="param(fill) #000" stroke="param(outline) #000" stroke-width="param(outline-width) 1" d="M90.432 9.568c-0.75-0.75-1.787-1.215-2.932-1.215s-2.182 0.464-2.932 1.215l-12.5 12.5c-0.75 0.75-1.215 1.787-1.215 2.932 0 0 0 0 0 0v0 53.125c0 1.737-1.408 3.145-3.145 3.145s-3.145-1.408-3.145-3.145v0-21.875c-0.009-8.039-6.524-14.554-14.562-14.563h-0.001v-37.52c-0.007-2.298-1.868-4.16-4.166-4.167h-39.584c-2.298 0.007-4.16 1.868-4.167 4.166v81.251c0.007 2.298 1.868 4.16 4.166 4.167h39.584c2.298-0.007 4.16-1.868 4.167-4.166v-35.438c3.461 0.005 6.266 2.809 6.27 6.27v21.875c0 6.317 5.121 11.438 11.438 11.438s11.438-5.121 11.438-11.438v-44.812h6.27c2.29 0 4.146-1.856 4.146-4.146s-1.856-4.146-4.146-4.146v0h-4.574l9.589-9.589c0.75-0.75 1.215-1.787 1.215-2.932s-0.464-2.182-1.215-2.932v0zM43.75 35.417c-0.004 1.149-0.934 2.080-2.083 2.083h-31.25c-1.149-0.004-2.080-0.934-2.083-2.083v-25c0.004-1.149 0.934-2.080 2.083-2.083h31.25c1.149 0.004 2.080 0.934 2.083 2.083v0z"></path>
</svg>
