
<svg version="1.1" xmlns="http://www.w3.org/2000/svg" width="77" height="100" viewBox="0 0 77 100">
<title>gender-based-violence</title>
<path fill="param(fill) #000" stroke="param(outline) #000" stroke-width="param(outline-width) 1" d="M26.046 14.581c1.726 0 3.125-1.399 3.125-3.125v0-8.331c0-1.726-1.399-3.125-3.125-3.125s-3.125 1.399-3.125 3.125v0 8.331c0 1.726 1.399 3.125 3.125 3.125v0z"></path>
<path fill="param(fill) #000" stroke="param(outline) #000" stroke-width="param(outline-width) 1" d="M11.456 22.907h-8.331c-1.726 0-3.125 1.399-3.125 3.125s1.399 3.125 3.125 3.125v0h8.331c1.726 0 3.125-1.399 3.125-3.125s-1.399-3.125-3.125-3.125v0z"></path>
<path fill="param(fill) #000" stroke="param(outline) #000" stroke-width="param(outline-width) 1" d="M11.582 7.163c-0.566-0.566-1.347-0.915-2.21-0.915-1.726 0-3.125 1.399-3.125 3.125 0 0.863 0.35 1.644 0.915 2.21l6.256 6.256c0.567 0.574 1.354 0.929 2.223 0.929 1.726 0 3.125-1.399 3.125-3.125 0-0.87-0.355-1.656-0.929-2.223l-0-0z"></path>
<path fill="param(fill) #000" stroke="param(outline) #000" stroke-width="param(outline-width) 1" d="M22.917 45.833c0 2.301 1.866 4.167 4.167 4.167s4.167-1.866 4.167-4.167v0c0.002-6.723 4.306-12.441 10.309-14.55l0.108-0.033-8.333 39.542c-0.008 0.064-0.012 0.139-0.012 0.215 0 1.059 0.858 1.917 1.917 1.917 0.056 0 0.111-0.002 0.165-0.007l-0.007 0h4.167v22.917c0 2.301 1.866 4.167 4.167 4.167s4.167-1.866 4.167-4.167v0-75c-14.604 0.896-24.979 11.167-24.979 25z"></path>
<path fill="param(fill) #000" stroke="param(outline) #000" stroke-width="param(outline-width) 1" d="M41.646 8.333c0 0.010-0 0.021-0 0.033 0 3.92 2.611 7.229 6.189 8.285l0.061 0.015v-16.667c-3.639 1.071-6.25 4.38-6.25 8.3 0 0.012 0 0.023 0 0.035v-0.002z"></path>
<path fill="param(fill) #000" stroke="param(outline) #000" stroke-width="param(outline-width) 1" d="M52.104 20.833v75c0 2.301 1.866 4.167 4.167 4.167s4.167-1.866 4.167-4.167v0-64.583c5.001 2.865 8.316 8.171 8.316 14.25 0 0.117-0.001 0.234-0.004 0.35l0-0.017c0 2.301 1.866 4.167 4.167 4.167s4.167-1.866 4.167-4.167v0c0-13.833-10.396-24.104-24.979-25z"></path>
<path fill="param(fill) #000" stroke="param(outline) #000" stroke-width="param(outline-width) 1" d="M58.354 8.333c0-0.010 0-0.021 0-0.033 0-3.92-2.611-7.229-6.189-8.285l-0.061-0.015v16.667c3.639-1.071 6.25-4.38 6.25-8.3 0-0.012 0-0.023-0-0.035v0.002z"></path>
</svg>
