
<svg version="1.1" xmlns="http://www.w3.org/2000/svg" width="58" height="100" viewBox="0 0 58 100">
<title>go</title>
<path fill="param(fill) #000" stroke="param(outline) #000" stroke-width="param(outline-width) 1" d="M8.334 100c-0 0-0 0-0.001 0-4.602 0-8.333-3.731-8.333-8.333 0-2.301 0.933-4.385 2.441-5.893l35.775-35.774-35.775-35.774c-1.503-1.507-2.432-3.587-2.432-5.884 0-4.603 3.731-8.334 8.334-8.334 2.297 0 4.377 0.929 5.885 2.433l41.667 41.667c1.508 1.508 2.441 3.592 2.441 5.893s-0.933 4.385-2.441 5.893l-41.667 41.667c-1.504 1.508-3.585 2.44-5.883 2.44-0.004 0-0.007 0-0.011 0h0.001z"></path>
</svg>
