
<svg version="1.1" xmlns="http://www.w3.org/2000/svg" width="100" height="100" viewBox="0 0 100 100">
<title>harassment-intimidation</title>
<path fill="param(fill) #000" stroke="param(outline) #000" stroke-width="param(outline-width) 1" d="M87.284 60.416h-1.866c-2.301 0-4.167 1.866-4.167 4.167v0 20.289l-9.385-10.558c-0.767-0.86-1.878-1.398-3.114-1.398-1.558 0-2.917 0.855-3.632 2.122l-0.011 0.021-10.417 18.75c-0.338 0.589-0.538 1.295-0.538 2.047 0 2.301 1.866 4.167 4.167 4.167 1.567 0 2.932-0.865 3.644-2.144l0.011-0.021 7.564-13.615 12.763 14.36c0.029 0.032 0.063 0.054 0.093 0.085 0.098 0.1 0.2 0.194 0.307 0.283l0.007 0.005c0.101 0.087 0.199 0.177 0.306 0.252 0.108 0.077 0.225 0.139 0.341 0.206 0.119 0.068 0.235 0.139 0.359 0.195 0.12 0.054 0.246 0.092 0.372 0.134 0.1 0.039 0.231 0.081 0.365 0.116l0.028 0.006c0.125 0.029 0.253 0.042 0.381 0.059 0.123 0.020 0.272 0.036 0.424 0.043l0.010 0c0.042 0.001 0.081 0.012 0.123 0.012h10.417c2.301-0 4.167-1.866 4.167-4.167v0-22.7c0 0 0-0 0-0 0-7.024-5.694-12.717-12.717-12.717-0 0-0 0-0 0v0z"></path>
<path fill="param(fill) #000" stroke="param(outline) #000" stroke-width="param(outline-width) 1" d="M81.251 53.124c0 4.027-3.265 7.292-7.292 7.292s-7.292-3.265-7.292-7.292c0-4.027 3.265-7.292 7.292-7.292s7.292 3.265 7.292 7.292z"></path>
<path fill="param(fill) #000" stroke="param(outline) #000" stroke-width="param(outline-width) 1" d="M27.084 20.832c-15.692 0-27.084 10.514-27.084 25 0 2.301 1.866 4.167 4.167 4.167s4.167-1.866 4.167-4.167v0c-0.002-0.092-0.003-0.2-0.003-0.309 0-5.975 3.339-11.17 8.253-13.821l0.083-0.041v28.971c0 0.060 0.015 0.117 0.018 0.175-0.003 0.060-0.018 0.116-0.018 0.175v34.849c0 2.301 1.866 4.167 4.167 4.167s4.167-1.866 4.167-4.167v0-31.25h4.167v31.25c0 2.301 1.866 4.167 4.167 4.167s4.167-1.866 4.167-4.167v0-34.849c0-0.060-0.015-0.116-0.018-0.175 0.003-0.059 0.018-0.115 0.018-0.175v-28.971c4.997 2.692 8.337 7.887 8.337 13.862 0 0.109-0.001 0.217-0.003 0.325l0-0.016c0 2.301 1.866 4.167 4.167 4.167s4.167-1.866 4.167-4.167v0c0-14.486-11.391-25-27.084-25z"></path>
<path fill="param(fill) #000" stroke="param(outline) #000" stroke-width="param(outline-width) 1" d="M47.917 10.415c0 4.602-3.731 8.333-8.333 8.333s-8.333-3.731-8.333-8.333c0-4.602 3.731-8.333 8.333-8.333s8.333 3.731 8.333 8.333z"></path>
<path fill="param(fill) #000" stroke="param(outline) #000" stroke-width="param(outline-width) 1" d="M68.751 17.707c0 1.726 1.399 3.125 3.125 3.125h8.333c1.726 0 3.125-1.399 3.125-3.125s-1.399-3.125-3.125-3.125v0h-8.333c-1.726 0-3.125 1.399-3.125 3.125v0z"></path>
<path fill="param(fill) #000" stroke="param(outline) #000" stroke-width="param(outline-width) 1" d="M62.145 14.253c0.407 0.208 0.888 0.33 1.397 0.33 1.217 0 2.271-0.695 2.788-1.71l0.008-0.018 4.167-8.333c0.209-0.408 0.332-0.891 0.332-1.402 0-1.726-1.399-3.125-3.125-3.125-1.218 0-2.274 0.697-2.79 1.714l-0.008 0.018-4.167 8.333c-0.208 0.407-0.33 0.888-0.33 1.397 0 1.217 0.695 2.271 1.71 2.788l0.018 0.008z"></path>
<path fill="param(fill) #000" stroke="param(outline) #000" stroke-width="param(outline-width) 1" d="M64.914 33.688c0.524 1.035 1.579 1.732 2.798 1.732 1.726 0 3.125-1.399 3.125-3.125 0-0.511-0.123-0.994-0.34-1.42l0.008 0.018-4.167-8.333c-0.524-1.035-1.579-1.732-2.798-1.732-1.726 0-3.125 1.399-3.125 3.125 0 0.511 0.123 0.994 0.34 1.42l-0.008-0.018z"></path>
</svg>
