
<svg version="1.1" xmlns="http://www.w3.org/2000/svg" width="82" height="100" viewBox="0 0 82 100">
<title>health-facility</title>
<path fill="param(fill) #000" stroke="param(outline) #000" stroke-width="param(outline-width) 1" d="M42.419 0.574c-0.4-0.356-0.929-0.574-1.51-0.574s-1.11 0.218-1.512 0.576l0.002-0.002-38.655 35.113c-0.458 0.417-0.745 1.016-0.745 1.682 0 0 0 0 0 0v0 62.63h81.818v-62.63c0 0 0 0 0 0 0-0.666-0.286-1.265-0.743-1.681l-0.002-0.002zM56.818 65.909h-9.091v9.091c0 3.766-3.053 6.818-6.818 6.818s-6.818-3.053-6.818-6.818v0-9.091h-9.091c-3.766 0-6.818-3.053-6.818-6.818s3.053-6.818 6.818-6.818v0h9.091v-9.091c0-3.766 3.053-6.818 6.818-6.818s6.818 3.053 6.818 6.818v0 9.091h9.091c3.766 0 6.818 3.053 6.818 6.818s-3.053 6.818-6.818 6.818v0z"></path>
</svg>
