
<svg version="1.1" xmlns="http://www.w3.org/2000/svg" width="71" height="100" viewBox="0 0 71 100">
<title>health</title>
<path fill="param(fill) #000" stroke="param(outline) #000" stroke-width="param(outline-width) 1" d="M43.75 6.25c0-3.452-2.798-6.25-6.25-6.25s-6.25 2.798-6.25 6.25v0 6.25h12.5z"></path>
<path fill="param(fill) #000" stroke="param(outline) #000" stroke-width="param(outline-width) 1" d="M31.25 54.167h12.5v-4.167h10.417c9.205 0 16.667-7.462 16.667-16.667s-7.462-16.667-16.667-16.667v0h-29.917c-1.458-1.291-3.387-2.080-5.499-2.083h-10.417c-4.602 0-8.333 3.731-8.333 8.333s3.731 8.333 8.333 8.333v0h10.417c2.113-0.003 4.042-0.792 5.509-2.091l-0.009 0.008h29.917c2.301 0 4.167 1.866 4.167 4.167s-1.866 4.167-4.167 4.167v0h-10.417v-4.167h-12.5v4.167h-6.25c-9.205 0-16.667 7.462-16.667 16.667s7.462 16.667 16.667 16.667v0h20.833c2.301 0 4.167 1.866 4.167 4.167s-1.866 4.167-4.167 4.167v0h-2.083v-4.167h-12.5v4.167h-4.167c-3.452 0-6.25 2.798-6.25 6.25s2.798 6.25 6.25 6.25v0h4.167v2.083c-0 0.011-0 0.023-0 0.036 0 0.736 0.138 1.44 0.389 2.087l-0.013-0.039c0.113 0.34 0.24 0.629 0.389 0.904l-0.014-0.029c0.068 0.159 0.152 0.297 0.252 0.42l-0.002-0.003c0.069 0.12 0.138 0.222 0.213 0.319l-0.005-0.006c0.705 0.971 1.669 1.713 2.792 2.132l0.042 0.014c0.102 0.060 0.221 0.104 0.348 0.124l0.006 0.001c0.127 0.057 0.274 0.1 0.428 0.124l0.010 0.001c0.103 0.030 0.224 0.053 0.348 0.062l0.006 0c0.319 0.066 0.687 0.104 1.063 0.104s0.743-0.038 1.098-0.11l-0.035 0.006c0.13-0.010 0.251-0.032 0.367-0.066l-0.013 0.003c1.5-0.348 2.758-1.206 3.613-2.378l0.012-0.017c0.071-0.091 0.14-0.193 0.201-0.3l0.007-0.013c0.098-0.12 0.182-0.257 0.246-0.406l0.004-0.011c0.135-0.246 0.262-0.535 0.364-0.836l0.011-0.039c0.238-0.608 0.375-1.312 0.375-2.047 0-0.013 0-0.025-0-0.038v0.002-2.083h2.083c9.205 0 16.667-7.462 16.667-16.667s-7.462-16.667-16.667-16.667v0h-20.833c-2.301 0-4.167-1.866-4.167-4.167s1.866-4.167 4.167-4.167v0h6.25zM8.333 22.917c-1.151 0-2.083-0.933-2.083-2.083s0.933-2.083 2.083-2.083c1.151 0 2.083 0.933 2.083 2.083v0c-0.004 1.149-0.934 2.080-2.083 2.083h-0z"></path>
</svg>
