
<svg version="1.1" xmlns="http://www.w3.org/2000/svg" width="114" height="100" viewBox="0 0 114 100">
<title>hidden</title>
<path fill="param(fill) #000" stroke="param(outline) #000" stroke-width="param(outline-width) 1" d="M38.095 50c0-0.013-0-0.029-0-0.045 0-10.495 8.508-19.002 19.002-19.002 0.753 0 1.496 0.044 2.227 0.129l-0.089-0.008 14.967-14.967c-4.996-1.158-10.733-1.822-16.625-1.822-0.153 0-0.305 0-0.458 0.001l0.024-0c-23.408 0-42.66 8.989-55.675 30.483-0.922 1.49-1.468 3.297-1.468 5.232 0 1.933 0.545 3.738 1.49 5.271l-0.025-0.043c4.202 7.029 9.425 12.971 15.547 17.831l0.134 0.103 21.070-21.070c-0.075-0.626-0.118-1.353-0.121-2.090v-0.003z"></path>
<path fill="param(fill) #000" stroke="param(outline) #000" stroke-width="param(outline-width) 1" d="M112.82 44.771c-4.202-7.029-9.426-12.971-15.547-17.831l-0.134-0.102-21.070 21.070c0.077 0.642 0.121 1.385 0.121 2.138 0 10.495-8.508 19.002-19.002 19.002-0.753 0-1.496-0.044-2.227-0.129l0.089 0.008-14.967 14.967c4.996 1.158 10.733 1.822 16.625 1.822 0.153 0 0.306-0 0.458-0.001l-0.024 0c23.408 0 42.66-8.989 55.677-30.486 0.92-1.49 1.466-3.295 1.466-5.229s-0.545-3.739-1.491-5.272l0.025 0.043z"></path>
<path fill="param(fill) #000" stroke="param(outline) #000" stroke-width="param(outline-width) 1" d="M11.904 100c-2.63-0-4.761-2.132-4.761-4.762 0-1.315 0.533-2.505 1.394-3.367l90.476-90.476c0.862-0.862 2.052-1.395 3.367-1.395 2.63 0 4.761 2.132 4.761 4.761 0 1.315-0.533 2.505-1.395 3.367l-90.476 90.476c-0.859 0.862-2.047 1.395-3.36 1.395-0.002 0-0.005 0-0.007 0h0z"></path>
</svg>
