
<svg version="1.1" xmlns="http://www.w3.org/2000/svg" width="100" height="100" viewBox="0 0 100 100">
<title>kitchen-set</title>
<path fill="param(fill) #000" stroke="param(outline) #000" stroke-width="param(outline-width) 1" d="M96.051 60.417h-46.269c-1.029 0.003-1.863 0.837-1.866 1.865v26.525c0.019 6.174 5.019 11.175 11.192 11.193h27.615c6.174-0.019 11.175-5.019 11.193-11.192v-26.526c0 0 0-0 0-0 0-1.030-0.835-1.866-1.866-1.866-0 0-0 0-0 0v0z"></path>
<path fill="param(fill) #000" stroke="param(outline) #000" stroke-width="param(outline-width) 1" d="M37.5 23.958c0 7.479-6.063 13.542-13.542 13.542s-13.542-6.063-13.542-13.542c0-7.479 6.063-13.542 13.542-13.542s13.542 6.063 13.542 13.542z"></path>
<path fill="param(fill) #000" stroke="param(outline) #000" stroke-width="param(outline-width) 1" d="M95.833 47.917h-16.667c0-3.452-2.798-6.25-6.25-6.25s-6.25 2.798-6.25 6.25v0h-16.667c-2.301 0-4.167 1.866-4.167 4.167s1.866 4.167 4.167 4.167v0h45.833c2.301 0 4.167-1.866 4.167-4.167s-1.866-4.167-4.167-4.167v0z"></path>
<path fill="param(fill) #000" stroke="param(outline) #000" stroke-width="param(outline-width) 1" d="M36.458 93.75h-33.333c-1.726 0-3.125 1.399-3.125 3.125s1.399 3.125 3.125 3.125v0h33.333c1.726 0 3.125-1.399 3.125-3.125s-1.399-3.125-3.125-3.125v0z"></path>
<path fill="param(fill) #000" stroke="param(outline) #000" stroke-width="param(outline-width) 1" d="M66.667 27.083c0 1.151 0.933 2.083 2.083 2.083v0h26.042c2.876 0 5.208-2.332 5.208-5.208s-2.332-5.208-5.208-5.208v0h-26.042c-1.151 0-2.083 0.933-2.083 2.083v0h-18.958c-1.599-11.819-11.624-20.833-23.754-20.833-13.232 0-23.958 10.726-23.958 23.958s10.726 23.958 23.958 23.958c12.13 0 22.154-9.014 23.74-20.71l0.014-0.124zM23.958 41.667c-9.78 0-17.708-7.928-17.708-17.708s7.928-17.708 17.708-17.708c9.78 0 17.708 7.928 17.708 17.708v0c-0.007 9.777-7.931 17.702-17.708 17.708h-0.001z"></path>
<path fill="param(fill) #000" stroke="param(outline) #000" stroke-width="param(outline-width) 1" d="M35.417 68.75h-2.083v-4.352c0 0 0-0 0-0 0-1.030-0.835-1.866-1.866-1.866-0 0-0 0-0 0h-25.435c-1.029 0.003-1.863 0.837-1.866 1.865v13.993c0.019 6.174 5.019 11.175 11.192 11.193h6.782c6.174-0.019 11.175-5.019 11.193-11.192v-1.308h2.083c2.301 0 4.167-1.866 4.167-4.167s-1.866-4.167-4.167-4.167v0z"></path>
</svg>
