
<svg version="1.1" xmlns="http://www.w3.org/2000/svg" width="100" height="100" viewBox="0 0 100 100">
<title>life-saving</title>
<path fill="param(fill) #000" stroke="param(outline) #000" stroke-width="param(outline-width) 1" d="M50 0c-27.614 0-50 22.386-50 50s22.386 50 50 50c27.614 0 50-22.386 50-50v0c0-0 0-0 0-0 0-27.614-22.386-50-50-50-0 0-0 0-0 0v0zM85.212 29.605l-9.708 6.443c-0.332 0.201-0.732 0.32-1.161 0.32-0.755 0-1.425-0.369-1.837-0.937l-0.004-0.007c-2.214-3.090-4.837-5.713-7.826-7.859l-0.101-0.069c-0.574-0.417-0.944-1.086-0.944-1.841 0-0.428 0.119-0.829 0.325-1.171l-0.006 0.010 6.443-9.707c0.395-0.689 1.127-1.146 1.965-1.146 0.446 0 0.861 0.129 1.211 0.352l-0.009-0.005c5.003 3.293 9.157 7.447 12.351 12.29l0.099 0.16c0.217 0.341 0.346 0.756 0.346 1.202 0 0.838-0.457 1.57-1.135 1.96l-0.011 0.006zM29.545 50c0-11.297 9.158-20.455 20.455-20.455s20.455 9.158 20.455 20.455c0 11.297-9.158 20.455-20.455 20.455v0c-0 0-0 0-0 0-11.297 0-20.454-9.158-20.454-20.454 0-0 0-0 0-0v0zM30.44 14.788l5.609 9.483c0.201 0.332 0.32 0.732 0.32 1.161 0 0.755-0.369 1.424-0.937 1.837l-0.007 0.004c-3.166 2.29-5.862 4.985-8.080 8.048l-0.071 0.104c-0.417 0.574-1.086 0.944-1.841 0.944-0.428 0-0.829-0.119-1.171-0.325l0.010 0.006-9.483-6.503c-0.689-0.395-1.146-1.127-1.146-1.965 0-0.446 0.129-0.861 0.352-1.211l-0.005 0.009c3.58-4.986 8.001-9.121 13.091-12.278l0.194-0.112c0.341-0.217 0.756-0.346 1.202-0.346 0.838 0 1.57 0.457 1.96 1.135l0.006 0.011zM14.788 70.395l9.708-6.443c0.332-0.201 0.732-0.32 1.161-0.32 0.755 0 1.425 0.369 1.837 0.937l0.004 0.007c2.214 3.090 4.837 5.713 7.826 7.859l0.101 0.069c0.574 0.417 0.944 1.086 0.944 1.841 0 0.428-0.119 0.829-0.325 1.171l0.006-0.010-6.443 9.707c-0.395 0.689-1.127 1.146-1.965 1.146-0.446 0-0.861-0.129-1.211-0.352l0.009 0.005c-5.003-3.293-9.157-7.447-12.351-12.29l-0.099-0.16c-0.217-0.341-0.346-0.756-0.346-1.202 0-0.838 0.457-1.57 1.135-1.96l0.011-0.006zM70.455 85.212l-6.503-9.483c-0.201-0.332-0.32-0.732-0.32-1.161 0-0.755 0.369-1.424 0.937-1.837l0.007-0.004c3.166-2.29 5.862-4.985 8.080-8.048l0.071-0.104c0.417-0.574 1.086-0.944 1.841-0.944 0.428 0 0.829 0.119 1.171 0.325l-0.010-0.006 9.483 5.609c0.689 0.395 1.146 1.127 1.146 1.965 0 0.446-0.129 0.861-0.352 1.211l0.005-0.009c-3.269 5.284-7.404 9.704-12.255 13.192l-0.135 0.093c-0.341 0.217-0.756 0.346-1.202 0.346-0.838 0-1.57-0.457-1.96-1.135l-0.006-0.011z"></path>
</svg>
