
<svg version="1.1" xmlns="http://www.w3.org/2000/svg" width="96" height="100" viewBox="0 0 96 100">
<title>link</title>
<path fill="param(fill) #000" stroke="param(outline) #000" stroke-width="param(outline-width) 1" d="M92.893 17.495l-14.804-14.494c-1.855-1.855-4.417-3.002-7.247-3.002s-5.392 1.147-7.247 3.002l-35.429 35.429c-1.855 1.855-3.002 4.417-3.002 7.247s1.147 5.392 3.002 7.247l7.247 7.247c0.412 0.412 0.982 0.667 1.611 0.667s1.198-0.255 1.611-0.667l4.831-4.831c0.412-0.412 0.667-0.981 0.667-1.61s-0.255-1.198-0.667-1.61l-6.442-6.442 33.819-33.819 12.883 12.883-14.493 14.493 3.013 3.013c1.692 1.697 3.028 3.751 3.884 6.039l0.038 0.117 16.726-16.416c1.854-1.855 3.001-4.417 3.001-7.247s-1.147-5.392-3.001-7.247v0z"></path>
<path fill="param(fill) #000" stroke="param(outline) #000" stroke-width="param(outline-width) 1" d="M60.166 39.834c-0.412-0.412-0.981-0.667-1.61-0.667s-1.198 0.255-1.61 0.667l-4.832 4.831c-0.412 0.412-0.667 0.982-0.667 1.61s0.255 1.198 0.667 1.61l6.442 6.442-33.819 33.819-12.883-12.883 14.493-14.494-3.013-3.014c-1.693-1.696-3.028-3.749-3.884-6.037l-0.038-0.117-16.415 16.415c-1.852 1.856-2.997 4.418-2.997 7.247s1.145 5.391 2.997 7.247l14.493 14.493c1.856 1.852 4.418 2.997 7.247 2.997s5.391-1.145 7.247-2.997l35.429-35.429c1.852-1.856 2.997-4.418 2.997-7.247s-1.145-5.391-2.997-7.247l0 0z"></path>
</svg>
