
<svg version="1.1" xmlns="http://www.w3.org/2000/svg" width="130" height="100" viewBox="0 0 130 100">
<title>mask</title>
<path fill="param(fill) #000" stroke="param(outline) #000" stroke-width="param(outline-width) 1" d="M124.309 54.060h-13.512v-13.512h13.512c2.985 0 5.405-2.42 5.405-5.405s-2.42-5.405-5.405-5.405v0h-14.326l-28.17-24.162c-4.023-3.466-9.299-5.577-15.068-5.577s-11.045 2.111-15.098 5.602l0.030-0.025-28.17 24.162h-18.102c-2.985 0-5.405 2.42-5.405 5.405s2.42 5.405 5.405 5.405v0h16.214v13.512h-16.214c-2.985 0-5.405 2.42-5.405 5.405s2.42 5.405 5.405 5.405v0h17.284c4.477 20.227 22.257 35.131 43.519 35.131s39.042-14.904 43.464-34.835l0.055-0.296h14.582c2.985 0 5.405-2.42 5.405-5.405s-2.42-5.405-5.405-5.405v0z"></path>
</svg>
