
<svg version="1.1" xmlns="http://www.w3.org/2000/svg" width="100" height="100" viewBox="0 0 100 100">
<title>medicine</title>
<path fill="param(fill) #000" stroke="param(outline) #000" stroke-width="param(outline-width) 1" d="M65.646 30.229c3.219-3.207 5.211-7.644 5.211-12.546 0-9.779-7.928-17.707-17.707-17.707-4.902 0-9.339 1.992-12.545 5.21l-35.417 35.417c-3.219 3.207-5.211 7.644-5.211 12.546 0 9.779 7.928 17.707 17.707 17.707 4.902 0 9.339-1.992 12.545-5.21l17.709-17.709zM27.313 27.313l17.708-17.708c2.075-2.072 4.94-3.354 8.104-3.354s6.029 1.282 8.104 3.354l-0-0c2.066 2.078 3.344 4.942 3.344 8.104s-1.277 6.027-3.344 8.105l-17.708 17.708z"></path>
<path fill="param(fill) #000" stroke="param(outline) #000" stroke-width="param(outline-width) 1" d="M72.917 45.833c-0.009 0-0.019 0-0.029 0-14.942 0-27.054 12.113-27.054 27.054 0 6.014 1.962 11.569 5.281 16.061l-0.052-0.074 37.812-37.812c-4.396-3.267-9.931-5.229-15.923-5.229-0.012 0-0.025 0-0.037 0h0.002z"></path>
<path fill="param(fill) #000" stroke="param(outline) #000" stroke-width="param(outline-width) 1" d="M94.771 56.958l-37.812 37.813c4.418 3.267 9.973 5.229 15.987 5.229 14.942 0 27.054-12.113 27.054-27.054 0-6.014-1.962-11.569-5.281-16.061l0.052 0.074z"></path>
</svg>
