
<svg version="1.1" xmlns="http://www.w3.org/2000/svg" width="96" height="100" viewBox="0 0 96 100">
<title>military-gate</title>
<path fill="param(fill) #000" stroke="param(outline) #000" stroke-width="param(outline-width) 1" d="M90.84 37.786c-1.336-1.336-3.626-1.336-4.962 0 0 0 0 0 0 0l-7.443 7.443-7.443-7.443c-1.336-1.336-3.626-1.336-4.962 0s-1.336 3.626 0 4.962l7.443 7.443-7.443 7.443c-1.336 1.336-1.336 3.626 0 4.962s3.626 1.336 4.962 0l7.443-7.443 7.443 7.443c1.336 1.336 3.626 1.336 4.962 0s1.336-3.626 0-4.962l-7.443-7.443 7.443-7.443c1.336-1.527 1.336-3.626 0-4.962z"></path>
<path fill="param(fill) #000" stroke="param(outline) #000" stroke-width="param(outline-width) 1" d="M29.771 37.786c-1.336-1.336-3.626-1.336-4.962 0 0 0 0 0 0 0l-7.443 7.443-7.443-7.443c-1.336-1.336-3.626-1.336-4.962 0s-1.336 3.626 0 4.962l7.443 7.443-7.443 7.443c-1.336 1.336-1.336 3.626 0 4.962s3.626 1.336 4.962 0l7.443-7.443 7.443 7.443c1.336 1.336 3.626 1.336 4.962 0s1.336-3.626 0-4.962l-7.443-7.443 7.443-7.443c1.336-1.527 1.336-3.626 0-4.962z"></path>
<path fill="param(fill) #000" stroke="param(outline) #000" stroke-width="param(outline-width) 1" d="M60.305 37.786c-1.336-1.336-3.626-1.336-4.962 0 0 0 0 0 0 0l-7.443 7.443-7.443-7.443c-1.336-1.336-3.626-1.336-4.962 0s-1.336 3.626 0 4.962l7.443 7.443-7.443 7.443c-1.336 1.336-1.336 3.626 0 4.962s3.626 1.336 4.962 0l7.443-7.443 7.443 7.443c1.336 1.336 3.626 1.336 4.962 0s1.336-3.626 0-4.962l-7.443-7.443 7.443-7.443c1.336-1.527 1.336-3.626 0-4.962z"></path>
<path fill="param(fill) #000" stroke="param(outline) #000" stroke-width="param(outline-width) 1" d="M5.916 30.916h83.969c2.099 0 3.817-1.718 3.817-3.817s-1.718-3.817-3.817-3.817h-83.969c-2.099 0-3.817 1.718-3.817 3.817s1.718 3.817 3.817 3.817z"></path>
<path fill="param(fill) #000" stroke="param(outline) #000" stroke-width="param(outline-width) 1" d="M89.885 69.084h-83.969c-2.099 0-3.817 1.718-3.817 3.817s1.718 3.817 3.817 3.817h83.969c2.099 0 3.817-1.718 3.817-3.817s-1.718-3.817-3.817-3.817z"></path>
</svg>
