
<svg version="1.1" xmlns="http://www.w3.org/2000/svg" width="112" height="100" viewBox="0 0 112 100">
<title>monitor</title>
<path fill="param(fill) #000" stroke="param(outline) #000" stroke-width="param(outline-width) 1" d="M109.302 0h-106.977c-1.283 0.004-2.322 1.043-2.326 2.325v72.093c0.004 1.283 1.043 2.322 2.325 2.326h41.861v13.954h-20.93c-2.569 0-4.651 2.082-4.651 4.651v0 3.488c0 0 0 0 0 0 0 0.642 0.521 1.162 1.162 1.162 0 0 0 0 0 0h72.093c0 0 0 0 0 0 0.642 0 1.162-0.521 1.162-1.162 0-0 0-0 0-0v0-3.488c-0-2.569-2.082-4.651-4.651-4.651h-20.93v-13.954h41.86c1.283-0.004 2.322-1.043 2.326-2.325v-72.093c-0.004-1.283-1.043-2.322-2.325-2.326h-0zM60.232 73.256c-0.56 1.948-2.325 3.349-4.418 3.349s-3.859-1.401-4.41-3.316l-0.008-0.032c-0.104-0.355-0.163-0.762-0.163-1.184 0-0.017 0-0.035 0-0.052v0.003c-0-0.016-0-0.035-0-0.055 0-0.812 0.225-1.572 0.616-2.22l-0.011 0.019c0.798-1.398 2.279-2.326 3.977-2.326s3.179 0.927 3.965 2.303l0.012 0.022c0.38 0.629 0.605 1.388 0.605 2.201 0 0.019-0 0.038-0 0.057v-0.003c0 0.015 0 0.032 0 0.049 0 0.422-0.060 0.829-0.171 1.215l0.008-0.031zM9.302 62.791v-53.488h93.023v53.488z"></path>
</svg>
