
<svg version="1.1" xmlns="http://www.w3.org/2000/svg" width="100" height="100" viewBox="0 0 100 100">
<title>mosque</title>
<path fill="param(fill) #000" stroke="param(outline) #000" stroke-width="param(outline-width) 1" d="M96.875 93.75h-93.75c-1.726 0-3.125 1.399-3.125 3.125s1.399 3.125 3.125 3.125v0h93.75c1.726 0 3.125-1.399 3.125-3.125s-1.399-3.125-3.125-3.125v0z"></path>
<path fill="param(fill) #000" stroke="param(outline) #000" stroke-width="param(outline-width) 1" d="M11.458 89.583h77.083c1.726 0 3.125-1.399 3.125-3.125s-1.399-3.125-3.125-3.125v0h-77.083c-1.726 0-3.125 1.399-3.125 3.125s1.399 3.125 3.125 3.125v0z"></path>
<path fill="param(fill) #000" stroke="param(outline) #000" stroke-width="param(outline-width) 1" d="M26.958 42.146c0.658 0.663 1.38 1.26 2.158 1.781l0.051 0.032v35.208h14.583v-22.375c0-3.75 6.25-6.792 6.25-6.792s6.25 3.042 6.25 6.792v22.375h14.583v-35.208c0.828-0.553 1.551-1.15 2.208-1.812l0.001-0.001 0.104-0.083c2.481-2.494 4.016-5.932 4.016-9.729s-1.534-7.235-4.016-9.729l-22.229-22.229c-0.236-0.232-0.559-0.375-0.917-0.375s-0.681 0.143-0.917 0.375l-22.229 22.229c-2.481 2.494-4.016 5.932-4.016 9.729s1.534 7.235 4.016 9.729l-0.001-0.001zM50 18.75c0.576 0.002 1.137 0.063 1.679 0.176l-0.054-0.009c-3.331 0.716-5.792 3.636-5.792 7.131 0 4.024 3.262 7.286 7.286 7.286 0.002 0 0.004 0 0.007 0h-0c0.006 0 0.012 0 0.019 0 1.116 0 2.17-0.262 3.105-0.727l-0.041 0.018c-1.518 1.716-3.726 2.792-6.184 2.792-0.008 0-0.017 0-0.025 0h0.001c-4.602 0-8.333-3.731-8.333-8.333s3.731-8.333 8.333-8.333v0z"></path>
</svg>
