
<svg version="1.1" xmlns="http://www.w3.org/2000/svg" width="88" height="100" viewBox="0 0 88 100">
<title>national-army</title>
<path fill="param(fill) #000" stroke="param(outline) #000" stroke-width="param(outline-width) 1" d="M29.167 17.708c0 7.479 6.063 13.542 13.542 13.542s13.542-6.063 13.542-13.542v0c0-0.013 0-0.028 0-0.044 0-1.094-0.137-2.156-0.394-3.17l0.019 0.089h-26.334c-0.238 0.925-0.375 1.987-0.375 3.081 0 0.015 0 0.031 0 0.046v-0.002z"></path>
<path fill="param(fill) #000" stroke="param(outline) #000" stroke-width="param(outline-width) 1" d="M31.25 10.417h22.917c2.309-0.038 4.167-1.918 4.167-4.233 0-0.021-0-0.041-0-0.062v0.003-1.833c0-0.016 0-0.035 0-0.054 0-2.323-1.869-4.209-4.185-4.237h-0.253l-22.917 1.583c-2.189 0.183-3.896 2.005-3.896 4.226 0 0.016 0 0.032 0 0.047v-0.002 0.271c-0 0.017-0 0.038-0 0.058 0 2.315 1.858 4.196 4.164 4.233h0.004z"></path>
<path fill="param(fill) #000" stroke="param(outline) #000" stroke-width="param(outline-width) 1" d="M83.25 62.125c-4.169-8.675-10.907-15.56-19.217-19.804l-0.242-0.112 3.729-6.458c0.353-0.598 0.562-1.318 0.562-2.086 0-1.532-0.829-2.87-2.063-3.591l-0.020-0.011 8.854-15.333c0.090-0.152 0.144-0.335 0.144-0.531 0-0.384-0.206-0.721-0.514-0.904l-0.005-0.003-4.521-2.604c-0.296-0.171-0.651-0.273-1.030-0.273-0.767 0-1.438 0.415-1.798 1.034l-0.005 0.010c-0.178 0.298-0.285 0.657-0.291 1.040v0.002c0 0 0 0 0 0.001 0 0.769 0.414 1.442 1.032 1.807l0.010 0.005-7.563 13.104c-1.533 0-2.872 0.829-3.594 2.064l-0.011 0.020-5.021 8.708c-2.34-0.451-5.032-0.709-7.784-0.709-0.054 0-0.108 0-0.162 0h0.008c-0.049-0-0.108-0-0.166-0-5.59 0-10.939 1.032-15.868 2.915l0.305-0.102 0.042 0.063 0.979 1.708 5.333 9.229h0.021l0.021 0.083 4.833 8.354 1.583 2.75 20.292 35.146c0.856-1.055 1.375-2.414 1.375-3.894 0-0.001 0-0.001 0-0.002v0-37.771c4.862 3.554 8.564 8.432 10.601 14.104l0.065 0.209c1.162 3.229 1.834 6.956 1.834 10.839 0 0.042-0 0.084-0 0.126v-0.007c0 3.452 2.798 6.25 6.25 6.25s6.25-2.798 6.25-6.25v0c0-0.046 0-0.102 0-0.157 0-6.89-1.568-13.414-4.366-19.235l0.116 0.267zM52.083 60.417c-2.301 0-4.167-1.866-4.167-4.167s1.866-4.167 4.167-4.167c2.301 0 4.167 1.866 4.167 4.167v0c-0.007 2.298-1.868 4.16-4.166 4.167h-0.001z"></path>
<path fill="param(fill) #000" stroke="param(outline) #000" stroke-width="param(outline-width) 1" d="M28.542 53.688l-3.521-6.083-2.667-4.625-0.021-0.042c-7.905 4.393-14.134 10.978-17.972 18.932l-0.111 0.256c-2.683 5.554-4.25 12.078-4.25 18.968 0 0.055 0 0.11 0 0.165v-0.008c0 3.452 2.798 6.25 6.25 6.25s6.25-2.798 6.25-6.25v0c-0-0.035-0-0.077-0-0.119 0-3.883 0.672-7.61 1.905-11.070l-0.072 0.23c2.103-5.88 5.805-10.758 10.582-14.254l0.084-0.059v37.771c0 0.002 0 0.005 0 0.008 0 3.447 2.795 6.242 6.242 6.242 0.003 0 0.006 0 0.009 0h24.020l-26.708-46.25z"></path>
</svg>
