
<svg version="1.1" xmlns="http://www.w3.org/2000/svg" width="100" height="100" viewBox="0 0 100 100">
<title>not-affected</title>
<path fill="param(fill) #000" stroke="param(outline) #000" stroke-width="param(outline-width) 1" d="M50 0c-27.614 0-50 22.386-50 50s22.386 50 50 50c27.614 0 50-22.386 50-50v0c-0.001-27.614-22.386-49.999-50-50v0zM82.159 36.568l-35.227 36.364c-1.238 1.276-2.97 2.069-4.886 2.069h-0.045c-0 0-0 0-0 0-1.936 0-3.681-0.82-4.905-2.132l-0.004-0.004-19.318-20.455c-1.153-1.218-1.862-2.867-1.862-4.682 0-3.765 3.052-6.817 6.817-6.817 1.95 0 3.709 0.819 4.951 2.132l0.003 0.003 14.432 15.273 30.273-31.25c1.239-1.27 2.967-2.057 4.879-2.057 3.763 0 6.814 3.051 6.814 6.814 0 1.844-0.733 3.518-1.923 4.745l0.002-0.002z"></path>
</svg>
