
<svg version="1.1" xmlns="http://www.w3.org/2000/svg" width="123" height="100" viewBox="0 0 123 100">
<title>peacekeeping-force</title>
<path fill="param(fill) #000" stroke="param(outline) #000" stroke-width="param(outline-width) 1" d="M116.667 48.718h-6.462c-3.401-27.578-26.685-48.718-54.906-48.718-30.481 0-55.202 24.661-55.299 55.119v14.112c0 0.001 0 0.002 0 0.003 0 5.663 4.591 10.254 10.254 10.254 0.001 0 0.002 0 0.003 0h43.615l20.513 20.513h19.205c2.124 0 3.846-1.722 3.846-3.846s-1.722-3.846-3.846-3.846v0h-11.538v-30.769h34.615c3.54 0 6.41-2.87 6.41-6.41s-2.87-6.41-6.41-6.41v0zM51.231 42.308c0 4.956-4.018 8.974-8.974 8.974s-8.974-4.018-8.974-8.974v0-19.231c0-1.416 1.148-2.564 2.564-2.564s2.564 1.148 2.564 2.564v0 19.231c0 2.124 1.722 3.846 3.846 3.846s3.846-1.722 3.846-3.846v0-19.231c0-1.416 1.148-2.564 2.564-2.564s2.564 1.148 2.564 2.564v0zM61.487 48.718c0 1.416-1.148 2.564-2.564 2.564s-2.564-1.148-2.564-2.564v0-25.641c0.004-1.412 1.149-2.555 2.562-2.555 0.992 0 1.851 0.563 2.277 1.387l0.007 0.014 7.974 15.923v-14.769c0-1.416 1.148-2.564 2.564-2.564s2.564 1.148 2.564 2.564v0 25.641c0 0 0 0.001 0 0.001 0 1.205-0.835 2.214-1.957 2.482l-0.017 0.004c-0.177 0.049-0.38 0.077-0.59 0.077h-0c-0.992-0.003-1.852-0.569-2.275-1.396l-0.007-0.014-7.974-15.923zM74.359 84.641l-12.821-12.821 10.256-10.282h2.564z"></path>
</svg>
