
<svg version="1.1" xmlns="http://www.w3.org/2000/svg" width="150" height="100" viewBox="0 0 150 100">
<title>photo</title>
<path fill="param(fill) #000" stroke="param(outline) #000" stroke-width="param(outline-width) 1" d="M75 81.25c-14.422-0.019-26.301-10.88-27.925-24.869l-0.012-0.131h-47.063v37.5c0.010 3.448 2.802 6.24 6.249 6.25h137.501c3.448-0.010 6.24-2.802 6.25-6.249v-37.501h-47.063c-1.636 14.12-13.516 24.981-27.935 25h-0.002z"></path>
<path fill="param(fill) #000" stroke="param(outline) #000" stroke-width="param(outline-width) 1" d="M143.75 18.75h-40.625v-12.5c-0.010-3.448-2.802-6.24-6.249-6.25h-43.751c-3.448 0.010-6.24 2.802-6.25 6.249v12.501h-15.625v-6.25c0-1.726-1.399-3.125-3.125-3.125v0h-9.375c-1.726 0-3.125 1.399-3.125 3.125v0 6.25h-9.375c-3.448 0.010-6.24 2.802-6.25 6.249v25.001h47.063c1.619-14.129 13.508-25 27.937-25s26.319 10.871 27.925 24.87l0.012 0.13h47.063v-25c-0.010-3.448-2.802-6.24-6.249-6.25h-0.001zM132.813 37.5h-15.625c-2.589 0-4.688-2.099-4.688-4.688s2.099-4.688 4.688-4.688v0h15.625c2.589 0 4.688 2.099 4.688 4.688s-2.099 4.688-4.688 4.688v0z"></path>
<path fill="param(fill) #000" stroke="param(outline) #000" stroke-width="param(outline-width) 1" d="M75 75c0.006 0 0.013 0 0.019 0 10.108 0 18.613-6.867 21.102-16.191l0.035-0.153c0.456-1.659 0.719-3.565 0.719-5.531s-0.262-3.872-0.754-5.683l0.035 0.152c-2.534-9.478-11.043-16.343-21.156-16.343s-18.623 6.866-21.121 16.191l-0.035 0.153c-0.456 1.659-0.719 3.565-0.719 5.531s0.262 3.872 0.754 5.683l-0.035-0.152c2.524 9.476 11.028 16.344 21.137 16.344 0.007 0 0.014 0 0.021 0h-0.001zM62.906 50c1.433-5.434 6.303-9.375 12.094-9.375s10.661 3.941 12.074 9.288l0.020 0.087c0.258 0.938 0.406 2.014 0.406 3.125s-0.148 2.188-0.426 3.211l0.020-0.086c-1.433 5.434-6.303 9.375-12.094 9.375s-10.661-3.941-12.074-9.288l-0.020-0.087c-0.258-0.938-0.406-2.014-0.406-3.125s0.148-2.188 0.426-3.211l-0.020 0.086z"></path>
</svg>
