
<svg version="1.1" xmlns="http://www.w3.org/2000/svg" width="100" height="100" viewBox="0 0 100 100">
<title>physical-closure</title>
<path fill="param(fill) #000" stroke="param(outline) #000" stroke-width="param(outline-width) 1" d="M50 0c-27.614 0-50 22.386-50 50s22.386 50 50 50c27.614 0 50-22.386 50-50v0c0-0 0-0 0-0 0-27.614-22.386-50-50-50-0 0-0 0-0 0h0zM50 87.5c-20.711 0-37.5-16.789-37.5-37.5s16.789-37.5 37.5-37.5c20.711 0 37.5 16.789 37.5 37.5v0c-0.024 20.701-16.799 37.476-37.498 37.5h-0.002z"></path>
<path fill="param(fill) #000" stroke="param(outline) #000" stroke-width="param(outline-width) 1" d="M71.086 28.914c-1.131-1.131-2.693-1.831-4.419-1.831s-3.288 0.7-4.419 1.831v0l-12.248 12.752-12.248-12.752c-1.131-1.131-2.693-1.83-4.419-1.83-3.451 0-6.249 2.798-6.249 6.249 0 1.726 0.7 3.288 1.83 4.419v0l12.752 12.248-12.752 12.248c-1.131 1.131-1.83 2.693-1.83 4.419 0 3.451 2.798 6.249 6.249 6.249 1.726 0 3.288-0.7 4.419-1.83v0l12.248-12.752 12.248 12.752c1.131 1.131 2.693 1.83 4.419 1.83 3.451 0 6.249-2.798 6.249-6.249 0-1.726-0.7-3.288-1.83-4.419v0l-12.752-12.248 12.752-12.248c1.131-1.131 1.831-2.693 1.831-4.419s-0.7-3.288-1.831-4.419v0z"></path>
</svg>
