
<svg version="1.1" xmlns="http://www.w3.org/2000/svg" width="75" height="100" viewBox="0 0 75 100">
<title>poverty</title>
<path fill="param(fill) #000" stroke="param(outline) #000" stroke-width="param(outline-width) 1" d="M72.597 59.354l-16.354-32.271h-37.5l-16.354 32.271c-1.503 3.394-2.378 7.354-2.378 11.517 0 7.908 3.157 15.080 8.279 20.322l-0.005-0.006c5.243 5.437 12.591 8.813 20.728 8.813 0.052 0 0.103-0 0.155-0h16.659c0.044 0 0.095 0 0.147 0 8.137 0 15.485-3.376 20.72-8.804l0.008-0.009c5.117-5.237 8.274-12.408 8.274-20.317 0-4.163-0.875-8.122-2.451-11.703l0.073 0.186zM51.159 73.833c0.569 0.563 0.922 1.345 0.922 2.208s-0.352 1.645-0.921 2.208l-0 0c-0.565 0.566-1.346 0.917-2.208 0.917s-1.644-0.35-2.208-0.917l-9.25-9.25-9.25 9.25c-0.565 0.566-1.346 0.917-2.208 0.917s-1.644-0.35-2.208-0.917l-0-0c-0.569-0.563-0.922-1.345-0.922-2.208s0.352-1.645 0.921-2.208l9.25-9.25-9.25-9.25c-0.565-0.565-0.915-1.346-0.915-2.208 0-1.725 1.398-3.123 3.123-3.123 0.862 0 1.643 0.35 2.208 0.915v0l9.25 9.25 9.25-9.25c0.565-0.565 1.346-0.915 2.208-0.915 1.725 0 3.123 1.398 3.123 3.123 0 0.863-0.35 1.643-0.915 2.208v0l-9.25 9.25z"></path>
<path fill="param(fill) #000" stroke="param(outline) #000" stroke-width="param(outline-width) 1" d="M18.731 22.917h16.67l-3.435-15.487c-0.429-1.881-2.087-3.263-4.068-3.263-0 0-0 0-0 0h-11.251c-0 0-0 0-0 0-1.15 0-2.083 0.933-2.083 2.083 0 0.16 0.018 0.316 0.052 0.466l-0.003-0.014z"></path>
<path fill="param(fill) #000" stroke="param(outline) #000" stroke-width="param(outline-width) 1" d="M47.911 22.917h8.327l4.134-20.458c0.021-0.11 0.032-0.236 0.032-0.366 0-1.156-0.937-2.093-2.093-2.093-0.001 0-0.002 0-0.002 0h-6.231c-2.291 0.030-4.141 1.876-4.175 4.163v0.003c-0.021-2.286-1.863-4.135-4.144-4.167h-6.254c-0.001 0-0.001 0-0.002 0-1.156 0-2.093 0.937-2.093 2.093 0 0.129 0.012 0.256 0.034 0.378l-0.002-0.013 4.127 20.458z"></path>
</svg>
