
<svg version="1.1" xmlns="http://www.w3.org/2000/svg" width="54" height="100" viewBox="0 0 54 100">
<title>power-electricity</title>
<path fill="param(fill) #000" stroke="param(outline) #000" stroke-width="param(outline-width) 1" d="M52.083 27.083h-8.333v-22.917c0-2.301-1.866-4.167-4.167-4.167s-4.167 1.866-4.167 4.167v0 22.917h-16.667v-22.917c0-2.301-1.866-4.167-4.167-4.167s-4.167 1.866-4.167 4.167v0 22.917h-8.333c-1.151 0-2.083 0.933-2.083 2.083v0 16.667c0.079 10.64 5.865 19.912 14.445 24.914l0.138 0.074v6.262c0 1.151 0.933 2.083 2.083 2.083v0h4.167v20.833h12.5v-20.833h4.167c1.151 0 2.083-0.933 2.083-2.083v0-6.262c8.718-5.076 14.504-14.348 14.583-24.977l0-0.011v-16.667c0-1.151-0.933-2.083-2.083-2.083v0z"></path>
</svg>
