
<svg version="1.1" xmlns="http://www.w3.org/2000/svg" width="114" height="100" viewBox="0 0 114 100">
<title>print</title>
<path fill="param(fill) #000" stroke="param(outline) #000" stroke-width="param(outline-width) 1" d="M104.762 2.381c0-1.315-1.64-2.381-3.663-2.381h-87.912c-2.023 0-3.663 1.066-3.663 2.381v7.143h95.238z"></path>
<path fill="param(fill) #000" stroke="param(outline) #000" stroke-width="param(outline-width) 1" d="M109.524 14.286h-104.762c-2.627 0.008-4.754 2.135-4.762 4.761v38.001c0.008 2.627 2.135 4.754 4.761 4.762h14.287v-23.738h76.19v23.738h14.286c2.627-0.008 4.754-2.135 4.762-4.761v-38.001c-0.008-2.627-2.135-4.754-4.761-4.762h-0.001zM73.81 30.952c-2.63 0-4.762-2.132-4.762-4.762s2.132-4.762 4.762-4.762c2.63 0 4.762 2.132 4.762 4.762v0c-0.008 2.627-2.135 4.754-4.761 4.762h-0.001zM90.476 30.952c-2.63 0-4.762-2.132-4.762-4.762s2.132-4.762 4.762-4.762c2.63 0 4.762 2.132 4.762 4.762v0c-0.008 2.627-2.135 4.754-4.761 4.762h-0.001z"></path>
<path fill="param(fill) #000" stroke="param(outline) #000" stroke-width="param(outline-width) 1" d="M23.81 61.81v35.81c0.004 1.313 1.068 2.377 2.381 2.381h61.905c1.313-0.004 2.377-1.068 2.381-2.381v-54.786h-66.667zM80.952 83.333h-47.619c-1.315 0-2.381-1.066-2.381-2.381s1.066-2.381 2.381-2.381v0h47.619c1.315 0 2.381 1.066 2.381 2.381s-1.066 2.381-2.381 2.381v0zM80.952 69.048h-47.619c-1.315 0-2.381-1.066-2.381-2.381s1.066-2.381 2.381-2.381v0h47.619c1.315 0 2.381 1.066 2.381 2.381s-1.066 2.381-2.381 2.381v0z"></path>
</svg>
