
<svg version="1.1" xmlns="http://www.w3.org/2000/svg" width="58" height="100" viewBox="0 0 58 100">
<title>public-information</title>
<path fill="param(fill) #000" stroke="param(outline) #000" stroke-width="param(outline-width) 1" d="M29.122 0h0.089c9.18 0 16.622 7.442 16.622 16.622v35.506c0 9.18-7.442 16.622-16.622 16.622h-0.089c-9.18 0-16.622-7.442-16.622-16.622v-35.506c0-9.18 7.442-16.622 16.622-16.622z"></path>
<path fill="param(fill) #000" stroke="param(outline) #000" stroke-width="param(outline-width) 1" d="M58.333 51.042c0-1.726-1.399-3.125-3.125-3.125s-3.125 1.399-3.125 3.125v0c0 12.657-10.26 22.917-22.917 22.917s-22.917-10.26-22.917-22.917v0c0-1.726-1.399-3.125-3.125-3.125s-3.125 1.399-3.125 3.125v0c0.008 14.63 10.79 26.74 24.841 28.826l0.159 0.019v11.78h-8.333c-2.315 0.013-4.186 1.892-4.186 4.208 0 0.751 0.196 1.455 0.541 2.066l-0.011-0.021c0.69 1.25 2 2.082 3.504 2.082 0.038 0 0.075-0 0.113-0.002l-0.005 0h25.045c2.315-0.013 4.186-1.892 4.186-4.209 0-0.751-0.196-1.455-0.541-2.066l0.011 0.021c-0.69-1.249-2-2.082-3.504-2.082-0.038 0-0.075 0-0.113 0.002l0.005-0h-8.378v-11.802c14.191-2.127 24.956-14.211 25-28.818v-0.005z"></path>
</svg>
