
<svg version="1.1" xmlns="http://www.w3.org/2000/svg" width="123" height="100" viewBox="0 0 123 100">
<title>radio</title>
<path fill="param(fill) #000" stroke="param(outline) #000" stroke-width="param(outline-width) 1" d="M115.384 25.641h-72.391l58.333-15.559c2.207-0.605 3.801-2.593 3.801-4.954 0-2.832-2.296-5.128-5.128-5.128-0.472 0-0.929 0.064-1.363 0.183l0.036-0.008-94.869 25.303c-2.205 0.606-3.798 2.593-3.798 4.952 0 0.119 0.004 0.237 0.012 0.354l-0.001-0.016h-0.015v61.538c0.013 4.243 3.449 7.679 7.691 7.692h107.693c4.243-0.013 7.679-3.449 7.692-7.691v-58.975c-0.013-4.243-3.449-7.679-7.691-7.692h-0.001zM23.077 85.897c0 2.124-1.722 3.846-3.846 3.846s-3.846-1.722-3.846-3.846v0-23.077c0-2.124 1.722-3.846 3.846-3.846s3.846 1.722 3.846 3.846v0zM41.025 85.897c0 2.124-1.722 3.846-3.846 3.846s-3.846-1.722-3.846-3.846v0-23.077c0-2.124 1.722-3.846 3.846-3.846s3.846 1.722 3.846 3.846v0zM58.974 85.897c0 2.124-1.722 3.846-3.846 3.846s-3.846-1.722-3.846-3.846v0-23.077c0-2.124 1.722-3.846 3.846-3.846s3.846 1.722 3.846 3.846v0zM92.307 89.744c-8.497 0-15.385-6.888-15.385-15.385s6.888-15.385 15.385-15.385c8.497 0 15.385 6.888 15.385 15.385v0c-0.007 8.494-6.891 15.378-15.384 15.385h-0.001zM103.846 46.154h-84.615c-2.124 0-3.846-1.722-3.846-3.846s1.722-3.846 3.846-3.846v0h84.615c2.124 0 3.846 1.722 3.846 3.846s-1.722 3.846-3.846 3.846v0z"></path>
</svg>
