
<svg version="1.1" xmlns="http://www.w3.org/2000/svg" width="100" height="100" viewBox="0 0 100 100">
<title>reporting</title>
<path fill="param(fill) #000" stroke="param(outline) #000" stroke-width="param(outline-width) 1" d="M55.333 59.771l-12.875 3.583c-0.352 0.106-0.756 0.167-1.175 0.167-0.026 0-0.053-0-0.079-0.001l0.004 0c0 0 0 0-0 0-1.518 0-2.866-0.723-3.721-1.843l-0.008-0.011c-0.278-0.357-0.504-0.772-0.658-1.22l-0.009-0.030h-24.313c-1.151 0-2.083-0.933-2.083-2.083s0.933-2.083 2.083-2.083v0h24.563l2.313-8.333h-26.875c-1.151 0-2.083-0.933-2.083-2.083s0.933-2.083 2.083-2.083v0h28.146c0.31-0.695 0.724-1.289 1.229-1.791l6.542-6.542h-35.917c-1.151 0-2.083-0.933-2.083-2.083s0.933-2.083 2.083-2.083v0h40.083l9.917-9.917v-6.75c0.001-0.018 0.001-0.038 0.001-0.059 0-1.095-0.869-1.988-1.956-2.024l-0.003-0h-58.583c-1.090 0.037-1.959 0.929-1.959 2.025 0 0.021 0 0.041 0.001 0.062l-0-0.003v83.333c-0.001 0.018-0.001 0.038-0.001 0.059 0 1.095 0.869 1.988 1.956 2.024l0.003 0h41.792v-12.5c0.010-3.448 2.802-6.24 6.249-6.25h12.501v-27.5l-4.417 4.417c-0.741 0.742-1.669 1.299-2.706 1.593l-0.044 0.011zM27.083 72.917h-14.583c-1.151 0-2.083-0.933-2.083-2.083s0.933-2.083 2.083-2.083v0h14.583c1.151 0 2.083 0.933 2.083 2.083s-0.933 2.083-2.083 2.083v0z"></path>
<path fill="param(fill) #000" stroke="param(outline) #000" stroke-width="param(outline-width) 1" d="M50 85.417c-1.149 0.004-2.080 0.934-2.083 2.083v12.5l14.583-14.583h-12.5z"></path>
<path fill="param(fill) #000" stroke="param(outline) #000" stroke-width="param(outline-width) 1" d="M98.188 2.417c-1.344-1.487-3.28-2.417-5.433-2.417-0.002 0-0.003 0-0.005 0h0c-0.004 0-0.009 0-0.015 0-2.008 0-3.823 0.821-5.13 2.145l-42.792 42.772c-0.249 0.244-0.431 0.555-0.518 0.903l-0.003 0.013-3.104 11.167-0.479 1.708c-0.012 0.042-0.019 0.089-0.019 0.138 0 0.28 0.227 0.508 0.508 0.508 0.004 0 0.008-0 0.013-0h-0.001c0.005 0 0.011 0 0.016 0 0.046 0 0.091-0.008 0.132-0.022l-0.003 0.001 0.063-0.021 12.813-3.563c0.353-0.096 0.656-0.277 0.896-0.521l42.5-42.5c1.432-1.381 2.321-3.316 2.321-5.458 0-1.852-0.664-3.549-1.768-4.866l0.010 0.012z"></path>
</svg>
