
<svg version="1.1" xmlns="http://www.w3.org/2000/svg" width="100" height="100" viewBox="0 0 100 100">
<title>response</title>
<path fill="param(fill) #000" stroke="param(outline) #000" stroke-width="param(outline-width) 1" d="M5.208 54.167c0 0 0 0 0 0 2.876 0 5.208-2.332 5.208-5.208 0-0 0-0 0-0v0c0.086-13.255 10.851-23.967 24.118-23.967 0.232 0 0.462 0.003 0.692 0.010l-0.034-0.001h47.034l-5.711 5.711c-0.947 0.943-1.532 2.248-1.532 3.689 0 2.876 2.332 5.208 5.208 5.208 1.442 0 2.746-0.586 3.689-1.532l14.594-14.592c0.943-0.942 1.526-2.244 1.526-3.682s-0.583-2.74-1.526-3.682l-14.594-14.594c-0.942-0.938-2.241-1.518-3.676-1.518-2.876 0-5.208 2.332-5.208 5.208 0 1.435 0.58 2.734 1.519 3.676l5.691 5.692h-47.014c-0.23-0.005-0.5-0.009-0.772-0.009-18.997 0-34.4 15.39-34.421 34.382v0.002c0 0 0 0 0 0 0 2.876 2.332 5.208 5.208 5.208 0 0 0 0 0 0v0z"></path>
<path fill="param(fill) #000" stroke="param(outline) #000" stroke-width="param(outline-width) 1" d="M83.881 47.359c-0.942-0.938-2.241-1.518-3.676-1.518-2.876 0-5.208 2.332-5.208 5.208 0 1.435 0.58 2.734 1.519 3.676l5.691 5.692h-47.014c-0.23-0.005-0.5-0.009-0.772-0.009-18.997 0-34.4 15.39-34.421 34.382v0.002c0 2.876 2.332 5.208 5.208 5.208s5.208-2.332 5.208-5.208v0c0.086-13.255 10.851-23.967 24.118-23.967 0.232 0 0.462 0.003 0.692 0.010l-0.034-0.001h47.034l-5.711 5.711c-0.947 0.943-1.532 2.248-1.532 3.689 0 2.876 2.332 5.208 5.208 5.208 1.442 0 2.746-0.586 3.689-1.532l14.594-14.592c0.943-0.942 1.526-2.244 1.526-3.682s-0.583-2.74-1.526-3.682v0z"></path>
</svg>
