
<svg version="1.1" xmlns="http://www.w3.org/2000/svg" width="100" height="100" viewBox="0 0 100 100">
<title>road-closed</title>
<path fill="param(fill) #000" stroke="param(outline) #000" stroke-width="param(outline-width) 1" d="M20.833 10.417c-3.45 0.004-6.246 2.8-6.25 6.25v0h12.5c-0.004-3.45-2.8-6.246-6.25-6.25h-0z"></path>
<path fill="param(fill) #000" stroke="param(outline) #000" stroke-width="param(outline-width) 1" d="M38.125 0c6 5 9.792 12.476 9.792 20.837 0 10.387-5.85 19.407-14.436 23.946l-0.147 0.071v55.146h66.667v-100zM70.833 87.5c0 2.301-1.866 4.167-4.167 4.167s-4.167-1.866-4.167-4.167v0-12.5c0.007-2.298 1.868-4.16 4.166-4.167h0.001c2.294 0.017 4.15 1.872 4.167 4.165v0.002zM70.833 56.25c0 2.301-1.866 4.167-4.167 4.167s-4.167-1.866-4.167-4.167v0-12.5c0.007-2.298 1.868-4.16 4.166-4.167h0.001c2.294 0.017 4.15 1.872 4.167 4.165v0.002zM70.833 25c0 2.301-1.866 4.167-4.167 4.167s-4.167-1.866-4.167-4.167v0-12.5c0.007-2.298 1.868-4.16 4.166-4.167h0.001c2.294 0.017 4.15 1.872 4.167 4.165v0.002z"></path>
<path fill="param(fill) #000" stroke="param(outline) #000" stroke-width="param(outline-width) 1" d="M41.667 20.833c0-11.506-9.327-20.833-20.833-20.833s-20.833 9.327-20.833 20.833c0 11.506 9.327 20.833 20.833 20.833v0c11.504-0.004 20.829-9.329 20.833-20.833v-0zM31.25 29.167c-0 2.301-1.866 4.167-4.167 4.167h-12.5c-2.301 0-4.167-1.866-4.167-4.167v0-12.5c0-5.753 4.664-10.417 10.417-10.417s10.417 4.664 10.417 10.417v0z"></path>
<path fill="param(fill) #000" stroke="param(outline) #000" stroke-width="param(outline-width) 1" d="M18.75 20.833h4.167c1.151 0 2.083 0.933 2.083 2.083v4.167c0 1.151-0.933 2.083-2.083 2.083h-4.167c-1.151 0-2.083-0.933-2.083-2.083v-4.167c0-1.151 0.933-2.083 2.083-2.083z"></path>
</svg>
