
<svg version="1.1" xmlns="http://www.w3.org/2000/svg" width="100" height="100" viewBox="0 0 100 100">
<title>robbery</title>
<path fill="param(fill) #000" stroke="param(outline) #000" stroke-width="param(outline-width) 1" d="M40.016 39.583c-8.016-1.143-15.578-5.648-18.703-12.942l-0.466-1.088c-0.682-1.557-2.209-2.624-3.986-2.624-0.068 0-0.137 0.002-0.204 0.005l0.010-0v-0.017h-12.008c-0 0-0 0-0 0-2.573 0-4.658 2.086-4.658 4.658 0 0 0 0 0 0v0 32.35c0.008 0.195 0.027 0.378 0.057 0.557l-0.004-0.027c-0.027 0.154-0.046 0.337-0.053 0.522l-0 0.007v34.849c0 2.301 1.866 4.167 4.167 4.167s4.167-1.866 4.167-4.167v0-31.25h4.167v31.25c0 2.301 1.866 4.167 4.167 4.167s4.167-1.866 4.167-4.167v0-34.849c-0.007-0.193-0.026-0.375-0.057-0.554l0.004 0.024c0.026-0.153 0.045-0.335 0.053-0.521l0-0.010v-19.841c4.922 4.083 11.046 6.884 17.767 7.812l0.186 0.021c0.093 0.007 0.201 0.011 0.31 0.011s0.217-0.004 0.325-0.012l-0.014 0.001c0.081 0.006 0.175 0.009 0.271 0.009 2.022 0 3.7-1.47 4.025-3.399l0.003-0.024c0.028-0.184 0.043-0.396 0.043-0.612 0-2.185-1.611-3.995-3.71-4.305l-0.024-0.003z"></path>
<path fill="param(fill) #000" stroke="param(outline) #000" stroke-width="param(outline-width) 1" d="M18.75 10.417c0 4.602-3.731 8.333-8.333 8.333s-8.333-3.731-8.333-8.333c0-4.602 3.731-8.333 8.333-8.333s8.333 3.731 8.333 8.333z"></path>
<path fill="param(fill) #000" stroke="param(outline) #000" stroke-width="param(outline-width) 1" d="M79.167 12.5c0 4.602-3.731 8.333-8.333 8.333s-8.333-3.731-8.333-8.333c0-4.602 3.731-8.333 8.333-8.333s8.333 3.731 8.333 8.333z"></path>
<path fill="param(fill) #000" stroke="param(outline) #000" stroke-width="param(outline-width) 1" d="M95.833 0c-2.301 0-4.167 1.866-4.167 4.167v0c-0.155 11.443-9.39 20.679-20.819 20.833l-0.015 0c-10.689 0-18.75-8.956-18.75-20.833 0-2.301-1.866-4.167-4.167-4.167s-4.167 1.866-4.167 4.167v0c0 12.607 6.701 22.849 16.667 27.072v28.804c0.008 0.175 0.025 0.337 0.051 0.497l-0.003-0.026c-0.023 0.135-0.040 0.297-0.047 0.462l-0 0.009v34.849c0 2.301 1.866 4.167 4.167 4.167s4.167-1.866 4.167-4.167v0-31.25h4.167v31.25c0 2.301 1.866 4.167 4.167 4.167s4.167-1.866 4.167-4.167v0-34.849c-0.008-0.173-0.024-0.335-0.050-0.494l0.003 0.024c0.022-0.134 0.039-0.296 0.047-0.461l0-0.010v-28.74c10.951-4.398 18.577-14.855 18.75-27.115l0-0.021c-0-2.301-1.866-4.167-4.167-4.167v0z"></path>
</svg>
