
<svg version="1.1" xmlns="http://www.w3.org/2000/svg" width="100" height="100" viewBox="0 0 100 100">
<title>rural-exodus</title>
<path fill="param(fill) #000" stroke="param(outline) #000" stroke-width="param(outline-width) 1" d="M3.125 22.917h23.769l-7.237 7.224c-0.559 0.559-0.905 1.332-0.905 2.185 0 1.707 1.384 3.091 3.091 3.091 0.001 0 0.003 0 0.004 0h-0c0.001 0 0.003 0 0.004 0 0.853 0 1.626-0.346 2.185-0.905v0l12.452-12.43c0.333-0.306 0.599-0.68 0.774-1.101l0.008-0.021 0-0.001 0.007-0.023c0.065-0.156 0.121-0.34 0.16-0.531l0.003-0.020c0.038-0.178 0.060-0.383 0.060-0.594v-0.002c-0-0.209-0.022-0.413-0.063-0.61l0.003 0.020c-0.042-0.207-0.097-0.388-0.168-0.561l0.007 0.021-0.003-0.009-0-0.001-0.009-0.028-0-0.001c-0.182-0.438-0.445-0.809-0.772-1.111l-0.002-0.002-0-0-12.458-12.434c-0.561-0.569-1.341-0.922-2.203-0.922-1.708 0-3.093 1.385-3.093 3.093 0 0.86 0.351 1.638 0.918 2.199l0 0 7.237 7.224h-23.77c-1.726 0-3.125 1.399-3.125 3.125s1.399 3.125 3.125 3.125v0z"></path>
<path fill="param(fill) #000" stroke="param(outline) #000" stroke-width="param(outline-width) 1" d="M97.771 33.333h-4.021v-6.125c0-0.004 0-0.008 0-0.012 0-1.213-0.983-2.196-2.196-2.196-0.004 0-0.009 0-0.013 0h-4.041v-21.875c0-1.726-1.399-3.125-3.125-3.125s-3.125 1.399-3.125 3.125v0 21.875h-4.042c-0.004 0-0.008 0-0.012 0-1.213 0-2.196 0.983-2.196 2.196 0 0.004 0 0.009 0 0.013v-0.001 6.125h-4.021c-1.231 0.001-2.228 0.999-2.229 2.229v58.188h-18.75v-12.877c6.018-1.463 10.417-6.806 10.417-13.176 0-7.479-6.063-13.542-13.542-13.542s-13.542 6.063-13.542 13.542c0 6.37 4.398 11.713 10.324 13.157l0.093 0.019v12.877h-43.75v6.25h100v-64.438c-0.001-1.231-0.999-2.228-2.229-2.229h-0zM87.5 65.625c0-0.003-0-0.007-0-0.010 0-0.57 0.462-1.031 1.031-1.031 0.004 0 0.007 0 0.011 0h4.166c0.003 0 0.007-0 0.010-0 0.57 0 1.031 0.462 1.031 1.031 0 0.004 0 0.007-0 0.011v-0.001 4.167c0 0.003 0 0.007 0 0.010 0 0.57-0.462 1.031-1.031 1.031-0.004 0-0.007 0-0.011-0h-4.166c-0.003 0-0.007 0-0.010 0-0.57 0-1.031-0.462-1.031-1.031 0-0.004 0-0.007 0-0.011v0.001zM92.708 58.333h-4.167c-0.003 0-0.007 0-0.010 0-0.57 0-1.031-0.462-1.031-1.031 0-0.004 0-0.007 0-0.011v0.001-4.167c0-0.003-0-0.007-0-0.010 0-0.57 0.462-1.031 1.031-1.031 0.004 0 0.007 0 0.011 0h4.166c0.003 0 0.007-0 0.010-0 0.57 0 1.031 0.462 1.031 1.031 0 0.004 0 0.007-0 0.011v-0.001 4.167c0 0.003 0 0.007 0 0.010 0 0.57-0.462 1.031-1.031 1.031-0.004 0-0.007 0-0.011-0h0.001zM92.708 45.833h-4.167c-0.003 0-0.007 0-0.010 0-0.57 0-1.031-0.462-1.031-1.031 0-0.004 0-0.007 0-0.011v0.001-4.167c0-0.003-0-0.007-0-0.010 0-0.57 0.462-1.031 1.031-1.031 0.004 0 0.007 0 0.011 0h4.166c0.003 0 0.007-0 0.010-0 0.57 0 1.031 0.462 1.031 1.031 0 0.004 0 0.007-0 0.011v-0.001 4.167c0 0.003 0 0.007 0 0.010 0 0.57-0.462 1.031-1.031 1.031-0.004 0-0.007 0-0.011-0h0.001zM75 40.625c0-0.003-0-0.007-0-0.010 0-0.57 0.462-1.031 1.031-1.031 0.004 0 0.007 0 0.011 0h4.166c0.003 0 0.007-0 0.010-0 0.57 0 1.031 0.462 1.031 1.031 0 0.004 0 0.007-0 0.011v-0.001 4.167c0 0.003 0 0.007 0 0.010 0 0.57-0.462 1.031-1.031 1.031-0.004 0-0.007 0-0.011-0h-4.166c-0.003 0-0.007 0-0.010 0-0.57 0-1.031-0.462-1.031-1.031 0-0.004 0-0.007 0-0.011v0.001zM75 53.125c0-0.003-0-0.007-0-0.010 0-0.57 0.462-1.031 1.031-1.031 0.004 0 0.007 0 0.011 0h4.166c0.003 0 0.007-0 0.010-0 0.57 0 1.031 0.462 1.031 1.031 0 0.004 0 0.007-0 0.011v-0.001 4.167c0 0.003 0 0.007 0 0.010 0 0.57-0.462 1.031-1.031 1.031-0.004 0-0.007 0-0.011-0h-4.166c-0.003 0-0.007 0-0.010 0-0.57 0-1.031-0.462-1.031-1.031 0-0.004 0-0.007 0-0.011v0.001zM75 65.625c0-0.003-0-0.007-0-0.010 0-0.57 0.462-1.031 1.031-1.031 0.004 0 0.007 0 0.011 0h4.166c0.003 0 0.007-0 0.010-0 0.57 0 1.031 0.462 1.031 1.031 0 0.004 0 0.007-0 0.011v-0.001 4.167c0 0.003 0 0.007 0 0.010 0 0.57-0.462 1.031-1.031 1.031-0.004 0-0.007 0-0.011-0h-4.166c-0.003 0-0.007 0-0.010 0-0.57 0-1.031-0.462-1.031-1.031 0-0.004 0-0.007 0-0.011v0.001zM87.5 93.75v-10.417c0.003-1.149 0.934-2.080 2.083-2.083h2.084c1.149 0.003 2.080 0.934 2.083 2.083v10.417z"></path>
</svg>
