
<svg version="1.1" xmlns="http://www.w3.org/2000/svg" width="63" height="100" viewBox="0 0 63 100">
<title>salt</title>
<path fill="param(fill) #000" stroke="param(outline) #000" stroke-width="param(outline-width) 1" d="M58.333 27.083c0-14.958-12.126-27.083-27.083-27.083s-27.083 12.126-27.083 27.083v0l-4.167 70.833c0.003 1.149 0.934 2.080 2.083 2.083h58.334c1.149-0.003 2.080-0.934 2.083-2.083v-0zM45.833 14.583c2.301 0 4.167 1.866 4.167 4.167s-1.866 4.167-4.167 4.167c-2.301 0-4.167-1.866-4.167-4.167v0c0.007-2.298 1.868-4.16 4.166-4.167h0.001zM31.25 6.25c2.301 0 4.167 1.866 4.167 4.167s-1.866 4.167-4.167 4.167c-2.301 0-4.167-1.866-4.167-4.167v0c0.007-2.298 1.868-4.16 4.166-4.167h0.001zM16.667 14.583c2.301 0 4.167 1.866 4.167 4.167s-1.866 4.167-4.167 4.167c-2.301 0-4.167-1.866-4.167-4.167v0c0.007-2.298 1.868-4.16 4.166-4.167h0.001zM8.333 91.667l4.167-56.25h37.5l4.167 56.25z"></path>
<path fill="param(fill) #000" stroke="param(outline) #000" stroke-width="param(outline-width) 1" d="M22.917 83.333c0 2.301-1.866 4.167-4.167 4.167s-4.167-1.866-4.167-4.167c0-2.301 1.866-4.167 4.167-4.167s4.167 1.866 4.167 4.167z"></path>
<path fill="param(fill) #000" stroke="param(outline) #000" stroke-width="param(outline-width) 1" d="M35.417 83.333c0 2.301-1.866 4.167-4.167 4.167s-4.167-1.866-4.167-4.167c0-2.301 1.866-4.167 4.167-4.167s4.167 1.866 4.167 4.167z"></path>
<path fill="param(fill) #000" stroke="param(outline) #000" stroke-width="param(outline-width) 1" d="M47.917 83.333c0 2.301-1.866 4.167-4.167 4.167s-4.167-1.866-4.167-4.167c0-2.301 1.866-4.167 4.167-4.167s4.167 1.866 4.167 4.167z"></path>
<path fill="param(fill) #000" stroke="param(outline) #000" stroke-width="param(outline-width) 1" d="M22.917 70.833c0 2.301-1.866 4.167-4.167 4.167s-4.167-1.866-4.167-4.167c0-2.301 1.866-4.167 4.167-4.167s4.167 1.866 4.167 4.167z"></path>
<path fill="param(fill) #000" stroke="param(outline) #000" stroke-width="param(outline-width) 1" d="M35.417 70.833c0 2.301-1.866 4.167-4.167 4.167s-4.167-1.866-4.167-4.167c0-2.301 1.866-4.167 4.167-4.167s4.167 1.866 4.167 4.167z"></path>
<path fill="param(fill) #000" stroke="param(outline) #000" stroke-width="param(outline-width) 1" d="M22.917 58.333c0 2.301-1.866 4.167-4.167 4.167s-4.167-1.866-4.167-4.167c0-2.301 1.866-4.167 4.167-4.167s4.167 1.866 4.167 4.167z"></path>
</svg>
