
<svg version="1.1" xmlns="http://www.w3.org/2000/svg" width="52" height="100" viewBox="0 0 52 100">
<title>sanitizer</title>
<path fill="param(fill) #000" stroke="param(outline) #000" stroke-width="param(outline-width) 1" d="M39.583 0h-26.042c-1.726 0-3.125 1.399-3.125 3.125s1.399 3.125 3.125 3.125v0h7.292v18.75h-8.333c-1.149 0.004-2.080 0.934-2.083 2.083v8.334h-6.25c-2.298 0.007-4.16 1.868-4.167 4.166v56.251c0.007 2.298 1.868 4.16 4.166 4.167h39.584c2.298-0.007 4.16-1.868 4.167-4.166v-56.251c-0.007-2.298-1.868-4.16-4.166-4.167h-6.251v-8.333c-0.004-1.149-0.934-2.080-2.083-2.083h-8.334v-18.75h12.5c4.021 0 6.25 3.27 6.25 7.292 0 1.726 1.399 3.125 3.125 3.125s3.125-1.399 3.125-3.125v0c0-7.458-5.042-13.542-12.5-13.542z"></path>
</svg>
