
<svg version="1.1" xmlns="http://www.w3.org/2000/svg" width="100" height="100" viewBox="0 0 100 100">
<title>satellite-dish</title>
<path fill="param(fill) #000" stroke="param(outline) #000" stroke-width="param(outline-width) 1" d="M18.735 81.265c5.355 5.276 12.712 8.534 20.829 8.534 7.262 0 13.916-2.608 19.074-6.938l-0.046 0.037c0.466-0.389 0.76-0.969 0.76-1.619 0-0.613-0.262-1.164-0.68-1.549l-0.001-0.001-40.49-36.634c-0.37-0.329-0.861-0.531-1.399-0.531-0.651 0-1.234 0.295-1.621 0.759l-0.003 0.003c-9.671 11.308-7.275 27.086 3.576 37.937z"></path>
<path fill="param(fill) #000" stroke="param(outline) #000" stroke-width="param(outline-width) 1" d="M99.717 40.426c-6.467-19.016-21.145-33.72-39.696-40.091l-0.448-0.134c-0.384-0.129-0.827-0.204-1.287-0.204-2.3 0-4.164 1.864-4.164 4.164 0 1.84 1.193 3.401 2.848 3.952l0.029 0.008c16.471 5.64 29.194 18.39 34.682 34.49l0.115 0.388c0.559 1.684 2.12 2.877 3.96 2.877 2.3 0 4.164-1.864 4.164-4.164 0-0.46-0.075-0.903-0.212-1.316l0.008 0.029z"></path>
<path fill="param(fill) #000" stroke="param(outline) #000" stroke-width="param(outline-width) 1" d="M53.64 14.971c-0.472-0.202-1.021-0.319-1.598-0.319-2.299 0-4.163 1.864-4.163 4.163 0 1.723 1.046 3.201 2.538 3.834l0.027 0.010c12.395 4.872 22.021 14.497 26.784 26.573l0.111 0.318c0.641 1.525 2.122 2.577 3.849 2.577 2.299 0 4.163-1.864 4.163-4.163 0-0.576-0.117-1.126-0.329-1.625l0.010 0.027c-5.76-14.423-16.97-25.634-31.018-31.264l-0.374-0.132z"></path>
<path fill="param(fill) #000" stroke="param(outline) #000" stroke-width="param(outline-width) 1" d="M47.838 29.758c-0.584-0.331-1.282-0.526-2.026-0.526-2.299 0-4.163 1.864-4.163 4.163 0 1.543 0.84 2.891 2.088 3.61l0.020 0.011c8.176 4.499 14.733 11.056 19.106 18.986l0.125 0.247c0.728 1.274 2.079 2.118 3.627 2.118 2.299 0 4.164-1.864 4.164-4.164 0-0.752-0.199-1.457-0.548-2.065l0.011 0.020c-5.274-9.499-12.903-17.127-22.115-22.253l-0.288-0.147z"></path>
<path fill="param(fill) #000" stroke="param(outline) #000" stroke-width="param(outline-width) 1" d="M50.813 49.186c-0.746-0.761-1.786-1.233-2.935-1.233s-2.189 0.472-2.934 1.233l-5.996 5.996 6.141 5.601 5.725-5.725c0.761-0.747 1.233-1.786 1.233-2.935s-0.472-2.189-1.233-2.935l-0.001-0.001z"></path>
<path fill="param(fill) #000" stroke="param(outline) #000" stroke-width="param(outline-width) 1" d="M14.129 84.143c-0.384-0.487-0.975-0.797-1.638-0.797s-1.254 0.31-1.635 0.794l-0.003 0.004-10.409 12.496c-0.273 0.349-0.438 0.794-0.438 1.278 0 1.15 0.932 2.081 2.081 2.081 0 0 0 0 0 0h20.813c0 0 0 0 0 0 1.15 0 2.081-0.932 2.081-2.081 0-0.484-0.165-0.929-0.442-1.283l0.003 0.005z"></path>
</svg>
