
<svg version="1.1" xmlns="http://www.w3.org/2000/svg" width="100" height="100" viewBox="0 0 100 100">
<title>save</title>
<path fill="param(fill) #000" stroke="param(outline) #000" stroke-width="param(outline-width) 1" d="M88.095 0h-9.524v23.81c0 1.315-1.066 2.381-2.381 2.381v0h-61.905c-1.315 0-2.381-1.066-2.381-2.381v0-23.81h-7.143c-2.63 0-4.762 2.132-4.762 4.762v0 90.476c0 2.63 2.132 4.762 4.762 4.762v0h90.477c2.63 0 4.762-2.132 4.762-4.762v0-83.333zM88.095 85.714c0 1.315-1.066 2.381-2.381 2.381v0h-71.429c-1.315 0-2.381-1.066-2.381-2.381v0-42.857c0-1.315 1.066-2.381 2.381-2.381v0h71.429c1.315 0 2.381 1.066 2.381 2.381v0z"></path>
<path fill="param(fill) #000" stroke="param(outline) #000" stroke-width="param(outline-width) 1" d="M16.667 0h57.143v21.429h-57.143v-21.429z"></path>
</svg>
