
<svg version="1.1" xmlns="http://www.w3.org/2000/svg" width="100" height="100" viewBox="0 0 100 100">
<title>school</title>
<path fill="param(fill) #000" stroke="param(outline) #000" stroke-width="param(outline-width) 1" d="M96.875 93.75h-93.75c-1.726 0-3.125 1.399-3.125 3.125s1.399 3.125 3.125 3.125v0h93.75c1.726 0 3.125-1.399 3.125-3.125s-1.399-3.125-3.125-3.125v0z"></path>
<path fill="param(fill) #000" stroke="param(outline) #000" stroke-width="param(outline-width) 1" d="M41.667 68.75c0.007-2.298 1.868-4.16 4.166-4.167h8.334c2.298 0.007 4.16 1.868 4.167 4.166v20.834h33.333v-52.083c-0.003-1.149-0.934-2.080-2.083-2.083h-20.834l-14.583-10.938v-7.813h18.75v-12.5h-18.75c0-2.301-1.866-4.167-4.167-4.167s-4.167 1.866-4.167 4.167v0 20.313l-14.583 10.938h-20.833c-1.149 0.003-2.080 0.934-2.083 2.083v52.084h33.333zM72.917 45.833c0.003-1.149 0.934-2.080 2.083-2.083h4.167c1.149 0.003 2.080 0.934 2.083 2.083v10.417c-0.003 1.149-0.934 2.080-2.083 2.083h-4.167c-1.149-0.003-2.080-0.934-2.083-2.083v-0zM72.917 68.75c0.003-1.149 0.934-2.080 2.083-2.083h4.167c1.149 0.003 2.080 0.934 2.083 2.083v10.417c-0.003 1.149-0.934 2.080-2.083 2.083h-4.167c-1.149-0.003-2.080-0.934-2.083-2.083v-0zM27.083 79.167c-0.003 1.149-0.934 2.080-2.083 2.083h-4.167c-1.149-0.003-2.080-0.934-2.083-2.083v-10.417c0.003-1.149 0.934-2.080 2.083-2.083h4.167c1.149 0.003 2.080 0.934 2.083 2.083v0zM27.083 56.25c-0.003 1.149-0.934 2.080-2.083 2.083h-4.167c-1.149-0.003-2.080-0.934-2.083-2.083v-10.417c0.003-1.149 0.934-2.080 2.083-2.083h4.167c1.149 0.003 2.080 0.934 2.083 2.083v0zM58.333 43.75c0 4.602-3.731 8.333-8.333 8.333s-8.333-3.731-8.333-8.333c0-4.602 3.731-8.333 8.333-8.333v0c0.001 0 0.001 0 0.002 0 4.601 0 8.331 3.73 8.331 8.331 0 0.001 0 0.002 0 0.002v-0z"></path>
</svg>
