
<svg version="1.1" xmlns="http://www.w3.org/2000/svg" width="76" height="100" viewBox="0 0 76 100">
<title>search-and-rescue</title>
<path fill="param(fill) #000" stroke="param(outline) #000" stroke-width="param(outline-width) 1" d="M75.614 7.997c-0.338-0.403-0.794-0.697-1.315-0.829l-0.017-0.004-35.693-7.101c-0.135-0.031-0.289-0.049-0.448-0.049s-0.313 0.018-0.462 0.051l0.014-0.003-35.693 7.101c-0.538 0.136-0.995 0.43-1.33 0.829l-0.003 0.004c-0.348 0.371-0.563 0.872-0.563 1.424 0 0.012 0 0.024 0 0.036v-0.002 48.084c-0.002 0.144-0.003 0.315-0.003 0.486 0 7.699 1.928 14.947 5.327 21.289l-0.118-0.242c3.265 6.235 7.901 11.352 13.533 15.088l0.149 0.093c5.361 3.64 11.975 5.812 19.096 5.812s13.736-2.172 19.216-5.889l-0.12 0.077c5.781-3.829 10.417-8.946 13.576-14.961l0.106-0.221c3.345-6.148 5.311-13.465 5.311-21.24 0-0.088-0-0.177-0.001-0.265l0 0.014v-48.126c0-0.010 0-0.022 0-0.034 0-0.551-0.214-1.052-0.564-1.425l0.001 0.001zM23.095 30.446c0.268-0.613 0.657-1.128 1.139-1.536l0.006-0.005c0.468-0.417 1.072-0.691 1.738-0.749l0.011-0.001 11.891-1.708-5.581 16.66-9.204-9.204c-0.292-0.306-0.667-0.532-1.088-0.642l-0.016-0.004zM61.87 51.541c0 0.012 0 0.026 0 0.040 0 0.862-0.315 1.65-0.837 2.255l0.004-0.004c-0.521 0.617-1.241 1.052-2.061 1.204l-0.022 0.003-13.578 2.082-2.416 14.182-19.075 2.416-9.579-19.075 6.081-16.805 11.308 11.308c0.416 0.425 0.996 0.688 1.636 0.688 0.018 0 0.035-0 0.053-0.001h-0.003l0.5-0.104c0.823-0.122 1.482-0.711 1.704-1.485l0.004-0.015 6.789-20.283 7.518 7.601 9.1 1.791c0.837 0.196 1.55 0.638 2.079 1.245l0.004 0.005c0.493 0.583 0.792 1.342 0.792 2.172 0 0.027-0 0.054-0.001 0.081l0-0.004z"></path>
</svg>
