
<svg version="1.1" xmlns="http://www.w3.org/2000/svg" width="100" height="100" viewBox="0 0 100 100">
<title>sexual-violence</title>
<path fill="param(fill) #000" stroke="param(outline) #000" stroke-width="param(outline-width) 1" d="M72.917 20.833c-15.44 0-27.083 10.748-27.083 25 0 2.301 1.866 4.167 4.167 4.167s4.167-1.866 4.167-4.167v0c0.021-6.275 3.64-11.699 8.901-14.319l0.093-0.042-6.883 39.019c-0.018 0.103-0.028 0.221-0.028 0.342 0 1.151 0.933 2.083 2.083 2.083 0 0 0 0 0 0h4.167v22.917c0 2.301 1.866 4.167 4.167 4.167s4.167-1.866 4.167-4.167v0-22.917h4.167v22.917c0 2.301 1.866 4.167 4.167 4.167s4.167-1.866 4.167-4.167v0-22.917h4.167c1.151 0 2.083-0.933 2.083-2.083 0-0.121-0.010-0.239-0.030-0.354l0.002 0.012-6.689-38.916c5.249 2.692 8.783 8.060 8.8 14.255v0.002c0 2.301 1.866 4.167 4.167 4.167s4.167-1.866 4.167-4.167v0c0-14.252-11.643-25-27.083-25z"></path>
<path fill="param(fill) #000" stroke="param(outline) #000" stroke-width="param(outline-width) 1" d="M81.25 8.333c0 4.602-3.731 8.333-8.333 8.333s-8.333-3.731-8.333-8.333c0-4.602 3.731-8.333 8.333-8.333s8.333 3.731 8.333 8.333z"></path>
<path fill="param(fill) #000" stroke="param(outline) #000" stroke-width="param(outline-width) 1" d="M26.033 85.414c-1.726 0-3.125 1.399-3.125 3.125v0 8.331c0 1.726 1.399 3.125 3.125 3.125s3.125-1.399 3.125-3.125v0-8.331c-0-1.726-1.399-3.125-3.125-3.125v0z"></path>
<path fill="param(fill) #000" stroke="param(outline) #000" stroke-width="param(outline-width) 1" d="M48.954 70.838h-8.331c-1.726 0-3.125 1.399-3.125 3.125s1.399 3.125 3.125 3.125v0h8.331c1.726 0 3.125-1.399 3.125-3.125s-1.399-3.125-3.125-3.125v0z"></path>
<path fill="param(fill) #000" stroke="param(outline) #000" stroke-width="param(outline-width) 1" d="M26.046 47.917c-1.726 0-3.125 1.399-3.125 3.125v0 8.331c0 1.726 1.399 3.125 3.125 3.125s3.125-1.399 3.125-3.125v0-8.331c-0-1.726-1.399-3.125-3.125-3.125v0z"></path>
<path fill="param(fill) #000" stroke="param(outline) #000" stroke-width="param(outline-width) 1" d="M14.581 73.949c0-1.726-1.399-3.125-3.125-3.125v0h-8.331c-1.726 0-3.125 1.399-3.125 3.125s1.399 3.125 3.125 3.125v0h8.331c1.726-0 3.125-1.399 3.125-3.125v0z"></path>
<path fill="param(fill) #000" stroke="param(outline) #000" stroke-width="param(outline-width) 1" d="M38.666 82.156c-0.566-0.566-1.347-0.915-2.21-0.915-1.726 0-3.125 1.399-3.125 3.125 0 0.863 0.35 1.644 0.915 2.21l6.256 6.257c0.566 0.566 1.347 0.915 2.21 0.915 1.726 0 3.125-1.399 3.125-3.125 0-0.863-0.35-1.644-0.915-2.21v0z"></path>
<path fill="param(fill) #000" stroke="param(outline) #000" stroke-width="param(outline-width) 1" d="M38.659 65.755l6.257-6.256c0.566-0.566 0.915-1.347 0.915-2.21 0-1.726-1.399-3.125-3.125-3.125-0.863 0-1.644 0.35-2.21 0.915l-6.257 6.257c-0.562 0.565-0.91 1.344-0.91 2.204 0 1.726 1.399 3.125 3.125 3.125 0.86 0 1.639-0.348 2.204-0.91l-0 0z"></path>
<path fill="param(fill) #000" stroke="param(outline) #000" stroke-width="param(outline-width) 1" d="M13.419 65.755c0.566 0.566 1.347 0.915 2.21 0.915 1.726 0 3.125-1.399 3.125-3.125 0-0.863-0.35-1.644-0.915-2.21l-6.256-6.256c-0.566-0.566-1.347-0.915-2.21-0.915-1.726 0-3.125 1.399-3.125 3.125 0 0.863 0.35 1.644 0.915 2.21v0z"></path>
<path fill="param(fill) #000" stroke="param(outline) #000" stroke-width="param(outline-width) 1" d="M13.42 82.156l-6.257 6.257c-0.566 0.566-0.915 1.347-0.915 2.21 0 1.726 1.399 3.125 3.125 3.125 0.863 0 1.644-0.35 2.21-0.915l6.256-6.257c0.574-0.567 0.93-1.354 0.93-2.224 0-1.726-1.399-3.125-3.125-3.125-0.87 0-1.657 0.356-2.224 0.929l-0 0z"></path>
</svg>
