
<svg version="1.1" xmlns="http://www.w3.org/2000/svg" width="88" height="100" viewBox="0 0 88 100">
<title>shower</title>
<path fill="param(fill) #000" stroke="param(outline) #000" stroke-width="param(outline-width) 1" d="M45.833 0c-8.050 0.010-14.573 6.533-14.583 14.582v4.778c-14.264 2.79-25 14.64-25 24.389h62.5c0-9.749-10.736-21.599-25-24.389v-4.777c0.001-1.15 0.933-2.083 2.083-2.083h41.667v-12.5z"></path>
<path fill="param(fill) #000" stroke="param(outline) #000" stroke-width="param(outline-width) 1" d="M70.454 47.917h-65.909c-0.109-0.010-0.235-0.016-0.363-0.016-2.31 0-4.182 1.873-4.182 4.182s1.873 4.182 4.182 4.182c0.128 0 0.254-0.006 0.379-0.017l-0.016 0.001h65.909c0.109 0.010 0.235 0.016 0.363 0.016 2.31 0 4.182-1.873 4.182-4.182s-1.873-4.182-4.182-4.182c-0.128 0-0.254 0.006-0.379 0.017l0.016-0.001z"></path>
<path fill="param(fill) #000" stroke="param(outline) #000" stroke-width="param(outline-width) 1" d="M37.342 62.574c-0.971 1.179-6.092 7.536-6.092 10.554 0.12 3.36 2.872 6.038 6.25 6.038s6.13-2.678 6.25-6.027l0-0.011c0-3.018-5.12-9.375-6.092-10.554-0.038-0.046-0.095-0.074-0.158-0.074s-0.12 0.029-0.158 0.074l-0 0z"></path>
<path fill="param(fill) #000" stroke="param(outline) #000" stroke-width="param(outline-width) 1" d="M22.758 83.408c-0.971 1.179-6.092 7.536-6.092 10.554 0.12 3.36 2.872 6.038 6.25 6.038s6.13-2.678 6.25-6.027l0-0.011c0-3.018-5.12-9.375-6.092-10.554-0.038-0.046-0.095-0.074-0.158-0.074s-0.12 0.029-0.158 0.074l-0 0z"></path>
<path fill="param(fill) #000" stroke="param(outline) #000" stroke-width="param(outline-width) 1" d="M51.925 83.408c-0.971 1.179-6.092 7.536-6.092 10.554 0.12 3.36 2.872 6.038 6.25 6.038s6.13-2.678 6.25-6.027l0-0.011c0-3.018-5.12-9.375-6.092-10.554-0.038-0.046-0.095-0.074-0.158-0.074s-0.12 0.029-0.158 0.074l-0 0z"></path>
<path fill="param(fill) #000" stroke="param(outline) #000" stroke-width="param(outline-width) 1" d="M8.175 62.574c-0.971 1.179-6.092 7.536-6.092 10.554 0.061 3.348 2.789 6.039 6.146 6.039 0.037 0 0.073-0 0.11-0.001l-0.005 0c0.031 0.001 0.068 0.001 0.104 0.001 3.357 0 6.085-2.691 6.146-6.033l0-0.006c0-3.018-5.12-9.375-6.092-10.554-0.038-0.046-0.095-0.074-0.158-0.074s-0.12 0.029-0.158 0.074l-0 0z"></path>
<path fill="param(fill) #000" stroke="param(outline) #000" stroke-width="param(outline-width) 1" d="M66.508 62.574c-0.971 1.179-6.092 7.536-6.092 10.554 0.12 3.36 2.872 6.038 6.25 6.038s6.13-2.678 6.25-6.027l0-0.011c0-3.018-5.12-9.375-6.092-10.554-0.038-0.046-0.095-0.074-0.158-0.074s-0.12 0.029-0.158 0.074l-0 0z"></path>
</svg>
