
<svg version="1.1" xmlns="http://www.w3.org/2000/svg" width="91" height="100" viewBox="0 0 91 100">
<title>snowfall</title>
<path fill="param(fill) #000" stroke="param(outline) #000" stroke-width="param(outline-width) 1" d="M85.668 42.208c0.32 0.093 0.688 0.146 1.068 0.146 0.005 0 0.011 0 0.016 0h-0.001c2.3-0.001 4.164-1.866 4.164-4.166 0-1.915-1.292-3.528-3.051-4.015l-0.029-0.007-4.521-1.208 3.917-2.271c1.257-0.732 2.088-2.074 2.088-3.609 0-2.299-1.864-4.163-4.163-4.163-0.771 0-1.492 0.209-2.111 0.574l0.019-0.011-3.917 2.25 1.208-4.5c0.091-0.325 0.143-0.698 0.143-1.083 0-2.3-1.864-4.164-4.164-4.164-1.915 0-3.527 1.292-4.014 3.052l-0.007 0.029-3.375 12.562-13.479 7.792c-1.602-1.523-3.558-2.691-5.729-3.368l-0.104-0.028v-13.458l9.187-9.208c0.744-0.75 1.204-1.784 1.204-2.925 0-2.294-1.86-4.154-4.154-4.154-1.141 0-2.174 0.46-2.925 1.204l0-0-3.313 3.292v-6.604c0-2.301-1.866-4.167-4.167-4.167s-4.167 1.866-4.167 4.167v0 6.604l-3.313-3.292c-0.753-0.759-1.797-1.229-2.95-1.229-2.294 0-4.154 1.86-4.154 4.154 0 1.154 0.47 2.197 1.229 2.95l0 0 9.187 9.208v13.458c-2.276 0.704-4.231 1.872-5.84 3.402l0.006-0.006-13.479-7.792-3.375-12.562c-0.494-1.789-2.106-3.081-4.021-3.081-2.3 0-4.164 1.864-4.164 4.164 0 0.385 0.052 0.758 0.15 1.113l-0.007-0.029 1.208 4.5-3.917-2.25c-0.6-0.354-1.321-0.564-2.092-0.564-2.299 0-4.163 1.864-4.163 4.163 0 1.536 0.831 2.877 2.069 3.599l0.020 0.011 3.917 2.271-4.521 1.208c-1.789 0.494-3.080 2.107-3.080 4.022 0 2.3 1.864 4.165 4.164 4.166h0c0.005 0 0.010 0 0.016 0 0.38 0 0.748-0.053 1.096-0.153l-0.028 0.007 12.563-3.354 13.479 7.771c-0.265 1.013-0.417 2.176-0.417 3.375s0.152 2.362 0.438 3.471l-0.021-0.096-11.687 6.729-12.562-3.354c-0.326-0.092-0.7-0.144-1.086-0.144-2.298 0-4.162 1.863-4.162 4.162 0 1.921 1.302 3.539 3.072 4.018l0.029 0.007 4.5 1.208-5.708 3.313c-1.261 0.731-2.096 2.074-2.096 3.613 0 0.764 0.206 1.479 0.565 2.094l-0.011-0.020c0.736 1.254 2.079 2.083 3.615 2.083 0.771 0 1.493-0.209 2.113-0.573l-0.020 0.011 5.708-3.292-1.208 4.5c-0.089 0.322-0.14 0.692-0.14 1.073 0 1.922 1.3 3.541 3.069 4.024l0.029 0.007c0.316 0.093 0.679 0.146 1.054 0.146 0.010 0 0.021 0 0.031-0h-0.002c1.914-0.005 3.524-1.296 4.014-3.054l0.007-0.029 3.354-12.563 11.687-6.75c1.602 1.523 3.558 2.691 5.729 3.368l0.104 0.028v15.542l-9.187 9.208c-0.752 0.752-1.217 1.79-1.217 2.938 0 2.294 1.86 4.154 4.154 4.154 1.147 0 2.186-0.465 2.937-1.217v0l3.313-3.292v4.521c0 2.301 1.866 4.167 4.167 4.167s4.167-1.866 4.167-4.167v0-4.521l3.313 3.292c0.75 0.744 1.784 1.204 2.925 1.204 2.294 0 4.154-1.86 4.154-4.154 0-1.141-0.46-2.174-1.204-2.925l0 0-9.187-9.208v-15.542c2.276-0.704 4.231-1.872 5.84-3.402l-0.006 0.006 11.687 6.75 3.354 12.563c0.496 1.787 2.107 3.078 4.020 3.083h0.001c0.009 0 0.019 0 0.030 0 0.375 0 0.738-0.053 1.081-0.153l-0.027 0.007c1.798-0.49 3.099-2.109 3.099-4.031 0-0.382-0.051-0.751-0.147-1.102l0.007 0.029-1.208-4.5 5.708 3.292c0.6 0.354 1.323 0.563 2.094 0.563 1.536 0 2.878-0.829 3.604-2.064l0.011-0.020c0.348-0.595 0.554-1.311 0.554-2.075 0-1.538-0.835-2.882-2.076-3.602l-0.020-0.011-5.708-3.313 4.5-1.208c1.799-0.485 3.102-2.103 3.102-4.024 0-2.298-1.863-4.162-4.162-4.162-0.386 0-0.76 0.053-1.115 0.151l0.029-0.007-12.563 3.354-11.687-6.729c0.265-1.013 0.417-2.176 0.417-3.375s-0.152-2.362-0.438-3.471l0.021 0.096 13.479-7.771zM45.459 56.25c-3.452 0-6.25-2.798-6.25-6.25s2.798-6.25 6.25-6.25c3.452 0 6.25 2.798 6.25 6.25v0c0 0.002 0 0.005 0 0.008 0 3.447-2.795 6.242-6.242 6.242-0.003 0-0.006 0-0.009 0h0z"></path>
</svg>
