
<svg version="1.1" xmlns="http://www.w3.org/2000/svg" width="88" height="100" viewBox="0 0 88 100">
<title>spontaneous-site</title>
<path fill="param(fill) #000" stroke="param(outline) #000" stroke-width="param(outline-width) 1" d="M11.332 36.587c0.008 0.009 0.020 0.011 0.028 0.019 0.276 0.271 0.603 0.492 0.965 0.646l0.020 0.008c0.027 0.011 0.056 0.015 0.084 0.026 0.321 0.129 0.693 0.206 1.082 0.211h0.002l0.030 0.005 0.027-0.005c0.395-0.005 0.77-0.083 1.115-0.221l-0.021 0.007c0.025-0.009 0.050-0.013 0.075-0.023 0.388-0.164 0.72-0.388 1.001-0.665l-0 0 0.015-0.010 0.005-0.008 10.412-10.412c0.566-0.566 0.915-1.347 0.915-2.21 0-1.726-1.399-3.125-3.125-3.125-0.863 0-1.644 0.35-2.21 0.915l-5.082 5.082v-23.706c0-1.726-1.399-3.125-3.125-3.125s-3.125 1.399-3.125 3.125v0 23.708l-5.084-5.085c-0.566-0.566-1.347-0.915-2.21-0.915-1.726 0-3.125 1.399-3.125 3.125 0 0.863 0.35 1.644 0.915 2.21l10.412 10.412z"></path>
<path fill="param(fill) #000" stroke="param(outline) #000" stroke-width="param(outline-width) 1" d="M86.587 21.748c-0.566-0.565-1.347-0.915-2.21-0.915s-1.644 0.35-2.21 0.915l-5.082 5.082v-23.706c0-1.726-1.399-3.125-3.125-3.125s-3.125 1.399-3.125 3.125v0 23.708l-5.084-5.085c-0.566-0.566-1.347-0.915-2.21-0.915-1.726 0-3.125 1.399-3.125 3.125 0 0.863 0.35 1.644 0.915 2.21l10.417 10.419c0.008 0.009 0.020 0.011 0.028 0.019 0.276 0.271 0.603 0.492 0.965 0.646l0.020 0.008c0.027 0.011 0.056 0.015 0.084 0.026 0.321 0.129 0.693 0.206 1.082 0.211h0.002l0.030 0.005 0.027-0.005c0.395-0.005 0.77-0.083 1.115-0.221l-0.021 0.007c0.025-0.009 0.050-0.013 0.075-0.023 0.388-0.164 0.72-0.388 1.001-0.665l-0 0 0.015-0.010 0.005-0.008 10.412-10.412c0.566-0.566 0.915-1.347 0.915-2.21s-0.35-1.644-0.915-2.21v0z"></path>
<path fill="param(fill) #000" stroke="param(outline) #000" stroke-width="param(outline-width) 1" d="M77.085 61.792l-31.188-23.583c-0.593-0.439-1.339-0.703-2.146-0.703s-1.553 0.264-2.156 0.71l0.010-0.007-31.188 23.583c-0.673 0.494-1.14 1.235-1.269 2.087l-0.002 0.017-4.979 36.104h37.5v-20.229c0-0.625 0.937-0.833 1.292-0.292l11.521 20.521h28.854l-4.979-36.104c-0.131-0.869-0.598-1.61-1.262-2.098l-0.009-0.006z"></path>
</svg>
