
<svg version="1.1" xmlns="http://www.w3.org/2000/svg" width="100" height="100" viewBox="0 0 100 100">
<title>spring-water</title>
<path fill="param(fill) #000" stroke="param(outline) #000" stroke-width="param(outline-width) 1" d="M13.792 65.083c1.504 0.996 3.351 1.588 5.336 1.588 0.109 0 0.217-0.002 0.325-0.005l-0.016 0c0.092 0.003 0.201 0.005 0.309 0.005 1.985 0 3.832-0.593 5.373-1.611l-0.036 0.023c2.645-1.625 5.847-2.587 9.275-2.587 0.123 0 0.246 0.001 0.368 0.004l-0.018-0c0.045-0 0.098-0.001 0.151-0.001 1.677 0 3.306 0.205 4.863 0.592l-0.138-0.029v-29.729h-35.417c-2.298 0.007-4.16 1.868-4.167 4.166v25.417c1.211-0.265 2.601-0.417 4.027-0.417 0.049 0 0.098 0 0.147 0.001h-0.008c0.104-0.002 0.227-0.003 0.35-0.003 3.428 0 6.63 0.962 9.353 2.631l-0.078-0.045z"></path>
<path fill="param(fill) #000" stroke="param(outline) #000" stroke-width="param(outline-width) 1" d="M95.833 33.333h-35.417v29.729c1.408-0.358 3.024-0.563 4.688-0.563 0.058 0 0.117 0 0.175 0.001l-0.009-0c0.104-0.002 0.227-0.003 0.35-0.003 3.428 0 6.631 0.962 9.353 2.631l-0.078-0.045c1.612 0.994 3.565 1.583 5.656 1.583s4.045-0.589 5.703-1.61l-0.047 0.027c2.645-1.625 5.847-2.587 9.275-2.587 0.123 0 0.246 0.001 0.368 0.004l-0.018-0c0.042-0 0.091-0 0.14-0 1.426 0 2.817 0.152 4.156 0.441l-0.129-0.023v-25.417c-0.007-2.298-1.868-4.16-4.166-4.167h-0.001z"></path>
<path fill="param(fill) #000" stroke="param(outline) #000" stroke-width="param(outline-width) 1" d="M95.833 87.5c-0.106-0.002-0.231-0.004-0.356-0.004-3.43 0-6.635 0.966-9.357 2.64l0.078-0.044c-1.611 0.989-3.561 1.575-5.649 1.575s-4.038-0.586-5.696-1.602l0.048 0.027c-2.645-1.63-5.85-2.596-9.28-2.596-0.126 0-0.251 0.001-0.376 0.004l0.019-0c-0.106-0.002-0.231-0.004-0.357-0.004-3.429 0-6.632 0.966-9.352 2.64l0.077-0.044c-1.503 0.99-3.347 1.58-5.328 1.58-0.11 0-0.22-0.002-0.329-0.005l0.016 0c-0.093 0.003-0.203 0.005-0.313 0.005-1.982 0-3.826-0.589-5.367-1.603l0.037 0.023c-2.645-1.63-5.849-2.596-9.279-2.596-0.125 0-0.25 0.001-0.375 0.004l0.019-0c-0.106-0.002-0.23-0.004-0.355-0.004-3.43 0-6.634 0.966-9.356 2.64l0.078-0.044c-1.503 0.99-3.347 1.58-5.328 1.58-0.11 0-0.22-0.002-0.329-0.005l0.016 0c-0.093 0.003-0.201 0.005-0.311 0.005-1.981 0-3.824-0.589-5.364-1.602l0.037 0.023c-2.645-1.63-5.849-2.595-9.28-2.595-0.124 0-0.247 0.001-0.37 0.004l0.018-0c-2.301 0-4.167 1.866-4.167 4.167s1.866 4.167 4.167 4.167v0c0.093-0.003 0.202-0.005 0.312-0.005 1.981 0 3.825 0.589 5.364 1.602l-0.037-0.023c2.644 1.63 5.849 2.595 9.279 2.595 0.123 0 0.246-0.001 0.369-0.004l-0.018 0c0.106 0.002 0.23 0.004 0.355 0.004 3.43 0 6.634-0.966 9.356-2.64l-0.078 0.044c1.503-0.99 3.347-1.58 5.328-1.58 0.11 0 0.22 0.002 0.329 0.005l-0.016-0c0.093-0.003 0.203-0.005 0.313-0.005 1.982 0 3.826 0.589 5.367 1.603l-0.037-0.023c2.645 1.63 5.849 2.596 9.279 2.596 0.125 0 0.25-0.001 0.375-0.004l-0.019 0c0.104 0.002 0.227 0.003 0.35 0.003 3.432 0 6.638-0.966 9.361-2.64l-0.078 0.044c1.609-0.989 3.559-1.575 5.645-1.575s4.035 0.586 5.692 1.602l-0.048-0.027c2.763 1.629 6.087 2.592 9.636 2.592s6.874-0.963 9.726-2.641l-0.090 0.049c1.505-0.99 3.351-1.58 5.334-1.58 0.11 0 0.22 0.002 0.329 0.005l-0.016-0c2.301 0 4.167-1.866 4.167-4.167s-1.866-4.167-4.167-4.167v0z"></path>
<path fill="param(fill) #000" stroke="param(outline) #000" stroke-width="param(outline-width) 1" d="M95.833 70.833c-0.106-0.002-0.231-0.004-0.356-0.004-3.43 0-6.635 0.966-9.357 2.64l0.078-0.044c-1.611 0.989-3.561 1.575-5.649 1.575s-4.038-0.586-5.696-1.602l0.048 0.027c-2.645-1.63-5.85-2.596-9.28-2.596-0.126 0-0.251 0.001-0.376 0.004l0.019-0c-0.106-0.002-0.231-0.004-0.357-0.004-3.429 0-6.632 0.966-9.352 2.64l0.077-0.044c-1.503 0.99-3.347 1.58-5.328 1.58-0.11 0-0.22-0.002-0.329-0.005l0.016 0c-0.093 0.003-0.203 0.005-0.313 0.005-1.982 0-3.826-0.589-5.367-1.603l0.037 0.023c-2.645-1.63-5.849-2.596-9.279-2.596-0.125 0-0.25 0.001-0.375 0.004l0.019-0c-0.106-0.002-0.23-0.004-0.355-0.004-3.43 0-6.634 0.966-9.356 2.64l0.078-0.044c-1.503 0.99-3.347 1.58-5.328 1.58-0.11 0-0.22-0.002-0.329-0.005l0.016 0c-0.093 0.003-0.201 0.005-0.311 0.005-1.981 0-3.824-0.589-5.364-1.602l0.037 0.023c-2.645-1.63-5.849-2.595-9.28-2.595-0.124 0-0.247 0.001-0.37 0.004l0.018-0c-2.301 0-4.167 1.866-4.167 4.167s1.866 4.167 4.167 4.167v0c0.093-0.003 0.202-0.005 0.312-0.005 1.981 0 3.825 0.589 5.364 1.602l-0.037-0.023c2.644 1.63 5.849 2.595 9.279 2.595 0.123 0 0.246-0.001 0.369-0.004l-0.018 0c0.106 0.002 0.23 0.004 0.355 0.004 3.43 0 6.634-0.966 9.356-2.64l-0.078 0.044c1.503-0.99 3.347-1.58 5.328-1.58 0.11 0 0.22 0.002 0.329 0.005l-0.016-0c0.093-0.003 0.203-0.005 0.313-0.005 1.982 0 3.826 0.589 5.367 1.603l-0.037-0.023c2.645 1.63 5.849 2.596 9.279 2.596 0.125 0 0.25-0.001 0.375-0.004l-0.019 0c0.104 0.002 0.227 0.003 0.35 0.003 3.432 0 6.638-0.966 9.361-2.64l-0.078 0.044c1.609-0.989 3.559-1.575 5.645-1.575s4.035 0.586 5.692 1.602l-0.048-0.027c2.763 1.629 6.087 2.592 9.636 2.592s6.874-0.963 9.726-2.641l-0.090 0.049c1.505-0.99 3.351-1.58 5.334-1.58 0.11 0 0.22 0.002 0.329 0.005l-0.016-0c2.301 0 4.167-1.866 4.167-4.167s-1.866-4.167-4.167-4.167v0z"></path>
<path fill="param(fill) #000" stroke="param(outline) #000" stroke-width="param(outline-width) 1" d="M38.375 21.687l1.208-1.229 3.125-3.146 3.125-3.167v42.104c0 2.301 1.866 4.167 4.167 4.167s4.167-1.866 4.167-4.167v0-41.938l3.125 3.083 3.125 3.104 1.229 1.208c0.754 0.747 1.792 1.208 2.937 1.208 1.156 0 2.202-0.47 2.958-1.229l0-0c0.747-0.754 1.208-1.792 1.208-2.938 0-1.156-0.47-2.202-1.229-2.958l-0-0-7.104-7.042-3.167-3.125-4.458-4.417c-0.413-0.408-0.914-0.728-1.472-0.929l-0.028-0.009c-0.414-0.171-0.896-0.271-1.4-0.271-0.013 0-0.026 0-0.039 0h-0.019c-0.015-0-0.033-0-0.050-0-0.493 0-0.962 0.1-1.39 0.28l0.024-0.009c-0.596 0.212-1.104 0.539-1.521 0.958l-0 0-4.125 4.167-3.187 3.229-7.125 7.187c-0.748 0.753-1.211 1.791-1.211 2.937 0 2.302 1.867 4.169 4.169 4.169 1.156 0 2.203-0.471 2.958-1.231l0-0z"></path>
</svg>
