
<svg version="1.1" xmlns="http://www.w3.org/2000/svg" width="100" height="100" viewBox="0 0 100 100">
<title>staff-management</title>
<path fill="param(fill) #000" stroke="param(outline) #000" stroke-width="param(outline-width) 1" d="M12.5 64.583c2.301-0 4.167-1.866 4.167-4.167v0-6.25h29.167v6.25c0 2.301 1.866 4.167 4.167 4.167s4.167-1.866 4.167-4.167v0-6.25h29.167v6.25c0 2.301 1.866 4.167 4.167 4.167s4.167-1.866 4.167-4.167v0-10.417c-0-2.301-1.866-4.167-4.167-4.167h-33.333v-6.25c0-2.301-1.866-4.167-4.167-4.167s-4.167 1.866-4.167 4.167v0 6.25h-33.333c-2.301 0-4.167 1.866-4.167 4.167v0 10.417c0 2.301 1.866 4.167 4.167 4.167v0z"></path>
<path fill="param(fill) #000" stroke="param(outline) #000" stroke-width="param(outline-width) 1" d="M25 87.5c0 6.904-5.596 12.5-12.5 12.5s-12.5-5.596-12.5-12.5c0-6.904 5.596-12.5 12.5-12.5s12.5 5.596 12.5 12.5z"></path>
<path fill="param(fill) #000" stroke="param(outline) #000" stroke-width="param(outline-width) 1" d="M100 87.5c0 6.904-5.596 12.5-12.5 12.5s-12.5-5.596-12.5-12.5c0-6.904 5.596-12.5 12.5-12.5s12.5 5.596 12.5 12.5z"></path>
<path fill="param(fill) #000" stroke="param(outline) #000" stroke-width="param(outline-width) 1" d="M62.5 87.5c0 6.904-5.596 12.5-12.5 12.5s-12.5-5.596-12.5-12.5c0-6.904 5.596-12.5 12.5-12.5s12.5 5.596 12.5 12.5z"></path>
<path fill="param(fill) #000" stroke="param(outline) #000" stroke-width="param(outline-width) 1" d="M62.5 12.5c0 6.904-5.596 12.5-12.5 12.5s-12.5-5.596-12.5-12.5c0-6.904 5.596-12.5 12.5-12.5s12.5 5.596 12.5 12.5z"></path>
</svg>
