
<svg version="1.1" xmlns="http://www.w3.org/2000/svg" width="100" height="100" viewBox="0 0 100 100">
<title>submersible-pump</title>
<path fill="param(fill) #000" stroke="param(outline) #000" stroke-width="param(outline-width) 1" d="M96.979 50h-13.669v-10.417c0-1.151-0.933-2.083-2.083-2.083v0h-2.061v-26.831l5.085 5.085c0.566 0.566 1.347 0.915 2.21 0.915 1.726 0 3.125-1.399 3.125-3.125 0-0.863-0.35-1.644-0.915-2.21l-10.446-10.438c-0.276-0.271-0.602-0.491-0.963-0.646l-0.020-0.008c-0.029-0.012-0.057-0.016-0.086-0.026-0.32-0.128-0.691-0.205-1.079-0.211h-0.002l-0.032-0.006-0.029 0.005c-0.394 0.005-0.769 0.082-1.113 0.22l0.021-0.007c-0.025 0.010-0.051 0.013-0.076 0.023-0.389 0.164-0.721 0.388-1.001 0.665l0-0-0.014 0.009-0.006 0.008-10.411 10.412c-0.566 0.566-0.915 1.347-0.915 2.21 0 1.726 1.399 3.125 3.125 3.125 0.863 0 1.644-0.35 2.21-0.915l5.082-5.082v26.828h-2.083c-1.151 0-2.083 0.933-2.083 2.083v0 10.417h-18.75v-41.667c-0.014-4.597-3.737-8.319-8.332-8.333h-22.918c-4.597 0.014-8.319 3.737-8.333 8.332v41.668h-7.354c-1.676 0.009-3.032 1.366-3.042 3.041v9.876c1.204-0.265 2.587-0.417 4.005-0.417 0.049 0 0.099 0 0.148 0.001h-0.008c0.104-0.002 0.227-0.003 0.35-0.003 3.428 0 6.63 0.962 9.353 2.631l-0.078-0.045c1.504 0.996 3.351 1.588 5.336 1.588 0.109 0 0.217-0.002 0.325-0.005l-0.016 0c0.092 0.003 0.201 0.005 0.309 0.005 1.985 0 3.832-0.593 5.373-1.611l-0.036 0.023c2.645-1.625 5.847-2.587 9.275-2.587 0.123 0 0.246 0.001 0.368 0.004l-0.018-0c0.098-0.002 0.214-0.003 0.331-0.003 3.441 0 6.657 0.962 9.395 2.631l-0.080-0.045c1.495 0.996 3.333 1.589 5.309 1.589 0.118 0 0.236-0.002 0.354-0.006l-0.017 0c0.096 0.003 0.21 0.005 0.324 0.005 1.974 0 3.809-0.593 5.337-1.611l-0.035 0.022c2.652-1.625 5.863-2.587 9.299-2.587 0.122 0 0.244 0.001 0.365 0.004l-0.018-0c0.104-0.002 0.227-0.003 0.35-0.003 3.428 0 6.631 0.962 9.353 2.631l-0.078-0.045c1.612 0.994 3.565 1.583 5.656 1.583s4.045-0.589 5.703-1.61l-0.047 0.027c2.645-1.625 5.847-2.587 9.275-2.587 0.123 0 0.246 0.001 0.368 0.004l-0.018-0c0.041-0 0.090-0 0.139-0 1.434 0 2.832 0.152 4.179 0.441l-0.13-0.023v-9.875c-0.010-1.676-1.366-3.032-3.041-3.042h-0.001z"></path>
<path fill="param(fill) #000" stroke="param(outline) #000" stroke-width="param(outline-width) 1" d="M95.833 87.5c-0.106-0.002-0.231-0.004-0.356-0.004-3.43 0-6.635 0.966-9.357 2.64l0.078-0.044c-1.611 0.989-3.561 1.575-5.649 1.575s-4.038-0.586-5.696-1.602l0.048 0.027c-2.645-1.63-5.85-2.596-9.28-2.596-0.126 0-0.251 0.001-0.376 0.004l0.019-0c-0.106-0.002-0.231-0.004-0.357-0.004-3.429 0-6.632 0.966-9.352 2.64l0.077-0.044c-1.503 0.99-3.347 1.58-5.328 1.58-0.11 0-0.22-0.002-0.329-0.005l0.016 0c-0.093 0.003-0.203 0.005-0.313 0.005-1.982 0-3.826-0.589-5.367-1.603l0.037 0.023c-2.645-1.63-5.849-2.596-9.279-2.596-0.125 0-0.25 0.001-0.375 0.004l0.019-0c-0.106-0.002-0.23-0.004-0.355-0.004-3.43 0-6.634 0.966-9.356 2.64l0.078-0.044c-1.503 0.99-3.347 1.58-5.328 1.58-0.11 0-0.22-0.002-0.329-0.005l0.016 0c-0.093 0.003-0.201 0.005-0.311 0.005-1.981 0-3.824-0.589-5.364-1.602l0.037 0.023c-2.645-1.63-5.849-2.595-9.28-2.595-0.124 0-0.247 0.001-0.37 0.004l0.018-0c-2.301 0-4.167 1.866-4.167 4.167s1.866 4.167 4.167 4.167v0c0.093-0.003 0.202-0.005 0.312-0.005 1.981 0 3.825 0.589 5.364 1.602l-0.037-0.023c2.644 1.63 5.849 2.595 9.279 2.595 0.123 0 0.246-0.001 0.369-0.004l-0.018 0c0.106 0.002 0.23 0.004 0.355 0.004 3.43 0 6.634-0.966 9.356-2.64l-0.078 0.044c1.503-0.99 3.347-1.58 5.328-1.58 0.11 0 0.22 0.002 0.329 0.005l-0.016-0c0.093-0.003 0.203-0.005 0.313-0.005 1.982 0 3.826 0.589 5.367 1.603l-0.037-0.023c2.645 1.63 5.849 2.596 9.279 2.596 0.125 0 0.25-0.001 0.375-0.004l-0.019 0c0.104 0.002 0.227 0.003 0.35 0.003 3.432 0 6.638-0.966 9.361-2.64l-0.078 0.044c1.609-0.989 3.559-1.575 5.645-1.575s4.035 0.586 5.692 1.602l-0.048-0.027c2.763 1.629 6.087 2.592 9.636 2.592s6.874-0.963 9.726-2.641l-0.090 0.049c1.505-0.99 3.351-1.58 5.334-1.58 0.11 0 0.22 0.002 0.329 0.005l-0.016-0c2.301 0 4.167-1.866 4.167-4.167s-1.866-4.167-4.167-4.167v0z"></path>
<path fill="param(fill) #000" stroke="param(outline) #000" stroke-width="param(outline-width) 1" d="M95.833 70.833c-0.106-0.002-0.231-0.004-0.356-0.004-3.43 0-6.635 0.966-9.357 2.64l0.078-0.044c-1.611 0.989-3.561 1.575-5.649 1.575s-4.038-0.586-5.696-1.602l0.048 0.027c-2.645-1.63-5.85-2.596-9.28-2.596-0.126 0-0.251 0.001-0.376 0.004l0.019-0c-0.106-0.002-0.231-0.004-0.357-0.004-3.429 0-6.632 0.966-9.352 2.64l0.077-0.044c-1.503 0.99-3.347 1.58-5.328 1.58-0.11 0-0.22-0.002-0.329-0.005l0.016 0c-0.093 0.003-0.203 0.005-0.313 0.005-1.982 0-3.826-0.589-5.367-1.603l0.037 0.023c-2.645-1.63-5.849-2.596-9.279-2.596-0.125 0-0.25 0.001-0.375 0.004l0.019-0c-0.106-0.002-0.23-0.004-0.355-0.004-3.43 0-6.634 0.966-9.356 2.64l0.078-0.044c-1.503 0.99-3.347 1.58-5.328 1.58-0.11 0-0.22-0.002-0.329-0.005l0.016 0c-0.093 0.003-0.201 0.005-0.311 0.005-1.981 0-3.824-0.589-5.364-1.602l0.037 0.023c-2.645-1.63-5.849-2.595-9.28-2.595-0.124 0-0.247 0.001-0.37 0.004l0.018-0c-2.301 0-4.167 1.866-4.167 4.167s1.866 4.167 4.167 4.167v0c0.093-0.003 0.202-0.005 0.312-0.005 1.981 0 3.825 0.589 5.364 1.602l-0.037-0.023c2.644 1.63 5.849 2.595 9.279 2.595 0.123 0 0.246-0.001 0.369-0.004l-0.018 0c0.106 0.002 0.23 0.004 0.355 0.004 3.43 0 6.634-0.966 9.356-2.64l-0.078 0.044c1.503-0.99 3.347-1.58 5.328-1.58 0.11 0 0.22 0.002 0.329 0.005l-0.016-0c0.093-0.003 0.203-0.005 0.313-0.005 1.982 0 3.826 0.589 5.367 1.603l-0.037-0.023c2.645 1.63 5.849 2.596 9.279 2.596 0.125 0 0.25-0.001 0.375-0.004l-0.019 0c0.104 0.002 0.227 0.003 0.35 0.003 3.432 0 6.638-0.966 9.361-2.64l-0.078 0.044c1.609-0.989 3.559-1.575 5.645-1.575s4.035 0.586 5.692 1.602l-0.048-0.027c2.763 1.629 6.087 2.592 9.636 2.592s6.874-0.963 9.726-2.641l-0.090 0.049c1.505-0.99 3.351-1.58 5.334-1.58 0.11 0 0.22 0.002 0.329 0.005l-0.016-0c2.301 0 4.167-1.866 4.167-4.167s-1.866-4.167-4.167-4.167v0z"></path>
</svg>
