
<svg version="1.1" xmlns="http://www.w3.org/2000/svg" width="100" height="100" viewBox="0 0 100 100">
<title>table</title>
<path fill="param(fill) #000" stroke="param(outline) #000" stroke-width="param(outline-width) 1" d="M95 0h-90c-2.758 0.008-4.992 2.242-5 4.999v90.001c0.008 2.758 2.242 4.992 4.999 5h90.001c2.758-0.008 4.992-2.242 5-4.999v-90.001c-0.008-2.758-2.242-4.992-4.999-5h-0.001zM92.5 32.5v15h-60v-15zM92.5 70h-60v-15h60zM7.5 55h17.5v15h-17.5zM7.5 32.5h17.5v15h-17.5zM7.5 77.5h17.5v15h-17.5zM92.5 92.5h-60v-15h60z"></path>
</svg>
