
<svg version="1.1" xmlns="http://www.w3.org/2000/svg" width="100" height="100" viewBox="0 0 100 100">
<title>tarpaulin</title>
<path fill="param(fill) #000" stroke="param(outline) #000" stroke-width="param(outline-width) 1" d="M95.833 41.667h-91.667c-0.055-0.003-0.119-0.004-0.183-0.004-2.128 0-3.867 1.666-3.983 3.765l-0 0.010v50.791c0.117 2.109 1.856 3.775 3.983 3.775 0.064 0 0.129-0.002 0.192-0.005l-0.009 0h70.833v-16.667c0-0.001 0-0.001 0-0.002 0-4.601 3.73-8.331 8.331-8.331 0.001 0 0.001 0 0.002 0h16.667v-29.562c-0.117-2.109-1.856-3.775-3.983-3.775-0.064 0-0.129 0.002-0.192 0.005l0.009-0zM11.458 58.333c-2.876 0-5.208-2.332-5.208-5.208s2.332-5.208 5.208-5.208c2.876 0 5.208 2.332 5.208 5.208v0c-0.001 2.876-2.332 5.207-5.208 5.208h-0z"></path>
<path fill="param(fill) #000" stroke="param(outline) #000" stroke-width="param(outline-width) 1" d="M71.875 25c0.047 0.001 0.102 0.001 0.157 0.001 5.035 0 9.127-4.036 9.218-9.049l0-0.008c0-4.527-7.681-14.063-9.138-15.832-0.057-0.068-0.142-0.111-0.237-0.111s-0.18 0.043-0.237 0.111l-0 0c-1.457 1.769-9.138 11.305-9.138 15.832 0.091 5.022 4.183 9.058 9.218 9.058 0.055 0 0.11-0 0.165-0.001l-0.008 0z"></path>
<path fill="param(fill) #000" stroke="param(outline) #000" stroke-width="param(outline-width) 1" d="M44.792 25c0.047 0.001 0.102 0.001 0.157 0.001 5.035 0 9.127-4.036 9.218-9.049l0-0.008c0-4.527-7.681-14.063-9.138-15.832-0.057-0.068-0.142-0.111-0.237-0.111s-0.18 0.043-0.237 0.111l-0 0c-1.457 1.769-9.138 11.305-9.138 15.832 0.091 5.022 4.183 9.058 9.218 9.058 0.055 0 0.11-0 0.165-0.001l-0.008 0z"></path>
<path fill="param(fill) #000" stroke="param(outline) #000" stroke-width="param(outline-width) 1" d="M79.167 83.333v16.667l20.833-20.833h-16.667c-2.298 0.007-4.16 1.868-4.167 4.166v0.001z"></path>
</svg>
