
<svg version="1.1" xmlns="http://www.w3.org/2000/svg" width="107" height="100" viewBox="0 0 107 100">
<title>temporary-camp</title>
<path fill="param(fill) #000" stroke="param(outline) #000" stroke-width="param(outline-width) 1" d="M85.554 11.114l-74.174-0.001 5.424-5.423c0.603-0.603 0.976-1.437 0.976-2.357 0-1.841-1.492-3.333-3.333-3.333-0.921 0-1.754 0.373-2.357 0.976l-11.134 11.141c-0.289 0.294-0.525 0.643-0.69 1.029l-0.008 0.022c-0.012 0.029-0.017 0.060-0.028 0.090-0.137 0.342-0.22 0.739-0.225 1.154v0.002c0 0.010-0.006 0.021-0.006 0.031-0 0.010 0.005 0.019 0.005 0.029 0.005 0.421 0.088 0.821 0.235 1.189l-0.008-0.022c0.010 0.026 0.014 0.053 0.025 0.080 0.175 0.414 0.414 0.769 0.709 1.067l-0-0 0.011 0.016 0.008 0.005 11.106 11.106c0.603 0.603 1.437 0.976 2.357 0.976 1.841 0 3.333-1.492 3.333-3.333 0-0.921-0.373-1.754-0.976-2.357l-5.421-5.421 74.171 0.001c7.974 0.009 14.435 6.471 14.444 14.443v6.665c0 1.841 1.492 3.333 3.333 3.333s3.333-1.492 3.333-3.333v0-6.664c-0.014-11.654-9.457-21.097-21.11-21.111h-0.001z"></path>
<path fill="param(fill) #000" stroke="param(outline) #000" stroke-width="param(outline-width) 1" d="M88.888 59.245l-33.266-25.155c-0.632-0.468-1.428-0.75-2.289-0.75s-1.657 0.281-2.299 0.757l0.011-0.007-33.266 25.155c-0.718 0.527-1.216 1.317-1.353 2.226l-0.002 0.019-5.311 38.511h40v-21.578c0-0.667 1-0.889 1.378-0.311l11.955 21.889h31.111l-5.311-38.511c-0.139-0.927-0.638-1.717-1.346-2.238l-0.009-0.007z"></path>
</svg>
