
<svg version="1.1" xmlns="http://www.w3.org/2000/svg" width="120" height="100" viewBox="0 0 120 100">
<title>tent</title>
<path fill="param(fill) #000" stroke="param(outline) #000" stroke-width="param(outline-width) 1" d="M112.457 42.246c-0.19-1.384-0.896-2.574-1.915-3.392l-0.010-0.008-47.278-37.703c-0.881-0.712-2.015-1.144-3.25-1.144s-2.369 0.431-3.26 1.151l0.010-0.008-47.278 37.703c-1.029 0.826-1.735 2.016-1.922 3.373l-0.003 0.027-7.55 57.754h60.004v-31.577c-0-0.004-0-0.008-0-0.013 0-0.5 0.406-0.906 0.906-0.906 0.34 0 0.636 0.187 0.791 0.464l0.002 0.005 15.801 32.027h42.503z"></path>
</svg>
