
<svg version="1.1" xmlns="http://www.w3.org/2000/svg" width="75" height="100" viewBox="0 0 75 100">
<title>train</title>
<path fill="param(fill) #000" stroke="param(outline) #000" stroke-width="param(outline-width) 1" d="M71.875 85.417c1.726 0 3.125-1.399 3.125-3.125s-1.399-3.125-3.125-3.125v0h-7.292v-4.167h7.292c1.726 0 3.125-1.399 3.125-3.125s-1.399-3.125-3.125-3.125v0h-7.292v-4.167h4.167c2.298-0.007 4.16-1.868 4.167-4.166v-56.251c-0.007-2.298-1.868-4.16-4.166-4.167h-62.501c-2.298 0.007-4.16 1.868-4.167 4.166v56.251c0.007 2.298 1.868 4.16 4.166 4.167h4.167v4.167h-7.292c-1.726 0-3.125 1.399-3.125 3.125s1.399 3.125 3.125 3.125v0h7.292v4.167h-7.292c-1.726 0-3.125 1.399-3.125 3.125s1.399 3.125 3.125 3.125v0h7.292v4.167h-7.292c-1.726 0-3.125 1.399-3.125 3.125s1.399 3.125 3.125 3.125v0h7.292v1.042c0 1.726 1.399 3.125 3.125 3.125s3.125-1.399 3.125-3.125v0-1.042h41.667v1.042c0 1.726 1.399 3.125 3.125 3.125s3.125-1.399 3.125-3.125v0-1.042h7.292c1.726 0 3.125-1.399 3.125-3.125s-1.399-3.125-3.125-3.125v0h-7.292v-4.167zM58.333 64.583v4.167h-41.667v-4.167zM58.333 75v4.167h-41.667v-4.167zM58.333 85.417v4.167h-41.667v-4.167zM62.5 58.333c-2.301 0-4.167-1.866-4.167-4.167s1.866-4.167 4.167-4.167c2.301 0 4.167 1.866 4.167 4.167v0c-0.007 2.298-1.868 4.16-4.166 4.167h-0.001zM8.333 14.583c0.004-1.149 0.934-2.080 2.083-2.083h54.167c1.149 0.004 2.080 0.934 2.083 2.083v25c-0.004 1.149-0.934 2.080-2.083 2.083h-54.167c-1.149-0.004-2.080-0.934-2.083-2.083v-0zM8.333 54.167c0-2.301 1.866-4.167 4.167-4.167s4.167 1.866 4.167 4.167c0 2.301-1.866 4.167-4.167 4.167v0c-2.298-0.007-4.16-1.868-4.167-4.166v-0.001z"></path>
</svg>
