
<svg version="1.1" xmlns="http://www.w3.org/2000/svg" width="109" height="100" viewBox="0 0 109 100">
<title>transition-site</title>
<path fill="param(fill) #000" stroke="param(outline) #000" stroke-width="param(outline-width) 1" d="M90.907 58.319l-34.022-25.727c-0.647-0.479-1.46-0.767-2.341-0.767s-1.694 0.288-2.352 0.774l0.011-0.008-34.022 25.727c-0.734 0.539-1.244 1.347-1.384 2.276l-0.002 0.019-5.432 39.386h40.908v-22.068c0-0.682 1.023-0.909 1.409-0.318l12.568 22.386h31.477l-5.432-39.386c-0.142-0.948-0.652-1.756-1.377-2.289l-0.010-0.007z"></path>
<path fill="param(fill) #000" stroke="param(outline) #000" stroke-width="param(outline-width) 1" d="M108.851 15.997c0.142-0.353 0.227-0.763 0.232-1.191v-0.002c0-0.010 0.006-0.019 0.005-0.029 0-0.011-0.006-0.022-0.006-0.033-0.006-0.427-0.090-0.832-0.238-1.205l0.008 0.023c-0.011-0.031-0.016-0.062-0.028-0.092-0.177-0.417-0.418-0.773-0.714-1.075l0 0-0.020-0.031-0.008-0.006-11.358-11.358c-0.617-0.619-1.471-1.002-2.414-1.002-1.883 0-3.409 1.526-3.409 3.409 0 0.943 0.383 1.797 1.002 2.414l5.547 5.546h-85.811l5.547-5.546c0.613-0.616 0.993-1.466 0.993-2.405 0-1.883-1.526-3.409-3.409-3.409-0.938 0-1.788 0.379-2.405 0.992l-11.387 11.394c-0.296 0.301-0.537 0.657-0.705 1.052l-0.008 0.022c-0.013 0.031-0.017 0.061-0.028 0.092-0.14 0.35-0.225 0.756-0.23 1.18v0.002c0 0.011-0.006 0.022-0.006 0.033-0 0.010 0.005 0.019 0.005 0.029 0.005 0.431 0.090 0.84 0.24 1.216l-0.008-0.023c0.010 0.027 0.014 0.054 0.025 0.081 0.178 0.424 0.423 0.786 0.725 1.092l-0-0 0.011 0.017 0.009 0.006 11.358 11.358c0.617 0.617 1.469 0.998 2.411 0.998 1.883 0 3.409-1.526 3.409-3.409 0-0.941-0.382-1.794-0.999-2.411l-5.544-5.544h85.805l-5.544 5.544c-0.617 0.617-0.999 1.469-0.999 2.411 0 1.883 1.526 3.409 3.409 3.409 0.941 0 1.794-0.382 2.411-0.999l11.377-11.38c0.302-0.305 0.546-0.667 0.716-1.069l0.008-0.022c0.011-0.027 0.015-0.054 0.025-0.081z"></path>
</svg>
