
<svg version="1.1" xmlns="http://www.w3.org/2000/svg" width="109" height="100" viewBox="0 0 109 100">
<title>tunnel</title>
<path fill="param(fill) #000" stroke="param(outline) #000" stroke-width="param(outline-width) 1" d="M104.545 0h-100c-2.507 0.008-4.538 2.038-4.545 4.545v95.455h22.659v-52.273c0.053-17.57 14.309-31.793 31.886-31.793s31.833 14.223 31.886 31.788v52.278h22.659v-95.455c-0.008-2.507-2.038-4.538-4.545-4.545h-0.001z"></path>
<path fill="param(fill) #000" stroke="param(outline) #000" stroke-width="param(outline-width) 1" d="M72.727 75v-9.091c0-0.003 0-0.006 0-0.009 0-3.76-3.048-6.809-6.809-6.809-0.003 0-0.007 0-0.010 0h-22.727c-0.003 0-0.006 0-0.009 0-3.76 0-6.809 3.048-6.809 6.809 0 0.003 0 0.007 0 0.010v-0 9.091c-3.757 0.022-6.796 3.062-6.818 6.816v4.548c0 0.003 0 0.006 0 0.009 0 3.76 3.048 6.809 6.809 6.809 0.003 0 0.007 0 0.010 0h-0v2.273c0 2.51 2.035 4.545 4.545 4.545s4.545-2.035 4.545-4.545v0-2.273h18.182v2.273c0 2.51 2.035 4.545 4.545 4.545s4.545-2.035 4.545-4.545v0-2.273c0.003 0 0.006 0 0.009 0 3.76 0 6.809-3.048 6.809-6.809 0-0.003 0-0.007 0-0.010v0-4.545c-0.022-3.757-3.062-6.796-6.816-6.818h-0.002zM43.182 68.182c0.004-1.254 1.019-2.269 2.272-2.273h18.182c1.254 0.004 2.269 1.019 2.273 2.272v6.819h-22.727zM39.773 79.545c1.883 0 3.409 1.526 3.409 3.409s-1.526 3.409-3.409 3.409c-1.883 0-3.409-1.526-3.409-3.409v0c0-0.001 0-0.003 0-0.005 0-1.88 1.524-3.404 3.404-3.404 0.002 0 0.003 0 0.005 0h-0zM69.318 86.364c-1.883 0-3.409-1.526-3.409-3.409s1.526-3.409 3.409-3.409c1.883 0 3.409 1.526 3.409 3.409v0c0 0.001 0 0.003 0 0.005 0 1.88-1.524 3.404-3.404 3.404-0.002 0-0.003 0-0.005 0h0z"></path>
</svg>
