
<svg version="1.1" xmlns="http://www.w3.org/2000/svg" width="100" height="100" viewBox="0 0 100 100">
<title>urban</title>
<path fill="param(fill) #000" stroke="param(outline) #000" stroke-width="param(outline-width) 1" d="M97.771 33.333h-4.021v-6.125c0-0.004 0-0.008 0-0.012 0-1.213-0.983-2.196-2.196-2.196-0.004 0-0.009 0-0.013 0h-4.041v-21.875c0-1.726-1.399-3.125-3.125-3.125s-3.125 1.399-3.125 3.125v0 21.875h-4.041c-0.004 0-0.008 0-0.012 0-1.213 0-2.196 0.983-2.196 2.196 0 0.004 0 0.009 0 0.013v-0.001 6.125h-4.021c-1.231 0.001-2.228 0.999-2.229 2.229v58.188h-8.333v-87.5c-0.003-1.149-0.934-2.080-2.083-2.083h-25c-1.149 0.003-2.080 0.934-2.083 2.083v87.5h-14.583v-12.942c4.849-1.407 8.333-5.808 8.333-11.024 0-6.328-5.13-11.458-11.458-11.458s-11.458 5.13-11.458 11.458c0 5.215 3.484 9.617 8.252 11.004l0.081 0.020v12.942h-10.417v6.25h100v-64.438c-0.001-1.231-0.999-2.228-2.229-2.229h-0zM87.5 65.625c0-0.003-0-0.007-0-0.010 0-0.57 0.462-1.031 1.031-1.031 0.004 0 0.007 0 0.011 0h4.166c0.003 0 0.007-0 0.010-0 0.57 0 1.031 0.462 1.031 1.031 0 0.004 0 0.007-0 0.011v-0.001 4.167c0 0.003 0 0.007 0 0.010 0 0.57-0.462 1.031-1.031 1.031-0.004 0-0.007 0-0.011-0h-4.166c-0.003 0-0.007 0-0.010 0-0.57 0-1.031-0.462-1.031-1.031 0-0.004 0-0.007 0-0.011v0.001zM92.708 58.333h-4.167c-0.003 0-0.007 0-0.010 0-0.57 0-1.031-0.462-1.031-1.031 0-0.004 0-0.007 0-0.011v0.001-4.167c0-0.003-0-0.007-0-0.010 0-0.57 0.462-1.031 1.031-1.031 0.004 0 0.007 0 0.011 0h4.166c0.003 0 0.007-0 0.010-0 0.57 0 1.031 0.462 1.031 1.031 0 0.004 0 0.007-0 0.011v-0.001 4.167c0 0.003 0 0.007 0 0.010 0 0.57-0.462 1.031-1.031 1.031-0.004 0-0.007 0-0.011-0h0.001zM92.708 45.833h-4.167c-0.003 0-0.007 0-0.010 0-0.57 0-1.031-0.462-1.031-1.031 0-0.004 0-0.007 0-0.011v0.001-4.167c0-0.003-0-0.007-0-0.010 0-0.57 0.462-1.031 1.031-1.031 0.004 0 0.007 0 0.011 0h4.166c0.003 0 0.007-0 0.010-0 0.57 0 1.031 0.462 1.031 1.031 0 0.004 0 0.007-0 0.011v-0.001 4.167c0 0.003 0 0.007 0 0.010 0 0.57-0.462 1.031-1.031 1.031-0.004 0-0.007 0-0.011-0h0.001zM75 40.625c0-0.003-0-0.007-0-0.010 0-0.57 0.462-1.031 1.031-1.031 0.004 0 0.007 0 0.011 0h4.166c0.003 0 0.007-0 0.010-0 0.57 0 1.031 0.462 1.031 1.031 0 0.004 0 0.007-0 0.011v-0.001 4.167c0 0.003 0 0.007 0 0.010 0 0.57-0.462 1.031-1.031 1.031-0.004 0-0.007 0-0.011-0h-4.166c-0.003 0-0.007 0-0.010 0-0.57 0-1.031-0.462-1.031-1.031 0-0.004 0-0.007 0-0.011v0.001zM75 53.125c0-0.003-0-0.007-0-0.010 0-0.57 0.462-1.031 1.031-1.031 0.004 0 0.007 0 0.011 0h4.166c0.003 0 0.007-0 0.010-0 0.57 0 1.031 0.462 1.031 1.031 0 0.004 0 0.007-0 0.011v-0.001 4.167c0 0.003 0 0.007 0 0.010 0 0.57-0.462 1.031-1.031 1.031-0.004 0-0.007 0-0.011-0h-4.166c-0.003 0-0.007 0-0.010 0-0.57 0-1.031-0.462-1.031-1.031 0-0.004 0-0.007 0-0.011v0.001zM75 65.625c0-0.003-0-0.007-0-0.010 0-0.57 0.462-1.031 1.031-1.031 0.004 0 0.007 0 0.011 0h4.166c0.003 0 0.007-0 0.010-0 0.57 0 1.031 0.462 1.031 1.031 0 0.004 0 0.007-0 0.011v-0.001 4.167c0 0.003 0 0.007 0 0.010 0 0.57-0.462 1.031-1.031 1.031-0.004 0-0.007 0-0.011-0h-4.166c-0.003 0-0.007 0-0.010 0-0.57 0-1.031-0.462-1.031-1.031 0-0.004 0-0.007 0-0.011v0.001zM39.583 16.667c0.003-1.149 0.934-2.080 2.083-2.083h8.334c1.149 0.003 2.080 0.934 2.083 2.083v2.084c-0.003 1.149-0.934 2.080-2.083 2.083h-8.334c-1.149-0.003-2.080-0.934-2.083-2.083v-0zM39.583 33.333c0.003-1.149 0.934-2.080 2.083-2.083h8.334c1.149 0.003 2.080 0.934 2.083 2.083v2.084c-0.003 1.149-0.934 2.080-2.083 2.083h-8.334c-1.149-0.003-2.080-0.934-2.083-2.083v-0zM39.583 50c0.003-1.149 0.934-2.080 2.083-2.083h8.334c1.149 0.003 2.080 0.934 2.083 2.083v2.084c-0.003 1.149-0.934 2.080-2.083 2.083h-8.334c-1.149-0.003-2.080-0.934-2.083-2.083v-0zM39.583 93.75v-10.417c0.003-1.149 0.934-2.080 2.083-2.083h8.334c1.149 0.003 2.080 0.934 2.083 2.083v10.417zM87.5 93.75v-10.417c0.003-1.149 0.934-2.080 2.083-2.083h2.084c1.149 0.003 2.080 0.934 2.083 2.083v10.417z"></path>
</svg>
