
<svg version="1.1" xmlns="http://www.w3.org/2000/svg" width="100" height="100" viewBox="0 0 100 100">
<title>violent-wind</title>
<path fill="param(fill) #000" stroke="param(outline) #000" stroke-width="param(outline-width) 1" d="M78.125 8.333c-11.719 0.002-21.288 9.207-21.873 20.781l-0.002 0.052h0.018c-0.002 0.032-0.018 0.058-0.018 0.090v1.993c0 2.301 1.866 4.167 4.167 4.167s4.167-1.866 4.167-4.167v0-2.083c0.548-7.037 6.393-12.539 13.522-12.539 7.49 0 13.561 6.071 13.561 13.561 0 7.483-6.060 13.55-13.541 13.561h-74.015c0 0-0 0-0 0-2.271 0-4.111 1.841-4.111 4.111 0 0 0 0 0 0v0 0.11c0 0 0 0 0 0 0 2.271 1.841 4.111 4.111 4.111 0 0 0 0 0 0h74.013c12.081 0 21.875-9.794 21.875-21.875s-9.794-21.875-21.875-21.875v0z"></path>
<path fill="param(fill) #000" stroke="param(outline) #000" stroke-width="param(outline-width) 1" d="M4.042 37.5h29.291c10.355 0 18.75-8.395 18.75-18.75s-8.395-18.75-18.75-18.75c-10.355 0-18.75 8.395-18.75 18.75v0h0.018c-0.002 0.032-0.018 0.058-0.018 0.090v1.993c0 2.301 1.866 4.167 4.167 4.167s4.167-1.866 4.167-4.167v0-2.083c0-5.753 4.664-10.417 10.417-10.417s10.417 4.664 10.417 10.417c0 5.753-4.664 10.417-10.417 10.417v0h-29.291c0 0 0 0-0 0-2.233 0-4.042 1.81-4.042 4.042 0 0 0 0 0 0v0 0.249c0 0 0 0 0 0 0 2.233 1.81 4.042 4.042 4.042 0 0 0 0 0 0v0z"></path>
<path fill="param(fill) #000" stroke="param(outline) #000" stroke-width="param(outline-width) 1" d="M58.333 58.333h-54.167c-2.301 0-4.167 1.866-4.167 4.167s1.866 4.167 4.167 4.167v0h54.167c6.904 0 12.5 5.596 12.5 12.5s-5.596 12.5-12.5 12.5c-6.904 0-12.5-5.596-12.5-12.5v0-2.083c0-2.301-1.866-4.167-4.167-4.167s-4.167 1.866-4.167 4.167v0 1.993c0 0.032 0.017 0.059 0.018 0.090h-0.018c0 11.506 9.327 20.833 20.833 20.833s20.833-9.327 20.833-20.833c0-11.506-9.327-20.833-20.833-20.833v0z"></path>
</svg>
