
<svg version="1.1" xmlns="http://www.w3.org/2000/svg" width="42" height="100" viewBox="0 0 42 100">
<title>walkie-talkie</title>
<path fill="param(fill) #000" stroke="param(outline) #000" stroke-width="param(outline-width) 1" d="M37.542 29.287v-25.12c0-2.301-1.866-4.167-4.167-4.167s-4.167 1.866-4.167 4.167v0 25h-16.667v-4.167c0-1.151-0.933-2.083-2.083-2.083v0h-4.167c-1.151 0-2.083 0.933-2.083 2.083v0 4.282c-2.451 0.707-4.213 2.93-4.213 5.565 0 0.079 0.002 0.157 0.005 0.235l-0-0.011v23.61c-0 0.025-0.001 0.054-0.001 0.083 0 1.912 0.872 3.621 2.239 4.75l0.010 0.008v30.018c0.011 3.563 2.897 6.449 6.459 6.46h24.458c3.563-0.011 6.449-2.896 6.46-6.458v-30.175c1.281-1.136 2.084-2.785 2.084-4.622 0-0.023-0-0.045-0-0.068v0.003-23.61c0.003-0.066 0.004-0.144 0.004-0.222 0-2.621-1.741-4.836-4.13-5.551l-0.041-0.011zM31.292 85.938c-0.013 0.866-0.717 1.563-1.585 1.563-0.008 0-0.015-0-0.022-0h-17.666c-0.006 0-0.014 0-0.021 0-0.867 0-1.572-0.697-1.585-1.561v-9.376c0.013-0.866 0.717-1.563 1.585-1.563 0.008 0 0.015 0 0.022 0h17.666c0.006-0 0.014-0 0.021-0 0.867 0 1.572 0.697 1.585 1.561v0.001zM31.292 60.417h-20.875c-1.151 0-2.083-0.933-2.083-2.083s0.933-2.083 2.083-2.083v0h20.875c1.151 0 2.083 0.933 2.083 2.083s-0.933 2.083-2.083 2.083v0zM31.292 52.083h-20.875c-1.151 0-2.083-0.933-2.083-2.083s0.933-2.083 2.083-2.083v0h20.875c1.151 0 2.083 0.933 2.083 2.083s-0.933 2.083-2.083 2.083v0zM31.292 43.75h-20.875c-1.151 0-2.083-0.933-2.083-2.083s0.933-2.083 2.083-2.083v0h20.875c1.151 0 2.083 0.933 2.083 2.083s-0.933 2.083-2.083 2.083v0z"></path>
</svg>
