
<svg version="1.1" xmlns="http://www.w3.org/2000/svg" width="100" height="100" viewBox="0 0 100 100">
<title>water-sanitation-and-hygiene</title>
<path fill="param(fill) #000" stroke="param(outline) #000" stroke-width="param(outline-width) 1" d="M88.166 64.929c2.592 3.53 11.834 16.565 11.834 22.522 0 6.904-5.596 12.5-12.5 12.5s-12.5-5.596-12.5-12.5v0c0-5.957 9.242-18.992 11.833-22.522 0.15-0.21 0.392-0.345 0.667-0.345s0.517 0.135 0.665 0.343l0.002 0.003z"></path>
<path fill="param(fill) #000" stroke="param(outline) #000" stroke-width="param(outline-width) 1" d="M4.167 2.083h6.25c2.301 0 4.167 1.866 4.167 4.167v0 10.417h25v-10.417h-9.375c-1.726 0-3.125-1.399-3.125-3.125s1.399-3.125 3.125-3.125v0h29.167c1.726 0 3.125 1.399 3.125 3.125s-1.399 3.125-3.125 3.125v0h-9.375v10.417h21.14c13.631 0.016 24.677 11.062 24.693 24.691v4.475h2.083c1.151 0 2.083 0.933 2.083 2.083v0 6.25c-0 1.151-0.933 2.083-2.083 2.083h-20.833c-1.151 0-2.083-0.933-2.083-2.083v0-6.25c0-1.151 0.933-2.083 2.083-2.083v0h2.083v-4.474c-0.005-4.431-3.596-8.021-8.026-8.026h-56.558v10.417c-0 2.301-1.866 4.167-4.167 4.167h-6.25c-2.301-0-4.167-1.866-4.167-4.167v0-37.5c0-2.301 1.866-4.167 4.167-4.167v0z"></path>
</svg>
