
<svg version="1.1" xmlns="http://www.w3.org/2000/svg" width="73" height="100" viewBox="0 0 73 100">
<title>worm-infestation</title>
<path fill="param(fill) #000" stroke="param(outline) #000" stroke-width="param(outline-width) 1" d="M42.479 39.582h-12.046c-5.292 0-9.616-4.203-9.616-9.374s4.324-9.374 9.603-9.374h7.065c5.663-0.119 10.208-4.738 10.208-10.418s-4.545-10.299-10.196-10.417l-0.011-0h-7.052c-16.78 0-30.434 13.55-30.434 30.209s13.654 30.213 30.434 30.213h12.046c5.296 0 9.603 4.207 9.603 9.374s-4.324 9.378-9.603 9.378h-13.312c-5.752 0-10.416 4.663-10.416 10.416s4.663 10.416 10.416 10.416h13.312c16.784 0 30.438-13.55 30.438-30.209s-13.654-30.213-30.438-30.213zM34.372 4.168c0.001 0 0.003 0 0.004 0 1.726 0 3.126 1.4 3.126 3.126s-1.4 3.126-3.126 3.126c-1.726 0-3.126-1.4-3.126-3.126v0c0-0.001 0-0.003 0-0.004 0-1.724 1.398-3.122 3.122-3.122v0z"></path>
</svg>
